/* XPM */
static char * Untitled_xpm[] = {
"64 64 255 2",
"  	c #FFFFFF",
". 	c #FEFEFE",
"+ 	c #FDFDFD",
"@ 	c #FCFCFC",
"# 	c #FBFBFB",
"$ 	c #FAFAFA",
"% 	c #F8F8F8",
"& 	c #F7F7F7",
"* 	c #F6F6F6",
"= 	c #F4F4F4",
"- 	c #F3F3F3",
"; 	c #F2F2F2",
"> 	c #F1F1F1",
", 	c #F0F0F0",
"' 	c #F5F5F5",
") 	c #F9F9F9",
"! 	c #EFEFEF",
"~ 	c #EDEDED",
"{ 	c #ECECEC",
"] 	c #EAEAEA",
"^ 	c #E9E9E9",
"/ 	c #E8E8E8",
"( 	c #E7E7E7",
"_ 	c #E6E6E6",
": 	c #E3E3E3",
"< 	c #E1E1E1",
"[ 	c #DEDEDE",
"} 	c #DDDDDD",
"| 	c #DCDCDC",
"1 	c #DBDBDB",
"2 	c #E0E0E0",
"3 	c #E4E4E4",
"4 	c #EEEEEE",
"5 	c #E5E5E5",
"6 	c #D8D8D8",
"7 	c #D5D5D5",
"8 	c #D1D1D1",
"9 	c #CECECE",
"0 	c #CCCCCC",
"a 	c #CBCBCB",
"b 	c #CACACA",
"c 	c #CDCDCD",
"d 	c #D0D0D0",
"e 	c #D3D3D3",
"f 	c #D7D7D7",
"g 	c #DFDFDF",
"h 	c #D2D2D2",
"i 	c #C5C5C5",
"j 	c #C0C0C0",
"k 	c #BCBCBC",
"l 	c #B9B9B9",
"m 	c #B6B6B6",
"n 	c #B5B5B5",
"o 	c #B4B4B4",
"p 	c #C1C1C1",
"q 	c #D4D4D4",
"r 	c #C4C4C4",
"s 	c #A5A5A5",
"t 	c #9F9F9F",
"u 	c #9A9A9A",
"v 	c #969696",
"w 	c #949494",
"x 	c #939393",
"y 	c #999999",
"z 	c #9B9B9B",
"A 	c #9D9D9D",
"B 	c #A4A4A4",
"C 	c #AAAAAA",
"D 	c #B0B0B0",
"E 	c #B7B7B7",
"F 	c #BFBFBF",
"G 	c #C7C7C7",
"H 	c #CFCFCF",
"I 	c #D6D6D6",
"J 	c #EBEBEB",
"K 	c #ADADAD",
"L 	c #A3A3A3",
"M 	c #919191",
"N 	c #888888",
"O 	c #808080",
"P 	c #7B7B7B",
"Q 	c #767676",
"R 	c #747474",
"S 	c #787878",
"T 	c #7C7C7C",
"U 	c #878787",
"V 	c #8F8F8F",
"W 	c #9E9E9E",
"X 	c #A8A8A8",
"Y 	c #B2B2B2",
"Z 	c #C6C6C6",
"` 	c #D9D9D9",
" .	c #ABABAB",
"..	c #8C8C8C",
"+.	c #777777",
"@.	c #6E6E6E",
"#.	c #616161",
"$.	c #5A5A5A",
"%.	c #555555",
"&.	c #515151",
"*.	c #4E4E4E",
"=.	c #4D4D4D",
"-.	c #505050",
";.	c #525252",
">.	c #595959",
",.	c #636363",
"'.	c #6B6B6B",
").	c #727272",
"!.	c #828282",
"~.	c #8E8E8E",
"{.	c #A6A6A6",
"].	c #B3B3B3",
"^.	c #BABABA",
"/.	c #8A8A8A",
"(.	c #7D7D7D",
"_.	c #6A6A6A",
":.	c #5E5E5E",
"<.	c #484848",
"[.	c #3F3F3F",
"}.	c #383838",
"|.	c #343434",
"1.	c #303030",
"2.	c #2E2E2E",
"3.	c #2D2D2D",
"4.	c #424242",
"5.	c #494949",
"6.	c #5F5F5F",
"7.	c #7E7E7E",
"8.	c #B8B8B8",
"9.	c #8D8D8D",
"0.	c #7A7A7A",
"a.	c #696969",
"b.	c #575757",
"c.	c #4A4A4A",
"d.	c #3D3D3D",
"e.	c #323232",
"f.	c #292929",
"g.	c #222222",
"h.	c #1C1C1C",
"i.	c #191919",
"j.	c #161616",
"k.	c #141414",
"l.	c #151515",
"m.	c #1E1E1E",
"n.	c #2B2B2B",
"o.	c #4F4F4F",
"p.	c #5C5C5C",
"q.	c #707070",
"r.	c #929292",
"s.	c #A2A2A2",
"t.	c #C2C2C2",
"u.	c #848484",
"v.	c #474747",
"w.	c #393939",
"x.	c #2C2C2C",
"y.	c #212121",
"z.	c #121212",
"A.	c #0C0C0C",
"B.	c #090909",
"C.	c #060606",
"D.	c #050505",
"E.	c #040404",
"F.	c #070707",
"G.	c #0D0D0D",
"H.	c #131313",
"I.	c #1A1A1A",
"J.	c #252525",
"K.	c #313131",
"L.	c #3E3E3E",
"M.	c #606060",
"N.	c #8B8B8B",
"O.	c #AFAFAF",
"P.	c #909090",
"Q.	c #3B3B3B",
"R.	c #1F1F1F",
"S.	c #020202",
"T.	c #010101",
"U.	c #080808",
"V.	c #0F0F0F",
"W.	c #181818",
"X.	c #242424",
"Y.	c #585858",
"Z.	c #717171",
"`.	c #868686",
" +	c #A7A7A7",
".+	c #737373",
"++	c #444444",
"@+	c #000000",
"#+	c #030303",
"$+	c #111111",
"%+	c #1D1D1D",
"&+	c #414141",
"*+	c #545454",
"=+	c #C3C3C3",
"-+	c #0E0E0E",
";+	c #0B0B0B",
">+	c #282828",
",+	c #6D6D6D",
"'+	c #858585",
")+	c #535353",
"!+	c #272727",
"~+	c #171717",
"{+	c #0A0A0A",
"]+	c #262626",
"^+	c #3C3C3C",
"/+	c #6F6F6F",
"(+	c #898989",
"_+	c #A9A9A9",
":+	c #E2E2E2",
"<+	c #C8C8C8",
"[+	c #979797",
"}+	c #B1B1B1",
"|+	c #434343",
"1+	c #2A2A2A",
"2+	c #A1A1A1",
"3+	c #BBBBBB",
"4+	c #757575",
"5+	c #AEAEAE",
"6+	c #DADADA",
"7+	c #ACACAC",
"8+	c #202020",
"9+	c #646464",
"0+	c #838383",
"a+	c #BEBEBE",
"b+	c #A0A0A0",
"c+	c #C9C9C9",
"d+	c #353535",
"e+	c #464646",
"f+	c #656565",
"g+	c #454545",
"h+	c #363636",
"i+	c #989898",
"j+	c #4C4C4C",
"k+	c #232323",
"l+	c #626262",
"m+	c #676767",
"n+	c #101010",
"o+	c #818181",
"p+	c #5B5B5B",
"q+	c #2F2F2F",
"r+	c #959595",
"s+	c #6C6C6C",
"t+	c #5D5D5D",
"u+	c #565656",
"v+	c #373737",
"w+	c #4B4B4B",
"x+	c #333333",
"y+	c #3A3A3A",
"z+	c #1B1B1B",
"A+	c #BDBDBD",
"B+	c #797979",
"C+	c #9C9C9C",
"D+	c #404040",
"E+	c #7F7F7F",
"F+	c #666666",
"                                        . + @ # $ % & * = - ; > > , , , > ; ; = ' * & ) $ # @ + . .                             ",
"                                    . + @ # ) & ' - > ! ~ { ] ^ / / ( / ^ ] { ~ ! > - ' * % $ # @ + . .                         ",
"                                . . + # $ & ' ; ! { ^ _ : < [ } | 1 1 | [ 2 < 3 ( ] { ! ; = & ) $ @ + . .                       ",
"                              . + @ $ % ' > 4 ] 5 < } 6 7 8 9 0 a a b a c d e f 1 g : / { ! ; ' % $ # + . .                     ",
"                            . + # ) ' ; ~ / : } f h a i j k l m n o n m l k p i a 8 f } : / { , = & ) # + . .                   ",
"                          . @ $ & - ! ^ : | q 0 r k o s t u v w x y z A t B C D E F G H I } 3 ] ! - * ) # + . .                 ",
"                      . + @ ) ' > J 5 } q b j K L u M N O P Q R R R Q S T U V v W X Y k Z d ` < ( 4 ; * ) # + .                 ",
"                    . + # % = ! / g I 0 E  .t ..O +.@.#.$.%.&.*.=.-.;.%.>.,.'.).!.~.y {.].F b 7 [ _ ~ ; * ) @ + .               ",
"                  . + $ & ; { 3 1 d ^.K t /.(._.:.;.<.[.}.|.1.2.3.2.1.|.}.4.5.%.6.'.7...u C 8.i h } _ ~ - & $ @ . .             ",
"                . @ $ * > ] < f b ].s 9.0.a.b.c.d.e.f.g.h.i.j.k.k.l.j.i.m.g.n.|.[.o.p.q.O r.s.Y t.d | 5 4 = % # + .             ",
"            . + @ ) * , / g q k K v u.@.>.v.w.x.y.i.z.A.B.C.D.E.E.D.D.F.B.G.H.I.J.K.L.-.M.+.N.W O.j d | _ ! ' ) @ + .           ",
"          . + @ ) ' ! / [ h l C P.S #.=.Q.n.R.k.A.F.E.S.T.T.T.T.T.T.T.T.T.S.E.U.V.W.X.|.v.Y.Z.`.z O.p 8 [ ^ > * $ + .           ",
"        . + # ) ' ! ( } d 8. +9..+$.++K.y.l.A.D.S.T.T.@+@+@+@+@+@+@+@+@+@+@+T.T.#+U.$+%+3.&+*+@.u.z D =+e < J - % # + .         ",
"      . + # ) ' , ( } 8 8.{.N.Z.%.L.n.I.-+C.S.T.@+@+@+@+@+@+@+@+@+@+@+@+@+@+@+@+@+T.E.;+W.>+d.;.,+'+A ].G f 3 4 ' $ + .         ",
"    . + @ ) ' , ^ g h l  +N.q.)+Q.!+~+{+E.T.@+@+@+@+@+@+@+@+@+@+@+@+@+@+@+@+@+@+@+@+T.#+U.l.]+^+;./+(+s.8.0 | ^ ; % # .         ",
"  . + @ ) * > ] < q r _+9.Z.*+Q.]+l.U.#+T.@+@+@+@+@+@+@+@+@+@+@+@+@+@+@+@+@+@+@+@+@+@+@+S.F.k.]+d.>.R V X F h :+~ ' $ + .       ",
". . @ $ & ; { : 6 <+K M R Y.d.!+l.U.S.@+@+@+@+@+@+@+@+@+@+@+@+@+@+@+@+@+@+@+@+@+@+@+@+@+@+S.U.j.f.4.M.T [+}+G ` ( > % @ .       ",
". + # % - 4 _ 1 c Y W O :.|+1+j.U.S.@+@+@+@+@+@+@+@+@+@+@+@+@+@+@+@+@+@+@+@+@+@+@+@+@+@+@+@+S.B.I.1.5.a.`.2+3+d < ~ ' # +       ",
"+ # ) ' , ^ g h p s U a.c.1.i.B.S.@+@+@+@+@+@+@+@+@+@+@+@+@+@+@+@+@+@+@+@+@+@+@+@+@+@+@+@+@+T.#+-+R.}.b.4+r.5+Z 6+/ ; ) @ .     ",
"@ $ & ; { 3 6 <+7+[+R %.}.8+G.E.T.@+@+@+@+@+@+@+@+@+@+@+@+@+@+@+@+@+@+@+@+@+@+@+@+@+@+@+@+@+@+T.D.H.1+4.9+0+2+3+h : ! & # .     ",
"# ) ' ! / [ d a+b+!.9+|+f.k.D.T.@+@+@+@+@+@+@+@+@+@+@+@+@+@+@+@+@+@+@+@+@+@+@+@+@+@+@+@+@+@+@+@+S.{+h.|.*+.+x D c+} J = $ + .   ",
"$ & ; { : f <+o v Q ;.d+%+;+S.@+@+@+@+@+@+@+@+@+@+@+@+@+@+@+@+@+@+@+@+@+@+@+@+@+@+@+@+@+@+@+@+@+T.E.z.>+e+f+'+B j I ( ; ) + .   ",
") ' , / g 8 j s.0+9+g+>+z.D.T.@+@+@+@+@+@+@+@+@+@+@+@+@+@+@+@+@+@+@+@+@+@+@+@+@+@+@+@+@+@+@+@+@+@+S.B.h.h+Y.S y E d :+! & @ .   ",
"& - ~ 5 6+a 8.i+S Y.w.R.;+S.@+@+@+@+@+@+@+@+@+@+@+@+@+@+@+@+@+@+@+@+@+@+@+@+@+@+@+@+@+@+@+@+@+@+@+T.D.k.x.j+,+V 5+c+[ { * # + . ",
"* > J < 7 r D P./+j+2.~+C.T.@+@+@+@+@+@+@+@+@+@+@+@+@+@+@+@+@+@+@+@+@+@+@+@+@+@+@+@+@+@+@+@+@+@+@+@+S.G.k+4.l+'+s t.` ^ = $ + . ",
"' , / } d a+_+N m+|+]+n+#+@+@+@+@+@+@+@+@+@+@+@+@+@+@+@+@+@+@+@+@+@+@+@+@+@+@+@+@+@+@+@+@+@+@+@+@+@+T.U.h.w.>.P W k q _ ; ) @ . ",
"= 4 _ 6+0 l z o+p+Q.R.;+S.@+@+@+@+@+@+@+@+@+@+@+@+@+@+@+@+@+@+@+@+@+@+@+@+@+@+@+@+@+@+@+@+@+@+@+@+@+T.D.~+q+-..+v m d : , % @ . ",
"- ~ 3 6 <+n r+S *+|.I.U.T.@+@+@+@+@+@+@+@+@+@+@+@+@+@+@+@+@+@+@+@+@+@+@+@+@+@+@+@+@+@+@+@+@+@+@+@+@+@+#+$+>+5.s+V D a 2 ! & @ . ",
"; J :+I Z Y M .+o.1.~+C.T.@+@+@+@+@+@+@+@+@+@+@+@+@+@+@+@+@+@+@+@+@+@+@+@+@+@+@+@+@+@+@+@+@+@+@+@+@+@+S.-+X.++m+/. .<+[ ~ * # + ",
"> ] < q r O.~.q.j+2.l.D.T.@+@+@+@+@+@+@+@+@+@+@+@+@+@+@+@+@+@+@+@+@+@+@+@+@+@+@+@+@+@+@+@+@+@+@+@+@+@+S.;+8+[.l+`.X Z | { ' # + ",
"> ] 2 e =+5+9.@.c.x.H.E.T.@+@+@+@+@+@+@+@+@+@+@+@+@+@+@+@+@+@+@+@+@+@+@+@+@+@+@+@+@+@+@+@+@+@+@+@+@+@+T.{+m.d.6.0+s =+1 J ' $ + ",
"> ] 2 e t.K 9.Z.c.x.k.E.T.@+@+@+@+@+@+@+@+@+@+@+@+@+@+@+@+@+@+@+@+@+@+@+@+@+@+@+@+@+@+@+@+@+@+@+@+@+@+T.B.%+Q.p.o+B t.6+] = $ + ",
"> ] 2 e =+5+r+).-.2.j.D.T.@+@+@+@+@+@+@+@+@+@+@+@+@+@+@+@+@+@+@+@+@+@+@+@+@+@+@+@+@+@+@+@+@+@+@+@+@+@+T.B.R.Q.t+O s.p ` ] = $ + ",
"> ] < q r D [+R )+e.W.C.T.@+@+@+@+@+@+@+@+@+@+@+@+@+@+@+@+@+@+@+@+@+@+@+@+@+@+@+@+@+@+@+@+@+@+@+@+@+@+T.{+R.Q.p.o+L p ` ] = $ + ",
"; { : I Z Y u S u+v+h.B.T.@+@+@+@+@+@+@+@+@+@+@+@+@+@+@+@+@+@+@+@+@+@+@+@+@+@+@+@+@+@+@+@+@+@+@+@+@+@+S.;+y.d.6.0+s =+6+J ' $ + ",
"- ~ 3 6 c+m t (.p.^+y.A.S.@+@+@+@+@+@+@+@+@+@+@+@+@+@+@+@+@+@+@+@+@+@+@+@+@+@+@+@+@+@+@+@+@+@+@+@+@+@+S.G.X.&+,.`. +i | { ' $ + ",
"= 4 _ 1 0 ^.B /.m+e+!+$+E.T.@+@+@+@+@+@+@+@+@+@+@+@+@+@+@+@+@+@+@+@+@+@+@+@+@+@+@+@+@+@+@+@+@+@+@+@+@+#+$+>+g+m+/. .G } ~ * # + ",
"' , / [ 8 j  .M /+*.K.W.F.T.@+@+@+@+@+@+@+@+@+@+@+@+@+@+@+@+@+@+@+@+@+@+@+@+@+@+@+@+@+@+@+@+@+@+@+@+T.D.l.3.w+s+~.O.a 2 4 & # . ",
"* ; J :+7 i Y u +.p.Q.y.G.S.@+@+@+@+@+@+@+@+@+@+@+@+@+@+@+@+@+@+@+@+@+@+@+@+@+@+@+@+@+@+@+@+@+@+@+@+T.F.I.x+;.R v o H : , % @ . ",
"& - ~ 5 6+a l L N m+v.x.l.C.T.@+@+@+@+@+@+@+@+@+@+@+@+@+@+@+@+@+@+@+@+@+@+@+@+@+@+@+@+@+@+@+@+@+@+@+S.G.y.Q.$.T A 3+q _ ; ) + . ",
") ' , / g h p 7+w .+Y.y+R.A.#+@+@+@+@+@+@+@+@+@+@+@+@+@+@+@+@+@+@+@+@+@+@+@+@+@+@+@+@+@+@+@+@+@+@+T.E.H.>+++9+`.s p 6 ^ - $ +   ",
"$ & ; { : 6 c+E b+U f+e+x.~+F.T.@+@+@+@+@+@+@+@+@+@+@+@+@+@+@+@+@+@+@+@+@+@+@+@+@+@+@+@+@+@+@+@+@+S.B.z+e.o.@.V 5+<+} { ' # .   ",
"# ) ' ! / [ 8 p 7+w 0.>.^+X.n+E.T.@+@+@+@+@+@+@+@+@+@+@+@+@+@+@+@+@+@+@+@+@+@+@+@+@+@+@+@+@+@+@+T.E.$+X.L.p+P u E H :+! & @ .   ",
"@ $ & ; { 3 ` b 8.s.(+a.-.|.m.A.#+T.@+@+@+@+@+@+@+@+@+@+@+@+@+@+@+@+@+@+@+@+@+@+@+@+@+@+@+@+@+@+S.B.I.q+c.a.N {.j I ( ; ) +     ",
"+ @ ) ' , ^ g e r D y O #.<.2.i.B.S.@+@+@+@+@+@+@+@+@+@+@+@+@+@+@+@+@+@+@+@+@+@+@+@+@+@+@+@+@+T.C.H.J.d.>.+.r+}+c+| J ' # .     ",
". + # % = ~ _ 1 9 A+_+M B+$.4.1+j.U.S.@+@+@+@+@+@+@+@+@+@+@+@+@+@+@+@+@+@+@+@+@+@+@+@+@+@+@+T.E.G.m.x+j+a.`.L k h :+! & @ .     ",
"  . @ $ & ; { : 6 c+8.L ...+%.[.!+l.B.S.T.@+@+@+@+@+@+@+@+@+@+@+@+@+@+@+@+@+@+@+@+@+@+@+@+T.#+;+i.3.|+:.0.v D G 6+^ - $ +       ",
"  . + @ ) * , ] < 7 i o t N /+)+d.!+~+{+#+T.@+@+@+@+@+@+@+@+@+@+@+@+@+@+@+@+@+@+@+@+@+@+T.#+{+j.!+d.%.q...{.a+h :+4 & @ .       ",
"    . + @ ) ' ! / [ h =+}+C+`.@.b.d.n.i.G.D.S.T.@+@+@+@+@+@+@+@+@+@+@+@+@+@+@+@+@+@+@+T.#+{+j.]+w.-.a.0+A n c+1 / ; ) +         ",
"      . + # % = 4 ( } 8 p D C+'+@.Y.D+2.R.$+U.#+T.@+@+@+@+@+@+@+@+@+@+@+@+@+@+@+@+T.S.D.A.~+]+w.=.f+7.[+5+t.7 : 4 * # .         ",
"        . + # % = 4 _ | d p D C+U Z.p.5.x+X.W.-+F.#+T.T.@+@+@+@+@+@+@+@+@+@+@+T.S.#+U.n+z+f.y+*.,.P r._+A+H g ] - ) +           ",
"          . + # % = 4 _ | d t.}+W N.Q l+-.[.q+y.j.V.U.D.#+S.T.T.T.T.T.T.T.S.S.E.U.-+~+g.q+[.&.f+P M {.^.0 1 ( , & @ .           ",
"            . + # % = 4 ( } h r ].s.P.T _.>.<.y+2.k+I.z.G.B.C.D.E.E.E.D.C.U.A.$+~+8+n.v+v.b._.7.M {.l c+6 3 4 ' $ +             ",
"              . + @ ) ' ! / g q G 8.X v '+4+9+%.<.^+K.>+g.h.W.l.H.z.z.k.l.i.m.J.x.h+|+&.#.Z.0+v  +l c+I :+{ = ) @ .             ",
"                . + @ ) * , ^ < f a a+D b+P.o+).9+Y.j+|+y+|.q+n.f.!+!+1+x.1.v+L.e+;.:.,+P /.z  .3+b I :+J ; % # .               ",
"                  . . @ $ * ; { 3 1 8 i 8. .A ~.!.4+_.M.Y.&.w+v.++|+4.g+<.j+)+p+9+@.0.N r+L }+F c 6 :+J ; & # +                 ",
"                      . @ $ % - 4 ( 2 I 0 p m _+W x (+E++.q._.F+,.#.#.,.F+'.q.S o+N.v 2+5+^.i 8 | 3 { ; & # + .                 ",
"                        . + # ) ' , J 3 | q a p E 5+s C+r+~.(+'+!.o+O !.'+(+~.w A {.O.8.=+c I g _ ~ - & $ + .                   ",
"                          . + @ $ & - 4 ^ : | 7 c i a+m D C s s.b+t W t s.{.C O.m a+Z c 7 | : ^ ! = & $ + .                     ",
"                            . . + # ) * ; 4 ^ 3 [ f h 0 G t.a+k l 8.8.l 3+A+p Z a 8 f } :+( ~ > ' % # + .                       ",
"                                . + @ $ % ' ; 4 J _ :+[ ` 7 e d 9 c c 9 H 8 q 6 | 2 3 ^ { , = & ) # + .                         ",
"                                  . . + # $ % ' - , 4 J ( 5 : 2 g [ [ g 2 < : 5 ^ J 4 > = * % # @ + .                           ",
"                                      . + @ # $ % & ' - > , 4 ~ J J J J J { 4 , > - ' & ) $ @ + . .                             ",
"                                          . + + @ $ ) % & * ' ' = - - - = = ' * & ) $ # @ + + . .                               "};
