/* XPM */
static char * foe3_xpm[] = {
"64 64 448 2",
"  	c #627B0E",
". 	c #5F790C",
"+ 	c #5E770B",
"@ 	c #5D760A",
"# 	c #597308",
"$ 	c #5B7408",
"% 	c #5B7508",
"& 	c #5C7509",
"* 	c #5D7508",
"= 	c #5F760A",
"- 	c #61770B",
"; 	c #62790B",
"> 	c #64790C",
", 	c #647B0C",
"' 	c #657A0D",
") 	c #64790B",
"! 	c #748037",
"~ 	c #8B8A71",
"{ 	c #90907C",
"] 	c #979688",
"^ 	c #8C8C75",
"/ 	c #6B7C23",
"( 	c #61790A",
"_ 	c #5E7608",
": 	c #60780A",
"< 	c #60770B",
"[ 	c #5E770A",
"} 	c #60790C",
"| 	c #627A0C",
"1 	c #637B0C",
"2 	c #647C0E",
"3 	c #647C0D",
"4 	c #627B0C",
"5 	c #61790C",
"6 	c #5F770A",
"7 	c #5E750A",
"8 	c #60770A",
"9 	c #5F7608",
"0 	c #62790A",
"a 	c #637A0C",
"b 	c #58700A",
"c 	c #425D04",
"d 	c #687F10",
"e 	c #5C750A",
"f 	c #476305",
"g 	c #526D06",
"h 	c #567108",
"i 	c #6A8210",
"j 	c #647C0F",
"k 	c #647D0D",
"l 	c #667D0F",
"m 	c #647D0F",
"n 	c #617A0D",
"o 	c #5D7509",
"p 	c #5D7409",
"q 	c #5B7308",
"r 	c #61780A",
"s 	c #637A0D",
"t 	c #63780A",
"u 	c #6B7C21",
"v 	c #89896E",
"w 	c #8B8A70",
"x 	c #83865E",
"y 	c #687C14",
"z 	c #62770A",
"A 	c #607709",
"B 	c #63790D",
"C 	c #62790C",
"D 	c #60780B",
"E 	c #61780B",
"F 	c #5E7709",
"G 	c #5F7709",
"H 	c #5F7609",
"I 	c #61780D",
"J 	c #4D6707",
"K 	c #516B0A",
"L 	c #5E790D",
"M 	c #436104",
"N 	c #4D6806",
"O 	c #5A740B",
"P 	c #5F780B",
"Q 	c #61790B",
"R 	c #647B0D",
"S 	c #637B0D",
"T 	c #5F780A",
"U 	c #5E7508",
"V 	c #5F7509",
"W 	c #607808",
"X 	c #657A0C",
"Y 	c #667A13",
"Z 	c #6E7E27",
"` 	c #6D7F1F",
" .	c #647810",
"..	c #63780B",
"+.	c #60760A",
"@.	c #607708",
"#.	c #63770B",
"$.	c #617609",
"%.	c #61750A",
"&.	c #435E04",
"*.	c #486506",
"=.	c #456104",
"-.	c #4B6606",
";.	c #587108",
">.	c #5E7509",
",.	c #627B0D",
"'.	c #5E7507",
").	c #65790D",
"!.	c #627709",
"~.	c #617508",
"{.	c #62780C",
"].	c #617608",
"^.	c #627708",
"/.	c #607508",
"(.	c #577009",
"_.	c #3C5A02",
":.	c #416003",
"<.	c #4D6A06",
"[.	c #60790A",
"}.	c #64790A",
"|.	c #65790C",
"1.	c #627A0A",
"2.	c #627609",
"3.	c #637709",
"4.	c #5F7308",
"5.	c #5D7507",
"6.	c #5E7308",
"7.	c #587008",
"8.	c #587007",
"9.	c #63770C",
"0.	c #667B0E",
"a.	c #617A0A",
"b.	c #627A0D",
"c.	c #657D0E",
"d.	c #667E0F",
"e.	c #5E780C",
"f.	c #5A7209",
"g.	c #5D7307",
"h.	c #677B0D",
"i.	c #5F7708",
"j.	c #987B72",
"k.	c #7B584E",
"l.	c #8D6E63",
"m.	c #8A5D4D",
"n.	c #8A5E4E",
"o.	c #906252",
"p.	c #794E41",
"q.	c #896559",
"r.	c #A3725F",
"s.	c #627A0B",
"t.	c #805242",
"u.	c #926657",
"v.	c #B3826D",
"w.	c #607909",
"x.	c #65790B",
"y.	c #617509",
"z.	c #647D0E",
"A.	c #5B7509",
"B.	c #5B7409",
"C.	c #74493C",
"D.	c #754A3D",
"E.	c #7F5446",
"F.	c #966856",
"G.	c #806259",
"H.	c #A77662",
"I.	c #BB8974",
"J.	c #CD9A82",
"K.	c #D9A389",
"L.	c #DCA58C",
"M.	c #DDA68D",
"N.	c #DEA88E",
"O.	c #D49F86",
"P.	c #C9957E",
"Q.	c #AE806C",
"R.	c #AA7A67",
"S.	c #657B0B",
"T.	c #C69378",
"U.	c #BA8973",
"V.	c #8F604E",
"W.	c #61780C",
"X.	c #677C0D",
"Y.	c #637909",
"Z.	c #687C0D",
"`.	c #B8856D",
" +	c #D49E86",
".+	c #DFA991",
"++	c #E3AA91",
"@+	c #E6AC92",
"#+	c #6B473D",
"$+	c #623F37",
"%+	c #9D705E",
"&+	c #8E5A45",
"*+	c #5C7408",
"=+	c #677C0E",
"-+	c #667D0E",
";+	c #855849",
">+	c #9B6C5A",
",+	c #522924",
"'+	c #522D26",
")+	c #C38F79",
"!+	c #C28E77",
"~+	c #E1A78F",
"{+	c #5B342B",
"]+	c #5C760A",
"^+	c #697F0F",
"/+	c #816963",
"(+	c #5E382E",
"_+	c #55322A",
":+	c #5A7308",
"<+	c #597307",
"[+	c #5E7708",
"}+	c #647A0A",
"|+	c #637809",
"1+	c #5D760B",
"2+	c #5C740B",
"3+	c #542D24",
"4+	c #60790B",
"5+	c #546E07",
"6+	c #506B07",
"7+	c #546F08",
"8+	c #6B810E",
"9+	c #677A0F",
"0+	c #63770A",
"a+	c #657C0D",
"b+	c #667A0C",
"c+	c #5D3C35",
"d+	c #5B750A",
"e+	c #5B7307",
"f+	c #5E7609",
"g+	c #5D7408",
"h+	c #486107",
"i+	c #446205",
"j+	c #556F08",
"k+	c #5F770C",
"l+	c #496407",
"m+	c #677C0F",
"n+	c #647C0C",
"o+	c #E1A78E",
"p+	c #526B09",
"q+	c #657D0F",
"r+	c #667F0F",
"s+	c #627C0D",
"t+	c #607B0D",
"u+	c #5D770A",
"v+	c #5C7508",
"w+	c #5E7408",
"x+	c #667B0D",
"y+	c #677E0F",
"z+	c #637C0D",
"A+	c #607A0D",
"B+	c #5D770C",
"C+	c #A68980",
"D+	c #60780C",
"E+	c #5E780B",
"F+	c #617B0C",
"G+	c #627C0E",
"H+	c #5F790D",
"I+	c #D8A286",
"J+	c #6C4236",
"K+	c #64780B",
"L+	c #617B0D",
"M+	c #657D0D",
"N+	c #5C7609",
"O+	c #5F770B",
"P+	c #5E770C",
"Q+	c #60750A",
"R+	c #64780D",
"S+	c #62770C",
"T+	c #607507",
"U+	c #64780C",
"V+	c #677D0D",
"W+	c #637808",
"X+	c #617909",
"Y+	c #7C392A",
"Z+	c #6F4D44",
"`+	c #D19B84",
" @	c #653A2E",
".@	c #798341",
"+@	c #6F7E2A",
"@@	c #7C4534",
"#@	c #667911",
"$@	c #73802F",
"%@	c #717E31",
"&@	c #6E7E25",
"*@	c #462119",
"=@	c #4C251B",
"-@	c #997567",
";@	c #637A0B",
">@	c #747F36",
",@	c #8A896E",
"'@	c #657811",
")@	c #4B2119",
"!@	c #4B2219",
"~@	c #4C241B",
"{@	c #89896D",
"]@	c #6A7C1C",
"^@	c #687C13",
"/@	c #9B6A4E",
"(@	c #6E7D25",
"_@	c #E4AC8E",
":@	c #E8B08A",
"<@	c #D0775D",
"[@	c #9F5B45",
"}@	c #EDB587",
"|@	c #F8BF85",
"1@	c #F1B983",
"2@	c #A05E48",
"3@	c #DE7B62",
"4@	c #C18B72",
"5@	c #607409",
"6@	c #697D0E",
"7@	c #B3644D",
"8@	c #D2997C",
"9@	c #66790D",
"0@	c #657B0F",
"a@	c #667A0E",
"b@	c #5E760A",
"c@	c #C17258",
"d@	c #B42C15",
"e@	c #E6290B",
"f@	c #F2290A",
"g@	c #667B0C",
"h@	c #647A0E",
"i@	c #677B0E",
"j@	c #677F0F",
"k@	c #5D750A",
"l@	c #5B740B",
"m@	c #5D750C",
"n@	c #A32913",
"o@	c #62790D",
"p@	c #637D0E",
"q@	c #5A730A",
"r@	c #617A0C",
"s@	c #657E0C",
"t@	c #60790D",
"u@	c #597209",
"v@	c #5A7408",
"w@	c #904431",
"x@	c #61760B",
"y@	c #60770C",
"z@	c #E1A78D",
"A@	c #C32910",
"B@	c #EC2A0A",
"C@	c #D7280C",
"D@	c #9E331F",
"E@	c #B4250E",
"F@	c #5F790B",
"G@	c #642519",
"H@	c #CF2B10",
"I@	c #647B0E",
"J@	c #637B0B",
"K@	c #64392E",
"L@	c #4F281F",
"M@	c #627608",
"N@	c #5D7407",
"O@	c #C4250D",
"P@	c #63780D",
"Q@	c #617809",
"R@	c #677B0F",
"S@	c #607809",
"T@	c #6B4236",
"U@	c #657A0B",
"V@	c #6B8010",
"W@	c #697E0F",
"X@	c #667A0D",
"Y@	c #687C0E",
"Z@	c #6F5149",
"`@	c #687D0F",
" #	c #627A0E",
".#	c #677B0C",
"+#	c #657C0E",
"@#	c #395502",
"##	c #496306",
"$#	c #526B07",
"%#	c #5A720A",
"&#	c #69800E",
"*#	c #677E10",
"=#	c #506B06",
"-#	c #3F5C04",
";#	c #677F11",
">#	c #536C05",
",#	c #6D8210",
"'#	c #637D0F",
")#	c #657E0F",
"!#	c #627D0D",
"~#	c #567007",
"{#	c #496405",
"]#	c #506B0A",
"^#	c #4D6706",
"/#	c #5B760B",
"(#	c #677F10",
"_#	c #556F07",
":#	c #3F5C03",
"<#	c #496606",
"[#	c #587209",
"}#	c #9C8B87",
"|#	c #597207",
"1#	c #506A06",
"2#	c #3C5902",
"3#	c #405E03",
"4#	c #4E6907",
"5#	c #59730A",
"6#	c #592E23",
"7#	c #637C0F",
"8#	c #5C730A",
"9#	c #567008",
"0#	c #5A7108",
"a#	c #687B0F",
"b#	c #677A0D",
"c#	c #627B0B",
"d#	c #8B5E4E",
"e#	c #5E7306",
"f#	c #687D0E",
"g#	c #55322C",
"h#	c #583A34",
"i#	c #715650",
"j#	c #657A0A",
"k#	c #637B09",
"l#	c #617907",
"m#	c #677A0C",
"n#	c #795D57",
"o#	c #674B45",
"p#	c #6A8010",
"q#	c #68800E",
"r#	c #627D0E",
"s#	c #5F7406",
"t#	c #5D770B",
"u#	c #627A08",
"v#	c #697E10",
"w#	c #647B09",
"x#	c #667E0C",
"y#	c #667E10",
"z#	c #5A7409",
"A#	c #5D740B",
"B#	c #60780D",
"C#	c #5C7308",
"D#	c #587308",
"E#	c #5A7307",
"F#	c #667A11",
"G#	c #717E2D",
"H#	c #727F33",
"I#	c #788441",
"J#	c #6D7D2A",
"K#	c #607A0C",
"L#	c #385602",
"M#	c #496305",
"N#	c #698011",
"O#	c #667E0E",
"  . + @ # $ % & * = - ; > ; , ' ) ! ~ { ] ^ / ( _ : < [ [ } | 1 2 3 4 5 6 [ * @ 7 $ 8 8 < 9 0 a 1 b c d e f g h i [ } j k l l m ",
"n < + @ o p q = _ 8 r ) s ; t ) ) u v w v x y ' z r A 8 8 < B | a | C 5 6 D E _ F G _ : - H 0 ) C I J K L M N O 4 P 5 Q R S 3 4 ",
": 6 T 8 F U * z : t V W t R X t X ) Y Z `  ., 0 X ..9 r G 8 +.- ; ..a ; ; 8 E C 8 r @.#.A 0 A $.$.; %.&.*.=.-.;.>.< 5 D ,.| 5 C ",
": A H _ C - @.'.8 ; 0 ( ; ).@.) ) t !.@.) !.z ) > 1 ~.z E {.> >.C 5 C r ( ( C C s ].0 ^.$.Q C ; /.) < (._.:.<.;.: 8 8 ..E C B [.",
"A 0 a ; V ( @.^.}.t a ( : ; 0 t ) 0 |.0 t ) ) #.a 1.2.3.) ; 0 4././.+.: ' {.5.0 |.V > 0 @.A X 0 ) | |.6.7.8.8 t > ; 9.C C E 0.C ",
"( C /.0 1.~.0 Q a.b.c.d.e.f.g.0 ) 0 ' h.) @.t ) t i.j.k.l.m.n.o.o.o.o.o.p.q.r., ' s.,.> l.t.u.v.w.( 0 ~.8 : , #.x.> r ) {.' B $.",
"> y.1 ; X 0 t 8 @ + k z.+ A.B.q.C.D.E.F.) t a G.k.n.H.I.J.K.L.M.N.M.K.O.P.Q.q.p.l.R.S.E.R.T.U.u.V.A 8 W.V ( [.) X.0.|.t Y.Z.0 0 ",
"[ X.i.> 9.!.> > 0 - B : * ( k.v.v.`.I.p.m.E.q.U. +.+++++++++@+@+@+@+++++++@+++K.U.n.#+F.H.$+$+R.%+&+[ *+p U z ..t | | =+> ) 0 ) ",
"-+X.h.' 0 ].t > t 0 0 0 t ;+R.>+,+'+;+)+$+!+++++@+@+@+@+@+@+@+@+@+@+@+@+@+@+@+@+@+~+!+p.,+,+,+{+P.E.]+% B.q * 5.~.@.1.t ) t !...",
"^+D 6 #.C !.) X ].t 0 0 ) /+I.(+,+,+,+F.R.I.++@+@+++@+@+@+@+++@+@+++@+@+++@+@+@+++++@+M.%+_+,+,+!+m.e :+# q <+* [+; }+X X |+; 8 ",
"1+2+} , X 0 |.].].9 !.) 1 t.!+(+,+,+3+%+ +O.@+@+@+@+@+@+@+@+@+@+@+@+@+@+@+@+@+@+@+@+@+@+~+U.(+3+P.k.A.q ;.# e o 4+8 ' a ; 7 5+8 ",
"6+7+8+9+0+X ' a+W 1 ].!.b+F.R.o.,+E.P.@+@+@+@+@+@+@+@+@+@+@+@+@+@+@+@+@+@+@+@+@+@+@+@+@+@+++I.$+>+c+@ $ q d+% e+f+- A 8 : g+h+b.",
"i+j+, , R R a 1 : E H < 8 ; n.!+U.~+@+@+@+@+@+@+@+@+@+@+@+@+@+@+++@+++@+@+@+@+@+@+@+@+@+@+@+++v.(+k+@ * g+q f+* < A ^.).[.t q l+",
"J e m+3 -+-+n+S } f+6 _ 5 _ p.v.@+@+@+@+++++@+@+@+@+@+@+@+@+@+@+@+@+@+@+@+@+@+++@+@+@+@+@+@+@+o+u.t.8 _ 6 8 _ A A V W h.: > A p+",
"4 =+-+q+d.r+c.s+t++ u+v+$ E.q.++@+@+@+@+@+@+@+@+@+@+@+@+@+@+@+@+@+@+@+@+@+@+@+@+@+@+@+@+@+@+@+@+ +C.: H - @.A w+A ..G W C x+f+s ",
"5 3 q+d.d.y+-+z+A+B+]+e C+#+ +@+@+@+@+@+@+@+@+@+@+@+@+@+@+@+@+@+@+@+@+@+@+@+@+@+@+@+@+@+@+@+@+@+++R.E.E 9 ) ) ^.C ; @.E E {.8 D+",
"E+F+z.r+d.d.z.G+H+B+d+$ o.R.++@+@+@+@+@+@+@+@+@+@+@+@+@+@+@+@+@+@+@+@+@+@+@+@+@+@+@+@+@+@+@+@+@+++I+J+i.K+!.| n+( G ; H 8 f+* o ",
". L+,.z.c.M+2 L+. + N+# #+ +++@+@+++++@+++@+++@+@+++@+@+++++@+@+@+++@+@+++++@+@+@+@+@+@+++++@+++++++>+m.X X ; : H /.).5 O+6 *+P+",
"D+D+R a S , R } D+} @ r.>+++@+@+@+@+@+@+@+@+@+@+@+@+@+@+@+@+@+@+@+@+@+@+@+@+@+@+@+@+@+@+@+@+@+@+@+@+I.J+) X X 0 A A C @.: 6 f+[ ",
"8 8 W.4+| | C : Q : F u.P.@+@+@+@+@+@+@+@+@+@+@+@+@+@+@+@+@+@+@+@+@+@+@+@+@+@+@+@+@+@+@+@+@+@+@+@+@+ +J+!.) !.].X ) W V @.r 8 8 ",
"1 F Q+E : < [.' A : C ;+M.++++++@+@+@+@+@+@+++@+@+@+@+@+@+@+@+@+@+++++@+@+@+@+@+++++@+@+@+@+@+@+@+@+M.C.t 0 ) 0 ) ..s.0 ^.; 9 8 ",
"A ' > 8 C A R+E ) ; Q.u.++@+@+@+@+@+@+@+@+@+@+@+@+@+@+@+@+@+@+@+@+@+@+@+@+@+@+@+@+@+@+@+@+@+@+@+@+@+++;+0 !.t !.) ) z R z 1.@.S+",
"T+!.) C U+z /.; !.8 m.R.@+@+@+@+@+@+@+@+@+@+@+@+@+@+@+@+@+++@+@+@+@+@+@+@+@+@+@+@+@+@+++++@+@+@+@+@+@+F.l.) ) !.!.^.0 z a V+K+].",
"( |.0 }.W+X+1.!.K+s m.U.@+@+@+@+@+@+@+@+@+@+@+@+@+@+@+@+@+ +Q. +@+@+@+@+@+@+@+@+@+@+~+!+>+~+@+@+@+@+@+r.Y+X !.!.) t 0 t t ( X ~.",
"A : 0 0 X @.0 ) t $.p.T.@+@+@+@+@+@+@+@+@+@+@+@+@+@+@+@+@+M.Q.Z+K.@+@+@+@+@+@+@+@+@+I.n.`+++@+@+@+@+@+H. @W+!.!.@.t 0 ].w+) ) > ",
".@+@> ) t X X 0 X ) p.P.@+@+++++@+@+@+@+@+@+++@+@+++@+@+++++++~+++++++@+@+@+@+@+++++.+M.)+P.++@+++@+@+H.@@..: t ].!.0 ) 0 #@$@%@",
"] ^ &@t @.t X.X ) ) p.P.@+@+@+@+@+@+@+@+@+@+@+@+@+@+@+N.u._+F.M.@+@+@+@+@+@+@+++@+@+++u.*@=@U.++@+@+@+>+-@X+0 t 0 0 @.X ;@>@~ { ",
",@x '@0 ) t ) ].X !.;+I.@+@+@+@+@+@+@+@+@+@+@+@+@+@+@+I.)@!@!@I.@+@+@+L.M.N.o+P.@+@+K.{+~@!@n.@+@+@+@+;+| @.X.t 0 X 0 0 ; u {@w ",
"]@^@].0 z X !.t 0 |+/@Q.@+@+@+@+@+@+@+@+@+@+++@+@+@+@+!+)@~@!@!+@+++++!+o.E.o.n.++++o+p.!@!@R.++++@+N.Z+0 ) ) /.) ) X ) !.X Y (@",
"0 t C !.X ) t X 0 0 r.F.++@+@+@+@+@+@+@+@+++_@:@:@_@++N.>+D.%+o+@+@+@+K.t.<@[@`+@+@+@+O.H.Q.N.++}@|@1@E.R.!.0 @.!.X.h.@.@.U !.0 ",
"X t $.X 0 0 ) t ].t h.t.M.@+@+@+@+@+@+@+_@1@|@|@|@|@:@@+++o+++@+@+@+@+J.2@3@2@O.@+@+@+@+@+@+@+1@|@|@|@4@p.) ) !.|.x+t t 0 5@x+|.",
"..' !., 6@!.t 0 ; ].x+t.)+@+@+@+@+@+@+++1@|@|@|@|@|@|@:@++@+@+@+@+@+@+)+7@3@2@I+@+@+@+@+@+@+:@|@|@|@|@8@Z+) t !.) X |.t w+!.$.0+",
"( 0 9@}.x+C ;@[.a |.( 2@;+~+@+@+@+@+@+@+|@|@|@|@|@|@|@1@@+@+@+@+@+@+@+J.[@<@&+N.@+@+@+@+@+@+1@|@|@|@|@8@#+t @.) !.!.!.!.0 +.K+|.",
"U+b+, , R a : R E 8 5 C t.I.++++@+@+@+}@|@|@|@|@|@|@|@|@@+@+@+@+++@+++~+H.m.)+++++++@+@+++O.`.H.4@1@|@`.C.t X X.].) ) : !.K+0@a@",
"0., q+V+M+c.z.} < [ D+b@c@p.`+@+@+@+@+}@|@|@|@|@|@|@|@|@@+@+@+@+@+@+@+@+@+@+++@+@+@+@+@+)+d@e@f@e@d@8@p.-@X.t t ) a h.g@C H h@=+",
"i@3 d.d.j@z.s+t++ u+k@l@m@&+E. +@+@+@+_@|@|@|@|@|@|@|@1@++@+@+@+@+@+@+@+@+@+@+@+@+@+@+K.d@f@f@f@f@f@n@ @!.) !.0 +.C x.C {.o@6 b.",
"R q+y+d.d.-+p@A+B+u+B.q@:+d+2@C.I.~+++++}@|@|@|@|@|@|@_@++++@+@+@+++++@+++++@+@+++@+@+Q.e@f@f@f@f@f@e@F.}.h.) ..!.}.- C D+5 } D ",
"r@3 s@d.y+c.G+t@B+e B.u@<+v@k@_ #+m.!+~+@+:@1@|@|@1@@+@+@+J.R.H.U.++@+@+@+@+@+@+@+@+++o.e@f@f@f@f@f@f@w@0 X 0 ( C r x@y@b@y@k@} ",
"L+,.z.l M+2 L+. + ]+:+q :+<+* * C @@(+#+H.!+ +z@++@+@+K.H.A@B@f@C@2@K.@+@+@+@+@+@+@+K.D@E@f@f@f@f@f@f@D@, ) t 8 +.s o@O+O+* k+F@",
"E+| > | 1 ,.} D+u+b@k@o o 8 _ _ 0 ( C J+>+ @_+#+n.%+>+ @C@f@f@f@f@e@H.@+@+@+@+@+N.P.p.G@H@A@f@f@f@f@f@w@R.t X C H I@5 ).D+y@b@} ",
"6 C C a | | C 8 D U 8 F 8 E 8 ..- J@[@H.++L.)+>+K@L@n@A@e@f@f@f@f@f@d@L.@+@+@+++;+L@o.P.d@H@A@f@f@f@C@d@) M@; > ' a W.{.0 5 5 8 ",
"8 >.- b.8 } 4+V ( o@8 8 z N@X ( 0 : C.I.++@+@+++v.R.A@H@C@f@f@f@f@f@A@J.++@+@+++`+ +++@+U.H@O@A@B@C@w@D@) 0 z C P@1 ; ^.#.; C 8 ",
"8 > E < a : o q : ( H ( @.Q@Y.t a a 3+!+@+@+@+@+++I+A@C@H@f@f@f@f@f@A@`+@+@+@+@+@+@+@+@+++H.C@e@n@w@n@0 ) h.X.' !.R@2.C 9 T+8 !.",
"; U $.w+..>.+ I@8 @.9 K+) H S@|.: k.T@U.@+@+@+@+@+M.d@e@H@f@f@f@f@f@D@~+@+@+@+@+@+@+++L.@+++r.d@D@@@X X |.@.> z x+) > : X+0+x.|.",
"#.) U@W+8 [.V@W@( R > X@t i.I@..) ;+v.R.@+@+++@+@+++[@B@A@f@f@f@f@e@R.@+@+@+@+@+++++L. @n.m.{+Y+J+a !.0 , Y@) ; , ].X !.| ) !.a+",
"A 0 A C 6.8 d.j@9 y@7 8 !.t ) X U.;+K.E.++@+@+@+@+@+H.B@A@f@f@f@B@w@L.@+@+@+@+@+@+@+@+R.Z@c+!.) t @.0 X ' ~.X ..R ) X+x+) ) z [.",
"t > C 0 U 4+q+W@h.o U r @.!.}.}+F.r.++%+v.++@+++@+@+)+H@n@C@e@A@7@ +++++@+@+@+++@+@+++K.J+!.) X ) , 0 0 ).`@0+0 J@i@b+^.C ;@; ; ",
"V < 7 % D+8 t@ #8 u@^+0 R ) , -+k.U.@+o+u.r.P.O.O.`+!+Y+C.R.U.`+@+@+@+@+@+@+@+@+@+@+@+@+o.) ].X 0 x+; > ) ).|.K+.#l x++#t 1 | : ",
"[ 7.@###a = $#%## F+&#: q+2 l *#E. +@+@+++T.>+;+;+F.R.)+o+@+@+@+@+@+@+@+@+@+@+@+@+@+@+@+R.E.) X ; a > Q ( > W@l `@3 V+d.z.,.F+f+",
"u+& =#-#;#d+f >#h ,#< [ } '#y+j@T@N.@+++++@+++++++++++@+++@+++++@+++++@+++++++++++++++++`.t.x+8 A g@| o@R s R I@d.d.d.j@)#!#t+[ ",
"e :+~#{#]#L =.^#/#x+f+[ E+L+l C+#+@+@+@+@+@+@+@+@+@+@+@+@+@+@+@+@+@+@+@+@+@+@+@+@+@+@+@+!+Y+> ' Y.C o@W.s } C R )#*#(#^+l p@A+P+",
"A.$ # _#:#*.=.<#[#r >.[ t@5 5 }#E.++@+@+@+@+@+@+@+@+@+@+@+@+@+@+@+@+@+@+@+@+@+@+@+@+@+@+I.Y+s ; !.h@W.C D b@} L+z.d.d.d.c.s+H+B+",
"v+v@$ |#1#2#3#4#5#!.Q ..- B < !+p.++@+@+++@+++++@+++@+@+++@+++++@+++++@+@+@+@+++++++++@+U.6#C %.> R y@o@[ k+} ,.7#3 d.d.2 L+. + ",
"@ * p B.8#9#0#_ 0 ; 1 0 ..> 0 8 p.M.@+@+@+@+@+@+@+@+@+@+@+@+@+@+@+@+@+@+@+@+@+@+@+@+@+@+R. @< s o@@.< F [ D 5 5 Q 1 S 3 ,.} D D+",
"_ _ 6 4+z U @.- 1.X 1 ) : !.!.|.@@`.++@+@+@+@+@+@+@+@+@+@+@+@+@+@+@+@+@+++++@+@+@+@+@+++u.k.a#a#a S+- E U D } < W.5 a | | 5 3 C ",
": E C '.z ; ( 0 a a z X x+b#t !./@p.M.@+++@+@+@+@+@+@+@+++@+@+@+@+++@+@+++@+@+@+@+@+@+++#+0+0.B 0.( 0 8 A ).5 8 8 8 R 0.Q C z ( ",
"A 8 : T+( |+0 : : a 0 t ) t ) ) t ;+L.@+@+@+@+@+@+@+@+@+@+@+@+@+@+@+@+@+++++@+@+@+@+@+`+c+0.i@z S+!...1.x.{.G {.> E x+a C A ) 1 ",
"n+0 ..].| c#z | x+0 0 , t X t > ' d# +@+++@+++++T.)+J.O.O.O.`+J.P.!+`.r.m.%+++++++++++Q.Z+m+a@' ; z ; 0 |.e#o ; , z V z > 1 ; > ",
"R @.| 0 Q ( ..X ( f#X !., t ~.!.0 m.v.++@+@+@+O.T@c+'+c+{+{+{+g#'+h#i#$+p.D.`+@+@+@+o+k.' {.h.) |.X 0 : 0 [ } #.!.j#k#l#0 m#0 s ",
"r@8 A C 8 V ; r ].0 =+!.h.X ) ) X |.E.L.@+@+@+Q.n#> : > t R a l V+3 z.,.} V.u.~+@+~+H.o#@.' ; ) !., ) $.8 p#q#x+; 0+#.Y@X.x+, +#",
"4 } O+* * o * +.$.U@0 ; ) ) !.t ~.X &+u.I+N.U.Z+a : z E C R M+d.d.(#q+r#A++ t.E.R.;+o#S ~.t , t !.) h.O+C d.j@0 4+} 4 R l V+k z.",
"r#L++ ]+% # b@[ F r s#a+) ) t !.X @.X.;+Z+;+c+/.a 9 U D+C 1 )#(#d.y+l p@A+e.t#q@# q e * : ; u#0 C Q 8 I ; d.v#8 k@+ b.-+y+d.^+c.",
"z.t@P+d+:+# q q b@G #.w#!.' ; ; !.9@; !.( A !.' D+U [ o t@F+3 x#y#d.c.s+t@e.e q # z#$ k+* C r A 5 A#A#A < B#} C#D#j@R q+d.d.y+-+",
"G+H+B+A.E#;.# B.b@6 H B : ( !., X F#G#H#I#J#| >.O+F 6 @ [ t+G+z.c.d.m L+K#+ N+e q % P+* f+8 1 - m@L#M#R b@p+;.9#K#N#F+3 O#d.y+z."};
