/* XPM */
static char * foe_l2_xpm[] = {
"64 64 447 2",
"  	c #627B0E",
". 	c #5F790C",
"+ 	c #5E770B",
"@ 	c #5D760A",
"# 	c #597308",
"$ 	c #5B7408",
"% 	c #5B7508",
"& 	c #5C7509",
"* 	c #5D7508",
"= 	c #5F760A",
"- 	c #61770B",
"; 	c #62790B",
"> 	c #64790C",
", 	c #647B0C",
"' 	c #657A0D",
") 	c #64790B",
"! 	c #748037",
"~ 	c #8B8A71",
"{ 	c #90907C",
"] 	c #979688",
"^ 	c #8C8C75",
"/ 	c #6B7C23",
"( 	c #61790A",
"_ 	c #5E7608",
": 	c #60780A",
"< 	c #60770B",
"[ 	c #5E770A",
"} 	c #60790C",
"| 	c #627A0C",
"1 	c #637B0C",
"2 	c #647C0E",
"3 	c #647C0D",
"4 	c #627B0C",
"5 	c #61790C",
"6 	c #5F770A",
"7 	c #5E750A",
"8 	c #60770A",
"9 	c #5F7608",
"0 	c #62790A",
"a 	c #637A0C",
"b 	c #58700A",
"c 	c #425D04",
"d 	c #687F10",
"e 	c #5C750A",
"f 	c #476305",
"g 	c #526D06",
"h 	c #567108",
"i 	c #6A8210",
"j 	c #647C0F",
"k 	c #647D0D",
"l 	c #667D0F",
"m 	c #647D0F",
"n 	c #617A0D",
"o 	c #5D7509",
"p 	c #5D7409",
"q 	c #5B7308",
"r 	c #61780A",
"s 	c #637A0D",
"t 	c #63780A",
"u 	c #6B7C21",
"v 	c #89896E",
"w 	c #8B8A70",
"x 	c #83865E",
"y 	c #687C14",
"z 	c #62770A",
"A 	c #607709",
"B 	c #63790D",
"C 	c #62790C",
"D 	c #60780B",
"E 	c #61780B",
"F 	c #5E7709",
"G 	c #5F7709",
"H 	c #5F7609",
"I 	c #61780D",
"J 	c #4D6707",
"K 	c #516B0A",
"L 	c #5E790D",
"M 	c #436104",
"N 	c #4D6806",
"O 	c #5A740B",
"P 	c #5F780B",
"Q 	c #61790B",
"R 	c #647B0D",
"S 	c #637B0D",
"T 	c #5F780A",
"U 	c #5E7508",
"V 	c #5F7509",
"W 	c #607808",
"X 	c #657A0C",
"Y 	c #667A13",
"Z 	c #6E7E27",
"` 	c #6D7F1F",
" .	c #647810",
"..	c #63780B",
"+.	c #60760A",
"@.	c #607708",
"#.	c #63770B",
"$.	c #617609",
"%.	c #61750A",
"&.	c #435E04",
"*.	c #486506",
"=.	c #456104",
"-.	c #4B6606",
";.	c #587108",
">.	c #5E7509",
",.	c #627B0D",
"'.	c #5E7507",
").	c #5E7609",
"!.	c #65790D",
"~.	c #627709",
"{.	c #617508",
"].	c #62780C",
"^.	c #617608",
"/.	c #627708",
"(.	c #607508",
"_.	c #577009",
":.	c #3C5A02",
"<.	c #416003",
"[.	c #4D6A06",
"}.	c #60790A",
"|.	c #64790A",
"1.	c #65790C",
"2.	c #627A0A",
"3.	c #627609",
"4.	c #637709",
"5.	c #5F7308",
"6.	c #5D7507",
"7.	c #5E7308",
"8.	c #587008",
"9.	c #587007",
"0.	c #63770C",
"a.	c #667B0E",
"b.	c #617A0A",
"c.	c #627A0D",
"d.	c #657D0E",
"e.	c #667E0F",
"f.	c #5E780C",
"g.	c #5A7209",
"h.	c #5D7307",
"i.	c #926657",
"j.	c #805242",
"k.	c #677B0D",
"l.	c #5F7708",
"m.	c #896559",
"n.	c #794E41",
"o.	c #906252",
"p.	c #8A5E4E",
"q.	c #8A5D4D",
"r.	c #8D6E63",
"s.	c #7B584E",
"t.	c #987B72",
"u.	c #64790E",
"v.	c #627A0B",
"w.	c #607909",
"x.	c #65790B",
"y.	c #617509",
"z.	c #647D0E",
"A.	c #5B7509",
"B.	c #5B7409",
"C.	c #8F604E",
"D.	c #BA8973",
"E.	c #C69378",
"F.	c #AA7A67",
"G.	c #7F5446",
"H.	c #AE806C",
"I.	c #C9957E",
"J.	c #D49F86",
"K.	c #D9A389",
"L.	c #DDA68D",
"M.	c #DEA88E",
"N.	c #DCA58C",
"O.	c #CD9A82",
"P.	c #BB8974",
"Q.	c #A77662",
"R.	c #806259",
"S.	c #667B0D",
"T.	c #657B0B",
"U.	c #637A0B",
"V.	c #754A3D",
"W.	c #74493C",
"X.	c #61780C",
"Y.	c #677C0D",
"Z.	c #637909",
"`.	c #687C0D",
" +	c #9D705E",
".+	c #623F37",
"++	c #966856",
"@+	c #6B473D",
"#+	c #E3AA91",
"$+	c #E6AC92",
"%+	c #DFA991",
"&+	c #D49E86",
"*+	c #B8856D",
"=+	c #B3826D",
"-+	c #5C7408",
";+	c #677C0E",
">+	c #667D0E",
",+	c #5B342B",
"'+	c #522924",
")+	c #C28E77",
"!+	c #E1A78F",
"~+	c #C38F79",
"{+	c #855849",
"]+	c #522D26",
"^+	c #9B6C5A",
"/+	c #697F0F",
"(+	c #55322A",
"_+	c #5E382E",
":+	c #816963",
"<+	c #5A7308",
"[+	c #597307",
"}+	c #5E7708",
"|+	c #647A0A",
"1+	c #637809",
"2+	c #5D760B",
"3+	c #5C740B",
"4+	c #542D24",
"5+	c #60790B",
"6+	c #546E07",
"7+	c #506B07",
"8+	c #546F08",
"9+	c #6B810E",
"0+	c #677A0F",
"a+	c #63770A",
"b+	c #657C0D",
"c+	c #667A0C",
"d+	c #5D3C35",
"e+	c #5B750A",
"f+	c #5B7307",
"g+	c #5D7408",
"h+	c #486107",
"i+	c #446205",
"j+	c #556F08",
"k+	c #496407",
"l+	c #677C0F",
"m+	c #647C0C",
"n+	c #E1A78E",
"o+	c #526B09",
"p+	c #657D0F",
"q+	c #667F0F",
"r+	c #627C0D",
"s+	c #607B0D",
"t+	c #5D770A",
"u+	c #5C7508",
"v+	c #5C7308",
"w+	c #5E7408",
"x+	c #677E0F",
"y+	c #637C0D",
"z+	c #607A0D",
"A+	c #5D770C",
"B+	c #5C760A",
"C+	c #60780C",
"D+	c #5E780B",
"E+	c #617B0C",
"F+	c #627C0E",
"G+	c #5F790D",
"H+	c #5A730A",
"I+	c #6C4236",
"J+	c #D8A286",
"K+	c #64780B",
"L+	c #617B0D",
"M+	c #657D0D",
"N+	c #5C7609",
"O+	c #5F770B",
"P+	c #5E770C",
"Q+	c #5C7307",
"R+	c #A3725F",
"S+	c #60750A",
"T+	c #64780D",
"U+	c #62770C",
"V+	c #607507",
"W+	c #64780C",
"X+	c #617909",
"Y+	c #677D0D",
"Z+	c #637808",
"`+	c #7C392A",
" @	c #653A2E",
".@	c #D19B84",
"+@	c #6F4D44",
"@@	c #798341",
"#@	c #6F7E2A",
"$@	c #7C4534",
"%@	c #667911",
"&@	c #73802F",
"*@	c #717E31",
"=@	c #6E7E25",
"-@	c #997567",
";@	c #747F36",
">@	c #8B8A72",
",@	c #8A896E",
"'@	c #657811",
")@	c #677A0D",
"!@	c #89896D",
"~@	c #6A7C1C",
"{@	c #687C13",
"]@	c #9B6A4E",
"^@	c #6E7D25",
"/@	c #F1B983",
"(@	c #F8BF85",
"_@	c #EDB587",
":@	c #9F5B45",
"<@	c #D0775D",
"[@	c #E4AC8E",
"}@	c #E8B08A",
"|@	c #C18B72",
"1@	c #A05E48",
"2@	c #DE7B62",
"3@	c #607409",
"4@	c #697D0E",
"5@	c #D2997C",
"6@	c #B3644D",
"7@	c #66790D",
"8@	c #8E5A45",
"9@	c #657B0F",
"0@	c #667A0E",
"a@	c #5E760A",
"b@	c #EAB180",
"c@	c #C17258",
"d@	c #667B0C",
"e@	c #647A0E",
"f@	c #677B0E",
"g@	c #677F0F",
"h@	c #5D750A",
"i@	c #5B740B",
"j@	c #9E331F",
"k@	c #D7280C",
"l@	c #F2290A",
"m@	c #CF2B10",
"n@	c #62790D",
"o@	c #637D0E",
"p@	c #904431",
"q@	c #EC2A0A",
"r@	c #617A0C",
"s@	c #657E0C",
"t@	c #60790D",
"u@	c #597209",
"v@	c #B42C15",
"w@	c #61760B",
"x@	c #60770C",
"y@	c #E6290B",
"z@	c #9E2310",
"A@	c #637708",
"B@	c #5F770C",
"C@	c #5F790B",
"D@	c #B4250E",
"E@	c #5C342A",
"F@	c #8B5E4E",
"G@	c #6B4236",
"H@	c #647B0E",
"I@	c #C32910",
"J@	c #4F281F",
"K@	c #627608",
"L@	c #63780D",
"M@	c #A32913",
"N@	c #C4250D",
"O@	c #677B0F",
"P@	c #657A0B",
"Q@	c #6B8010",
"R@	c #697E0F",
"S@	c #667A0D",
"T@	c #687C0E",
"U@	c #55322B",
"V@	c #7B2314",
"W@	c #687D0F",
"X@	c #637B0B",
"Y@	c #627A0E",
"Z@	c #617B0B",
"`@	c #64392E",
" #	c #677B0C",
".#	c #657C0E",
"+#	c #395502",
"@#	c #496306",
"##	c #526B07",
"$#	c #5A720A",
"%#	c #69800E",
"&#	c #677E10",
"*#	c #526B08",
"=#	c #506B06",
"-#	c #3F5C04",
";#	c #677F11",
">#	c #536C05",
",#	c #6D8210",
"'#	c #637D0F",
")#	c #657E0F",
"!#	c #627D0D",
"~#	c #567007",
"{#	c #496405",
"]#	c #506B0A",
"^#	c #4D6706",
"/#	c #5B760B",
"(#	c #A68980",
"_#	c #677F10",
":#	c #556F07",
"<#	c #3F5C03",
"[#	c #496606",
"}#	c #587209",
"|#	c #9C8B87",
"1#	c #5A7408",
"2#	c #597207",
"3#	c #506A06",
"4#	c #3C5902",
"5#	c #405E03",
"6#	c #4E6907",
"7#	c #59730A",
"8#	c #592E23",
"9#	c #637C0F",
"0#	c #637B0E",
"a#	c #5C730A",
"b#	c #567008",
"c#	c #5A7108",
"d#	c #627B0B",
"e#	c #5E7306",
"f#	c #687D0E",
"g#	c #715650",
"h#	c #583A34",
"i#	c #55322C",
"j#	c #657A0A",
"k#	c #637B09",
"l#	c #617907",
"m#	c #677A0C",
"n#	c #674B45",
"o#	c #6A8010",
"p#	c #68800E",
"q#	c #627D0E",
"r#	c #5F7406",
"s#	c #5D770B",
"t#	c #627A08",
"u#	c #697E10",
"v#	c #647B09",
"w#	c #667E0C",
"x#	c #667E10",
"y#	c #5A7409",
"z#	c #5D740B",
"A#	c #60780D",
"B#	c #587308",
"C#	c #5A7307",
"D#	c #667A11",
"E#	c #717E2D",
"F#	c #727F33",
"G#	c #788441",
"H#	c #6D7D2A",
"I#	c #607A0C",
"J#	c #5D750C",
"K#	c #385602",
"L#	c #496305",
"M#	c #698011",
"N#	c #667E0E",
"  . + @ # $ % & * = - ; > ; , ' ) ! ~ { ] ^ / ( _ : < [ [ } | 1 2 3 4 5 6 [ * @ 7 $ 8 8 < 9 0 a 1 b c d e f g h i [ } j k l l m ",
"n < + @ o p q = _ 8 r ) s ; t ) ) u v w v x y ' z r A 8 8 < B | a | C 5 6 D E _ F G _ : - H 0 ) C I J K L M N O 4 P 5 Q R S 3 4 ",
": 6 T 8 F U * z : t V W t R X t X ) Y Z `  ., 0 X ..9 r G 8 +.- ; ..a ; ; 8 E C 8 r @.#.A 0 A $.$.; %.&.*.=.-.;.>.< 5 D ,.| 5 C ",
": A H _ C - @.'.8 ; 0 ).; !.@.) ) t ~.@.) ~.z ) > 1 {.z E ].> >.C 5 C r ( ( C C s ^.0 /.$.Q C ; (.) < _.:.<.[.;.: 8 8 ..E C B }.",
"A 0 a ; V ( @./.|.t a ( : ; 0 t ) 0 1.0 t ) ) #.a 2.3.4.) ; 0 5.(.(.+.: ' ].6.0 1.V > 0 @.A X 0 ) | 1.7.8.9.8 t > ; 0.C C E a.C ",
"( C (.0 2.{.0 Q b.c.d.e.f.g.h.0 ) i.j.k.) @.t ) t l.m.n.o.o.o.o.o.p.q.r.s.t.u., ' v.,.> t ; > 2.w.( 0 {.8 : , #.x.> r ) ].' B $.",
"> y.1 ; X 0 t 8 @ + k z.+ A.B.C.i.D.E.F.G.t a r.n.m.H.I.J.K.L.M.L.N.K.O.P.Q.p.s.R.S.T.a U.G.V.W.m.A 8 X.V ( }.) Y.a.1.t Z.`.0 0 ",
"[ Y.l.> 0.~.> > 0 - B : * ( r  +F..+.+Q.++@+p.D.K.#+$+#+#+#+$+$+$+$+#+#+#+#+%+&+D.m.G.q.n.P.*+=+=+s.[ -+p U z ..t | | ;+> ) 0 ) ",
">+Y.k.' 0 ^.t > t 0 0 0 t S.G.I.,+'+'+'+n.)+!+$+$+$+$+$+$+$+$+$+$+$+$+$+$+$+$+$+#+#+)+.+~+{+]+'+^+F.{+% B.q * 6.{.@.2.t ) t ~...",
"/+D 6 #.C ~.) X ^.t 0 0 ) {.q.)+'+'+(+ +L.$+#+#+$+$+$+#+$+$+#+$+$+#+$+$+$+$+#+$+$+#+P.F.++'+'+'+_+P.:+<+# q [+* }+; |+X X 1+; 8 ",
"2+3+} , X 0 1.^.^.9 ~.) 1 ..s.I.4+_+D.!+$+$+$+$+$+$+$+$+$+$+$+$+$+$+$+$+$+$+$+$+$+$+J.&+ +4+'+'+_+)+j.q ;.# e o 5+8 ' a ; 7 6+8 ",
"7+8+9+0+a+X ' b+W 1 ^.~.c+) d+^+.+P.#+$+$+$+$+$+$+$+$+$+$+$+$+$+$+$+$+$+$+$+$+$+$+$+$+$+$+I.G.'+o.F.++$ q e+% f+).- A 8 : g+h+c.",
"i+j+, , R R a 1 : E H < 8 ; > _+=+#+$+$+$+$+$+$+$+$+$+$+$+#+$+#+$+$+$+$+$+$+$+$+$+$+$+$+$+$+!+D.)+p.@ * g+q ).* < A /.!.}.t q k+",
"J e l+3 >+>+m+S } ).6 _ 5 _ j.i.n+$+$+$+$+$+$+$+#+$+$+$+$+$+$+$+$+$+$+$+$+$+$+$+$+$+#+#+$+$+$+$+=+n.8 _ 6 8 _ A A V W k.: > A o+",
"4 ;+>+p+e.q+d.r+s++ t+u+$ v+W.&+$+$+$+$+$+$+$+$+$+$+$+$+$+$+$+$+$+$+$+$+$+$+$+$+$+$+$+$+$+$+$+$+#+m.G.H - @.A w+A ..G W C S.).s ",
"5 3 p+e.e.x+>+y+z+A+B+e # G.F.#+$+$+$+$+$+$+$+$+$+$+$+$+$+$+$+$+$+$+$+$+$+$+$+$+$+$+$+$+$+$+$+$+$+&+@+E 9 ) ) /.C ; @.E E ].8 C+",
"D+E+z.q+e.e.z.F+G+A+e+$ H+I+J+#+$+$+$+$+$+$+$+$+$+$+$+$+$+$+$+$+$+$+$+$+$+$+$+$+$+$+$+$+$+$+$+$+$+#+F.o.K+~.| m+( G ; H 8 ).* o ",
". L+,.z.d.M+2 L+. + N+# q ^+#+#+#+$+#+#+$+$+$+$+$+$+#+#+$+$+#+$+$+$+#+#+$+$+#+$+$+#+$+#+$+#+#+$+$+#+&+@+X X ; : H (.!.5 O+6 -+P+",
"C+C+R a S , R } C+} @ Q+I+P.$+$+$+$+$+$+$+$+$+$+$+$+$+$+$+$+$+$+$+$+$+$+$+$+$+$+$+$+$+$+$+$+$+$+$+$+#+^+R+X X 0 A A C @.: 6 ).[ ",
"8 8 X.5+| | C : Q : F : I+&+$+$+$+$+$+$+$+$+$+$+$+$+$+$+$+$+$+$+$+$+$+$+$+$+$+$+$+$+$+$+$+$+$+$+$+$+$+I.i.) ~.^.X ) W V @.r 8 8 ",
"1 F S+E : < }.' A : C E W.L.$+$+$+$+$+$+$+$+#+#+$+$+$+$+$+#+#+$+$+$+$+$+$+$+$+$+$+#+$+$+$+$+$+$+#+#+#+L.{+0 ) 0 ) ..v.0 /.; 9 8 ",
"A ' > 8 C A T+E ) ; ; 8 {+#+$+$+$+$+$+$+$+$+$+$+$+$+$+$+$+$+$+$+$+$+$+$+$+$+$+$+$+$+$+$+$+$+$+$+$+$+$+#+i.~.t ~.) ) z R z 2.@.U+",
"V+~.) C W+z (.; ~.8 X+r.++$+$+$+$+$+$+#+#+$+$+$+$+$+$+$+$+$+$+$+$+$+#+$+$+$+$+$+$+$+$+$+$+$+$+$+$+$+$+$+F.) ) ~.~./.0 z a Y+K+^.",
"( 1.0 |.Z+X+2.~.K+s a `+R+$+$+$+$+$+!+^+)+!+$+$+$+$+$+$+$+$+$+$+&+H.&+$+$+$+$+$+$+$+$+$+$+$+$+$+$+$+$+$+D.q.~.~.) t 0 t t ( X {.",
"A : 0 0 X @.0 ) t $.(. @Q.$+$+$+$+$+#+.@p.P.$+$+$+$+$+$+$+$+$+K.+@H.L.$+$+$+$+$+$+$+$+$+$+$+$+$+$+$+$+$+E.n.~.~.@.t 0 ^.w+) ) > ",
"@@#@> ) t X X 0 X ) a+$@Q.$+$+#+$+#+L.N.M.%+#+#+$+$+$+$+$+#+#+#+!+#+#+#+$+$+#+$+$+#+$+$+$+$+$+$+#+#+$+$+I.n.: t ^.~.0 ) 0 %@&@*@",
"] ^ =@t @.t Y.X ) ) S.-@^+$+$+$+#+$+$+$+$+#+$+$+#+$+$+$+$+$+$+$+!+$+$+$+#+$+$+$+$+$+$+$+$+$+$+$+$+$+$+$+I.n.0 t 0 0 @.X U.;@>@{ ",
",@x '@0 ) t ) ^.X ~.)@) {+$+$+$+$+Q.^+ +Q.K.$+$+I.n+M.L.N.$+$+$+~+R+^+^+I.$+$+$+$+$+$+$+$+$+$+$+$+$+$+$+P.{+Y.t 0 X 0 0 ; u !@w ",
"~@{@^.0 z X ~.t 0 1+^.X +@M.$+#+#+)+F.R+H.n+#+#+p.o.G.o.)+#+#+$+~+q.o.i.I.$+$+$+$+#+$+$+$+$+$+$+$+$+$+$+H.]@) (.) ) X ) ~.X Y ^@",
"0 t C ~.X ) t X 0 0 X ~.G./@(@_@#+#+M.J+N.$+$+$+.@:@<@j.K.$+$+$+n+$+$+!+%+#+[@}@}@[@#+$+$+$+$+$+$+$+$+#+++~.0 @.~.Y.k.@.@.U ~.0 ",
"X t $.X 0 0 ) t ^.t k.n.|@(@(@(@/@$+$+$+$+$+$+$+J.1@2@1@O.$+$+$+$+#+n+#+$+}@(@(@(@(@/@[@$+$+$+$+$+$+$+L.j.) ) ~.1.S.t t 0 3@S.1.",
"..' ~., 4@~.t 0 ; ^.S.R.5@(@(@(@(@}@$+$+$+$+$+$+J+1@2@6@~+$+$+$+$+$+$+#+}@(@(@(@(@(@(@/@#+$+$+$+$+$+$+~+j.) t ~.) X 1.t w+~.$.a+",
"( 0 7@|.S.C U.}.a 1.( R.5@(@(@(@(@/@$+$+$+$+$+$+M.8@<@:@O.$+$+$+$+$+$+$+/@(@(@(@(@(@(@(@$+$+$+$+$+$+!+{+~.t @.) ~.~.~.~.0 +.K+1.",
"W+c+, , R a : R E 8 5 W.*+(@(@(@(@(@$+$+$+$+#+#+#+~+q.Q.!+#+$+#+$+$+$+$+(@(@(@(@(@(@(@(@_@$+$+$+#+#+P.j.) t X Y.^.) ) : ~.K+9@0@",
"a., p+Y+M+d.z.} < [ C+a@n.b@E.c@*+5@#+$+$+$+$+$+$+#+$+$+$+$+$+$+$+$+$+$+(@(@(@(@(@(@(@(@_@$+$+$+$+.@n.) ~.Y.t t ) a k.d@C H e@;+",
"f@3 e.e.g@z.r+s++ t+h@i@_+j@k@l@l@m@Q.!+$+$+$+$+$+$+$+$+$+$+$+$+$+$+$+#+/@(@(@(@(@(@(@(@[@$+$+$+&+j.) S.~.) ~.0 +.C x.C ].n@6 c.",
"R p+x+e.e.>+o@z+A+t+B.H+p@q@l@l@l@l@k@P.$+$+$+#+$+$+#+#+$+#+#+$+$+J.H.*+K.(@(@(@(@(@(@_@#+#+!+P.W.X k.t |.k.) ..~.|.- C C+5 } D ",
"r@3 s@e.x+d.F+t@A+e B.u@m@l@l@l@l@l@l@p@K.#+$+$+$+$+$+$+$+$+$+#+Q.v@k@k@v@F._@(@(@/@}@$+!+)+{+@+, t Y.X 0 X 0 ( C r w@x@a@x@h@} ",
"L+,.z.l M+2 L+. + B+<+ +y@l@l@l@l@l@y@z@^+N.$+$+$+$+$+$+$+$+#+*+m@l@l@l@l@m@=+J+J+&+)+Q.@+_+$@A@t ) X X , ) t 8 +.s n@O+O+* B@C@",
"D+| > | 1 ,.} C+t+a@h@F.y@l@l@l@l@l@D@D@E@V.F@N.$+$+$+$+$+$+L.p@l@l@l@l@l@l@z@G@G@4+ @^+I+u+V ) 0 b+) ~.) t X C H H@5 !.C+x@a@} ",
"6 C C a | | C 8 D U 8 F m@l@l@l@l@y@D@v@.@H.R+N.$+$+$+$+$+$+O.I@l@l@l@l@l@l@D@I@J@H.N.#+Q.:@C ' | | t ~.) K@; > ' a X.].0 5 5 8 ",
"8 >.- c.8 } 5+V ( n@8 8 j@q@l@l@l@D@y@6@$+#+$+#+#+$+$+#+$+$+I.m@l@l@l@l@l@k@m@m@o.Q.#+#+P.W...) ; | ) , ) 0 z C L@1 ; /.#.; C 8 ",
"8 > E < a : o q : ( H ( @.M@q@l@N@m@I@O.$+$+$+$+$+$+$+$+$+$+O.I@l@l@l@l@l@D@y@v@K.J.$+$+)+4+C ; : Q ) 0 ) k.Y.' ~.O@3.C 9 V+8 ~.",
"; U $.w+..>.+ H@8 @.9 K+) H `+M@m@y@F.$+N.$+$+$+$+$+$+$+$+$+L.p@l@l@l@l@l@D@q@:@$+$+$+$+D.G@s.; A @.X X 1.@.> z S.) > : X+a+x.1.",
"#.) P@Z+8 }.Q@R@( R > S@t l.H@W.v@`+=+H.G@K.#+#+$+$+$+$+$+$+#+=+I@l@l@l@y@I@k@*+#+#+$+$+R+=+{+S.Y.a ~.0 , T@) ; , ^.X ~.| ) ~.b+",
"A 0 A C 7.8 e.g@9 x@7 8 ~.t ) X ) ) ]+U@F.$+$+$+$+$+$+$+$+$+$+#+H.m@l@l@m@k@:@N.$+$+$+#+G.&+^+) t @.0 X ' {.X ..R ) X+S.) ) z }.",
"t > C 0 U 5+p+R@k.o U r @.~.|.|+W @.Y+W.K.#+$+$+#+$+$+#+$+#+#+#+#+I.c@:@V@I@R+#+#+$+#+^+^+#+R+++) , 0 0 !.W@a+0 X@f@c+/.C U.; ; ",
"V < 7 % C+8 t@Y@8 u@/+0 R ) , >+3 Z@| o.$+$+$+$+$+$+$+$+$+$+$+$+#+#+#+N. +`@P.K.#+&+F.{+J+$+D.s.0 S.; > ) !.1.K+ #l S..#t 1 | : ",
"[ 8.+#@#a = ##$## E+%#: p+2 l &#m c.G.F.$+$+$+$+$+$+$+$+$+$+$+$+$+$+$+$+#+O.^+G.G.{+H.K.$+$+&+G.; a > Q ( > R@l W@3 Y+e.z.*#E+).",
"t+& =#-#;#e+f >#h ,#< [ } '#x+g@e.  {+*+#+#+#+#+#+#+#+#+$+#+#+$+#+#+$+#+$+#+#+%+N.#+#+#+#+$+M.G@A d@| n@R s R H@e.e.e.g@)#!#s+[ ",
"e <+~#{#]#L =.^#/#S.).[ D+L+l >+R n  @)+$+$+$+$+$+$+$+$+$+$+$+$+$+$+$+$+$+$+$+$+$+$+$+$+$+$+$+@+(#C n@X.s } C R )#&#_#/+l o@z+P+",
"A.$ # :#<#*.=.[#}#r >.[ t@5 5 | | [ `+=+$+$+$+$+$+$+$+$+$+$+$+$+$+$+$+$+$+$+$+$+$+$+$+$+$+$+#+G.|#e@X.C D a@} L+z.e.e.e.d.r+G+A+",
"u+1#$ 2#3#4#5#6#7#~.Q ..- B < C C U 8#D.$+#+#+#+#+$+$+$+$+#+#+$+#+#+$+#+$+$+#+$+#+#+$+#+$+$+#+n.)+R x@n@[ B@} ,.9#3 0#e.2 L+. + ",
"@ * p B.a#b#c#_ 0 ; 1 0 ..> 0 8 ; ~. @F.$+$+$+$+$+$+$+$+$+$+$+$+$+$+$+$+$+$+$+$+$+$+$+$+$+$+L.n.n@@.< F [ D 5 5 Q 1 S 3 ,.} D C+",
"_ _ 6 5+z U @.- 2.X 1 ) : ~.~.1., ) ; i.#+$+$+$+$+$+#+#+$+$+$+$+$+$+$+$+$+$+$+$+$+$+$+$+$+#+*+$@a U+- E U D } < X.5 a | | 5 3 C ",
": E C '.z ; ( 0 a a z X S.)@t ~.X 0 0 n.#+$+$+$+$+$+$+#+$+$+#+$+$+$+$+#+$+$+$+$+$+$+$+#+$+L.n.B a.( 0 8 A !.5 8 8 8 R a.Q C z ( ",
"A 8 : V+( 1+0 : : a 0 t ) t ) ) t ) > d+&+$+$+$+$+$+#+#+$+$+$+$+$+$+$+$+$+$+$+$+$+$+$+$+$+N.{+z U+~...2.x.].G ].> E S.a C A ) 1 ",
"m+0 ..^.| d#z | S.0 0 , t X t > ' t t +@H.#+#+#+#+#+ +q.R+*+)+I.O..@J.J.J.O.~+E.#+#+$+#+$+&+p.' ; z ; 0 1.e#o ; , z V z > 1 ; > ",
"R @.| 0 Q ( ..X ( f#X ~., t {.~.0 X X z n.n+$+$+$+.@V.3.1.g#h#]+i#,+,+,+d+]+.+@+J.$+$+$+#+=+q.) 1.X 0 : 0 [ } #.~.j#k#l#0 m#0 s ",
"r@8 A C 8 V ; r ^.0 ;+~.k.X ) ) X 1.t X n#Q.!+$+!+i.C.> t R a l Y+3 z.,.} ).[ g#H.$+$+$+N.G.; ) ~., ) $.8 o#p#S.; a+#.T@Y.S., .#",
"4 } O+* * o * +.$.P@0 ; ) ) ~.t {.X ~.~.@.n#{+F.G.j.z E C R M+e.e._#p+q#z++ & A.+@D.M.J+i.8@, t ~.) k.O+C e.g@0 5+} 4 R l Y+k z.",
"q#L++ B+% # a@[ F r r#b+) ) t ~.X @.Y.t ..t j#(.a 9 U C+C 1 )#_#e.x+l o@z+f.s#H+# d+n.@+: ; t#0 C Q 8 I ; e.u#8 h@+ c.>+x+e./+d.",
"z.t@P+e+<+# q q a@G #.v#~.' ; ; ~.7@; ~.( A ~.' C+U [ o t@E+3 w#x#e.d.r+t@f.e q # y#$ B@* C r A 5 z#z#A < A#} v+B#g@R p+e.e.x+>+",
"F+G+A+A.C#;.# B.a@6 H B : ( ~., X D#E#F#G#H#| >.O+F 6 @ [ s+F+z.d.e.m L+I#+ N+e q % P+* ).8 1 - J#K#L#R a@o+;.b#I#M#E+3 N#e.x+z."};
