/* XPM */
static char * foe2_l_xpm[] = {
"64 64 445 2",
"  	c #647D0F",
". 	c #667D0F",
"+ 	c #647D0D",
"@ 	c #647C0F",
"# 	c #60790C",
"$ 	c #5E770A",
"% 	c #6A8210",
"& 	c #567108",
"* 	c #526D06",
"= 	c #476305",
"- 	c #5C750A",
"; 	c #687F10",
"> 	c #425D04",
", 	c #58700A",
"' 	c #637B0C",
") 	c #637A0C",
"! 	c #62790A",
"~ 	c #5F7608",
"{ 	c #60770B",
"] 	c #60770A",
"^ 	c #5B7408",
"/ 	c #5E750A",
"( 	c #5D760A",
"_ 	c #5D7508",
": 	c #5F770A",
"< 	c #61790C",
"[ 	c #627B0C",
"} 	c #647C0D",
"| 	c #647C0E",
"1 	c #627A0C",
"2 	c #60780A",
"3 	c #5E7608",
"4 	c #61790A",
"5 	c #6B7C23",
"6 	c #8C8C75",
"7 	c #979688",
"8 	c #90907C",
"9 	c #8B8A71",
"0 	c #748037",
"a 	c #64790B",
"b 	c #657A0D",
"c 	c #647B0C",
"d 	c #62790B",
"e 	c #64790C",
"f 	c #61770B",
"g 	c #5F760A",
"h 	c #5C7509",
"i 	c #5B7508",
"j 	c #597308",
"k 	c #5E770B",
"l 	c #5F790C",
"m 	c #627B0E",
"n 	c #637B0D",
"o 	c #647B0D",
"p 	c #61790B",
"q 	c #5F780B",
"r 	c #5A740B",
"s 	c #4D6806",
"t 	c #436104",
"u 	c #5E790D",
"v 	c #516B0A",
"w 	c #4D6707",
"x 	c #61780D",
"y 	c #62790C",
"z 	c #5F7609",
"A 	c #5F7709",
"B 	c #5E7709",
"C 	c #61780B",
"D 	c #60780B",
"E 	c #63790D",
"F 	c #607709",
"G 	c #61780A",
"H 	c #62770A",
"I 	c #687C14",
"J 	c #83865E",
"K 	c #89896E",
"L 	c #8B8A70",
"M 	c #6B7C21",
"N 	c #63780A",
"O 	c #637A0D",
"P 	c #5B7308",
"Q 	c #5D7409",
"R 	c #5D7509",
"S 	c #617A0D",
"T 	c #627B0D",
"U 	c #5E7509",
"V 	c #587108",
"W 	c #4B6606",
"X 	c #456104",
"Y 	c #486506",
"Z 	c #435E04",
"` 	c #61750A",
" .	c #617609",
"..	c #63770B",
"+.	c #607708",
"@.	c #63780B",
"#.	c #60760A",
"$.	c #657A0C",
"%.	c #647810",
"&.	c #6D7F1F",
"*.	c #6E7E27",
"=.	c #667A13",
"-.	c #607808",
";.	c #5F7509",
">.	c #5E7508",
",.	c #5F780A",
"'.	c #60790A",
").	c #4D6A06",
"!.	c #416003",
"~.	c #3C5A02",
"{.	c #577009",
"].	c #607508",
"^.	c #627708",
"/.	c #617608",
"(.	c #62780C",
"_.	c #617508",
":.	c #627709",
"<.	c #65790D",
"[.	c #5E7507",
"}.	c #667B0E",
"|.	c #63770C",
"1.	c #587007",
"2.	c #587008",
"3.	c #5E7308",
"4.	c #65790C",
"5.	c #5D7507",
"6.	c #5F7308",
"7.	c #637709",
"8.	c #627609",
"9.	c #627A0A",
"0.	c #64790A",
"a.	c #65790B",
"b.	c #607909",
"c.	c #926657",
"d.	c #805242",
"e.	c #627A0B",
"f.	c #64790E",
"g.	c #896559",
"h.	c #794E41",
"i.	c #906252",
"j.	c #8A5E4E",
"k.	c #8A5D4D",
"l.	c #8D6E63",
"m.	c #7B584E",
"n.	c #987B72",
"o.	c #5F7708",
"p.	c #677B0D",
"q.	c #5D7307",
"r.	c #5A7209",
"s.	c #5E780C",
"t.	c #667E0F",
"u.	c #657D0E",
"v.	c #627A0D",
"w.	c #617A0A",
"x.	c #687C0D",
"y.	c #637909",
"z.	c #677C0D",
"A.	c #61780C",
"B.	c #8F604E",
"C.	c #BA8973",
"D.	c #C69378",
"E.	c #AA7A67",
"F.	c #7F5446",
"G.	c #657B0B",
"H.	c #667B0D",
"I.	c #AE806C",
"J.	c #C9957E",
"K.	c #D49F86",
"L.	c #D9A389",
"M.	c #DDA68D",
"N.	c #DEA88E",
"O.	c #DCA58C",
"P.	c #CD9A82",
"Q.	c #BB8974",
"R.	c #A77662",
"S.	c #806259",
"T.	c #754A3D",
"U.	c #74493C",
"V.	c #5B7409",
"W.	c #5B7509",
"X.	c #647D0E",
"Y.	c #617509",
"Z.	c #677C0E",
"`.	c #5C7408",
" +	c #5E7609",
".+	c #9D705E",
"++	c #623F37",
"@+	c #966856",
"#+	c #6B473D",
"$+	c #E3AA91",
"%+	c #E6AC92",
"&+	c #DFA991",
"*+	c #D49E86",
"=+	c #B8856D",
"-+	c #B3826D",
";+	c #5C760A",
">+	c #5B342B",
",+	c #522924",
"'+	c #C28E77",
")+	c #E1A78F",
"!+	c #C38F79",
"~+	c #855849",
"{+	c #522D26",
"]+	c #9B6C5A",
"^+	c #667D0E",
"/+	c #637809",
"(+	c #647A0A",
"_+	c #5E7708",
":+	c #597307",
"<+	c #5A7308",
"[+	c #55322A",
"}+	c #5E382E",
"|+	c #816963",
"1+	c #697F0F",
"2+	c #546E07",
"3+	c #60790B",
"4+	c #542D24",
"5+	c #5C740B",
"6+	c #5D760B",
"7+	c #486107",
"8+	c #5D7408",
"9+	c #5B7307",
"0+	c #5B750A",
"a+	c #5D3C35",
"b+	c #667A0C",
"c+	c #657C0D",
"d+	c #63770A",
"e+	c #677A0F",
"f+	c #6B810E",
"g+	c #546F08",
"h+	c #506B07",
"i+	c #496407",
"j+	c #5F770C",
"k+	c #556F08",
"l+	c #446205",
"m+	c #526B09",
"n+	c #E1A78E",
"o+	c #647C0C",
"p+	c #677C0F",
"q+	c #5E7408",
"r+	c #5C7508",
"s+	c #5D770A",
"t+	c #607B0D",
"u+	c #627C0D",
"v+	c #667F0F",
"w+	c #657D0F",
"x+	c #60780C",
"y+	c #5D770C",
"z+	c #607A0D",
"A+	c #637C0D",
"B+	c #677E0F",
"C+	c #64780B",
"D+	c #6C4236",
"E+	c #D8A286",
"F+	c #5F790D",
"G+	c #627C0E",
"H+	c #617B0C",
"I+	c #5E780B",
"J+	c #5E770C",
"K+	c #5F770B",
"L+	c #5C7609",
"M+	c #617B0D",
"N+	c #657D0D",
"O+	c #A3725F",
"P+	c #60750A",
"Q+	c #62770C",
"R+	c #64780D",
"S+	c #677D0D",
"T+	c #617909",
"U+	c #64780C",
"V+	c #607507",
"W+	c #7C392A",
"X+	c #637808",
"Y+	c #653A2E",
"Z+	c #D19B84",
"`+	c #6F4D44",
" @	c #717E31",
".@	c #73802F",
"+@	c #667911",
"@@	c #7C4534",
"#@	c #6F7E2A",
"$@	c #798341",
"%@	c #747F36",
"&@	c #637A0B",
"*@	c #997567",
"=@	c #6E7E25",
"-@	c #89896D",
";@	c #657811",
">@	c #8A896E",
",@	c #6E7D25",
"'@	c #9B6A4E",
")@	c #687C13",
"!@	c #6A7C1C",
"~@	c #F1B983",
"{@	c #F8BF85",
"]@	c #EDB587",
"^@	c #9F5B45",
"/@	c #D0775D",
"(@	c #E4AC8E",
"_@	c #E8B08A",
":@	c #607409",
"<@	c #C18B72",
"[@	c #A05E48",
"}@	c #DE7B62",
"|@	c #D2997C",
"1@	c #B3644D",
"2@	c #697D0E",
"3@	c #8E5A45",
"4@	c #66790D",
"5@	c #667A0E",
"6@	c #657B0F",
"7@	c #647A0E",
"8@	c #667B0C",
"9@	c #EAB180",
"0@	c #C17258",
"a@	c #5E760A",
"b@	c #62790D",
"c@	c #9E331F",
"d@	c #D7280C",
"e@	c #F2290A",
"f@	c #CF2B10",
"g@	c #5D750C",
"h@	c #5B740B",
"i@	c #5D750A",
"j@	c #677F0F",
"k@	c #677B0E",
"l@	c #904431",
"m@	c #EC2A0A",
"n@	c #5A730A",
"o@	c #637D0E",
"p@	c #60770C",
"q@	c #61760B",
"r@	c #B42C15",
"s@	c #5A7408",
"t@	c #597209",
"u@	c #60790D",
"v@	c #657E0C",
"w@	c #617A0C",
"x@	c #5F790B",
"y@	c #E6290B",
"z@	c #9E2310",
"A@	c #647B0E",
"B@	c #B4250E",
"C@	c #5C342A",
"D@	c #8B5E4E",
"E@	c #6B4236",
"F@	c #627608",
"G@	c #C32910",
"H@	c #4F281F",
"I@	c #637B0B",
"J@	c #63780D",
"K@	c #5D7407",
"L@	c #677B0F",
"M@	c #A32913",
"N@	c #C4250D",
"O@	c #617809",
"P@	c #607809",
"Q@	c #687C0E",
"R@	c #667A0D",
"S@	c #697E0F",
"T@	c #6B8010",
"U@	c #657A0B",
"V@	c #55322B",
"W@	c #687D0F",
"X@	c #7B2314",
"Y@	c #657C0E",
"Z@	c #677B0C",
"`@	c #64392E",
" #	c #627A0E",
".#	c #677E10",
"+#	c #69800E",
"@#	c #5A720A",
"##	c #526B07",
"$#	c #496306",
"%#	c #395502",
"&#	c #627D0D",
"*#	c #657E0F",
"=#	c #637D0F",
"-#	c #6D8210",
";#	c #536C05",
">#	c #677F11",
",#	c #3F5C04",
"'#	c #506B06",
")#	c #677F10",
"!#	c #A68980",
"~#	c #5B760B",
"{#	c #4D6706",
"]#	c #506B0A",
"^#	c #496405",
"/#	c #567007",
"(#	c #9C8B87",
"_#	c #587209",
":#	c #496606",
"<#	c #3F5C03",
"[#	c #556F07",
"}#	c #637C0F",
"|#	c #592E23",
"1#	c #59730A",
"2#	c #4E6907",
"3#	c #405E03",
"4#	c #3C5902",
"5#	c #506A06",
"6#	c #597207",
"7#	c #5A7108",
"8#	c #567008",
"9#	c #5C730A",
"0#	c #687B0F",
"a#	c #677A0D",
"b#	c #5E7306",
"c#	c #627B0B",
"d#	c #677A0C",
"e#	c #617907",
"f#	c #637B09",
"g#	c #657A0A",
"h#	c #715650",
"i#	c #583A34",
"j#	c #55322C",
"k#	c #687D0E",
"l#	c #68800E",
"m#	c #6A8010",
"n#	c #674B45",
"o#	c #627D0E",
"p#	c #697E10",
"q#	c #627A08",
"r#	c #5D770B",
"s#	c #5F7406",
"t#	c #587308",
"u#	c #5C7308",
"v#	c #60780D",
"w#	c #5D740B",
"x#	c #5A7409",
"y#	c #667E10",
"z#	c #667E0C",
"A#	c #647B09",
"B#	c #667E0E",
"C#	c #698011",
"D#	c #607A0C",
"E#	c #496305",
"F#	c #385602",
"G#	c #6D7D2A",
"H#	c #788441",
"I#	c #727F33",
"J#	c #717E2D",
"K#	c #667A11",
"L#	c #5A7307",
"  . . + @ # $ % & * = - ; > , ' ) ! ~ { ] ] ^ / ( _ $ : < [ } | ' 1 # $ $ { 2 3 4 5 6 7 8 9 0 a b c d e d f g _ h i ^ j ( k l m ",
"[ } n o p < q [ r s t u v w x y a ! z f 2 3 A B 3 C D : < y 1 ) 1 E { ] ] F G H b I J K L K M a a N d O a G ] 3 g P Q R ( k { S ",
"y < 1 T D < { U V W X Y Z ` d  . .F ! F ..+.G ] y C ] d d ) @.d f #.] A G ~ @.$.! c %.&.*.=.a $.N $.o N -.;.N 2 H _ >.B ] ,.: 2 ",
"'.E y C @.] ] 2 V ).!.~.{.{ a ].d y p  .^.! /.O y y 4 4 G y < y U e (.C H _.' e a H :.a +.:.N a a +.<.d 4 ! d ] [.+.f y 3 z F 2 ",
"y }.C y y |.d e N ] 1.2.3.4.1 a ! $.F +.! e ;.4.! 5.(.b 2 #.].].6.! d a 7.8.9.) ..a a N ! 4.! a N ! d 2 4 ) N 0.^.+.4 ;.d ) ! F ",
" .E b (.a G e a...c 2 ] _.! 4 b.9.c.d.N e T e.b c f.g.h.i.i.i.i.i.j.k.l.m.n.o.N a N +.a p.b ! a ! q.r.s.t.u.v.w.p ! _.9.! ].y 4 ",
"! ! x.y.N 4.}.z.a '.4 ;.A.] F B.c.C.D.E.F.G.H.l.h.g.I.J.K.L.M.N.M.O.L.P.Q.R.j.m.S.) N a a F.T.U.g.V.W.k X.+ k ( ] N ! $.d ' Y.e ",
"a ! a e Z.1 1 N @.H >.Q `.$  +.+E.++++R.@+#+j.C.L.$+%+$+$+$+%+%+%+%+$+$+$+$+&+*+C.g.F.k.h.Q.=+-+-+m.4 _ 2 E f ! e e :.|.e o.z.$ ",
"@.:.N a N 9.+._.5._ P V.i ;+F.J.>+,+,+,+h.'+)+%+%+%+%+%+%+%+%+%+%+%+%+%+%+%+%+%+$+$+'+++!+~+{+,+]+E.~+N ! ! ! N e N /.! b p.z.^+",
"] d /+$.$.(+d _+_ :+P j <+- k.'+,+,+[+.+M.%+$+$+%+%+%+$+%+%+$+%+%+$+%+%+%+%+$+%+%+$+Q.E.@+,+,+,+}+Q.|+a ! ! N /.$.a :.y ..: D 1+",
"] 2+/ d ) b ] 3+R - j V P W.m.J.4+}+C.)+%+%+%+%+%+%+%+%+%+%+%+%+%+%+%+%+%+%+%+%+%+%+K.*+.+4+,+,+}+'+d.' a :.~ /./.4.! $.c # 5+6+",
"v.7+8+2 ] F f  +9+i 0+P ^ ( a+]+++Q.$+%+%+%+%+%+%+%+%+%+%+%+%+%+%+%+%+%+%+%+%+%+%+%+%+%+%+J.F.,+i.E.@+b+:./.' -.c+b $.d+e+f+g+h+",
"i+P N '.<.^.F { _  +P 8+_ ( j+}+-+$+%+%+%+%+%+%+%+%+%+%+%+$+%+$+%+%+%+%+%+%+%+%+%+%+%+%+%+%+)+C.'+j.d ] { z C 2 ' ) o o c c k+l+",
"m+F e 2 p.-.;.F F 3 ] : 3 ] d.c.n+%+%+%+%+%+%+%+$+%+%+%+%+%+%+%+%+%+%+%+%+%+%+%+%+%+$+$+%+%+%+%+-+h.3 < 3 :  +# n o+^+^+} p+- w ",
"O  +H.y -.A @.F q+F +.f z 2 U.*+%+%+%+%+%+%+%+%+%+%+%+%+%+%+%+%+%+%+%+%+%+%+%+%+%+%+%+%+%+%+%+%+$+g.F.^ r+s+k t+u+u.v+t.w+^+Z.[ ",
"x+] (.C C +.d y ^.a a ~ C F.E.$+%+%+%+%+%+%+%+%+%+%+%+%+%+%+%+%+%+%+%+%+%+%+%+%+%+%+%+%+%+%+%+%+%+*+#+j - ;+y+z+A+^+B+t.t.w+} < ",
"R _  +] z d A 4 o+1 :.C+o.D+E+$+%+%+%+%+%+%+%+%+%+%+%+%+%+%+%+%+%+%+%+%+%+%+%+%+%+%+%+%+%+%+%+%+%+$+E.i.^ 0+y+F+G+X.t.t.v+X.H+I+",
"J+`.: K+< <.].z 2 d $.$.a ]+$+$+$+%+$+$+%+%+%+%+%+%+$+$+%+%+$+%+%+%+$+$+%+%+$+%+%+$+%+$+%+$+$+%+%+$+*+#+j L+k l M+| N+u.X.T M+l ",
"$  +: 2 +.y F F ! $.$.a D+Q.%+%+%+%+%+%+%+%+%+%+%+%+%+%+%+%+%+%+%+%+%+%+%+%+%+%+%+%+%+%+%+%+%+%+%+%+$+]+O+( # x+# o c n ) o x+x+",
"] ] G +.;.-.a $./.:.a :.D+*+%+%+%+%+%+%+%+%+%+%+%+%+%+%+%+%+%+%+%+%+%+%+%+%+%+%+%+%+%+%+%+%+%+%+%+%+%+J.c.B 2 p 2 y 1 1 3+A.] ] ",
"] ~ d ^.! e.@.a ! a ! N U.M.%+%+%+%+%+%+%+%+$+$+%+%+%+%+%+$+$+%+%+%+%+%+%+%+%+%+%+$+%+%+%+%+%+%+$+$+$+M.~+y 2 F b '.{ 2 C P+B ' ",
"Q++.9.H o H a a :.N :.! ~+$+%+%+%+%+%+%+%+%+%+%+%+%+%+%+%+%+%+%+%+%+%+%+%+%+%+%+%+%+%+%+%+%+%+%+%+%+%+$+c.d d a C R+F y ] e b F ",
"/.C+S+) H ! ^.:.:.a a l.@+%+%+%+%+%+%+$+$+%+%+%+%+%+%+%+%+%+%+%+%+%+$+%+%+%+%+%+%+%+%+%+%+%+%+%+%+%+%+%+E.T+] :.d ].H U+y a :.V+",
"_.$.4 N N ! N a :.:.$.W+O+%+%+%+%+%+)+]+'+)+%+%+%+%+%+%+%+%+%+%+*+I.*+%+%+%+%+%+%+%+%+%+%+%+%+%+%+%+%+%+C.k.O C+:.9.T+X+0.! 4.4 ",
"e a a q+/.! N +.:.:.X+Y+R.%+%+%+%+%+$+Z+j.Q.%+%+%+%+%+%+%+%+%+L.`+I.M.%+%+%+%+%+%+%+%+%+%+%+%+%+%+%+%+%+D.h. .N a ! +.$.! ! 2 F ",
" @.@+@! a ! :./.N 2 @.@@R.%+%+$+%+$+M.O.N.&+$+$+%+%+%+%+%+$+$+$+)+$+$+$+%+%+$+%+%+$+%+%+%+%+%+%+$+$+%+%+J.h.a $.! $.$.N a e #@$@",
"8 9 %@&@$.+.! ! N ! T+*@]+%+%+%+$+%+%+%+%+$+%+%+$+%+%+%+%+%+%+%+)+%+%+%+$+%+%+%+%+%+%+%+%+%+%+%+%+%+%+%+J.h.a a $.z.N +.N =@6 7 ",
"L -@M d ! ! $.! N z.+.1 ~+%+%+%+%+R.]+.+R.L.%+%+J.n+N.M.O.%+%+%+!+O+]+]+J.%+%+%+%+%+%+%+%+%+%+%+%+%+%+%+Q.~+:.$./.a N a ! ;@J >@",
",@=.$.:.a $.a a ].a a ! `+N.%+$+$+'+E.O+I.n+$+$+j.i.F.i.'+$+$+%+!+k.i.c.J.%+%+%+%+$+%+%+%+%+%+%+%+%+%+%+I.'@/+! N :.$.H ! /.)@!@",
"! :.>.+.+.p.z.:.+.! :.N F.~@{@]@$+$+N.E+O.%+%+%+Z+^@/@d.L.%+%+%+n+%+%+)+&+$+(@_@_@(@$+%+%+%+%+%+%+%+%+$+@+$.! ! $.N a $.:.y N ! ",
"4.H.:@! N N H.4.:.a a h.<@{@{@{@~@%+%+%+%+%+%+%+K.[@}@[@P.%+%+%+%+$+n+$+%+_@{@{@{@{@~@(@%+%+%+%+%+%+%+M.d.p.N /.N a ! ! $. .N $.",
"d+ .:.q+N 4.$.a :.N a S.|@{@{@{@{@_@%+%+%+%+%+%+E+[@}@1@!+%+%+%+%+%+%+$+_@{@{@{@{@{@{@~@$+%+%+%+%+%+%+!+d.H./.d ! N :.2@c :.b @.",
"4.C+#.! :.:.:.:.a +.N S.|@{@{@{@{@~@%+%+%+%+%+%+N.3@/@^@P.%+%+%+%+%+%+%+~@{@{@{@{@{@{@{@%+%+%+%+%+%+)+~+a 4 4.) '.&@y H.0.4@! 4 ",
"5@6@C+:.2 a a /.z.$.N U.=+{@{@{@{@{@%+%+%+%+$+$+$+!+k.R.)+$+%+$+%+%+%+%+{@{@{@{@{@{@{@{@]@%+%+%+$+$+Q.d.y < ] C o 2 ) o c c b+U+",
"Z.7@z y 8@p.) a N N z.:.h.9@D.0@=+|@$+%+%+%+%+%+%+$+%+%+%+%+%+%+%+%+%+%+{@{@{@{@{@{@{@{@]@%+%+%+%+Z+h.>.a@x+$ { # X.u.N+S+w+c }.",
"v.: b@(.y a.y #.! :.a :.}+c@d@e@e@f@R.)+%+%+%+%+%+%+%+%+%+%+%+%+%+%+%+$+~@{@{@{@{@{@{@{@(@%+%+%+*+d._ g@h@i@s+k t+u+X.j@t.t.} k@",
"D # < x+y f 0.:.@.a p.0.l@m@e@e@e@e@d@Q.%+%+%+$+%+%+$+$+%+$+$+%+%+K.I.=+L.{@{@{@{@{@{@]@$+$+)+Q.U.#.0+<+n@V.s+y+z+o@^+t.t.B+w+o ",
"# i@p@a@p@q@G y 4 ! $.! f@e@e@e@e@e@e@l@L.$+%+%+%+%+%+%+%+%+%+$+R.r@d@d@r@E.]@{@{@~@_@%+)+'+~+#+3 i@s@:+t@V.- y+u@G+u.B+t.v@} w@",
"x@j+_ K+K+b@O #.] N a .+y@e@e@e@e@e@y@z@]+O.%+%+%+%+%+%+%+%+$+=+f@e@e@e@e@f@-+E+E+*+'+R.#+}+@@y _ _ :+<+P <+;+k l M+| N+. X.T M+",
"# a@p@x+<.< A@z y $.N E.y@e@e@e@e@e@B@B@C@T.D@O.%+%+%+%+%+%+M.l@e@e@e@e@e@e@z@E@E@4+Y+]+D+y 4 ! 3 3 ] R R i@a@s+x+# T ' 1 e 1 I+",
"] < < ! (.A.) b e d F@a f@e@e@e@e@y@B@r@Z+I.O+O.%+%+%+%+%+%+P.G@e@e@e@e@e@e@B@G@H@I.O.$+R.^@I@f @.] C ] B ] >.D ] y 1 1 ) y y : ",
"] y d ..^.d ' J@y H ! a c@m@e@e@e@B@y@1@%+$+%+$+$+%+%+$+%+%+J.f@e@e@e@e@e@d@f@f@i.R.$+$+Q.U.2 ! 4 $.K@H ] ] b@4 ;.3+# ] v.f U ] ",
":.] V+~ y 8.L@:.b z.p.a ! M@m@e@N@f@G@P.%+%+%+%+%+%+%+%+%+%+P.G@e@e@e@e@e@B@y@r@L.K.%+%+'+4+) ) N y.O@+.4 z 4 2 P R 2 ) { C e ] ",
"4.a.d+T+2 e a H.H e +.4.$.$.W+M@f@y@E.%+O.%+%+%+%+%+%+%+%+%+M.l@e@e@e@e@e@B@m@^@%+%+%+%+C.E@m.2 4.P@z a C+~ +.] A@k U @.q+ .>.d ",
"c+:.a 1 :.$./.c d a Q@c ! :.) U.r@W+-+I.E@L.$+$+%+%+%+%+%+%+$+-+G@e@e@e@y@G@d@=+$+$+%+%+O+-+~+a @.A@o.N R@e o 4 S@T@'.] X+U@a ..",
"'.H a a H.T+a o @.$._.b $.! +.N a #+{+V@E.%+%+%+%+%+%+%+%+%+%+$+I.f@e@e@f@d@^@O.%+%+%+$+F.*+]+a $.a N :.] / p@~ j@t.] 3.y F ! F ",
"d d &@y ^.b+k@I@! d+W@<.! ! c a $.a :.U.L.$+%+%+$+%+%+$+%+$+$+$+$+J.0@^@X@G@O+$+$+%+$+]+]+$+O+@+(+0.:.+.G >.R p.S@w+3+>.! y e N ",
"2 1 ' N Y@H.. Z@C+4.<.a e d H.! $./.a i.%+%+%+%+%+%+%+%+%+%+%+%+$+$+$+O..+`@Q.L.$+*+E.~+E+%+C.m.^+c a o ! 1+t@]  #u@] x+i / { ;.",
" +H+T X.t.S+} W@. S@e 4 p e ) d $.a F.E.%+%+%+%+%+%+%+%+%+%+%+%+%+%+%+%+$+P.]+F.F.~+I.L.%+%+*+F..#. | w+2 +#H+j @###g ) $#%#2.$ ",
"$ t+&#*#j@t.t.t.A@o O o b@1 8@F ] H.~+=+$+$+$+$+$+$+$+$+%+$+$+%+$+$+%+$+%+$+$+&+O.$+$+$+$+%+N.E@j@B+=## $ { -#& ;#= 0+>#,#'#h s+",
"J+z+o@. 1+)#.#*#o y # O A.b@y y.b e Y+'+%+%+%+%+%+%+%+%+%+%+%+%+%+%+%+%+%+%+%+%+%+%+%+%+%+%+%+#+!#. M+I+$  +H.~#{#X u ]#^#/#<+- ",
"y+F+u+u.t.t.t.X.M+# a@D y A.7@:.d O W+-+%+%+%+%+%+%+%+%+%+%+%+%+%+%+%+%+%+%+%+%+%+%+%+%+%+%+$+F.(#< < u@$ U G _#:#X Y <#[#j ^ W.",
"k l M+| t.t.} }#T # j+$ b@p@o e ` y |#C.%+$+$+$+$+%+%+%+%+$+$+%+$+$+%+$+%+%+$+%+$+$+%+$+%+%+$+h.'+{ E f @.p :.1#2#3#4#5#6#^ s@r+",
"x+D # T } n ' p < < D $ B { +.b@O { Y+E.%+%+%+%+%+%+%+%+%+%+%+%+%+%+%+%+%+%+%+%+%+%+%+%+%+%+M.h.] ! e @.! ' d ! 3 7#8#9#V.Q _ ( ",
"y } < 1 1 ) < A.{ # D >.C f Q+) 0#0#y c.$+%+%+%+%+%+$+$+%+%+%+%+%+%+%+%+%+%+%+%+%+%+%+%+%+$+=+@@4.:.:.2 a ' $.9.f +.>.H 3+: 3 3 ",
"4 H y p }.o ] ] ] < <.F ] ! 4 }.E }.d+h.$+%+%+%+%+%+%+$+%+%+$+%+%+%+%+$+%+%+%+%+%+%+%+$+%+M.h.$.:.N a#H.$.H ) ) ! 4 d H [.y C 2 ",
"' a F y ) H.C e (.A (.a.9.@.:.Q+H k@}.a+*+%+%+%+%+%+$+$+%+%+%+%+%+%+%+%+%+%+%+%+%+%+%+%+%+O.~+N a a N a N ! ) 2 2 ! /+4 V+2 ] F ",
"e d ' e H ;.H c d R b#4.! d H d b 5@p+`+I.$+$+$+$+$+.+k.O+=+'+J.P.Z+K.K.K.P.!+D.$+$+%+$+%+*+j.b e N $.N c ! ! H.1 H c#1 /.@.! o+",
"O ! d#! e#f#g#:...# $ ! 2 ! $.4.a p.(.b h.n+%+%+%+Z+T.< 4 h#i#{+j#>+>+>+a+{+++#+K.%+%+%+$+-+k.! :._.N c :.$.k#4 $.@.4 p ! 1 +.o ",
"Y@c H.z.Q@..d+d H.l#m#]  .a c :.a d b +.n#R.)+%+)+c.B.# T X.} S+. ) o N e 2 e h#I.%+%+%+O.F.4.$.a a $.p.:.Z.! /.G d ;.] y F ] w@",
"X.+ S+. o [ # 3+! j@t.y K+p.a :.N c N _.n n#~+E.F.d.k z+o#w+)#t.t.N+o y C H 2 ) `+C.N.E+c.3@$._.N :.a a d ! U@ .#._ R _ _ K+# [ ",
"u.1+t.B+^+v.k i@] p#t.d x ] p y ! q#d 2 _ - P j n@r#s.z+o@. B+t.)#*#' y x+>.~ ) ].a+h.#+N z.+.$.:.N a a c+s#G B $ a@j i ;+k M+o#",
"^+B+t.t.w+o j@t#u## v#{ F w#w#< F G y _ j+^ x#j P - s.u@u+u.t.y#z#} H+u@R $ >.x+b :.F 4 :.d 4@:.d d b :.A#..A a@P P j <+0+J+u@X.",
"X.B+t.B#} H+C#D#8#V m+a@o E#F#g@f ' ]  +_ J+i P - L+k D#M+  t.u.X.G+t+$ ( : B K+U 1 G#H#I#J#K#$.c :.4 2 E z : a@V.j V L#W.y+F+G+"};
