/* XPM */
static char * foe_l0_xpm[] = {
"64 64 448 2",
"  	c #627B0E",
". 	c #5F790C",
"+ 	c #5E770B",
"@ 	c #5D760A",
"# 	c #597308",
"$ 	c #5B7408",
"% 	c #5B7508",
"& 	c #5C7509",
"* 	c #5D7508",
"= 	c #5F760A",
"- 	c #61770B",
"; 	c #62790B",
"> 	c #64790C",
", 	c #647B0C",
"' 	c #657A0D",
") 	c #64790B",
"! 	c #748037",
"~ 	c #8B8A71",
"{ 	c #90907C",
"] 	c #979688",
"^ 	c #8C8C75",
"/ 	c #6B7C23",
"( 	c #61790A",
"_ 	c #5E7608",
": 	c #60780A",
"< 	c #60770B",
"[ 	c #5E770A",
"} 	c #60790C",
"| 	c #627A0C",
"1 	c #637B0C",
"2 	c #647C0E",
"3 	c #647C0D",
"4 	c #627B0C",
"5 	c #61790C",
"6 	c #5F770A",
"7 	c #5E750A",
"8 	c #60770A",
"9 	c #6D7D3E",
"0 	c #5F7608",
"a 	c #62790A",
"b 	c #637A0C",
"c 	c #58700A",
"d 	c #425D04",
"e 	c #687F10",
"f 	c #5C750A",
"g 	c #476305",
"h 	c #526D06",
"i 	c #567108",
"j 	c #6A8210",
"k 	c #647C0F",
"l 	c #647D0D",
"m 	c #667D0F",
"n 	c #647D0F",
"o 	c #617A0D",
"p 	c #5D7509",
"q 	c #5D7409",
"r 	c #5B7308",
"s 	c #61780A",
"t 	c #637A0D",
"u 	c #63780A",
"v 	c #6B7C21",
"w 	c #89896E",
"x 	c #8B8A70",
"y 	c #83865E",
"z 	c #687C14",
"A 	c #62770A",
"B 	c #607709",
"C 	c #63790D",
"D 	c #62790C",
"E 	c #60780B",
"F 	c #61780B",
"G 	c #5E7709",
"H 	c #5F7709",
"I 	c #5F7609",
"J 	c #61780D",
"K 	c #4D6707",
"L 	c #516B0A",
"M 	c #5E790D",
"N 	c #436104",
"O 	c #4D6806",
"P 	c #5A740B",
"Q 	c #5F780B",
"R 	c #61790B",
"S 	c #647B0D",
"T 	c #637B0D",
"U 	c #5F780A",
"V 	c #5E7508",
"W 	c #5F7509",
"X 	c #607808",
"Y 	c #657A0C",
"Z 	c #667A13",
"` 	c #6E7E27",
" .	c #6D7F1F",
"..	c #647810",
"+.	c #63780B",
"@.	c #60760A",
"#.	c #607708",
"$.	c #63770B",
"%.	c #617609",
"&.	c #61750A",
"*.	c #435E04",
"=.	c #486506",
"-.	c #456104",
";.	c #4B6606",
">.	c #587108",
",.	c #5E7509",
"'.	c #627B0D",
").	c #5E7507",
"!.	c #65790D",
"~.	c #627709",
"{.	c #617508",
"].	c #62780C",
"^.	c #617608",
"/.	c #627708",
"(.	c #607508",
"_.	c #577009",
":.	c #3C5A02",
"<.	c #416003",
"[.	c #4D6A06",
"}.	c #60790A",
"|.	c #64790A",
"1.	c #65790C",
"2.	c #627A0A",
"3.	c #627609",
"4.	c #637709",
"5.	c #5F7308",
"6.	c #5D7507",
"7.	c #5E7308",
"8.	c #587008",
"9.	c #587007",
"0.	c #63770C",
"a.	c #667B0E",
"b.	c #617A0A",
"c.	c #627A0D",
"d.	c #657D0E",
"e.	c #667E0F",
"f.	c #5E780C",
"g.	c #5A7209",
"h.	c #5D7307",
"i.	c #926657",
"j.	c #805242",
"k.	c #677B0D",
"l.	c #5F7708",
"m.	c #896559",
"n.	c #794E41",
"o.	c #906252",
"p.	c #8A5E4E",
"q.	c #8A5D4D",
"r.	c #8D6E63",
"s.	c #7B584E",
"t.	c #987B72",
"u.	c #64790E",
"v.	c #627A0B",
"w.	c #607909",
"x.	c #65790B",
"y.	c #617509",
"z.	c #647D0E",
"A.	c #5B7509",
"B.	c #5B7409",
"C.	c #8F604E",
"D.	c #BA8973",
"E.	c #C69378",
"F.	c #AA7A67",
"G.	c #7F5446",
"H.	c #AE806C",
"I.	c #C9957E",
"J.	c #D49F86",
"K.	c #D9A389",
"L.	c #DDA68D",
"M.	c #DEA88E",
"N.	c #DCA58C",
"O.	c #CD9A82",
"P.	c #BB8974",
"Q.	c #A77662",
"R.	c #806259",
"S.	c #667B0D",
"T.	c #657B0B",
"U.	c #637A0B",
"V.	c #754A3D",
"W.	c #74493C",
"X.	c #61780C",
"Y.	c #677C0D",
"Z.	c #637909",
"`.	c #687C0D",
" +	c #9D705E",
".+	c #623F37",
"++	c #966856",
"@+	c #6B473D",
"#+	c #E3AA91",
"$+	c #E6AC92",
"%+	c #DFA991",
"&+	c #D49E86",
"*+	c #B8856D",
"=+	c #B3826D",
"-+	c #5C7408",
";+	c #677C0E",
">+	c #667D0E",
",+	c #5B342B",
"'+	c #522924",
")+	c #C28E77",
"!+	c #E1A78F",
"~+	c #C38F79",
"{+	c #855849",
"]+	c #522D26",
"^+	c #9B6C5A",
"/+	c #697F0F",
"(+	c #55322A",
"_+	c #5E382E",
":+	c #816963",
"<+	c #5A7308",
"[+	c #597307",
"}+	c #5E7708",
"|+	c #647A0A",
"1+	c #637809",
"2+	c #5D760B",
"3+	c #5C740B",
"4+	c #542D24",
"5+	c #60790B",
"6+	c #546E07",
"7+	c #506B07",
"8+	c #546F08",
"9+	c #6B810E",
"0+	c #677A0F",
"a+	c #63770A",
"b+	c #657C0D",
"c+	c #667A0C",
"d+	c #5D3C35",
"e+	c #5B750A",
"f+	c #5B7307",
"g+	c #5E7609",
"h+	c #5D7408",
"i+	c #486107",
"j+	c #446205",
"k+	c #556F08",
"l+	c #496407",
"m+	c #677C0F",
"n+	c #647C0C",
"o+	c #E1A78E",
"p+	c #526B09",
"q+	c #657D0F",
"r+	c #667F0F",
"s+	c #627C0D",
"t+	c #607B0D",
"u+	c #5D770A",
"v+	c #5C7508",
"w+	c #5C7308",
"x+	c #5E7408",
"y+	c #677E0F",
"z+	c #637C0D",
"A+	c #607A0D",
"B+	c #5D770C",
"C+	c #5C760A",
"D+	c #60780C",
"E+	c #5E780B",
"F+	c #617B0C",
"G+	c #627C0E",
"H+	c #5F790D",
"I+	c #5A730A",
"J+	c #6C4236",
"K+	c #D8A286",
"L+	c #64780B",
"M+	c #617B0D",
"N+	c #657D0D",
"O+	c #5C7609",
"P+	c #5F770B",
"Q+	c #5E770C",
"R+	c #5C7307",
"S+	c #A3725F",
"T+	c #60750A",
"U+	c #64780D",
"V+	c #62770C",
"W+	c #607507",
"X+	c #64780C",
"Y+	c #617909",
"Z+	c #677D0D",
"`+	c #637808",
" @	c #7C392A",
".@	c #653A2E",
"+@	c #D19B84",
"@@	c #6F4D44",
"#@	c #798341",
"$@	c #6F7E2A",
"%@	c #7C4534",
"&@	c #667911",
"*@	c #73802F",
"=@	c #717E31",
"-@	c #6E7E25",
";@	c #997567",
">@	c #4C241B",
",@	c #472016",
"'@	c #737F35",
")@	c #929280",
"!@	c #8A896E",
"~@	c #657811",
"{@	c #677A0D",
"]@	c #4B2219",
"^@	c #4B2119",
"/@	c #89896D",
"(@	c #6A7C1C",
"_@	c #687C13",
":@	c #9B6A4E",
"<@	c #6E7D25",
"[@	c #F1B983",
"}@	c #F8BF85",
"|@	c #EDB587",
"1@	c #9F5B45",
"2@	c #D0775D",
"3@	c #E4AC8E",
"4@	c #E8B08A",
"5@	c #C18B72",
"6@	c #A05E48",
"7@	c #DE7B62",
"8@	c #607409",
"9@	c #697D0E",
"0@	c #D2997C",
"a@	c #B3644D",
"b@	c #66790D",
"c@	c #8E5A45",
"d@	c #657B0F",
"e@	c #667A0E",
"f@	c #5E760A",
"g@	c #EAB180",
"h@	c #C17258",
"i@	c #667B0C",
"j@	c #647A0E",
"k@	c #677B0E",
"l@	c #677F0F",
"m@	c #5D750A",
"n@	c #5B740B",
"o@	c #9E331F",
"p@	c #D7280C",
"q@	c #F2290A",
"r@	c #CF2B10",
"s@	c #62790D",
"t@	c #637D0E",
"u@	c #904431",
"v@	c #EC2A0A",
"w@	c #E1A78D",
"x@	c #617A0C",
"y@	c #657E0C",
"z@	c #60790D",
"A@	c #597209",
"B@	c #B42C15",
"C@	c #61760B",
"D@	c #60770C",
"E@	c #E6290B",
"F@	c #9E2310",
"G@	c #637708",
"H@	c #5F770C",
"I@	c #5F790B",
"J@	c #C32910",
"K@	c #592E23",
"L@	c #6B4236",
"M@	c #647B0E",
"N@	c #B4250E",
"O@	c #4F281F",
"P@	c #627608",
"Q@	c #63780D",
"R@	c #A32913",
"S@	c #677B0F",
"T@	c #657A0B",
"U@	c #6B8010",
"V@	c #697E0F",
"W@	c #667A0D",
"X@	c #687C0E",
"Y@	c #55322B",
"Z@	c #7B2314",
"`@	c #687D0F",
" #	c #637B0B",
".#	c #627A0E",
"+#	c #617B0B",
"@#	c #677B0C",
"##	c #657C0E",
"$#	c #395502",
"%#	c #496306",
"&#	c #526B07",
"*#	c #5A720A",
"=#	c #69800E",
"-#	c #677E10",
";#	c #506B06",
">#	c #3F5C04",
",#	c #677F11",
"'#	c #536C05",
")#	c #6D8210",
"!#	c #637D0F",
"~#	c #657E0F",
"{#	c #627D0D",
"]#	c #567007",
"^#	c #496405",
"/#	c #506B0A",
"(#	c #4D6706",
"_#	c #5B760B",
":#	c #A68980",
"<#	c #677F10",
"[#	c #556F07",
"}#	c #3F5C03",
"|#	c #496606",
"1#	c #587209",
"2#	c #9C8B87",
"3#	c #5A7408",
"4#	c #597207",
"5#	c #506A06",
"6#	c #3C5902",
"7#	c #405E03",
"8#	c #4E6907",
"9#	c #59730A",
"0#	c #637C0F",
"a#	c #5C730A",
"b#	c #567008",
"c#	c #5A7108",
"d#	c #627B0B",
"e#	c #5E7306",
"f#	c #687D0E",
"g#	c #715650",
"h#	c #583A34",
"i#	c #55322C",
"j#	c #657A0A",
"k#	c #637B09",
"l#	c #617907",
"m#	c #677A0C",
"n#	c #674B45",
"o#	c #6A8010",
"p#	c #68800E",
"q#	c #627D0E",
"r#	c #5F7406",
"s#	c #5D770B",
"t#	c #627A08",
"u#	c #697E10",
"v#	c #647B09",
"w#	c #667E0C",
"x#	c #667E10",
"y#	c #5A7409",
"z#	c #5D740B",
"A#	c #60780D",
"B#	c #587308",
"C#	c #5A7307",
"D#	c #5F7408",
"E#	c #667A11",
"F#	c #717E2D",
"G#	c #727F33",
"H#	c #788441",
"I#	c #6D7D2A",
"J#	c #607A0C",
"K#	c #5D750C",
"L#	c #385602",
"M#	c #496305",
"N#	c #698011",
"O#	c #667E0E",
"  . + @ # $ % & * = - ; > ; , ' ) ! ~ { ] ^ / ( _ : < [ [ } | 1 2 3 4 5 6 [ * @ 7 $ 8 9 < 0 a b 1 c d e f g h i j [ } k l m m n ",
"o < + @ p q r = _ 8 s ) t ; u ) ) v w x w y z ' A s B 8 8 < C | b | D 5 6 E F _ G H _ : - I a ) D J K L M N O P 4 Q 5 R S T 3 4 ",
": 6 U 8 G V * A : u W X u S Y u Y ) Z `  ..., a Y +.0 s H 8 @.- ; +.b ; ; 8 F D 8 s #.$.B a B %.%.; &.*.=.-.;.>.,.< 5 E '.| 5 D ",
": B I _ D - #.).8 ; a ( ; !.#.) ) u ~.#.) ~.A ) > 1 {.A F ].> ,.D 5 D s ( ( D D t ^.a /.%.R D ; (.) < _.:.<.[.>.: 8 8 +.F D C }.",
"B a b ; W ( #./.|.u b ( : ; a u ) a 1.a u ) ) $.b 2.3.4.) ; a 5.(.(.@.: ' ].6.a 1.W > a #.B Y a ) | 1.7.8.9.8 u > ; 0.D D F a.D ",
"( D (.a 2.{.a R b.c.d.e.f.g.h.a ) i.j.k.) #.u ) u l.m.n.o.o.o.o.o.p.q.r.s.t.u., ' v.'.> u ; > 2.w.( a {.8 : , $.x.> s ) ].' C %.",
"> y.1 ; Y a u 8 @ + l z.+ A.B.C.i.D.E.F.G.u b r.n.m.H.I.J.K.L.M.L.N.K.O.P.Q.p.s.R.S.T.b U.G.V.W.m.B 8 X.W ( }.) Y.a.1.u Z.`.a a ",
"[ Y.l.> 0.~.> > a - C : * ( s  +F..+.+Q.++@+p.D.K.#+$+#+#+#+$+$+$+$+#+#+#+#+%+&+D.m.G.q.n.P.*+=+=+s.[ -+q V A +.u | | ;+> ) a ) ",
">+Y.k.' a ^.u > u a a a u S.G.I.,+'+'+'+n.)+!+$+$+$+$+$+$+$+$+$+$+$+$+$+$+$+$+$+#+#+)+.+~+{+]+'+^+F.{+% B.r * 6.{.#.2.u ) u ~.+.",
"/+E 6 $.D ~.) Y ^.u a a ) {.q.)+'+'+(+ +L.$+#+#+$+$+$+#+$+$+#+$+$+#+$+$+$+$+#+$+$+#+P.F.++'+'+'+_+P.:+<+# r [+* }+; |+Y Y 1+; 8 ",
"2+3+} , Y a 1.^.^.0 ~.) 1 +.s.I.4+_+D.!+$+$+$+$+$+$+$+$+$+$+$+$+$+$+$+$+$+$+$+$+$+$+J.&+ +4+'+'+_+)+j.r >.# f p 5+8 ' b ; 7 6+8 ",
"7+8+9+0+a+Y ' b+X 1 ^.~.c+) d+^+.+P.#+$+$+$+$+$+$+$+$+$+$+$+$+$+$+$+$+$+$+$+$+$+$+$+$+$+$+I.G.'+o.F.++$ r e+% f+g+- B 8 : h+i+c.",
"j+k+, , S S b 1 : F I < 8 ; > _+=+#+$+$+$+$+$+$+$+$+$+$+$+#+$+#+$+$+$+$+$+$+$+$+$+$+$+$+$+$+!+D.)+p.@ * h+r g+* < B /.!.}.u r l+",
"K f m+3 >+>+n+T } g+6 _ 5 _ j.i.o+$+$+$+$+$+$+$+#+$+$+$+$+$+$+$+$+$+$+$+$+$+$+$+$+$+#+#+$+$+$+$+=+n.8 _ 6 8 _ B B W X k.: > B p+",
"4 ;+>+q+e.r+d.s+t++ u+v+$ w+W.&+$+$+$+$+$+$+$+$+$+$+$+$+$+$+$+$+$+$+$+$+$+$+$+$+$+$+$+$+$+$+$+$+#+m.G.I - #.B x+B +.H X D S.g+t ",
"5 3 q+e.e.y+>+z+A+B+C+f # G.F.#+$+$+$+$+$+$+$+$+$+$+$+$+$+$+$+$+$+$+$+$+$+$+$+$+$+$+$+$+$+$+$+$+$+&+@+F 0 ) ) /.D ; #.F F ].8 D+",
"E+F+z.r+e.e.z.G+H+B+e+$ I+J+K+#+$+$+$+$+$+$+$+$+$+$+$+$+$+$+$+$+$+$+$+$+$+$+$+$+$+$+$+$+$+$+$+$+$+#+F.o.L+~.| n+( H ; I 8 g+* p ",
". M+'.z.d.N+2 M+. + O+# r ^+#+#+#+$+#+#+$+$+$+$+$+$+#+#+$+$+#+$+$+$+#+#+$+$+#+$+$+#+$+#+$+#+#+$+$+#+&+@+Y Y ; : I (.!.5 P+6 -+Q+",
"D+D+S b T , S } D+} @ R+J+P.$+$+$+$+$+$+$+$+$+$+$+$+$+$+$+$+$+$+$+$+$+$+$+$+$+$+$+$+$+$+$+$+$+$+$+$+#+^+S+Y Y a B B D #.: 6 g+[ ",
"8 8 X.5+| | D : R : G : J+&+$+$+$+$+$+$+$+$+$+$+$+$+$+$+$+$+$+$+$+$+$+$+$+$+$+$+$+$+$+$+$+$+$+$+$+$+$+I.i.) ~.^.Y ) X W #.s 8 8 ",
"1 G T+F : < }.' B : D F W.L.$+$+$+$+$+$+$+$+#+#+$+$+$+$+$+#+#+$+$+$+$+$+$+$+$+$+$+#+$+$+$+$+$+$+#+#+#+L.{+a ) a ) +.v.a /.; 0 8 ",
"B ' > 8 D B U+F ) ; ; 8 {+#+$+$+$+$+$+$+$+$+$+$+$+$+$+$+$+$+$+$+$+$+$+$+$+$+$+$+$+$+$+$+$+$+$+$+$+$+$+#+i.~.u ~.) ) A S A 2.#.V+",
"W+~.) D X+A (.; ~.8 Y+r.++$+$+$+$+$+$+#+#+$+$+$+$+$+$+$+$+$+$+$+$+$+#+$+$+$+$+$+$+$+$+$+$+$+$+$+$+$+$+$+F.) ) ~.~./.a A b Z+L+^.",
"( 1.a |.`+Y+2.~.L+t b  @S+$+$+$+$+$+!+^+)+!+$+$+$+$+$+$+$+$+$+$+&+H.&+$+$+$+$+$+$+$+$+$+$+$+$+$+$+$+$+$+D.q.~.~.) u a u u ( Y {.",
"B : a a Y #.a ) u %.(..@Q.$+$+$+$+$+#++@p.P.$+$+$+$+$+$+$+$+$+K.@@H.L.$+$+$+$+$+$+$+$+$+$+$+$+$+$+$+$+$+E.n.~.~.#.u a ^.x+) ) > ",
"#@$@> ) u Y Y a Y ) a+%@Q.$+$+#+$+#+I.~+L.%+#+#+$+$+$+$+$+#+#+#+!+#+#+#+$+$+#+$+$+#+$+$+$+$+$+$+#+#+$+$+I.n.: u ^.~.a ) a &@*@=@",
"] ^ -@u #.u Y.Y ) ) S.;@^+$+$+$+#+D.>@,@i.#+$+$+#+$+$+$+$+$+$+$+L.++(+i.M.$+$+$+$+$+$+$+$+$+$+$+$+$+$+$+I.n.a u a a #.Y U.'@~ )@",
"!@y ~@a ) u ) ^.Y ~.{@) {+$+$+$+$+p.]@>@,+K.$+$+I.o+M.L.N.$+$+$+P.]@]@^@P.$+$+$+$+$+$+$+$+$+$+$+$+$+$+$+P.{+Y.u a Y a a ; v /@x ",
"(@_@^.a A Y ~.u a 1+^.Y @@M.$+#+#+F.]@]@n.o+#+#+p.o.G.o.)+#+#+$+)+]@>@^@)+$+$+$+$+#+$+$+$+$+$+$+$+$+$+$+H.:@) (.) ) Y ) ~.Y Z <@",
"a u D ~.Y ) u Y a a Y ~.G.[@}@|@#+M.H.Q.J.$+$+$++@1@2@j.K.$+$+$+o+ +V.^+M.#+3@4@4@3@#+$+$+$+$+$+$+$+$+#+++~.a #.~.Y.k.#.#.V ~.a ",
"Y u %.Y a a ) u ^.u k.n.5@}@}@}@[@$+$+$+$+$+$+$+J.6@7@6@O.$+$+$+$+#+o+#+$+4@}@}@}@}@[@3@$+$+$+$+$+$+$+L.j.) ) ~.1.S.u u a 8@S.1.",
"+.' ~., 9@~.u a ; ^.S.R.0@}@}@}@}@4@$+$+$+$+$+$+K+6@7@a@~+$+$+$+$+$+$+#+4@}@}@}@}@}@}@[@#+$+$+$+$+$+$+~+j.) u ~.) Y 1.u x+~.%.a+",
"( a b@|.S.D U.}.b 1.( R.0@}@}@}@}@[@$+$+$+$+$+$+M.c@2@1@O.$+$+$+$+$+$+$+[@}@}@}@}@}@}@}@$+$+$+$+$+$+!+{+~.u #.) ~.~.~.~.a @.L+1.",
"X+c+, , S b : S F 8 5 W.*+}@}@}@}@[@$+$+$+$+#+#+#+~+q.Q.!+#+$+#+$+$+$+$+}@}@}@}@}@}@}@}@|@$+$+$+#+#+P.j.) u Y Y.^.) ) : ~.L+d@e@",
"a., q+Z+N+d.z.} < [ D+f@n.g@E.h@*+0@#+$+$+$+$+$+$+#+$+$+$+$+$+$+$+$+$+$+}@}@}@}@}@}@}@}@|@$+$+$+$++@n.) ~.Y.u u ) b k.i@D I j@;+",
"k@3 e.e.l@z.s+t++ u+m@n@.@o@p@q@q@r@Q.!+$+$+$+$+$+$+$+$+$+$+$+$+$+$+$+#+[@}@}@}@}@}@}@}@3@$+$+$+&+j.) S.~.) ~.a @.D x.D ].s@6 c.",
"S q+y+e.e.>+t@A+B+u+B.I+u@v@q@q@q@q@p@P.$+$+$+#+$+$+#+#+$+#+#+$+$+K.~+I.w@}@}@}@}@}@}@|@#+#+!+P.W.Y k.u |.k.) +.~.|.- D D+5 } E ",
"x@3 y@e.y+d.G+z@B+f B.A@r@q@q@q@q@q@v@u@N.#+$+$+$+$+$+$+$+$+$+$+=+B@p@p@B@5@|@}@}@[@4@$+!+)+{+@+, u Y.Y a Y a ( D s C@D@f@D@m@} ",
"M+'.z.m N+2 M+. + C+<+r E@q@q@q@q@q@E@F@^+N.$+$+$+$+$+$+$+$+$+P.r@q@q@q@q@r@=+K.K.&+)+Q.@+_+%@G@u ) Y Y , ) u 8 @.t s@P+P+* H@I@",
"E+| > | 1 '.} D+u+f@m@F.E@q@q@q@q@q@J@J@K@L@++N.$+$+$+$+$+$+!+a@q@q@q@q@q@q@F@.@_+K@.@^+J+v+W ) a b+) ~.) u Y D I M@5 !.D+D@f@} ",
"6 D D b | | D 8 E V 8 G r@q@q@q@q@E@N@B@+@H.S+N.$+$+$+$+$+$+N.J@q@q@q@q@q@q@N@N@O@*+N.#+Q.1@D ' | | u ~.) P@; > ' b X.].a 5 5 8 ",
"8 ,.- c.8 } 5+W ( s@8 8 o@v@q@q@q@N@E@Q.$+#+$+#+#+$+$+#+$+$+K.r@q@q@q@q@q@p@r@r@o.F.#+#+P.W.+.) ; | ) , ) a A D Q@1 ; /.$.; D 8 ",
"8 > F < b : p r : ( I ( #.R@v@q@J@r@J@+@$+$+$+$+$+$+$+$+$+$+N.B@q@q@q@q@q@N@E@B@N.K.$+$+)+4+D ; : R ) a ) k.Y.' ~.S@3.D 0 W+8 ~.",
"; V %.x++.,.+ M@8 #.0 L+) I  @R@r@E@F.#+K.#+$+$+$+$+$+$+$+$+#+1@q@q@q@q@q@N@v@6@$+$+$+$+D.L@s.; B #.Y Y 1.#.> A S.) > : Y+a+x.1.",
"$.) T@`+8 }.U@V@( S > W@u l.M@W.B@ @*+H.L@N.#+#+$+$+$+$+$+#+#+P.J@q@q@q@E@J@p@5@#+#+$+$+F.=+{+S.Y.b ~.a , X@) ; , ^.Y ~.| ) ~.b+",
"B a B D 7.8 e.l@0 D@7 8 ~.u ) Y ) ) ]+Y@F.$+$+$+$+$+$+$+$+$+$+$+=+r@q@q@r@p@1@o+$+$+$+#+G.J.{+) u #.a Y ' {.Y +.S ) Y+S.) ) A }.",
"u > D a V 5+q+V@k.p V s #.~.|.|+X #.Z+J+K.#+$+$+#+$+$+#+$+#+$+#+#+I.h@1@Z@J@=+#+#+$+#+H. +#+S+++) , a a !.`@a+a  #k@c+/.D U.; ; ",
"W < 7 % D+8 z@.#8 A@/+a S ) , >+3 +#| o.$+$+$+$+$+$+$+$+$+$+$+$+#+$+$+L. +_+E.L.#+K.F.{+N.$+D.s.a S.; > ) !.1.L+@#m S.##u 1 | : ",
"[ 8.$#%#b = &#*## F+=#: q+2 m -#n c.G.F.$+$+$+$+$+$+$+$+$+$+$+$+$+$+$+$+#++@S+G.G.G.H.N.$+$+&+G.; b > R ( > V@m `@3 Z+e.z.'.F+g+",
"u+& ;#>#,#e+g '#i )#< [ } !#y+l@e.  n.*+#+#+#+#+#+#+#+#+$+#+#+$+#+#+$+#+$+#+#+#+M.#+#+#+#+$+M.L@B i@| s@S t S M@e.e.e.l@~#{#t+[ ",
"f <+]#^#/#M -.(#_#S.g+[ E+M+m >+S o .@)+$+$+$+$+$+$+$+$+$+$+$+$+$+$+$+$+$+$+$+$+$+$+$+$+$+$+$+@+:#D s@X.t } D S ~#-#<#/+m t@A+Q+",
"A.$ # [#}#=.-.|#1#s ,.[ z@5 5 | | [  @P.$+$+$+$+$+$+$+$+$+$+$+$+$+$+$+$+$+$+$+$+$+$+$+$+$+$+#+G.2#j@X.D E f@} M+z.e.e.e.d.s+H+B+",
"v+3#$ 4#5#6#7#8#9#~.R +.- C < D D V K@D.$+#+#+#+#+$+$+$+$+#+#+$+#+#+$+#+$+$+#+$+#+#+$+#+$+$+#+n.)+S D@s@[ H@} '.0#3 e.e.2 M+. + ",
"@ * q B.a#b#c#_ a ; 1 a +.> a 8 ; ~..@F.$+$+$+$+$+$+$+$+$+$+$+$+$+$+$+$+$+$+$+$+$+$+$+$+$+$+L.n.s@#.< G [ E 5 5 R 1 T 3 '.} E D+",
"_ _ 6 5+A V #.- 2.Y 1 ) : ~.~.1., ) ; i.#+$+$+$+$+$+#+#+$+$+$+$+$+$+$+$+$+$+$+$+$+$+$+$+$+#+*+%@b V+- F V E } < X.5 b | | 5 3 D ",
": F D ).A ; ( a b b A Y S.{@u ~.Y a a V.$+$+$+$+$+$+$+#+$+$+#+$+$+$+$+#+$+$+$+$+$+$+$+#+$+L.n.C a.( a 8 B !.5 8 8 8 S a.R D A ( ",
"B 8 : W+( 1+a : : b a u ) u ) ) u ) > .+&+$+$+$+$+$+#+#+$+$+$+$+$+$+$+$+$+$+$+$+$+$+$+$+$+N.{+A V+~.+.2.x.].H ].> F S.b D B ) 1 ",
"n+a +.^.| d#A | S.a a , u Y u > ' u u 1.H.#+#+#+#+#+ +q.S+*+)+I.O.+@J.J.J.O.~+E.#+#+$+#+$+&+p.' ; A ; a 1.e#p ; , A W A > 1 ; > ",
"S #.| a R ( +.Y ( f#Y ~., u {.~.a Y Y A s.o+$+$+$++@V.3.1.g#h#]+i#,+,+,+d+]+.+@+J.$+$+$+#+=+q.) 1.Y a : a [ } $.~.j#k#l#a m#a t ",
"x@8 B D 8 W ; s ^.a ;+~.k.Y ) ) Y 1.u Y n#Q.!+$+!+i.C.> u S b m Z+3 z.'.} g+[ g#H.$+$+$+N.G.; ) ~., ) %.8 o#p#S.; a+$.X@Y.S., ##",
"4 } P+* * p * @.%.T@a ; ) ) ~.u {.Y ~.~.#.n#{+F.G.j.A F D S N+e.e.<#q+q#A++ & A.@@D.M.K+i.c@, u ~.) k.P+D e.l@a 5+} 4 S m Z+l z.",
"q#M++ C+% # f@[ G s r#b+) ) u ~.Y #.Y.u +.u j#(.b 0 V D+D 1 ~#<#e.y+m t@A+f.s#I+# d+n.@+: ; t#a D R 8 J ; e.u#8 m@+ c.>+y+e./+d.",
"z.z@Q+e+<+# r r f@H $.v#~.' ; ; ~.b@; ~.( B ~.' D+V [ p z@F+3 w#x#e.d.s+z@f.f r # y#$ H@* D s B 5 z#z#B < A#} w+B#l@S q+e.e.y+>+",
"G+H+B+A.C#>.# B.f@6 I C : ( D#, Y E#F#G#H#I#| ,.P+G 6 @ [ t+G+z.d.e.n M+J#+ O+f r % Q+* g+8 1 - K#L#M#S f@p+>.b#J#N#F+3 O#e.y+z."};
