/* XPM */
static char * foe3_l_xpm[] = {
"64 64 448 2",
"  	c #647D0F",
". 	c #667D0F",
"+ 	c #647D0D",
"@ 	c #647C0F",
"# 	c #60790C",
"$ 	c #5E770A",
"% 	c #6A8210",
"& 	c #567108",
"* 	c #526D06",
"= 	c #476305",
"- 	c #5C750A",
"; 	c #687F10",
"> 	c #425D04",
", 	c #58700A",
"' 	c #637B0C",
") 	c #637A0C",
"! 	c #62790A",
"~ 	c #5F7608",
"{ 	c #60770B",
"] 	c #60770A",
"^ 	c #5B7408",
"/ 	c #5E750A",
"( 	c #5D760A",
"_ 	c #5D7508",
": 	c #5F770A",
"< 	c #61790C",
"[ 	c #627B0C",
"} 	c #647C0D",
"| 	c #647C0E",
"1 	c #627A0C",
"2 	c #60780A",
"3 	c #5E7608",
"4 	c #61790A",
"5 	c #6B7C23",
"6 	c #8C8C75",
"7 	c #979688",
"8 	c #90907C",
"9 	c #8B8A71",
"0 	c #748037",
"a 	c #64790B",
"b 	c #657A0D",
"c 	c #647B0C",
"d 	c #62790B",
"e 	c #64790C",
"f 	c #61770B",
"g 	c #5F760A",
"h 	c #5C7509",
"i 	c #5B7508",
"j 	c #597308",
"k 	c #5E770B",
"l 	c #5F790C",
"m 	c #627B0E",
"n 	c #637B0D",
"o 	c #647B0D",
"p 	c #61790B",
"q 	c #5F780B",
"r 	c #5A740B",
"s 	c #4D6806",
"t 	c #436104",
"u 	c #5E790D",
"v 	c #516B0A",
"w 	c #4D6707",
"x 	c #61780D",
"y 	c #62790C",
"z 	c #5F7609",
"A 	c #5F7709",
"B 	c #5E7709",
"C 	c #61780B",
"D 	c #60780B",
"E 	c #63790D",
"F 	c #607709",
"G 	c #61780A",
"H 	c #62770A",
"I 	c #687C14",
"J 	c #83865E",
"K 	c #89896E",
"L 	c #8B8A70",
"M 	c #6B7C21",
"N 	c #63780A",
"O 	c #637A0D",
"P 	c #5B7308",
"Q 	c #5D7409",
"R 	c #5D7509",
"S 	c #617A0D",
"T 	c #627B0D",
"U 	c #5E7509",
"V 	c #587108",
"W 	c #4B6606",
"X 	c #456104",
"Y 	c #486506",
"Z 	c #435E04",
"` 	c #61750A",
" .	c #617609",
"..	c #63770B",
"+.	c #607708",
"@.	c #63780B",
"#.	c #60760A",
"$.	c #657A0C",
"%.	c #647810",
"&.	c #6D7F1F",
"*.	c #6E7E27",
"=.	c #667A13",
"-.	c #607808",
";.	c #5F7509",
">.	c #5E7508",
",.	c #5F780A",
"'.	c #60790A",
").	c #4D6A06",
"!.	c #416003",
"~.	c #3C5A02",
"{.	c #577009",
"].	c #607508",
"^.	c #627708",
"/.	c #617608",
"(.	c #62780C",
"_.	c #617508",
":.	c #627709",
"<.	c #65790D",
"[.	c #5E7507",
"}.	c #667B0E",
"|.	c #63770C",
"1.	c #587007",
"2.	c #587008",
"3.	c #5E7308",
"4.	c #65790C",
"5.	c #5D7507",
"6.	c #5F7308",
"7.	c #637709",
"8.	c #627609",
"9.	c #627A0A",
"0.	c #64790A",
"a.	c #65790B",
"b.	c #607909",
"c.	c #B3826D",
"d.	c #926657",
"e.	c #805242",
"f.	c #8D6E63",
"g.	c #627A0B",
"h.	c #A3725F",
"i.	c #896559",
"j.	c #794E41",
"k.	c #906252",
"l.	c #8A5E4E",
"m.	c #8A5D4D",
"n.	c #7B584E",
"o.	c #987B72",
"p.	c #5F7708",
"q.	c #677B0D",
"r.	c #5D7307",
"s.	c #5A7209",
"t.	c #5E780C",
"u.	c #667E0F",
"v.	c #657D0E",
"w.	c #627A0D",
"x.	c #617A0A",
"y.	c #687C0D",
"z.	c #637909",
"A.	c #677C0D",
"B.	c #61780C",
"C.	c #8F604E",
"D.	c #BA8973",
"E.	c #C69378",
"F.	c #AA7A67",
"G.	c #7F5446",
"H.	c #657B0B",
"I.	c #AE806C",
"J.	c #C9957E",
"K.	c #D49F86",
"L.	c #D9A389",
"M.	c #DDA68D",
"N.	c #DEA88E",
"O.	c #DCA58C",
"P.	c #CD9A82",
"Q.	c #BB8974",
"R.	c #A77662",
"S.	c #806259",
"T.	c #966856",
"U.	c #754A3D",
"V.	c #74493C",
"W.	c #5B7409",
"X.	c #5B7509",
"Y.	c #647D0E",
"Z.	c #617509",
"`.	c #677C0E",
" +	c #5C7408",
".+	c #8E5A45",
"++	c #9D705E",
"@+	c #623F37",
"#+	c #6B473D",
"$+	c #E3AA91",
"%+	c #E6AC92",
"&+	c #DFA991",
"*+	c #D49E86",
"=+	c #B8856D",
"-+	c #5C760A",
";+	c #5B342B",
">+	c #522924",
",+	c #C28E77",
"'+	c #E1A78F",
")+	c #C38F79",
"!+	c #855849",
"~+	c #522D26",
"{+	c #9B6C5A",
"]+	c #667D0E",
"^+	c #637809",
"/+	c #647A0A",
"(+	c #5E7708",
"_+	c #597307",
":+	c #5A7308",
"<+	c #55322A",
"[+	c #5E382E",
"}+	c #816963",
"|+	c #697F0F",
"1+	c #546E07",
"2+	c #60790B",
"3+	c #542D24",
"4+	c #5C740B",
"5+	c #5D760B",
"6+	c #486107",
"7+	c #5D7408",
"8+	c #5E7609",
"9+	c #5B7307",
"0+	c #5B750A",
"a+	c #5D3C35",
"b+	c #667A0C",
"c+	c #657C0D",
"d+	c #63770A",
"e+	c #677A0F",
"f+	c #6B810E",
"g+	c #546F08",
"h+	c #506B07",
"i+	c #496407",
"j+	c #5F770C",
"k+	c #556F08",
"l+	c #446205",
"m+	c #526B09",
"n+	c #E1A78E",
"o+	c #647C0C",
"p+	c #677C0F",
"q+	c #667B0D",
"r+	c #5E7408",
"s+	c #5C7508",
"t+	c #5D770A",
"u+	c #607B0D",
"v+	c #627C0D",
"w+	c #667F0F",
"x+	c #657D0F",
"y+	c #60780C",
"z+	c #A68980",
"A+	c #5D770C",
"B+	c #607A0D",
"C+	c #637C0D",
"D+	c #677E0F",
"E+	c #64780B",
"F+	c #6C4236",
"G+	c #D8A286",
"H+	c #5F790D",
"I+	c #627C0E",
"J+	c #617B0C",
"K+	c #5E780B",
"L+	c #5E770C",
"M+	c #5F770B",
"N+	c #5C7609",
"O+	c #617B0D",
"P+	c #657D0D",
"Q+	c #60750A",
"R+	c #62770C",
"S+	c #64780D",
"T+	c #677D0D",
"U+	c #64780C",
"V+	c #607507",
"W+	c #7C392A",
"X+	c #617909",
"Y+	c #637808",
"Z+	c #653A2E",
"`+	c #D19B84",
" @	c #6F4D44",
".@	c #717E31",
"+@	c #73802F",
"@@	c #667911",
"#@	c #7C4534",
"$@	c #6F7E2A",
"%@	c #798341",
"&@	c #747F36",
"*@	c #637A0B",
"=@	c #997567",
"-@	c #4C251B",
";@	c #462119",
">@	c #6E7E25",
",@	c #89896D",
"'@	c #4B2219",
")@	c #4C241B",
"!@	c #4B2119",
"~@	c #657811",
"{@	c #8A896E",
"]@	c #6E7D25",
"^@	c #9B6A4E",
"/@	c #687C13",
"(@	c #6A7C1C",
"_@	c #F1B983",
":@	c #F8BF85",
"<@	c #EDB587",
"[@	c #9F5B45",
"}@	c #D0775D",
"|@	c #E4AC8E",
"1@	c #E8B08A",
"2@	c #607409",
"3@	c #C18B72",
"4@	c #A05E48",
"5@	c #DE7B62",
"6@	c #D2997C",
"7@	c #B3644D",
"8@	c #697D0E",
"9@	c #66790D",
"0@	c #667A0E",
"a@	c #657B0F",
"b@	c #647A0E",
"c@	c #667B0C",
"d@	c #B42C15",
"e@	c #E6290B",
"f@	c #F2290A",
"g@	c #C17258",
"h@	c #5E760A",
"i@	c #62790D",
"j@	c #A32913",
"k@	c #5D750C",
"l@	c #5B740B",
"m@	c #5D750A",
"n@	c #677F0F",
"o@	c #677B0E",
"p@	c #5A730A",
"q@	c #637D0E",
"r@	c #60770C",
"s@	c #61760B",
"t@	c #904431",
"u@	c #5A7408",
"v@	c #597209",
"w@	c #60790D",
"x@	c #657E0C",
"y@	c #617A0C",
"z@	c #5F790B",
"A@	c #9E331F",
"B@	c #B4250E",
"C@	c #D7280C",
"D@	c #EC2A0A",
"E@	c #C32910",
"F@	c #E1A78D",
"G@	c #647B0E",
"H@	c #CF2B10",
"I@	c #642519",
"J@	c #627608",
"K@	c #4F281F",
"L@	c #64392E",
"M@	c #637B0B",
"N@	c #63780D",
"O@	c #C4250D",
"P@	c #5D7407",
"Q@	c #677B0F",
"R@	c #617809",
"S@	c #6B4236",
"T@	c #607809",
"U@	c #687C0E",
"V@	c #667A0D",
"W@	c #697E0F",
"X@	c #6B8010",
"Y@	c #657A0B",
"Z@	c #6F5149",
"`@	c #687D0F",
" #	c #657C0E",
".#	c #677B0C",
"+#	c #627A0E",
"@#	c #677E10",
"##	c #69800E",
"$#	c #5A720A",
"%#	c #526B07",
"&#	c #496306",
"*#	c #395502",
"=#	c #627D0D",
"-#	c #657E0F",
";#	c #637D0F",
">#	c #6D8210",
",#	c #536C05",
"'#	c #677F11",
")#	c #3F5C04",
"!#	c #506B06",
"~#	c #677F10",
"{#	c #5B760B",
"]#	c #4D6706",
"^#	c #506B0A",
"/#	c #496405",
"(#	c #567007",
"_#	c #9C8B87",
":#	c #587209",
"<#	c #496606",
"[#	c #3F5C03",
"}#	c #556F07",
"|#	c #637C0F",
"1#	c #592E23",
"2#	c #59730A",
"3#	c #4E6907",
"4#	c #405E03",
"5#	c #3C5902",
"6#	c #506A06",
"7#	c #597207",
"8#	c #5A7108",
"9#	c #567008",
"0#	c #5C730A",
"a#	c #687B0F",
"b#	c #677A0D",
"c#	c #5E7306",
"d#	c #8B5E4E",
"e#	c #627B0B",
"f#	c #677A0C",
"g#	c #617907",
"h#	c #637B09",
"i#	c #657A0A",
"j#	c #715650",
"k#	c #583A34",
"l#	c #55322C",
"m#	c #687D0E",
"n#	c #68800E",
"o#	c #6A8010",
"p#	c #674B45",
"q#	c #795D57",
"r#	c #627D0E",
"s#	c #697E10",
"t#	c #627A08",
"u#	c #5D770B",
"v#	c #5F7406",
"w#	c #587308",
"x#	c #5C7308",
"y#	c #60780D",
"z#	c #5D740B",
"A#	c #5A7409",
"B#	c #667E10",
"C#	c #667E0C",
"D#	c #647B09",
"E#	c #667E0E",
"F#	c #698011",
"G#	c #607A0C",
"H#	c #496305",
"I#	c #385602",
"J#	c #6D7D2A",
"K#	c #788441",
"L#	c #727F33",
"M#	c #717E2D",
"N#	c #667A11",
"O#	c #5A7307",
"  . . + @ # $ % & * = - ; > , ' ) ! ~ { ] ] ^ / ( _ $ : < [ } | ' 1 # $ $ { 2 3 4 5 6 7 8 9 0 a b c d e d f g _ h i ^ j ( k l m ",
"[ } n o p < q [ r s t u v w x y a ! z f 2 3 A B 3 C D : < y 1 ) 1 E { ] ] F G H b I J K L K M a a N d O a G ] 3 g P Q R ( k { S ",
"y < 1 T D < { U V W X Y Z ` d  . .F ! F ..+.G ] y C ] d d ) @.d f #.] A G ~ @.$.! c %.&.*.=.a $.N $.o N -.;.N 2 H _ >.B ] ,.: 2 ",
"'.E y C @.] ] 2 V ).!.~.{.{ a ].d y p  .^.! /.O y y 4 4 G y < y U e (.C H _.' e a H :.a +.:.N a a +.<.d 4 ! d ] [.+.f y 3 z F 2 ",
"y }.C y y |.d e N ] 1.2.3.4.1 a ! $.F +.! e ;.4.! 5.(.b 2 #.].].6.! d a 7.8.9.) ..a a N ! 4.! a N ! d 2 4 ) N 0.^.+.4 ;.d ) ! F ",
" .E b (.a G e a...c 2 ] _.! 4 b.c.d.e.f.e T g.b c h.i.j.k.k.k.k.k.l.m.f.n.o.p.N a N +.a q.b ! a ! r.s.t.u.v.w.x.p ! _.9.! ].y 4 ",
"! ! y.z.N 4.}.A.a '.4 ;.B.] F C.d.D.E.F.G.H.F.f.j.i.I.J.K.L.M.N.M.O.L.P.Q.R.l.n.S.) N a T.G.U.V.i.W.X.k Y.+ k ( ] N ! $.d ' Z.e ",
"a ! a e `.1 1 N @.H >.Q  +$ .+++F.@+@+R.T.#+l.D.L.$+%+$+$+$+%+%+%+%+$+$+$+$+&+*+D.i.G.m.j.Q.=+c.c.n.4 _ 2 E f ! e e :.|.e p.A.$ ",
"@.:.N a N 9.+._.5._ P W.i -+G.J.;+>+>+>+j.,+'+%+%+%+%+%+%+%+%+%+%+%+%+%+%+%+%+%+$+$+,+@+)+!+~+>+{+F.!+N ! ! ! N e N /.! b q.A.]+",
"] d ^+$.$./+d (+_ _+P j :+- m.,+>+>+<+++M.%+$+$+%+%+%+$+%+%+$+%+%+$+%+%+%+%+$+%+%+$+Q.F.T.>+>+>+[+Q.}+a ! ! N /.$.a :.y ..: D |+",
"] 1+/ d ) b ] 2+R - j V P X.n.J.3+[+D.'+%+%+%+%+%+%+%+%+%+%+%+%+%+%+%+%+%+%+%+%+%+%+K.*+++3+>+>+[+,+e.' a :.~ /./.4.! $.c # 4+5+",
"w.6+7+2 ] F f 8+9+i 0+P ^ ( a+{+@+Q.$+%+%+%+%+%+%+%+%+%+%+%+%+%+%+%+%+%+%+%+%+%+%+%+%+%+%+J.G.>+k.F.T.b+:./.' -.c+b $.d+e+f+g+h+",
"i+P N '.<.^.F { _ 8+P 7+_ ( j+[+c.$+%+%+%+%+%+%+%+%+%+%+%+$+%+$+%+%+%+%+%+%+%+%+%+%+%+%+%+%+'+D.,+l.d ] { z C 2 ' ) o o c c k+l+",
"m+F e 2 q.-.;.F F 3 ] : 3 ] e.d.n+%+%+%+%+%+%+%+$+%+%+%+%+%+%+%+%+%+%+%+%+%+%+%+%+%+$+$+%+%+%+%+c.j.3 < 3 : 8+# n o+]+]+} p+- w ",
"O 8+q+y -.A @.F r+F +.f z 2 V.*+%+%+%+%+%+%+%+%+%+%+%+%+%+%+%+%+%+%+%+%+%+%+%+%+%+%+%+%+%+%+%+%+$+i.G.^ s+t+k u+v+v.w+u.x+]+`.[ ",
"y+] (.C C +.d y ^.a a ~ C G.F.$+%+%+%+%+%+%+%+%+%+%+%+%+%+%+%+%+%+%+%+%+%+%+%+%+%+%+%+%+%+%+%+%+%+*+#+z+- -+A+B+C+]+D+u.u.x+} < ",
"R _ 8+] z d A 4 o+1 :.E+p.F+G+$+%+%+%+%+%+%+%+%+%+%+%+%+%+%+%+%+%+%+%+%+%+%+%+%+%+%+%+%+%+%+%+%+%+$+F.k.^ 0+A+H+I+Y.u.u.w+Y.J+K+",
"L+ +: M+< <.].z 2 d $.$.m.{+$+$+$+%+$+$+%+%+%+%+%+%+$+$+%+%+$+%+%+%+$+$+%+%+$+%+%+$+%+$+%+$+$+%+%+$+*+#+j N+k l O+| P+v.Y.T O+l ",
"$ 8+: 2 +.y F F ! $.$.a F+Q.%+%+%+%+%+%+%+%+%+%+%+%+%+%+%+%+%+%+%+%+%+%+%+%+%+%+%+%+%+%+%+%+%+%+%+%+$+{+h.( # y+# o c n ) o y+y+",
"] ] G +.;.-.a $./.:.a :.F+*+%+%+%+%+%+%+%+%+%+%+%+%+%+%+%+%+%+%+%+%+%+%+%+%+%+%+%+%+%+%+%+%+%+%+%+%+%+J.d.B 2 p 2 y 1 1 2+B.] ] ",
"] ~ d ^.! g.@.a ! a ! N V.M.%+%+%+%+%+%+%+%+$+$+%+%+%+%+%+$+$+%+%+%+%+%+%+%+%+%+%+$+%+%+%+%+%+%+$+$+$+M.!+y 2 F b '.{ 2 C Q+B ' ",
"R++.9.H o H a a :.N :.! !+$+%+%+%+%+%+%+%+%+%+%+%+%+%+%+%+%+%+%+%+%+%+%+%+%+%+%+%+%+%+%+%+%+%+%+%+%+%+$+d.I.d a C S+F y ] e b F ",
"/.E+T+) H ! ^.:.:.a a f.T.%+%+%+%+%+%+$+$+%+%+%+%+%+%+%+%+%+%+%+%+%+$+%+%+%+%+%+%+%+%+%+%+%+%+%+%+%+%+%+F.m.] :.d ].H U+y a :.V+",
"_.$.4 N N ! N a :.:.$.W+h.%+%+%+%+%+'+{+,+'+%+%+%+%+%+%+%+%+%+%+*+I.*+%+%+%+%+%+%+%+%+%+%+%+%+%+%+%+%+%+D.m.O E+:.9.X+Y+0.! 4.4 ",
"e a a r+/.! N +.:.:.Y+Z+R.%+%+%+%+%+$+`+l.Q.%+%+%+%+%+%+%+%+%+L. @I.M.%+%+%+%+%+%+%+%+%+%+%+%+%+%+%+%+%+E.j. .N a ! +.$.! ! 2 F ",
".@+@@@! a ! :./.N 2 @.#@R.%+%+$+%+$+J.)+M.&+$+$+%+%+%+%+%+$+$+$+'+$+$+$+%+%+$+%+%+$+%+%+%+%+%+%+$+$+%+%+J.j.a $.! $.$.N a e $@%@",
"8 9 &@*@$.+.! ! N ! X+=@{+%+%+%+$+D.-@;@d.$+%+%+$+%+%+%+%+%+%+%+M.T.<+d.N.%+%+%+%+%+%+%+%+%+%+%+%+%+%+%+J.j.a a $.A.N +.N >@6 7 ",
"L ,@M d ! ! $.! N A.+.1 !+%+%+%+%+l.'@)@;+L.%+%+J.n+N.M.O.%+%+%+Q.'@'@!@Q.%+%+%+%+%+%+%+%+%+%+%+%+%+%+%+Q.!+:.$./.a N a ! ~@J {@",
"]@=.$.:.a $.a a ].a a !  @N.%+$+$+F.'@'@j.n+$+$+l.k.G.k.,+$+$+%+,+'@)@!@,+%+%+%+%+$+%+%+%+%+%+%+%+%+%+%+I.^@^+! N :.$.H ! /./@(@",
"! :.>.+.+.q.A.:.+.! :.F.G._@:@<@$+N.I.R.K.%+%+%+`+[@}@e.L.%+%+%+n+++U.{+N.$+|@1@1@|@$+%+%+%+%+%+%+%+%+$+T.h.! ! $.N a $.:.y N ! ",
"4.q+2@! N N q+4.:.a a j.3@:@:@:@_@%+%+%+%+%+%+%+K.4@5@4@P.%+%+%+%+$+n+$+%+1@:@:@:@:@_@|@%+%+%+%+%+%+%+M.e.q.N /.N a ! ! $. .N $.",
"d+ .:.r+N 4.$.a :.N a  @6@:@:@:@:@1@%+%+%+%+%+%+G+4@5@7@)+%+%+%+%+%+%+$+1@:@:@:@:@:@:@_@$+%+%+%+%+%+%+)+e.q+/.d ! N :.8@c :.b @.",
"4.E+#.! :.:.:.:.a +.N #+6@:@:@:@:@_@%+%+%+%+%+%+N..+}@[@P.%+%+%+%+%+%+%+_@:@:@:@:@:@:@:@%+%+%+%+%+%+'+!+4@4 4.) '.*@y q+0.9@! 4 ",
"0@a@E+:.2 a a /.A.$.N V.=+:@_@3@R.=+K.$+%+%+$+$+$+)+m.R.'+$+%+$+%+%+%+%+:@:@:@:@:@:@:@:@<@%+%+%+$+$+Q.e.y < ] C o 2 ) o c c b+U+",
"`.b@z y c@q.) a N N A.=@j.6@d@e@f@e@d@)+%+%+%+%+%+$+%+%+%+%+%+%+%+%+%+%+:@:@:@:@:@:@:@:@<@%+%+%+%+`+j.g@h@y+$ { # Y.v.P+T+x+c }.",
"w.: i@(.y a.y #.! :.a :.Z+j@f@f@f@f@f@d@L.%+%+%+%+%+%+%+%+%+%+%+%+%+%+$+_@:@:@:@:@:@:@:@|@%+%+%+*+G..+k@l@m@t+k u+v+Y.n@u.u.} o@",
"D # < y+y f 0.:.@.a q.0.T.e@f@f@f@f@f@e@I.%+%+$+%+%+$+$+%+$+$+%+%+%+$+$+|@:@:@:@:@:@:@<@$+$+'+Q.V.4@0+:+p@W.t+A+B+q@]+u.u.D+x+o ",
"# m@r@h@r@s@G y 4 ! $.! t@f@f@f@f@f@f@e@k.$+%+%+%+%+%+%+%+%+$+D.R.F.P.%+%+%+_@:@:@_@1@%+'+,+m.#+3 m@u@_+v@W.- A+w@I+v.D+u.x@} y@",
"z@j+_ M+M+i@O #.] N a c A@f@f@f@f@f@f@B@A@L.%+%+%+%+%+%+%+L.4@C@f@D@E@R.L.%+%+$+F@*+,+R.#+[+#@y _ _ _+:+P :+-+k l O+| P+. Y.T O+",
"# h@r@y+<.< G@z y $.N F.t@f@f@f@f@f@E@H@I@j.J.N.%+%+%+%+%+R.e@f@f@f@f@C@Z+{+++l.#+<+Z+{+F+y 4 ! 3 3 ] R R m@h@t+y+# T ' 1 e 1 K+",
"] < < ! (.B.) b e d J@a d@C@f@f@f@E@H@d@J.k.K@!+$+%+%+%+O.d@f@f@f@f@f@e@E@j@K@L@{+)+O.$+R.[@M@f @.] C ] B ] >.D ] y 1 1 ) y y : ",
"] y d ..^.d ' N@y H ! a A@t@C@D@E@O@H@D.%+$+*+`+$+%+%+$+P.E@f@f@f@f@f@C@H@E@F.c.$+%+%+$+Q.V.2 ! 4 $.P@H ] ] i@4 ;.2+# ] w.f U ] ",
":.] V+~ y 8.Q@:.b A.q.a ! j@t@j@e@C@R.$+%+%+%+%+%+%+%+%+`+E@f@f@f@f@f@H@C@E@G+$+%+%+%+%+,+3+) ) N z.R@+.4 z 4 2 P R 2 ) { C e ] ",
"4.a.d+X+2 e a q+H e +.4.$.$.#@A@d@h.$+%+O.$+%+%+%+%+%+%+'+A@f@f@f@f@f@H@e@d@M.%+%+%+%+%+D.S@n.2 4.T@z a E+~ +.] G@k U @.r+ .>.d ",
"c+:.a 1 :.$./.c d a U@c ! :.) F+W+;+m.l.Z+O.$+$+%+%+%+%+%+F.e@f@f@f@f@E@D@[@$+%+%+$+%+%+F.c.!+a @.G@p.N V@e o 4 W@X@'.] Y+Y@a ..",
"'.H a a q+X+a o @.$._.b $.! +.N a :.a+Z@F.%+%+%+%+%+%+%+%+O.t@D@f@f@f@E@D@R.%+%+%+%+%+$+G.L.!+D.$.a N :.] / r@~ n@u.] 3.y F ! F ",
"d d *@y ^.b+o@M@! d+`@<.! ! c a $.a :.F+L.$+%+%+$+%+%+%+$+$+*+7@E@e@C@j@H@)+%+%+$+%+$+c.++$+h.T./+0.:.+.G >.R q.W@x+2+>.! y e N ",
"2 1 ' N  #q+. .#E+4.<.a e d q+! $./.a k.%+%+%+%+%+%+%+%+%+%+%+%+`+D.F.V.W+,+`+K.K.J.h.d.n+%+D.n.]+c a o ! |+v@] +#w@] y+i / { ;.",
"8+J+T Y.u.T+} `@. W@e 4 p e ) d $.a G.F.%+%+%+%+%+%+%+%+%+%+%+%+%+%+%+n+)+F.T.!+!+{+E.$+%+%+*+G.@#. | x+2 ##J+j $#%#g ) &#*#2.$ ",
"$ u+=#-#n@u.u.u.G@o O o i@1 c@F ] q+e.=+$+$+$+$+$+$+$+$+%+$+$+%+$+$+%+$+%+$+$+$+$+$+%+$+$+%+N.S@n@D+;## $ { >#& ,#= 0+'#)#!#h t+",
"L+B+q@. |+~#@#-#o y # O B.i@y z.b e W+,+%+%+%+%+%+%+%+%+%+%+%+%+%+%+%+%+%+%+%+%+%+%+%+%+%+%+%+#+z+. O+K+$ 8+q+{#]#X u ^#/#(#:+- ",
"A+H+v+v.u.u.u.Y.O+# h@D y B.b@:.d O W+Q.%+%+%+%+%+%+%+%+%+%+%+%+%+%+%+%+%+%+%+%+%+%+%+%+%+%+$+G._#< < w@$ U G :#<#X Y [#}#j ^ X.",
"k l O+| u.u.} |#T # j+$ i@r@o e ` y 1#D.%+$+$+$+$+%+%+%+%+$+$+%+$+$+%+$+%+%+$+%+$+$+%+$+%+%+$+j.,+{ E f @.p :.2#3#4#5#6#7#^ u@s+",
"y+D # T } n ' p < < D $ B { +.i@O { Z+F.%+%+%+%+%+%+%+%+%+%+%+%+%+%+%+%+%+%+%+%+%+%+%+%+%+%+M.j.] ! e @.! ' d ! 3 8#9#0#W.Q _ ( ",
"y } < 1 1 ) < B.{ # D >.C f R+) a#a#n.d.$+%+%+%+%+%+$+$+%+%+%+%+%+%+%+%+%+%+%+%+%+%+%+%+%+$+=+#@4.:.:.2 a ' $.9.f +.>.H 2+: 3 3 ",
"4 H y p }.o ] ] ] < <.F ] ! 4 }.E }.d+#+$+%+%+%+%+%+%+$+%+%+$+%+%+%+%+$+%+%+%+%+%+%+%+$+%+M.j.^@:.N b#q+$.H ) ) ! 4 d H [.y C 2 ",
"' a F y ) q+C e (.A (.a.9.@.:.R+H o@}.a+`+%+%+%+%+%+$+$+%+%+%+%+%+%+%+%+%+%+%+%+%+%+%+%+%+O.!+N a a N a N ! ) 2 2 ! ^+4 V+2 ] F ",
"e d ' e H ;.H c d R c#4.! d H d b 0@p+ @I.$+$+$+$+$+++m.h.=+,+J.P.`+K.K.K.P.)+E.$+$+%+$+%+*+d#b e N $.N c ! ! q+1 H e#1 /.@.! o+",
"O ! f#! g#h#i#:...# $ ! 2 ! $.4.a q.(.b n.n+%+%+%+`+U.j.@+j#k#~+l#;+;+;+a+~+a+S@K.%+%+%+$+c.m.! :._.N c :.$.m#4 $.@.4 p ! 1 +.o ",
" #c q+A.U@..d+d q+n#o#]  .a c :.a d b +.p#R.'+%+'+d.C.# T Y.} T+. ) o N e 2 e q#I.%+%+%+O.G.4.$.a a $.q.:.`.! /.G d ;.] y F ] y@",
"Y.+ T+. o [ # 2+! n@u.y M+q.a :.N c N _.n p#!+F.G.e.k B+r#x+~#u.u.P+o y C H 2 )  @D.N.G+d..+$._.N :.a a d ! Y@ .#._ R _ _ M+# [ ",
"v.|+u.D+]+w.k m@] s#u.d x ] p y ! t#d 2 _ - P j p@u#t.B+q@. D+u.~#-#' y y+>.~ ) ].a+!+ @!+A.+.$.:.N a a c+v#G B $ h@j i -+k O+r#",
"]+D+u.u.x+o n@w#x## y#{ F z#z#< F G y _ j+^ A#j P - t.w@v+v.u.B#C#} J+w@R $ >.y+b :.F 4 :.d 9@:.d d b :.D#..A h@P P j :+0+L+w@Y.",
"Y.D+u.E#} J+F#G#9#V m+h@o H#I#k@f ' ] 8+_ L+i P - N+k G#O+  u.v.Y.I+u+$ ( : B M+U 1 J#K#L#M#N#$.c :.4 2 E z : h@W.j V O#X.A+H+I+"};
