/* XPM */
static char * foe0_xpm[] = {
"64 64 446 2",
"  	c #627B0E",
". 	c #5F790C",
"+ 	c #5E770B",
"@ 	c #5D760A",
"# 	c #597308",
"$ 	c #5B7408",
"% 	c #5B7508",
"& 	c #5C7509",
"* 	c #5D7508",
"= 	c #5F760A",
"- 	c #61770B",
"; 	c #62790B",
"> 	c #64790C",
", 	c #647B0C",
"' 	c #657A0D",
") 	c #64790B",
"! 	c #748037",
"~ 	c #8B8A71",
"{ 	c #90907C",
"] 	c #979688",
"^ 	c #8C8C75",
"/ 	c #6B7C23",
"( 	c #61790A",
"_ 	c #5E7608",
": 	c #60780A",
"< 	c #60770B",
"[ 	c #5E770A",
"} 	c #60790C",
"| 	c #627A0C",
"1 	c #637B0C",
"2 	c #647C0E",
"3 	c #647C0D",
"4 	c #627B0C",
"5 	c #61790C",
"6 	c #5F770A",
"7 	c #5E750A",
"8 	c #60770A",
"9 	c #5F7608",
"0 	c #62790A",
"a 	c #637A0C",
"b 	c #58700A",
"c 	c #425D04",
"d 	c #687F10",
"e 	c #5C750A",
"f 	c #476305",
"g 	c #526D06",
"h 	c #567108",
"i 	c #6A8210",
"j 	c #647C0F",
"k 	c #647D0D",
"l 	c #667D0F",
"m 	c #647D0F",
"n 	c #617A0D",
"o 	c #5D7509",
"p 	c #5D7409",
"q 	c #5B7308",
"r 	c #61780A",
"s 	c #637A0D",
"t 	c #63780A",
"u 	c #6B7C21",
"v 	c #89896E",
"w 	c #8B8A70",
"x 	c #83865E",
"y 	c #687C14",
"z 	c #62770A",
"A 	c #607709",
"B 	c #63790D",
"C 	c #62790C",
"D 	c #60780B",
"E 	c #61780B",
"F 	c #5E7709",
"G 	c #5F7709",
"H 	c #5F7609",
"I 	c #61780D",
"J 	c #4D6707",
"K 	c #516B0A",
"L 	c #5E790D",
"M 	c #436104",
"N 	c #4D6806",
"O 	c #5A740B",
"P 	c #5F780B",
"Q 	c #61790B",
"R 	c #647B0D",
"S 	c #637B0D",
"T 	c #5F780A",
"U 	c #5E7508",
"V 	c #5F7509",
"W 	c #607808",
"X 	c #657A0C",
"Y 	c #667A13",
"Z 	c #6E7E27",
"` 	c #6D7F1F",
" .	c #647810",
"..	c #63780B",
"+.	c #60760A",
"@.	c #607708",
"#.	c #63770B",
"$.	c #617609",
"%.	c #61750A",
"&.	c #435E04",
"*.	c #486506",
"=.	c #456104",
"-.	c #4B6606",
";.	c #587108",
">.	c #5E7509",
",.	c #627B0D",
"'.	c #5E7507",
").	c #65790D",
"!.	c #627709",
"~.	c #617508",
"{.	c #62780C",
"].	c #617608",
"^.	c #627708",
"/.	c #607508",
"(.	c #577009",
"_.	c #3C5A02",
":.	c #416003",
"<.	c #4D6A06",
"[.	c #60790A",
"}.	c #64790A",
"|.	c #65790C",
"1.	c #627A0A",
"2.	c #627609",
"3.	c #637709",
"4.	c #5F7308",
"5.	c #5D7507",
"6.	c #5E7308",
"7.	c #587008",
"8.	c #587007",
"9.	c #63770C",
"0.	c #667B0E",
"a.	c #617A0A",
"b.	c #627A0D",
"c.	c #657D0E",
"d.	c #667E0F",
"e.	c #5E780C",
"f.	c #5A7209",
"g.	c #5D7307",
"h.	c #677B0D",
"i.	c #5F7708",
"j.	c #987B72",
"k.	c #7B584E",
"l.	c #8D6E63",
"m.	c #8A5D4D",
"n.	c #8A5E4E",
"o.	c #906252",
"p.	c #794E41",
"q.	c #896559",
"r.	c #64790E",
"s.	c #627A0B",
"t.	c #805242",
"u.	c #926657",
"v.	c #607909",
"w.	c #65790B",
"x.	c #617509",
"y.	c #647D0E",
"z.	c #5B7509",
"A.	c #5B7409",
"B.	c #74493C",
"C.	c #754A3D",
"D.	c #7F5446",
"E.	c #806259",
"F.	c #A77662",
"G.	c #BB8974",
"H.	c #CD9A82",
"I.	c #D9A389",
"J.	c #DCA58C",
"K.	c #DDA68D",
"L.	c #DEA88E",
"M.	c #D49F86",
"N.	c #C9957E",
"O.	c #AE806C",
"P.	c #667B0D",
"Q.	c #657B0B",
"R.	c #AA7A67",
"S.	c #C69378",
"T.	c #BA8973",
"U.	c #8F604E",
"V.	c #61780C",
"W.	c #677C0D",
"X.	c #637909",
"Y.	c #687C0D",
"Z.	c #B3826D",
"`.	c #B8856D",
" +	c #D49E86",
".+	c #DFA991",
"++	c #E3AA91",
"@+	c #E6AC92",
"#+	c #6B473D",
"$+	c #966856",
"%+	c #623F37",
"&+	c #9D705E",
"*+	c #5E7609",
"=+	c #5C7408",
"-+	c #677C0E",
";+	c #667D0E",
">+	c #855849",
",+	c #9B6C5A",
"'+	c #522924",
")+	c #522D26",
"!+	c #C38F79",
"~+	c #C28E77",
"{+	c #E1A78F",
"]+	c #5B342B",
"^+	c #5C760A",
"/+	c #697F0F",
"(+	c #816963",
"_+	c #5E382E",
":+	c #55322A",
"<+	c #5A7308",
"[+	c #597307",
"}+	c #5E7708",
"|+	c #647A0A",
"1+	c #637809",
"2+	c #5D760B",
"3+	c #5C740B",
"4+	c #542D24",
"5+	c #60790B",
"6+	c #546E07",
"7+	c #506B07",
"8+	c #546F08",
"9+	c #6B810E",
"0+	c #677A0F",
"a+	c #63770A",
"b+	c #657C0D",
"c+	c #667A0C",
"d+	c #5D3C35",
"e+	c #5B750A",
"f+	c #5B7307",
"g+	c #5D7408",
"h+	c #486107",
"i+	c #446205",
"j+	c #556F08",
"k+	c #5F770C",
"l+	c #496407",
"m+	c #677C0F",
"n+	c #647C0C",
"o+	c #E1A78E",
"p+	c #526B09",
"q+	c #657D0F",
"r+	c #667F0F",
"s+	c #627C0D",
"t+	c #607B0D",
"u+	c #5D770A",
"v+	c #5C7508",
"w+	c #5E7408",
"x+	c #677E0F",
"y+	c #637C0D",
"z+	c #607A0D",
"A+	c #5D770C",
"B+	c #60780C",
"C+	c #5E780B",
"D+	c #617B0C",
"E+	c #627C0E",
"F+	c #5F790D",
"G+	c #D8A286",
"H+	c #6C4236",
"I+	c #64780B",
"J+	c #617B0D",
"K+	c #657D0D",
"L+	c #5C7609",
"M+	c #5F770B",
"N+	c #5E770C",
"O+	c #A3725F",
"P+	c #60750A",
"Q+	c #64780D",
"R+	c #62770C",
"S+	c #607507",
"T+	c #64780C",
"U+	c #617909",
"V+	c #677D0D",
"W+	c #637808",
"X+	c #7C392A",
"Y+	c #6F4D44",
"Z+	c #D19B84",
"`+	c #653A2E",
" @	c #798341",
".@	c #6F7E2A",
"+@	c #7C4534",
"@@	c #667911",
"#@	c #73802F",
"$@	c #717E31",
"%@	c #6E7E25",
"&@	c #472016",
"*@	c #4C241B",
"=@	c #997567",
"-@	c #637A0B",
";@	c #747F36",
">@	c #8A896E",
",@	c #657811",
"'@	c #4B2119",
")@	c #4B2219",
"!@	c #89896D",
"~@	c #6A7C1C",
"{@	c #687C13",
"]@	c #9B6A4E",
"^@	c #6E7D25",
"/@	c #E4AC8E",
"(@	c #E8B08A",
"_@	c #D0775D",
":@	c #9F5B45",
"<@	c #EDB587",
"[@	c #F8BF85",
"}@	c #F1B983",
"|@	c #A05E48",
"1@	c #DE7B62",
"2@	c #C18B72",
"3@	c #607409",
"4@	c #697D0E",
"5@	c #B3644D",
"6@	c #D2997C",
"7@	c #66790D",
"8@	c #8E5A45",
"9@	c #657B0F",
"0@	c #667A0E",
"a@	c #5E760A",
"b@	c #C17258",
"c@	c #EAB180",
"d@	c #667B0C",
"e@	c #647A0E",
"f@	c #677B0E",
"g@	c #677F0F",
"h@	c #5D750A",
"i@	c #5B740B",
"j@	c #5D750C",
"k@	c #CF2B10",
"l@	c #F2290A",
"m@	c #D7280C",
"n@	c #9E331F",
"o@	c #62790D",
"p@	c #637D0E",
"q@	c #5A730A",
"r@	c #E1A78D",
"s@	c #EC2A0A",
"t@	c #904431",
"u@	c #617A0C",
"v@	c #657E0C",
"w@	c #60790D",
"x@	c #597209",
"y@	c #5A7408",
"z@	c #B42C15",
"A@	c #61760B",
"B@	c #60770C",
"C@	c #9E2310",
"D@	c #E6290B",
"E@	c #5F790B",
"F@	c #592E23",
"G@	c #6B4236",
"H@	c #C32910",
"I@	c #647B0E",
"J@	c #637B0B",
"K@	c #4F281F",
"L@	c #B4250E",
"M@	c #627608",
"N@	c #5D7407",
"O@	c #63780D",
"P@	c #617809",
"Q@	c #A32913",
"R@	c #677B0F",
"S@	c #607809",
"T@	c #657A0B",
"U@	c #6B8010",
"V@	c #697E0F",
"W@	c #667A0D",
"X@	c #687C0E",
"Y@	c #55322B",
"Z@	c #7B2314",
"`@	c #687D0F",
" #	c #627A0E",
".#	c #677B0C",
"+#	c #657C0E",
"@#	c #395502",
"##	c #496306",
"$#	c #526B07",
"%#	c #5A720A",
"&#	c #69800E",
"*#	c #677E10",
"=#	c #506B06",
"-#	c #3F5C04",
";#	c #677F11",
">#	c #536C05",
",#	c #6D8210",
"'#	c #637D0F",
")#	c #657E0F",
"!#	c #627D0D",
"~#	c #567007",
"{#	c #496405",
"]#	c #506B0A",
"^#	c #4D6706",
"/#	c #5B760B",
"(#	c #A68980",
"_#	c #677F10",
":#	c #556F07",
"<#	c #3F5C03",
"[#	c #496606",
"}#	c #587209",
"|#	c #9C8B87",
"1#	c #597207",
"2#	c #506A06",
"3#	c #3C5902",
"4#	c #405E03",
"5#	c #4E6907",
"6#	c #59730A",
"7#	c #637C0F",
"8#	c #5C730A",
"9#	c #567008",
"0#	c #5A7108",
"a#	c #687B0F",
"b#	c #677A0D",
"c#	c #627B0B",
"d#	c #5E7306",
"e#	c #687D0E",
"f#	c #55322C",
"g#	c #583A34",
"h#	c #715650",
"i#	c #657A0A",
"j#	c #637B09",
"k#	c #617907",
"l#	c #677A0C",
"m#	c #674B45",
"n#	c #6A8010",
"o#	c #68800E",
"p#	c #627D0E",
"q#	c #5F7406",
"r#	c #5D770B",
"s#	c #627A08",
"t#	c #697E10",
"u#	c #647B09",
"v#	c #667E0C",
"w#	c #667E10",
"x#	c #5A7409",
"y#	c #5D740B",
"z#	c #60780D",
"A#	c #5C7308",
"B#	c #587308",
"C#	c #5A7307",
"D#	c #667A11",
"E#	c #717E2D",
"F#	c #727F33",
"G#	c #788441",
"H#	c #6D7D2A",
"I#	c #607A0C",
"J#	c #385602",
"K#	c #496305",
"L#	c #698011",
"M#	c #667E0E",
"  . + @ # $ % & * = - ; > ; , ' ) ! ~ { ] ^ / ( _ : < [ [ } | 1 2 3 4 5 6 [ * @ 7 $ 8 8 < 9 0 a 1 b c d e f g h i [ } j k l l m ",
"n < + @ o p q = _ 8 r ) s ; t ) ) u v w v x y ' z r A 8 8 < B | a | C 5 6 D E _ F G _ : - H 0 ) C I J K L M N O 4 P 5 Q R S 3 4 ",
": 6 T 8 F U * z : t V W t R X t X ) Y Z `  ., 0 X ..9 r G 8 +.- ; ..a ; ; 8 E C 8 r @.#.A 0 A $.$.; %.&.*.=.-.;.>.< 5 D ,.| 5 C ",
": A H _ C - @.'.8 ; 0 ( ; ).@.) ) t !.@.) !.z ) > 1 ~.z E {.> >.C 5 C r ( ( C C s ].0 ^.$.Q C ; /.) < (._.:.<.;.: 8 8 ..E C B [.",
"A 0 a ; V ( @.^.}.t a ( : ; 0 t ) 0 |.0 t ) ) #.a 1.2.3.) ; 0 4././.+.: ' {.5.0 |.V > 0 @.A X 0 ) | |.6.7.8.8 t > ; 9.C C E 0.C ",
"( C /.0 1.~.0 Q a.b.c.d.e.f.g.0 ) 0 ' h.) @.t ) t i.j.k.l.m.n.o.o.o.o.o.p.q.r., ' s.,.> t t.u.1.v.( 0 ~.8 : , #.w.> r ) {.' B $.",
"> x.1 ; X 0 t 8 @ + k y.+ z.A.q.B.C.D.) ) t a E.k.n.F.G.H.I.J.K.L.K.I.M.N.O.q.p.l.P.Q.D.R.S.T.u.U.A 8 V.V ( [.) W.0.|.t X.Y.0 0 ",
"[ W.i.> 9.!.> > 0 - B : * ( k.Z.Z.`.G.p.m.D.q.T. +.+++++++++@+@+@+@+++++++@+++I.T.n.#+$+F.%+%+R.&+*+[ =+p U z ..t | | -+> ) 0 ) ",
";+W.h.' 0 ].t > t 0 0 0 t >+R.,+'+)+>+!+%+~+++++@+@+@+@+@+@+@+@+@+@+@+@+@+@+@+@+@+{+~+p.'+'+'+]+N.D.^+% A.q * 5.~.@.1.t ) t !...",
"/+D 6 #.C !.) X ].t 0 0 ) (+G._+'+'+'+$+R.G.++@+@+++@+@+@+@+++@+@+++@+@+++@+@+@+++++@+K.&+:+'+'+~+m.e <+# q [+* }+; |+X X 1+; 8 ",
"2+3+} , X 0 |.].].9 !.) 1 t.~+_+'+'+4+&+ +M.@+@+@+@+@+@+@+@+@+@+@+@+@+@+@+@+@+@+@+@+@+@+{+T._+4+N.k.z.q ;.# e o 5+8 ' a ; 7 6+8 ",
"7+8+9+0+a+X ' b+W 1 ].!.c+$+R.o.'+D.N.@+@+@+@+@+@+@+@+@+@+@+@+@+@+@+@+@+@+@+@+@+@+@+@+@+@+++G.%+,+d+@ $ q e+% f+*+- A 8 : g+h+b.",
"i+j+, , R R a 1 : E H < 8 ; n.~+T.{+@+@+@+@+@+@+@+@+@+@+@+@+@+@+++@+++@+@+@+@+@+@+@+@+@+@+@+++Z._+k+@ * g+q *+* < A ^.).[.t q l+",
"J e m+3 ;+;+n+S } *+6 _ 5 _ p.Z.@+@+@+@+++++@+@+@+@+@+@+@+@+@+@+@+@+@+@+@+@+@+++@+@+@+@+@+@+@+o+u.t.8 _ 6 8 _ A A V W h.: > A p+",
"4 -+;+q+d.r+c.s+t++ u+v+$ D.q.++@+@+@+@+@+@+@+@+@+@+@+@+@+@+@+@+@+@+@+@+@+@+@+@+@+@+@+@+@+@+@+@+ +B.: H - @.A w+A ..G W C P.*+s ",
"5 3 q+d.d.x+;+y+z+A+^+e # #+ +@+@+@+@+@+@+@+@+@+@+@+@+@+@+@+@+@+@+@+@+@+@+@+@+@+@+@+@+@+@+@+@+@+++R.D.E 9 ) ) ^.C ; @.E E {.8 B+",
"C+D+y.r+d.d.y.E+F+A+e+$ o.R.++@+@+@+@+@+@+@+@+@+@+@+@+@+@+@+@+@+@+@+@+@+@+@+@+@+@+@+@+@+@+@+@+@+++G+H+i.I+!.| n+( G ; H 8 *+* o ",
". J+,.y.c.K+2 J+. + L+# #+ +++@+@+++++@+++@+++@+@+++@+@+++++@+@+@+++@+@+++++@+@+@+@+@+@+++++@+++++++,+) X X ; : H /.).5 M+6 =+N+",
"B+B+R a S , R } B+} @ O+,+++@+@+@+@+@+@+@+@+@+@+@+@+@+@+@+@+@+@+@+@+@+@+@+@+@+@+@+@+@+@+@+@+@+@+@+@+G.H+) X X 0 A A C @.: 6 *+[ ",
"8 8 V.5+| | C : Q : F u.N.@+@+@+@+@+@+@+@+@+@+@+@+@+@+@+@+@+@+@+@+@+@+@+@+@+@+@+@+@+@+@+@+@+@+@+@+@+ +H+!.) !.].X ) W V @.r 8 8 ",
"1 F P+E : < [.' A : C >+K.++++++@+@+@+@+@+@+++@+@+@+@+@+@+@+@+@+@+++++@+@+@+@+@+++++@+@+@+@+@+@+@+@+K.B.t 0 ) 0 ) ..s.0 ^.; 9 8 ",
"A ' > 8 C A Q+E ) ; ; u.++@+@+@+@+@+@+@+@+@+@+@+@+@+@+@+@+@+@+@+@+@+@+@+@+@+@+@+@+@+@+@+@+@+@+@+@+@+++>+0 !.t !.) ) z R z 1.@.R+",
"S+!.) C T+z /.; !.8 U+R.@+@+@+@+@+@+@+@+@+@+@+@+@+@+@+@+@+++@+@+@+@+@+@+@+@+@+@+@+@+@+++++@+@+@+@+@+@+$+l.) ) !.!.^.0 z a V+I+].",
"( |.0 }.W+U+1.!.I+s m.T.@+@+@+@+@+@+@+@+@+@+@+@+@+@+@+@+@+ +O. +@+@+@+@+@+@+@+@+@+@+{+~+,+{+@+@+@+@+@+O+X+X !.!.) t 0 t t ( X ~.",
"A : 0 0 X @.0 ) t $.p.S.@+@+@+@+@+@+@+@+@+@+@+@+@+@+@+@+@+K.O.Y+I.@+@+@+@+@+@+@+@+@+G.n.Z+++@+@+@+@+@+F.`+W+!.!.@.t 0 ].w+) ) > ",
" @.@> ) t X X 0 X ) p.N.@+@+++++@+@+@+@+@+@+++@+@+++@+@+++++++{+++++++@+@+@+@+@+++++.+K.!+N.++@+++@+@+F.+@..: t ].!.0 ) 0 @@#@$@",
"] ^ %@t @.t W.X ) ) p.N.@+@+@+@+@+@+@+@+@+@+@+@+@+@+@+L.u.:+$+K.@+@+@+@+@+@+@+++@+@+++u.&@*@T.++@+@+@+,+=@U+0 t 0 0 @.X -@;@~ { ",
">@x ,@0 ) t ) ].X !.>+G.@+@+@+@+@+@+@+@+@+@+@+@+@+@+@+G.'@)@)@G.@+@+@+J.K.L.o+N.@+@+I.]+*@)@n.@+@+@+@+>+| @.W.t 0 X 0 0 ; u !@w ",
"~@{@].0 z X !.t 0 1+]@O.@+@+@+@+@+@+@+@+@+@+++@+@+@+@+~+'@*@)@~+@+++++~+o.D.o.n.++++o+p.)@)@R.++++@+L.Y+0 ) ) /.) ) X ) !.X Y ^@",
"0 t C !.X ) t X 0 0 X $+++@+@+@+@+@+@+@+@+++/@(@(@/@++L.,+C.&+o+@+@+@+I.t._@:@Z+@+@+@+M.F.O.L.++<@[@}@D.t !.0 @.!.W.h.@.@.U !.0 ",
"X t $.X 0 0 ) t ].t h.t.K.@+@+@+@+@+@+@+/@}@[@[@[@[@(@@+++o+++@+@+@+@+H.|@1@|@M.@+@+@+@+@+@+@+}@[@[@[@2@p.) ) !.|.P.t t 0 3@P.|.",
"..' !., 4@!.t 0 ; ].P.t.!+@+@+@+@+@+@+++}@[@[@[@[@[@[@(@++@+@+@+@+@+@+!+5@1@|@G+@+@+@+@+@+@+(@[@[@[@[@6@E.) t !.) X |.t w+!.$.a+",
"( 0 7@}.P.C -@[.a |.( ) >+{+@+@+@+@+@+@+[@[@[@[@[@[@[@}@@+@+@+@+@+@+@+H.:@_@8@L.@+@+@+@+@+@+}@[@[@[@[@6@E.t @.) !.!.!.!.0 +.I+|.",
"T+c+, , R a : R E 8 5 C t.G.++++@+@+@+<@[@[@[@[@[@[@[@[@@+@+@+@+++@+++{+F.m.!+++++++@+@+@+@+}@[@[@[@[@`.B.t X W.].) ) : !.I+9@0@",
"0., q+V+K+c.y.} < [ B+a@U p.Z+@+@+@+@+<@[@[@[@[@[@[@[@[@@+@+@+@+@+@+@+@+@+@+++@+@+@+@+@+@+++6@`.b@S.c@p.!.W.t t ) a h.d@C H e@-+",
"f@3 d.d.g@y.s+t++ u+h@i@j@* t. +@+@+@+/@[@[@[@[@[@[@[@}@++@+@+@+@+@+@+@+@+@+@+@+@+@+@+@+{+F.k@l@l@m@n@`+!.) !.0 +.C w.C {.o@6 b.",
"R q+x+d.d.;+p@z+A+u+A.q@<+e++.B.G.{+++++<@[@[@[@[@[@[@r@N.!+I.@+@+++++@+++++@+@+++@+@+@+G.m@l@l@l@l@s@t@}.h.) ..!.}.- C B+5 } D ",
"u@3 v@d.x+c.E+w@A+e A.x@[+y@h@_ #+>+~+{+@+(@}@[@[@<@2@z@m@m@z@Z.@+@+@+@+@+@+@+@+@+@+++J.t@s@l@l@l@l@l@k@0 X 0 ( C r A@B@a@B@h@} ",
"J+,.y.l K+2 J+. + ^+<+q <+[+* * C +@_+#+F.~+ +I.I.Z.k@l@l@l@l@k@G.@+@+@+@+@+@+@+@+@+J.,+C@D@l@l@l@l@l@D@, ) t 8 +.s o@M+M+* k+E@",
"C+| > | 1 ,.} B+u+a@h@o o 8 _ _ 0 ( C H+,+`+F@_+`+C@l@l@l@l@l@l@5@{+@+@+@+@+@+@+J.$+G@F@H@H@l@l@l@l@l@D@R.t X C H I@5 ).B+B@a@} ",
"6 C C a | | C 8 D U 8 F 8 E 8 ..- J@:@F.++J.`.K@L@L@l@l@l@l@l@l@H@J.@+@+@+@+@+@+J.O+O.Z+z@L@D@l@l@l@l@k@) M@; > ' a V.{.0 5 5 8 ",
"8 >.- b.8 } 5+V ( o@8 8 z N@X ( 0 : B.G.++++R.o.k@k@m@l@l@l@l@l@k@I.@+@+++@+@+++++@+++@+F.D@L@l@l@l@s@n@) 0 z C O@1 ; ^.#.; C 8 ",
"8 > E < a : o q : ( H ( @.P@X.t a a 4+~+@+@+I.J.z@D@L@l@l@l@l@l@z@J.@+@+@+@+@+@+@+@+@+@+Z+H@k@H@l@s@Q@0 ) h.W.' !.R@2.C 9 S+8 !.",
"; U $.w+..>.+ I@8 @.9 I+) H S@|.: k.G@T.@+@+@+@+|@s@L@l@l@l@l@l@:@++@+@+@+@+@+@+@+@+++I.++R.D@k@Q@X+X X |.@.> z P.) > : U+a+w.|.",
"#.) T@W+8 [.U@V@( R > W@t i.I@..) >+Z.R.@+@+++++2@m@H@D@l@l@l@H@G.++++@+@+@+@+@+++++J.G@O.`.X+z@B.a !.0 , X@) ; , ].X !.| ) !.b+",
"A 0 A C 6.8 d.g@9 B@7 8 !.t ) X ) >+M.D.++@+@+@+o+:@m@k@l@l@k@Z.@+@+@+@+@+@+@+@+@+@+@+R.Y@)+!.) t @.0 X ' ~.X ..R ) U+P.) ) z [.",
"t > C 0 U 5+q+V@h.o U r @.!.}.|+$+O+++&+O.++@+++++Z.H@Z@:@b@N.++++@+++@+++@+@+++@+@+++I.H+!.) X ) , 0 0 ).`@a+0 J@f@c+^.C -@; ; ",
"V < 7 % B+8 w@ #8 x@/+0 R ) , ;+k.T.@+J.>+R.I.++K.S._+&+K.@+@+++@+@+@+@+@+@+@+@+@+@+@+@+o.) ].X 0 P.; > ) ).|.I+.#l P.+#t 1 | : ",
"[ 7.@###a = $#%## D+&#: q+2 l *#D. +@+@+J.O.D.D.D.O+Z+++@+@+@+@+@+@+@+@+@+@+@+@+@+@+@+@+R.D.) X ; a > Q ( > V@l `@3 V+d.y.,.D+*+",
"u+& =#-#;#e+f >#h ,#< [ } '#x+g@G@L.@+++++++++L.++++++@+++@+++++@+++++@+++++++++++++++++`.p.P.8 A d@| o@R s R I@d.d.d.g@)#!#t+[ ",
"e <+~#{#]#L =.^#/#P.*+[ C+J+l (##+@+@+@+@+@+@+@+@+@+@+@+@+@+@+@+@+@+@+@+@+@+@+@+@+@+@+@+~+`+> ' X.C o@V.s } C R )#*#_#/+l p@z+N+",
"z.$ # :#<#*.=.[#}#r >.[ w@5 5 |#D.++@+@+@+@+@+@+@+@+@+@+@+@+@+@+@+@+@+@+@+@+@+@+@+@+@+@+G.X+s ; !.e@V.C D a@} J+y.d.d.d.c.s+F+A+",
"v+y@$ 1#2#3#4#5#6#!.Q ..- B < ~+p.++@+@+++@+++++@+++@+@+++@+++++@+++++@+@+@+@+++++++++@+T.F@C %.> R B@o@[ k+} ,.7#3 d.d.2 J+. + ",
"@ * p A.8#9#0#_ 0 ; 1 0 ..> 0 8 p.K.@+@+@+@+@+@+@+@+@+@+@+@+@+@+@+@+@+@+@+@+@+@+@+@+@+@+R.`+< s o@@.< F [ D 5 5 Q 1 S 3 ,.} D B+",
"_ _ 6 5+z U @.- 1.X 1 ) : !.!.|.+@`.++@+@+@+@+@+@+@+@+@+@+@+@+@+@+@+@+@+++++@+@+@+@+@+++u.C a#a#a R+- E U D } < V.5 a | | 5 3 C ",
": E C '.z ; ( 0 a a z X P.b#t !.X p.K.@+++@+@+@+@+@+@+@+++@+@+@+@+++@+@+++@+@+@+@+@+@+@+C.a+0.B 0.( 0 8 A ).5 8 8 8 R 0.Q C z ( ",
"A 8 : S+( 1+0 : : a 0 t ) t ) ) t >+J.@+@+@+@+@+@+@+@+@+@+@+@+@+@+@+@+@+++++@+@+@+@+@+ +%+0.f@z R+!...1.w.{.G {.> E P.a C A ) 1 ",
"n+0 ..].| c#z | P.0 0 , t X t > ' n. +@+++@+++++S.!+H.M.M.M.Z+H.N.~+`.O+m.&+++++++++++O.{.m+0@' ; z ; 0 |.d#o ; , z V z > 1 ; > ",
"R @.| 0 Q ( ..X ( e#X !., t ~.!.0 m.Z.++@+@+@+M.#+%+)+d+]+]+]+f#)+g#h#( 5 C.Z+@+@+@+o+k.' {.h.) |.X 0 : 0 [ } #.!.i#j#k#0 l#0 s ",
"u@8 A C 8 V ; r ].0 -+!.h.X ) ) X |.D.J.@+@+@+O.h#> : > t R a l V+3 y.,.} U.u.{+@+{+F.m#@.' ; ) !., ) $.8 n#o#P.; a+#.X@W.P., +#",
"4 } M+* * o * +.$.T@0 ; ) ) !.t ~.X 8@u.G+L.T.Y+a : z E C R K+d.d._#q+p#z++ t.D.R.>+m#S ~.t , t !.) h.M+C d.g@0 5+} 4 R l V+k y.",
"p#J++ ^+% # a@[ F r q#b+) ) t !.X @.W.t #+p.d+/.a 9 U B+C 1 )#_#d.x+l p@z+e.r#q@# q e * : ; s#0 C Q 8 I ; d.t#8 h@+ b.;+x+d./+c.",
"y.w@N+e+<+# q q a@G #.u#!.' ; ; !.7@; !.( A !.' B+U [ o w@D+3 v#w#d.c.s+w@e.e q # x#$ k+* C r A 5 y#y#A < z#} A#B#g@R q+d.d.x+;+",
"E+F+A+z.C#;.# A.a@6 H B : ( !., X D#E#F#G#H#| >.M+F 6 @ [ t+E+y.c.d.m J+I#+ L+e q % N+* *+8 1 - j@J#K#R a@p+;.9#I#L#D+3 M#d.x+y."};
