/* XPM */
static char * grass_xpm[] = {
"64 64 422 2",
"  	c #627B0E",
". 	c #5F790C",
"+ 	c #5E770B",
"@ 	c #5D760A",
"# 	c #597308",
"$ 	c #5B7408",
"% 	c #5B7508",
"& 	c #5C7509",
"* 	c #5D7508",
"= 	c #5F760A",
"- 	c #61770B",
"; 	c #62790B",
"> 	c #64790C",
", 	c #647B0C",
"' 	c #657A0D",
") 	c #64790B",
"! 	c #748037",
"~ 	c #8B8A71",
"{ 	c #90907C",
"] 	c #979688",
"^ 	c #8C8C75",
"/ 	c #6B7C23",
"( 	c #61790A",
"_ 	c #5E7608",
": 	c #60780A",
"< 	c #60770B",
"[ 	c #5E770A",
"} 	c #60790C",
"| 	c #627A0C",
"1 	c #637B0C",
"2 	c #647C0E",
"3 	c #647C0D",
"4 	c #627B0C",
"5 	c #61790C",
"6 	c #5F770A",
"7 	c #5E750A",
"8 	c #60770A",
"9 	c #5F7608",
"0 	c #62790A",
"a 	c #637A0C",
"b 	c #58700A",
"c 	c #425D04",
"d 	c #687F10",
"e 	c #5C750A",
"f 	c #476305",
"g 	c #526D06",
"h 	c #567108",
"i 	c #6A8210",
"j 	c #647C0F",
"k 	c #647D0D",
"l 	c #667D0F",
"m 	c #647D0F",
"n 	c #617A0D",
"o 	c #5D7509",
"p 	c #5D7409",
"q 	c #5B7308",
"r 	c #61780A",
"s 	c #637A0D",
"t 	c #63780A",
"u 	c #6B7C21",
"v 	c #89896E",
"w 	c #8B8A70",
"x 	c #83865E",
"y 	c #687C14",
"z 	c #62770A",
"A 	c #607709",
"B 	c #63790D",
"C 	c #62790C",
"D 	c #60780B",
"E 	c #61780B",
"F 	c #5E7709",
"G 	c #5F7709",
"H 	c #5F7609",
"I 	c #61780D",
"J 	c #4D6707",
"K 	c #516B0A",
"L 	c #5E790D",
"M 	c #436104",
"N 	c #4D6806",
"O 	c #5A740B",
"P 	c #5F780B",
"Q 	c #61790B",
"R 	c #647B0D",
"S 	c #637B0D",
"T 	c #5F780A",
"U 	c #5E7508",
"V 	c #5F7509",
"W 	c #607808",
"X 	c #657A0C",
"Y 	c #667A13",
"Z 	c #6E7E27",
"` 	c #6D7F1F",
" .	c #647810",
"..	c #63780B",
"+.	c #60760A",
"@.	c #607708",
"#.	c #63770B",
"$.	c #617609",
"%.	c #61750A",
"&.	c #435E04",
"*.	c #486506",
"=.	c #456104",
"-.	c #4B6606",
";.	c #587108",
">.	c #5E7509",
",.	c #627B0D",
"'.	c #5E7507",
").	c #65790D",
"!.	c #627709",
"~.	c #617508",
"{.	c #62780C",
"].	c #617608",
"^.	c #627708",
"/.	c #607508",
"(.	c #577009",
"_.	c #3C5A02",
":.	c #416003",
"<.	c #4D6A06",
"[.	c #60790A",
"}.	c #64790A",
"|.	c #65790C",
"1.	c #627A0A",
"2.	c #627609",
"3.	c #637709",
"4.	c #5F7308",
"5.	c #5D7507",
"6.	c #5E7308",
"7.	c #587008",
"8.	c #587007",
"9.	c #63770C",
"0.	c #667B0E",
"a.	c #617A0A",
"b.	c #627A0D",
"c.	c #657D0E",
"d.	c #667E0F",
"e.	c #5E780C",
"f.	c #5A7209",
"g.	c #5D7307",
"h.	c #677B0D",
"i.	c #5F7708",
"j.	c #677B0C",
"k.	c #617509",
"l.	c #64790E",
"m.	c #627A0B",
"n.	c #607909",
"o.	c #65790B",
"p.	c #647D0E",
"q.	c #5B7509",
"r.	c #5B7409",
"s.	c #647A0E",
"t.	c #64780C",
"u.	c #667B0D",
"v.	c #657B0B",
"w.	c #637A0B",
"x.	c #61780C",
"y.	c #677C0D",
"z.	c #637909",
"A.	c #687C0D",
"B.	c #627B0B",
"C.	c #627509",
"D.	c #62790D",
"E.	c #647B0E",
"F.	c #657D0D",
"G.	c #5E7609",
"H.	c #5C7408",
"I.	c #677C0E",
"J.	c #667D0E",
"K.	c #677B0E",
"L.	c #617607",
"M.	c #667F0F",
"N.	c #627C0D",
"O.	c #607B0D",
"P.	c #5C760A",
"Q.	c #697F0F",
"R.	c #5E760A",
"S.	c #657E0F",
"T.	c #677E0F",
"U.	c #637C0D",
"V.	c #607A0D",
"W.	c #5D770C",
"X.	c #5A7308",
"Y.	c #597307",
"Z.	c #5E7708",
"`.	c #647A0A",
" +	c #637809",
".+	c #5D760B",
"++	c #5C740B",
"@+	c #667A0D",
"#+	c #60790D",
"$+	c #657E0C",
"%+	c #667E10",
"&+	c #5F790D",
"*+	c #5D770B",
"=+	c #60790B",
"-+	c #546E07",
";+	c #506B07",
">+	c #546F08",
",+	c #6B810E",
"'+	c #677A0F",
")+	c #63770A",
"!+	c #657C0D",
"~+	c #667A0C",
"{+	c #667B0C",
"]+	c #60780C",
"^+	c #627C0F",
"/+	c #617B0D",
"(+	c #5B750A",
"_+	c #5B7307",
":+	c #5D7408",
"<+	c #486107",
"[+	c #446205",
"}+	c #556F08",
"|+	c #5D7609",
"1+	c #5F760D",
"2+	c #5F780C",
"3+	c #61790D",
"4+	c #5F770C",
"5+	c #496407",
"6+	c #677C0F",
"7+	c #647C0C",
"8+	c #647909",
"9+	c #677F0F",
"0+	c #5A7409",
"a+	c #58730A",
"b+	c #60770C",
"c+	c #60740B",
"d+	c #5D750C",
"e+	c #60780D",
"f+	c #5F760B",
"g+	c #526B09",
"h+	c #657D0F",
"i+	c #5D770A",
"j+	c #5C7508",
"k+	c #5C7308",
"l+	c #657A0F",
"m+	c #65790E",
"n+	c #62760F",
"o+	c #5E7408",
"p+	c #5A720A",
"q+	c #627B09",
"r+	c #5B760A",
"s+	c #5E770C",
"t+	c #607809",
"u+	c #667A0F",
"v+	c #62770C",
"w+	c #667B10",
"x+	c #63770F",
"y+	c #61750C",
"z+	c #62770E",
"A+	c #5E780B",
"B+	c #617B0C",
"C+	c #627C0E",
"D+	c #5A730A",
"E+	c #61770F",
"F+	c #61780F",
"G+	c #667A11",
"H+	c #63760D",
"I+	c #61740B",
"J+	c #64780B",
"K+	c #5C7609",
"L+	c #68800E",
"M+	c #688010",
"N+	c #64780F",
"O+	c #687B13",
"P+	c #627810",
"Q+	c #657811",
"R+	c #62760A",
"S+	c #637808",
"T+	c #637B0B",
"U+	c #5F770B",
"V+	c #5C7307",
"W+	c #5D750A",
"X+	c #617909",
"Y+	c #647811",
"Z+	c #627A0E",
"`+	c #5D7407",
" @	c #63780D",
".@	c #657910",
"+@	c #62760D",
"@@	c #60750A",
"#@	c #5B7007",
"$@	c #466005",
"%@	c #435F04",
"&@	c #546D08",
"*@	c #697D0F",
"=@	c #677B0F",
"-@	c #687C13",
";@	c #64780D",
">@	c #657C0E",
",@	c #425D03",
"'@	c #627A0F",
")@	c #486505",
"!@	c #546D06",
"~@	c #6D8310",
"{@	c #63780F",
"]@	c #677A0D",
"^@	c #687D0E",
"/@	c #607507",
"(@	c #576F0A",
"_@	c #4D6709",
":@	c #5C750C",
"<@	c #466205",
"[@	c #5E760D",
"}@	c #5D760D",
"|@	c #5E740C",
"1@	c #657A0A",
"2@	c #687D0F",
"3@	c #677D0D",
"4@	c #4B6405",
"5@	c #446005",
"6@	c #426003",
"7@	c #4A6605",
"8@	c #667E0E",
"9@	c #59720A",
"0@	c #617809",
"a@	c #516D07",
"b@	c #798341",
"c@	c #6F7E2A",
"d@	c #667911",
"e@	c #73802F",
"f@	c #717E31",
"g@	c #6E7E25",
"h@	c #747F36",
"i@	c #8A896E",
"j@	c #89896D",
"k@	c #6A7C1C",
"l@	c #6E7D25",
"m@	c #627608",
"n@	c #697D0E",
"o@	c #607409",
"p@	c #66790D",
"q@	c #697E0F",
"r@	c #65790A",
"s@	c #657B0F",
"t@	c #667A0E",
"u@	c #597209",
"v@	c #65770C",
"w@	c #657A0B",
"x@	c #5B740B",
"y@	c #5D7608",
"z@	c #5F790B",
"A@	c #5E790C",
"B@	c #637D0E",
"C@	c #617A0C",
"D@	c #5A7408",
"E@	c #61760B",
"F@	c #677F11",
"G@	c #5C760B",
"H@	c #637708",
"I@	c #5F780D",
"J@	c #5F790A",
"K@	c #6B8010",
"L@	c #687C0E",
"M@	c #5D7209",
"N@	c #556E08",
"O@	c #617B0B",
"P@	c #677A0C",
"Q@	c #486205",
"R@	c #4F6A06",
"S@	c #395502",
"T@	c #496306",
"U@	c #526B07",
"V@	c #69800E",
"W@	c #677E10",
"X@	c #5C720A",
"Y@	c #4A6507",
"Z@	c #546F09",
"`@	c #506B06",
" #	c #3F5C04",
".#	c #536C05",
"+#	c #6D8210",
"@#	c #637D0F",
"##	c #687B0D",
"$#	c #546D0B",
"%#	c #4D6807",
"&#	c #58720A",
"*#	c #627D0D",
"=#	c #567007",
"-#	c #496405",
";#	c #506B0A",
">#	c #4D6706",
",#	c #5B760B",
"'#	c #587106",
")#	c #677F10",
"!#	c #556F07",
"~#	c #3F5C03",
"{#	c #496606",
"]#	c #587209",
"^#	c #697E10",
"/#	c #597207",
"(#	c #506A06",
"_#	c #3C5902",
":#	c #405E03",
"<#	c #4E6907",
"[#	c #59730A",
"}#	c #637C0F",
"|#	c #5C730A",
"1#	c #567008",
"2#	c #5A7108",
"3#	c #687B0F",
"4#	c #667C0C",
"5#	c #67790D",
"6#	c #5E7306",
"7#	c #637B09",
"8#	c #617907",
"9#	c #6A8010",
"0#	c #627D0E",
"a#	c #5F7406",
"b#	c #627A08",
"c#	c #647B09",
"d#	c #667E0C",
"e#	c #5D740B",
"f#	c #587308",
"g#	c #5A7307",
"h#	c #717E2D",
"i#	c #727F33",
"j#	c #788441",
"k#	c #6D7D2A",
"l#	c #607A0C",
"m#	c #385602",
"n#	c #496305",
"o#	c #698011",
"  . + @ # $ % & * = - ; > ; , ' ) ! ~ { ] ^ / ( _ : < [ [ } | 1 2 3 4 5 6 [ * @ 7 $ 8 8 < 9 0 a 1 b c d e f g h i [ } j k l l m ",
"n < + @ o p q = _ 8 r ) s ; t ) ) u v w v x y ' z r A 8 8 < B | a | C 5 6 D E _ F G _ : - H 0 ) C I J K L M N O 4 P 5 Q R S 3 4 ",
": 6 T 8 F U * z : t V W t R X t X ) Y Z `  ., 0 X ..9 r G 8 +.- ; ..a ; ; 8 E C 8 r @.#.A 0 A $.$.; %.&.*.=.-.;.>.< 5 D ,.| 5 C ",
": A H _ C - @.'.8 ; 0 ( ; ).@.) ) t !.@.) !.z ) > 1 ~.z E {.> >.C 5 C r ( ( C C s ].0 ^.$.Q C ; /.) < (._.:.<.;.: 8 8 ..E C B [.",
"A 0 a ; V ( @.^.}.t a ( : ; 0 t ) 0 |.0 t ) ) #.a 1.2.3.) ; 0 4././.+.: ' {.5.0 |.V > 0 @.A X 0 ) | |.6.7.8.8 t > ; 9.C C E 0.C ",
"( C /.0 1.~.0 Q a.b.c.d.e.f.g.0 ) 0 ' h.) @.t ) t i.0 !.i.j.j.@.@.U W |.k.G l., ' m.,.> t ; > 1.n.( 0 ~.8 : , #.o.> r ) {.' B $.",
"> k.1 ; X 0 t 8 @ + k p.+ q.r.$.) ) h.) ) t a @.!.t 0 ).S ; ' X 0 R z |.s.U +.B t.u.v.a w.; a | ; A 8 x.V ( [.) y.0.|.t z.A.0 0 ",
"[ y.i.> 9.!.> > 0 - B : * ( r B.0 t y.X ) ; X X ' $.0 X 0 A ) ) ].u.: > z C.G D.R E., c.F.3 k S } G.[ H.p U z ..t | | I.> ) 0 ) ",
"J.y.h.' 0 ].t > t 0 0 0 t u.@.!.X h.u.X X h.A ) t ~.X !.K.y.) ) ) 9.C L.A A {.x.S E.J.d.d.M.p.N.O.+ P.% r.q * 5.~.@.1.t ) t !...",
"Q.D 6 #.C !.) X ].t 0 0 ) ~.) t t ].) X 0 X u.) @.!.> t @.; !.@.0.h.^.V 4.U A R.D 3 S.T.d.d l U.V.W.e X.# q Y.* Z.; `.X X  +; 8 ",
".+++} , X 0 |.].].9 !.) 1 ..a , ) @+) , !.t ) t 0 ) 0 X z t |.t 0.s r H +.F G.o #+,.p.$+%+d.c.N.&+*+q.q ;.# e o =+8 ' a ; 7 -+8 ",
";+>+,+'+)+X ' !+W 1 ].!.~+) t : o.) X !.' )+0 X {+E.R : %.> 0.|.a 9.r 6 ]+6 * ++. O.^+m c.F.m /+. R.@ $ q (+% _+G.- A 8 : :+<+b.",
"[+}+, , R R a 1 : E H < 8 ; > t 0 > 0 0 1 : E.l d.p.} |+++>.U 0 8 U [.y._ C 1+2+]+3+b.s 2 1 ,.} [ 4+@ * :+q G.* < A ^.).[.t q 5+",
"J e 6+3 J.J.7+S } G.6 _ 5 _ z ; 8+, /.{.7 [ ,.d.9+d./+*+0+a+q = ].> @.b+u.)+c+d+e+e+f+2+| C s =+Q G 8 _ 6 8 _ A A V W h.: > A g+",
"4 I.J.h+d.M.c.N.O.+ i+j+$ k+* 6 ].0 [.C [ 4+. 2 c.b.W.@ r.(+$ < {.= X ; C l+m+n+b+6 B B 5 < [.: U 8 : H - @.A o+A ..G W C u.G.s ",
"5 3 h+d.d.T.J.U.V.W.P.e # p+$ R.=+z q+: 8 G.]+=+5 r+s+F 8 * 6 t t+~.9.u+v+w+x+y+D.z+9.V ' A : r ) , m+E 9 ) ) ^.C ; @.E E {.8 ]+",
"A+B+p.M.d.d.p.C+&+W.(+$ D+# X.+ :+8 !.: A )+D.{.R.h+T.- {.A 0 i.t t 6+E+F+G+H+I+8 C ' #.k.> 8 9 !.$.0 i.J+!.| 7+( G ; H 8 G.* o ",
". /+,.p.c.F.2 /+. + K+# q X.Y.* * C 8 u.C A #.- o+L+M+C U 8 C X V B N+z+O+P+Q+v+x.R+t S+S+0 T+X ~.t+( ) X X ; : H /.).5 U+6 H.s+",
"]+]+R a S , R } ]+} @ V+6 W+b+8 G.E X+Q R H r < < d.J.@.< 8 V )+- m+N+Y+Q+ .9.9.C ; X !.0 a t ].].t+/.$.) X X 0 A A C @.: 6 G.[ ",
"8 8 x.=+| | C : Q : F : 6 G.8 a C s.9 0 v+H * G [ Z+| `+$ 3 R B  @.@Y+G++@N+B t I.) !.0 !.0 y.].0 !.X ].!.) !.].X ) W V @.r 8 8 ",
"1 F @@E : < [.' A : C E C R z #.J.0 s | #@$@%@D.8 &@p+;.c.*@{.=@w+Q+Y+-@N+B )+u.) , , !.u.$.X X !.0 X ~.t 0 ) 0 ) ..m.0 ^.; 9 8 ",
"A ' > 8 C A ;@E ) ; ; 8 ( X ) S+t ; >@!+..W+,@'@[ )@!@r+~@' B ]+N+{@u+v+{.t h.~+t X ) ) ]@^@) X ) h.) !.0 !.t !.) ) z R z 1.@.v+",
"/@!.) C t.z /.; !.8 X+w.J+) ; , t ( ' 0 ].) (@_@:@<@N #+T.d.p./+[@}@|@x.z )+0 h.) 0 ~.1@2@{+a 1 : 8 t @.X ) ) !.!.^.0 z a 3@J+].",
"( |.0 }.S+X+1.!.J+s a ) !.) t+; > ) !.) X ) 0 4@5@6@7@.+8@d d.O.:@9@;.W+, v.0 , ].; : ; R 8@k /+|+o >.t 0@X !.!.) t 0 t t ( X ~.",
"A : 0 0 X @.0 ) t $./.8 !.t X X , ) )+z , !.| W+&.f a@W.2 h+j #+W.f.q H.G > 1 ; 8 >.D ,.d.9+d.O.*+# # o : S+!.!.@.t 0 ].o+) ) > ",
"b@c@> ) t X X 0 X ) )+) y.' y.].0 ) t 0 ; 0 X : V+* R.]+C b.b.]+b+:+R.8 G !+; A 8 * [ n S J.R #+& Y.q $ U ..: t ].!.0 ) 0 d@e@f@",
"] ^ g@t @.t y.X ) ) u.t !.!.0 0 ) !.X ) X !.y.t ; ) )+9.b+v+8 x.: E r }.[.!.t ; r 8 6 P | S 5 } * _ * U H X+0 t 0 0 @.X w.h@~ { ",
"i@x Q+0 ) t ) ].X !.]@) !.X 0 t !.) , X X X ) ].Q t ) +.R v+A 8 r ) u.t @.t h.X ; z X 8 $.A [.8 ( H 0 S+| @.y.t 0 X 0 0 ; u j@w ",
"k@-@].0 z X !.t 0  +].X ) t !.t ) X ) ) h.!.) 0 z !.@.|.z t ) ) 1 ].) ) X , ].u.; X ) z t z a a i.) !.].0 ) ) /.) ) X ) !.X Y l@",
"0 t C !.X ) t X 0 0 X !.) ) ) t o+t X X !.^@X |.X C C 0 |.) !.0 ) ].t 0 0 ) ].0 t t ].) ) |.) u.( !.!.) t !.0 @.!.y.h.@.@.U !.0 ",
"X t $.X 0 0 ) t ].t h.X !.) t X t ) X !.) ) X ) !.0 u.y.t t ) 0 m@0 @.)+~.t > !.n@X ) y.X ~.0 X t ~.0 X ].) ) !.|.u.t t 0 o@u.|.",
"..' !., n@!.t 0 ; ].u.a > , u., @.!.0 !.) t X ) ) t |.!.].) ) X }.].) z @.) t 0 t t X 0 t ) t ) ) t 0 0 0 ) t !.) X |.t o+!.$.)+",
"( 0 p@}.u.C w.[.a |.( ) q@)+; t t ].)+r@A h., B.C z t !.!.@.0 0 ) 0 0 |.0 )+u.) u.*@) u.!.X 0 X |.u.) X !.t @.) !.!.!.!.0 +.J+|.",
"t.~+, , R a : R E 8 5 C : r X !.$.].A ; R d.c.C [ W+:+].U X !.!.@.z ) ) ~+t ) ) 0 0 0 ) C ' ) u.t !.].t ) t X y.].) ) : !.J+s@t@",
"0., h+3@F.c.p.} < [ ]+R.U - 8 n.A 6 [ /+d.T.d.O.P.r.u@@ : ) !.) !.].!.) ) X z ) X t ~.v@X t u.0 !.) w@) !.y.t t ) a h.{+C H s.I.",
"K.3 d.d.9+p.N.O.+ i+W+x@d+* ]+6._ y@[ z@2 J.R A@@ X.$ * {.S ].2.!.*@}.t w@z W ; ].) a X : , ) X t X ) u.!.) !.0 +.C o.C {.D.6 b.",
"R h+T.d.d.J.B@V.W.i+r.D+X.(++.6 )+A G.6 D | r 6 y@* * >.z ( 0 0 I.) , !+!+C | | 8 ]+- X t h.0 !.0 X h.t }.h.) ..!.}.- C ]+5 } D ",
"C@3 $+d.T.c.C+#+W.e r.u@Y.D@W+_ 6 ( A 5 $.A : 8 B C ].@.: ( 8 9 1 R >@k T.F.,.=+i+q W+6 = 0 {+) , t y.X 0 X 0 ( C r E@b+R.b+W+} ",
"/+,.p.l F.2 /+. + P.X.q X.Y.* * C 8 u.} !.)+( ~.: > z ~.X+C : p } !+S.F@9+l ,.A@G@% # q |+5 ; H@t ) X X , ) t 8 +.s D.U+U+* 4+z@",
"A+| > | 1 ,.} ]+i+R.W+o o 8 _ _ 0 ( C r t t X ~.m.( | @.{.6 F @ P N.J.d.d.h+  I@*+r.u@u@X.j+V ) 0 !+) !.) t X C H E.5 ).]+b+R.} ",
"6 C C a | | C 8 D U 8 F 8 E 8 ..- T+X ( X t 0 ].t ( A z = R.F @ } ,.2 h+d.m O.+ @ X.X.$ q R.C ' | | t !.) m@; > ' a x.{.0 5 5 8 ",
"8 >.- b.8 } =+V ( D.8 8 z `+X ( 0 : ; D.@.].t !.h.; : ' r 8 6 [ [ 5 ' 2 p.| 5 P F >.o o < _ ..) ; | ) , ) 0 z C  @1 ; ^.#.; C 8 ",
"8 > E < a : o q : ( H ( @.0@z.t a a 5 X u.) ) ) t ~.t 0 A t ; > 5 Q D =+C R.J@8 : [.8 E 8 C C ; : Q ) 0 ) h.y.' !.=@2.C 9 /@8 !.",
"; U $.o+..>.+ E.8 @.9 J+) H t+|.: X > X 0 X !.) }.t t 0 !.@.X 8 C 8 ).8 : W+0 W i.8 : ; !.!.a ; A @.X X |.@.> z u.) > : X+)+o.|.",
"#.) w@S+8 [.K@q@( R > @+t i.E...) !.a u.u.0 ) t !.0 u.) 0 9 ) h.C ..).z = k , > Q | )+0 !.) ) u.y.a !.0 , L@) ; , ].X !.| ) !.!+",
"A 0 A C 6.8 d.9+9 b+7 8 !.t ) X ) ) h.!.) ) t !.!.) !.t ) X u.!.C ) X |.:+L+: 4+: ) 0 ) a 1 !.) t @.0 X ' ~.X ..R ) X+u.) ) z [.",
"t > C 0 U =+h+q@h.o U r @.!.}.`.W @.3@; a 0 u.0 X t !.t h., X !.C !.M@N@G :@W+D [.z ) ) ) !.) X ) , 0 0 ).2@)+0 T+K.~+^.C w.; ; ",
"V < 7 % ]+8 #+Z+8 u@Q.0 R ) , J.3 O@| D Q n.P@) ; o.]@0 0 @.!.@.' 0 @@Q@,.R@>+K@: X |.t X ) ].X 0 u.; > ) ).|.J+j.l u.>@t 1 | : ",
"[ 7.S@T@a = U@p+# B+V@: h+2 l W@m b.s+u@X@< R+W , ) X t X C , ].C A 8 ++Y@[+Z@(+W+9 t 0 0 ) ) X ; a > Q ( > q@l 2@3 3@d.p.,.B+G.",
"i+& `@ #F@(+f .#h +#< [ } @#T.9+d.  s+q.# D+.+##' ^@u.t > 0 C ' Q 8 o n $#%#&#$ q > | X 0 t u.8 A {+| D.R s R E.d.d.d.9+S.*#O.[ ",
"e X.=#-#;#L =.>#,#u.G.[ A+/+l J.R n + % X.'#:+U : t h.) V ) ' ].C @.U = B =+Q ; ; i.( !.0 ) > ' z.C D.x.s } C R S.W@)#Q.l B@V.s+",
"q.$ # !#~#*.=.{#]#r >.[ #+5 5 | | [ * [ 6 * R.t a ; X 0 !.) ) 2.h.) ; : K.( D ^#m s+$ |.0 X s ; !.s.x.C D R.} /+p.d.d.d.c.N.&+W.",
"j+D@$ /#(#_#:#<#[#!.Q ..- B < C C U A C 8 ; )+W A ].0 t X t 0 X !.> C ) !+).2+k 2 e.$ @@A , C %.> R b+D.[ 4+} ,.}#3 d.d.2 /+. + ",
"@ * p r.|#1#2#_ 0 ; 1 0 ..> 0 8 ; !.: ( @.) 0 @.!.) t X t X t ) X |.!.) ; A z E C E ..].; C < s D.@.< F [ D 5 5 Q 1 S 3 ,.} D ]+",
"_ _ 6 =+z U @.- 1.X 1 ) : !.!.|., ) ; ~.u.0 0 !.!.X @.y.t X t X ].y.t A ' X z n@^@t t |., C 3#3#a v+- E U D } < x.5 a | | 5 3 C ",
": E C '.z ; ( 0 a a z X u.]@t !.X 0 0 X t ].t 0.)+) h.t y.!.) !.) 0 ' ) !.t ' I.t y.u.> 0.)+0.B 0.( 0 8 A ).5 8 8 8 R 0.Q C z ( ",
"A 8 : /@(  +0 : : a 0 t ) t ) ) t ) > 0 X t !.) X ) 0 o+@./.t t 3@) U ) ' A X ) H E@]@B R 0.K.z v+!...1.o.{.G {.> E u.a C A ) 1 ",
"7+0 ..].| B.z | u.0 0 , t X t > ' t t |.$., ].) 0 u...^@!.4#, |.P@C z 0 C ( 5#( t 0.J+C {.6+t@' ; z ; 0 |.6#o ; , z V z > 1 ; > ",
"R @.| 0 Q ( ..X ( ^@X !., t ~.!.0 X X z ) !.!.' ; |.2.2.|.J+v., !+1 a ( 5 : 9.v+C B D.C ' {.h.) |.X 0 : 0 [ } #.!.1@7#8#0 P@0 s ",
"C@8 A C 8 V ; r ].0 I.!.h.X ) ) X |.t X ].) : !.0 > : > t R a l 3@3 p.,.} G.[ 4+b+]+D.> @.' ; ) !., ) $.8 9#L+u.; )+#.L@y.u., >@",
"4 } U+* * o * +.$.w@0 ; ) ) !.t ~.X !.!.@.8 ( }.a : z E C R F.d.d.)#h+0#V.+ & q.x@W+4+S ~.t , t !.) h.U+C d.9+0 =+} 4 R l 3@k p.",
"0#/++ P.% # R.[ F r a#!+) ) t !.X @.y.t ..t 1@/.a 9 U ]+C 1 S.)#d.T.l B@V.e.*+D+# q e * : ; b#0 C Q 8 I ; d.^#8 W++ b.J.T.d.Q.c.",
"p.#+s+(+X.# q q R.G #.c#!.' ; ; !.p@; !.( A !.' ]+U [ o #+B+3 d#%+d.c.N.#+e.e q # 0+$ 4+* C r A 5 e#e#A < e+} k+f#9+R h+d.d.T.J.",
"C+&+W.q.g#;.# r.R.6 H B : ( !., X G+h#i#j#k#| >.U+F 6 @ [ O.C+p.c.d.m /+l#+ K+e q % s+* G.8 1 - d+m#n#R R.g+;.1#l#o#B+3 8@d.T.p."};
