/* XPM */
static char * item2_xpm[] = {
"64 64 523 2",
"  	c #627B0E",
". 	c #5F790C",
"+ 	c #5E770B",
"@ 	c #5D760A",
"# 	c #597308",
"$ 	c #5B7408",
"% 	c #5B7508",
"& 	c #5C7509",
"* 	c #5D7508",
"= 	c #5F760A",
"- 	c #61770B",
"; 	c #62790B",
"> 	c #64790C",
", 	c #647B0C",
"' 	c #657A0D",
") 	c #64790B",
"! 	c #748037",
"~ 	c #8B8A71",
"{ 	c #90907C",
"] 	c #979688",
"^ 	c #8C8C75",
"/ 	c #6B7C23",
"( 	c #61790A",
"_ 	c #5E7608",
": 	c #60780A",
"< 	c #60770B",
"[ 	c #5E770A",
"} 	c #60790C",
"| 	c #627A0C",
"1 	c #637B0C",
"2 	c #647C0E",
"3 	c #647C0D",
"4 	c #627B0C",
"5 	c #61790C",
"6 	c #5F770A",
"7 	c #5E750A",
"8 	c #60770A",
"9 	c #5F7608",
"0 	c #62790A",
"a 	c #637A0C",
"b 	c #58700A",
"c 	c #425D04",
"d 	c #687F10",
"e 	c #5C750A",
"f 	c #476305",
"g 	c #526D06",
"h 	c #567108",
"i 	c #6A8210",
"j 	c #647C0F",
"k 	c #647D0D",
"l 	c #667D0F",
"m 	c #647D0F",
"n 	c #617A0D",
"o 	c #5D7509",
"p 	c #5D7409",
"q 	c #5B7308",
"r 	c #61780A",
"s 	c #637A0D",
"t 	c #63780A",
"u 	c #6B7C21",
"v 	c #89896E",
"w 	c #8B8A70",
"x 	c #83865E",
"y 	c #687C14",
"z 	c #62770A",
"A 	c #607709",
"B 	c #63790D",
"C 	c #62790C",
"D 	c #60780B",
"E 	c #61780B",
"F 	c #5E7709",
"G 	c #5F7709",
"H 	c #5F7609",
"I 	c #61780D",
"J 	c #4D6707",
"K 	c #516B0A",
"L 	c #5E790D",
"M 	c #436104",
"N 	c #4D6806",
"O 	c #5A740B",
"P 	c #5F780B",
"Q 	c #61790B",
"R 	c #647B0D",
"S 	c #637B0D",
"T 	c #5F780A",
"U 	c #5E7508",
"V 	c #5F7509",
"W 	c #607808",
"X 	c #657A0C",
"Y 	c #667A13",
"Z 	c #6E7E27",
"` 	c #6D7F1F",
" .	c #647810",
"..	c #63780B",
"+.	c #60760A",
"@.	c #607708",
"#.	c #63770B",
"$.	c #617609",
"%.	c #61750A",
"&.	c #435E04",
"*.	c #486506",
"=.	c #456104",
"-.	c #4B6606",
";.	c #587108",
">.	c #5E7509",
",.	c #627B0D",
"'.	c #5E7507",
").	c #65790D",
"!.	c #627709",
"~.	c #617508",
"{.	c #62780C",
"].	c #617608",
"^.	c #627708",
"/.	c #607508",
"(.	c #577009",
"_.	c #3C5A02",
":.	c #416003",
"<.	c #4D6A06",
"[.	c #60790A",
"}.	c #64790A",
"|.	c #65790C",
"1.	c #627A0A",
"2.	c #627609",
"3.	c #637709",
"4.	c #5F7308",
"5.	c #5D7507",
"6.	c #5E7308",
"7.	c #587008",
"8.	c #587007",
"9.	c #63770C",
"0.	c #667B0E",
"a.	c #617A0A",
"b.	c #627A0D",
"c.	c #657D0E",
"d.	c #667E0F",
"e.	c #5E780C",
"f.	c #5A7209",
"g.	c #5D7307",
"h.	c #677B0D",
"i.	c #5F7708",
"j.	c #677B0C",
"k.	c #617509",
"l.	c #64790E",
"m.	c #627A0B",
"n.	c #607909",
"o.	c #65790B",
"p.	c #647D0E",
"q.	c #5B7509",
"r.	c #5B7409",
"s.	c #647A0E",
"t.	c #64780C",
"u.	c #667B0D",
"v.	c #657B0B",
"w.	c #637A0B",
"x.	c #61780C",
"y.	c #677C0D",
"z.	c #637909",
"A.	c #687C0D",
"B.	c #627B0B",
"C.	c #627509",
"D.	c #62790D",
"E.	c #647B0E",
"F.	c #657D0D",
"G.	c #5E7609",
"H.	c #5C7408",
"I.	c #677C0E",
"J.	c #667D0E",
"K.	c #677B0E",
"L.	c #617607",
"M.	c #667F0F",
"N.	c #627C0D",
"O.	c #607B0D",
"P.	c #5C760A",
"Q.	c #697F0F",
"R.	c #5E760A",
"S.	c #657E0F",
"T.	c #677E0F",
"U.	c #637C0D",
"V.	c #607A0D",
"W.	c #5D770C",
"X.	c #5A7308",
"Y.	c #597307",
"Z.	c #5E7708",
"`.	c #647A0A",
" +	c #637809",
".+	c #5D760B",
"++	c #5C740B",
"@+	c #667A0D",
"#+	c #60790D",
"$+	c #657E0C",
"%+	c #667E10",
"&+	c #5F790D",
"*+	c #5D770B",
"=+	c #60790B",
"-+	c #546E07",
";+	c #506B07",
">+	c #546F08",
",+	c #6B810E",
"'+	c #677A0F",
")+	c #63770A",
"!+	c #657C0D",
"~+	c #667A0C",
"{+	c #667B0C",
"]+	c #60780C",
"^+	c #627C0F",
"/+	c #617B0D",
"(+	c #5B750A",
"_+	c #5B7307",
":+	c #5D7408",
"<+	c #486107",
"[+	c #446205",
"}+	c #556F08",
"|+	c #5D7609",
"1+	c #5F760D",
"2+	c #5F780C",
"3+	c #61790D",
"4+	c #5F770C",
"5+	c #496407",
"6+	c #677C0F",
"7+	c #647C0C",
"8+	c #647909",
"9+	c #677F0F",
"0+	c #5A7409",
"a+	c #58730A",
"b+	c #60770C",
"c+	c #60740B",
"d+	c #5D750C",
"e+	c #60780D",
"f+	c #5F760B",
"g+	c #526B09",
"h+	c #657D0F",
"i+	c #5D770A",
"j+	c #5C7508",
"k+	c #5C7308",
"l+	c #657A0F",
"m+	c #65790E",
"n+	c #62760F",
"o+	c #5E7408",
"p+	c #5A720A",
"q+	c #627B09",
"r+	c #5B760A",
"s+	c #5E770C",
"t+	c #607809",
"u+	c #667A0F",
"v+	c #62770C",
"w+	c #667B10",
"x+	c #63770F",
"y+	c #61750C",
"z+	c #62770E",
"A+	c #5E780B",
"B+	c #617B0C",
"C+	c #627C0E",
"D+	c #5A730A",
"E+	c #61770F",
"F+	c #61780F",
"G+	c #667A11",
"H+	c #63760D",
"I+	c #61740B",
"J+	c #64780B",
"K+	c #5C7609",
"L+	c #68800E",
"M+	c #688010",
"N+	c #64780F",
"O+	c #687B13",
"P+	c #627810",
"Q+	c #657811",
"R+	c #62760A",
"S+	c #637808",
"T+	c #637B0B",
"U+	c #5F770B",
"V+	c #5C7307",
"W+	c #5D750A",
"X+	c #617909",
"Y+	c #FFCA94",
"Z+	c #FFCA93",
"`+	c #FFCE9B",
" @	c #627A0E",
".@	c #5D7407",
"+@	c #FFC88E",
"@@	c #FFC58A",
"#@	c #FFBF82",
"$@	c #FFB37B",
"%@	c #FFC487",
"&@	c #60750A",
"*@	c #5B7007",
"=@	c #466005",
"-@	c #435F04",
";@	c #546D08",
">@	c #FFAE79",
",@	c #FFA873",
"'@	c #FF9A6B",
")@	c #FF9363",
"!@	c #FFB35B",
"~@	c #FFC35C",
"{@	c #64780D",
"]@	c #657C0E",
"^@	c #425D03",
"/@	c #627A0F",
"(@	c #FFC68A",
"_@	c #FF7353",
":@	c #FF8E52",
"<@	c #FFB151",
"[@	c #FFD655",
"}@	c #FFEC52",
"|@	c #FFEE5C",
"1@	c #FFF57C",
"2@	c #677A0D",
"3@	c #687D0E",
"4@	c #607507",
"5@	c #576F0A",
"6@	c #FF8A5F",
"7@	c #FF6649",
"8@	c #FF6B46",
"9@	c #FFF463",
"0@	c #FFF88C",
"a@	c #FFF893",
"b@	c #FFF699",
"c@	c #657A0A",
"d@	c #687D0F",
"e@	c #677D0D",
"f@	c #FFA372",
"g@	c #FF6C50",
"h@	c #FF6042",
"i@	c #FF7A4D",
"j@	c #FF9D4B",
"k@	c #FFF45B",
"l@	c #FEEB77",
"m@	c #FEEA8C",
"n@	c #FFED92",
"o@	c #667E0E",
"p@	c #617809",
"q@	c #FF6B4C",
"r@	c #FF834E",
"s@	c #FFDA58",
"t@	c #F9DC79",
"u@	c #FCAA69",
"v@	c #FF9C63",
"w@	c #FFE58A",
"x@	c #FFA167",
"y@	c #FFDF8A",
"z@	c #FFF7A2",
"A@	c #798341",
"B@	c #6F7E2A",
"C@	c #FFC473",
"D@	c #FFCD7C",
"E@	c #FFCC84",
"F@	c #FDAA6C",
"G@	c #FF724B",
"H@	c #FF9453",
"I@	c #FFCD5A",
"J@	c #FFF575",
"K@	c #FFF684",
"L@	c #FF7D58",
"M@	c #FF7A55",
"N@	c #FFF89A",
"O@	c #FFB672",
"P@	c #FF5D42",
"Q@	c #667911",
"R@	c #73802F",
"S@	c #717E31",
"T@	c #6E7E25",
"U@	c #FFBA73",
"V@	c #FFD487",
"W@	c #FDBE6A",
"X@	c #FF8B4D",
"Y@	c #FCA954",
"Z@	c #FFDA83",
"`@	c #FFF594",
" #	c #FFBC7A",
".#	c #747F36",
"+#	c #8A896E",
"@#	c #FFCA75",
"##	c #FFB35A",
"$#	c #FFE354",
"%#	c #FFF452",
"&#	c #FF8454",
"*#	c #89896D",
"=#	c #6A7C1C",
"-#	c #687C13",
";#	c #FFD17E",
">#	c #FF5442",
",#	c #FFC956",
"'#	c #FFBD57",
")#	c #FFF6AB",
"!#	c #6E7D25",
"~#	c #FDAD62",
"{#	c #FCB66D",
"]#	c #FFC47C",
"^#	c #DC893D",
"/#	c #F09C4B",
"(#	c #FF9B55",
"_#	c #FFAC59",
":#	c #FFF56E",
"<#	c #FD955A",
"[#	c #607409",
"}#	c #697D0E",
"|#	c #DF8F46",
"1#	c #E79B53",
"2#	c #FCE785",
"3#	c #FFC37C",
"4#	c #FFA46B",
"5#	c #66790D",
"6#	c #697E0F",
"7#	c #65790A",
"8#	c #E89646",
"9#	c #FEDA83",
"0#	c #FFF58A",
"a#	c #FFBD7B",
"b#	c #FFF7A3",
"c#	c #FEE592",
"d#	c #F2B856",
"e#	c #FEE668",
"f#	c #FFC84D",
"g#	c #FCB34E",
"h#	c #FBE99A",
"i#	c #657B0F",
"j#	c #667A0E",
"k#	c #597209",
"l#	c #F5C974",
"m#	c #FFD16B",
"n#	c #FFC655",
"o#	c #FBEAA7",
"p#	c #657A0B",
"q#	c #5B740B",
"r#	c #5D7608",
"s#	c #5F790B",
"t#	c #5E790C",
"u#	c #FFF7AD",
"v#	c #697D0F",
"w#	c #F8E29D",
"x#	c #F3B374",
"y#	c #F9AA58",
"z#	c #F1AC4D",
"A#	c #F9D776",
"B#	c #637D0E",
"C#	c #F4D38D",
"D#	c #F6A04B",
"E#	c #FFD05C",
"F#	c #617A0C",
"G#	c #5A7408",
"H#	c #FFF8AB",
"I#	c #61760B",
"J#	c #677F11",
"K#	c #5C760B",
"L#	c #E5A464",
"M#	c #FEDF8A",
"N#	c #5F780D",
"O#	c #627608",
"P#	c #63780D",
"Q#	c #5F790A",
"R#	c #677B0F",
"S#	c #6B8010",
"T#	c #687C0E",
"U#	c #5D7209",
"V#	c #556E08",
"W#	c #5C750C",
"X#	c #617B0B",
"Y#	c #677A0C",
"Z#	c #486205",
"`#	c #4F6A06",
" $	c #395502",
".$	c #496306",
"+$	c #526B07",
"@$	c #69800E",
"#$	c #677E10",
"$$	c #5C720A",
"%$	c #4A6507",
"&$	c #546F09",
"*$	c #506B06",
"=$	c #3F5C04",
"-$	c #536C05",
";$	c #6D8210",
">$	c #637D0F",
",$	c #687B0D",
"'$	c #546D0B",
")$	c #4D6807",
"!$	c #58720A",
"~$	c #627D0D",
"{$	c #567007",
"]$	c #496405",
"^$	c #506B0A",
"/$	c #4D6706",
"($	c #5B760B",
"_$	c #587106",
":$	c #677F10",
"<$	c #556F07",
"[$	c #3F5C03",
"}$	c #496606",
"|$	c #587209",
"1$	c #697E10",
"2$	c #597207",
"3$	c #506A06",
"4$	c #3C5902",
"5$	c #405E03",
"6$	c #4E6907",
"7$	c #59730A",
"8$	c #637C0F",
"9$	c #5C730A",
"0$	c #567008",
"a$	c #5A7108",
"b$	c #687B0F",
"c$	c #667C0C",
"d$	c #67790D",
"e$	c #5E7306",
"f$	c #637B09",
"g$	c #617907",
"h$	c #6A8010",
"i$	c #627D0E",
"j$	c #5F7406",
"k$	c #627A08",
"l$	c #647B09",
"m$	c #667E0C",
"n$	c #5D740B",
"o$	c #587308",
"p$	c #5A7307",
"q$	c #717E2D",
"r$	c #727F33",
"s$	c #788441",
"t$	c #6D7D2A",
"u$	c #607A0C",
"v$	c #385602",
"w$	c #496305",
"x$	c #698011",
"  . + @ # $ % & * = - ; > ; , ' ) ! ~ { ] ^ / ( _ : < [ [ } | 1 2 3 4 5 6 [ * @ 7 $ 8 8 < 9 0 a 1 b c d e f g h i [ } j k l l m ",
"n < + @ o p q = _ 8 r ) s ; t ) ) u v w v x y ' z r A 8 8 < B | a | C 5 6 D E _ F G _ : - H 0 ) C I J K L M N O 4 P 5 Q R S 3 4 ",
": 6 T 8 F U * z : t V W t R X t X ) Y Z `  ., 0 X ..9 r G 8 +.- ; ..a ; ; 8 E C 8 r @.#.A 0 A $.$.; %.&.*.=.-.;.>.< 5 D ,.| 5 C ",
": A H _ C - @.'.8 ; 0 ( ; ).@.) ) t !.@.) !.z ) > 1 ~.z E {.> >.C 5 C r ( ( C C s ].0 ^.$.Q C ; /.) < (._.:.<.;.: 8 8 ..E C B [.",
"A 0 a ; V ( @.^.}.t a ( : ; 0 t ) 0 |.0 t ) ) #.a 1.2.3.) ; 0 4././.+.: ' {.5.0 |.V > 0 @.A X 0 ) | |.6.7.8.8 t > ; 9.C C E 0.C ",
"( C /.0 1.~.0 Q a.b.c.d.e.f.g.0 ) 0 ' h.) @.t ) t i.0 !.i.j.j.@.@.U W |.k.G l., ' m.,.> t ; > 1.n.( 0 ~.8 : , #.o.> r ) {.' B $.",
"> k.1 ; X 0 t 8 @ + k p.+ q.r.$.) ) h.) ) t a @.!.t 0 ).S ; ' X 0 R z |.s.U +.B t.u.v.a w.; a | ; A 8 x.V ( [.) y.0.|.t z.A.0 0 ",
"[ y.i.> 9.!.> > 0 - B : * ( r B.0 t y.X ) ; X X ' $.0 X 0 A ) ) ].u.: > z C.G D.R E., c.F.3 k S } G.[ H.p U z ..t | | I.> ) 0 ) ",
"J.y.h.' 0 ].t > t 0 0 0 t u.@.!.X h.u.X X h.A ) t ~.X !.K.y.) ) ) 9.C L.A A {.x.S E.J.d.d.M.p.N.O.+ P.% r.q * 5.~.@.1.t ) t !...",
"Q.D 6 #.C !.) X ].t 0 0 ) ~.) t t ].) X 0 X u.) @.!.> t @.; !.@.0.h.^.V 4.U A R.D 3 S.T.d.d l U.V.W.e X.# q Y.* Z.; `.X X  +; 8 ",
".+++} , X 0 |.].].9 !.) 1 ..a , ) @+) , !.t ) t 0 ) 0 X z t |.t 0.s r H +.F G.o #+,.p.$+%+d.c.N.&+*+q.q ;.# e o =+8 ' a ; 7 -+8 ",
";+>+,+'+)+X ' !+W 1 ].!.~+) t : o.) X !.' )+0 X {+E.R : %.> 0.|.a 9.r 6 ]+6 * ++. O.^+m c.F.m /+. R.@ $ q (+% _+G.- A 8 : :+<+b.",
"[+}+, , R R a 1 : E H < 8 ; > t 0 > 0 0 1 : E.l d.p.} |+++>.U 0 8 U [.y._ C 1+2+]+3+b.s 2 1 ,.} [ 4+@ * :+q G.* < A ^.).[.t q 5+",
"J e 6+3 J.J.7+S } G.6 _ 5 _ z ; 8+, /.{.7 [ ,.d.9+d./+*+0+a+q = ].> @.b+u.)+c+d+e+e+f+2+| C s =+Q G 8 _ 6 8 _ A A V W h.: > A g+",
"4 I.J.h+d.M.c.N.O.+ i+j+$ k+* 6 ].0 [.C [ 4+. 2 c.b.W.@ r.(+$ < {.= X ; C l+m+n+b+6 B B 5 < [.: U 8 : H - @.A o+A ..G W C u.G.s ",
"5 3 h+d.d.T.J.U.V.W.P.e # p+$ R.=+z q+: 8 G.]+=+5 r+s+F 8 * 6 t t+~.9.u+v+w+x+y+D.z+9.V ' A : r ) , m+E 9 ) ) ^.C ; @.E E {.8 ]+",
"A+B+p.M.d.d.p.C+&+W.(+$ D+# X.+ :+8 !.: A )+D.{.R.h+T.- {.A 0 i.t t 6+E+F+G+H+I+8 C ' #.k.> 8 9 !.$.0 i.J+!.| 7+( G ; H 8 G.* o ",
". /+,.p.c.F.2 /+. + K+# q X.Y.* * C 8 u.C A #.- o+L+M+C U 8 C X V B N+z+O+P+Q+v+x.R+t S+S+0 T+X ~.t+( ) X X ; : H /.).5 U+6 H.s+",
"]+]+R a S , R } ]+} @ V+6 W+b+8 G.E X+Q R H r < < d.J.@.< 8 V Y+Z+Z+Z+Z+Z+Z+`+9.C ; X !.0 a t ].].t+/.$.) X X 0 A A C @.: 6 G.[ ",
"8 8 x.=+| | C : Q : F : 6 G.8 a C s.9 0 v+H * G [  @| .@Y++@@@@@#@#@$@$@$@$@%@t I.) !.0 !.0 y.].0 !.X ].!.) !.].X ) W V @.r 8 8 ",
"1 F &@E : < [.' A : C E C R z #.J.0 s | *@=@-@D.8 ;@Z++@@@%@>@,@'@)@!@!@!@!@~@u.) , , !.u.$.X X !.0 X ~.t 0 ) 0 ) ..m.0 ^.; 9 8 ",
"A ' > 8 C A {@E ) ; ; 8 ( X ) S+t ; ]@!+..W+^@/@+@+@(@#@'@)@_@:@<@[@}@}@}@}@|@1@t X ) ) 2@3@) X ) h.) !.0 !.t !.) ) z R z 1.@.v+",
"4@!.) C t.z /.; !.8 X+w.J+) ; , t ( ' 0 ].) 5@Y+@@%@$@6@7@8@:@[@}@9@0@a@a@a@a@b@) 0 ~.c@d@{+a 1 : 8 t @.X ) ) !.!.^.0 z a e@J+].",
"( |.0 }.S+X+1.!.J+s a ) !.) t+; > ) !.) X ) #@%@%@f@g@h@i@j@[@k@l@m@b@b@b@b@n@n@b@; : ; R o@k /+|+o >.t p@X !.!.) t 0 t t ( X ~.",
"A : 0 0 X @.0 ) t $./.8 !.t X X , ) )+z , @@%@%@f@q@8@r@<@s@9@t@u@v@w@b@b@w@x@x@y@z@D ,.d.9+d.O.*+# # o : S+!.!.@.t 0 ].o+) ) > ",
"A@B@> ) t X X 0 X ) )+) y.' y.].0 ) t 0 C@D@E@F@G@G@H@I@}@J@K@E@L@M@D@b@N@O@P@7@F@b@[ n S J.R #+& Y.q $ U ..: t ].!.0 ) 0 Q@R@S@",
"] ^ T@t @.t y.X ) ) u.t !.!.0 0 ) !.X U@D@V@W@i@X@Y@[@}@|@Z@w@`@y@y@b@b@b@y@x@ #w@b@z@P | S 5 } * _ * U H X+0 t 0 0 @.X w..#~ { ",
"+#x Q+0 ) t ) ].X !.2@) !.X 0 t !.) , @#V@O@r@G@##$#%#}@<@&#)@y@N@b@b@b@b@b@n@`@b@b@b@b@$.A [.8 ( H 0 S+| @.y.t 0 X 0 0 ; u *#w ",
"=#-#].0 z X !.t 0  +].X ) t !.t ) X W@;#E@)@>#H@,#%#%#'#7@>#_@E@N@m@;#6@O@w@b@b@b@b@b@b@)#z a a i.) !.].0 ) ) /.) ) X ) !.X Y !#",
"0 t C !.X ) t X 0 0 X !.) ) ) t o+t ~#{# #L@8@<@}@k@1@m@O@,@]#b@b@,@h@P@P@L@n@b@b@y@D@y@z@|.) u.( !.!.) t !.0 @.!.y.h.@.@.U !.0 ",
"X t $.X 0 0 ) t ].t h.X !.) t X t ) X ^#/#8@(#_#[@|@:#0@N@N@N@b@b@y@)@<#<#]#b@N@y@&#P@)@y@z@0 X t ~.0 X ].) ) !.|.u.t t 0 [#u.|.",
"..' !., }#!.t 0 ; ].u.a > , u., @.!.0 !.) |#1#/#_#I@[@2#b@b@a@0@b@b@m@m@m@;#3#y@w@6@>#P@4#b@t ) ) t 0 0 0 ) t !.) X |.t o+!.$.)+",
"( 0 5#}.u.C w.[.a |.( ) 6#)+; t t ].)+7#A h., B.8#8#8#9#`@n@0#|@K@J@1@b@w@<#q@x@m@y@)@a#w@b@b#X |.u.) X !.t @.) !.!.!.!.0 +.J+|.",
"t.~+, , R a : R E 8 5 C : r X !.$.].A ; R d.c.C [ W+:+c#c#c#2#d#m@e#s@2#:#f#g#[@1@`@n@n@V@E@h#u.t !.].t ) t X y.].) ) : !.J+i#j#",
"0., h+e@F.c.p.} < [ ]+R.U - 8 n.A 6 [ /+d.T.d.O.P.r.k#N@b#)#h#) 9#1#/#l#m#'#n#s@}@1@1@m#G@q@3#o#!.) p#) !.y.t t ) a h.{+C H s.I.",
"K.3 d.d.9+p.N.O.+ i+W+q#d+* ]+6._ r#[ s#2 J.R t#@ X.$ N@b#S u#2.!.v#}.w#x#|#1#y#z#A#e#,#H@_#y@z@t X ) u.!.) !.0 +.C o.C {.D.6 b.",
"R h+T.d.d.J.B#V.W.i+r.D+X.(++.6 )+A G.6 D | r 6 r#* * N@b#( u#0 I.) , !+!+C | | 8 C#~#D#Y@E#w@b@b#X h.t }.h.) ..!.}.- C ]+5 } D ",
"F#3 $+d.T.c.C+#+W.e r.k#Y.G#W+_ 6 ( A 5 $.A : 8 B C ].H#)#( u#9 1 R ]@k T.F.,.=+i+)#W+6 8#1#W@n@w@`@y.X 0 X 0 ( C r I#b+R.b+W+} ",
"/+,.p.l F.2 /+. + P.X.q X.Y.* * C 8 u.} !.)+( ~.: > z ~.u#C u#p } !+S.J#9+l ,.t#K#% # q |+5 L#M#x#2#X X , ) t 8 +.s D.U+U+* 4+s#",
"A+| > | 1 ,.} ]+i+R.W+o o 8 _ _ 0 ( C r t t X ~.m.( | @.u#6 F @ P N.J.d.d.h+  N#*+r.k#k#X.j+V z@0 z@) !.) t X C H E.5 ).]+b+R.} ",
"6 C C a | | C 8 D U 8 F 8 E 8 ..- T+X ( X t 0 ].t ( A z u#R.F @ } ,.2 h+d.m O.+ @ X.X.$ q R.C b#| b#t !.) O#; > ' a x.{.0 5 5 8 ",
"8 >.- b.8 } =+V ( D.8 8 z .@X ( 0 : ; D.@.].t !.h.; : ' u#8 6 [ [ 5 ' 2 p.| 5 P F >.o o < _ ..b#; | ) , ) 0 z C P#1 ; ^.#.; C 8 ",
"8 > E < a : o q : ( H ( @.p@z.t a a 5 X u.) ) ) t ~.t 0 )#t ; > 5 Q D =+C R.Q#8 : [.8 E 8 C C H#: Q ) 0 ) h.y.' !.R#2.C 9 4@8 !.",
"; U $.o+..>.+ E.8 @.9 J+) H t+|.: X > X 0 X !.) }.t t 0 !.@.X 8 C 8 ).8 : W+0 W i.8 : ; !.!.a ; A @.X X |.@.> z u.) > : X+)+o.|.",
"#.) p#S+8 [.S#6#( R > @+t i.E...) !.a u.u.0 ) t !.0 u.) 0 9 ) h.C ..).z = k , > Q | )+0 !.) ) u.y.a !.0 , T#) ; , ].X !.| ) !.!+",
"A 0 A C 6.8 d.9+9 b+7 8 !.t ) X ) ) h.!.) ) t !.!.) !.t ) X u.!.C ) X |.:+L+: 4+: ) 0 ) a 1 !.) t @.0 X ' ~.X ..R ) X+u.) ) z [.",
"t > C 0 U =+h+6#h.o U r @.!.}.`.W @.e@; a 0 u.0 X t !.t h., X !.C !.U#V#G W#W+D [.z ) ) ) !.) X ) , 0 0 ).d@)+0 T+K.~+^.C w.; ; ",
"V < 7 % ]+8 #+ @8 k#Q.0 R ) , J.3 X#| D Q n.Y#) ; o.2@0 0 @.!.@.' 0 &@Z#,.`#>+S#: X |.t X ) ].X 0 u.; > ) ).|.J+j.l u.]@t 1 | : ",
"[ 7. $.$a = +$p+# B+@$: h+2 l #$m b.s+k#$$< R+W , ) X t X C , ].C A 8 ++%$[+&$(+W+9 t 0 0 ) ) X ; a > Q ( > 6#l d@3 e@d.p.,.B+G.",
"i+& *$=$J#(+f -$h ;$< [ } >$T.9+d.  s+q.# D+.+,$' 3@u.t > 0 C ' Q 8 o n '$)$!$$ q > | X 0 t u.8 A {+| D.R s R E.d.d.d.9+S.~$O.[ ",
"e X.{$]$^$L =./$($u.G.[ A+/+l J.R n + % X._$:+U : t h.) V ) ' ].C @.U = B =+Q ; ; i.( !.0 ) > ' z.C D.x.s } C R S.#$:$Q.l B#V.s+",
"q.$ # <$[$*.=.}$|$r >.[ #+5 5 | | [ * [ 6 * R.t a ; X 0 !.) ) 2.h.) ; : K.( D 1$m s+$ |.0 X s ; !.s.x.C D R.} /+p.d.d.d.c.N.&+W.",
"j+G#$ 2$3$4$5$6$7$!.Q ..- B < C C U A C 8 ; )+W A ].0 t X t 0 X !.> C ) !+).2+k 2 e.$ &@A , C %.> R b+D.[ 4+} ,.8$3 d.d.2 /+. + ",
"@ * p r.9$0$a$_ 0 ; 1 0 ..> 0 8 ; !.: ( @.) 0 @.!.) t X t X t ) X |.!.) ; A z E C E ..].; C < s D.@.< F [ D 5 5 Q 1 S 3 ,.} D ]+",
"_ _ 6 =+z U @.- 1.X 1 ) : !.!.|., ) ; ~.u.0 0 !.!.X @.y.t X t X ].y.t A ' X z }#3@t t |., C b$b$a v+- E U D } < x.5 a | | 5 3 C ",
": E C '.z ; ( 0 a a z X u.2@t !.X 0 0 X t ].t 0.)+) h.t y.!.) !.) 0 ' ) !.t ' I.t y.u.> 0.)+0.B 0.( 0 8 A ).5 8 8 8 R 0.Q C z ( ",
"A 8 : 4@(  +0 : : a 0 t ) t ) ) t ) > 0 X t !.) X ) 0 o+@./.t t e@) U ) ' A X ) H I#2@B R 0.K.z v+!...1.o.{.G {.> E u.a C A ) 1 ",
"7+0 ..].| B.z | u.0 0 , t X t > ' t t |.$., ].) 0 u...3@!.c$, |.Y#C z 0 C ( d$( t 0.J+C {.6+j#' ; z ; 0 |.e$o ; , z V z > 1 ; > ",
"R @.| 0 Q ( ..X ( 3@X !., t ~.!.0 X X z ) !.!.' ; |.2.2.|.J+v., !+1 a ( 5 : 9.v+C B D.C ' {.h.) |.X 0 : 0 [ } #.!.c@f$g$0 Y#0 s ",
"F#8 A C 8 V ; r ].0 I.!.h.X ) ) X |.t X ].) : !.0 > : > t R a l e@3 p.,.} G.[ 4+b+]+D.> @.' ; ) !., ) $.8 h$L+u.; )+#.T#y.u., ]@",
"4 } U+* * o * +.$.p#0 ; ) ) !.t ~.X !.!.@.8 ( }.a : z E C R F.d.d.:$h+i$V.+ & q.q#W+4+S ~.t , t !.) h.U+C d.9+0 =+} 4 R l e@k p.",
"i$/++ P.% # R.[ F r j$!+) ) t !.X @.y.t ..t c@/.a 9 U ]+C 1 S.:$d.T.l B#V.e.*+D+# q e * : ; k$0 C Q 8 I ; d.1$8 W++ b.J.T.d.Q.c.",
"p.#+s+(+X.# q q R.G #.l$!.' ; ; !.5#; !.( A !.' ]+U [ o #+B+3 m$%+d.c.N.#+e.e q # 0+$ 4+* C r A 5 n$n$A < e+} k+o$9+R h+d.d.T.J.",
"C+&+W.q.p$;.# r.R.6 H B : ( !., X G+q$r$s$t$| >.U+F 6 @ [ O.C+p.c.d.m /+u$+ K+e q % s+* G.8 1 - d+v$w$R R.g+;.0$u$x$B+3 o@d.T.p."};
