/* XPM */
static char * player_right2_xpm[] = {
"64 64 431 2",
"  	c #627B0E",
". 	c #5F790C",
"+ 	c #5E770B",
"@ 	c #5D760A",
"# 	c #597308",
"$ 	c #5B7408",
"% 	c #5B7508",
"& 	c #5C7509",
"* 	c #5D7508",
"= 	c #5F760A",
"- 	c #61770B",
"; 	c #62790B",
"> 	c #64790C",
", 	c #647B0C",
"' 	c #657A0D",
") 	c #64790B",
"! 	c #748037",
"~ 	c #8B8A71",
"{ 	c #90907C",
"] 	c #979688",
"^ 	c #8C8C75",
"/ 	c #6B7C23",
"( 	c #61790A",
"_ 	c #5E7608",
": 	c #60780A",
"< 	c #60770B",
"[ 	c #5E770A",
"} 	c #60790C",
"| 	c #627A0C",
"1 	c #637B0C",
"2 	c #647C0E",
"3 	c #647C0D",
"4 	c #627B0C",
"5 	c #61790C",
"6 	c #5F770A",
"7 	c #5E750A",
"8 	c #60770A",
"9 	c #5F7608",
"0 	c #62790A",
"a 	c #637A0C",
"b 	c #58700A",
"c 	c #425D04",
"d 	c #687F10",
"e 	c #5C750A",
"f 	c #476305",
"g 	c #526D06",
"h 	c #567108",
"i 	c #6A8210",
"j 	c #647C0F",
"k 	c #647D0D",
"l 	c #667D0F",
"m 	c #647D0F",
"n 	c #617A0D",
"o 	c #5D7509",
"p 	c #5D7409",
"q 	c #5B7308",
"r 	c #61780A",
"s 	c #637A0D",
"t 	c #63780A",
"u 	c #6B7C21",
"v 	c #89896E",
"w 	c #8B8A70",
"x 	c #83865E",
"y 	c #687C14",
"z 	c #62770A",
"A 	c #607709",
"B 	c #63790D",
"C 	c #62790C",
"D 	c #60780B",
"E 	c #61780B",
"F 	c #5E7709",
"G 	c #5F7709",
"H 	c #5F7609",
"I 	c #61780D",
"J 	c #4D6707",
"K 	c #516B0A",
"L 	c #5E790D",
"M 	c #436104",
"N 	c #4D6806",
"O 	c #5A740B",
"P 	c #5F780B",
"Q 	c #61790B",
"R 	c #647B0D",
"S 	c #637B0D",
"T 	c #5F780A",
"U 	c #5E7508",
"V 	c #5F7509",
"W 	c #607808",
"X 	c #657A0C",
"Y 	c #667A13",
"Z 	c #6E7E27",
"` 	c #6D7F1F",
" .	c #647810",
"..	c #63780B",
"+.	c #60760A",
"@.	c #607708",
"#.	c #63770B",
"$.	c #617609",
"%.	c #61750A",
"&.	c #435E04",
"*.	c #486506",
"=.	c #456104",
"-.	c #4B6606",
";.	c #587108",
">.	c #5E7509",
",.	c #627B0D",
"'.	c #5E7507",
").	c #65790D",
"!.	c #627709",
"~.	c #617508",
"{.	c #62780C",
"].	c #617608",
"^.	c #627708",
"/.	c #607508",
"(.	c #577009",
"_.	c #3C5A02",
":.	c #416003",
"<.	c #4D6A06",
"[.	c #60790A",
"}.	c #64790A",
"|.	c #65790C",
"1.	c #627A0A",
"2.	c #627609",
"3.	c #637709",
"4.	c #5F7308",
"5.	c #5D7507",
"6.	c #5E7308",
"7.	c #587008",
"8.	c #587007",
"9.	c #63770C",
"0.	c #667B0E",
"a.	c #617A0A",
"b.	c #627A0D",
"c.	c #657D0E",
"d.	c #667E0F",
"e.	c #5E780C",
"f.	c #5A7209",
"g.	c #5D7307",
"h.	c #677B0D",
"i.	c #5F7708",
"j.	c #677B0C",
"k.	c #617509",
"l.	c #64790E",
"m.	c #627A0B",
"n.	c #607909",
"o.	c #65790B",
"p.	c #647D0E",
"q.	c #71726B",
"r.	c #737471",
"s.	c #706F6A",
"t.	c #647A0E",
"u.	c #64780C",
"v.	c #667B0D",
"w.	c #657B0B",
"x.	c #696963",
"y.	c #61780C",
"z.	c #677C0D",
"A.	c #637909",
"B.	c #687C0D",
"C.	c #8E8E8E",
"D.	c #627509",
"E.	c #62790D",
"F.	c #647B0E",
"G.	c #969695",
"H.	c #5E7609",
"I.	c #5C7408",
"J.	c #677C0E",
"K.	c #667D0E",
"L.	c #9B9A9B",
"M.	c #677B0E",
"N.	c #617607",
"O.	c #989598",
"P.	c #5C760A",
"Q.	c #5B7409",
"R.	c #697F0F",
"S.	c #63655E",
"T.	c #615F5B",
"U.	c #979A97",
"V.	c #A1A1A1",
"W.	c #9C9B9C",
"X.	c #5E760A",
"Y.	c #657E0F",
"Z.	c #677E0F",
"`.	c #A19E9D",
" +	c #696A64",
".+	c #597307",
"++	c #5E7708",
"@+	c #647A0A",
"#+	c #637809",
"$+	c #5D760B",
"%+	c #5C740B",
"&+	c #565754",
"*+	c #41413F",
"=+	c #D2D1D1",
"-+	c #EFEDE9",
";+	c #C3C3BD",
">+	c #60790D",
",+	c #636562",
"'+	c #DBDBD6",
")+	c #DFE4DE",
"!+	c #969696",
"~+	c #60790B",
"{+	c #546E07",
"]+	c #506B07",
"^+	c #546F08",
"/+	c #6B810E",
"(+	c #677A0F",
"_+	c #63770A",
":+	c #657C0D",
"<+	c #313131",
"[+	c #414141",
"}+	c #FFFEF6",
"|+	c #FCFBF5",
"1+	c #667B0C",
"2+	c #60780C",
"3+	c #607B0D",
"4+	c #F0EFE9",
"5+	c #FFFFF6",
"6+	c #FAF9F5",
"7+	c #5B750A",
"8+	c #5B7307",
"9+	c #5D7408",
"0+	c #486107",
"a+	c #446205",
"b+	c #556F08",
"c+	c #403E3D",
"d+	c #D1CFCD",
"e+	c #5D7609",
"f+	c #5F760D",
"g+	c #5F780C",
"h+	c #61790D",
"i+	c #496407",
"j+	c #677C0F",
"k+	c #5F615C",
"l+	c #BDBBB9",
"m+	c #677F0F",
"n+	c #617B0D",
"o+	c #5D770B",
"p+	c #5A7409",
"q+	c #58730A",
"r+	c #60770C",
"s+	c #60740B",
"t+	c #5D750C",
"u+	c #60780D",
"v+	c #C4C5BE",
"w+	c #526B09",
"x+	c #657D0F",
"y+	c #667F0F",
"z+	c #5C5D56",
"A+	c #2F2E31",
"B+	c #5D5E5A",
"C+	c #D1CFCC",
"D+	c #F4F4EC",
"E+	c #5F770C",
"F+	c #5D770C",
"G+	c #657A0F",
"H+	c #65790E",
"I+	c #62760F",
"J+	c #F1EFEE",
"K+	c #F8F7F3",
"L+	c #CFD1D0",
"M+	c #5E7408",
"N+	c #D2D2CD",
"O+	c #A19EA0",
"P+	c #5B760A",
"Q+	c #5E770C",
"R+	c #607809",
"S+	c #667A0F",
"T+	c #62770C",
"U+	c #667B10",
"V+	c #63770F",
"W+	c #61750C",
"X+	c #686663",
"Y+	c #6A6A69",
"Z+	c #696969",
"`+	c #F3F3ED",
" @	c #5E780B",
".@	c #617B0C",
"+@	c #DAD9D6",
"@@	c #D8D6D2",
"#@	c #C5C6BF",
"$@	c #61770F",
"%@	c #61780F",
"&@	c #667A11",
"*@	c #70716B",
"=@	c #F6F6EC",
"-@	c #F8F8EF",
";@	c #647C0C",
">@	c #657D0D",
",@	c #2D2E2D",
"'@	c #68800E",
")@	c #688010",
"!@	c #64780F",
"~@	c #62770E",
"{@	c #687B13",
"]@	c #627810",
"^@	c #312F2D",
"/@	c #5F770B",
"(@	c #383635",
"_@	c #62655E",
":@	c #F6F5EC",
"<@	c #647811",
"[@	c #657811",
"}@	c #2D2D2C",
"|@	c #575954",
"1@	c #717271",
"2@	c #E0DEDA",
"3@	c #60750A",
"4@	c #717171",
"5@	c #FFFCF9",
"6@	c #D7D8D5",
"7@	c #C7C8C3",
"8@	c #63685F",
"9@	c #2C2E26",
"0@	c #C1BEBF",
"a@	c #607507",
"b@	c #F0EFE7",
"c@	c #677D0D",
"d@	c #64780B",
"e@	c #CCCCC6",
"f@	c #FBFAF5",
"g@	c #C9C7C3",
"h@	c #6F716C",
"i@	c #FFFEFA",
"j@	c #C7C8C5",
"k@	c #575A56",
"l@	c #9C9B97",
"m@	c #667911",
"n@	c #73802F",
"o@	c #717E31",
"p@	c #F7F8EE",
"q@	c #747F36",
"r@	c #D1D0C7",
"s@	c #5D5E5B",
"t@	c #696766",
"u@	c #89896D",
"v@	c #6E7D25",
"w@	c #607409",
"x@	c #9B9B97",
"y@	c #393A39",
"z@	c #657B0F",
"A@	c #667A0E",
"B@	c #9B9A97",
"C@	c #2F3231",
"D@	c #CAC7C8",
"E@	c #393738",
"F@	c #BBBBBB",
"G@	c #5E615C",
"H@	c #EFF0E7",
"I@	c #2F322E",
"J@	c #5D750A",
"K@	c #5F790B",
"L@	c #CFD1C7",
"M@	c #353538",
"N@	c #5E5F5B",
"O@	c #C6C6C4",
"P@	c #F2F3EE",
"Q@	c #D8D6D5",
"R@	c #D7D8D3",
"S@	c #C7C9C8",
"T@	c #617909",
"U@	c #657A0B",
"V@	c #DDE0DC",
"W@	c #F6F6F3",
"X@	c #CFCFD1",
"Y@	c #393935",
"Z@	c #31312E",
"`@	c #32312E",
" #	c #637B0B",
".#	c #667A0C",
"+#	c #637A0B",
"@#	c #353834",
"##	c #657C0E",
"$#	c #395502",
"%#	c #496306",
"&#	c #526B07",
"*#	c #687D0F",
"=#	c #5D770A",
"-#	c #506B06",
";#	c #3F5C04",
">#	c #677F11",
",#	c #393939",
"'#	c #627D0D",
")#	c #5A7308",
"!#	c #567007",
"~#	c #496405",
"{#	c #506B0A",
"]#	c #677E10",
"^#	c #677F10",
"/#	c #637D0E",
"(#	c #607A0D",
"_#	c #5B7509",
":#	c #556F07",
"<#	c #3F5C03",
"[#	c #D8D7CE",
"}#	c #627C0D",
"|#	c #5F790D",
"1#	c #5C7508",
"2#	c #5A7408",
"3#	c #597207",
"4#	c #506A06",
"5#	c #3C5902",
"6#	c #404040",
"7#	c #637C0F",
"8#	c #5C730A",
"9#	c #567008",
"0#	c #627B0B",
"a#	c #5E7306",
"b#	c #657A0A",
"c#	c #637B09",
"d#	c #617907",
"e#	c #677A0C",
"f#	c #617A0C",
"g#	c #6A8010",
"h#	c #687C0E",
"i#	c #627D0E",
"j#	c #5F7406",
"k#	c #627A08",
"l#	c #697E10",
"m#	c #647B09",
"n#	c #667E0C",
"o#	c #5D740B",
"p#	c #5C7308",
"q#	c #587308",
"r#	c #627C0E",
"s#	c #5A7307",
"t#	c #385602",
"u#	c #496305",
"v#	c #607A0C",
"w#	c #698011",
"x#	c #667E0E",
"  . + @ # $ % & * = - ; > ; , ' ) ! ~ { ] ^ / ( _ : < [ [ } | 1 2 3 4 5 6 [ * @ 7 $ 8 8 < 9 0 a 1 b c d e f g h i [ } j k l l m ",
"n < + @ o p q = _ 8 r ) s ; t ) ) u v w v x y ' z r A 8 8 < B | a | C 5 6 D E _ F G _ : - H 0 ) C I J K L M N O 4 P 5 Q R S 3 4 ",
": 6 T 8 F U * z : t V W t R X t X ) Y Z `  ., 0 X ..9 r G 8 +.- ; ..a ; ; 8 E C 8 r @.#.A 0 A $.$.; %.&.*.=.-.;.>.< 5 D ,.| 5 C ",
": A H _ C - @.'.8 ; 0 ( ; ).@.) ) t !.@.) !.z ) > 1 ~.z E {.> >.C 5 C r ( ( C C s ].0 ^.$.Q C ; /.) < (._.:.<.;.: 8 8 ..E C B [.",
"A 0 a ; V ( @.^.}.t a ( : ; 0 t ) 0 |.0 t ) ) #.a 1.2.3.) ; 0 4././.+.: ' {.5.0 |.V > 0 @.A X 0 ) | |.6.7.8.8 t > ; 9.C C E 0.C ",
"( C /.0 1.~.0 Q a.b.c.d.e.f.g.0 ) 0 ' h.) @.t ) t i.0 !.i.j.j.@.@.U W |.k.G l., ' m.,.> t ; > 1.n.( 0 ~.8 : , #.o.> r ) {.' B $.",
"> k.1 ; X 0 t 8 @ + k p.+ q.r.r.s.) h.) ) t a @.!.t 0 ).S ; ' X 0 R z |.t.U +.B u.v.w.a x.r.r.r.x.A 8 y.V ( [.) z.0.|.t A.B.0 0 ",
"[ z.i.> 9.!.> > 0 - B : * C.C.C.r.t z.X ) ; X X ' $.0 X 0 A ) ) ].v.: > z D.G E.R F., c.s.C.G.C.s.H.[ I.p U z ..t | | J.> ) 0 ) ",
"K.z.h.' 0 ].t > t 0 0 0 t C.L.L.C.h.v.X X h.A ) t ~.X !.M.z.) ) ) 9.C N.A A {.y.S F.K.d.s.G.L.O.q.+ P.% Q.q * 5.~.@.1.t ) t !...",
"R.D 6 #.C !.) X ].t S.T.T.U.V.V.W.q.s.s.0 X v.) @.!.> t @.; !.@.0.h.^.V 4.U A X.D 3 Y.Z.r.L.V.`.r.q.s. +# q .+* ++; @+X X #+; 8 ",
"$+%+} , X 0 |.].].S.&+*+&+=+-+-+;+G.C.C.!.t ) t 0 ) 0 X z t |.t 0.s r H +.F H.o >+,.,+,+C.'+-+)+!+C.C.r.;.# e o ~+8 ' a ; 7 {+8 ",
"]+^+/+(+_+X ' :+W T.*+<+[+)+}+|+=+`.L.C.' _+0 X 1+F.R : %.> 0.|.a 9.r 6 2+6 * %+. 3+,+,+G.4+5+6+V.L.O.r.q 7+% 8+H.- A 8 : 9+0+b.",
"a+b+, , R R a 1 : T.[+c+[+)+}+|+d+`.L.C.1 : F.l d.p.} e+%+>.U 0 8 U [.z._ C f+g+2+h+,+,+G.4+5+6+V.V.`.C.9+q H.* < A ^.).[.t q i+",
"J e j+3 K.K.T.[+*+k+`.l+l+4+}+|+d+`.L.C.7 [ ,.d.m+d.n+o+p+q+q = ].> @.r+v._+s+t+u+u+,+,+G.4+5+}+4+-+-+v+C.C.r.A A V W h.: > A w+",
"4 J.K.x+d.y+z+*+A+B+l+C+C+D+5+|+d+`.L.C.[ E+. 2 c.b.F+@ Q.7+$ < {.= X ; C G+H+I+r+6 ,+,+G.J+5+5+5+5+K+L+L.L.C.M+A ..G W C v.H.s ",
"5 3 x+d.d.Z.z+*+A+B+l+d+N+D+5+|+=+V.O+C.x.x.x.~+5 P+Q+F 8 * 6 t R+~.9.S+T+U+V+W+E.X+Y+Z+O.`+5+5+5+5+6+L+L.L.C.^.C ; @.E E {.8 2+",
" @.@p.y+d.d.z+*+A+B+l+d+=+`+5+}+-++@@@#@C.C.r.x.X.x+Z.- {.A 0 i.t t j+$@%@&@T.&+&+*@W.V.l+=@5+5+5+5+-@N+L.L.C.;@( G ; H 8 H.* o ",
". n+,.p.c.>@z+*+,@B+l+d+N+D+5+5+}+}+|+)+L.L.C. +M+'@)@C U 8 C X V B !@~@{@]@&+<+^@r.;+N+'+-@5+5+5+5+-@N+L.L.C.: H /.).5 /@6 I.Q+",
"2+2+R a S , z+[+(@_@l+N+N+:@5+5+}+5+}+)+L.L.C. +< d.K.@.< 8 V _+- H+!@<@[@ .&+<+}@r.;+N+'+-@5+5+5+5+-@N+L.W.C.0 A A C @.: 6 H.[ ",
"8 8 y.S.|@|@S.1@r.G.C+2@2@6+5+5+5+5+}+)+C.C.C.z+|@|@|@|@|@|@|@|@|@|@|@|@|@|@&+<+}@r.;+N+'+-@5+5+5+5+|+2@l+l+G.S.X ) W V @.r 8 8 ",
"1 F 3@z+<+}@4@l+d+@@D+}+5@5+5+5+5+5+|+2@X+,+&+(@<+<+<+<+<+<+<+<+<+<+<+<+<+<+<+<+}@r.;+d+6@-@5+5+5+5+5+}+}+|+7@B+,+8@m.0 ^.; 9 8 ",
"A ' > z+<+}@4@l+N++@D+5+5+5+5+5+5+5+}+'+,+k+&+,@9@9@9@9@9@9@9@9@9@9@9@9@9@9@9@9@9@r.0@d++@-@5+5+5+5+5+5+5+|+7@B+,+8@z R z 1.@.T+",
"a@!.) z+<+}@4@l+N++@D+5+}+)+'+'+b@}+}+-+V.V.V.V.V.V.V.V.V.V.V.V.V.V.V.V.V.V.V.V.V.l++@)+)+|+5+5+5+5+5+5+5+|+7@B+,+8@0 z a c@d@].",
"( |.0 z+<+}@4@l+N++@D+5+|+V.r.r.e@|+5+}+K+K+K+-@K+K+K+K+K+-@-@-@-@-@-@-@-@-@-@-@-@K+f@|+|+}+5+5+5+5+5+5+5+|+g@B+,+8@0 t t ( X ~.",
"A : 0 z+}@9@h@l+N++@:@i@|+G._@Y+j@|+5+5+5+5+5+5+5+5+5+5+5+5+5+5+5+5+5+5+5+5+5+5+5+5+5+5+5+5+5+5+5+5+5+5+5+|+g@k@k+S.0 ].M+) ) > ",
"S.z+z+S.1@4@G.e@'+2@)+)+)+l+`.V.@@|+5+5+5+5+5+5+5+5+5+5+5+5+5+5+5+5+5+5+5+5+5+5+5+5+5+5+5+5+5+5+5+5+5+5+5+|+@@l@`.C. +) 0 m@n@o@",
"|@*+c+s.l+l+C+-+p@-+l+C.G.'+-+-+:@5+5+5+5+5+5+5+5+5+5+5+5+5+5+5+5+5+5+5+5+5+5+5+5+5+5+5+5+5+5+5+5+5+5+5+5+}+=@-+-+;+1@,+8@q@~ { ",
"&+<+A+h@r@d+2@K+5+4+W.s@t@-+5+5+5+5+5+5+5+5+5+5+5+5+5+5+5+5+5+5+5+5+5+5+5+5+5+5+5+5+5+5+5+5+5+5+5+5+5+5+5+5+5+5+5+C+r.,+,+u u@w ",
"&+<+A+h@e@C+2@-@5+4+V.h@C.-+}+5+5+5+5+5+5+5+5+5+5+5+5+5+5+5+5+5+5+5+5+5+5+5+5+5+5+5+5+5+5+5+5+5+5+5+5+5+5+5+5+5+5+C+r.,+,+X Y v@",
"&+<+A+h@e@C+2@-@5+|+4+-+-+|+5+5+5+5+5+5+5+5+5+5+5+5+5+5+5+5+5+5+5+5+5+5+5+5+5+5+5+5+5+5+5+5+5+5+5+5+5+5+5+5+5+5+5+C+r.,+,+U !.0 ",
"&+<+A+h@e@C+2@-@5+5+5+5+5+5+5+5+5+5+5+5+5+5+5+5+5+5+5+5+5+5+5+5+5+5+5+5+5+5+5+5+5+5+5+5+5+5+5+5+5+5+5+5+5+5+5+5+5+C+r.,+,+w@v.|.",
"&+<+A+h@e@C+2@-@5+5+5+5+5+|+6+-@-@-@-@|+5+5+5+5+5+5+5+5+5+5+5+5+5+5+5+|+-@-@|+5+5+5+5+5+}+|+-@-@-@-@6+|+5+5+5+5+5+C+r.,+,+!.$._+",
"&+<+A+h@e@C+2@-@5+5+5+5+|+g@V.V.V.V.V.0@}+5+5+5+5+5+5+5+5+5+5+5+5+5+|+2@V.V.C+5+5+5+5+5+`+l+V.V.V.V.V.2@5+5+5+5+5+C+r.,+,++.d@|.",
"&+<+A+h@e@C+2@-@5+5+5+5+|+x@Y+t@k@c+[+x@}+5+5+5+5+5+5+5+5+5+5+5+5+5+6+e@X+,+l+5+5+5+5+5+-+C.t@,+[+y@,+C+5+5+5+5+5+C+r.,+,+d@z@A@",
"&+<+A+h@e@C+2@-@5+5+}+|+6+G.,+k+&+<+y@B@}+5+5+5+5+}+|+-@-@}+5+5+}+|+K+e@4@h@l+f@-@|+}+5+)+C._@k+c+C@s@D@|+|+}+5+5+C+r.,+,+H t.J.",
"&+<+A+h@e@C+2@-@5+|+4+-+-+C.&+&+c+<+y@x@}+5+5+5+5+D+N+;+g@p@5+}+D+-+-+@@l+l+;+e@e@'+-@5+)+r.&+&+E@<+&+F@-+-+D+5+5+C+r.,+,+E.6 b.",
"&+<+A+h@e@C+2@-@5+K+2@C+C+h@<+<+<+<+y@x@}+5+5+5+5+)+r.9@&+b@5+|+)+d+N+)+i@5+N+G@G@V.H@5+)+4@A+<+<+<+&+V.d+N+-+5+5+C+r.,+,+5 } D ",
"&+<+A+h@e@C+2@-@5+6+2@C+C+h@I@}@9@9@<+B@}+5+5+5+5+)+C.}@k@b@5+|+)+N+@@)+i@5+N+k+k+V.H@5+)+h@9@9@}@}@[+V.d+N+-+i@5+C+r.,+,+r+J@} ",
"&+<+A+h@e@C+2@-@5+6+2@C+C+V.C.C.V.V.l+e@}+5+5+5+5+)+C.}@k@-+5+|+e@V.V.@@5+5+N+k+k+V.H@5+`+l+V.V.G.C.G.l+N+N+-+i@5+e@4@&+z+* E+K@",
"&+<+A+h@L@N+2@-@5+6+2@C+C+d+N+=+4+i@i@}+5+5+5+5+5+)+C.}@|@-+5+-@V.M@&+l+5+5+N+k+k+V.H@5+5+}+}+|+'+N+N+d+C+N+-+5+5+e@s@}@[+S.X.} ",
"&+<+A+h@L@N+2@-@5+|+2@C+C+C+C+N+-+}+5+5+5+5+5+5+5+)+r.9@&+-+5+|+V.M@&+l+5+i@N+N@G@V.H@5+5+5+5+|++@C+C+C+C+d+-+5+i@e@k+,@[+S.5 8 ",
"z+[+[+s.l+l+O@)+H@-+)+)+)+)+)+)+P@}+5+5+5+5+5+5+5+)+V.r.C.C+'+Q@V.r.C.V.'+'+0@C.C.l+`+5+5+5+5+|+)+)+)+)+)+2@'+'+'+l+_@[+&+S.C 8 ",
"8 T.T.T.,+,+C.O@R@'+4+6+6+6+6+6+|+5+5+5+5+5+5+5+5+`+C+;+F@C.r.r.V.0@0@V.r.r.W.;+0@+@-@5+5+5+5+5+6+6+6+6+6+p@j@r.r.s.S.T.S.a@8 !.",
"; U $.z+,@9@h@l+N+@@D+5+5+5+5+5+5+5+5+5+5+5+5+5+5+:@'+d+S@,+}@c+V.C+C+V.}@9@C.=+d+)+6+5+5+5+5+5+5+5+5+5+5+|+;+9@}@[+S.: T@_+o.|.",
"#.) U@T.c+y@4@l+0@#@V@-+-+`+p@p@p@W@p@p@p@p@p@p@p@-+6@d+e@C.Y+4@l+C+X@V.Z+t@`.d+C+'+P@K+=@p@p@=@-+)+)+)+-+)+l+Y@y@&+S.!.| ) !.:+",
"A 0 A C T.T.T.k+N@k+Y+h@r.7@R@R@R@R@R@R@6@6@6@R@R@R@N+C+C+O@;+v+e@C+d+D@;+;+j@C+C+N+R@+@R@R@R@N+C.4@h@h@h@h@ +T.T.S.T@v.) ) z [.",
"t > C 0 U ~+z+*+Z@Z@Z@A+c+l+C+C+C+C+C+C+C+d+d+N+C+d+C+C+C+C+C+C+C+C+C+C+C+C+C+C+C+C+C+C+d+d+N+e@X+<+^@A+Z@`@&+0  #M..#^.C +#; ; ",
"V < 7 % 2+8 z+[+@#y@&+&+k@l+e@e@e@e@e@e@e@e@e@C+C+C+C+C+C+C+C+C+e@e@e@e@e@e@e@e@e@e@e@e@e@e@e@7@X+y@(@(@(@(@&+d@j.l v.##t 1 | : ",
"[ 7.$#%#a = &#k+B+r.=+-+-+C.x.X+X+X+X+X+X+,+G.e@C+C+C+C+C+C+C+e@G. +X+X+X+X+X+X+X+X+X+X+x.x.x.X+T.T.T.T.T.T.S.l *#3 c@d.p.,..@H.",
"=#& -#;#>#7+f ,+_@C.2@5+|+C.,#@#@#<+<+<+<+,@C.D@C+C+C+C+C+C+C+e@C.y@<+<+<+<+<+@#@#<+<+<+<+@#@#y@T.1+| E.R s R F.d.d.d.m+Y.'#3+[ ",
"e )#!#~#{#L =.S.k+C.)+5+|+C.(@<+[+&+&+&+&+[+C.D@N+N+N+N+N+N+N+C+B@,+k+k+k+k+&+<+Z@[+k@k+&+y@@#y@T.C E.y.s } C R Y.]#^#R.l /#(#Q+",
"_#$ # :#<#*.S.z+&+r.2@5+|+C.(@y@r.`.V.V.V.`.l+e@N+R@)+-+-+-+-+)+[#C+e@e@e@C+V.}@}@r.0@C+l+t@[+[+T.t.y.C D X.} n+p.d.d.d.c.}#|#F+",
"1#2#$ 3#4#5#z+*+}@4@2@5+|+C.(@6#`.C+C+C+C+C+C+C+C+'+=@5+5+5+5+5+5+i@5+5+5+5+e@}@9@x@b@5+-+C.,+,+> R r+E.[ E+} ,.7#3 d.d.2 n+. + ",
"@ * p Q.8#9#z+*+}@4@2@}+6+C.(@6#W.C+C+C+C+C+C+C+C+'+`+}+}+}+}+}+}+}+}+}+}+5+e@9@9@B@-+|+)+C.,+,+E.@.< F [ D 5 5 Q 1 S 3 ,.} D 2+",
"_ _ 6 ~+z U z+*+,@s@V.;+;+s.@#6#W.C+C+C+C+C+C+C+C+R@)+-+-+-+-+-+-+-+-+-+-+-+l+}@}@r.l+7@l+C.C.C.s.T+- E U D } < y.5 a | | 5 3 C ",
": E C '.z ; z+*+<+A+9@9@9@}@<+6#W.C+C+C+C+C+C+C+C+C+C+C+C+C+C+C+C+C+C+C+C+d+V.}@Z@[+k@B+Y+G.W.L.q.( 0 8 A ).5 8 8 8 R 0.Q C z ( ",
"A 8 : a@( #+z+c+<+<+<+<+<+<+<+6#W.C+C+C+d+d+d+d+d+d+d+d+d+d+d+d+d+d+d+d+C+d+V.}@,@[+k+,+h@G.L.O.q.!...1.o.{.G {.> E v.a C A ) 1 ",
";@0 ..].| 0#T.&+&+&+&+&+&+,#<+6#W.C+C+O@V.V.V.V.V.V.V.V.V.V.V.V.V.V.V.l+d+d+V.[+[+|@_@8@Y+C.C.C.s.z ; 0 |.a#o ; , z V z > 1 ; > ",
"R @.| 0 Q ( ..S.S.S.S.S.S.*+<+6#W.C+C+l+r.r.Y+k@[+&+&+&+&+&+&+&+&+&+k@B@d+d+V.k+k+_@E.C '  + + +|.X 0 : 0 [ } #.!.b#c#d#0 e#0 s ",
"f#8 A C 8 V ; r ].0 J.!.h.*+<+6#`.C+C+l+_@,+&+(@A+A+A+A+A+A+A+A+A+A+[+C.d+d+l+,+,+,+E.> @.' ; ) !., ) $.8 g#'@v.; _+#.h#z.v., ##",
"4 } /@* * o * +.$.U@0 ; ) *+<+y@r.V.V.L.,+,+k@[+[+[+[+[+[+[+[+[+y@<+c+r.V.V.G.,+,+,+E+S ~.t , t !.) h./@C d.m+0 ~+} 4 R l c@k p.",
"i#n++ P.% # X.[ F r j#:+) *+<+<+[+&+&+k@,+,+S.S.S.S.S.S.S.S.S.T.[+<+@#[+&+&+B+,+,+,+e * : ; k#0 C Q 8 I ; d.l#8 J@+ b.K.Z.d.R.c.",
"p.>+Q+7+)## q q X.G #.m#!.*+<+<+<+<+<+[+,+,+,+' 2+U [ o >+.@3 n#[+<+<+<+<+A+[+,+,+,+$ E+* C r A 5 o#o#A < u+} p#q#m+R x+d.d.Z.K.",
"r#|#F+_#s#;.# Q.X.6 H B : [+(@(@(@@#(@[+,+,+,+>./@F 6 @ [ 3+r#p.[+Y@(@(@(@(@[+,+,+_@Q+* H.8 1 - t+t#u#R X.w+;.9#v#w#.@3 x#d.Z.p."};
