/* XPM */
static char * player_left0_xpm[] = {
"64 64 447 2",
"  	c #627B0E",
". 	c #5F790C",
"+ 	c #5E770B",
"@ 	c #5D760A",
"# 	c #597308",
"$ 	c #5B7408",
"% 	c #5B7508",
"& 	c #5C7509",
"* 	c #5D7508",
"= 	c #5F760A",
"- 	c #61770B",
"; 	c #62790B",
"> 	c #64790C",
", 	c #647B0C",
"' 	c #657A0D",
") 	c #64790B",
"! 	c #748037",
"~ 	c #8B8A71",
"{ 	c #90907C",
"] 	c #979688",
"^ 	c #8C8C75",
"/ 	c #6B7C23",
"( 	c #61790A",
"_ 	c #5E7608",
": 	c #60780A",
"< 	c #60770B",
"[ 	c #5E770A",
"} 	c #60790C",
"| 	c #627A0C",
"1 	c #637B0C",
"2 	c #647C0E",
"3 	c #647C0D",
"4 	c #627B0C",
"5 	c #61790C",
"6 	c #5F770A",
"7 	c #5E750A",
"8 	c #60770A",
"9 	c #5F7608",
"0 	c #62790A",
"a 	c #637A0C",
"b 	c #58700A",
"c 	c #425D04",
"d 	c #687F10",
"e 	c #5C750A",
"f 	c #476305",
"g 	c #526D06",
"h 	c #567108",
"i 	c #6A8210",
"j 	c #647C0F",
"k 	c #647D0D",
"l 	c #667D0F",
"m 	c #647D0F",
"n 	c #617A0D",
"o 	c #5D7509",
"p 	c #5D7409",
"q 	c #5B7308",
"r 	c #61780A",
"s 	c #637A0D",
"t 	c #63780A",
"u 	c #6B7C21",
"v 	c #89896E",
"w 	c #8B8A70",
"x 	c #83865E",
"y 	c #687C14",
"z 	c #62770A",
"A 	c #607709",
"B 	c #63790D",
"C 	c #62790C",
"D 	c #60780B",
"E 	c #61780B",
"F 	c #5E7709",
"G 	c #5F7709",
"H 	c #5F7609",
"I 	c #61780D",
"J 	c #4D6707",
"K 	c #516B0A",
"L 	c #5E790D",
"M 	c #436104",
"N 	c #4D6806",
"O 	c #5A740B",
"P 	c #5F780B",
"Q 	c #61790B",
"R 	c #647B0D",
"S 	c #637B0D",
"T 	c #5F780A",
"U 	c #5E7508",
"V 	c #5F7509",
"W 	c #607808",
"X 	c #657A0C",
"Y 	c #667A13",
"Z 	c #6E7E27",
"` 	c #6D7F1F",
" .	c #647810",
"..	c #63780B",
"+.	c #60760A",
"@.	c #607708",
"#.	c #63770B",
"$.	c #617609",
"%.	c #61750A",
"&.	c #435E04",
"*.	c #486506",
"=.	c #456104",
"-.	c #4B6606",
";.	c #587108",
">.	c #5E7509",
",.	c #627B0D",
"'.	c #5E7507",
").	c #65790D",
"!.	c #627709",
"~.	c #617508",
"{.	c #62780C",
"].	c #617608",
"^.	c #627708",
"/.	c #607508",
"(.	c #577009",
"_.	c #3C5A02",
":.	c #416003",
"<.	c #4D6A06",
"[.	c #60790A",
"}.	c #64790A",
"|.	c #65790C",
"1.	c #627A0A",
"2.	c #627609",
"3.	c #637709",
"4.	c #5F7308",
"5.	c #5D7507",
"6.	c #5E7308",
"7.	c #587008",
"8.	c #587007",
"9.	c #63770C",
"0.	c #667B0E",
"a.	c #617A0A",
"b.	c #627A0D",
"c.	c #657D0E",
"d.	c #667E0F",
"e.	c #5E780C",
"f.	c #5A7209",
"g.	c #5D7307",
"h.	c #677B0D",
"i.	c #5F7708",
"j.	c #677B0C",
"k.	c #617509",
"l.	c #64790E",
"m.	c #627A0B",
"n.	c #607909",
"o.	c #65790B",
"p.	c #647D0E",
"q.	c #5B7509",
"r.	c #5B7409",
"s.	c #696963",
"t.	c #737471",
"u.	c #647A0E",
"v.	c #64780C",
"w.	c #667B0D",
"x.	c #657B0B",
"y.	c #637A0B",
"z.	c #706F6A",
"A.	c #71726B",
"B.	c #61780C",
"C.	c #677C0D",
"D.	c #637909",
"E.	c #687C0D",
"F.	c #8E8E8E",
"G.	c #969695",
"H.	c #627509",
"I.	c #62790D",
"J.	c #647B0E",
"K.	c #657D0D",
"L.	c #5C7408",
"M.	c #677C0E",
"N.	c #667D0E",
"O.	c #989598",
"P.	c #9B9A9B",
"Q.	c #677B0E",
"R.	c #617607",
"S.	c #667F0F",
"T.	c #697F0F",
"U.	c #696A64",
"V.	c #A19E9D",
"W.	c #A1A1A1",
"X.	c #5E760A",
"Y.	c #657E0F",
"Z.	c #677E0F",
"`.	c #9C9B9C",
" +	c #979A97",
".+	c #615F5B",
"++	c #63655E",
"@+	c #597307",
"#+	c #5E7708",
"$+	c #647A0A",
"%+	c #637809",
"&+	c #5D760B",
"*+	c #5C740B",
"=+	c #969696",
"-+	c #DFE4DE",
";+	c #EFEDE9",
">+	c #DBDBD6",
",+	c #636562",
"'+	c #5E7609",
")+	c #60790D",
"!+	c #657E0C",
"~+	c #C3C3BD",
"{+	c #D2D1D1",
"]+	c #565754",
"^+	c #41413F",
"/+	c #60790B",
"(+	c #546E07",
"_+	c #506B07",
":+	c #546F08",
"<+	c #6B810E",
"[+	c #677A0F",
"}+	c #63770A",
"|+	c #657C0D",
"1+	c #FAF9F5",
"2+	c #FFFFF6",
"3+	c #F0EFE9",
"4+	c #667B0C",
"5+	c #60780C",
"6+	c #607B0D",
"7+	c #627C0F",
"8+	c #FCFBF5",
"9+	c #FFFEF6",
"0+	c #414141",
"a+	c #313131",
"b+	c #5B7307",
"c+	c #5D7408",
"d+	c #486107",
"e+	c #446205",
"f+	c #556F08",
"g+	c #5D7609",
"h+	c #5F760D",
"i+	c #5F780C",
"j+	c #61790D",
"k+	c #D1CFCD",
"l+	c #403E3D",
"m+	c #496407",
"n+	c #677C0F",
"o+	c #647C0C",
"p+	c #C4C5BE",
"q+	c #677F0F",
"r+	c #617B0D",
"s+	c #5D770B",
"t+	c #5A7409",
"u+	c #58730A",
"v+	c #60770C",
"w+	c #60740B",
"x+	c #5D750C",
"y+	c #60780D",
"z+	c #5F760B",
"A+	c #BDBBB9",
"B+	c #5F615C",
"C+	c #526B09",
"D+	c #657D0F",
"E+	c #627C0D",
"F+	c #CFD1D0",
"G+	c #F8F7F3",
"H+	c #F1EFEE",
"I+	c #5D770C",
"J+	c #5B750A",
"K+	c #657A0F",
"L+	c #65790E",
"M+	c #62760F",
"N+	c #F4F4EC",
"O+	c #D1CFCC",
"P+	c #5D5E5A",
"Q+	c #2F2E31",
"R+	c #5C5D56",
"S+	c #637C0D",
"T+	c #607A0D",
"U+	c #F3F3ED",
"V+	c #696969",
"W+	c #6A6A69",
"X+	c #686663",
"Y+	c #5B760A",
"Z+	c #5E770C",
"`+	c #607809",
" @	c #667A0F",
".@	c #62770C",
"+@	c #667B10",
"@@	c #63770F",
"#@	c #61750C",
"$@	c #A19EA0",
"%@	c #D2D2CD",
"&@	c #5E780B",
"*@	c #617B0C",
"=@	c #627C0E",
"-@	c #5F790D",
";@	c #F8F8EF",
">@	c #F6F6EC",
",@	c #70716B",
"'@	c #61770F",
")@	c #61780F",
"!@	c #667A11",
"~@	c #63760D",
"{@	c #61740B",
"]@	c #C5C6BF",
"^@	c #D8D6D2",
"/@	c #DAD9D6",
"(@	c #312F2D",
"_@	c #688010",
":@	c #64780F",
"<@	c #62770E",
"[@	c #687B13",
"}@	c #627810",
"|@	c #657811",
"1@	c #2D2E2D",
"2@	c #5F770B",
"3@	c #2D2D2C",
"4@	c #647811",
"5@	c #F6F5EC",
"6@	c #62655E",
"7@	c #383635",
"8@	c #E0DEDA",
"9@	c #575954",
"0@	c #717271",
"a@	c #60750A",
"b@	c #63685F",
"c@	c #C7C8C3",
"d@	c #D7D8D5",
"e@	c #FFFCF9",
"f@	c #717171",
"g@	c #C1BEBF",
"h@	c #2C2E26",
"i@	c #607507",
"j@	c #F0EFE7",
"k@	c #677D0D",
"l@	c #64780B",
"m@	c #637808",
"n@	c #617909",
"o@	c #C9C7C3",
"p@	c #FBFAF5",
"q@	c #CCCCC6",
"r@	c #575A56",
"s@	c #C7C8C5",
"t@	c #FFFEFA",
"u@	c #6F716C",
"v@	c #798341",
"w@	c #6F7E2A",
"x@	c #9C9B97",
"y@	c #6E7E25",
"z@	c #F7F8EE",
"A@	c #8A896E",
"B@	c #696766",
"C@	c #5D5E5B",
"D@	c #D1D0C7",
"E@	c #6A7C1C",
"F@	c #687C13",
"G@	c #66790D",
"H@	c #667A0C",
"I@	c #393A39",
"J@	c #9B9B97",
"K@	c #CAC7C8",
"L@	c #2F3231",
"M@	c #9B9A97",
"N@	c #BBBBBB",
"O@	c #393738",
"P@	c #EFF0E7",
"Q@	c #5E615C",
"R@	c #617A0C",
"S@	c #2F322E",
"T@	c #353538",
"U@	c #CFD1C7",
"V@	c #5E5F5B",
"W@	c #D8D6D5",
"X@	c #F2F3EE",
"Y@	c #C6C6C4",
"Z@	c #D7D8D3",
"`@	c #5E7408",
" #	c #C7C9C8",
".#	c #657A0B",
"+#	c #393935",
"@#	c #CFCFD1",
"##	c #F6F6F3",
"$#	c #DDE0DC",
"%#	c #697E0F",
"&#	c #32312E",
"*#	c #31312E",
"=#	c #627A0E",
"-#	c #353834",
";#	c #657C0E",
">#	c #395502",
",#	c #496306",
"'#	c #526B07",
")#	c #5A720A",
"!#	c #5D770A",
"~#	c #506B06",
"{#	c #3F5C04",
"]#	c #677F11",
"^#	c #536C05",
"/#	c #6D8210",
"(#	c #637D0F",
"_#	c #393939",
":#	c #627D0D",
"<#	c #5A7308",
"[#	c #567007",
"}#	c #496405",
"|#	c #506B0A",
"1#	c #4D6706",
"2#	c #5B760B",
"3#	c #677E10",
"4#	c #677F10",
"5#	c #637D0E",
"6#	c #556F07",
"7#	c #3F5C03",
"8#	c #496606",
"9#	c #587209",
"0#	c #D8D7CE",
"a#	c #5C7508",
"b#	c #5A7408",
"c#	c #597207",
"d#	c #506A06",
"e#	c #3C5902",
"f#	c #405E03",
"g#	c #4E6907",
"h#	c #59730A",
"i#	c #404040",
"j#	c #5C730A",
"k#	c #567008",
"l#	c #5A7108",
"m#	c #677A0D",
"n#	c #627B0B",
"o#	c #687D0E",
"p#	c #657A0A",
"q#	c #637B09",
"r#	c #617907",
"s#	c #677A0C",
"t#	c #6A8010",
"u#	c #68800E",
"v#	c #687C0E",
"w#	c #627D0E",
"x#	c #5C760A",
"y#	c #5F7406",
"z#	c #697E10",
"A#	c #5D750A",
"B#	c #647B09",
"C#	c #667E10",
"D#	c #5C7308",
"E#	c #587308",
"F#	c #5A7307",
"G#	c #717E2D",
"H#	c #727F33",
"I#	c #788441",
"J#	c #6D7D2A",
"K#	c #607A0C",
"L#	c #5C7609",
"M#	c #698011",
"N#	c #667E0E",
"  . + @ # $ % & * = - ; > ; , ' ) ! ~ { ] ^ / ( _ : < [ [ } | 1 2 3 4 5 6 [ * @ 7 $ 8 8 < 9 0 a 1 b c d e f g h i [ } j k l l m ",
"n < + @ o p q = _ 8 r ) s ; t ) ) u v w v x y ' z r A 8 8 < B | a | C 5 6 D E _ F G _ : - H 0 ) C I J K L M N O 4 P 5 Q R S 3 4 ",
": 6 T 8 F U * z : t V W t R X t X ) Y Z `  ., 0 X ..9 r G 8 +.- ; ..a ; ; 8 E C 8 r @.#.A 0 A $.$.; %.&.*.=.-.;.>.< 5 D ,.| 5 C ",
": A H _ C - @.'.8 ; 0 ( ; ).@.) ) t !.@.) !.z ) > 1 ~.z E {.> >.C 5 C r ( ( C C s ].0 ^.$.Q C ; /.) < (._.:.<.;.: 8 8 ..E C B [.",
"A 0 a ; V ( @.^.}.t a ( : ; 0 t ) 0 |.0 t ) ) #.a 1.2.3.) ; 0 4././.+.: ' {.5.0 |.V > 0 @.A X 0 ) | |.6.7.8.8 t > ; 9.C C E 0.C ",
"( C /.0 1.~.0 Q a.b.c.d.e.f.g.0 ) 0 ' h.) @.t ) t i.0 !.i.j.j.@.@.U W |.k.G l., ' m.,.> t ; > 1.n.( 0 ~.8 : , #.o.> r ) {.' B $.",
"> k.1 ; X 0 t 8 @ + k p.+ q.r.s.t.t.t.s.) t a @.!.t 0 ).S ; ' X 0 R z |.u.U +.B v.w.x.a y.; a z.t.t.A.B.V ( [.) C.0.|.t D.E.0 0 ",
"[ C.i.> 9.!.> > 0 - B : * ( r z.F.G.F.z.) ; X X ' $.0 X 0 A ) ) ].w.: > z H.G I.R J., c.K.3 k t.F.F.F.L.p U z ..t | | M.> ) 0 ) ",
"N.C.h.' 0 ].t > t 0 0 0 t w.@.A.O.P.G.z.X h.A ) t ~.X !.Q.C.) ) ) 9.C R.A A {.B.S J.N.d.d.S.p.F.P.P.F.% r.q * 5.~.@.1.t ) t !...",
"T.D 6 #.C !.) X ].t 0 0 U.z.A.t.V.W.P.t.0 X w.) @.!.> t @.; !.@.0.h.^.V 4.U A X.D 3 Y.Z.z.z.A.`.W.W. +.+.+++@+* #+; $+X X %+; 8 ",
"&+*+} , X 0 |.].].9 !.) t.F.F.=+-+;+>+F.,+,+) t 0 ) 0 X z t |.t 0.s r H +.F '+o )+,.p.!+F.F.G.~+;+;+{+]+^+]+++o /+8 ' a ; 7 (+8 ",
"_+:+<+[+}+X ' |+W 1 ].!.t.O.P.W.1+2+3+G.,+,+0 X 4+J.R : %.> 0.|.a 9.r 6 5+6 * *+. 6+7+m F.P.V.{+8+9+-+0+a+^+.+b+'+- A 8 : c+d+b.",
"e+f+, , R R a 1 : E H < F.V.W.W.1+2+3+G.,+,+J.l d.p.} g+*+>.U 0 8 U [.C._ C h+i+5+j+b.s F.P.V.k+8+9+-+0+l+0+.+* < A ^.).[.t q m+",
"J e n+3 N.N.o+S } t.F.F.p+;+;+3+9+2+3+G.,+,+,.d.q+d.r+s+t+u+q = ].> @.v+w.}+w+x+y+y+z+i+F.P.V.k+8+9+3+A+A+V.B+^+0+.+W h.: > A C+",
"4 M.N.D+d.S.c.E+6+F.P.P.F+G+2+2+2+2+H+G.,+,+. 2 c.b.I+@ r.J+$ < {.= X ; C K+L+M+v+6 B B F.P.V.k+8+2+N+O+O+A+P+Q+^+R+G W C w.'+s ",
"5 3 D+d.d.Z.N.S+T+F.P.P.F+1+2+2+2+2+U+O.V+W+X+/+5 Y+Z+F 8 * 6 t `+~.9. @.@+@@@#@I.s.s.s.F.$@W.{+8+2+N+%@k+A+P+Q+^+R+@.E E {.8 5+",
"&@*@p.S.d.d.p.=@-@F.P.P.%@;@2+2+2+2+>@A+W.`.,@]+]+.+Z.- {.A 0 i.t t n+'@)@!@~@{@s.t.F.F.]@^@/@;+9+2+U+{+k+A+P+Q+^+R+; H 8 '+* o ",
". r+,.p.c.K.2 r+. F.P.P.%@;@2+2+2+2+;@>+%@~+t.(@a+]+_@C U 8 C X V B :@<@[@}@|@.@U.F.P.P.-+8+9+9+2+2+N+%@k+A+P+1@^+R+).5 2@6 L.Z+",
"5+5+R a S , R } 5+F.`.P.%@;@2+2+2+2+;@>+%@~+t.3@a+]+N.@.< 8 V }+- L+:@4@|@ .9.9.U.F.P.P.-+9+2+9+2+2+5@%@%@A+6@7@0+R+C @.: 6 '+[ ",
"8 8 B./+| | C : ++G.A+A+8@8+2+2+2+2+;@>+%@~+t.3@a+]+9@9@9@9@9@9@9@9@9@9@9@9@9@9@R+F.F.F.-+9+2+2+2+2+1+8@8@O+G.t.0@++9@9@++r 8 8 ",
"1 F a@E : < b@,+P+c@8+9+9+2+2+2+2+2+;@d@k+~+t.3@a+a+a+a+a+a+a+a+a+a+a+a+a+a+a+a+7@]+,+X+8@8+2+2+2+2+2+e@9+N+^@k+A+f@3@a+R+; 9 8 ",
"A ' > 8 C A b@,+P+c@8+2+2+2+2+2+2+2+;@/@k+g@t.h@h@h@h@h@h@h@h@h@h@h@h@h@h@h@h@h@1@]+B+,+>+9+2+2+2+2+2+2+2+N+/@%@A+f@3@a+R+1.@..@",
"i@!.) C v.z b@,+P+c@8+2+2+2+2+2+2+2+8+-+-+/@A+W.W.W.W.W.W.W.W.W.W.W.W.W.W.W.W.W.W.W.W.W.;+9+9+j@>+>+-+9+2+N+/@%@A+f@3@a+R+k@l@].",
"( |.0 }.m@n@b@,+P+o@8+2+2+2+2+2+2+2+9+8+8+p@G+;@;@;@;@;@;@;@;@;@;@;@;@G+G+G+G+G+;@G+G+G+9+2+8+q@t.t.W.8+2+N+/@%@A+f@3@a+R+( X ~.",
"A : 0 0 X @.++B+r@o@8+2+2+2+2+2+2+2+2+2+2+2+2+2+2+2+2+2+2+2+2+2+2+2+2+2+2+2+2+2+2+2+2+2+2+2+8+s@W+6@G.8+t@5@/@%@A+u@h@3@R+) ) > ",
"v@w@> ) t U.F.V.x@^@8+2+2+2+2+2+2+2+2+2+2+2+2+2+2+2+2+2+2+2+2+2+2+2+2+2+2+2+2+2+2+2+2+2+2+2+8+^@W.V.A+-+-+-+8@>+q@G.f@0@++R+R+++",
"] ^ y@b@,+0@~+;+;+>@9+2+2+2+2+2+2+2+2+2+2+2+2+2+2+2+2+2+2+2+2+2+2+2+2+2+2+2+2+2+2+2+2+2+2+2+2+5@;+;+>+G.F.A+;+z@;+O+A+A+z.l+^+9@",
"A@x |@,+,+t.O+2+2+2+2+2+2+2+2+2+2+2+2+2+2+2+2+2+2+2+2+2+2+2+2+2+2+2+2+2+2+2+2+2+2+2+2+2+2+2+2+2+2+2+;+B@C@`.3+2+G+8@k+D@u@Q+a+]+",
"E@F@].,+,+t.O+2+2+2+2+2+2+2+2+2+2+2+2+2+2+2+2+2+2+2+2+2+2+2+2+2+2+2+2+2+2+2+2+2+2+2+2+2+2+2+2+2+2+9+;+F.u@W.3+2+;@8@O+q@u@Q+a+]+",
"0 t C ,+,+t.O+2+2+2+2+2+2+2+2+2+2+2+2+2+2+2+2+2+2+2+2+2+2+2+2+2+2+2+2+2+2+2+2+2+2+2+2+2+2+2+2+2+2+2+8+;+;+3+8+2+;@8@O+q@u@Q+a+]+",
"X t $.,+,+t.O+2+2+2+2+2+2+2+2+2+2+2+2+2+2+2+2+2+2+2+2+2+2+2+2+2+2+2+2+2+2+2+2+2+2+2+2+2+2+2+2+2+2+2+2+2+2+2+2+2+;@8@O+q@u@Q+a+]+",
"..' !.,+,+t.O+2+2+2+2+2+8+1+;@;@;@;@8+9+2+2+2+2+2+8+;@;@8+2+2+2+2+2+2+2+2+2+2+2+2+2+2+2+8+;@;@;@;@1+8+2+2+2+2+2+;@8@O+q@u@Q+a+]+",
"( 0 G@,+,+t.O+2+2+2+2+2+8@W.W.W.W.W.A+U+2+2+2+2+2+O+W.W.8@8+2+2+2+2+2+2+2+2+2+2+2+2+2+9+g@W.W.W.W.W.o@8+2+2+2+2+;@8@O+q@u@Q+a+]+",
"v.H@, ,+,+t.O+2+2+2+2+2+O+,+I@0+,+B@F.;+2+2+2+2+2+A+,+X+q@1+2+2+2+2+2+2+2+2+2+2+2+2+2+9+J@0+l+r@B@W+J@8+2+2+2+2+;@8@O+q@u@Q+a+]+",
"0., D+,+,+t.O+2+2+9+8+8+K@C@L@l+B+6@F.-+2+9+8+;@p@A+u@f@q@G+8+9+2+2+9+;@;@8+9+2+2+2+2+9+M@I@a+]+B+,+G.1+8+9+2+2+;@8@O+q@u@Q+a+]+",
"Q.3 d.,+,+t.O+2+2+N+;+;+N@]+a+O@]+]+t.-+2+;@>+q@q@~+A+A+^@;+;+N+9+2+z@o@~+%@N+2+2+2+2+9+J@I@a+l+]+]+F.;+;+3+8+2+;@8@O+q@u@Q+a+]+",
"R D+Z.,+,+t.O+2+2+;+%@k+W.]+a+a+a+Q+f@-+2+P@W.Q@Q@%@2+t@-+%@k+-+8+2+j@]+h@t.-+2+2+2+2+9+J@I@a+a+a+a+u@O+O+8@G+2+;@8@O+q@u@Q+a+]+",
"R@3 !+,+,+t.O+2+t@;+%@k+W.0+3@3@h@h@u@-+2+P@W.B+B+%@2+t@-+^@%@-+8+2+j@r@3@F.-+2+2+2+2+9+M@a+h@h@3@S@u@O+O+8@1+2+;@8@O+q@u@Q+a+]+",
"r+,.p.R+]+f@q@2+t@;+%@%@A+G.F.G.W.W.A+U+2+P@W.B+B+%@2+2+^@W.W.q@8+2+;+r@3@F.-+2+2+2+2+9+q@A+W.W.F.F.W.O+O+8@1+2+;@8@O+q@u@Q+a+]+",
"&@| ++0+3@C@q@2+2+;+%@O+k+%@%@>+8+9+9+2+2+P@W.B+B+%@2+2+A+]+T@W.;@2+;+9@3@F.-+2+2+2+2+2+9+t@t@3+{+%@k+O+O+8@1+2+;@8@%@U@u@Q+a+]+",
"6 C ++0+1@B+q@t@2+;+k+O+O+O+O+/@8+2+2+2+2+P@W.Q@V@%@t@2+A+]+T@W.8+2+;+]+h@t.-+2+2+2+2+2+2+2+9+;+%@O+O+O+O+8@8+2+;@8@%@U@u@Q+a+]+",
"8 >.++]+0+6@A+>+>+>+8@-+-+-+-+-+8+2+2+2+2+U+A+F.F.g@>+>+W.F.t.W.W@>+O+F.t.W.-+2+2+2+2+2+2+2+9+X@-+-+-+-+-+-+;+P@-+Y@A+A+z.0+0+R+",
"8 > E ++.+++z.t.t.s@z@1+1+1+1+1+2+2+2+2+2+;@/@g@~+`.t.t.W.g@g@W.t.t.F.N@~+O+U+2+2+2+2+2+2+2+2+8+1+1+1+1+1+3+>+Z@Y@F.,+,+.+.+.+!.",
"; U $.`@..++0+3@h@~+8+2+2+2+2+2+2+2+2+2+2+1+-+k+{+F.h@3@W.O+O+W.l+3@,+ #k+>+5@2+2+2+2+2+2+2+2+2+2+2+2+2+2+N+^@%@A+u@h@1@R+}+o.|.",
"#.) .#m@8 ++]+I@+#A+-+;+-+-+-+;+>@z@z@>@G+X@>+O+k+V.B@V+W.@#O+A+f@W+F.q@k+d@;+z@z@z@z@z@z@z@##z@z@z@U+;+;+$#]@g@A+f@I@l+.+) !.|+",
"A 0 A C 6.8 ++.+.+U.u@u@u@u@f@F.%@Z@Z@Z@/@Z@%@O+O+s@~+~+K@k+O+q@p+~+Y@O+O+%@Z@Z@Z@d@d@d@Z@Z@Z@Z@Z@Z@c@t.u@W+B+V@B+.+.+.+) ) z [.",
"t > C 0 U /+D+%#h.]+&#*#Q+(@a+X+q@%@k+k+O+O+O+O+O+O+O+O+O+O+O+O+O+O+O+O+O+O+k+O+%@k+k+O+O+O+O+O+O+O+A+l+Q+*#*#*#^+R+H@^.C y.; ; ",
"V < 7 % 5+8 )+=#8 ]+7@7@7@7@I@X+c@q@q@q@q@q@q@q@q@q@q@q@q@q@q@q@O+O+O+O+O+O+O+O+O+q@q@q@q@q@q@q@q@q@A+r@]+]+I@-#0+R+w.;#t 1 | : ",
"[ 7.>#,#a = '#)## ++.+.+.+.+.+.+X+s.s.s.X+X+X+X+X+X+X+X+X+X+U.G.q@O+O+O+O+O+O+O+q@G.,+X+X+X+X+X+X+s.F.;+;+{+t.P+B+3 k@d.p.,.*@'+",
"!#& ~#{#]#J+f ^#h /#< [ } (#Z..+I@-#-#a+a+a+a+-#-#a+a+a+a+a+I@F.q@O+O+O+O+O+O+O+K@F.1@a+a+a+a+-#-#_#F.8+2+8@F.6@,+d.d.q+Y.:#6+[ ",
"e <#[#}#|#L =.1#2#w.'+[ &@r+l .+I@-#I@]+B+r@0+*#a+]+B+B+B+B+,+M@O+%@%@%@%@%@%@%@K@F.0+]+]+]+]+0+a+7@F.8+2+-+F.B+++3#4#T.l 5#T+Z+",
"q.$ # 6#7#*.=.8#9#r >.[ )+5 5 .+0+0+B@A+O+g@t.3@3@W.O+q@q@q@O+0#-+;+;+;+;+-+Z@%@q@A+V.W.W.W.V.t.I@7@F.8+2+8@t.]+R+++d.d.c.E+-@I+",
"a#b#$ c#d#e#f#g#h#!.Q ..- B < C ,+,+F.;+2+j@J@h@3@q@2+2+2+2+t@2+2+2+2+2+2+>@>+O+O+O+O+O+O+O+O+V.i#7@F.8+2+8@f@3@^+R+d.d.2 r+. + ",
"@ * p r.j#k#l#_ 0 ; 1 0 ..> 0 8 ,+,+F.-+8+;+M@h@h@q@2+9+9+9+9+9+9+9+9+9+9+U+>+O+O+O+O+O+O+O+O+`.i#7@F.1+9+8@f@3@^+R+S 3 ,.} D 5+",
"_ _ 6 /+z U @.- 1.X 1 ) : !.!.z.F.F.F.A+c@A+t.3@3@A+;+;+;+;+;+;+;+;+;+;+;+-+Z@O+O+O+O+O+O+O+O+`.i#-#z.~+~+W.C@1@^+R+a | | 5 3 C ",
": E C '.z ; ( 0 a a z X w.m#t A.P.`.G.W+P+r@0+*#3@W.k+O+O+O+O+O+O+O+O+O+O+O+O+O+O+O+O+O+O+O+O+`.i#a+3@h@h@h@Q+a+^+R+R 0.Q C z ( ",
"A 8 : i@( %+0 : : a 0 t ) t ) A.O.P.G.u@,+B+0+1@3@W.k+O+k+k+k+k+k+k+k+k+k+k+k+k+k+k+k+k+O+O+O+`.i#a+a+a+a+a+a+a+l+R+w.a C A ) 1 ",
"o+0 ..].| n#z | w.0 0 , t X t z.F.F.F.W+b@6@9@0+0+W.k+k+A+W.W.W.W.W.W.W.W.W.W.W.W.W.W.W.Y@O+O+`.i#a+_#]+]+]+]+]+]+.+V z > 1 ; > ",
"R @.| 0 Q ( ..X ( o#X !., t ~.!.U.U.U.z ) !.6@B+B+W.k+k+M@r@]+]+]+]+]+]+]+]+]+0+r@W+t.t.A+O+O+`.i#a+^+++++++++++++p#q#r#0 s#0 s ",
"R@8 A C 8 V ; r ].0 M.!.h.X ) ) X |.t X ].) ,+,+,+A+k+k+F.0+Q+Q+Q+Q+Q+Q+Q+Q+Q+Q+7@]+,+6@A+O+O+V.i#a+^+$.8 t#u#w.; }+#.v#C.w., ;#",
"4 } 2@* * o * +.$..#0 ; ) ) !.t ~.X !.!.@.8 ,+,+,+G.W.W.t.l+a+I@0+0+0+0+0+0+0+0+0+r@,+,+P.W.W.t.I@a+^+2@C d.q+0 /+} 4 R l k@k p.",
"w#r++ x#% # X.[ F r y#|+) ) t !.X @.C.t ..t ,+,+,+P+]+]+0+-#a+0+.+++++++++++++++++++,+,+r@]+]+0+a+a+^+I ; d.z#8 A#+ b.N.Z.d.T.c.",
"p.)+Z+J+<## q q X.G #.B#!.' ; ; !.G@; !.( A ,+,+,+0+Q+a+a+a+a+0+C#d.c.E+)+e.e q # ,+,+,+0+a+a+a+a+a+^+A < y+} D#E#q+R D+d.d.Z.N.",
"=@-@I+q.F#;.# r.X.6 H B : ( !., X !@G#H#I#J#6@,+,+0+7@7@7@7@+#0+c.d.m r+K#+ L#e q ,+,+,+0+7@-#7@7@7@0+R X.C+;.k#K#M#*@3 N#d.Z.p."};
