/* XPM */
static char * score5_xpm[] = {
"32 32 323 2",
"  	c None",
". 	c #BB9585",
"+ 	c #BF9584",
"@ 	c #C69583",
"# 	c #CB927E",
"$ 	c #CC8D76",
"% 	c #CB876C",
"& 	c #C98060",
"* 	c #C67952",
"= 	c #C47042",
"- 	c #C36A34",
"; 	c #C4682A",
"> 	c #C56826",
", 	c #C46927",
"' 	c #C46A28",
") 	c #CD8F74",
"! 	c #D08F73",
"~ 	c #D58E72",
"{ 	c #D98C6E",
"] 	c #DA8866",
"^ 	c #DA835D",
"/ 	c #D97E53",
"( 	c #D77847",
"_ 	c #D57239",
": 	c #D46E2C",
"< 	c #D56C24",
"[ 	c #D56C20",
"} 	c #D46D22",
"| 	c #D36E23",
"1 	c #E88449",
"2 	c #EA8348",
"3 	c #EE8246",
"4 	c #F08043",
"5 	c #F17E3E",
"6 	c #F27C38",
"7 	c #F17A32",
"8 	c #F0772A",
"9 	c #EF7521",
"0 	c #EF7419",
"a 	c #EF7314",
"b 	c #EE7413",
"c 	c #EB7516",
"d 	c #EA7517",
"e 	c #F77D0F",
"f 	c #F87C0C",
"g 	c #FA7A06",
"h 	c #FA7903",
"i 	c #F87704",
"j 	c #F67604",
"k 	c #F57604",
"l 	c #F57603",
"m 	c #F57705",
"n 	c #F57706",
"o 	c #F4770B",
"p 	c #F17910",
"q 	c #EF7913",
"r 	c #F97E01",
"s 	c #F97E00",
"t 	c #FA7C00",
"u 	c #F67A00",
"v 	c #EE7703",
"w 	c #E87505",
"x 	c #E77304",
"y 	c #E67305",
"z 	c #E67507",
"A 	c #E77609",
"B 	c #E8760C",
"C 	c #E67711",
"D 	c #E47917",
"E 	c #E27A1A",
"F 	c #F88001",
"G 	c #F88005",
"H 	c #F78007",
"I 	c #F27E08",
"J 	c #E8790A",
"K 	c #E0740B",
"L 	c #DE7209",
"M 	c #DD7207",
"N 	c #DD7406",
"O 	c #DE7509",
"P 	c #DF760E",
"Q 	c #DE7715",
"R 	c #DB791B",
"S 	c #DA7A1E",
"T 	c #F78303",
"U 	c #F58406",
"V 	c #F3840B",
"W 	c #EF830E",
"X 	c #F28A30",
"Y 	c #F38605",
"Z 	c #ED860B",
"` 	c #E6851F",
" .	c #C6AC9C",
"..	c #D7A283",
"+.	c #EC924C",
"@.	c #F08804",
"#.	c #E78505",
"$.	c #DB842B",
"%.	c #C98449",
"&.	c #BD814F",
"*.	c #BE7C3D",
"=.	c #C17F44",
"-.	c #C3885C",
";.	c #C48D68",
">.	c #C7AA96",
",.	c #D4A383",
"'.	c #E89551",
").	c #EF8B00",
"!.	c #E78700",
"~.	c #DD8627",
"{.	c #D28740",
"].	c #CC8543",
"^.	c #CC8234",
"/.	c #CE833A",
"(.	c #D08A4F",
"_.	c #D38F56",
":.	c #C7A58A",
"<.	c #D3A078",
"[.	c #E6964B",
"}.	c #EF8F03",
"|.	c #EC8E00",
"1.	c #E88D17",
"2.	c #E48E27",
"3.	c #E28D28",
"4.	c #E18B1E",
"5.	c #E18C22",
"6.	c #E38E30",
"7.	c #E69130",
"8.	c #E99323",
"9.	c #E09230",
"0.	c #CA8D4B",
"a.	c #BC8A56",
"b.	c #BF9D7D",
"c.	c #CA9A6F",
"d.	c #DB954E",
"e.	c #E49233",
"f.	c #E49439",
"g.	c #E3943C",
"h.	c #E39238",
"i.	c #E4912E",
"j.	c #E6911B",
"k.	c #E99106",
"l.	c #EB9303",
"m.	c #EC9405",
"n.	c #EB950D",
"o.	c #E29429",
"p.	c #D39141",
"q.	c #CA8E4A",
"r.	c #AF9272",
"s.	c #B89169",
"t.	c #C69159",
"u.	c #CE9455",
"v.	c #CE9860",
"w.	c #CE9863",
"x.	c #CD955C",
"y.	c #D2934D",
"z.	c #DB9332",
"A.	c #E29414",
"B.	c #E89704",
"C.	c #EA9801",
"D.	c #EA9707",
"E.	c #E79719",
"F.	c #E29728",
"G.	c #E0972F",
"H.	c #A58B6B",
"I.	c #AD8C67",
"J.	c #B98F5F",
"K.	c #C09462",
"L.	c #C19A6F",
"M.	c #C09A72",
"N.	c #BF966A",
"O.	c #C5955F",
"P.	c #D09851",
"Q.	c #DA9A41",
"R.	c #E39B25",
"S.	c #E89B04",
"T.	c #E89A02",
"U.	c #E99B04",
"V.	c #E99C09",
"W.	c #E69E2B",
"X.	c #C6A072",
"Y.	c #D0A164",
"Z.	c #DFA03D",
"`.	c #E79F04",
" +	c #E79E00",
".+	c #E79F00",
"++	c #E6A002",
"@+	c #DFA23F",
"#+	c #CDA46F",
"$+	c #BFA685",
"%+	c #C3A575",
"&+	c #CDA565",
"*+	c #DEA43E",
"=+	c #E7A403",
"-+	c #E6A400",
";+	c #E5A400",
">+	c #E5A504",
",+	c #DEA540",
"'+	c #CCA66F",
")+	c #C9A351",
"!+	c #D2A546",
"~+	c #E0A82A",
"{+	c #E6A903",
"]+	c #E5AA00",
"^+	c #E4AA02",
"/+	c #E5AB08",
"(+	c #E3AB2B",
"_+	c #D4A828",
":+	c #D9A923",
"<+	c #E2AC14",
"[+	c #E6AF03",
"}+	c #E5AF01",
"|+	c #E4AF04",
"1+	c #E4AF07",
"2+	c #E4AF0A",
"3+	c #BBAD87",
"4+	c #BEB08D",
"5+	c #C3B595",
"6+	c #C4B491",
"7+	c #C0AE7C",
"8+	c #C4AB62",
"9+	c #CEAD3F",
"0+	c #D8AF1B",
"a+	c #DEB014",
"b+	c #E2B111",
"c+	c #E5B20A",
"d+	c #E6B304",
"e+	c #E5B402",
"f+	c #E2B408",
"g+	c #DFB311",
"h+	c #DDB213",
"i+	c #C0AE76",
"j+	c #C5B27B",
"k+	c #CCB782",
"l+	c #CEB87E",
"m+	c #CBB36C",
"n+	c #CDB155",
"o+	c #D5B236",
"p+	c #DCB515",
"q+	c #E3B708",
"r+	c #E6B905",
"s+	c #E7B805",
"t+	c #E6B902",
"u+	c #E6BA02",
"v+	c #E0B925",
"w+	c #D7B440",
"x+	c #D1B14A",
"y+	c #C9B04C",
"z+	c #CFB44E",
"A+	c #DABB52",
"B+	c #DEBE4E",
"C+	c #DDBC42",
"D+	c #DDBB33",
"E+	c #DFBB1F",
"F+	c #E2BC0A",
"G+	c #E4BD03",
"H+	c #E5BE02",
"I+	c #E6BD03",
"J+	c #E7BF03",
"K+	c #E5C011",
"L+	c #DCBD40",
"M+	c #CCB465",
"N+	c #C3AF73",
"O+	c #C9AD2D",
"P+	c #D1B127",
"Q+	c #DEB816",
"R+	c #E5BC02",
"S+	c #E4BC01",
"T+	c #E3BC00",
"U+	c #E2BB00",
"V+	c #E2BB06",
"W+	c #E0BC27",
"X+	c #DCBE41",
"Y+	c #D4BB5B",
"Z+	c #C5B376",
"`+	c #BAAD84",
" @	c #BFA445",
".@	c #C8A83B",
"+@	c #D8AE20",
"@@	c #E0B200",
"#@	c #DFB200",
"$@	c #DEB200",
"%@	c #DFB302",
"&@	c #DFB304",
"*@	c #DDB306",
"=@	c #D9B214",
"-@	c #D2B242",
";@	c #CAB367",
">@	c #C4B377",
",@	c #B59E63",
"'@	c #BD9F57",
")@	c #CAA039",
"!@	c #D1A11C",
"~@	c #D0A11E",
"{@	c #D0A226",
"]@	c #D1A32F",
"^@	c #D2A73E",
"/@	c #D4AB4D",
"(@	c #D4AD4B",
"_@	c #D2AD36",
":@	c #CBAC4C",
"<@	c #BFAC75",
"[@	c #B8AC86",
"}@	c #AF9C7D",
"|@	c #B1976F",
"1@	c #B68E4E",
"2@	c #B98931",
"3@	c #BA8A35",
"4@	c #BA8D40",
"5@	c #BA914F",
"6@	c #BD9A65",
"7@	c #C1A67C",
"8@	c #C5AC81",
"9@	c #AB9B89",
"0@	c #AB937A",
"a@	c #AA8457",
"b@	c #AB7B3A",
"c@	c #AC7C3E",
"d@	c #AD804B",
"e@	c #AC855B",
"f@	c #B09374",
"g@	c #B6A48E",
"h@	c #BAAC9A",
"                                                                ",
"                                                                ",
"                                                                ",
"                                                                ",
"                    . + @ # $ % & * = - ; > , '                 ",
"                    ) ! ~ { ] ^ / ( _ : < [ } |                 ",
"                    1 2 3 4 5 6 7 8 9 0 a b c d                 ",
"                    e f g h i j k l k m n o p q                 ",
"                    r s t u v w x y z A B C D E                 ",
"                    F G H I J K L M N O P Q R S                 ",
"                    T U V W                                     ",
"                    X Y Z `                                     ",
"                 ...+.@.#.$.%.&.*.=.-.;.                        ",
"                >.,.'.).!.~.{.].^./.(._.                        ",
"                :.<.[.}.|.1.2.3.4.5.6.7.8.9.0.a.                ",
"                b.c.d.e.f.g.h.i.j.k.l.m.n.o.p.q.                ",
"                r.s.t.u.v.w.x.y.z.A.B.C.D.E.F.G.                ",
"                H.I.J.K.L.M.N.O.P.Q.R.S.T.U.V.W.                ",
"                                X.Y.Z.`. +.+++@+#+$+            ",
"                                %+&+*+=+-+;+>+,+'+$+            ",
"                                )+!+~+{+]+^+/+(+                ",
"                                _+:+<+[+}+|+1+2+                ",
"                3+4+5+6+7+8+9+0+a+b+c+d+e+f+g+h+                ",
"                i+j+k+l+m+n+o+p+q+r+s+t+u+v+w+x+                ",
"                y+z+A+B+C+D+E+F+G+H+I+J+K+L+M+N+                ",
"                O+P+Q+R+S+T+T+T+T+U+V+W+X+Y+Z+`+                ",
"                 @.@+@@@#@$@#@%@&@*@=@-@;@>@                    ",
"                ,@'@)@!@~@{@]@^@/@(@_@:@<@[@                    ",
"                }@|@1@2@3@4@5@6@7@8@                            ",
"                9@0@a@b@c@d@e@f@g@h@                            ",
"                                                                ",
"                                                                "};
