/* XPM */
static char * score2_xpm[] = {
"32 32 383 2",
"  	c None",
". 	c #C6A499",
"+ 	c #C7A093",
"@ 	c #C99788",
"# 	c #CA9381",
"$ 	c #D79881",
"% 	c #D69781",
"& 	c #D79077",
"* 	c #DB8B6D",
"= 	c #C57645",
"- 	c #D1773D",
"; 	c #E77826",
"> 	c #F07C2F",
", 	c #F08148",
"' 	c #F0824D",
") 	c #F07F46",
"! 	c #F37D3B",
"~ 	c #F77A25",
"{ 	c #F47810",
"] 	c #E8771B",
"^ 	c #E2761F",
"/ 	c #D6773A",
"( 	c #DD7834",
"_ 	c #EC7920",
": 	c #F6790C",
"< 	c #F97706",
"[ 	c #FB7702",
"} 	c #FB7701",
"| 	c #FB7802",
"1 	c #FA7805",
"2 	c #F6780E",
"3 	c #ED7717",
"4 	c #E97719",
"5 	c #B89C8F",
"6 	c #C5957E",
"7 	c #DD854C",
"8 	c #EA7B17",
"9 	c #EE7A1F",
"0 	c #F2791D",
"a 	c #F77A10",
"b 	c #FA7A05",
"c 	c #FA7A03",
"d 	c #FA7A01",
"e 	c #FA7A00",
"f 	c #FA7904",
"g 	c #F97907",
"h 	c #F6790A",
"i 	c #F4790D",
"j 	c #F17A10",
"k 	c #EF7A12",
"l 	c #C8977E",
"m 	c #D2916F",
"n 	c #E48443",
"o 	c #F07C0C",
"p 	c #F77C06",
"q 	c #FA7B03",
"r 	c #FB7B02",
"s 	c #FA7C02",
"t 	c #F97C04",
"u 	c #F87D05",
"v 	c #F67C06",
"w 	c #F67C07",
"x 	c #F97B06",
"y 	c #FA7B04",
"z 	c #FA7B02",
"A 	c #F87C05",
"B 	c #F37C0C",
"C 	c #EE7B13",
"D 	c #E48D4F",
"E 	c #E88945",
"F 	c #F18228",
"G 	c #F67E07",
"H 	c #F87E04",
"I 	c #F97E03",
"J 	c #F87E02",
"K 	c #F87F04",
"L 	c #F78009",
"M 	c #F4800E",
"N 	c #EF7F11",
"O 	c #F07E10",
"P 	c #F77F0A",
"Q 	c #FA7F05",
"R 	c #F97F03",
"S 	c #F77F03",
"T 	c #F57F05",
"U 	c #ED7D15",
"V 	c #D97927",
"W 	c #CC762F",
"X 	c #E68730",
"Y 	c #EA8529",
"Z 	c #F38217",
"` 	c #F88106",
" .	c #F78206",
"..	c #F4810E",
"+.	c #EF801A",
"@.	c #EF801B",
"#.	c #F38115",
"$.	c #F28111",
"%.	c #EB8015",
"&.	c #EB7F14",
"*.	c #F1800E",
"=.	c #F48109",
"-.	c #F68105",
";.	c #F68202",
">.	c #ED7F12",
",.	c #DB7B24",
"'.	c #D1792A",
").	c #CF8648",
"!.	c #D9853F",
"~.	c #EC8524",
"{.	c #F58608",
"].	c #F5870A",
"^.	c #EE851D",
"/.	c #DE812F",
"(.	c #D87F34",
"_.	c #E47F12",
":.	c #E8810F",
"<.	c #F18306",
"[.	c #F58502",
"}.	c #F48502",
"|.	c #EE830C",
"1.	c #E18018",
"2.	c #DA7E1D",
"3.	c #C28551",
"4.	c #D08545",
"5.	c #E48629",
"6.	c #EA892A",
"7.	c #E88E43",
"8.	c #E28D49",
"9.	c #D38443",
"0.	c #C97F3F",
"a.	c #DD852B",
"b.	c #E58410",
"c.	c #EE8607",
"d.	c #F38802",
"e.	c #F28802",
"f.	c #EC860C",
"g.	c #E08318",
"h.	c #D9811D",
"i.	c #D68528",
"j.	c #D48B48",
"k.	c #CE966F",
"l.	c #CA997A",
"m.	c #B79983",
"n.	c #C9956F",
"o.	c #E18E3F",
"p.	c #EC8B0E",
"q.	c #EF8B07",
"r.	c #F08B02",
"s.	c #F18B02",
"t.	c #E88813",
"u.	c #D68324",
"v.	c #CD812B",
"w.	c #CD8528",
"x.	c #C88C52",
"y.	c #BF9A7F",
"z.	c #BAA08F",
"A.	c #C49874",
"B.	c #D09665",
"C.	c #E5923D",
"D.	c #EE900B",
"E.	c #EE8F06",
"F.	c #EE8E04",
"G.	c #ED8E06",
"H.	c #E68C15",
"I.	c #D38528",
"J.	c #C68130",
"K.	c #B79A7B",
"L.	c #C4996E",
"M.	c #D79754",
"N.	c #E2963D",
"O.	c #E99423",
"P.	c #EC9305",
"Q.	c #EB9304",
"R.	c #EA9307",
"S.	c #E9920E",
"T.	c #E59115",
"U.	c #C49A6B",
"V.	c #CE9A5F",
"W.	c #E09839",
"X.	c #E9970D",
"Y.	c #EA9606",
"Z.	c #EA9605",
"`.	c #E89709",
" +	c #E59729",
".+	c #DE9845",
"++	c #DB984F",
"@+	c #BB9563",
"#+	c #C6975A",
"$+	c #D79B4A",
"%+	c #E09C39",
"&+	c #E59A21",
"*+	c #E89A07",
"=+	c #E89A05",
"-+	c #E79A09",
";+	c #E59A12",
">+	c #DC9C46",
",+	c #CD9F72",
"'+	c #C5A181",
")+	c #C79A56",
"!+	c #D09B4C",
"~+	c #E09D2E",
"{+	c #E89F0E",
"]+	c #E79E08",
"^+	c #E69D09",
"/+	c #E39C10",
"(+	c #E29B14",
"_+	c #E19C18",
":+	c #D89E50",
"<+	c #C4A382",
"[+	c #B9A593",
"}+	c #BF9A52",
"|+	c #C99D4A",
"1+	c #D8A03B",
"2+	c #E0A22D",
"3+	c #E5A21A",
"4+	c #E7A308",
"5+	c #E7A307",
"6+	c #E2A111",
"7+	c #DA9C1E",
"8+	c #D79A23",
"9+	c #C9A048",
"0+	c #D1A23E",
"a+	c #E0A624",
"b+	c #E7A808",
"c+	c #E7A707",
"d+	c #E4A612",
"e+	c #DEA321",
"f+	c #D9A027",
"g+	c #D39C28",
"h+	c #D09929",
"i+	c #C2A14D",
"j+	c #CAA444",
"k+	c #D7A933",
"l+	c #DEAB24",
"m+	c #E4AB14",
"n+	c #E6AC06",
"o+	c #E6AC07",
"p+	c #DEA821",
"q+	c #CC9F39",
"r+	c #C49A41",
"s+	c #CAA849",
"t+	c #D2AA3B",
"u+	c #DEAF22",
"v+	c #E5B106",
"w+	c #E6B004",
"x+	c #E6B107",
"y+	c #DDAD22",
"z+	c #C9A23A",
"A+	c #C09E41",
"B+	c #BAA67A",
"C+	c #C6AB69",
"D+	c #D7B143",
"E+	c #DFB423",
"F+	c #E3B413",
"G+	c #E5B504",
"H+	c #E6B502",
"I+	c #E6B603",
"J+	c #E5B605",
"K+	c #E0B314",
"L+	c #D4AC24",
"M+	c #D0AA27",
"N+	c #D5AF22",
"O+	c #DBB41D",
"P+	c #E0B71A",
"Q+	c #E5BA16",
"R+	c #E8BD12",
"S+	c #E1BC4E",
"T+	c #CFB780",
"U+	c #C5B592",
"V+	c #BCA66D",
"W+	c #C7AC5F",
"X+	c #DCB739",
"Y+	c #E5BB0A",
"Z+	c #E5BA05",
"`+	c #E6B902",
" @	c #E6BA02",
".@	c #E5BB03",
"+@	c #E2B907",
"@@	c #DCB50D",
"#@	c #DAB312",
"$@	c #DBB517",
"%@	c #DEB718",
"&@	c #E2B915",
"*@	c #E5BC12",
"=@	c #E7BE0F",
"-@	c #E0BD4E",
";@	c #CFB982",
">@	c #C5B794",
",@	c #BFA548",
"'@	c #C9AC3F",
")@	c #DCBA24",
"!@	c #E5C004",
"~@	c #E6BF02",
"{@	c #E6BE02",
"]@	c #E6BF03",
"^@	c #E5BF03",
"/@	c #E5BE03",
"(@	c #E3BD06",
"_@	c #E2BC09",
":@	c #E4BC0B",
"<@	c #E4BD0B",
"[@	c #E4BF09",
"}@	c #E5C008",
"|@	c #E7C107",
"1@	c #E0BF4F",
"2@	c #CFBB85",
"3@	c #C6BA97",
"4@	c #BDA029",
"5@	c #C7A823",
"6@	c #DAB612",
"7@	c #E3BC01",
"8@	c #E3BC02",
"9@	c #E2BC03",
"0@	c #E3BB02",
"a@	c #E3BB03",
"b@	c #E4BB02",
"c@	c #E2BC02",
"d@	c #E2BD03",
"e@	c #E4BD04",
"f@	c #DFBD48",
"g@	c #D0BC81",
"h@	c #C6BB99",
"i@	c #B8962A",
"j@	c #C29D24",
"k@	c #D4AB12",
"l@	c #DDB101",
"m@	c #DDB001",
"n@	c #DCB001",
"o@	c #DCB002",
"p@	c #DDB002",
"q@	c #DCB103",
"r@	c #DDB103",
"s@	c #DCB105",
"t@	c #DDB106",
"u@	c #DFB207",
"v@	c #DEB32D",
"w@	c #AD8832",
"x@	c #B68F2F",
"y@	c #C89C28",
"z@	c #CFA126",
"A@	c #CFA22A",
"B@	c #CFA22D",
"C@	c #CEA22F",
"D@	c #CFA332",
"E@	c #CFA337",
"F@	c #D0A53C",
"G@	c #D1A642",
"H@	c #D1A848",
"I@	c #D2AA4D",
"J@	c #D4AA47",
"K@	c #D7AB2D",
"L@	c #DAAC08",
"M@	c #DCAD09",
"N@	c #DDAD09",
"O@	c #9A773F",
"P@	c #A27D40",
"Q@	c #B28740",
"R@	c #B98C44",
"S@	c #B88E4A",
"T@	c #B78F4F",
"U@	c #B69052",
"V@	c #B79257",
"W@	c #B8945E",
"X@	c #BB9867",
"Y@	c #BE9D71",
"Z@	c #C1A27A",
"`@	c #C3A782",
" #	c #C6A981",
".#	c #8F6D45",
"+#	c #977246",
"@#	c #A57B49",
"##	c #AC804E",
"$#	c #AB8356",
"%#	c #AA855B",
"&#	c #A9865E",
"*#	c #A98964",
"=#	c #AB8C6C",
"-#	c #AF9276",
";#	c #B49981",
">#	c #B99F8B",
",#	c #BCA594",
"'#	c #BDA898",
"                                                                ",
"                                                                ",
"                            . + @ #                             ",
"                            $ % & *                             ",
"                    = - ; > , ' ) ! ~ { ] ^                     ",
"                    / ( _ : < [ } | 1 2 3 4                     ",
"            5 6 7 8 9 0 a b c d e d f g h i j k                 ",
"            l m n o p q r s t u v w x y z A B C                 ",
"            D E F G H I J K L M N O P Q R S T U V W             ",
"            X Y Z `  ...+.@.#.$.%.&.*.=.-.;.;.>.,.'.            ",
"            ).!.~.{.].^./.(.        _.:.<.[.}.|.1.2.            ",
"            3.4.5.6.7.8.9.0.        a.b.c.d.e.f.g.h.            ",
"                i.j.k.l.        m.n.o.p.q.r.s.t.u.v.            ",
"                w.x.y.z.        A.B.C.D.E.F.G.H.I.J.            ",
"                            K.L.M.N.O.P.Q.R.S.T.                ",
"                            U.V.W.X.Y.Z.`. +.+++                ",
"                        @+#+$+%+&+*+=+-+;+>+,+'+                ",
"                        )+!+~+{+]+^+/+(+_+:+<+[+                ",
"                    }+|+1+2+3+4+5+6+7+8+                        ",
"                    9+0+a+b+c+d+e+f+g+h+                        ",
"                i+j+k+l+m+n+o+p+q+r+                            ",
"                s+t+u+v+w+w+x+y+z+A+                            ",
"            B+C+D+E+F+G+H+I+J+K+L+M+N+O+P+Q+R+S+T+U+            ",
"            V+W+X+Y+Z+`+ @ @.@+@@@#@$@%@&@*@=@-@;@>@            ",
"            ,@'@)@!@~@{@]@^@~@/@(@_@:@<@[@}@|@1@2@3@            ",
"            4@5@6@7@7@8@9@9@8@0@a@a@b@b@c@d@e@f@g@h@            ",
"            i@j@k@l@m@n@o@o@m@m@p@q@r@r@s@t@u@v@                ",
"            w@x@y@z@A@B@C@D@E@F@G@H@I@J@K@L@M@N@                ",
"            O@P@Q@R@S@T@U@V@W@X@Y@Z@`@ #                        ",
"            .#+#@###$#%#&#*#=#-#;#>#,#'#                        ",
"                                                                ",
"                                                                "};
