/* XPM */
static char * score1_xpm[] = {
"32 32 232 2",
"  	c None",
". 	c #B9744E",
"+ 	c #C07346",
"@ 	c #CD7032",
"# 	c #D76F1F",
"$ 	c #DD7018",
"% 	c #E67210",
"& 	c #EE750F",
"* 	c #E87B38",
"= 	c #D2845A",
"- 	c #C58967",
"; 	c #CD7644",
"> 	c #D2743C",
", 	c #DA732B",
"' 	c #E1721A",
") 	c #E67313",
"! 	c #EC740B",
"~ 	c #F2760B",
"{ 	c #EA7D3A",
"] 	c #D4875E",
"^ 	c #C68C6C",
"/ 	c #C97948",
"( 	c #D57940",
"_ 	c #E67831",
": 	c #EE7723",
"< 	c #F07717",
"[ 	c #F2770D",
"} 	c #F47708",
"| 	c #F77700",
"1 	c #F87804",
"2 	c #EE7F3E",
"3 	c #D78B66",
"4 	c #C99075",
"5 	c #D67B3E",
"6 	c #E17B35",
"7 	c #F27B1F",
"8 	c #FA7B03",
"9 	c #FA7B00",
"0 	c #FA7A01",
"a 	c #FB7A00",
"b 	c #FC7A00",
"c 	c #EF8242",
"d 	c #D78E6C",
"e 	c #C8947C",
"f 	c #CD7C3F",
"g 	c #D77D38",
"h 	c #E67E2C",
"i 	c #EF7E1F",
"j 	c #F57E0F",
"k 	c #F87E00",
"l 	c #F87D00",
"m 	c #F97D00",
"n 	c #FA7D00",
"o 	c #FA7D01",
"p 	c #ED8544",
"q 	c #D5916F",
"r 	c #C6977F",
"s 	c #D37E38",
"t 	c #DD7F30",
"u 	c #EC811E",
"v 	c #F2800A",
"w 	c #EF7E05",
"x 	c #EF7E03",
"y 	c #F37F02",
"z 	c #F68001",
"A 	c #F78001",
"B 	c #F87F00",
"C 	c #F88001",
"D 	c #EB8846",
"E 	c #D39372",
"F 	c #C39983",
"G 	c #DE8127",
"H 	c #E38223",
"I 	c #EA8419",
"J 	c #E98213",
"K 	c #DF7C15",
"L 	c #E17C12",
"M 	c #ED8108",
"N 	c #F48302",
"O 	c #F68301",
"P 	c #F68200",
"Q 	c #F68302",
"R 	c #EA8B48",
"S 	c #D29675",
"T 	c #C29C87",
"U 	c #E48319",
"V 	c #E68417",
"W 	c #E98517",
"X 	c #E1842B",
"Y 	c #D2823D",
"Z 	c #D6833A",
"` 	c #E98522",
" .	c #F38602",
"..	c #F48600",
"+.	c #F58600",
"@.	c #F48702",
"#.	c #EB8C42",
"$.	c #D49672",
"%.	c #C29D89",
"&.	c #C89165",
"*.	c #D2905B",
"=.	c #E78C37",
"-.	c #F28901",
";.	c #F38900",
">.	c #F38A03",
",.	c #EF8C29",
"'.	c #C39B79",
").	c #D09769",
"!.	c #E69140",
"~.	c #F18D01",
"{.	c #F18D00",
"].	c #F18D02",
"^.	c #F18E03",
"/.	c #C39D7B",
"(.	c #D09A6B",
"_.	c #E59441",
":.	c #EF9002",
"<.	c #EF9000",
"[.	c #EE9103",
"}.	c #EF9204",
"|.	c #EF9201",
"1.	c #C49F7C",
"2.	c #D09C6B",
"3.	c #E39742",
"4.	c #ED9402",
"5.	c #EC9400",
"6.	c #EC9503",
"7.	c #EC9605",
"8.	c #ED9606",
"9.	c #C3A27D",
"0.	c #CE9F6C",
"a.	c #E19B42",
"b.	c #EA9802",
"c.	c #E99800",
"d.	c #E89903",
"e.	c #EA9A07",
"f.	c #EA9B09",
"g.	c #C3A47D",
"h.	c #CDA26D",
"i.	c #DF9E43",
"j.	c #E79C02",
"k.	c #E69C00",
"l.	c #E69D05",
"m.	c #E89F0A",
"n.	c #E89F0D",
"o.	c #C2A57D",
"p.	c #CDA46D",
"q.	c #DEA243",
"r.	c #E6A103",
"s.	c #E5A100",
"t.	c #E5A206",
"u.	c #E6A30D",
"v.	c #E7A410",
"w.	c #C3A980",
"x.	c #CDA86F",
"y.	c #DDA644",
"z.	c #E5A503",
"A.	c #E4A500",
"B.	c #E4A608",
"C.	c #E6A810",
"D.	c #E7A914",
"E.	c #C6AE84",
"F.	c #CFAD73",
"G.	c #DEAB47",
"H.	c #E5AA03",
"I.	c #E4AA00",
"J.	c #E4AB0A",
"K.	c #E6AD14",
"L.	c #E7AE18",
"M.	c #C7B287",
"N.	c #D0B176",
"O.	c #DEAF49",
"P.	c #E5AF03",
"Q.	c #E4AF00",
"R.	c #E4B00B",
"S.	c #E6B216",
"T.	c #E7B21A",
"U.	c #C8B488",
"V.	c #D0B476",
"W.	c #DEB449",
"X.	c #E5B402",
"Y.	c #E4B400",
"Z.	c #E5B50B",
"`.	c #E7B616",
" +	c #E8B71A",
".+	c #C9B789",
"++	c #D1B777",
"@+	c #DFB84A",
"#+	c #E6B902",
"$+	c #E5B900",
"%+	c #E5B90B",
"&+	c #E7BB15",
"*+	c #E8BB1A",
"=+	c #C9BA8B",
"-+	c #D1BB79",
";+	c #DFBC4B",
">+	c #E6BE03",
",+	c #E5BE00",
"'+	c #E5BE0B",
")+	c #E7BF15",
"!+	c #E7BF19",
"~+	c #CABB8C",
"{+	c #D3BC75",
"]+	c #DFBC42",
"^+	c #E4BD00",
"/+	c #E4BD08",
"(+	c #E4BD14",
"_+	c #E4BE18",
":+	c #DEB62A",
"<+	c #E0B602",
"[+	c #DFB600",
"}+	c #DFB609",
"|+	c #DEB613",
"1+	c #DDB618",
"2+	c #D3AB3D",
"3+	c #D3AA39",
"4+	c #D2A82F",
"5+	c #D0A726",
"6+	c #CEA61F",
"7+	c #CEA51B",
"8+	c #BD9E65",
"9+	c #BC9B5E",
"0+	c #BB954F",
"a+	c #B8903E",
"b+	c #B68C2D",
"c+	c #B58A22",
"d+	c #B09674",
"e+	c #AF926C",
"f+	c #AC8A5B",
"g+	c #A98247",
"h+	c #A77B33",
"i+	c #A57825",
"                                                                ",
"                                                                ",
"                                                                ",
"                                                                ",
"                        . + @ # $ % & * = -                     ",
"                        ; > , ' ) ! ~ { ] ^                     ",
"                    / ( _ : < [ } | 1 2 3 4                     ",
"                    5 6 7 8 9 0 a b a c d e                     ",
"                f g h i j k k l m n o p q r                     ",
"                s t u v w x y z A B C D E F                     ",
"                G H I J K L M N O P Q R S T                     ",
"                U V W X Y Z `  ...+.@.#.$.%.                    ",
"                        &.*.=.-.;.;.>.,.                        ",
"                        '.).!.~.{.].^.^.                        ",
"                        /.(._.:.<.[.}.|.                        ",
"                        1.2.3.4.5.6.7.8.                        ",
"                        9.0.a.b.c.d.e.f.                        ",
"                        g.h.i.j.k.l.m.n.                        ",
"                        o.p.q.r.s.t.u.v.                        ",
"                        w.x.y.z.A.B.C.D.                        ",
"                        E.F.G.H.I.J.K.L.                        ",
"                        M.N.O.P.Q.R.S.T.                        ",
"                        U.V.W.X.Y.Z.`. +                        ",
"                        .+++@+#+$+%+&+*+                        ",
"                        =+-+;+>+,+'+)+!+                        ",
"                        ~+{+]+^+^+/+(+_+                        ",
"                            :+<+[+}+|+1+                        ",
"                            2+3+4+5+6+7+                        ",
"                            8+9+0+a+b+c+                        ",
"                            d+e+f+g+h+i+                        ",
"                                                                ",
"                                                                "};
