/* XPM */
static char * score9_xpm[] = {
"32 32 290 2",
"  	c None",
". 	c #C57A54",
"+ 	c #CD7749",
"@ 	c #DA712D",
"# 	c #E36E07",
"$ 	c #E66F07",
"% 	c #DE7227",
"& 	c #CE753F",
"* 	c #C47649",
"= 	c #D87A45",
"- 	c #DA773F",
"; 	c #E37326",
"> 	c #E97106",
", 	c #EC7205",
"' 	c #E67321",
") 	c #DB7536",
"! 	c #D3763E",
"~ 	c #B98F7C",
"{ 	c #C98A6D",
"] 	c #E48046",
"^ 	c #F07A20",
"/ 	c #EF7926",
"( 	c #F07825",
"_ 	c #F27715",
": 	c #F47604",
"< 	c #F57603",
"[ 	c #F47611",
"} 	c #EF7720",
"| 	c #E77729",
"1 	c #D97631",
"2 	c #CE7536",
"3 	c #C98C6F",
"4 	c #D6875E",
"5 	c #E97F3C",
"6 	c #F57B11",
"7 	c #F97A05",
"8 	c #F97A06",
"9 	c #F67907",
"0 	c #F67905",
"a 	c #F97900",
"b 	c #FA7900",
"c 	c #FA7902",
"d 	c #F27917",
"e 	c #E27828",
"f 	c #D9782F",
"g 	c #B79784",
"h 	c #C89174",
"i 	c #DD8856",
"j 	c #EA823A",
"k 	c #F27E22",
"l 	c #F77D09",
"m 	c #F87D06",
"n 	c #F67C09",
"o 	c #EF7A0D",
"p 	c #EF7A0E",
"q 	c #F47C0B",
"r 	c #F87D07",
"s 	c #F97C03",
"t 	c #F67B0B",
"u 	c #EF7C18",
"v 	c #EB7C1D",
"w 	c #C49273",
"x 	c #D28E64",
"y 	c #E9853E",
"z 	c #F48008",
"A 	c #F57F00",
"B 	c #F67E06",
"C 	c #F77F09",
"D 	c #F47D0C",
"E 	c #EB7B11",
"F 	c #E67D2A",
"G 	c #E8823D",
"H 	c #ED833A",
"I 	c #F48022",
"J 	c #F87F04",
"K 	c #F67F06",
"L 	c #F18015",
"M 	c #D88949",
"N 	c #E0873F",
"O 	c #EE8324",
"P 	c #F48102",
"Q 	c #F28108",
"R 	c #F1810E",
"S 	c #CF8C68",
"T 	c #D98B5E",
"U 	c #ED8539",
"V 	c #F88204",
"W 	c #F78200",
"X 	c #EC811D",
"Y 	c #D37D35",
"Z 	c #BF7B41",
"` 	c #E78611",
" .	c #EB850D",
"..	c #F18406",
"+.	c #F08315",
"@.	c #E98327",
"#.	c #E4832E",
"$.	c #BB927D",
"%.	c #D08E68",
"&.	c #EB893C",
"*.	c #F68605",
"=.	c #F68500",
"-.	c #E8821D",
";.	c #D07D32",
">.	c #C07A3B",
",.	c #EF8B06",
"'.	c #F18A02",
").	c #F38802",
"!.	c #EB8624",
"~.	c #DA843D",
"{.	c #D08448",
"].	c #EE8B28",
"^.	c #F38A07",
"/.	c #E78416",
"(.	c #D17D28",
"_.	c #C3792F",
":.	c #F28F0C",
"<.	c #F38E07",
"[.	c #F38B04",
"}.	c #E88825",
"|.	c #D38640",
"1.	c #C7844B",
"2.	c #ED8D13",
"3.	c #F18C06",
"4.	c #F18B03",
"5.	c #E68717",
"6.	c #D0802A",
"7.	c #C37C31",
"8.	c #F1920D",
"9.	c #F19109",
"0.	c #F08F05",
"a.	c #E78B1D",
"b.	c #D68732",
"c.	c #CC853A",
"d.	c #CC8B3A",
"e.	c #D88C30",
"f.	c #E88E1A",
"g.	c #EF8E02",
"h.	c #EF8E01",
"i.	c #E38A1F",
"j.	c #CE8536",
"k.	c #C1823F",
"l.	c #EA9311",
"m.	c #EB920D",
"n.	c #ED9107",
"o.	c #E88F13",
"p.	c #DD8C22",
"q.	c #D68B27",
"r.	c #D78F32",
"s.	c #DC8F2C",
"t.	c #E79019",
"u.	c #ED9102",
"v.	c #ED9203",
"w.	c #E48F20",
"x.	c #D0893A",
"y.	c #C08546",
"z.	c #DF9215",
"A.	c #E39311",
"B.	c #E99309",
"C.	c #EA940A",
"D.	c #E59413",
"E.	c #E19418",
"F.	c #DE9519",
"G.	c #E19619",
"H.	c #E4961B",
"I.	c #E4951D",
"J.	c #E6951A",
"K.	c #E9950F",
"L.	c #EB9506",
"M.	c #EB9608",
"N.	c #E79516",
"O.	c #D99217",
"P.	c #DE9414",
"Q.	c #E5960E",
"R.	c #E8980B",
"S.	c #E89A0A",
"T.	c #E69A0D",
"U.	c #E29911",
"V.	c #E09913",
"W.	c #E29815",
"X.	c #E59812",
"Y.	c #E9990A",
"Z.	c #EA9905",
"`.	c #E99905",
" +	c #E89906",
".+	c #E79909",
"++	c #E7990A",
"@+	c #E19A14",
"#+	c #E39C12",
"$+	c #E79E0D",
"%+	c #E79E0B",
"&+	c #E59F0D",
"*+	c #E49E0E",
"=+	c #E49D0D",
"-+	c #E59C0A",
";+	c #E79C05",
">+	c #E89D02",
",+	c #E79D03",
"'+	c #E49C09",
")+	c #E19B11",
"!+	c #DF9B14",
"~+	c #DE9D18",
"{+	c #E19E14",
"]+	c #E59F0F",
"^+	c #E39F22",
"/+	c #DB9D34",
"(+	c #DB9E32",
"_+	c #E1A01E",
":+	c #E4A106",
"<+	c #E5A102",
"[+	c #E6A101",
"}+	c #E6A104",
"|+	c #E1A022",
"1+	c #D89E3A",
"2+	c #D39D43",
"3+	c #BD945A",
"4+	c #C59951",
"5+	c #DAA232",
"6+	c #E4A708",
"7+	c #E4A701",
"8+	c #E5A600",
"9+	c #E6A608",
"0+	c #DEA538",
"a+	c #CDA15B",
"b+	c #C39F68",
"c+	c #AD9363",
"d+	c #BE9A56",
"e+	c #D8A635",
"f+	c #E5AC08",
"g+	c #E4AC00",
"h+	c #E3AB06",
"i+	c #E1A915",
"j+	c #D9A73D",
"k+	c #C8A364",
"l+	c #BAA177",
"m+	c #BD9F4F",
"n+	c #C9A444",
"o+	c #DCAC29",
"p+	c #E6B005",
"q+	c #E5B001",
"r+	c #E0AE11",
"s+	c #D9A921",
"t+	c #D3A635",
"u+	c #CFAB39",
"v+	c #D6AE2F",
"w+	c #E0B21B",
"x+	c #E5B405",
"y+	c #E4B408",
"z+	c #DEB116",
"A+	c #D5AA25",
"B+	c #CEA62D",
"C+	c #C9AB44",
"D+	c #D0AF3B",
"E+	c #DBB42A",
"F+	c #E1B71A",
"G+	c #E4B80D",
"H+	c #E3B809",
"I+	c #E1B712",
"J+	c #DEB419",
"K+	c #CFB141",
"L+	c #D7B532",
"M+	c #E1BB1D",
"N+	c #E5BD06",
"O+	c #E4BD06",
"P+	c #E2BB0D",
"Q+	c #E0B916",
"R+	c #DEB71A",
"S+	c #ADA16B",
"T+	c #BFAB5C",
"U+	c #D5B83D",
"V+	c #E0BE21",
"W+	c #E3BF10",
"X+	c #E4C007",
"Y+	c #E2BF0D",
"Z+	c #E1BE12",
"`+	c #BDA95E",
" @	c #D1B446",
".@	c #DBB830",
"+@	c #DDB81C",
"@@	c #DFBA0D",
"#@	c #E0BD10",
"$@	c #E1C014",
"%@	c #BFA45A",
"&@	c #C6A54C",
"*@	c #D0A631",
"=@	c #D6A913",
"-@	c #B19765",
";@	c #BA9858",
">@	c #C89A39",
",@	c #CF9B16",
"                                                                ",
"                                                                ",
"                            . + @ # $ % & *                     ",
"                            = - ; > , ' ) !                     ",
"                    ~ { ] ^ / ( _ : < [ } | 1 2                 ",
"                    3 4 5 6 7 8 9 0 a b c d e f                 ",
"                g h i j k l m n o p q r s t u v                 ",
"                w x y z A B C D E F G H I J K L                 ",
"                M N O P Q R         S T U V W X Y Z             ",
"                `  ...+.@.#.        $.%.&.*.=.-.;.>.            ",
"                ,.'.).!.~.{.            ].^.)./.(._.            ",
"                :.<.[.}.|.1.            2.3.4.5.6.7.            ",
"                8.9.0.a.b.c.        d.e.f.g.h.i.j.k.            ",
"                l.m.n.o.p.q.        r.s.t.u.v.w.x.y.            ",
"                z.A.B.C.D.E.F.F.G.H.I.J.K.L.M.N.                ",
"                O.P.Q.R.S.T.U.V.W.X.Y.Z.`. +.+++                ",
"                    @+#+$+%+&+*+=+-+;+>+,+'+)+!+                ",
"                    ~+{+]+^+/+(+_+:+<+[+}+|+1+2+                ",
"                            3+4+5+6+7+8+9+0+a+b+                ",
"                            c+d+e+f+g+h+i+j+k+l+                ",
"                            m+n+o+p+q+r+s+t+                    ",
"                            u+v+w+x+y+z+A+B+                    ",
"                        C+D+E+F+G+H+I+J+                        ",
"                        K+L+M+N+O+P+Q+R+                        ",
"                    S+T+U+V+W+X+Y+Z+                            ",
"                    S+`+ @.@+@@@#@$@                            ",
"                        %@&@*@=@                                ",
"                        -@;@>@,@                                ",
"                                                                ",
"                                                                ",
"                                                                ",
"                                                                "};
