/* XPM */
static char * score0_xpm[] = {
"32 32 367 2",
"  	c None",
". 	c #BE8F7A",
"+ 	c #C1876C",
"@ 	c #C5774C",
"# 	c #C86D31",
"$ 	c #C87139",
"% 	c #C6805C",
"& 	c #C2947F",
"* 	c #C09D8E",
"= 	c #D28866",
"- 	c #D2835E",
"; 	c #D57742",
"> 	c #D7702A",
", 	c #D77331",
"' 	c #D57E50",
") 	c #D38D6F",
"! 	c #D09278",
"~ 	c #E37519",
"{ 	c #E6782B",
"] 	c #EB7D3B",
"^ 	c #EE7C39",
"/ 	c #EE7727",
"( 	c #EF7517",
"_ 	c #EE761C",
": 	c #EE7A30",
"< 	c #ED8044",
"[ 	c #E5814B",
"} 	c #D37B49",
"| 	c #C57746",
"1 	c #E97815",
"2 	c #EE7811",
"3 	c #F67809",
"4 	c #FB7903",
"5 	c #FB7802",
"6 	c #FA7802",
"7 	c #FB7901",
"8 	c #FA7904",
"9 	c #F0791D",
"0 	c #DF7934",
"a 	c #D27E4B",
"b 	c #EE7D18",
"c 	c #EF7C15",
"d 	c #F17B0E",
"e 	c #F47B07",
"f 	c #F87B00",
"g 	c #FA7B00",
"h 	c #FB7A00",
"i 	c #FB7A01",
"j 	c #FA7A00",
"k 	c #F67B04",
"l 	c #EF7C1F",
"m 	c #E38751",
"n 	c #CF9A81",
"o 	c #BFA698",
"p 	c #EF7E15",
"q 	c #F27E11",
"r 	c #F67E08",
"s 	c #F77E01",
"t 	c #F87E00",
"u 	c #F77E00",
"v 	c #F67D04",
"w 	c #F67D06",
"x 	c #F97D03",
"y 	c #FA7D01",
"z 	c #F97D02",
"A 	c #F97E00",
"B 	c #F87F08",
"C 	c #EB884A",
"D 	c #D19576",
"E 	c #C29C87",
"F 	c #DD801D",
"G 	c #E58018",
"H 	c #F08010",
"I 	c #F68008",
"J 	c #F78004",
"K 	c #F68105",
"L 	c #F58209",
"M 	c #F2820D",
"N 	c #EE8110",
"O 	c #EF8110",
"P 	c #F4810B",
"Q 	c #F78107",
"R 	c #F88005",
"S 	c #F88000",
"T 	c #F78104",
"U 	c #EB8332",
"V 	c #D58653",
"W 	c #C7885F",
"X 	c #E0842E",
"Y 	c #E88315",
"Z 	c #F18309",
"` 	c #F68300",
" .	c #F58303",
"..	c #F0862C",
"+.	c #E98C49",
"@.	c #E58C4C",
"#.	c #E58635",
"$.	c #E78323",
"%.	c #E9852E",
"&.	c #ED852C",
"*.	c #F3841A",
"=.	c #F68304",
"-.	c #F68303",
";.	c #EC8219",
">.	c #DB7F2C",
",.	c #D17D33",
"'.	c #BD987E",
").	c #CE9369",
"!.	c #E48B3E",
"~.	c #EF870B",
"{.	c #F28701",
"].	c #F28700",
"^.	c #EF870E",
"/.	c #E58E4A",
"(.	c #D49875",
"_.	c #CD9C81",
":.	c #D4884E",
"<.	c #DC8847",
"[.	c #EC872B",
"}.	c #F58704",
"|.	c #F48601",
"1.	c #EE850E",
"2.	c #E4841A",
"3.	c #DE831F",
"4.	c #C1936F",
"5.	c #CF9160",
"6.	c #E68D3B",
"7.	c #F18A03",
"8.	c #F18A00",
"9.	c #EC8B1B",
"0.	c #E48B34",
"a.	c #D8915B",
"b.	c #C79D84",
"c.	c #BAA59A",
"d.	c #C38A5E",
"e.	c #D48A4F",
"f.	c #E98B2D",
"g.	c #F28B08",
"h.	c #F28902",
"i.	c #EE8909",
"j.	c #E98911",
"k.	c #E68A14",
"l.	c #C98948",
"m.	c #D48A3E",
"n.	c #E58C25",
"o.	c #EF8E00",
"p.	c #F08E00",
"q.	c #E68E31",
"r.	c #D48F52",
"s.	c #C89266",
"t.	c #EC8F22",
"u.	c #EF8F0F",
"v.	c #EF8D06",
"w.	c #ED8D07",
"x.	c #EB8E0E",
"y.	c #E98F12",
"z.	c #D2881B",
"A.	c #D98B17",
"B.	c #E58F0C",
"C.	c #ED9101",
"D.	c #EE9206",
"E.	c #E59234",
"F.	c #CF925B",
"G.	c #BD926D",
"H.	c #EC9419",
"I.	c #EC9315",
"J.	c #EC910A",
"K.	c #EC9107",
"L.	c #EB930F",
"M.	c #EB9313",
"N.	c #DA9213",
"O.	c #DE930F",
"P.	c #E69408",
"Q.	c #EB9605",
"R.	c #EC970D",
"S.	c #E89825",
"T.	c #EA981D",
"U.	c #EA9719",
"V.	c #EA960D",
"W.	c #EB9608",
"X.	c #EA9711",
"Y.	c #EA9815",
"Z.	c #DF9915",
"`.	c #E29911",
" +	c #E69909",
".+	c #E99A09",
"++	c #E99C11",
"@+	c #E99D15",
"#+	c #E89C1D",
"$+	c #E89B19",
"%+	c #E99A0D",
"&+	c #E89B12",
"*+	c #E89C16",
"=+	c #E29D15",
"-+	c #E39D12",
";+	c #E69D09",
">+	c #E79E0B",
",+	c #E6A014",
"'+	c #E5A117",
")+	c #E9A119",
"!+	c #E8A015",
"~+	c #E59E12",
"{+	c #E49F16",
"]+	c #E2A117",
"^+	c #E3A113",
"/+	c #E5A109",
"(+	c #E6A20A",
"_+	c #E5A414",
":+	c #E5A518",
"<+	c #E5A52C",
"[+	c #E8A30F",
"}+	c #E7A106",
"|+	c #E4A008",
"1+	c #DF9F10",
"2+	c #DD9E13",
"3+	c #DFA418",
"4+	c #E1A514",
"5+	c #E4A50A",
"6+	c #E6A608",
"7+	c #E8A811",
"8+	c #E8A915",
"9+	c #BFA57F",
"0+	c #CDA66A",
"a+	c #DFA73E",
"b+	c #E7A708",
"c+	c #E6A600",
"d+	c #E1A209",
"e+	c #D79E13",
"f+	c #D29C17",
"g+	c #D9A41A",
"h+	c #DCA615",
"i+	c #E2A90A",
"j+	c #E6AB05",
"k+	c #E8AC0C",
"l+	c #E6AC23",
"m+	c #C6A770",
"n+	c #CFA861",
"o+	c #DEAA3B",
"p+	c #E6AB02",
"q+	c #E6AA00",
"r+	c #DFA720",
"s+	c #D0A137",
"t+	c #C89D40",
"u+	c #CEA223",
"v+	c #D4A51D",
"w+	c #DFAB0F",
"x+	c #E6AF00",
"y+	c #E7B006",
"z+	c #DFAE31",
"A+	c #CCA855",
"B+	c #BCA466",
"C+	c #D3AB49",
"D+	c #D8AC3F",
"E+	c #E0AE25",
"F+	c #E5AF00",
"G+	c #E6B002",
"H+	c #DDAC34",
"I+	c #CBA656",
"J+	c #C1A263",
"K+	c #C5A44C",
"L+	c #CEA841",
"M+	c #DDB027",
"N+	c #E6B400",
"O+	c #E6B401",
"P+	c #DFB22E",
"Q+	c #D1AD4D",
"R+	c #C9AB55",
"S+	c #DEB219",
"T+	c #DFB115",
"U+	c #E2B30A",
"V+	c #E4B400",
"W+	c #E4B406",
"X+	c #DCB136",
"Y+	c #CBAA5E",
"Z+	c #BDA571",
"`+	c #C0AA71",
" @	c #CBAF62",
".@	c #DCB63C",
"+@	c #E5BA04",
"@@	c #E6B900",
"#@	c #E3B81C",
"$@	c #DFB630",
"%@	c #DBB432",
"&@	c #D6B123",
"*@	c #D7B113",
"=@	c #DEB716",
"-@	c #E2B914",
";@	c #E3B80B",
">@	c #E4B804",
",@	c #E4B803",
"'@	c #E3B809",
")@	c #E1B715",
"!@	c #DDB52B",
"~@	c #BEAE80",
"{@	c #CAB36B",
"]@	c #DAB93F",
"^@	c #E2BC0E",
"/@	c #E4BC02",
"(@	c #E6BD06",
"_@	c #E6BD0A",
":@	c #E3BB0D",
"<@	c #DCB60D",
"[@	c #DAB60F",
"}@	c #E0BA13",
"|@	c #E4BC11",
"1@	c #E6BC08",
"2@	c #E7BD00",
"3@	c #E6BC00",
"4@	c #E1BB26",
"5@	c #D9B742",
"6@	c #D4B54D",
"7@	c #D7B930",
"8@	c #DCBB17",
"9@	c #E2BE0A",
"0@	c #E5BF02",
"a@	c #E6BF02",
"b@	c #E4BE03",
"c@	c #E1BD05",
"d@	c #E0BD07",
"e@	c #E4BF09",
"f@	c #E6BE05",
"g@	c #E7BF00",
"h@	c #E6C00B",
"i@	c #DDBC40",
"j@	c #CDB566",
"k@	c #C3B176",
"l@	c #D5B820",
"m@	c #D7B71C",
"n@	c #DBB715",
"o@	c #DDB60F",
"p@	c #E0B708",
"q@	c #E0B701",
"r@	c #E0B800",
"s@	c #DFB800",
"t@	c #DFB802",
"u@	c #DFB705",
"v@	c #DFB60B",
"w@	c #DEB729",
"x@	c #DBBA44",
"y@	c #D4B95E",
"z@	c #C4B378",
"A@	c #B9AE86",
"B@	c #CCA321",
"C@	c #CFA21D",
"D@	c #D6A512",
"E@	c #D9A608",
"F@	c #D8A605",
"G@	c #D7A506",
"H@	c #D7A609",
"I@	c #D5A508",
"J@	c #D1A214",
"K@	c #CCA545",
"L@	c #C6AB6C",
"M@	c #C2AF7D",
"N@	c #C19327",
"O@	c #C79620",
"P@	c #D09A16",
"Q@	c #D29D33",
"R@	c #CD9D4C",
"S@	c #D09C33",
"T@	c #D09A0A",
"U@	c #C99615",
"V@	c #C19950",
"W@	c #B8A27C",
"X@	c #B4A78E",
"Y@	c #C0A283",
"Z@	c #B7A79C",
"                                                                ",
"                                                                ",
"                            . + @ # $ % & *                     ",
"                            = - ; > , ' ) !                     ",
"                        ~ { ] ^ / ( _ : < [ } |                 ",
"                        1 2 3 4 5 5 6 7 8 9 0 a                 ",
"                    b c d e f g h i i h j k l m n o             ",
"                    p q r s t u v w x y z A B C D E             ",
"                F G H I J K L M N O P Q R S T U V W             ",
"                X Y Z `  ...+.@.#.$.%.&.*.=.-.;.>.,.            ",
"            '.).!.~.{.].^./.(._.    :.<.[.}.|.1.2.3.            ",
"            4.5.6.7.8.9.0.a.b.c.    d.e.f.g.h.i.j.k.            ",
"            l.m.n.o.p.q.r.s.            t.u.v.w.x.y.            ",
"            z.A.B.C.D.E.F.G.            H.I.J.K.L.M.            ",
"            N.O.P.Q.R.S.                T.U.V.W.X.Y.            ",
"            Z.`. +.+++@+                #+$+%+.+&+*+            ",
"            =+-+;+>+,+'+                )+!+>+;+~+{+            ",
"            ]+^+/+(+_+:+                <+[+}+|+1+2+            ",
"            3+4+5+6+7+8+            9+0+a+b+c+d+e+f+            ",
"            g+h+i+j+k+l+            m+n+o+p+q+r+s+t+            ",
"            u+v+w+x+y+z+A+B+        C+D+E+F+G+H+I+J+            ",
"            K+L+M+N+O+P+Q+R+        S+T+U+V+W+X+Y+Z+            ",
"            `+ @.@+@@@#@$@%@&@*@=@-@;@>@,@'@)@!@                ",
"            ~@{@]@^@/@(@_@:@<@[@}@|@1@2@3@4@5@6@                ",
"                7@8@9@0@a@b@c@d@9@e@f@g@h@i@j@k@                ",
"                l@m@n@o@p@q@r@s@t@u@v@w@x@y@z@A@                ",
"                    B@C@D@E@F@G@H@I@J@K@L@M@                    ",
"                    N@O@P@Q@R@R@S@T@U@V@W@X@                    ",
"                            Y@Y@                                ",
"                            Z@Z@                                ",
"                                                                ",
"                                                                "};
