/* XPM */
static char * score6_xpm[] = {
"32 32 299 2",
"  	c None",
". 	c #BB8771",
"+ 	c #C38264",
"@ 	c #D07A47",
"# 	c #D7752C",
"$ 	c #CB8564",
"% 	c #D28157",
"& 	c #DC7A3D",
"* 	c #E07625",
"= 	c #B88972",
"- 	c #C98665",
"; 	c #E0814C",
"> 	c #EB7D35",
", 	c #EF7A23",
"' 	c #EC7819",
") 	c #E2781F",
"! 	c #DA7824",
"~ 	c #C88968",
"{ 	c #D78456",
"] 	c #EC7F34",
"^ 	c #F87C05",
"/ 	c #F97B00",
"( 	c #EF7B1E",
"_ 	c #DD7B34",
": 	c #D27B3C",
"< 	c #BA9C8C",
"[ 	c #C9947A",
"} 	c #DD8856",
"| 	c #EA8135",
"1 	c #F47D1B",
"2 	c #F97C00",
"3 	c #F97E07",
"4 	c #EC7F2F",
"5 	c #D3804B",
"6 	c #C38056",
"7 	c #C8967A",
"8 	c #D4916B",
"9 	c #E98742",
"0 	c #F58009",
"a 	c #F77F00",
"b 	c #F58019",
"c 	c #EE812E",
"d 	c #E18242",
"e 	c #CB8357",
"f 	c #BA8362",
"g 	c #DE8A4D",
"h 	c #E48843",
"i 	c #EF8427",
"j 	c #F58200",
"k 	c #F78304",
"l 	c #EE842D",
"m 	c #DB844A",
"n 	c #CE8457",
"o 	c #E98416",
"p 	c #EE840D",
"q 	c #F18507",
"r 	c #F28404",
"s 	c #E48430",
"t 	c #CF8552",
"u 	c #BE8663",
"v 	c #CA8335",
"w 	c #D7852B",
"x 	c #E98715",
"y 	c #F18800",
"z 	c #F18801",
"A 	c #EB8608",
"B 	c #E08213",
"C 	c #D78025",
"D 	c #D4882E",
"E 	c #DC8927",
"F 	c #E98B16",
"G 	c #F18C02",
"H 	c #F08C01",
"I 	c #E88A09",
"J 	c #DC8513",
"K 	c #D78516",
"L 	c #E4901E",
"M 	c #E79019",
"N 	c #EC900D",
"O 	c #EE9002",
"P 	c #ED9002",
"Q 	c #EA8F06",
"R 	c #E58E0C",
"S 	c #E58F0E",
"T 	c #EB920B",
"U 	c #EF950A",
"V 	c #EC9612",
"W 	c #DF9434",
"X 	c #CA9051",
"Y 	c #BD8E5D",
"Z 	c #E99413",
"` 	c #EC9509",
" .	c #EC9404",
"..	c #EC9301",
"+.	c #EC9400",
"@.	c #EB9403",
"#.	c #EA950A",
"$.	c #EB960C",
"%.	c #ED9608",
"&.	c #EE9607",
"*.	c #EB960F",
"=.	c #E2952D",
"-.	c #D39347",
";.	c #C99356",
">.	c #C38D35",
",.	c #D1912C",
"'.	c #E49618",
").	c #EB9805",
"!.	c #EA9703",
"~.	c #EA9803",
"{.	c #EA9908",
"].	c #EA9911",
"^.	c #EB9A12",
"/.	c #EC990F",
"(.	c #EC990C",
"_.	c #EB980B",
":.	c #E89819",
"<.	c #E3982C",
"[.	c #D89A4A",
"}.	c #C79C6B",
"|.	c #B99E7C",
"1.	c #CA922F",
"2.	c #D39528",
"3.	c #E19917",
"4.	c #E99B03",
"5.	c #E89C04",
"6.	c #E59B19",
"7.	c #E19A2A",
"8.	c #E29A2D",
"9.	c #E69B22",
"0.	c #E69C30",
"a.	c #E19D44",
"b.	c #E29C41",
"c.	c #E69B28",
"d.	c #EA9B04",
"e.	c #EA9D09",
"f.	c #DF9D3B",
"g.	c #CB9C5F",
"h.	c #BE9C6D",
"i.	c #D69C21",
"j.	c #DB9D1C",
"k.	c #E29E10",
"l.	c #E69F03",
"m.	c #E6A108",
"n.	c #DF9F2C",
"o.	c #D29B47",
"p.	c #CE9A4E",
"q.	c #CA9F74",
"r.	c #D0A069",
"s.	c #DEA042",
"t.	c #E6A009",
"u.	c #E7A000",
"v.	c #DF9E26",
"w.	c #D19A40",
"x.	c #C8974A",
"y.	c #E0A516",
"z.	c #E1A412",
"A.	c #E3A30A",
"B.	c #E4A305",
"C.	c #E2A30E",
"D.	c #DAA12F",
"E.	c #CA9D50",
"F.	c #BE995E",
"G.	c #B8A18B",
"H.	c #C7A274",
"I.	c #DAA345",
"J.	c #E3A410",
"K.	c #E5A303",
"L.	c #DFA011",
"M.	c #D59B1E",
"N.	c #CF9823",
"O.	c #E5AC16",
"P.	c #E5AB12",
"Q.	c #E5A90A",
"R.	c #E1A609",
"S.	c #DBA413",
"T.	c #D5A225",
"U.	c #DCA731",
"V.	c #E1A814",
"W.	c #E3A80A",
"X.	c #E0A50E",
"Y.	c #D7A018",
"Z.	c #D29D1D",
"`.	c #E6B117",
" +	c #E6B013",
".+	c #E5AE09",
"++	c #E0AB0B",
"@+	c #D8A716",
"#+	c #D3A51B",
"$+	c #DDAD2D",
"%+	c #E2AD13",
"&+	c #E4AD09",
"*+	c #DFA917",
"=+	c #D4A428",
"-+	c #CEA02E",
";+	c #E5B417",
">+	c #E5B313",
",+	c #E5B209",
"'+	c #E1AF0B",
")+	c #D9AC17",
"!+	c #D4AA1B",
"~+	c #B8A77E",
"{+	c #C8AB69",
"]+	c #DDB13E",
"^+	c #E5B30B",
"/+	c #E5B202",
"(+	c #DDAD21",
"_+	c #CEA539",
":+	c #C5A142",
"<+	c #DEB31B",
"[+	c #E0B416",
"}+	c #E3B60B",
"|+	c #E2B509",
"1+	c #DDB214",
"2+	c #D9B118",
"3+	c #C6AD6A",
"4+	c #CFB060",
"5+	c #DFB53B",
"6+	c #E6B808",
"7+	c #E5B707",
"8+	c #DDB225",
"9+	c #CCA83E",
"0+	c #BFA14B",
"a+	c #D4B121",
"b+	c #D9B31C",
"c+	c #E1B80F",
"d+	c #E4BB07",
"e+	c #E3BA0C",
"f+	c #DEB811",
"g+	c #D5B515",
"h+	c #CEB119",
"i+	c #CDAE1D",
"j+	c #D2B130",
"k+	c #D8B640",
"l+	c #DDB93C",
"m+	c #E2BB24",
"n+	c #E4BC0C",
"o+	c #E3BB15",
"p+	c #DFB822",
"q+	c #CEAF24",
"r+	c #D6B41D",
"s+	c #E1BA0F",
"t+	c #E5BE04",
"u+	c #E5BE05",
"v+	c #E1BC0A",
"w+	c #D9B811",
"x+	c #D4B416",
"y+	c #D3B218",
"z+	c #D8B517",
"A+	c #E1BA11",
"B+	c #E4BD0C",
"C+	c #E2BD0C",
"D+	c #E1BD11",
"E+	c #E1BC1A",
"F+	c #E1BC1F",
"G+	c #E2BC13",
"H+	c #E4BD0E",
"I+	c #E2BD07",
"J+	c #E1BC05",
"K+	c #DFBA09",
"L+	c #DEB80C",
"M+	c #DCB80D",
"N+	c #DEB90A",
"O+	c #E2BB04",
"P+	c #E2BC07",
"Q+	c #DEBB11",
"R+	c #DCBB17",
"S+	c #D7B442",
"T+	c #D8B339",
"U+	c #D9B222",
"V+	c #DBB107",
"W+	c #DDB006",
"X+	c #DDB008",
"Y+	c #DBB008",
"Z+	c #D8B014",
"`+	c #D7B021",
" @	c #D7B224",
".@	c #D8B61F",
"+@	c #D9B91A",
"@@	c #BEA367",
"#@	c #C2A05A",
"$@	c #CA9C38",
"%@	c #D09A0F",
"&@	c #D29B0C",
"*@	c #D29B0E",
"=@	c #CF9B0E",
"-@	c #C99A23",
";@	c #C29938",
">@	c #C09C3E",
",@	c #AE9876",
"'@	c #B59467",
")@	c #C18E41",
"!@	c #C98B12",
"~@	c #CC8E0E",
"{@	c #CB8E11",
"]@	c #C78D12",
"^@	c #BF8B2A",
"/@	c #B48A41",
"(@	c #AE8A4B",
"                                                                ",
"                                                                ",
"                                                                ",
"                                                                ",
"                                . + @ #                         ",
"                                $ % & *                         ",
"                            = - ; > , ' ) !                     ",
"                            ~ { ] ^ / ( _ :                     ",
"                        < [ } | 1 2 3 4 5 6                     ",
"                        7 8 9 0 a b c d e f                     ",
"                        g h i j k l m n                         ",
"                        o p q r p s t u                         ",
"                    v w x y z A B C                             ",
"                    D E F G H I J K                             ",
"                    L M N O P Q R S T U V W X Y                 ",
"                    Z `  ...+.@.#.$.%.&.*.=.-.;.                ",
"                >.,.'.).!.!.~.{.].^./.(._.:.<.[.}.|.            ",
"                1.2.3.4.5.6.7.8.9.0.a.b.c.d.e.f.g.h.            ",
"                i.j.k.l.m.n.o.p.    q.r.s.t.u.v.w.x.            ",
"                y.z.A.B.C.D.E.F.    G.H.I.J.K.L.M.N.            ",
"                O.P.Q.R.S.T.            U.V.W.X.Y.Z.            ",
"                `. +.+++@+#+            $+%+&+*+=+-+            ",
"                ;+>+,+'+)+!+        ~+{+]+^+/+(+_+:+            ",
"                <+[+}+|+1+2+        3+4+5+6+7+8+9+0+            ",
"                a+b+c+d+e+f+g+h+i+j+k+l+m+n+o+p+                ",
"                q+r+s+t+u+v+w+x+y+z+A+B+C+D+E+F+                ",
"                    G+H+I+J+K+L+M+N+O+P+Q+R+                    ",
"                    S+T+U+V+W+X+Y+Z+`+ @.@+@                    ",
"                    @@#@$@%@&@*@=@-@;@>@                        ",
"                    ,@'@)@!@~@{@]@^@/@(@                        ",
"                                                                ",
"                                                                "};
