/* XPM */
static char * score7_xpm[] = {
"32 32 273 2",
"  	c None",
". 	c #C8937D",
"+ 	c #C68F78",
"@ 	c #C3886E",
"# 	c #C18165",
"$ 	c #C27E60",
"% 	c #C47D5B",
"& 	c #C97D56",
"* 	c #CC7B4F",
"= 	c #CE7747",
"- 	c #CD733D",
"; 	c #CA7132",
"> 	c #C86F2B",
", 	c #DB8B68",
"' 	c #D68968",
") 	c #D48360",
"! 	c #D37F58",
"~ 	c #D37C53",
"{ 	c #D57B4E",
"] 	c #D87B4A",
"^ 	c #DA7A44",
"/ 	c #DB773D",
"( 	c #D97434",
"_ 	c #D4722B",
": 	c #D17025",
"< 	c #F7790D",
"[ 	c #F87808",
"} 	c #FB7805",
"| 	c #F87A25",
"1 	c #F37E3B",
"2 	c #F07E40",
"3 	c #EF7B3A",
"4 	c #EF7935",
"5 	c #EF7832",
"6 	c #EF782F",
"7 	c #F0782C",
"8 	c #F17828",
"9 	c #F17723",
"0 	c #EC751E",
"a 	c #E4741A",
"b 	c #DE7318",
"c 	c #F67A0A",
"d 	c #F77906",
"e 	c #FA7900",
"f 	c #FC7900",
"g 	c #FC7901",
"h 	c #FC7801",
"i 	c #FC7802",
"j 	c #FC7800",
"k 	c #FB7801",
"l 	c #F47711",
"m 	c #E67620",
"n 	c #DE7526",
"o 	c #F27B0D",
"p 	c #F47B0A",
"q 	c #F87B04",
"r 	c #FB7C00",
"s 	c #FC7C00",
"t 	c #FB7B00",
"u 	c #FC7B00",
"v 	c #F07A1D",
"w 	c #DC7934",
"x 	c #D0783D",
"y 	c #E37E31",
"z 	c #E57F34",
"A 	c #EA8138",
"B 	c #F08133",
"C 	c #F77F1F",
"D 	c #FB7E01",
"E 	c #FA7E01",
"F 	c #F77E04",
"G 	c #F37D06",
"H 	c #F97E02",
"I 	c #EF7D1F",
"J 	c #D97B3A",
"K 	c #C77947",
"L 	c #C9814F",
"M 	c #CB8354",
"N 	c #D0885B",
"O 	c #D68A5B",
"P 	c #E47B0C",
"Q 	c #E87D0B",
"R 	c #F28006",
"S 	c #F78103",
"T 	c #F88204",
"U 	c #F48114",
"V 	c #B9825B",
"W 	c #BB8660",
"X 	c #BF8C69",
"Y 	c #C18F6E",
"Z 	c #DF7F0F",
"` 	c #E5810C",
" .	c #EF8307",
"..	c #F58506",
"+.	c #F58509",
"@.	c #F5860B",
"#.	c #EA880D",
"$.	c #EC880B",
"%.	c #F08806",
"&.	c #F28807",
"*.	c #F0880E",
"=.	c #F08911",
"-.	c #ED8D0B",
";.	c #EF8D08",
">.	c #F08C05",
",.	c #EF8B07",
"'.	c #EE8C0E",
").	c #E98B12",
"!.	c #AD9A8B",
"~.	c #B1937A",
"{.	c #BA8652",
"].	c #C68025",
"^.	c #D4841B",
"/.	c #E08A15",
"(.	c #EA8E0A",
"_.	c #ED8F04",
":.	c #EE8F04",
"<.	c #EE8F05",
"[.	c #ED8F08",
"}.	c #E48C10",
"|.	c #D08518",
"1.	c #C0801D",
"2.	c #B59D87",
"3.	c #BB9777",
"4.	c #C68C4E",
"5.	c #D1871F",
"6.	c #DA8A15",
"7.	c #E18E12",
"8.	c #E79108",
"9.	c #EB9203",
"0.	c #EC9203",
"a.	c #E18F0E",
"b.	c #CE871C",
"c.	c #C28321",
"d.	c #C1A281",
"e.	c #CA9E70",
"f.	c #D99647",
"g.	c #E19211",
"h.	c #E49306",
"i.	c #E59509",
"j.	c #E79605",
"k.	c #E89604",
"l.	c #EA9504",
"m.	c #EB9503",
"n.	c #EA9503",
"o.	c #E09216",
"p.	c #CF8C27",
"q.	c #C5882D",
"r.	c #C1A17A",
"s.	c #CB9E6A",
"t.	c #DA9944",
"u.	c #E49711",
"v.	c #E79902",
"w.	c #E79B04",
"x.	c #E69A04",
"y.	c #E79A03",
"z.	c #E99A04",
"A.	c #E7990D",
"B.	c #E1971C",
"C.	c #D79535",
"D.	c #C9924B",
"E.	c #C19155",
"F.	c #B59973",
"G.	c #BD9866",
"H.	c #CB9647",
"I.	c #D89723",
"J.	c #E29C11",
"K.	c #E69E06",
"L.	c #E69E04",
"M.	c #E69E03",
"N.	c #E89E04",
"O.	c #E29C19",
"P.	c #D49731",
"Q.	c #C79651",
"R.	c #BD996D",
"S.	c #B79B7A",
"T.	c #AD9470",
"U.	c #B59566",
"V.	c #C09855",
"W.	c #CF9B42",
"X.	c #DEA027",
"Y.	c #E6A306",
"Z.	c #E5A302",
"`.	c #E6A404",
" +	c #E7A407",
".+	c #E1A11C",
"++	c #CF9937",
"@+	c #BD975C",
"#+	c #B59D7C",
"$+	c #B1A089",
"%+	c #BFA16B",
"&+	c #CBA35D",
"*+	c #DDA639",
"=+	c #E5A805",
"-+	c #E5A900",
";+	c #E5AA07",
">+	c #E7AA0E",
",+	c #E5A918",
"'+	c #C2A66A",
")+	c #CCA85C",
"!+	c #DDAB38",
"~+	c #E5AD04",
"{+	c #E4AD00",
"]+	c #E3AE09",
"^+	c #E4AE12",
"/+	c #E4AF16",
"(+	c #C9A647",
"_+	c #D1A93D",
":+	c #DEAE24",
"<+	c #E4B202",
"[+	c #E4B201",
"}+	c #E2B10C",
"|+	c #DEB017",
"1+	c #DCB01B",
"2+	c #D4AD1F",
"3+	c #D8B01B",
"4+	c #E0B40E",
"5+	c #E5B701",
"6+	c #E5B602",
"7+	c #E0B411",
"8+	c #D8B020",
"9+	c #D4AE26",
"0+	c #DFBA16",
"a+	c #E1BB12",
"b+	c #E4BC08",
"c+	c #E6BC00",
"d+	c #E5BC02",
"e+	c #DEB71A",
"f+	c #D2AF2E",
"g+	c #CBAB36",
"h+	c #E1BE2B",
"i+	c #E4BF0D",
"j+	c #E4BE03",
"k+	c #E5BE00",
"l+	c #E4BD01",
"m+	c #DCB82B",
"n+	c #CDB049",
"o+	c #C4AB55",
"p+	c #BDAE82",
"q+	c #CAB26D",
"r+	c #DBB93F",
"s+	c #E2BB07",
"t+	c #E1BB00",
"u+	c #E1BA02",
"v+	c #D9B73C",
"w+	c #C9B163",
"x+	c #C0AE72",
"y+	c #B5A57D",
"z+	c #BEA76D",
"A+	c #CCAA46",
"B+	c #D4AB16",
"C+	c #D4AC0C",
"D+	c #D4AC08",
"E+	c #D6AD0C",
"F+	c #D2AE3E",
"G+	c #C6AF6A",
"H+	c #BEB07F",
"I+	c #A79473",
"J+	c #AC9366",
"K+	c #B59047",
"L+	c #BB9027",
"M+	c #BD901E",
"N+	c #C09219",
"O+	c #C39317",
"P+	c #C4972D",
"Q+	c #9E896D",
"R+	c #A18662",
"S+	c #A78048",
"T+	c #AC7D2E",
"U+	c #AF7E24",
"V+	c #B3801F",
"W+	c #B7831C",
"X+	c #B9841B",
"                                                                ",
"                                                                ",
"                                                                ",
"                                                                ",
"                        . + @ # $ % & * = - ; >                 ",
"                        , ' ) ! ~ { ] ^ / ( _ :                 ",
"                < [ } | 1 2 3 4 5 6 7 8 9 0 a b                 ",
"                c d e f f g h i i i h j k l m n                 ",
"                o p q r s s s r r r t u t v w x                 ",
"                y z A B C D E F G G F E H I J K                 ",
"                L M N O         P Q R S T U                     ",
"                V W X Y         Z `  ...+.@.                    ",
"                                #.$.%.&.*.=.                    ",
"                                -.;.>.,.'.).                    ",
"                    !.~.{.].^./.(._.:.<.[.}.|.1.                ",
"                    2.3.4.5.6.7.8.9.0.0.0.a.b.c.                ",
"                    d.e.f.g.h.i.j.k.l.m.n.o.p.q.                ",
"                    r.s.t.u.v.w.x.y.z.A.B.C.D.E.                ",
"                    F.G.H.I.J.K.L.M.N.O.P.Q.R.S.                ",
"                    T.U.V.W.X.Y.Z.`. +.+++@+#+$+                ",
"                        %+&+*+=+-+;+>+,+                        ",
"                        '+)+!+~+{+]+^+/+                        ",
"                        (+_+:+<+[+}+|+1+                        ",
"                        2+3+4+5+6+7+8+9+                        ",
"                        0+a+b+c+d+e+f+g+                        ",
"                        h+i+j+k+l+m+n+o+                        ",
"                    p+q+r+s+t+t+u+v+w+x+                        ",
"                    y+z+A+B+C+D+E+F+G+H+                        ",
"                    I+J+K+L+M+N+O+P+                            ",
"                    Q+R+S+T+U+V+W+X+                            ",
"                                                                ",
"                                                                "};
