/* XPM */
static char * score4_xpm[] = {
"32 32 312 2",
"  	c None",
". 	c #BA9F94",
"+ 	c #C99681",
"@ 	c #E28452",
"# 	c #EB7714",
"$ 	c #E67411",
"% 	c #DC752F",
"& 	c #CF7747",
"* 	c #C77951",
"= 	c #C89883",
"- 	c #D58F71",
"; 	c #E88147",
"> 	c #F07710",
", 	c #EC750D",
"' 	c #E37629",
") 	c #D7783E",
"! 	c #CF7947",
"~ 	c #BBA296",
"{ 	c #C99A85",
"] 	c #DB8C65",
"^ 	c #E98246",
"/ 	c #F27C29",
"( 	c #F77907",
"_ 	c #F67806",
": 	c #EF7819",
"< 	c #E4792A",
"[ 	c #DD7930",
"} 	c #C89B85",
"| 	c #D59372",
"1 	c #E88447",
"2 	c #F47B0A",
"3 	c #F97B00",
"4 	c #F97B05",
"5 	c #F77A0B",
"6 	c #F27A12",
"7 	c #EA7918",
"8 	c #E4791B",
"9 	c #B9A194",
"0 	c #C79A84",
"a 	c #D98F65",
"b 	c #E78747",
"c 	c #F18127",
"d 	c #F77E00",
"e 	c #F97D00",
"f 	c #F67D0C",
"g 	c #ED7C18",
"h 	c #E87C1C",
"i 	c #C79B83",
"j 	c #D39571",
"k 	c #E58946",
"l 	c #F1820C",
"m 	c #F58100",
"n 	c #F68106",
"o 	c #F3800D",
"p 	c #EF7E15",
"q 	c #E77E1D",
"r 	c #E17D22",
"s 	c #B8A193",
"t 	c #C69B83",
"u 	c #D99265",
"v 	c #E58B47",
"w 	c #EE8727",
"x 	c #F48400",
"y 	c #F58400",
"z 	c #F1830E",
"A 	c #E9811A",
"B 	c #E38020",
"C 	c #C59D83",
"D 	c #D19770",
"E 	c #E48D47",
"F 	c #EF880F",
"G 	c #F28700",
"H 	c #F28707",
"I 	c #EE8610",
"J 	c #E98518",
"K 	c #E18320",
"L 	c #DB8125",
"M 	c #BAA596",
"N 	c #C69F85",
"O 	c #D69765",
"P 	c #E29147",
"Q 	c #EB8C27",
"R 	c #F08A00",
"S 	c #F18A00",
"T 	c #EC8910",
"U 	c #E2871E",
"V 	c #DC8623",
"W 	c #B99C85",
"X 	c #C79974",
"Y 	c #DE924A",
"Z 	c #EC8E11",
"` 	c #EF8E01",
" .	c #EE8D09",
"..	c #EB8C13",
"+.	c #E48A1B",
"@.	c #DA8722",
"#.	c #D28526",
"$.	c #B98B5C",
"%.	c #C78D4F",
"&.	c #DF902F",
"*.	c #ED9101",
"=.	c #EF9100",
"-.	c #E99015",
";.	c #DE8C25",
">.	c #D78A2B",
",.	c #BA843A",
"'.	c #C88932",
").	c #DF901D",
"!.	c #EB9503",
"~.	c #EB9506",
"{.	c #E19223",
"].	c #D08D3A",
"^.	c #C48D4D",
"/.	c #BC8B46",
"(.	c #CA8F3C",
"_.	c #DF9523",
":.	c #E89803",
"<.	c #E4970A",
"[.	c #D7942F",
"}.	c #C28F4D",
"|.	c #B69165",
"1.	c #B99D7D",
"2.	c #C2A079",
"3.	c #CD984D",
"4.	c #D99517",
"5.	c #E49905",
"6.	c #E99D02",
"7.	c #E89E05",
"8.	c #DB9A2B",
"9.	c #C29149",
"0.	c #AE8C5B",
"a.	c #A78C67",
"b.	c #A48C6C",
"c.	c #BF9457",
"d.	c #CB974B",
"e.	c #DE9A2D",
"f.	c #E79C04",
"g.	c #E29C09",
"h.	c #D7992C",
"i.	c #C79549",
"j.	c #C0985F",
"k.	c #C5A070",
"l.	c #CDA168",
"m.	c #D49B43",
"n.	c #DD9913",
"o.	c #E49C04",
"p.	c #E89F03",
"q.	c #E7A005",
"r.	c #DE9D24",
"s.	c #CC963F",
"t.	c #BC9150",
"u.	c #B08E5C",
"v.	c #AA8C62",
"w.	c #C29E68",
"x.	c #CD9F5A",
"y.	c #DEA036",
"z.	c #E7A104",
"A.	c #E5A103",
"B.	c #E1A01A",
"C.	c #DCA02C",
"D.	c #DAA03A",
"E.	c #DCA345",
"F.	c #DEA340",
"G.	c #E0A127",
"H.	c #E3A109",
"I.	c #E7A203",
"J.	c #E6A205",
"K.	c #E3A115",
"L.	c #DDA025",
"M.	c #D19A36",
"N.	c #C09245",
"O.	c #B58D4B",
"P.	c #C3A674",
"Q.	c #CDA665",
"R.	c #DEA63D",
"S.	c #E7A603",
"T.	c #E7A700",
"U.	c #E7A703",
"V.	c #E7A802",
"W.	c #E7A701",
"X.	c #E8A701",
"Y.	c #E6A702",
"Z.	c #E5A702",
"`.	c #E6A703",
" +	c #E5A604",
".+	c #E6A602",
"++	c #E7A702",
"@+	c #DDA323",
"#+	c #CA993C",
"$+	c #BE9446",
"%+	c #C2AB7D",
"&+	c #CCAB6D",
"*+	c #DEAB43",
"=+	c #E6AB03",
"-+	c #E6AC00",
";+	c #E5AC02",
">+	c #E7AC00",
",+	c #E5AC00",
"'+	c #E4AC02",
")+	c #E5AB03",
"!+	c #E4AB04",
"~+	c #E6AC01",
"{+	c #DEA82D",
"]+	c #CDA24D",
"^+	c #C39E59",
"/+	c #BEAC84",
"(+	c #C8AC73",
"_+	c #D8AC48",
":+	c #E0AC0E",
"<+	c #DFAC07",
"[+	c #DDAB12",
"}+	c #DCA916",
"|+	c #DDA916",
"1+	c #DEAA11",
"2+	c #E0AD0C",
"3+	c #E2B005",
"4+	c #E4B102",
"5+	c #E5B002",
"6+	c #E5B004",
"7+	c #E4B107",
"8+	c #E2AF10",
"9+	c #DEAC21",
"0+	c #D6A945",
"a+	c #CAA866",
"b+	c #C3A773",
"c+	c #B9AC89",
"d+	c #C1AC78",
"e+	c #CFAC4D",
"f+	c #D5AA1B",
"g+	c #D2A718",
"h+	c #CEA321",
"i+	c #CB9F27",
"j+	c #CAA029",
"k+	c #CEA426",
"l+	c #D5AB1F",
"m+	c #DFB210",
"n+	c #E5B502",
"o+	c #E6B402",
"p+	c #E6B505",
"q+	c #E5B60E",
"r+	c #DEB222",
"s+	c #D0A938",
"t+	c #C5A65C",
"u+	c #C1AB7D",
"v+	c #BFAE8B",
"w+	c #B6AB8C",
"x+	c #BDAB7B",
"y+	c #C9AB50",
"z+	c #CEA920",
"A+	c #CBA41E",
"B+	c #C69E26",
"C+	c #C09A2E",
"D+	c #BF9D3E",
"E+	c #C4A54B",
"F+	c #CFAD45",
"G+	c #DEB629",
"H+	c #E6BA01",
"I+	c #E6BA00",
"J+	c #E6BA0A",
"K+	c #E6BC17",
"L+	c #DEB728",
"M+	c #CAA940",
"N+	c #BBA466",
"O+	c #BBAC88",
"P+	c #BCB196",
"Q+	c #C2AD72",
"R+	c #CDB466",
"S+	c #DEBB3E",
"T+	c #E6BF01",
"U+	c #E6BF00",
"V+	c #E5BF10",
"W+	c #E5C01F",
"X+	c #E2BE29",
"Y+	c #C0AF7F",
"Z+	c #CAB36E",
"`+	c #DBB943",
" @	c #E4BC00",
".@	c #E2BC0D",
"+@	c #E1BC1E",
"@@	c #E1BC24",
"#@	c #BDA873",
"$@	c #C6AA63",
"%@	c #D6AE3C",
"&@	c #DEB101",
"*@	c #DEB100",
"=@	c #DCB00C",
"-@	c #D9AF18",
";@	c #D8AE1D",
">@	c #B19865",
",@	c #BA9A5A",
"'@	c #C89E40",
")@	c #D0A02B",
"!@	c #D0A12D",
"~@	c #CDA032",
"{@	c #C99E35",
"]@	c #C79D37",
"^@	c #9D825A",
"/@	c #A58555",
"(@	c #B38A4C",
"_@	c #B98D49",
":@	c #B98E4E",
"<@	c #B68E52",
"[@	c #B18D54",
"}@	c #AF8C55",
"|@	c #917454",
"1@	c #997753",
"2@	c #A57D52",
"3@	c #AC8154",
"4@	c #AB835A",
"5@	c #A7835E",
"6@	c #A38360",
"7@	c #A08261",
"                                                                ",
"                                                                ",
"                                                                ",
"                                                                ",
"                            . + @ # $ % & *                     ",
"                            = - ; > , ' ) !                     ",
"                        ~ { ] ^ / ( _ : < [                     ",
"                        } | 1 2 3 4 5 6 7 8                     ",
"                    9 0 a b c d e f g h                         ",
"                    i j k l m n o p q r                         ",
"                s t u v w x y z A B                             ",
"                C D E F G H I J K L                             ",
"            M N O P Q R S T U V                                 ",
"            W X Y Z `  ...+.@.#.                                ",
"            $.%.&.*.=.-.;.>.                                    ",
"            ,.'.).!.~.{.].^.                                    ",
"            /.(._.:.<.[.}.|.1.2.3.4.5.6.7.8.9.0.a.b.            ",
"            c.d.e.f.g.h.i.j.k.l.m.n.o.p.q.r.s.t.u.v.            ",
"            w.x.y.z.A.B.C.D.E.F.G.H.A.I.J.K.L.M.N.O.            ",
"            P.Q.R.S.T.U.V.W.X.W.Y.Z.`. + +.+++@+#+$+            ",
"            %+&+*+=+-+;+-+>+>+-+,+'+)+)+!+,+~+{+]+^+            ",
"            /+(+_+:+<+[+}+|+1+2+3+4+5+6+7+8+9+0+a+b+            ",
"            c+d+e+f+g+h+i+j+k+l+m+n+o+p+q+r+s+t+u+v+            ",
"            w+x+y+z+A+B+C+D+E+F+G+H+I+J+K+L+M+N+O+P+            ",
"                            Q+R+S+T+U+V+W+X+                    ",
"                            Y+Z+`+ @ @.@+@@@                    ",
"                            #@$@%@&@*@=@-@;@                    ",
"                            >@,@'@)@!@~@{@]@                    ",
"                            ^@/@(@_@:@<@[@}@                    ",
"                            |@1@2@3@4@5@6@7@                    ",
"                                                                ",
"                                                                "};
