/* XPM */
static char * score10_xpm[] = {
"112 32 3 1",
" 	c None",
".	c #FEFEFE",
"+	c #FFFFFF",
"                                                                                                                ",
"                                                                                                                ",
"                                                                                                                ",
"                                                                                                                ",
"                                                                                                                ",
"      ..+++.            .+++++...              .+++++++          .++++++...       ++++++++++.                   ",
"     ++++++..         .+++++++++..           +++++++++++.        .+++++++.++     .++++++++++.                   ",
"    ++++++++..       .+++++++++++...        .+++++++++++..       .+++++++++++    .++++++++++.                   ",
"   .++....+++..     .+++...  ....+++.      ++++...  +..++++      .++++.....++.   .++++......                    ",
"   .++.   +++..    .++++.       .++..     ++++..      ..+++.     .+++    ..++.   .+++.                          ",
"   ++++    ...     ++++.         ....    .+++.          .++.     .++.      +++.  .++.                           ",
"   +++.           .++..                  .++.            .++.    .++.      .++.  .++.                           ",
"   ++++.          .++.                  .+++.            .++.    .++.      .++.  .++.                           ",
"   .++++..        +++.                  ++++             .++..   .++.      +++.  .++..                          ",
"    ..++++..      +++                   ++++              ++++   .++.    ..++.   .++++++++++                    ",
"     .+++++..    .+++                   ++++              ++++   .++.+++++.+..   .++++++++++.                   ",
"       ..+++++    +++                   ++++              ++++   .+++++++++..    .++++++++++                    ",
"          .++++   ++++                  ++++             .++..   .++..++++..     .+++.+++++                     ",
"           .+++   ++++                  ++++.            .++.    .++..++++.      .++..                          ",
"           .+++   .++..                  +++.            .++.    .++..++++       .++.                           ",
"   +++      +++    +++.           ...    ++++.          .++..    .++. .+++.      .++.                           ",
"  .+++     ++++    ++++.         ....     +++..        ..++.     .++.  .++..     .++..                          ",
"  ++++..  ..++.     .+++..    ...+++.     .++++..    ...+++      .++.   .++.     .++..                          ",
"   +++++++++++.      .++++++++++++++       .++++++++++++.+.      .++.   .+++.    .++++++++++.                   ",
"    ++++++++++        +++++++++++++         .++++++++++..        .++.    ++++.   .++++++++++.                   ",
"     ..++++..           .++++++++             ..+++++...         .++.     .+++   .++++++++++.                   ",
"       .++                ++++                   ++++                                                           ",
"                                                                                                                ",
"                                                                                                                ",
"                                                                                                                ",
"                                                                                                                ",
"                                                                                                                "};
