/* XPM */
static char * score8_xpm[] = {
"32 32 339 2",
"  	c None",
". 	c #C8774A",
"+ 	c #CF7440",
"@ 	c #DA6E25",
"# 	c #E06B00",
"$ 	c #DF6C01",
"% 	c #D8702A",
"& 	c #CA7647",
"* 	c #C27952",
"= 	c #DA773D",
"- 	c #DC7536",
"; 	c #E4711E",
"> 	c #E86E00",
", 	c #E76F00",
"' 	c #E27224",
") 	c #D8763D",
"! 	c #D37845",
"~ 	c #BD7D59",
"{ 	c #CE7D4E",
"] 	c #E97C31",
"^ 	c #F47A1A",
"/ 	c #F17821",
"( 	c #F07620",
"_ 	c #F37511",
": 	c #F47502",
"< 	c #F47503",
"[ 	c #F27614",
"} 	c #EF7724",
"| 	c #E87729",
"1 	c #DD7428",
"2 	c #D47226",
"3 	c #CD7F52",
"4 	c #DA7D43",
"5 	c #ED7D2A",
"6 	c #F57B14",
"7 	c #F2791A",
"8 	c #F07927",
"9 	c #EE7B33",
"0 	c #F07C31",
"a 	c #F67A1D",
"b 	c #F97906",
"c 	c #FA7903",
"d 	c #F3780F",
"e 	c #E6771C",
"f 	c #DE7621",
"g 	c #BB8F76",
"h 	c #CC8A66",
"i 	c #E18246",
"j 	c #EE7E29",
"k 	c #F47E18",
"l 	c #F07C1B",
"m 	c #E47A2D",
"n 	c #DA7C42",
"o 	c #D58155",
"p 	c #DC8251",
"q 	c #EC7E32",
"r 	c #F67C0A",
"s 	c #F97B00",
"t 	c #F77C07",
"u 	c #F17D12",
"v 	c #EE7D16",
"w 	c #C48A67",
"x 	c #D38859",
"y 	c #EB8337",
"z 	c #F6800A",
"A 	c #F47F07",
"B 	c #EB7D1C",
"C 	c #DB7B33",
"D 	c #CC7D4D",
"E 	c #C48462",
"F 	c #CF845A",
"G 	c #E27E36",
"H 	c #EE7C11",
"I 	c #F57D05",
"J 	c #F87F05",
"K 	c #F7810A",
"L 	c #F6830C",
"M 	c #D48140",
"N 	c #DE8137",
"O 	c #EE8220",
"P 	c #F28105",
"Q 	c #EB800D",
"R 	c #E57E18",
"S 	c #DB7B2A",
"T 	c #E47B16",
"U 	c #F07F0A",
"V 	c #F78204",
"W 	c #F78408",
"X 	c #F6860A",
"Y 	c #DE7E0B",
"Z 	c #E47F08",
"` 	c #EF8204",
" .	c #EF8307",
"..	c #E58111",
"+.	c #DF8015",
"@.	c #DB7D1A",
"#.	c #E37E16",
"$.	c #EF820B",
"%.	c #F48503",
"&.	c #F28605",
"*.	c #F18707",
"=.	c #E18209",
"-.	c #E68407",
";.	c #EE8603",
">.	c #ED8508",
",.	c #E38313",
"'.	c #DC8117",
").	c #E58514",
"!.	c #E98511",
"~.	c #F08708",
"{.	c #F08707",
"].	c #E9880E",
"^.	c #E58812",
"/.	c #D98731",
"(.	c #E0882A",
"_.	c #EB8A17",
":.	c #ED8908",
"<.	c #E58710",
"[.	c #DF8616",
"}.	c #EA8B0F",
"|.	c #ED8B0A",
"1.	c #F08B07",
"2.	c #EB8B23",
"3.	c #DD8B3B",
"4.	c #D58B44",
"5.	c #C98B4E",
"6.	c #D48C44",
"7.	c #E68E28",
"8.	c #EE8F07",
"9.	c #EB8E09",
"0.	c #E58C12",
"a.	c #DB891A",
"b.	c #D8891C",
"c.	c #DE8C18",
"d.	c #E68E11",
"e.	c #EB8E0B",
"f.	c #EE8F02",
"g.	c #EF8F07",
"h.	c #E59039",
"i.	c #CF915D",
"j.	c #C1916B",
"k.	c #BF8D5A",
"l.	c #CF8F4B",
"m.	c #E3922B",
"n.	c #EC9309",
"o.	c #EC9306",
"p.	c #E8910E",
"q.	c #DF8D15",
"r.	c #DD8D17",
"s.	c #E28F13",
"t.	c #E6910E",
"u.	c #EA9208",
"v.	c #ED9300",
"w.	c #ED9307",
"x.	c #E1933C",
"y.	c #C89361",
"z.	c #B9926F",
"A.	c #E3941F",
"B.	c #E7950D",
"C.	c #E99608",
"D.	c #E99508",
"E.	c #E6940B",
"F.	c #E6930C",
"G.	c #E7940A",
"H.	c #E89508",
"I.	c #E99606",
"J.	c #EA9702",
"K.	c #EA9805",
"L.	c #E0962D",
"M.	c #CC924A",
"N.	c #BF9055",
"O.	c #E39915",
"P.	c #E6990D",
"Q.	c #E89A08",
"R.	c #E7990A",
"S.	c #E49711",
"T.	c #E29517",
"U.	c #E1951B",
"V.	c #E29719",
"W.	c #E69A10",
"X.	c #E89C06",
"Y.	c #E89B05",
"Z.	c #E1991C",
"`.	c #D49630",
" +	c #CD9438",
".+	c #CA9934",
"++	c #D49B2B",
"@+	c #E19D18",
"#+	c #E79E09",
"$+	c #E89E0B",
"%+	c #E39C15",
"&+	c #D99721",
"*+	c #D39329",
"=+	c #D1932F",
"-+	c #D7972B",
";+	c #E19D1C",
">+	c #E79F0A",
",+	c #E79E05",
"'+	c #E49E10",
")+	c #E09E1C",
"!+	c #DD9E22",
"~+	c #D29E2E",
"{+	c #D89F27",
"]+	c #E2A116",
"^+	c #E5A214",
"/+	c #E1A023",
"(+	c #DA9D2A",
"_+	c #D1962C",
":+	c #C99230",
"<+	c #C79237",
"[+	c #CF9731",
"}+	c #DA9D20",
"|+	c #E1A011",
"1+	c #E4A108",
"2+	c #E6A206",
"3+	c #E6A40A",
"4+	c #E6A40D",
"5+	c #E0A61C",
"6+	c #E2A617",
"7+	c #E4A70D",
"8+	c #DFA521",
"9+	c #D3A039",
"0+	c #CB9C41",
"a+	c #D19B21",
"b+	c #D79E18",
"c+	c #E0A40B",
"d+	c #E6A702",
"e+	c #E7A704",
"f+	c #E7A805",
"g+	c #E4AA10",
"h+	c #E7AC06",
"i+	c #E6AC06",
"j+	c #DEA922",
"k+	c #CDA13E",
"l+	c #C09B4B",
"m+	c #C99B22",
"n+	c #D19F1D",
"o+	c #DEA70E",
"p+	c #E6AC01",
"q+	c #E7AC02",
"r+	c #E7AC04",
"s+	c #B99936",
"t+	c #C9A12C",
"u+	c #DDAC18",
"v+	c #E7B105",
"w+	c #E8B106",
"x+	c #E5B017",
"y+	c #C79F24",
"z+	c #D0A41E",
"A+	c #DEAC0F",
"B+	c #E6B102",
"C+	c #E7B204",
"D+	c #E8B307",
"E+	c #BA9C41",
"F+	c #C6A338",
"G+	c #DAAF21",
"H+	c #E6B503",
"I+	c #E8B605",
"J+	c #E5B629",
"K+	c #D0A922",
"L+	c #D6AD1C",
"M+	c #E0B20E",
"N+	c #E5B606",
"O+	c #E5B60D",
"P+	c #E5B611",
"Q+	c #BCA150",
"R+	c #C7A845",
"S+	c #DAB429",
"T+	c #E5BB00",
"U+	c #E6BB03",
"V+	c #DEB93E",
"W+	c #CCB26C",
"X+	c #BDAD82",
"Y+	c #DEB81A",
"Z+	c #E0B815",
"`+	c #E3B90B",
" @	c #E3B90C",
".@	c #E0B817",
"+@	c #DEB71C",
"@@	c #BDA457",
"#@	c #CAAD48",
"$@	c #DCB929",
"%@	c #E4BE03",
"&@	c #DDBB3C",
"*@	c #D0B562",
"=@	c #C8B26D",
"-@	c #E5BF10",
";@	c #E5BF0F",
">@	c #E4BD0F",
",@	c #E2BC13",
"'@	c #DEB91B",
")@	c #DBB720",
"!@	c #DFBD21",
"~@	c #E2BF10",
"{@	c #E2BE08",
"]@	c #E0BD25",
"^@	c #DBBB3E",
"/@	c #D7B842",
"(@	c #D1B32F",
"_@	c #D4B418",
":@	c #DEBB13",
"<@	c #E3BF10",
"[@	c #E3BF0B",
"}@	c #E3BF0E",
"|@	c #E3BE16",
"1@	c #E2BE1A",
"2@	c #E1C01A",
"3@	c #DEBC16",
"4@	c #DAB60F",
"5@	c #DAB30E",
"6@	c #DCB413",
"7@	c #D9B116",
"8@	c #D3AC16",
"9@	c #DAB215",
"0@	c #DCB414",
"a@	c #D9B312",
"b@	c #D9B515",
"c@	c #DEBB1B",
"d@	c #E2BF1E",
"e@	c #CA9F17",
"f@	c #CB9D14",
"g@	c #D1A00F",
"h@	c #D3A00C",
"i@	c #D19E0F",
"j@	c #D19E12",
"k@	c #D2A016",
"l@	c #CF9F1A",
"m@	c #C79C1E",
"n@	c #C69D20",
"o@	c #BE8D1B",
"p@	c #C28F18",
"q@	c #CA9312",
"r@	c #CF950D",
"s@	c #D0940C",
"t@	c #D0940F",
"u@	c #CE9416",
"v@	c #C7911D",
"w@	c #BD8D23",
"x@	c #B78A26",
"                                                                ",
"                                                                ",
"                            . + @ # $ % & *                     ",
"                            = - ; > , ' ) !                     ",
"                    ~ { ] ^ / ( _ : < [ } | 1 2                 ",
"                    3 4 5 6 7 8 9 0 a b c d e f                 ",
"                g h i j k l m n o p q r s t u v                 ",
"                w x y z A B C D E F G H I J K L                 ",
"                M N O P Q R         S T U V W X                 ",
"                Y Z `  ...+.        @.#.$.%.&.*.                ",
"                =.-.;.>.,.'.        ).!.~.{.].^.                ",
"                /.(._.:.<.[.        }.|.1.2.3.4.                ",
"                5.6.7.8.9.0.a.b.c.d.e.f.g.h.i.j.                ",
"                k.l.m.n.o.p.q.r.s.t.u.v.w.x.y.z.                ",
"                    A.B.C.D.E.F.G.H.I.J.K.L.M.N.                ",
"                    O.P.Q.R.S.T.U.V.W.X.Y.Z.`. +                ",
"                .+++@+#+$+%+&+*+=+-+;+>+,+'+)+!+                ",
"                ~+{+]+^+/+(+_+:+<+[+}+|+1+2+3+4+                ",
"                5+6+7+8+9+0+        a+b+c+d+e+f+                ",
"                g+h+i+j+k+l+        m+n+o+p+q+r+                ",
"            s+t+u+v+w+x+            y+z+A+B+C+D+                ",
"            E+F+G+H+I+J+            K+L+M+N+O+P+                ",
"            Q+R+S+T+U+V+W+X+        Y+Z+`+ @.@+@                ",
"            @@#@$@%@%@&@*@=@        -@;@>@,@'@)@                ",
"                !@~@{@]@^@/@(@_@:@<@[@}@|@1@                    ",
"                2@3@4@5@6@7@8@8@9@0@a@b@c@d@                    ",
"                    e@f@g@h@i@j@k@l@m@n@                        ",
"                    o@p@q@r@s@t@u@v@w@x@                        ",
"                                                                ",
"                                                                ",
"                                                                ",
"                                                                "};
