/* XPM */
static char * score3_xpm[] = {
"32 32 318 2",
"  	c None",
". 	c #CB7034",
"+ 	c #D6732E",
"@ 	c #E97721",
"# 	c #F57A14",
"$ 	c #F9790C",
"% 	c #FB7706",
"& 	c #FB7705",
"* 	c #FA770A",
"= 	c #F57707",
"- 	c #EC7511",
"; 	c #DC7D48",
"> 	c #C58C72",
", 	c #B89383",
"' 	c #DA732B",
") 	c #E17428",
"! 	c #EE781C",
"~ 	c #F77A10",
"{ 	c #FA7909",
"] 	c #FB7805",
"^ 	c #FC7704",
"/ 	c #FA7808",
"( 	c #F77706",
"_ 	c #F0760E",
": 	c #E47D3F",
"< 	c #D38864",
"[ 	c #CA8E73",
"} 	c #E4791C",
"| 	c #E8781C",
"1 	c #ED771A",
"2 	c #F27817",
"3 	c #F7790F",
"4 	c #F97A08",
"5 	c #FB7905",
"6 	c #FB7903",
"7 	c #FC7803",
"8 	c #FA7804",
"9 	c #F77808",
"0 	c #F27B26",
"a 	c #EA813F",
"b 	c #E68549",
"c 	c #DA7F41",
"d 	c #E37E38",
"e 	c #F37D20",
"f 	c #FA7C03",
"g 	c #F77B05",
"h 	c #F47A0A",
"i 	c #F2780C",
"j 	c #F1780B",
"k 	c #F4790A",
"l 	c #F77A07",
"m 	c #FA7A05",
"n 	c #FB7B03",
"o 	c #F97C06",
"p 	c #F77E0D",
"q 	c #F27F20",
"r 	c #C88963",
"s 	c #D78756",
"t 	c #ED8335",
"u 	c #F6800B",
"v 	c #F07F0D",
"w 	c #E87B14",
"x 	c #E17717",
"y 	c #DF7517",
"z 	c #E47814",
"A 	c #EC7B0F",
"B 	c #F67D07",
"C 	c #FA7E03",
"D 	c #FA7E02",
"E 	c #F97E00",
"F 	c #F87E00",
"G 	c #EF802B",
"H 	c #D8834E",
"I 	c #C6855E",
"J 	c #BD8E71",
"K 	c #CC8C64",
"L 	c #E0884C",
"M 	c #E88538",
"N 	c #E88127",
"O 	c #E17C18",
"P 	c #D6751A",
"Q 	c #D4741B",
"R 	c #DB7815",
"S 	c #E77C0F",
"T 	c #F27F09",
"U 	c #F68106",
"V 	c #F78103",
"W 	c #F88100",
"X 	c #F88002",
"Y 	c #EC8233",
"Z 	c #D48654",
"` 	c #C58761",
" .	c #C68B65",
"..	c #CA8A5F",
"+.	c #ED830F",
"@.	c #F0840B",
"#.	c #F48306",
"$.	c #F78300",
"%.	c #F68403",
"&.	c #EA8636",
"*.	c #D18A59",
"=.	c #C28C66",
"-.	c #B28D72",
";.	c #E88925",
">.	c #EE870C",
",.	c #F28705",
"'.	c #F38603",
").	c #F0860D",
"!.	c #E68834",
"~.	c #D18C58",
"{.	c #C18E69",
"].	c #BE916E",
"^.	c #CF8F5B",
"/.	c #E48D35",
"(.	c #EE8B0A",
"_.	c #F18B02",
":.	c #EE8A0C",
"<.	c #E78818",
"[.	c #E0882A",
"}.	c #CF935B",
"|.	c #D59152",
"1.	c #E58F32",
"2.	c #ED8E08",
"3.	c #EC8E05",
"4.	c #E88C11",
"5.	c #E18A1C",
"6.	c #DC8822",
"7.	c #ED991D",
"8.	c #E99729",
"9.	c #E49535",
"0.	c #E49332",
"a.	c #E9921D",
"b.	c #E99009",
"c.	c #E48F0F",
"d.	c #E08E15",
"e.	c #E7981E",
"f.	c #E8981A",
"g.	c #E99712",
"h.	c #EA960A",
"i.	c #EA9504",
"j.	c #E79407",
"k.	c #E19310",
"l.	c #DC9217",
"m.	c #DB971E",
"n.	c #DE971C",
"o.	c #E49816",
"p.	c #E8990F",
"q.	c #E89807",
"r.	c #E79805",
"s.	c #E5980B",
"t.	c #DE9717",
"u.	c #D39324",
"v.	c #CB912B",
"w.	c #D4961F",
"x.	c #D9971E",
"y.	c #E1991B",
"z.	c #E49A17",
"A.	c #E39A14",
"B.	c #E39B10",
"C.	c #E59C0B",
"D.	c #E19B13",
"E.	c #D89820",
"F.	c #D1962A",
"G.	c #D79A24",
"H.	c #DA9C1F",
"I.	c #E29F11",
"J.	c #E5A008",
"K.	c #E1A012",
"L.	c #D99D29",
"M.	c #C99942",
"N.	c #BD964E",
"O.	c #CB9A34",
"P.	c #D39D2C",
"Q.	c #DFA219",
"R.	c #E6A502",
"S.	c #E6A603",
"T.	c #DDA323",
"U.	c #CE9E3B",
"V.	c #C69B44",
"W.	c #C49B2C",
"X.	c #C59B40",
"Y.	c #CE9F37",
"Z.	c #DEA620",
"`.	c #E6AA02",
" +	c #E5AA01",
".+	c #E0A915",
"++	c #D8A626",
"@+	c #D4A52C",
"#+	c #CCA22B",
"$+	c #D0A424",
"%+	c #CCA23A",
"&+	c #D3A634",
"*+	c #DFAB1E",
"=+	c #E5AE02",
"-+	c #E4AE01",
";+	c #E1AE08",
">+	c #DEAD12",
",+	c #DDAD15",
"'+	c #BEA34E",
")+	c #C9A742",
"!+	c #D8AD29",
"~+	c #E0B114",
"{+	c #E5B50E",
"]+	c #E4B412",
"^+	c #DCAF19",
"/+	c #D4AA1A",
"(+	c #CEA616",
"_+	c #D1A81B",
":+	c #DAAD23",
"<+	c #DFB021",
"[+	c #E3B212",
"}+	c #E4B302",
"|+	c #E3B301",
"1+	c #E2B309",
"2+	c #DFB313",
"3+	c #DEB217",
"4+	c #C9AD4E",
"5+	c #D2B03A",
"6+	c #DFB622",
"7+	c #E6B905",
"8+	c #E7B906",
"9+	c #E4B70E",
"0+	c #DEB315",
"a+	c #D9B016",
"b+	c #D5AD11",
"c+	c #D8AF0E",
"d+	c #E1B50E",
"e+	c #E5B80B",
"f+	c #E5B805",
"g+	c #E4B802",
"h+	c #E3B802",
"i+	c #E0B70D",
"j+	c #DBB41A",
"k+	c #D9B31F",
"l+	c #B8AF8E",
"m+	c #C6B379",
"n+	c #D7B94F",
"o+	c #E0BC26",
"p+	c #E3BE11",
"q+	c #E5BE03",
"r+	c #E6BD03",
"s+	c #E5BC07",
"t+	c #E3BB0A",
"u+	c #E1B90A",
"v+	c #E0B808",
"w+	c #E1B906",
"x+	c #E4BC05",
"y+	c #E5BD04",
"z+	c #E5BD03",
"A+	c #E4BD02",
"B+	c #E3BD03",
"C+	c #DEBA12",
"D+	c #D4B421",
"E+	c #CFB027",
"F+	c #D7BA50",
"G+	c #DFBD28",
"H+	c #E1BE15",
"I+	c #E2BE06",
"J+	c #E4BE00",
"K+	c #E4BD00",
"L+	c #E4BD01",
"M+	c #E5BD01",
"N+	c #E3BD02",
"O+	c #E4BE03",
"P+	c #E2BE08",
"Q+	c #DCBB14",
"R+	c #D1B423",
"S+	c #C9AE2A",
"T+	c #C9B050",
"U+	c #D0B33E",
"V+	c #DAB827",
"W+	c #E0BA0E",
"X+	c #E1BA04",
"Y+	c #E1BA02",
"Z+	c #E1B901",
"`+	c #E1B903",
" @	c #E0B902",
".@	c #E1B902",
"+@	c #E2B902",
"@@	c #E1BA08",
"#@	c #DFBC10",
"$@	c #DCBB16",
"%@	c #BEA851",
"&@	c #C7AC47",
"*@	c #D6B42E",
"=@	c #DBB526",
"-@	c #D7B234",
";@	c #D5AE32",
">@	c #D5AC1D",
",@	c #D5AB05",
"'@	c #D7AC05",
")@	c #D8AC07",
"!@	c #D8AB07",
"~@	c #D7AB0B",
"{@	c #D6AB11",
"]@	c #D6AE14",
"^@	c #DAB616",
"/@	c #DCBB17",
"(@	c #C3A25C",
"_@	c #C09C53",
":@	c #C09433",
"<@	c #C3910B",
"[@	c #C99409",
"}@	c #CC950E",
"|@	c #CB950F",
"1@	c #C79316",
"2@	c #C1921F",
"3@	c #C09522",
"4@	c #B4966E",
"5@	c #B49060",
"6@	c #B4863C",
"7@	c #B9810D",
"8@	c #C1840C",
"9@	c #C58611",
"0@	c #C48612",
"a@	c #BE841A",
"b@	c #B48224",
"c@	c #AE8029",
"                                                                ",
"                                                                ",
"                                                                ",
"                                                                ",
"                    . + @ # $ % & % * = - ; > ,                 ",
"                    ' ) ! ~ { ] ^ & / ( _ : < [                 ",
"                } | 1 2 3 4 5 6 7 7 5 8 9 0 a b                 ",
"                c d e f g h i j k l m n n o p q                 ",
"                r s t u v w x y z A B C D E F G H I             ",
"                J K L M N O P Q R S T U V W X Y Z `             ",
"                     ...            +.@.#.$.%.&.*.=.            ",
"                    -.-.            ;.>.,.'.).!.~.{.            ",
"                                ].^./.(._.:.<.[.                ",
"                                }.|.1.2.3.4.5.6.                ",
"                            7.8.9.0.a.b.c.d.                    ",
"                            e.f.g.h.i.j.k.l.                    ",
"                            m.n.o.p.q.r.s.t.u.v.                ",
"                            w.x.y.z.A.B.C.D.E.F.                ",
"                                    G.H.I.J.K.L.M.N.            ",
"                                    O.P.Q.R.S.T.U.V.            ",
"                    W.W.            X.Y.Z.`. +.+++@+            ",
"                    #+$+            %+&+*+=+-+;+>+,+            ",
"                '+)+!+~+{+]+^+/+(+_+:+<+[+}+|+1+2+3+            ",
"                4+5+6+7+8+9+0+a+b+c+d+e+f+g+h+i+j+k+            ",
"            l+m+n+o+p+q+r+s+t+u+v+w+x+y+z+A+B+C+D+E+            ",
"            l+m+F+G+H+I+J+K+K+L+M+A+N+N+A+O+P+Q+R+S+            ",
"                T+U+V+W+X+Y+Z+Z+Y+`+ @.@+@@@#@$@                ",
"                %@&@*@=@-@;@>@,@'@)@!@~@{@]@^@/@                ",
"                        (@_@:@<@[@}@|@1@2@3@                    ",
"                        4@5@6@7@8@9@0@a@b@c@                    ",
"                                                                ",
"                                                                "};
