/* XPM */
static char * wall0_xpm[] = {
"64 64 634 2",
"  	c #627B0E",
". 	c #5F790C",
"+ 	c #5E770B",
"@ 	c #5D760A",
"# 	c #597308",
"$ 	c #5B7408",
"% 	c #5B7508",
"& 	c #5C7509",
"* 	c #5D7508",
"= 	c #5F760A",
"- 	c #61770B",
"; 	c #62790B",
"> 	c #64790C",
", 	c #647B0C",
"' 	c #657A0D",
") 	c #64790B",
"! 	c #748037",
"~ 	c #8B8A71",
"{ 	c #90907C",
"] 	c #979688",
"^ 	c #8C8C75",
"/ 	c #6B7C23",
"( 	c #61790A",
"_ 	c #5E7608",
": 	c #60780A",
"< 	c #60770B",
"[ 	c #5E770A",
"} 	c #364D2C",
"| 	c #273A1F",
"1 	c #101A0B",
"2 	c #020301",
"3 	c #000000",
"4 	c #000100",
"5 	c #010100",
"6 	c #060D04",
"7 	c #26381E",
"8 	c #687F10",
"9 	c #5C750A",
"0 	c #476305",
"a 	c #526D06",
"b 	c #567108",
"c 	c #6A8210",
"d 	c #60790C",
"e 	c #647C0F",
"f 	c #647D0D",
"g 	c #667D0F",
"h 	c #647D0F",
"i 	c #617A0D",
"j 	c #5D7509",
"k 	c #5D7409",
"l 	c #5B7308",
"m 	c #60770A",
"n 	c #61780A",
"o 	c #637A0D",
"p 	c #63780A",
"q 	c #3A542F",
"r 	c #364E2C",
"s 	c #334A2A",
"t 	c #334A29",
"u 	c #293C20",
"v 	c #162210",
"w 	c #0E180A",
"x 	c #1A2814",
"y 	c #304627",
"z 	c #3A5430",
"A 	c #283C20",
"B 	c #122410",
"C 	c #0B1E0B",
"D 	c #0F250F",
"E 	c #102710",
"F 	c #112611",
"G 	c #0F1F0D",
"H 	c #172512",
"I 	c #11220F",
"J 	c #22331B",
"K 	c #2A3D21",
"L 	c #38512E",
"M 	c #5A740B",
"N 	c #627B0C",
"O 	c #5F780B",
"P 	c #61790C",
"Q 	c #61790B",
"R 	c #647B0D",
"S 	c #637B0D",
"T 	c #647C0D",
"U 	c #5F770A",
"V 	c #5F780A",
"W 	c #5E7709",
"X 	c #5E7508",
"Y 	c #62770A",
"Z 	c #5F7509",
"` 	c #607808",
" .	c #657A0C",
"..	c #1C2B16",
"+.	c #1C2A15",
"@.	c #081006",
"#.	c #081808",
"$.	c #1C3C1C",
"%.	c #214421",
"&.	c #0F240F",
"*.	c #010401",
"=.	c #030A03",
"-.	c #020401",
";.	c #070E05",
">.	c #182613",
",.	c #587108",
"'.	c #5E7509",
").	c #60780B",
"!.	c #627B0D",
"~.	c #627A0C",
"{.	c #62790C",
"].	c #607709",
"^.	c #5F7609",
"/.	c #607708",
"(.	c #5E7507",
"_.	c #62790A",
":.	c #344B2A",
"<.	c #23361D",
"[.	c #0E1F0D",
"}.	c #0A1C0A",
"|.	c #091B09",
"1.	c #0A1A09",
"2.	c #0C1709",
"3.	c #0B1B0A",
"4.	c #0E230E",
"5.	c #183518",
"6.	c #224722",
"7.	c #265226",
"8.	c #245724",
"9.	c #225922",
"0.	c #102610",
"a.	c #183418",
"b.	c #234723",
"c.	c #152511",
"d.	c #293D21",
"e.	c #63780B",
"f.	c #61780B",
"g.	c #63790D",
"h.	c #60790A",
"i.	c #637A0C",
"j.	c #627708",
"k.	c #64790A",
"l.	c #0E1F0C",
"m.	c #071707",
"n.	c #030D03",
"o.	c #030C03",
"p.	c #010301",
"q.	c #020A02",
"r.	c #264D26",
"s.	c #1D631D",
"t.	c #186918",
"u.	c #204420",
"v.	c #1B3A1B",
"w.	c #0D210D",
"x.	c #070D05",
"y.	c #667B0E",
"z.	c #607508",
"A.	c #627A0A",
"B.	c #617508",
"C.	c #617A0A",
"D.	c #3A532F",
"E.	c #354D2B",
"F.	c #2D4324",
"G.	c #1E3319",
"H.	c #112811",
"I.	c #0B1F0B",
"J.	c #274F27",
"K.	c #0F700F",
"L.	c #107010",
"M.	c #274E27",
"N.	c #265126",
"O.	c #245624",
"P.	c #1E601E",
"Q.	c #166B16",
"R.	c #1C2E17",
"S.	c #39522E",
"T.	c #617609",
"U.	c #617509",
"V.	c #637B0C",
"W.	c #1D3319",
"X.	c #1E3E1D",
"Y.	c #193719",
"Z.	c #0A1D0A",
"`.	c #275027",
" +	c #0F710F",
".+	c #126F12",
"++	c #1B3B1B",
"@+	c #687C0D",
"#+	c #677C0D",
"$+	c #5F7708",
"%+	c #63770C",
"&+	c #627709",
"*+	c #273A20",
"=+	c #1F3E1E",
"-+	c #204320",
";+	c #1E3E1E",
">+	c #153015",
",+	c #1F601F",
"'+	c #235923",
")+	c #162612",
"!+	c #26391E",
"~+	c #667D0E",
"{+	c #677B0D",
"]+	c #617608",
"^+	c #2C4324",
"/+	c #122A12",
"(+	c #186818",
"_+	c #1D621D",
":+	c #126E12",
"<+	c #697F0F",
"[+	c #63770B",
"}+	c #0E240E",
"|+	c #5D760B",
"1+	c #5C740B",
"2+	c #65790C",
"3+	c #132410",
"4+	c #506B07",
"5+	c #546F08",
"6+	c #6B810E",
"7+	c #677A0F",
"8+	c #63770A",
"9+	c #273B20",
"0+	c #446205",
"a+	c #556F08",
"b+	c #4D6707",
"c+	c #677C0F",
"d+	c #647C0C",
"e+	c #283B20",
"f+	c #677C0E",
"g+	c #657D0F",
"h+	c #667E0F",
"i+	c #667F0F",
"j+	c #657D0E",
"k+	c #162411",
"l+	c #081708",
"m+	c #0F190B",
"n+	c #2F4626",
"o+	c #23381D",
"p+	c #11230F",
"q+	c #102510",
"r+	c #081306",
"s+	c #5E780B",
"t+	c #617B0C",
"u+	c #647D0E",
"v+	c #152712",
"w+	c #091909",
"x+	c #0E190A",
"y+	c #617B0D",
"z+	c #193519",
"A+	c #0E220E",
"B+	c #25371E",
"C+	c #60780C",
"D+	c #61780C",
"E+	c #0A1B0A",
"F+	c #60750A",
"G+	c #030602",
"H+	c #24371D",
"I+	c #1B651B",
"J+	c #205E20",
"K+	c #225422",
"L+	c #165C16",
"M+	c #165D16",
"N+	c #225522",
"O+	c #112711",
"P+	c #091A09",
"Q+	c #080F05",
"R+	c #607507",
"S+	c #205D20",
"T+	c #214A21",
"U+	c #134013",
"V+	c #134113",
"W+	c #020602",
"X+	c #152110",
"Y+	c #2C4023",
"Z+	c #0D1609",
"`+	c #0B1D0B",
" @	c #0F230F",
".@	c #234623",
"+@	c #264C26",
"@@	c #1E501E",
"#@	c #173817",
"$@	c #163016",
"%@	c #1D3D1D",
"&@	c #0E250E",
"*@	c #020802",
"=@	c #101F0D",
"-@	c #1B641B",
";@	c #1B611B",
">@	c #1F4F1F",
",@	c #162F16",
"'@	c #030B03",
")@	c #1E2F18",
"!@	c #11200E",
"~@	c #0D220D",
"{@	c #163916",
"]@	c #224622",
"^@	c #050B04",
"/@	c #26391F",
"(@	c #717E31",
"_@	c #1A611A",
":@	c #1E4F1E",
"<@	c #214321",
"[@	c #1D3E1D",
"}@	c #070D04",
"|@	c #020502",
"1@	c #1D2E17",
"2@	c #0F1E0C",
"3@	c #254C25",
"4@	c #071607",
"5@	c #235A23",
"6@	c #163116",
"7@	c #166A16",
"8@	c #081908",
"9@	c #1E2E18",
"0@	c #1C3D1C",
"a@	c #1C3E1D",
"b@	c #193619",
"c@	c #254C26",
"d@	c #204421",
"e@	c #254D26",
"f@	c #23341B",
"g@	c #667A0E",
"h@	c #132D13",
"i@	c #1A2914",
"j@	c #0C1F0C",
"k@	c #223C1C",
"l@	c #252811",
"m@	c #242811",
"n@	c #223B1C",
"o@	c #1B3C1C",
"p@	c #1F4421",
"q@	c #264622",
"r@	c #304823",
"s@	c #31401F",
"t@	c #2B2B13",
"u@	c #261708",
"v@	c #261608",
"w@	c #111F0E",
"x@	c #152210",
"y@	c #061406",
"z@	c #224723",
"A@	c #252712",
"B@	c #3A2913",
"C@	c #3A2A13",
"D@	c #252912",
"E@	c #0F2710",
"F@	c #0D1B0A",
"G@	c #262E14",
"H@	c #3C371A",
"I@	c #45381B",
"J@	c #433017",
"K@	c #422B14",
"L@	c #422A14",
"M@	c #11210E",
"N@	c #040F04",
"O@	c #452D16",
"P@	c #34210E",
"Q@	c #251708",
"R@	c #241507",
"S@	c #1C1005",
"T@	c #191005",
"U@	c #271809",
"V@	c #2F1E0C",
"W@	c #3C2712",
"X@	c #4A3118",
"Y@	c #4D3319",
"Z@	c #0C200C",
"`@	c #1A3A1B",
" #	c #225A22",
".#	c #040D04",
"+#	c #4B3118",
"@#	c #462D16",
"##	c #3B2511",
"$#	c #3C2611",
"%#	c #2F1D0C",
"&#	c #34200E",
"*#	c #4E3319",
"=#	c #4E3419",
"-#	c #432B14",
";#	c #0A200C",
">#	c #0C1B0A",
",#	c #33210E",
"'#	c #452E16",
")#	c #3B2612",
"!#	c #2E1D0C",
"~#	c #38220D",
"{#	c #4E3114",
"]#	c #583717",
"^#	c #593717",
"/#	c #563618",
"(#	c #503419",
"_#	c #251608",
":#	c #245824",
"<#	c #1C3118",
"[#	c #1B371A",
"}#	c #071507",
"|#	c #4E3014",
"1#	c #603913",
"2#	c #683D13",
"3#	c #693D13",
"4#	c #623B15",
"5#	c #553617",
"6#	c #010201",
"7#	c #1C3D1D",
"8#	c #142E14",
"9#	c #24210D",
"0#	c #3A2511",
"a#	c #37220D",
"b#	c #5D3916",
"c#	c #653C14",
"d#	c #231508",
"e#	c #160E05",
"f#	c #2A2B13",
"g#	c #166716",
"h#	c #106310",
"i#	c #145A14",
"j#	c #1C4C1C",
"k#	c #132C13",
"l#	c #132E14",
"m#	c #122B12",
"n#	c #201F0C",
"o#	c #2A1A0B",
"p#	c #643B14",
"q#	c #4F3114",
"r#	c #3B2611",
"s#	c #0F2610",
"t#	c #1D531D",
"u#	c #104410",
"v#	c #083608",
"w#	c #0D2C0D",
"x#	c #0C210C",
"y#	c #172B14",
"z#	c #112710",
"A#	c #112911",
"B#	c #102811",
"C#	c #1F1D0B",
"D#	c #201206",
"E#	c #1F1206",
"F#	c #201306",
"G#	c #2B1B0B",
"H#	c #402811",
"I#	c #3D230A",
"J#	c #44270B",
"K#	c #523213",
"L#	c #623A15",
"M#	c #553618",
"N#	c #503418",
"O#	c #271708",
"P#	c #252812",
"Q#	c #0F290F",
"R#	c #011301",
"S#	c #031003",
"T#	c #0B1C0B",
"U#	c #2A3E22",
"V#	c #172A14",
"W#	c #251709",
"X#	c #211407",
"Y#	c #211306",
"Z#	c #241608",
"`#	c #3C2209",
" $	c #56300B",
".$	c #63380E",
"+$	c #673C11",
"@$	c #452D15",
"#$	c #0C2A0C",
"$$	c #042704",
"%$	c #072007",
"&$	c #0D1F0D",
"*$	c #102711",
"=$	c #232310",
"-$	c #261809",
";$	c #170D04",
">$	c #060301",
",$	c #371D04",
"'$	c #57300A",
")$	c #63390E",
"!$	c #673B11",
"~$	c #5D3816",
"{$	c #241809",
"]$	c #081A08",
"^$	c #0A2C0A",
"/$	c #062C06",
"($	c #0A260A",
"_$	c #2A3F22",
":$	c #2D3D21",
"<$	c #242311",
"[$	c #1F1E0D",
"}$	c #192210",
"|$	c #14200F",
"1$	c #0F1A0B",
"2$	c #2A1503",
"3$	c #381D04",
"4$	c #1E1808",
"5$	c #091C0A",
"6$	c #0D270D",
"7$	c #0C320C",
"8$	c #062E06",
"9$	c #0A250A",
"0$	c #5E750A",
"a$	c #607909",
"b$	c #677A0C",
"c$	c #2C1907",
"d$	c #4B2E12",
"e$	c #392510",
"f$	c #0B0501",
"g$	c #0C0502",
"h$	c #180D04",
"i$	c #1B1005",
"j$	c #587008",
"k$	c #395502",
"l$	c #496306",
"m$	c #62760A",
"n$	c #351C05",
"o$	c #59340F",
"p$	c #613A15",
"q$	c #221507",
"r$	c #1B0F05",
"s$	c #140803",
"t$	c #182A14",
"u$	c #5E7609",
"v$	c #5D770A",
"w$	c #506B06",
"x$	c #3F5C04",
"y$	c #677F11",
"z$	c #5B750A",
"A$	c #536C05",
"B$	c #6D8210",
"C$	c #637D0F",
"D$	c #677E0F",
"E$	c #677F0F",
"F$	c #5E770C",
"G$	c #5B7509",
"H$	c #172411",
"I$	c #140D05",
"J$	c #241508",
"K$	c #44270A",
"L$	c #201307",
"M$	c #030502",
"N$	c #081005",
"O$	c #657E0F",
"P$	c #627D0D",
"Q$	c #607B0D",
"R$	c #5A7308",
"S$	c #567007",
"T$	c #496405",
"U$	c #506B0A",
"V$	c #5E790D",
"W$	c #456104",
"X$	c #4D6706",
"Y$	c #5B760B",
"Z$	c #667B0D",
"`$	c #221508",
" %	c #221407",
".%	c #150F05",
"+%	c #101B0C",
"@%	c #182512",
"#%	c #1D2C16",
"$%	c #25361D",
"%%	c #25371D",
"&%	c #293C21",
"*%	c #637D0E",
"=%	c #607A0D",
"-%	c #556F07",
";%	c #3F5C03",
">%	c #486506",
",%	c #496606",
"'%	c #587209",
")%	c #60790D",
"!%	c #180E05",
"~%	c #33200E",
"{%	c #4C3319",
"]%	c #563617",
"^%	c #21321A",
"/%	c #647A0E",
"(%	c #5E760A",
"_%	c #627C0D",
":%	c #5F790D",
"<%	c #5D770C",
"[%	c #5C7508",
"}%	c #5A7408",
"|%	c #597207",
"1%	c #506A06",
"2%	c #3C5902",
"3%	c #405E03",
"4%	c #4E6907",
"5%	c #59730A",
"6%	c #3A2611",
"7%	c #61750A",
"8%	c #60770C",
"9%	c #62790D",
"0%	c #5F770C",
"a%	c #637C0F",
"b%	c #647C0E",
"c%	c #5B7409",
"d%	c #5C730A",
"e%	c #567008",
"f%	c #5A7108",
"g%	c #623B14",
"h%	c #0D1709",
"i%	c #60790B",
"j%	c #5C3816",
"k%	c #687B0F",
"l%	c #62770C",
"m%	c #2E4425",
"n%	c #65790D",
"o%	c #637809",
"p%	c #162311",
"q%	c #61760B",
"r%	c #677A0D",
"s%	c #677B0E",
"t%	c #65790B",
"u%	c #62780C",
"v%	c #5F7709",
"w%	c #627B0B",
"x%	c #5E7306",
"y%	c #442D16",
"z%	c #657A0A",
"A%	c #637B09",
"B%	c #617907",
"C%	c #617A0C",
"D%	c #687C0E",
"E%	c #657C0E",
"F%	c #5F770B",
"G%	c #677D0D",
"H%	c #627D0E",
"I%	c #5C760A",
"J%	c #2E4325",
"K%	c #1A1005",
"L%	c #1C1106",
"M%	c #627A0D",
"N%	c #627C0E",
"O%	c #5A7307",
"P%	c #698011",
"Q%	c #667E0E",
"  . + @ # $ % & * = - ; > ; , ' ) ! ~ { ] ^ / ( _ : < [ [ } | 1 2 3 3 3 3 4 5 6 7 } | 1 2 3 3 4 5 6 7 8 9 0 a b c [ d e f g g h ",
"i < + @ j k l = _ m n ) o ; p ) ) q r s t u v w 1 x y z r A B C D E F F F F E D G H G C D E F F E D I J K y L M N O P Q R S T N ",
": U V m W X * Y : p Z ` p R  .p  .} | ..+.@.3 3 3 5 x r | B #.E $.%.%.%.%.%.%.$.&.*.=.E $.%.%.%.%.$.D -.;.>.y ,.'.< P ).!.~.P {.",
": ].^._ {.- /.(.m ; _.q r s t :.s <.[.}.|.C D E E D 1.2.3.4.E 5.6.7.8.9.9.8.7.6.5.0.0.a.b.7.8.8.7.b.a.E 0.4.c.J d.y L e.f.{.g.h.",
"]._.i.; Z ( /.j.k.p i.} | ..+.....l.m.n.o.E $.%.%.$.&.p.q.E $.b.r.8.s.t.t.s.8.r.b.u.u.b.r.8.s.s.8.r.b.%.u.v.w.-.x.>.y {.{.f.y.{.",
"( {.z._.A.B._.Q C.D.E.F.G.H.E &.I.&.E 0.F a.b.J.J.b.a.0.0.5.6.J.J.9.t.K.L.t.9.J.M.M.J.N.O.P.Q.Q.P.8.N.J.J.6.5.E 0.&.R.y S.' g.T.",
"> U.V.;  ._.p m @ r | W.X.%.%.Y.Z.E $.u.%.6.r.`.`.r.6.u.u.6.r.J.J.9.t. + +t.9.J.J.J.J.8.s.Q..+.+Q.s.8.`.J.r.6.%.u.++&.>.y @+_._.",
"[ #+$+> %+&+> > _.r *+G.=+-+;+>+E a.b.N.8.9.9.9.9.9.9.O.N.J.M.M.J.O.s.Q..+t.9.7.O.9.9.,+Q.L.L.L.L.t.'+J.M.J.J.J.J.6.5.&.)+!+E.) ",
"~+#+{+' _.]+p > p D.E.^+G./+C E $.b.r.8.s.t.t.t.t.t.t.s.8.J.J.J.J.N.8.P.Q.(+9.8._+t.t.Q.:+L.L.L.L.t.9.J.J.J.J.`.J.r.6.++4.6 7 e.",
"<+).U [+{.&+)  .]+z r A B 4.E a.b.N.8.,+Q.L.L.L.L.L.L.Q.,+9.'+9.9.O.N.8.s._+8.O._+Q..+L.L.L.L.L.L.Q.,+9.'+9.9.O.N.J.J.6.5.}+I 7 ",
"|+1+d ,  ._.2+]+]+r *+3+#.E $.b.r.8.s.Q..+L.L.L.L.L.L.:+Q.t.t.t.t.s.O.7.O.O.7.7.8.P.Q.L.L.L.L.L.L.:+Q.t.t.t.t.s.8.J.J.r.6.++}+6 ",
"4+5+6+7+8+ .' D.E.9+3+&.E 5.6.N.8.,+Q.L.L.L.L.L.L.L.L.L.L.L.L.L.L.Q.,+O.N.J.M.M.J.O.s.Q..+L.L.L.L.L.L.L.L.L.L.Q.,+8.N.`.J.%.E 4 ",
"0+a+, , R R i.r | B #.E $.b.r.8.s.Q..+L.L.L.L.L.L.L.L.L.L.L.L.L.L..+Q.s.O.J.J.J.J.N.O.,+Q.L.L.L.L.L.L.L.L.L.L..+Q.s.O.`.J.%.E 4 ",
"b+9 c+T ~+~+d+r e+G =.0.u.J.J.9.t.L.L.L.L.L.L.L.L.L.L.L.L.L.L.L.L.L.L.Q.,+9.'+O.N.M.J.O.s.Q..+L.L.L.L.L.L.L.L.L.L.t.9.r.b.v.4.2 ",
"N f+~+g+h+i+j+D.E.k+p.E %.J.`.9.t.L.L.L.L.L.L.L.L.L.L.L.L.L.L.L.L.L.L.:+Q.t.t.s.8.J.M.N.O.,+Q.L.L.L.L.L.L.L.L.L.L.t.9.6.a.w.l+m+",
"P T g+h+h+q r n+o+p+D 5.b.M.J.'+t.L.L.L.L.L.L.L.L.L.L.L.L.L.L.L.L.L.L.L.L.L.L.Q.,+O.N.M.J.O.s.Q.:+L.L.L.L.L.L.L.L.t.9.u.q+3 r+| ",
"s+t+u+i+h+} | v+w+E $.6.r.J.J.9.t.L.L.L.L.L.L.L.L.L.L.L.L.L.L.L.L.L.L.L.L.L.L..+Q.s.O.J.M.N.O.,+Q.L.L.L.L.L.L.L.L.t.9.u.q+3 x+} ",
". y+!.q } 9+B &.E 5.6.7.8.'+9.,+Q.L.L.L.L.L.L.L.L.L.L.L.L.L.L.L.L.L.L.L.L.L.L.L.L.Q.,+8.N.J.J.9.t.L.K.L.L.L.L.K.L.t.9.6.z+A+3.B+",
"C+C+R r | B #.E $.b.r.8.s.t.t.Q.:+L.L.L.L.L.L.L.L.L.L.L.L.L.L.L.L.L.L.L.L.L.L.L.L..+Q.s.O.M.M.'+t.L.L.L.L.L.L.L.L.t.9.r.b.v.4.6 ",
"m m D+:...E+n.0.u.J.J.9.t.L. +L.L.L.L.L.L.L.L.L.L.L.L.L.L.L.L.L.L.L.L.L.L.L.L.L.L.L.L.t.'+M.M.9.t.:+Q.(+(+(+t.Q..+t.9.r.b.++}+2 ",
"V.W F+t +.|.o.E %.J.`.9.t.L. +L.L.L.L.L.L.L.L.L.L.L.L.L.L.L.L.L.L.L.L.L.L.L.L.L.L.L.L.t.9.J.J.9.t.Q.P.9.'+'+9.P.Q.t.9.6.z+0.C G+",
"].q } H+[.}+E 5.6.J.`.8.s.t.t.t.t.Q.:+L.L.L.L.L.L.L.L.L.L.L.L.L.L.L.L.L.L.L.L.L.L.L.L.Q.,+O.N.O._+I+J+9.9.O.N.K+L+M+N+%.O+q.P+Q+",
"R+r | [.m.E $.6.r.J.J.7.8.9.9.'+9.,+Q.L.L.L.L.L.L.L.L.L.L.L.L.L.L.L.L.L.L.L.L.L.L.L.L.:+Q.s.O.7.O.S+I+t.(+s.O.T+U+V+T+u.E W+l+X+",
"( Y+Z+`+ @a..@J.J.+@6.-+-+6.r.J.`.8.s.Q..+L.L.L.L.L.L.L.L.L.L.L.L.L.L.L.L.L.L.L.L.L.L.L.L.Q.,+'+'+S+I+Q.:+Q.P.@@#@$@%@v.&@*@=@| ",
"]...5 &.++6.r.`.J.6.5.0.0.a.b.M.J.N.O.,+Q.L.L.L.L.L.L.L.L.L.L.L.L.L.L.L.L.L.L.L.L.L.L.L.L.:+Q.t.(+-@J+P.Q..+Q.;@>@%@,@D C '@)@} ",
"y !@~@{@>@9.'+'+9.>@{@0.q+$@%@-+%.]@r.8.s.Q..+L.L.L.L.L.L.L.L.L.L.L.L.L.L.L.L.L.L.L.L.L.L.L.L. +L.t.9.9.t.:+Q.I+J+@@{@&.}.^@/@(@",
">. @++>@;@t.t.t.t._@:@%.<@[@$@0.E a.b.N.8.,+Q.L.L.L.L.L.L.L.L.L.L.L.L.L.L.L.L.L.L.L.L.L.L.L.L. +L.(+'+9.(+Q.P.J+I+;@@@v.A+^@/@{ ",
"}@F %.9.t.L.L.L.L.Q.,+'+'+>@{@0.0.$@[@b.r.8.s.t.t.Q.:+L.L.L.L.L.L.L.L.:+Q.t.t.t.t.t.t.t.t.t.t.t.t._+8.8.s.s.8.8.s.s.8.%.F |@1@} ",
"-.F %.'+t.L. +L.L.:+Q.t.t.;@>@%.<@%@$@a.]@N.8.'+9.,+Q.L.L.L.L.L.L.L.L.Q.,+9.'+9.9.9.9.9.9.9.9.9.9.O.7.7.O.O.7.7.8.8.7.%.E *.2@| ",
"5 F %.9.t.L.L.L.L.L.L.L.L.Q.,+8.N.u.E E u.J.J.J.J.8.s.t.t.t.t.t.t.t.t.s.8.J.J.J.J.J.J.J.J.J.J.J.J.J.J.3@6.u.-+-+u.b.r.%.E p.4@+.",
"4 F %.9.t.L.L.L.L.L.L.L.L..+Q.s.8.%.0.0.-+J.J.M.J.N.O.9.9.9.9.9.9.9.9.O.N.J.M.J.J.J.J.J.J.J.J.J.J.J.J.b.a.F 0.0.F z+b.%.H.p.4@+.",
"3 F %.8.s.Q..+L.L.L.L.:+Q.Q.:+t.5@%.0.0.-+J.`.J.J.J.J.J.J.J.J.J.J.J.J.J.J.J.J.J.J.J.J.J.J.J.J.J.J.J.J.6.5.E 0.E E 6@[@++D *@=@| ",
"3 E %.N.8.,+Q.L.L.L.L.7@,+P.Q.t.9.u.F E u.J.J.J.J.J.J.J.J.J.J.J.J.J.J.J.J.J.J.J.J.J.J.J.J.J.J.J.J.J.J.3@6.u.-+%.u.%@$@w.8@'@9@} ",
"5 D 0@b.r.8.s.t.t.t.t._+8.8.s.;@@@a@$@b@b.+@b.6.+@J.`.J.J.c@6.d@d@d@d@d@d@6.e@J.J.J.J.J.J.J.J.J.J.J.J.J.J.J.J.J.J.6.5.D P+G+f@g@",
"2 ~@h@a.b.N.8.9.9.9.9.O.N.7.O.>@{@$@%@b.r.6.5.5.6.J.J.J.J.6.5.E 0.E E 0.E 5.6.J.J.J.J.J.J.J.J.J.J.J.J.J.J.J.J.`.J.r.6.$.D 5 i@f+",
"Q+j@}.E %.J.`.J.J.J.J.J.J.e@6.k@l@m@n@d@d@o@D D o@p@d@q@r@s@t@u@v@u@u@v@u@l@k@b.r.J.J.J.J.J.J.J.J.7.8.O.7.J.M.J.J.J.J.6.5.w.w@y ",
"x@}.y@0.u.J.J.J.J.J.J.J.J.z@a.A@B@C@D@H.E@D F@E+D E@E G@H@I@J@K@L@K@K@K@K@B@l@5.6.J.J.J.J.J.J.J.J.8.s.s.8.J.J.J.J.J.J.r.6.v.4.>.",
"*+M@N@D 0@6.r.J.J.J.J.`.J.d@E@u@L@O@P@u@Q@R@S@T@R@u@U@V@W@O@X@Y@Y@Y@Y@Y@Y@K@u@Z@`@6.r.J.`.J.J.J.J.9.t.Q.P. #9.8.7.J.M.J.J.%.E }@",
"} )@.#w.h@5.6.J.J.J.J.J.J.d@0.v@K@+#@#K@L@##R@R@##K@K@$#%#&#O@Y@*#Y@Y@=#Y@-#v@.#;#5.b.J.J.J.J.J.J.9.t.:+Q.t.t.s.8.J.J.`.J.%.E -.",
"E.<.>#~@}.E %.J.`.`.J.r.6.k@l@P@@#Y@*#*#Y@O@,#P@O@+#'#)#!#~#{#]#^#]#]#/#(#K@_#3 3 D $.d@d@6.c@J.J.8.s.t.t.t.t.I+J+ #5@:#7.%.E 5 ",
"*+<#[#>+}#0.u.J.J.J.J.6.5.m@C@O@+#Y@Y@*#Y@X@O@'#X@'#P@V@W@|#1#2#3#2#2#4#5#K@Q@3 6#E+D 0.E 5.6.J.J.7.8.9.9.9.9.J+I+t.t.s.8.%.F 4 ",
"| W.X.Y.m.D $.%.%.%.%.7#8#9#0#K@K@K@K@O@+#*#*#+#O@)#!#a#{#b#c#2#2#2#2#c#b#{#a#d#e#T@R@v@u@f#s@r@q@d@p@6.e@J.`.8.s.g#h#i#j#$.D 5 ",
"E.^+G.k#I.~@h@E E E E l#m#n#o#U@u@Q@u@,#O@Y@*#'#P@!#W@{#1#c#b#]#]#]#]#b#p#1#q#r#d#R@##L@K@J@I@H@G@0.s#a.b.M.J.7.8.t#u#v#w#E x#2 ",
"; r | y#z#A#H.w.Z@Z@w.B#A#C#u@D#E#F#D#G#r#K@K@H#I#J#K#b#c#L#M#N#M#M#N#M#L#c#b#|#~#,#O@Y@Y@Y@Y@'#P@O#u@P#k@%.d@%.%.$.Q#R#S#8@T#Q+",
"[+z r U#V#/+A#x#x#x#x#A#/+C#W#X#F#F#F#Y#Z#Q@u@`# $.$+$c#b#M#(#M#L#L#M#(#M#b#c#1#{#O@X@Y@*#Y@Y@+#@$K@L@C@l@E E@E F E #$$$%$4.&$x@",
"]._.].r | V#z#w.Z@Z@w.*$V#=$-$D#E#D#D#;$>$3 3 ,$'$)$!$L#M#(#M#~$p#p#~$M#(#]#2#2#]#Y@Y@Y@Y@*#Y@+#O@K@K@r#{$n.n.o.n.]$^$/$($z#V#| ",
"p > {.z r _$y#x#x#x#x#y#_$:$<$X#F#F#F#[$}$|$1$2$3$J#K#M#(#M#L#p#b#b#p#L#M#]#2#3#^#Y@Y@Y@Y@Y@Y@'#P@U@u@u@4$|.5$|.E+6$7$8$9$y#_$} ",
"Z < 0$% C+} | ..+.+...*+} } *+..+.+...| } a$b$w 3 c$d$M#(#]#2#2#]#]#2#2#]#5#L#4#/#*#Y@+#O@K@K@e$d#f$g$h$i$n.|.Z@w.z#V#+...| } : ",
"[ j$k$l$i.q r s t t s r q q r s t t s r q < m$w 3 n$o$p$/#]#2#2#]#]#2#2#]#N#M#5#N#Y@Y@O@,#u@Q@q$S@r$S@S@s$o.|.x#w.t$U#t :.r q u$",
"v$& w$x$y$z$0 A$b B$< [ d C$D$E$h+  F$G$# y H$I$J$K$.$2#]#5#L#p#b#b#p#L#5#Y@Y@+#O@K@K@e$L$3 3 5 2 |@M$N$x@....+...| } E$O$P$Q$[ ",
"9 R$S$T$U$V$W$X$Y$Z$u$[ s+y+g ~+R i + % R$H$4 `$r#K#+$2#]#(#M#~$p#p#~$5#(#Y@Y@O@,#u@Q@ %.%+%@%#%J $%%%&%y s s t s r q <+g *%=%F$",
"G$$ # -%;%>%W$,%'%n '.[ )%P P ~.~.[ * y H$!%J$~%O@]#3#2#]#{%{%M#L#p#b#]%N#+#O@r#Z#3 3 G+^% .o ; &+/%D+{.).(%d y+u+h+h+h+j+_%:%<%",
"[%}%$ |%1%2%3%4%5%&+Q e.- g.< {.{.X ].H$4 J$6%O@+#]#2#2#]#Y@{%(#5#b#p#4#5#O@,#Z#!%+%@%J s , {.7%> R 8%9%[ 0%d !.a%T h+h+b%y+. + ",
"@ * k c%d%e%f%_ _.; V._.e.> _.m ; y H$!%J$P@'#Y@Y@5#g%p#b#]#]#]#]#b#p#4#5#K@Q@3 h%f.e.]+; {.< o 9%/.< W [ ).P P Q V.S T !.d ).C+",
"_ _ U i%Y X /.- A. .V.) : &+&+2+, H$4 J$6%O@+#Y@Y@(#5#j%p#2#2#2#2#p#~$/#N#K@Q@3 w p p 2+, {.k%k%i.l%- f.X ).d < D+P i.~.~.P T {.",
": f.{.(.Y ; ( _.i.i.Y  .Z$m%H$w Z+!%Z#P@O@X@O@O@X@Y@Y@5#g%2#2#3#2#4#M#Y@Y@K@Q@3 w #+Z$> y.8+y.g.y.( _.m ].n%P m m m R y.Q {.Y ( ",
"].m : R+( o%_.: : i._.p ) p%4 3 3 J$r#'#+#O@P@,#O@Y@Y@(#5#]#]#]#]#5#(#Y@Y@K@u@3 h%q%r%g.R y.s%Y l%&+e.A.t%u%v%u%> f.Z$i.{.].) V.",
"d+_.e.]+~.w%Y ~.Z$m%H$w Z+T@Z#Q@u@,#O@Y@Y@O@,#P@O@Y@Y@Y@Y@Y@Y@X@O@O@X@Y@Y@O@,#Z#!%h%w h%h%Z+h%H$m%Y ; _.2+x%j ; , Y Z Y > V.; > ",
"R /.~._.Q ( e. .( p%4 3 3 Z#r#K@K@O@+#Y@Y@X@O@O@X@Y@Y@Y@Y@Y@Y@y%~%,#O@Y@Y@+#O@r#Z#3 3 3 3 3 3 4 p% ._.: _.[ d [+&+z%A%B%_.b$_.o ",
"C%m ].{.m Z ; y H$T@J$Q@u@,#O@Y@Y@Y@Y@Y@Y@Y@Y@X@O@O@X@Y@Y@+#O@W@V@,#O@Y@Y@Y@Y@O@,#u@Q@u@u@u@u@Z#T@h%w Z+h%H$m%Z$; 8+[+D%#+Z$, E%",
"N d F%* * j * H$4 Z#6%K@K@O@+#Y@*#Y@Y@Y@Y@Y@Y@O@P@,#O@Y@Y@O@,#%#W@O@X@Y@Y@Y@Y@+#O@K@K@K@K@K@K@r#Z#3 3 3 3 4 p%_.i%d N R g G%f u+",
"H%y++ I%% J%x@K%_#P@O@Y@Y@Y@Y@Y@Y@Y@Y@Y@Y@Y@Y@K@u@u@K@Y@Y@K@u@u@K@Y@Y@Y@Y@Y@Y@Y@Y@Y@Y@Y@Y@Y@Y@'#P@U@u@U@U@_#L%x@J%+ M%~+D$h+<+j+",
"u+)%F$z$R$H$4 J$6%O@+#Y@*#Y@Y@Y@Y@Y@Y@Y@Y@Y@Y@K@Q@Q@K@Y@Y@K@Q@u@K@Y@*#Y@Y@Y@Y@Y@Y@Y@Y@Y@Y@*#Y@+#O@K@K@K@K@6%Z#4 H$E$R g+h+h+D$~+",
"N%:%<%G$O%p%4 u@K@Y@Y@Y@Y@Y@Y@Y@Y@Y@Y@Y@Y@Y@Y@K@u@u@K@Y@Y@K@u@u@K@Y@Y@Y@Y@Y@Y@Y@Y@Y@Y@Y@Y@Y@Y@Y@Y@Y@Y@Y@Y@K@u@4 p%P%t+T Q%h+D$u+"};
