/* XPM */
static char * wall4_xpm[] = {
"64 64 637 2",
"  	c #627B0E",
". 	c #5F790C",
"+ 	c #5E770B",
"@ 	c #5D760A",
"# 	c #597308",
"$ 	c #5B7408",
"% 	c #5B7508",
"& 	c #5C7509",
"* 	c #5D7508",
"= 	c #5F760A",
"- 	c #61770B",
"; 	c #62790B",
"> 	c #64790C",
", 	c #647B0C",
"' 	c #657A0D",
") 	c #64790B",
"! 	c #748037",
"~ 	c #8B8A71",
"{ 	c #90907C",
"] 	c #979688",
"^ 	c #8C8C75",
"/ 	c #6B7C23",
"( 	c #61790A",
"_ 	c #5E7608",
": 	c #60780A",
"< 	c #60770B",
"[ 	c #5E770A",
"} 	c #364D2C",
"| 	c #273A1F",
"1 	c #101A0B",
"2 	c #020301",
"3 	c #000000",
"4 	c #000100",
"5 	c #010100",
"6 	c #060D04",
"7 	c #26381E",
"8 	c #687F10",
"9 	c #5C750A",
"0 	c #476305",
"a 	c #526D06",
"b 	c #567108",
"c 	c #6A8210",
"d 	c #60790C",
"e 	c #647C0F",
"f 	c #647D0D",
"g 	c #667D0F",
"h 	c #647D0F",
"i 	c #617A0D",
"j 	c #5D7509",
"k 	c #5D7409",
"l 	c #5B7308",
"m 	c #60770A",
"n 	c #61780A",
"o 	c #637A0D",
"p 	c #63780A",
"q 	c #3A542F",
"r 	c #364E2C",
"s 	c #334A2A",
"t 	c #334A29",
"u 	c #293C20",
"v 	c #162210",
"w 	c #0E180A",
"x 	c #1A2814",
"y 	c #304627",
"z 	c #3A5430",
"A 	c #283C20",
"B 	c #11220F",
"C 	c #091B09",
"D 	c #0E230E",
"E 	c #102710",
"F 	c #112611",
"G 	c #0F1F0D",
"H 	c #162411",
"I 	c #0E1C0B",
"J 	c #11210E",
"K 	c #22331B",
"L 	c #2A3D21",
"M 	c #38512E",
"N 	c #5A740B",
"O 	c #627B0C",
"P 	c #5F780B",
"Q 	c #61790C",
"R 	c #61790B",
"S 	c #647B0D",
"T 	c #637B0D",
"U 	c #647C0D",
"V 	c #5F770A",
"W 	c #5F780A",
"X 	c #5E7709",
"Y 	c #5E7508",
"Z 	c #62770A",
"` 	c #5F7509",
" .	c #607808",
"..	c #657A0C",
"+.	c #1C2B16",
"@.	c #1C2A15",
"#.	c #081006",
"$.	c #040E04",
"%.	c #1B3B1B",
"&.	c #214421",
"*.	c #1B3A1B",
"=.	c #010301",
"-.	c #020401",
";.	c #070E05",
">.	c #182613",
",.	c #587108",
"'.	c #5E7509",
").	c #60780B",
"!.	c #627B0D",
"~.	c #627A0C",
"{.	c #62790C",
"].	c #607709",
"^.	c #5F7609",
"/.	c #607708",
"(.	c #5E7507",
"_.	c #62790A",
":.	c #344B2A",
"<.	c #23361C",
"[.	c #0A1708",
"}.	c #030C03",
"|.	c #030B03",
"1.	c #091A09",
"2.	c #0F250F",
"3.	c #0A1B0A",
"4.	c #0B1408",
"5.	c #061005",
"6.	c #071607",
"7.	c #183518",
"8.	c #224722",
"9.	c #265226",
"0.	c #245724",
"a.	c #225922",
"b.	c #102610",
"c.	c #183418",
"d.	c #234723",
"e.	c #0F240E",
"f.	c #152511",
"g.	c #293D21",
"h.	c #63780B",
"i.	c #61780B",
"j.	c #63790D",
"k.	c #60790A",
"l.	c #637A0C",
"m.	c #627708",
"n.	c #64790A",
"o.	c #0A1608",
"p.	c #1C3C1C",
"q.	c #0D210D",
"r.	c #264D26",
"s.	c #1D631D",
"t.	c #186918",
"u.	c #204420",
"v.	c #070D05",
"w.	c #667B0E",
"x.	c #607508",
"y.	c #627A0A",
"z.	c #617508",
"A.	c #617A0A",
"B.	c #3A532F",
"C.	c #354D2B",
"D.	c #2D4324",
"E.	c #1E3319",
"F.	c #112811",
"G.	c #0C1F0C",
"H.	c #051105",
"I.	c #0A1C0A",
"J.	c #274F27",
"K.	c #0F700F",
"L.	c #107010",
"M.	c #274E27",
"N.	c #265126",
"O.	c #245624",
"P.	c #1E601E",
"Q.	c #166B16",
"R.	c #0F240F",
"S.	c #1C2E17",
"T.	c #39522E",
"U.	c #617609",
"V.	c #617509",
"W.	c #637B0C",
"X.	c #1D3319",
"Y.	c #1E3E1D",
"Z.	c #0D230D",
"`.	c #000200",
" +	c #275027",
".+	c #0F710F",
"++	c #126F12",
"@+	c #687C0D",
"#+	c #677C0D",
"$+	c #5F7708",
"%+	c #63770C",
"&+	c #627709",
"*+	c #273A20",
"=+	c #1F3E1E",
"-+	c #1F421F",
";+	c #1A371A",
">+	c #1F601F",
",+	c #235923",
"'+	c #162511",
")+	c #26391E",
"!+	c #667D0E",
"~+	c #677B0D",
"{+	c #617608",
"]+	c #2C4324",
"^+	c #0F260F",
"/+	c #051205",
"(+	c #186818",
"_+	c #1D621D",
":+	c #126E12",
"<+	c #697F0F",
"[+	c #63770B",
"}+	c #12230F",
"|+	c #5D760B",
"1+	c #5C740B",
"2+	c #65790C",
"3+	c #12220F",
"4+	c #506B07",
"5+	c #546F08",
"6+	c #6B810E",
"7+	c #677A0F",
"8+	c #63770A",
"9+	c #273B20",
"0+	c #0B1E0B",
"a+	c #446205",
"b+	c #556F08",
"c+	c #4D6707",
"d+	c #677C0F",
"e+	c #647C0C",
"f+	c #283B20",
"g+	c #677C0E",
"h+	c #657D0F",
"i+	c #667E0F",
"j+	c #667F0F",
"k+	c #657D0E",
"l+	c #152311",
"m+	c #0F190B",
"n+	c #2F4626",
"o+	c #23371C",
"p+	c #0E1F0D",
"q+	c #102510",
"r+	c #020A02",
"s+	c #0C1C0A",
"t+	c #5E780B",
"u+	c #617B0C",
"v+	c #647D0E",
"w+	c #051005",
"x+	c #0F1C0C",
"y+	c #617B0D",
"z+	c #193519",
"A+	c #0D1D0B",
"B+	c #25371E",
"C+	c #60780C",
"D+	c #61780C",
"E+	c #061406",
"F+	c #1C3D1C",
"G+	c #60750A",
"H+	c #142D14",
"I+	c #0D220D",
"J+	c #030602",
"K+	c #24371D",
"L+	c #091909",
"M+	c #1B651B",
"N+	c #205E20",
"O+	c #225422",
"P+	c #165C16",
"Q+	c #165D16",
"R+	c #225522",
"S+	c #112711",
"T+	c #080F05",
"U+	c #607507",
"V+	c #205D20",
"W+	c #214A21",
"X+	c #134013",
"Y+	c #134113",
"Z+	c #152110",
"`+	c #2C4023",
" @	c #0D1609",
".@	c #091809",
"+@	c #234623",
"@@	c #264C26",
"#@	c #204320",
"$@	c #1E501E",
"%@	c #173817",
"&@	c #163016",
"*@	c #1D3D1D",
"=@	c #040F04",
"-@	c #1B641B",
";@	c #1B611B",
">@	c #1F4F1F",
",@	c #162F16",
"'@	c #132D13",
")@	c #040D04",
"!@	c #1E2F18",
"~@	c #111F0E",
"{@	c #163916",
"]@	c #224622",
"^@	c #122B12",
"/@	c #050B04",
"(@	c #26391F",
"_@	c #717E31",
":@	c #0E220E",
"<@	c #1A611A",
"[@	c #1E4F1E",
"}@	c #214321",
"|@	c #1D3E1D",
"1@	c #1C3B1C",
"2@	c #070D04",
"3@	c #254C25",
"4@	c #235A23",
"5@	c #163116",
"6@	c #166A16",
"7@	c #1C3E1D",
"8@	c #193619",
"9@	c #254C26",
"0@	c #204421",
"a@	c #254D26",
"b@	c #0C200C",
"c@	c #23341B",
"d@	c #667A0E",
"e@	c #1A2914",
"f@	c #223C1C",
"g@	c #252811",
"h@	c #242811",
"i@	c #223B1C",
"j@	c #0F210D",
"k@	c #1B3C1C",
"l@	c #1F4421",
"m@	c #264622",
"n@	c #304823",
"o@	c #31401F",
"p@	c #2B2B13",
"q@	c #261708",
"r@	c #261608",
"s@	c #11200E",
"t@	c #152210",
"u@	c #081708",
"v@	c #020602",
"w@	c #224723",
"x@	c #252712",
"y@	c #3A2913",
"z@	c #3A2A13",
"A@	c #252912",
"B@	c #0F2710",
"C@	c #1F2610",
"D@	c #221C0B",
"E@	c #262E14",
"F@	c #3C371A",
"G@	c #45381B",
"H@	c #433017",
"I@	c #422B14",
"J@	c #422A14",
"K@	c #101F0D",
"L@	c #020702",
"M@	c #452D16",
"N@	c #34210E",
"O@	c #251708",
"P@	c #2E1D0C",
"Q@	c #2B1C0B",
"R@	c #191005",
"S@	c #241507",
"T@	c #271809",
"U@	c #2F1E0C",
"V@	c #3C2712",
"W@	c #4A3118",
"X@	c #4D3319",
"Y@	c #1A3A1B",
"Z@	c #225A22",
"`@	c #1C4D1C",
" #	c #0D2D0D",
".#	c #4B3118",
"+#	c #462D16",
"@#	c #3C2611",
"##	c #251608",
"$#	c #3B2511",
"%#	c #2F1D0C",
"&#	c #34200E",
"*#	c #4E3319",
"=#	c #4E3419",
"-#	c #432B14",
";#	c #0A200C",
">#	c #145A14",
",#	c #083608",
"'#	c #23361D",
")#	c #0C1B0A",
"!#	c #33210E",
"~#	c #452E16",
"{#	c #3B2612",
"]#	c #38220D",
"^#	c #4E3114",
"/#	c #583717",
"(#	c #593717",
"_#	c #563618",
":#	c #503419",
"<#	c #205F20",
"[#	c #1C3118",
"}#	c #1B371A",
"|#	c #112911",
"1#	c #4E3014",
"2#	c #603913",
"3#	c #683D13",
"4#	c #693D13",
"5#	c #623B15",
"6#	c #553617",
"7#	c #010201",
"8#	c #0E2D0E",
"9#	c #030D03",
"0#	c #201407",
"a#	c #3A2411",
"b#	c #37220D",
"c#	c #5D3916",
"d#	c #653C14",
"e#	c #231508",
"f#	c #160E05",
"g#	c #2A2B13",
"h#	c #166716",
"i#	c #106310",
"j#	c #1C4C1C",
"k#	c #1C3E1C",
"l#	c #0E280E",
"m#	c #122A12",
"n#	c #0D230E",
"o#	c #181105",
"p#	c #643B14",
"q#	c #4F3114",
"r#	c #3B2611",
"s#	c #1D531D",
"t#	c #104410",
"u#	c #0D2C0D",
"v#	c #122F12",
"w#	c #0D260D",
"x#	c #172B14",
"y#	c #112710",
"z#	c #0E240E",
"A#	c #081908",
"B#	c #1C1909",
"C#	c #180D04",
"D#	c #0C0502",
"E#	c #0B0501",
"F#	c #070301",
"G#	c #201307",
"H#	c #392510",
"I#	c #402811",
"J#	c #3D230A",
"K#	c #44270B",
"L#	c #523213",
"M#	c #623A15",
"N#	c #553618",
"O#	c #503418",
"P#	c #271708",
"Q#	c #252812",
"R#	c #1C401C",
"S#	c #0F370F",
"T#	c #062C06",
"U#	c #0A260A",
"V#	c #102810",
"W#	c #0D200D",
"X#	c #2A3E22",
"Y#	c #172A14",
"Z#	c #0E240F",
"`#	c #1E1C0B",
" $	c #211407",
".$	c #1B1005",
"+$	c #1A0F04",
"@$	c #110802",
"#$	c #160C03",
"$$	c #221507",
"%$	c #3C2209",
"&$	c #56300B",
"*$	c #63380E",
"=$	c #673C11",
"-$	c #452D15",
";$	c #123112",
">$	c #0D350D",
",$	c #062E06",
"'$	c #0A250A",
")$	c #0E200E",
"!$	c #102711",
"~$	c #232310",
"{$	c #261809",
"]$	c #201206",
"^$	c #1F1206",
"/$	c #110903",
"($	c #371D04",
"_$	c #57300A",
":$	c #63390E",
"<$	c #673B11",
"[$	c #5D3816",
"}$	c #3A2611",
"|$	c #24210D",
"1$	c #0C210D",
"2$	c #102A10",
"3$	c #0D310D",
"4$	c #2A3F22",
"5$	c #0C210C",
"6$	c #2D3D21",
"7$	c #242311",
"8$	c #201306",
"9$	c #1E1D0D",
"0$	c #182210",
"a$	c #14200F",
"b$	c #0F1A0B",
"c$	c #2A1503",
"d$	c #381D04",
"e$	c #2A1B0B",
"f$	c #211E0C",
"g$	c #102C10",
"h$	c #0D330D",
"i$	c #5E750A",
"j$	c #607909",
"k$	c #677A0C",
"l$	c #2C1907",
"m$	c #4B2E12",
"n$	c #2B1B0B",
"o$	c #587008",
"p$	c #395502",
"q$	c #496306",
"r$	c #62760A",
"s$	c #351C05",
"t$	c #59340F",
"u$	c #613A15",
"v$	c #241608",
"w$	c #211307",
"x$	c #150803",
"y$	c #182A14",
"z$	c #5E7609",
"A$	c #5D770A",
"B$	c #506B06",
"C$	c #3F5C04",
"D$	c #677F11",
"E$	c #5B750A",
"F$	c #536C05",
"G$	c #6D8210",
"H$	c #637D0F",
"I$	c #677E0F",
"J$	c #677F0F",
"K$	c #5E770C",
"L$	c #5B7509",
"M$	c #172411",
"N$	c #140D05",
"O$	c #241508",
"P$	c #44270A",
"Q$	c #020502",
"R$	c #030502",
"S$	c #081005",
"T$	c #657E0F",
"U$	c #627D0D",
"V$	c #607B0D",
"W$	c #5A7308",
"X$	c #567007",
"Y$	c #496405",
"Z$	c #506B0A",
"`$	c #5E790D",
" %	c #456104",
".%	c #4D6706",
"+%	c #5B760B",
"@%	c #667B0D",
"#%	c #221508",
"$%	c #1A1206",
"%%	c #101B0C",
"&%	c #182512",
"*%	c #1D2C16",
"=%	c #25361D",
"-%	c #25371D",
";%	c #293C21",
">%	c #637D0E",
",%	c #607A0D",
"'%	c #556F07",
")%	c #3F5C03",
"!%	c #486506",
"~%	c #496606",
"{%	c #587209",
"]%	c #60790D",
"^%	c #180E05",
"/%	c #33200E",
"(%	c #4C3319",
"_%	c #563617",
":%	c #21321A",
"<%	c #647A0E",
"[%	c #5E760A",
"}%	c #627C0D",
"|%	c #5F790D",
"1%	c #5D770C",
"2%	c #5C7508",
"3%	c #5A7408",
"4%	c #597207",
"5%	c #506A06",
"6%	c #3C5902",
"7%	c #405E03",
"8%	c #4E6907",
"9%	c #59730A",
"0%	c #61750A",
"a%	c #60770C",
"b%	c #62790D",
"c%	c #5F770C",
"d%	c #637C0F",
"e%	c #647C0E",
"f%	c #5B7409",
"g%	c #5C730A",
"h%	c #567008",
"i%	c #5A7108",
"j%	c #623B14",
"k%	c #0D1709",
"l%	c #60790B",
"m%	c #5C3816",
"n%	c #687B0F",
"o%	c #62770C",
"p%	c #2E4425",
"q%	c #65790D",
"r%	c #637809",
"s%	c #162311",
"t%	c #61760B",
"u%	c #677A0D",
"v%	c #677B0E",
"w%	c #65790B",
"x%	c #62780C",
"y%	c #5F7709",
"z%	c #627B0B",
"A%	c #5E7306",
"B%	c #442D16",
"C%	c #657A0A",
"D%	c #637B09",
"E%	c #617907",
"F%	c #617A0C",
"G%	c #687C0E",
"H%	c #657C0E",
"I%	c #5F770B",
"J%	c #677D0D",
"K%	c #627D0E",
"L%	c #5C760A",
"M%	c #2E4325",
"N%	c #1A1005",
"O%	c #1C1106",
"P%	c #627A0D",
"Q%	c #627C0E",
"R%	c #5A7307",
"S%	c #698011",
"T%	c #667E0E",
"  . + @ # $ % & * = - ; > ; , ' ) ! ~ { ] ^ / ( _ : < [ [ } | 1 2 3 3 3 3 4 5 6 7 } | 1 2 3 3 4 5 6 7 8 9 0 a b c [ d e f g g h ",
"i < + @ j k l = _ m n ) o ; p ) ) q r s t u v w 1 x y z r A B C D E F F F F E D G H I C D E F F E D J K L y M N O P Q R S T U O ",
": V W m X Y * Z : p `  .p S ..p ..} | +.@.#.3 3 3 5 x r | B $.D %.&.&.&.&.&.&.*.D 4 =.D *.&.&.&.&.*.D -.;.>.y ,.'.< Q ).!.~.Q {.",
": ].^._ {.- /.(.m ; _.q r s t :.s <.[.}.|.1.2.E E 2.3.4.5.6.D 7.8.9.0.a.a.0.9.8.7.b.b.c.d.9.0.0.9.d.c.E b.e.f.K g.y M h.i.{.j.k.",
"]._.l.; ` ( /.m.n.p l.} | +.@.+.+.o.4 3 3 2.p.&.&.p.2.3 3 q.*.d.r.0.s.t.t.s.0.r.d.u.u.d.r.0.s.s.0.r.d.&.u.*.D -.v.>.y {.{.i.w.{.",
"( {.x._.y.z._.R A.B.C.D.E.F.E G.H.I.2.b.F c.d.J.J.d.c.b.b.7.8.J.J.a.t.K.L.t.a.J.M.M.J.N.O.P.Q.Q.P.0.N.J.J.8.7.E b.R.S.y T.' j.U.",
"> V.W.; .._.p m @ r | X.Y.&.&.Z.`.2.p.u.&.8.r. + +r.8.u.u.8.r.J.J.a.t..+.+t.a.J.J.J.J.0.s.Q.++++Q.s.0. +J.r.8.&.u.%.R.>.y @+_._.",
"[ #+$+> %+&+> > _.r *+E.=+-+;+C q.c.d.N.0.a.a.a.a.a.a.O.N.J.M.M.J.O.s.Q.++t.a.9.O.a.a.>+Q.L.L.L.L.t.,+J.M.J.J.J.J.8.7.e.'+)+C.) ",
"!+#+~+' _.{+p > p B.C.]+E.^+/+D *.d.r.0.s.t.t.t.t.t.t.s.0.J.J.J.J.N.0.P.Q.(+a.0._+t.t.Q.:+L.L.L.L.t.a.J.J.J.J. +J.r.8.*.q.6 7 h.",
"<+).V [+{.&+) ..{+z r A B I.D c.d.N.0.>+Q.L.L.L.L.L.L.Q.>+a.,+a.a.O.N.0.s._+0.O._+Q.++L.L.L.L.L.L.Q.>+a.,+a.a.O.N.J.J.8.7.2.}+7 ",
"|+1+d , .._.2+{+{+r *+3+$.D %.d.r.0.s.Q.++L.L.L.L.L.L.:+Q.t.t.t.t.s.O.9.O.O.9.9.0.P.Q.L.L.L.L.L.L.:+Q.t.t.t.t.s.0.J.J.r.8.p.2.6 ",
"4+5+6+7+8+..' B.C.9+3+0+D 7.8.N.0.>+Q.L.L.L.L.L.L.L.L.L.L.L.L.L.L.Q.>+O.N.J.M.M.J.O.s.Q.++L.L.L.L.L.L.L.L.L.L.Q.>+0.N. +J.&.E 4 ",
"a+b+, , S S l.r | B $.D %.d.r.0.s.Q.++L.L.L.L.L.L.L.L.L.L.L.L.L.L.++Q.s.O.J.J.J.J.N.O.>+Q.L.L.L.L.L.L.L.L.L.L.++Q.s.O. +J.&.E 4 ",
"c+9 d+U !+!+e+r f+I =.b.u.J.J.a.t.L.L.L.L.L.L.L.L.L.L.L.L.L.L.L.L.L.L.Q.>+a.,+O.N.M.J.O.s.Q.++L.L.L.L.L.L.L.L.L.L.t.a.r.d.p.2.2 ",
"O g+!+h+i+j+k+B.C.l+4 E &.J. +a.t.L.L.L.L.L.L.L.L.L.L.L.L.L.L.L.L.L.L.:+Q.t.t.s.0.J.M.N.O.>+Q.L.L.L.L.L.L.L.L.L.L.t.a.8.c.E 0+m+",
"Q U h+i+i+q r n+o+p+D 7.d.M.J.,+t.L.L.L.L.L.L.L.L.L.L.L.L.L.L.L.L.L.L.L.L.L.L.Q.>+O.N.M.J.O.s.Q.:+L.L.L.L.L.L.L.L.t.a.u.q+r+s+| ",
"t+u+v+j+i+} | f.w+D *.8.r.J.J.a.t.L.L.L.L.L.L.L.L.L.L.L.L.L.L.L.L.L.L.L.L.L.L.++Q.s.O.J.M.N.O.>+Q.L.L.L.L.L.L.L.L.t.a.u.q+=.x+} ",
". y+!.q } 9+J 0+D 7.8.9.0.,+a.>+Q.L.L.L.L.L.L.L.L.L.L.L.L.L.L.L.L.L.L.L.L.L.L.L.L.Q.>+0.N.J.J.a.t.L.K.L.L.L.L.K.L.t.a.8.z+q+A+B+",
"C+C+S r | B $.D %.d.r.0.s.t.t.Q.:+L.L.L.L.L.L.L.L.L.L.L.L.L.L.L.L.L.L.L.L.L.L.L.L.++Q.s.O.M.M.,+t.L.L.L.L.L.L.L.L.t.a.r.d.p.2.6 ",
"m m D+:.+.E+`.b.u.J.J.a.t.L..+L.L.L.L.L.L.L.L.L.L.L.L.L.L.L.L.L.L.L.L.L.L.L.L.L.L.L.L.t.,+M.M.a.t.:+Q.(+(+(+t.Q.++t.a.r.d.F+2.2 ",
"W.X G+t @.$.3 E &.J. +a.t.L..+L.L.L.L.L.L.L.L.L.L.L.L.L.L.L.L.L.L.L.L.L.L.L.L.L.L.L.L.t.a.J.J.a.t.Q.P.a.,+,+a.P.Q.t.a.8.z+H+I+J+",
"].q } K+[.L+2.7.8.J. +0.s.t.t.t.t.Q.:+L.L.L.L.L.L.L.L.L.L.L.L.L.L.L.L.L.L.L.L.L.L.L.L.Q.>+O.N.O._+M+N+a.a.O.N.O+P+Q+R+&.S+I.G.T+",
"U+r | [.4 2.p.8.r.J.J.9.0.a.a.,+a.>+Q.L.L.L.L.L.L.L.L.L.L.L.L.L.L.L.L.L.L.L.L.L.L.L.L.:+Q.s.O.9.O.V+M+t.(+s.O.W+X+Y+W+u.E E+I.Z+",
"( `+ @.@R.c.+@J.J.@@8.#@#@8.r.J. +0.s.Q.++L.L.L.L.L.L.L.L.L.L.L.L.L.L.L.L.L.L.L.L.L.L.L.L.Q.>+,+,+V+M+Q.:+Q.P.$@%@&@*@F+^+=@J | ",
"].+.5 2.p.8.r. +J.8.7.b.b.c.d.M.J.N.O.>+Q.L.L.L.L.L.L.L.L.L.L.L.L.L.L.L.L.L.L.L.L.L.L.L.L.:+Q.t.(+-@N+P.Q.++Q.;@>@*@,@'@I+)@!@} ",
"y ~@q.{@>@a.,+,+a.>@{@b.q+&@*@#@&.]@r.0.s.Q.++L.L.L.L.L.L.L.L.L.L.L.L.L.L.L.L.L.L.L.L.L.L.L.L..+L.t.a.a.t.:+Q.M+N+$@{@^@q./@(@_@",
">.:@*.>@;@t.t.t.t.<@[@&.}@|@&@b.E c.d.N.0.>+Q.L.L.L.L.L.L.L.L.L.L.L.L.L.L.L.L.L.L.L.L.L.L.L.L..+L.(+,+a.(+Q.P.N+M+;@$@1@R./@(@{ ",
"2@F &.a.t.L.L.L.L.Q.>+,+,+>@{@b.b.&@|@d.r.0.s.t.t.Q.:+L.L.L.L.L.L.L.L.:+Q.t.t.t.t.t.t.t.t.t.t.t.t._+0.0.s.s.0.0.s.s.0.&.F )@!@} ",
"-.F &.,+t.L..+L.L.:+Q.t.t.;@>@&.}@*@&@c.]@N.0.,+a.>+Q.L.L.L.L.L.L.L.L.Q.>+a.,+a.a.a.a.a.a.a.a.a.a.O.9.9.O.O.9.9.0.0.9.&.E =@J | ",
"5 F &.a.t.L.L.L.L.L.L.L.L.Q.>+0.N.u.E E u.J.J.J.J.0.s.t.t.t.t.t.t.t.t.s.0.J.J.J.J.J.J.J.J.J.J.J.J.J.J.3@8.u.#@#@u.d.r.&.E }.C @.",
"4 F &.a.t.L.L.L.L.L.L.L.L.++Q.s.0.&.b.b.#@J.J.M.J.N.O.a.a.a.a.a.a.a.a.O.N.J.M.J.J.J.J.J.J.J.J.J.J.J.J.d.c.F b.b.F z+d.&.F.}.C @.",
"3 F &.0.s.Q.++L.L.L.L.:+Q.Q.:+t.4@&.b.b.#@J. +J.J.J.J.J.J.J.J.J.J.J.J.J.J.J.J.J.J.J.J.J.J.J.J.J.J.J.J.8.7.E b.E E 5@|@F+^+=@J | ",
"3 E &.N.0.>+Q.L.L.L.L.6@>+P.Q.t.a.u.F E u.J.J.J.J.J.J.J.J.J.J.J.J.J.J.J.J.J.J.J.J.J.J.J.J.J.J.J.J.J.J.3@8.u.#@&.u.*@&@'@D )@!@} ",
"5 2.p.d.r.0.s.t.t.t.t._+0.0.s.;@$@7@&@8@d.@@d.8.@@J. +J.J.9@8.0@0@0@0@0@0@8.a@J.J.J.J.J.J.J.J.J.J.J.J.J.J.J.J.J.J.8.7.^@b@J+c@d@",
"2 0+E c.d.N.0.a.a.a.a.O.N.9.O.>@{@&@*@d.r.8.7.7.8.J.J.J.J.8.7.E b.E E b.E 7.8.J.J.J.J.J.J.J.J.J.J.J.J.J.J.J.J. +J.r.8.1@R.5 e@g+",
"T+1.r+E &.J. +J.J.J.J.J.J.a@8.f@g@h@i@0@0@*.j@2.k@l@0@m@n@o@p@q@r@q@q@r@q@g@f@d.r.J.J.J.J.J.J.J.J.J.J.J.J.J.J.J.J.J.J.8.c.q.s@y ",
"t@u@v@b.u.J.J.J.J.J.J.J.J.w@c.x@y@z@A@F.B@C@D@3.2.B@E E@F@G@H@I@J@I@I@I@I@y@g@7.8.J.J.J.J.J.J.J.J.J.J.J.J.J.J.J.J.J.J.r.8.%.R.>.",
"*+K@L@2.p.8.r.J.J.J.J. +J.0@B@q@J@M@N@q@O@P@Q@R@S@q@T@U@V@M@W@X@X@X@X@X@X@I@q@b@Y@8.r.J. +J.J.J.J.J.J.9.0.Z@Z@0.9.M.M.9.0.`@ #2@",
"} !@|.0+E 7.8.J.J.J.J.J.J.0@b.r@I@.#+#I@J@@###S@$#I@I@@#%#&#M@X@*#X@X@=#X@-#r@)@;#7.d.J.J.J.J.J.J.J.J.0.s.t.t.s.0.J.J.0.s.>#,#-.",
"C.'#)#I.r+E &.J. + +J.r.8.f@g@N@+#X@*#*#X@M@!#N@M@.#~#{#P@]#^#/#(#/#/#_#:#I@##3 3 2.p.0@0@8.9@J.J.J.J.0.s.t.t.M+N+a.4@<#M+>#,#5 ",
"*+[#}#|#L@b.u.J.J.J.J.8.7.h@z@M@.#X@X@*#X@W@M@~#W@~#N@U@V@1#2#3#4#3#3#5#6#I@O@3 7#3.2.b.E 7.8.J.J.J.J.9.0.a.Z@N+M+t.t.M+N+`@8#4 ",
"| X.Y.5@9#2.p.&.&.&.&.Y@q.0#a#I@I@I@I@M@.#*#*#.#M@{#P@b#^#c#d#3#3#3#3#d#c#^#b#e#f#R@S@r@q@g#o@n@m@0@l@8.a@J. +0.s.h#i#>#j#k#l#5 ",
"C.]+E.m#C G.E E E E E n#1.o###T@q@O@q@!#M@X@*#~#N@P@V@^#2#d#c#/#/#/#/#c#p#2#q#r#e#S@$#J@I@H@G@F@E@b.B@7.d.M.J.9.0.s#t#,#u#v#w#2 ",
"; r | x#y#z#A#9#}.}.9#A#z#B#C#D#E#F#5 G#H#I@I@I#J#K#L#c#d#M#N#O#N#N#O#N#M#d#c#1#]#!#M@X@X@X@X@~#N@P#q@Q#f@&.0@&.&.R#S#T#U#V#W#T+",
"[+z r X#Y#|#z#C C C C Z#F.`# $.$+$C#@$#$$$O@q@%$&$*$=$d#c#N#:#N#M#M#N#:#N#c#d#2#^#M@W@X@*#X@X@.#-$I@J@z@g@E B@E F ;$>$,$'$S+)$t@",
"]._.].r | Y#y#q.b@b@q.!$Y#~${$]$^$]$]$/$5 3 3 ($_$:$<$M#N#:#N#[$p#p#[$N#:#/#3#3#/#X@X@X@X@*#X@.#M@I@I@}$|$q.1$b@q.2$3$T#U#y#Y#| ",
"p > {.z r 4$x#5$5$5$5$x#4$6$7$ $8$8$8$9$0$a$b$c$d$K#L#N#:#N#M#p#c#c#p#M#N#/#3#4#(#X@X@X@X@X@X@~#N@T@q@e$f$5$1$5$W#g$h$,$'$x#4$} ",
"` < i$% C+} | +.@.@.+.*+} } *++.@.@.+.| } j$k$w 3 l$m$N#:#/#3#3#/#/#3#3#/#6#M#5#_#*#X@.#M@I@I@r#n$^$8$q@^$9#C b@q.y#Y#@.+.| } : ",
"[ o$p$q$l.q r s t t s r q q r s t t s r q < r$w 3 s$t$u$_#/#3#3#/#/#3#3#/#O#N#6#O#X@X@M@!#q@O@v$ $w$ $]$x$}.C 5$q.y$X#t :.r q z$",
"A$& B$C$D$E$0 F$b G$< [ d H$I$J$i+  K$L$# y M$N$O$P$*$3#/#6#M#p#c#c#p#M#6#X@X@.#M@I@I@r#v$3 3 5 2 Q$R$S$t@+.+.@.+.| } J$T$U$V$[ ",
"9 W$X$Y$Z$`$ %.%+%@%z$[ t+y+g !+S i + % W$M$4 #%r#L#=$3#/#:#N#[$p#p#[$6#:#X@X@M@!#q@O@v$$%%%&%*%K =%-%;%y s s t s r q <+g >%,%K$",
"L$$ # '%)%!% %~%{%n '.[ ]%Q Q ~.~.[ * y M$^%O$/%M@/#4#3#/#(%(%N#M#p#c#_%O#.#M@r#v$3 3 J+:%..o ; &+<%D+{.).[%d y+v+i+i+i+k+}%|%1%",
"2%3%$ 4%5%6%7%8%9%&+R h.- j.< {.{.Y ].M$4 O$}$M@.#/#3#3#/#X@(%:#6#c#p#5#6#M@!#v$^%%%&%K s , {.0%> S a%b%[ c%d !.d%U i+i+e%y+. + ",
"@ * k f%g%h%i%_ _.; W._.h.> _.m ; y M$^%O$N@~#X@X@6#j%p#c#/#/#/#/#c#p#5#6#I@O@3 k%i.h.{+; {.< o b%/.< X [ ).Q Q R W.T U !.d ).C+",
"_ _ V l%Z Y /.- y...W.) : &+&+2+, M$4 O$}$M@.#X@X@:#6#m%p#3#3#3#3#p#[$_#O#I@O@3 w p p 2+, {.n%n%l.o%- i.Y ).d < D+Q l.~.~.Q U {.",
": i.{.(.Z ; ( _.l.l.Z ..@%p%M$w  @^%v$N@M@W@M@M@W@X@X@6#j%3#3#4#3#5#N#X@X@I@O@3 w #+@%> w.8+w.j.w.( _.m ].q%Q m m m S w.R {.Z ( ",
"].m : U+( r%_.: : l._.p ) s%4 3 3 O$r#~#.#M@N@!#M@X@X@:#6#/#/#/#/#6#:#X@X@I@q@3 k%t%u%j.S w.v%Z o%&+h.y.w%x%y%x%> i.@%l.{.].) W.",
"e+_.h.{+~.z%Z ~.@%p%M$w  @R@v$O@q@!#M@X@X@M@!#N@M@X@X@X@X@X@X@W@M@M@W@X@X@M@!#v$^%k%w k%k% @k%M$p%Z ; _.2+A%j ; , Z ` Z > W.; > ",
"S /.~._.R ( h...( s%4 3 3 v$r#I@I@M@.#X@X@W@M@M@W@X@X@X@X@X@X@B%/%!#M@X@X@.#M@r#v$3 3 3 3 3 3 4 s%.._.: _.[ d [+&+C%D%E%_.k$_.o ",
"F%m ].{.m ` ; y M$R@O$O@q@!#M@X@X@X@X@X@X@X@X@W@M@M@W@X@X@.#M@V@U@!#M@X@X@X@X@M@!#q@O@q@q@q@q@v$R@k%w  @k%M$p%@%; 8+[+G%#+@%, H%",
"O d I%* * j * M$4 v$}$I@I@M@.#X@*#X@X@X@X@X@X@M@N@!#M@X@X@M@!#%#V@M@W@X@X@X@X@.#M@I@I@I@I@I@I@r#v$3 3 3 3 4 s%_.l%d O S g J%f v+",
"K%y++ L%% M%t@N%##N@M@X@X@X@X@X@X@X@X@X@X@X@X@I@q@q@I@X@X@I@q@q@I@X@X@X@X@X@X@X@X@X@X@X@X@X@X@~#N@T@q@T@T@##O%t@M%+ P%!+I$i+<+k+",
"v+]%K$E$W$M$4 O$}$M@.#X@*#X@X@X@X@X@X@X@X@X@X@I@O@O@I@X@X@I@O@q@I@X@*#X@X@X@X@X@X@X@X@X@X@*#X@.#M@I@I@I@I@}$v$4 M$J$S h+i+i+I$!+",
"Q%|%1%L$R%s%4 q@I@X@X@X@X@X@X@X@X@X@X@X@X@X@X@I@q@q@I@X@X@I@q@q@I@X@X@X@X@X@X@X@X@X@X@X@X@X@X@X@X@X@X@X@X@I@q@4 s%S%u+U T%i+I$v+"};
