/* XPM */
static char * wall6_xpm[] = {
"64 64 682 2",
"  	c #627B0E",
". 	c #5F790C",
"+ 	c #5E770B",
"@ 	c #5D760A",
"# 	c #597308",
"$ 	c #5B7408",
"% 	c #5B7508",
"& 	c #5C7509",
"* 	c #5D7508",
"= 	c #5F760A",
"- 	c #61770B",
"; 	c #62790B",
"> 	c #64790C",
", 	c #647B0C",
"' 	c #657A0D",
") 	c #64790B",
"! 	c #748037",
"~ 	c #8B8A71",
"{ 	c #90907C",
"] 	c #979688",
"^ 	c #8C8C75",
"/ 	c #6B7C23",
"( 	c #61790A",
"_ 	c #5E7608",
": 	c #60780A",
"< 	c #60770B",
"[ 	c #5E770A",
"} 	c #364D2C",
"| 	c #273A1F",
"1 	c #101A0B",
"2 	c #020301",
"3 	c #000000",
"4 	c #000100",
"5 	c #010100",
"6 	c #060D04",
"7 	c #26381E",
"8 	c #687F10",
"9 	c #5C750A",
"0 	c #476305",
"a 	c #526D06",
"b 	c #567108",
"c 	c #6A8210",
"d 	c #60790C",
"e 	c #647C0F",
"f 	c #647D0D",
"g 	c #667D0F",
"h 	c #647D0F",
"i 	c #617A0D",
"j 	c #5D7509",
"k 	c #5D7409",
"l 	c #5B7308",
"m 	c #60770A",
"n 	c #61780A",
"o 	c #637A0D",
"p 	c #63780A",
"q 	c #3A542F",
"r 	c #364E2C",
"s 	c #334A2A",
"t 	c #334A29",
"u 	c #293C20",
"v 	c #162210",
"w 	c #0E180A",
"x 	c #1A2814",
"y 	c #304627",
"z 	c #3A5430",
"A 	c #283C20",
"B 	c #152913",
"C 	c #102710",
"D 	c #112611",
"E 	c #0F250F",
"F 	c #0D220D",
"G 	c #0C1F0C",
"H 	c #0E1C0B",
"I 	c #182713",
"J 	c #132711",
"K 	c #0C200C",
"L 	c #11210E",
"M 	c #22331B",
"N 	c #2A3D21",
"O 	c #38512E",
"P 	c #5A740B",
"Q 	c #627B0C",
"R 	c #5F780B",
"S 	c #61790C",
"T 	c #61790B",
"U 	c #647B0D",
"V 	c #637B0D",
"W 	c #647C0D",
"X 	c #5F770A",
"Y 	c #5F780A",
"Z 	c #5E7709",
"` 	c #5E7508",
" .	c #62770A",
"..	c #5F7509",
"+.	c #607808",
"@.	c #657A0C",
"#.	c #1C2B16",
"$.	c #1C2A15",
"%.	c #081006",
"&.	c #1B3B1B",
"*.	c #214421",
"=.	c #1C3D1C",
"-.	c #132D13",
";.	c #0A1C0A",
">.	c #040F04",
",.	c #0D210D",
"'.	c #1B3A1B",
").	c #1C3C1C",
"!.	c #020401",
"~.	c #070E05",
"{.	c #182613",
"].	c #587108",
"^.	c #5E7509",
"/.	c #60780B",
"(.	c #627B0D",
"_.	c #627A0C",
":.	c #62790C",
"<.	c #607709",
"[.	c #5F7609",
"}.	c #607708",
"|.	c #5E7507",
"1.	c #62790A",
"2.	c #344B2A",
"3.	c #24371D",
"4.	c #122610",
"5.	c #081708",
"6.	c #0E1B0B",
"7.	c #10240F",
"8.	c #183518",
"9.	c #224722",
"0.	c #265226",
"a.	c #245724",
"b.	c #225922",
"c.	c #102610",
"d.	c #183418",
"e.	c #234723",
"f.	c #142E14",
"g.	c #122A12",
"h.	c #0A1B0A",
"i.	c #0A1A09",
"j.	c #142310",
"k.	c #293D21",
"l.	c #63780B",
"m.	c #61780B",
"n.	c #63790D",
"o.	c #60790A",
"p.	c #637A0C",
"q.	c #627708",
"r.	c #64790A",
"s.	c #112610",
"t.	c #264D26",
"u.	c #1D631D",
"v.	c #186918",
"w.	c #204420",
"x.	c #1D3D1D",
"y.	c #061406",
"z.	c #030C03",
"A.	c #070D05",
"B.	c #667B0E",
"C.	c #607508",
"D.	c #627A0A",
"E.	c #617508",
"F.	c #617A0A",
"G.	c #3A532F",
"H.	c #354D2B",
"I.	c #2D4324",
"J.	c #1E3319",
"K.	c #112811",
"L.	c #274F27",
"M.	c #0F700F",
"N.	c #107010",
"O.	c #274E27",
"P.	c #265126",
"Q.	c #245624",
"R.	c #1E601E",
"S.	c #166B16",
"T.	c #040D04",
"U.	c #041004",
"V.	c #0D200D",
"W.	c #1C2E17",
"X.	c #39522E",
"Y.	c #617609",
"Z.	c #617509",
"`.	c #637B0C",
" +	c #1D3319",
".+	c #1E3E1D",
"++	c #275027",
"@+	c #0F710F",
"#+	c #126F12",
"$+	c #0D200C",
"%+	c #687C0D",
"&+	c #677C0D",
"*+	c #5F7708",
"=+	c #63770C",
"-+	c #627709",
";+	c #273A20",
">+	c #1F3E1E",
",+	c #264C26",
"'+	c #1F601F",
")+	c #235923",
"!+	c #153015",
"~+	c #1E401E",
"{+	c #173417",
"]+	c #162511",
"^+	c #26391E",
"/+	c #667D0E",
"(+	c #677B0D",
"_+	c #617608",
":+	c #2C4324",
"<+	c #186818",
"[+	c #1D621D",
"}+	c #126E12",
"|+	c #0B1D0B",
"1+	c #697F0F",
"2+	c #63770B",
"3+	c #173317",
"4+	c #122B12",
"5+	c #11220F",
"6+	c #5D760B",
"7+	c #5C740B",
"8+	c #65790C",
"9+	c #152A13",
"0+	c #224622",
"a+	c #506B07",
"b+	c #546F08",
"c+	c #6B810E",
"d+	c #677A0F",
"e+	c #63770A",
"f+	c #273C20",
"g+	c #162A13",
"h+	c #0C210C",
"i+	c #446205",
"j+	c #556F08",
"k+	c #4D6707",
"l+	c #677C0F",
"m+	c #647C0C",
"n+	c #283B20",
"o+	c #677C0E",
"p+	c #657D0F",
"q+	c #667E0F",
"r+	c #667F0F",
"s+	c #657D0E",
"t+	c #172712",
"u+	c #0E220E",
"v+	c #193519",
"w+	c #081908",
"x+	c #0F190B",
"y+	c #2F4627",
"z+	c #253C1F",
"A+	c #172F15",
"B+	c #132B13",
"C+	c #193319",
"D+	c #234623",
"E+	c #010301",
"F+	c #0A1809",
"G+	c #5E780B",
"H+	c #617B0C",
"I+	c #647D0E",
"J+	c #182C15",
"K+	c #1C3B1C",
"L+	c #254C25",
"M+	c #0F1B0B",
"N+	c #617B0D",
"O+	c #102810",
"P+	c #0B1A09",
"Q+	c #25371E",
"R+	c #60780C",
"S+	c #61780C",
"T+	c #1B651B",
"U+	c #205E20",
"V+	c #60750A",
"W+	c #142C14",
"X+	c #030602",
"Y+	c #24381E",
"Z+	c #225422",
"`+	c #165C16",
" @	c #165D16",
".@	c #225522",
"+@	c #112711",
"@@	c #080F05",
"#@	c #607507",
"$@	c #214A21",
"%@	c #134013",
"&@	c #134113",
"*@	c #152110",
"=@	c #2C4023",
"-@	c #0D1609",
";@	c #1F4F1F",
">@	c #163916",
",@	c #163116",
"'@	c #1C3A1C",
")@	c #1B611B",
"!@	c #162F16",
"~@	c #1E2F18",
"{@	c #101D0D",
"]@	c #051105",
"^@	c #0F270F",
"/@	c #235A23",
"(@	c #214B21",
"_@	c #0C3D0C",
":@	c #0E330E",
"<@	c #102B10",
"[@	c #102C10",
"}@	c #0F260F",
"|@	c #050B04",
"1@	c #26391F",
"2@	c #717E31",
"3@	c #0C1D0B",
"4@	c #0F280F",
"5@	c #166A16",
"6@	c #0B570B",
"7@	c #0B3E0B",
"8@	c #102A10",
"9@	c #070D04",
"0@	c #112D11",
"a@	c #133013",
"b@	c #204320",
"c@	c #156715",
"d@	c #106310",
"e@	c #135A13",
"f@	c #1C4C1C",
"g@	c #1C4D1C",
"h@	c #0D560D",
"i@	c #0F3D0F",
"j@	c #142D14",
"k@	c #0E210E",
"l@	c #0D1F0D",
"m@	c #133113",
"n@	c #1C3F1C",
"o@	c #1D521D",
"p@	c #104410",
"q@	c #083608",
"r@	c #0D2C0D",
"s@	c #0D2D0D",
"t@	c #103E10",
"u@	c #1C421C",
"v@	c #061306",
"w@	c #0A1D0A",
"x@	c #102510",
"y@	c #163016",
"z@	c #1D3E1D",
"A@	c #0B1F0B",
"B@	c #091B09",
"C@	c #0F240F",
"D@	c #1A611A",
"E@	c #1E4F1E",
"F@	c #214321",
"G@	c #193619",
"H@	c #0E240E",
"I@	c #254C26",
"J@	c #204421",
"K@	c #254D26",
"L@	c #23341B",
"M@	c #667A0E",
"N@	c #183618",
"O@	c #1A2914",
"P@	c #0C210D",
"Q@	c #1A391B",
"R@	c #1B3C1C",
"S@	c #0F2610",
"T@	c #1F4421",
"U@	c #264622",
"V@	c #304823",
"W@	c #31401F",
"X@	c #2B2B13",
"Y@	c #261708",
"Z@	c #261608",
"`@	c #252811",
" #	c #223C1C",
".#	c #0F1C0C",
"+#	c #152210",
"@#	c #10250F",
"##	c #141C0A",
"$#	c #0F2710",
"%#	c #262E14",
"&#	c #3C371A",
"*#	c #45381B",
"=#	c #433017",
"-#	c #422B14",
";#	c #422A14",
">#	c #3A2913",
",#	c #020902",
"'#	c #091909",
")#	c #142812",
"!#	c #1E501E",
"~#	c #1C3E1D",
"{#	c #18240F",
"]#	c #221C0B",
"^#	c #241507",
"/#	c #201306",
"(#	c #191005",
"_#	c #271809",
":#	c #2F1E0C",
"<#	c #3C2712",
"[#	c #452D16",
"}#	c #4A3118",
"|#	c #4D3319",
"1#	c #1A3A1B",
"2#	c #020F02",
"3#	c #072007",
"4#	c #1F3019",
"5#	c #0E220D",
"6#	c #153116",
"7#	c #2D3F1E",
"8#	c #3B3318",
"9#	c #3B2511",
"0#	c #251507",
"a#	c #3C2611",
"b#	c #2F1D0C",
"c#	c #34200E",
"d#	c #4E3319",
"e#	c #4E3419",
"f#	c #432B14",
"g#	c #0A200C",
"h#	c #021402",
"i#	c #042704",
"j#	c #122611",
"k#	c #242811",
"l#	c #223B1C",
"m#	c #44381B",
"n#	c #34210E",
"o#	c #4B3118",
"p#	c #452E16",
"q#	c #3B2612",
"r#	c #2E1D0C",
"s#	c #38220D",
"t#	c #4E3114",
"u#	c #583717",
"v#	c #593717",
"w#	c #563618",
"x#	c #503419",
"y#	c #251608",
"z#	c #102910",
"A#	c #052805",
"B#	c #052B05",
"C#	c #1C3118",
"D#	c #1E3D1D",
"E#	c #224723",
"F#	c #252712",
"G#	c #392A13",
"H#	c #252912",
"I#	c #433117",
"J#	c #462D16",
"K#	c #4E3014",
"L#	c #603913",
"M#	c #683D13",
"N#	c #693D13",
"O#	c #623B15",
"P#	c #553617",
"Q#	c #251708",
"R#	c #010201",
"S#	c #133913",
"T#	c #153E15",
"U#	c #0D2A0D",
"V#	c #37220D",
"W#	c #5D3916",
"X#	c #653C14",
"Y#	c #231508",
"Z#	c #160E05",
"`#	c #252812",
" $	c #021702",
".$	c #011701",
"+$	c #153D15",
"@$	c #1C3E1C",
"#$	c #0E280E",
"$$	c #452D15",
"%$	c #643B14",
"&$	c #4F3114",
"*$	c #3B2611",
"=$	c #3A2A13",
"-$	c #143514",
";$	c #133D13",
">$	c #0A320A",
",$	c #0C290C",
"'$	c #122F12",
")$	c #0D260D",
"!$	c #192D15",
"~$	c #402811",
"{$	c #3D230A",
"]$	c #44270B",
"^$	c #523213",
"/$	c #623A15",
"($	c #553618",
"_$	c #503418",
":$	c #33210E",
"<$	c #241508",
"[$	c #040501",
"}$	c #040A03",
"|$	c #030D03",
"1$	c #193719",
"2$	c #1C401C",
"3$	c #0F370F",
"4$	c #062C06",
"5$	c #0A260A",
"6$	c #2A3F22",
"7$	c #462E16",
"8$	c #3C2209",
"9$	c #56300B",
"0$	c #63380E",
"a$	c #673C11",
"b$	c #261709",
"c$	c #2A1809",
"d$	c #2A1E0C",
"e$	c #1A1C0A",
"f$	c #0F230F",
"g$	c #123112",
"h$	c #0D350D",
"i$	c #062E06",
"j$	c #0A250A",
"k$	c #0E200E",
"l$	c #1B3B1C",
"m$	c #272411",
"n$	c #392511",
"o$	c #392510",
"p$	c #201307",
"q$	c #371D04",
"r$	c #57300A",
"s$	c #63390E",
"t$	c #673B11",
"u$	c #5D3816",
"v$	c #3A2611",
"w$	c #261609",
"x$	c #1B1005",
"y$	c #35220F",
"z$	c #24210D",
"A$	c #0D310D",
"B$	c #112710",
"C$	c #172A14",
"D$	c #192E16",
"E$	c #2E3D21",
"F$	c #282512",
"G$	c #25200F",
"H$	c #1C2311",
"I$	c #14200F",
"J$	c #0F1A0B",
"K$	c #2A1503",
"L$	c #381D04",
"M$	c #221407",
"N$	c #1F1206",
"O$	c #2A1B0B",
"P$	c #211E0C",
"Q$	c #0D330D",
"R$	c #172B14",
"S$	c #5E750A",
"T$	c #607909",
"U$	c #677A0C",
"V$	c #2C1907",
"W$	c #4B2E12",
"X$	c #180D04",
"Y$	c #221507",
"Z$	c #587008",
"`$	c #395502",
" %	c #496306",
".%	c #62760A",
"+%	c #351C05",
"@%	c #59340F",
"#%	c #613A15",
"$%	c #1D1105",
"%%	c #1C1005",
"&%	c #1F1306",
"*%	c #211307",
"=%	c #211407",
"-%	c #201206",
";%	c #150803",
">%	c #182A14",
",%	c #2A3E22",
"'%	c #5E7609",
")%	c #5D770A",
"!%	c #506B06",
"~%	c #3F5C04",
"{%	c #677F11",
"]%	c #5B750A",
"^%	c #536C05",
"/%	c #6D8210",
"(%	c #637D0F",
"_%	c #677E0F",
":%	c #677F0F",
"<%	c #5E770C",
"[%	c #5B7509",
"}%	c #172411",
"|%	c #140D05",
"1%	c #44270A",
"2%	c #090401",
"3%	c #040201",
"4%	c #020502",
"5%	c #030502",
"6%	c #081005",
"7%	c #657E0F",
"8%	c #627D0D",
"9%	c #607B0D",
"0%	c #5A7308",
"a%	c #567007",
"b%	c #496405",
"c%	c #506B0A",
"d%	c #5E790D",
"e%	c #456104",
"f%	c #4D6706",
"g%	c #5B760B",
"h%	c #667B0D",
"i%	c #221508",
"j%	c #241608",
"k%	c #190E04",
"l%	c #120E04",
"m%	c #101B0C",
"n%	c #182512",
"o%	c #1D2C16",
"p%	c #25361D",
"q%	c #25371D",
"r%	c #293C21",
"s%	c #637D0E",
"t%	c #607A0D",
"u%	c #556F07",
"v%	c #3F5C03",
"w%	c #486506",
"x%	c #496606",
"y%	c #587209",
"z%	c #60790D",
"A%	c #180E05",
"B%	c #33200E",
"C%	c #4C3319",
"D%	c #563617",
"E%	c #21321A",
"F%	c #647A0E",
"G%	c #5E760A",
"H%	c #627C0D",
"I%	c #5F790D",
"J%	c #5D770C",
"K%	c #5C7508",
"L%	c #5A7408",
"M%	c #597207",
"N%	c #506A06",
"O%	c #3C5902",
"P%	c #405E03",
"Q%	c #4E6907",
"R%	c #59730A",
"S%	c #61750A",
"T%	c #60770C",
"U%	c #62790D",
"V%	c #5F770C",
"W%	c #637C0F",
"X%	c #647C0E",
"Y%	c #5B7409",
"Z%	c #5C730A",
"`%	c #567008",
" &	c #5A7108",
".&	c #623B14",
"+&	c #0D1709",
"@&	c #60790B",
"#&	c #5C3816",
"$&	c #687B0F",
"%&	c #62770C",
"&&	c #2E4425",
"*&	c #65790D",
"=&	c #637809",
"-&	c #162311",
";&	c #61760B",
">&	c #677A0D",
",&	c #677B0E",
"'&	c #65790B",
")&	c #62780C",
"!&	c #5F7709",
"~&	c #627B0B",
"{&	c #5E7306",
"]&	c #442D16",
"^&	c #657A0A",
"/&	c #637B09",
"(&	c #617907",
"_&	c #617A0C",
":&	c #687C0E",
"<&	c #657C0E",
"[&	c #5F770B",
"}&	c #677D0D",
"|&	c #627D0E",
"1&	c #5C760A",
"2&	c #2E4325",
"3&	c #1A1005",
"4&	c #1C1106",
"5&	c #627A0D",
"6&	c #627C0E",
"7&	c #5A7307",
"8&	c #698011",
"9&	c #667E0E",
"  . + @ # $ % & * = - ; > ; , ' ) ! ~ { ] ^ / ( _ : < [ [ } | 1 2 3 3 3 3 4 5 6 7 } | 1 2 3 3 4 5 6 7 8 9 0 a b c [ d e f g g h ",
"i < + @ j k l = _ m n ) o ; p ) ) q r s t u v w 1 x y z r A B C D D D D C E F G H I J C D D C E F K L M N y O P Q R S T U V W Q ",
": X Y m Z ` *  .: p ..+.p U @.p @.} | #.$.%.3 3 3 5 x r | B &.*.*.*.*.*.*.=.-.;.>.,.'.*.*.*.*.).-.C K !.~.{.y ].^.< S /.(._.S :.",
": <.[._ :.- }.|.m ; 1.q r s t 2.s 3.4.C C C C E F G 5.6.7.8.9.0.a.b.b.a.0.9.8.c.c.d.e.0.a.a.0.e.d.f.g.G h.i.j.M k.y O l.m.:.n.o.",
"<.1.p.; ..( }.q.r.p p.} | #.$.#.#.s.'.*.*.*.*.=.-.;.>.,.'.e.t.a.u.v.v.u.a.t.e.w.w.e.t.a.u.u.a.t.e.x.f.;.y.>.z.!.A.{.y :.:.m.B.:.",
"( :.C.1.D.E.1.T F.G.H.I.J.K.C c.C 8.e.L.L.L.L.e.d.c.c.8.9.L.L.b.v.M.N.v.b.L.O.O.L.P.Q.R.S.S.R.a.P.e.8.K T.U.V.E ,.V.W.y X.' n.Y.",
"> Z.`.; @.1.p m @ r |  +.+*.*.w.*.9.t.L.++++L.t.9.w.w.9.t.L.L.b.v.@+@+v.b.L.L.L.L.a.u.S.#+#+S.u.a.t.e.'.K K '.).-.c.$+{.y %+1.1.",
"[ &+*+> =+-+> > 1.r ;+J.>+9.,+L.L.P.Q.b.b.b.b.b.b.Q.P.L.O.O.L.Q.u.S.#+v.b.0.Q.b.b.'+S.N.N.N.N.v.)+L.O.e.8.!+x.~+{+f.g.$+]+^+H.) ",
"/+&+(+' 1._+p > p G.H.:+J.8.e.L.++a.u.v.v.v.v.v.v.u.a.L.L.L.L.P.a.R.S.<+b.a.[+v.v.S.}+N.N.N.N.v.b.L.L.t.e.x.!+{+~+x.f.c.|+6 7 l.",
"1+/.X 2+:.-+) @._+z r A B d.e.P.a.'+S.N.N.N.N.N.N.S.'+b.)+b.b.Q.P.a.u.[+a.Q.[+S.#+N.N.N.N.N.N.S.'+b.)+a.0.9.8.!+x.~+3+f.4+,.5+7 ",
"6+7+d , @.1.8+_+_+r ;+9+'.0+,+Q.u.S.#+N.N.N.N.N.N.}+S.v.v.v.v.u.Q.0.Q.Q.0.0.a.R.S.N.N.N.N.N.N.}+S.v.v.u.a.t.e.x.!+{+~+x.f.C ,.6 ",
"a+b+c+d+e+@.' G.H.f+g+8.9.P.a.'+S.N.N.N.N.N.N.N.N.N.N.N.N.N.N.S.'+Q.P.L.O.O.L.Q.u.S.#+N.N.N.N.N.N.N.N.v.b.L.L.*.C C *.*.C ,.h+4 ",
"i+j+, , U U p.r | B &.e.t.a.u.S.#+N.N.N.N.N.N.N.N.N.N.N.N.N.N.#+S.u.Q.L.L.L.L.P.Q.'+S.N.N.N.N.N.N.@+N.v.b.++L.*.C C *.*.C K h+4 ",
"k+9 l+W /+/+m+r n+J '.0+,+b.v.N.N.N.N.N.N.N.N.N.N.N.N.N.N.N.N.N.N.S.'+b.)+Q.P.O.L.Q.u.S.#+N.N.N.N.N.N.v.b.L.L.*.C C *.*.C ;.G 2 ",
"Q o+/+p+q+r+s+G.H.t+u+v+9.b.v.N.N.N.N.N.N.N.N.N.N.N.N.N.N.N.N.N.N.}+S.v.v.u.a.L.O.P.Q.'+S.N.N.N.N.N.N.v.b.L.L.*.C C *.*.C U.w+x+",
"S W p+q+q+q r y+z+A+B+C+D+)+v.N.N.N.N.N.N.N.N.N.N.N.N.N.N.N.N.N.N.N.N.N.N.S.'+Q.P.O.L.Q.u.S.}+N.N.N.N.v.b.L.L.*.C C *.*.C E+F+| ",
"G+H+I+r+q+} | J+K+0+0+0+L+b.v.N.N.N.N.N.N.N.N.N.N.N.N.N.N.N.N.N.N.N.N.N.N.#+S.u.Q.L.O.P.Q.'+S.N.N.N.N.v.b.L.L.*.C C *.*.C 4 M+} ",
". N+(.q } f+B 8.9.0.a.)+b.'+S.N.N.N.N.N.N.N.N.N.N.N.N.N.N.N.N.N.N.N.N.N.N.N.N.S.'+a.P.L.L.b.v.N.M.@+N.v.)+L.O.*.C O+*.*.C >.P+Q+",
"R+R+U r | B &.0+,+a.u.v.v.S.}+N.N.N.N.N.N.N.N.N.N.N.N.N.N.N.N.N.N.N.N.N.N.N.N.#+S.u.Q.O.O.)+v.N.N.N.N.v.b.L.L.*.C C *.*.C ;.G 6 ",
"m m S+2.#.c.w.L.L.b.v.N.@+N.N.N.N.N.N.N.N.N.N.N.N.N.N.N.N.N.N.N.N.N.N.N.N.N.N.N.N.v.)+O.O.b.v.}+S.v.<+T+U+a.0.*.C c.x.x.f.O+,.2 ",
"`.Z V+t $.C *.L.++b.v.N.@+N.N.N.N.N.N.N.N.N.N.N.N.N.N.N.N.N.N.N.N.N.N.N.N.N.N.N.N.v.b.L.L.b.v.S.R.)+)+U+T+u.a.*.D F W+f.B+K.h+X+",
"<.q } Y+4.8.9.L.L.a.u.v.v.S.}+N.N.N.N.N.N.N.N.N.N.N.N.N.N.N.N.N.N.N.N.N.N.N.N.N.N.S.'+Q.P.Q.[+T+U+Q.P.Z+`+ @.@*.+@K ,.K ,.;.G @@",
"#@r | 4.'.9.t.L.L.0.a.)+b.'+S.N.N.N.N.N.N.N.N.N.N.N.N.N.N.N.N.N.N.N.N.N.N.N.N.N.N.}+S.u.Q.0.Q.U+T+u.Q.$@%@&@$@*.+@h+h+h+,.y.;.*@",
"( =@-@C *.L.++L.L.L.L.L.L.a.u.v.v.S.}+N.N.N.N.N.N.N.N.N.N.N.N.N.N.N.N.N.N.N.N.N.N.N.N.S.'+)+)+R.S.S.R.;@>@,@x.'@B+C C K.F >.L | ",
"<.#.5 C *.L.++L.L.L.L.O.L.P.Q.)+b.'+S.N.N.N.N.N.N.N.N.N.N.N.N.N.N.N.N.N.N.N.N.N.N.N.N.}+S.<+<+S.}+#+S.)@;@x.!@4++@c.c.O+h+T.~@} ",
"y {@]@^@K+9.,+L.L.L.L.L.L.L.L.L.L.b.v.}+S.S.}+N.N.N.N.N.N.N.N.N.N.N.N.N.N.N.N.N.N.N.N.N.N.N.N.N.N.@+N.v./@(@&@_@:@<@[@}@K |@1@2@",
"{.3@F 4@4+8.9.L.L.L.L.L.L.L.L.O.L.b.v.5@R.'+5@N.N.N.N.N.N.N.N.N.N.N.N.N.N.N.N.N.N.N.N.N.N.N.N.N.N.N.N.v.)+.@`+6@7@8@<@C G |@1@{ ",
"9@V.K.0@a@d.D+L.L.,+9.b@b@9.t.L.++a.u.[+a.a.[+v.v.S.}+N.N.N.N.N.N.N.N.}+S.v.v.v.v.v.v.v.v.v.v.v.v.c@d@e@f@g@e@h@i@j@k@;.l@T.~@} ",
"!.V.K.m@n@9.,+L.L.9.8.c.c.8.9.L.L.0.a.Q.0.P.Q.)+b.'+S.N.N.N.N.N.N.N.N.S.'+b.)+b.b.b.b.b.b.b.b.)+b.o@p@q@r@s@q@t@u@).c.v@w@>.L | ",
"5 k@-.>@;@b.)+)+b.;@>@c.x@y@x.b@*.9.t.L.L.L.L.L.L.a.u.v.v.v.v.v.v.v.v.u.a.L.L.L.L.L.L.L.L.L.L.L.L.9.8.C c.C C ,@z@).O+|+A@z.B@$.",
"4 C@).;@)@v.v.v.v.D@E@*.F@z@y@c.C 8.e.L.L.L.L.O.L.P.Q.b.b.b.b.b.b.b.b.Q.P.L.O.L.L.L.L.L.L.L.L.L.L.,+0+F@b@*.F@x.,@c.j@G@E z.B@$.",
"3 D *.b.v.N.N.N.N.S.'+)+)+;@>@c.c.y@z@9.t.L.L.L.L.L.L.L.L.L.L.L.L.L.L.L.L.L.L.L.L.L.L.L.L.L.L.L.L.L.L.L.L.L.L.e.8.E C ,@H@>.L | ",
"3 D *.)+v.N.@+N.N.}+S.v.v.)@;@*.F@x.y@8.9.L.L.L.L.L.L.L.L.L.L.L.L.L.L.L.L.L.L.L.L.L.L.L.L.L.L.L.L.L.L.L.L.++L.t.9.).}@]@B@T.~@} ",
"5 D *.b.v.N.N.N.N.N.N.N.N.S.'+a.P.w.C K.*.,+e.9.,+L.++L.L.I@9.J@J@J@J@J@J@9.K@L.L.L.L.L.L.L.L.L.L.L.L.P.Q.b.b.a.0.9.8.E ;.X+L@M@",
"2 D *.b.v.N.N.N.N.N.N.N.N.#+S.u.a.*.c.C b@9.N@8.9.L.L.L.L.9.8.C c.C C c.C 8.9.L.L.L.L.L.L.L.L.L.L.L.L.a.u.v.v.u.a.t.e.).E 5 O@o+",
"@@D *.a.u.S.#+N.N.N.N.}+S.S.}+v./@*.c.P@Q@R@S@E R@T@J@U@V@W@X@Y@Z@Y@Y@Z@Y@`@ #e.t.L.L.L.L.L.L.L.L.0.a.R.S.@+M.v.b.L.L.*.C E+.#y ",
"+#C *.P.a.'+S.N.N.N.N.5@'+R.S.v.b.*.D ]@K @###h.E $#C %#&#*#=#-#;#-#-#-#-#>#`@8.9.L.L.L.L.L.L.L.L.Q.u.S.#+@+N.v.b.++L.*.C ,#'#{.",
";+)#'.0+,+a.u.v.v.v.v.[+a.a.u.)@!#~#y@{#]#^#/#(#^#Y@_#:#<#[#}#|#|#|#|#|#|#-#Y@K 1#9.t.L.++L.L.L.L.a.u.v.v.v.v.u.a.++L.*.C 2#3#9@",
"} 4#5#d.e.P.a.b.b.b.b.Q.P.0.Q.;@>@6#x.7#8#9#0#^#9#-#-#a#b#c#[#|#d#|#|#e#|#f#Z@T.g#8.e.L.L.L.L.L.L.0.a.b.b.b.b.a.0.L.L.*.C h#i#!.",
"H.3.j#8.9.L.L.L.L.L.L.L.L.K@9. #`@k#l#W@m#[#c#n#[#o#p#q#r#s#t#u#v#u#u#w#x#-#y#3 3 E ).J@J@J@J@J@J@9.K@L.++++L.t.9.*.w.).z#A#B#5 ",
";+C#D#9.,+L.L.L.L.L.L.L.L.E#d.F#>#G#H#X@I#}#J#p#}#p#n#:#<#K#L#M#N#M#M#O#P#-#Q#3 R#h.E C C C C c.C 8.e.L.L.L.L.e.8.C c.z#S#T#U#4 ",
"|  +.+9.t.L.L.L.L.L.L.++L.J@$#Y@;#[#n#n#[#d#d#o#[#q#r#V#t#W#X#M#M#M#M#X#W#t#V#Y#Z#(#^#Y@Y@Y@Y@Z@_#`# #*.J@*.*.).z# $.$A#+$@$#$5 ",
"H.:+J.8.9.L.L.L.L.L.L.L.L.J@c.Z@-#o#J#$$}#|#|#p#n#r#<#t#L#X#W#u#u#u#u#W#%$L#&$*$Y#^#9#-#-#-#-#-#-#=$`@C $#C C O+-$;$>$B#,$'$)$2 ",
"; r | !$K+9.t.L.++++L.t.9. #`@n#J#d#d#o#[#-#-#~${$]$^$W#X#/$($_$($($_$($/$X#W#K#s#:$[#|#|#|#|#o#[#*$<$[$}$z.|$w@1$2$3$4$5$O+V.@@",
"2+z r 6$!$8.9.L.L.L.L.9.8.k#=$[#o#|#|#7$n#Q#Q#8$9$0$a$X#W#($x#($/$/$($x#($W#X#L#t#[#}#|#d#d#|#7$n#b$c$d$e$B@B@A@f$g$h$i$j$+@k$+#",
"<.1.<.r | !$K+*.*.*.*.l$!$m$n$-#-#-#-#o$p$3 3 q$r$s$t$/$($x#($u$%$%$u$($x#u#M#M#u#|#|#d#|#o#[#v$w$x$y$v$z$,.P@K ,.8@A$4$5$B$C$| ",
"p > :.z r 6$!$C C C C D$6$E$F$_#Y@Y@Y@G$H$I$J$K$L$]$^$($x#($/$%$W#W#%$/$($u#M#N#v#|#|#|#|#[#:$w$M$N$^#O$P$h+P@h+V.[@Q$i$j$R$6$} ",
"..< S$% R+} | #.$.$.#.;+} } ;+#.$.$.#.| } T$U$w 3 V$W$($x#u#M#M#u#u#M#M#u#P#/$O#w#o#[#-#-#v$b$X$Y$N$/#Y@N$|$B@K ,.B$C$$.#.| } : ",
"[ Z$`$ %p.q r s t t s r q q r s t t s r q < .%w 3 +%@%#%w#u#M#M#u#u#M#M#u#_$($($_$[#:$Y@Q#<$$%%%&%*%=%-%;%z.B@h+,.>%,%t 2.r q '%",
")%& !%~%{%]%0 ^%b /%< [ d (%_%:%q+  <%[%# y }%|%<$1%0$M#u#P#/$%$W#W#%$/$P#|#|#o#[#*$w$2%3%3 3 5 2 4%5%6%+##.#.$.#.| } :%7%8%9%[ ",
"9 0%a%b%c%d%e%f%g%h%'%[ G+N+g /+U i + % 0%}%4 i%*$^$a$M#u#x#($u$%$%$u$P#x#|#|#[#:$j%%%k%l%m%n%o%M p%q%r%y s s t s r q 1+g s%t%<%",
"[%$ # u%v%w%e%x%y%n ^.[ z%S S _._.[ * y }%A%<$B%[#u#N#M#u#C%C%($/$%$W#D%_$o#[#*$j%3 3 X+E%@.o ; -+F%S+:./.G%d N+I+q+q+q+s+H%I%J%",
"K%L%$ M%N%O%P%Q%R%-+T l.- n.< :.:.` <.}%4 <$v$[#o#u#M#M#u#|#C%x#P#W#%$O#P#[#:$<$A%m%n%M s , :.S%> U T%U%[ V%d (.W%W q+q+X%N+. + ",
"@ * k Y%Z%`% &_ 1.; `.1.l.> 1.m ; y }%A%<$n#p#|#|#P#.&%$W#u#u#u#u#W#%$O#P#-#Q#3 +&m.l._+; :.< o U%}.< Z [ /.S S T `.V W (.d /.R+",
"_ _ X @& .` }.- D.@.`.) : -+-+8+, }%4 <$v$[#o#|#|#x#P##&%$M#M#M#M#%$u$w#_$-#Q#3 w p p 8+, :.$&$&p.%&- m.` /.d < S+S p._._.S W :.",
": m.:.|. .; ( 1.p.p. .@.h%&&}%w -@A%j%n#[#}#[#[#}#|#|#P#.&M#M#N#M#O#($|#|#-#Q#3 w &+h%> B.e+B.n.B.( 1.m <.*&S m m m U B.T :. .( ",
"<.m : #@( =&1.: : p.1.p ) -&4 3 3 <$*$p#o#[#n#:$[#|#|#x#P#u#u#u#u#P#x#|#|#-#Y@3 +&;&>&n.U B.,& .%&-+l.D.'&)&!&)&> m.h%p.:.<.) `.",
"m+1.l._+_.~& ._.h%&&}%w -@(#j%Q#Y@:$[#|#|#[#:$n#[#|#|#|#|#|#|#}#[#[#}#|#|#[#:$j%A%+&w +&+&-@+&}%&& .; 1.8+{&j ; ,  ... .> `.; > ",
"U }._.1.T ( l.@.( -&4 3 3 j%*$-#-#[#o#|#|#}#[#[#}#|#|#|#|#|#|#]&B%:$[#|#|#o#[#*$j%3 3 3 3 3 3 4 -&@.1.: 1.[ d 2+-+^&/&(&1.U$1.o ",
"_&m <.:.m ..; y }%(#<$Q#Y@:$[#|#|#|#|#|#|#|#|#}#[#[#}#|#|#o#[#<#:#:$[#|#|#|#|#[#:$Y@Q#Y@Y@Y@Y@j%(#+&w -@+&}%&&h%; e+2+:&&+h%, <&",
"Q d [&* * j * }%4 j%v$-#-#[#o#|#d#|#|#|#|#|#|#[#n#:$[#|#|#[#:$b#<#[#}#|#|#|#|#o#[#-#-#-#-#-#-#*$j%3 3 3 3 4 -&1.@&d Q U g }&f I+",
"|&N++ 1&% 2&+#3&y#n#[#|#|#|#|#|#|#|#|#|#|#|#|#-#Y@Y@-#|#|#-#Y@Y@-#|#|#|#|#|#|#|#|#|#|#|#|#|#|#p#n#_#Y@_#_#y#4&+#2&+ 5&/+_%q+1+s+",
"I+z%<%]%0%}%4 <$v$[#o#|#d#|#|#|#|#|#|#|#|#|#|#-#Q#Q#-#|#|#-#Q#Y@-#|#d#|#|#|#|#|#|#|#|#|#|#d#|#o#[#-#-#-#-#v$j%4 }%:%U p+q+q+_%/+",
"6&I%J%[%7&-&4 Y@-#|#|#|#|#|#|#|#|#|#|#|#|#|#|#-#Y@Y@-#|#|#-#Y@Y@-#|#|#|#|#|#|#|#|#|#|#|#|#|#|#|#|#|#|#|#|#-#Y@4 -&8&H+W 9&q+_%I+"};
