/* XPM */
static char * wall5_xpm[] = {
"64 64 670 2",
"  	c #627B0E",
". 	c #5F790C",
"+ 	c #5E770B",
"@ 	c #5D760A",
"# 	c #597308",
"$ 	c #5B7408",
"% 	c #5B7508",
"& 	c #5C7509",
"* 	c #5D7508",
"= 	c #5F760A",
"- 	c #61770B",
"; 	c #62790B",
"> 	c #64790C",
", 	c #647B0C",
"' 	c #657A0D",
") 	c #64790B",
"! 	c #748037",
"~ 	c #8B8A71",
"{ 	c #90907C",
"] 	c #979688",
"^ 	c #8C8C75",
"/ 	c #6B7C23",
"( 	c #61790A",
"_ 	c #5E7608",
": 	c #60780A",
"< 	c #60770B",
"[ 	c #5E770A",
"} 	c #364D2C",
"| 	c #273A1F",
"1 	c #101A0B",
"2 	c #020301",
"3 	c #000000",
"4 	c #000100",
"5 	c #010100",
"6 	c #060D04",
"7 	c #26381E",
"8 	c #687F10",
"9 	c #5C750A",
"0 	c #476305",
"a 	c #526D06",
"b 	c #567108",
"c 	c #6A8210",
"d 	c #60790C",
"e 	c #647C0F",
"f 	c #647D0D",
"g 	c #667D0F",
"h 	c #647D0F",
"i 	c #617A0D",
"j 	c #5D7509",
"k 	c #5D7409",
"l 	c #5B7308",
"m 	c #60770A",
"n 	c #61780A",
"o 	c #637A0D",
"p 	c #63780A",
"q 	c #3A542F",
"r 	c #364E2C",
"s 	c #334A2A",
"t 	c #334A29",
"u 	c #293C20",
"v 	c #162210",
"w 	c #0E180A",
"x 	c #1A2814",
"y 	c #304627",
"z 	c #3A5430",
"A 	c #283C20",
"B 	c #10200D",
"C 	c #091A09",
"D 	c #0F250F",
"E 	c #102710",
"F 	c #112611",
"G 	c #0F200D",
"H 	c #162411",
"I 	c #0D1A0A",
"J 	c #11210E",
"K 	c #22331B",
"L 	c #2A3D21",
"M 	c #38512E",
"N 	c #5A740B",
"O 	c #627B0C",
"P 	c #5F780B",
"Q 	c #61790C",
"R 	c #61790B",
"S 	c #647B0D",
"T 	c #637B0D",
"U 	c #647C0D",
"V 	c #5F770A",
"W 	c #5F780A",
"X 	c #5E7709",
"Y 	c #5E7508",
"Z 	c #62770A",
"` 	c #5F7509",
" .	c #607808",
"..	c #657A0C",
"+.	c #1C2B16",
"@.	c #1C2A15",
"#.	c #081006",
"$.	c #020702",
"%.	c #1C3C1C",
"&.	c #214421",
"*.	c #020401",
"=.	c #070E05",
"-.	c #182613",
";.	c #587108",
">.	c #5E7509",
",.	c #60780B",
"'.	c #627B0D",
").	c #627A0C",
"!.	c #62790C",
"~.	c #607709",
"{.	c #5F7609",
"].	c #607708",
"^.	c #5E7507",
"/.	c #62790A",
"(.	c #344B2A",
"_.	c #23361C",
":.	c #0A1507",
"<.	c #020902",
"[.	c #020802",
"}.	c #0A1B0A",
"|.	c #0B1408",
"1.	c #050E04",
"2.	c #071707",
"3.	c #183518",
"4.	c #224722",
"5.	c #265226",
"6.	c #245724",
"7.	c #225922",
"8.	c #102610",
"9.	c #183418",
"0.	c #234723",
"a.	c #0D200D",
"b.	c #0C1E0B",
"c.	c #142310",
"d.	c #293D21",
"e.	c #63780B",
"f.	c #61780B",
"g.	c #63790D",
"h.	c #60790A",
"i.	c #637A0C",
"j.	c #627708",
"k.	c #64790A",
"l.	c #091507",
"m.	c #0F240F",
"n.	c #264D26",
"o.	c #1D631D",
"p.	c #186918",
"q.	c #204420",
"r.	c #1C3D1C",
"s.	c #132D13",
"t.	c #091B09",
"u.	c #040E04",
"v.	c #070D05",
"w.	c #667B0E",
"x.	c #607508",
"y.	c #627A0A",
"z.	c #617508",
"A.	c #617A0A",
"B.	c #3A532F",
"C.	c #354D2B",
"D.	c #2D4324",
"E.	c #1E3319",
"F.	c #112811",
"G.	c #0B1E0B",
"H.	c #040F04",
"I.	c #274F27",
"J.	c #0F700F",
"K.	c #107010",
"L.	c #274E27",
"M.	c #265126",
"N.	c #245624",
"O.	c #1E601E",
"P.	c #166B16",
"Q.	c #0D210D",
"R.	c #1C2E17",
"S.	c #39522E",
"T.	c #617609",
"U.	c #617509",
"V.	c #637B0C",
"W.	c #1D3319",
"X.	c #1E3E1D",
"Y.	c #0B1F0B",
"Z.	c #275027",
"`.	c #0F710F",
" +	c #126F12",
".+	c #0D200C",
"++	c #687C0D",
"@+	c #677C0D",
"#+	c #5F7708",
"$+	c #63770C",
"%+	c #627709",
"&+	c #273A20",
"*+	c #1F3E1E",
"=+	c #1E401E",
"-+	c #173217",
";+	c #1F601F",
">+	c #235923",
",+	c #142E14",
"'+	c #122A12",
")+	c #162511",
"!+	c #26391E",
"~+	c #667D0E",
"{+	c #677B0D",
"]+	c #617608",
"^+	c #2C4324",
"/+	c #186818",
"(+	c #1D621D",
"_+	c #126E12",
":+	c #1D3D1D",
"<+	c #0B1D0B",
"[+	c #697F0F",
"}+	c #63770B",
"|+	c #122B12",
"1+	c #11220F",
"2+	c #5D760B",
"3+	c #5C740B",
"4+	c #65790C",
"5+	c #11200E",
"6+	c #506B07",
"7+	c #546F08",
"8+	c #6B810E",
"9+	c #677A0F",
"0+	c #63770A",
"a+	c #273B1F",
"b+	c #0A1C0A",
"c+	c #0C210C",
"d+	c #446205",
"e+	c #556F08",
"f+	c #0C200C",
"g+	c #4D6707",
"h+	c #677C0F",
"i+	c #647C0C",
"j+	c #283B20",
"k+	c #0C1F0C",
"l+	c #677C0E",
"m+	c #657D0F",
"n+	c #667E0F",
"o+	c #667F0F",
"p+	c #657D0E",
"q+	c #152210",
"r+	c #041004",
"s+	c #081908",
"t+	c #0F190B",
"u+	c #2F4526",
"v+	c #22351C",
"w+	c #0E1F0C",
"x+	c #010301",
"y+	c #0A1809",
"z+	c #5E780B",
"A+	c #617B0C",
"B+	c #647D0E",
"C+	c #142410",
"D+	c #030903",
"E+	c #0F1B0B",
"F+	c #617B0D",
"G+	c #273B20",
"H+	c #101F0D",
"I+	c #0B1A09",
"J+	c #25371E",
"K+	c #60780C",
"L+	c #61780C",
"M+	c #051005",
"N+	c #102810",
"O+	c #60750A",
"P+	c #030B03",
"Q+	c #132B13",
"R+	c #030602",
"S+	c #24371D",
"T+	c #091909",
"U+	c #1B651B",
"V+	c #205E20",
"W+	c #225422",
"X+	c #165C16",
"Y+	c #165D16",
"Z+	c #225522",
"`+	c #112711",
" @	c #080F05",
".@	c #607507",
"+@	c #214A21",
"@@	c #134013",
"#@	c #134113",
"$@	c #061406",
"%@	c #152110",
"&@	c #2C4023",
"*@	c #0D1609",
"=@	c #071407",
"-@	c #1E501E",
";@	c #173817",
">@	c #163016",
",@	c #1C3B1C",
"'@	c #132C13",
")@	c #0D220D",
"!@	c #1B611B",
"~@	c #1F4F1F",
"{@	c #162F16",
"]@	c #040D04",
"^@	c #1E2F18",
"/@	c #111F0D",
"(@	c #0A1D0A",
"_@	c #112D11",
":@	c #133013",
"<@	c #234623",
"[@	c #264C26",
"}@	c #204320",
"|@	c #1C661C",
"1@	c #1F501F",
"2@	c #163916",
"3@	c #0F260F",
"4@	c #050B04",
"5@	c #26391F",
"6@	c #717E31",
"7@	c #0C1E0C",
"8@	c #1C3F1C",
"9@	c #133113",
"0@	c #070D04",
"a@	c #0E210E",
"b@	c #102510",
"c@	c #156715",
"d@	c #106310",
"e@	c #135A13",
"f@	c #1C4C1C",
"g@	c #1C4D1C",
"h@	c #1A611A",
"i@	c #1E4F1E",
"j@	c #214321",
"k@	c #1D3E1D",
"l@	c #1D521D",
"m@	c #104410",
"n@	c #083508",
"o@	c #0E2C0E",
"p@	c #0D2C0D",
"q@	c #083608",
"r@	c #214B21",
"s@	c #163116",
"t@	c #153115",
"u@	c #142D14",
"v@	c #0E230E",
"w@	c #030C03",
"x@	c #224622",
"y@	c #112911",
"z@	c #1A381A",
"A@	c #193619",
"B@	c #235A23",
"C@	c #254C26",
"D@	c #204421",
"E@	c #254D26",
"F@	c #23341B",
"G@	c #667A0E",
"H@	c #166A16",
"I@	c #1A2914",
"J@	c #1B3A1B",
"K@	c #1C3E1D",
"L@	c #1B3C1C",
"M@	c #1F4421",
"N@	c #264622",
"O@	c #304823",
"P@	c #31401F",
"Q@	c #2B2B13",
"R@	c #261708",
"S@	c #261608",
"T@	c #252811",
"U@	c #223C1C",
"V@	c #101E0D",
"W@	c #13250F",
"X@	c #191B0A",
"Y@	c #0F2710",
"Z@	c #262E14",
"`@	c #3C371A",
" #	c #45381B",
".#	c #433017",
"+#	c #422B14",
"@#	c #422A14",
"##	c #3A2913",
"$#	c #0F1D0C",
"%#	c #010201",
"&#	c #242912",
"*#	c #223B1C",
"=#	c #241608",
"-#	c #191005",
";#	c #241507",
">#	c #271809",
",#	c #2F1E0C",
"'#	c #3C2712",
")#	c #452D16",
"!#	c #4A3118",
"~#	c #4D3319",
"{#	c #1A3A1B",
"]#	c #0A250A",
"^#	c #0A260A",
"/#	c #1E2E18",
"(#	c #020501",
"_#	c #224723",
":#	c #252712",
"<#	c #392A13",
"[#	c #252912",
"}#	c #3B2511",
"|#	c #251508",
"1#	c #3C2611",
"2#	c #2F1D0C",
"3#	c #34200E",
"4#	c #4E3319",
"5#	c #4E3419",
"6#	c #432B14",
"7#	c #0A200C",
"8#	c #062D06",
"9#	c #062E06",
"0#	c #091407",
"a#	c #34210E",
"b#	c #4B3118",
"c#	c #452E16",
"d#	c #3B2612",
"e#	c #2E1D0C",
"f#	c #38220D",
"g#	c #4E3114",
"h#	c #583717",
"i#	c #593717",
"j#	c #563618",
"k#	c #503419",
"l#	c #251608",
"m#	c #1C3E1C",
"n#	c #123812",
"o#	c #0A3D0A",
"p#	c #063006",
"q#	c #1C3017",
"r#	c #183217",
"s#	c #462D16",
"t#	c #452D15",
"u#	c #4E3014",
"v#	c #603913",
"w#	c #683D13",
"x#	c #693D13",
"y#	c #623B15",
"z#	c #553617",
"A#	c #251708",
"B#	c #184918",
"C#	c #184518",
"D#	c #37220D",
"E#	c #5D3916",
"F#	c #653C14",
"G#	c #231508",
"H#	c #160E05",
"I#	c #252812",
"J#	c #123712",
"K#	c #073407",
"L#	c #043304",
"M#	c #184418",
"N#	c #0E280E",
"O#	c #0E240E",
"P#	c #242811",
"Q#	c #3A2A13",
"R#	c #643B14",
"S#	c #4F3114",
"T#	c #3B2611",
"U#	c #1B431B",
"V#	c #184718",
"W#	c #0D3B0D",
"X#	c #0C2B0C",
"Y#	c #122F12",
"Z#	c #0D260D",
"`#	c #162813",
" $	c #1B3B1B",
".$	c #231708",
"+$	c #392410",
"@$	c #402811",
"#$	c #3D230A",
"$$	c #44270B",
"%$	c #523213",
"&$	c #623A15",
"*$	c #553618",
"=$	c #503418",
"-$	c #33210E",
";$	c #3A2511",
">$	c #241508",
",$	c #0F1105",
"'$	c #0D1C0A",
")$	c #0C210D",
"!$	c #1C401C",
"~$	c #0F370F",
"{$	c #062C06",
"]$	c #2A3E22",
"^$	c #0E250F",
"/$	c #0E220E",
"($	c #1D1708",
"_$	c #3C2209",
":$	c #56300B",
"<$	c #63380E",
"[$	c #673C11",
"}$	c #462E16",
"|$	c #2C1B0B",
"1$	c #32230F",
"2$	c #1F220D",
"3$	c #123112",
"4$	c #0D350D",
"5$	c #0E200E",
"6$	c #030D03",
"7$	c #212210",
"8$	c #180F05",
"9$	c #0C0502",
"0$	c #0B0501",
"a$	c #050301",
"b$	c #371D04",
"c$	c #57300A",
"d$	c #63390E",
"e$	c #673B11",
"f$	c #5D3816",
"g$	c #3B2711",
"h$	c #2C1B0A",
"i$	c #3A2611",
"j$	c #24210D",
"k$	c #102A10",
"l$	c #0D310D",
"m$	c #112710",
"n$	c #172A14",
"o$	c #2A3F22",
"p$	c #162913",
"q$	c #2D3D21",
"r$	c #222210",
"s$	c #1B1005",
"t$	c #1A0F04",
"u$	c #1B0F04",
"v$	c #1A1B0C",
"w$	c #172110",
"x$	c #14200F",
"y$	c #0F1A0B",
"z$	c #2A1503",
"A$	c #381D04",
"B$	c #29190A",
"C$	c #231507",
"D$	c #2A1B0B",
"E$	c #211E0C",
"F$	c #102C10",
"G$	c #0D330D",
"H$	c #172B14",
"I$	c #5E750A",
"J$	c #607909",
"K$	c #677A0C",
"L$	c #2C1907",
"M$	c #4B2E12",
"N$	c #2B1B0B",
"O$	c #1F1206",
"P$	c #201306",
"Q$	c #587008",
"R$	c #395502",
"S$	c #496306",
"T$	c #62760A",
"U$	c #351C05",
"V$	c #59340F",
"W$	c #613A15",
"X$	c #211307",
"Y$	c #211407",
"Z$	c #201206",
"`$	c #150803",
" %	c #182A14",
".%	c #5E7609",
"+%	c #5D770A",
"@%	c #506B06",
"#%	c #3F5C04",
"$%	c #677F11",
"%%	c #5B750A",
"&%	c #536C05",
"*%	c #6D8210",
"=%	c #637D0F",
"-%	c #677E0F",
";%	c #677F0F",
">%	c #5E770C",
",%	c #5B7509",
"'%	c #172411",
")%	c #140D05",
"!%	c #44270A",
"~%	c #2B1A0B",
"{%	c #1B0F05",
"]%	c #0F0702",
"^%	c #020502",
"/%	c #030502",
"(%	c #081005",
"_%	c #657E0F",
":%	c #627D0D",
"<%	c #607B0D",
"[%	c #5A7308",
"}%	c #567007",
"|%	c #496405",
"1%	c #506B0A",
"2%	c #5E790D",
"3%	c #456104",
"4%	c #4D6706",
"5%	c #5B760B",
"6%	c #667B0D",
"7%	c #221508",
"8%	c #1F1306",
"9%	c #1E1206",
"0%	c #161005",
"a%	c #101B0C",
"b%	c #182512",
"c%	c #1D2C16",
"d%	c #25361D",
"e%	c #25371D",
"f%	c #293C21",
"g%	c #637D0E",
"h%	c #607A0D",
"i%	c #556F07",
"j%	c #3F5C03",
"k%	c #486506",
"l%	c #496606",
"m%	c #587209",
"n%	c #60790D",
"o%	c #180E05",
"p%	c #33200E",
"q%	c #4C3319",
"r%	c #563617",
"s%	c #21321A",
"t%	c #647A0E",
"u%	c #5E760A",
"v%	c #627C0D",
"w%	c #5F790D",
"x%	c #5D770C",
"y%	c #5C7508",
"z%	c #5A7408",
"A%	c #597207",
"B%	c #506A06",
"C%	c #3C5902",
"D%	c #405E03",
"E%	c #4E6907",
"F%	c #59730A",
"G%	c #61750A",
"H%	c #60770C",
"I%	c #62790D",
"J%	c #5F770C",
"K%	c #637C0F",
"L%	c #647C0E",
"M%	c #5B7409",
"N%	c #5C730A",
"O%	c #567008",
"P%	c #5A7108",
"Q%	c #623B14",
"R%	c #0D1709",
"S%	c #60790B",
"T%	c #5C3816",
"U%	c #687B0F",
"V%	c #62770C",
"W%	c #2E4425",
"X%	c #65790D",
"Y%	c #637809",
"Z%	c #162311",
"`%	c #61760B",
" &	c #677A0D",
".&	c #677B0E",
"+&	c #65790B",
"@&	c #62780C",
"#&	c #5F7709",
"$&	c #627B0B",
"%&	c #5E7306",
"&&	c #442D16",
"*&	c #657A0A",
"=&	c #637B09",
"-&	c #617907",
";&	c #617A0C",
">&	c #687C0E",
",&	c #657C0E",
"'&	c #5F770B",
")&	c #677D0D",
"!&	c #627D0E",
"~&	c #5C760A",
"{&	c #2E4325",
"]&	c #1A1005",
"^&	c #1C1106",
"/&	c #627A0D",
"(&	c #627C0E",
"_&	c #5A7307",
":&	c #698011",
"<&	c #667E0E",
"  . + @ # $ % & * = - ; > ; , ' ) ! ~ { ] ^ / ( _ : < [ [ } | 1 2 3 3 3 3 4 5 6 7 } | 1 2 3 3 4 5 6 7 8 9 0 a b c [ d e f g g h ",
"i < + @ j k l = _ m n ) o ; p ) ) q r s t u v w 1 x y z r A B C D E F F F F E D G H I C D E F F E D J K L y M N O P Q R S T U O ",
": V W m X Y * Z : p `  .p S ..p ..} | +.@.#.3 3 3 5 x r | B $.D %.&.&.&.&.&.&.%.D 4 4 D %.&.&.&.&.%.D *.=.-.y ;.>.< Q ,.'.).Q !.",
": ~.{._ !.- ].^.m ; /.q r s t (.s _.:.<.[.C D E E D }.|.1.2.D 3.4.5.6.7.7.6.5.4.3.8.8.9.0.5.6.6.5.0.9.D a.b.c.K d.y M e.f.!.g.h.",
"~./.i.; ` ( ].j.k.p i.} | +.@.+.+.l.4 3 3 D %.&.&.%.D 3 3 m.%.0.n.6.o.p.p.o.6.n.0.q.q.0.n.6.o.o.6.n.0.r.s.t.u.*.v.-.y !.!.f.w.!.",
"( !.x./.y.z./.R A.B.C.D.E.F.E G.H.}.D 8.F 9.0.I.I.0.9.8.8.3.4.I.I.7.p.J.K.p.7.I.L.L.I.M.N.O.P.P.O.6.M.4.3.E 8.D Q.a.R.y S.' g.T.",
"> U.V.; ../.p m @ r | W.X.&.&.Y.4 D %.q.&.4.n.Z.Z.n.4.q.q.4.n.I.I.7.p.`.`.p.7.I.I.I.I.6.o.P. + +P.o.6.n.0.&.q.%.s.8..+-.y ++/./.",
"[ @+#+> $+%+> > /.r &+E.*+=+-+C m.9.0.M.6.7.7.7.7.7.7.N.M.I.L.L.I.N.o.P. +p.7.5.N.7.7.;+P.K.K.K.K.p.>+I.L.I.I.4.3.,+'+.+)+!+C.) ",
"~+@+{+' /.]+p > p B.C.^+E.Q.<.D %.0.n.6.o.p.p.p.p.p.p.o.6.I.I.I.I.M.6.O.P./+7.6.(+p.p.P._+K.K.K.K.p.7.I.I.Z.I.n.4.:+,+8.<+6 7 e.",
"[+,.V }+!.%+) ..]+z r A B C D 9.0.M.6.;+P.K.K.K.K.K.K.P.;+7.>+N.M.L.I.6.o.(+6.N.(+P. +K.K.K.K.K.K.P.;+7.>+N.M.I.I.4.3.,+|+Q.1+7 ",
"2+3+d , ../.4+]+]+r &+5+$.D %.0.n.6.o.P. +K.K.K.K.K.K._+P.p.p.o.6.I.L.5.N.N.5.5.6.O.P.K.K.K.K.K.K._+P.p.p.o.6.I.I.n.4.:+,+E Q.6 ",
"6+7+8+9+0+..' B.C.a+5+b+D 3.4.M.6.;+P.K.K.K.K.K.K.K.K.K.K.K.K.P.;+N.M.I.L.I.I.I.I.N.o.P. +K.K.K.K.K.K.K.K.P.;+6.M.I.I.&.E Q.c+4 ",
"d+e+, , S S i.r | B $.D %.0.n.6.o.P. +K.K.K.K.K.K.K.K.K.K.K.K. +P.o.N.I.L.I.I.I.I.M.N.;+P.K.K.K.K.K.K.K.K. +P.o.N.Z.I.&.E f+c+4 ",
"g+9 h+U ~+~+i+r j+I 4 8.q.I.I.7.p.K.K.K.K.K.K.K.K.K.K.K.K.K.K.K.K.P.;+7.>+N.M.I.I.I.I.N.o.P. +K.K.K.K.K.K.K.K.p.7.I.I.&.E b+k+2 ",
"O l+~+m+n+o+p+B.C.q+3 E &.I.Z.7.p.K.K.K.K.K.K.K.K.K.K.K.K.K.K.K.K._+P.p.p.o.6.I.I.I.I.M.N.;+P.K.K.K.K.K.K.K.K.p.7.I.I.&.E r+s+t+",
"Q U m+n+n+q r u+v+w+D 3.0.L.I.>+p.K.K.K.K.K.K.K.K.K.K.K.K.K.K.K.K.K.K.K.K.P.;+N.M.I.I.I.I.N.o.P._+K.K.K.K.K.K.p.7.I.I.&.E x+y+| ",
"z+A+B+o+n+} | C+D+D %.4.n.I.I.7.p.K.K.K.K.K.K.K.K.K.K.K.K.K.K.K.K.K.K.K.K. +P.o.N.I.I.I.I.M.N.;+P.K.K.K.K.K.K.p.7.I.I.&.E 4 E+} ",
". F+'.q } G+H+b+D 3.4.5.6.>+7.;+P.K.K.K.K.K.K.K.K.K.K.K.K.K.K.K.K.K.K.K.K.K.K.P.;+N.M.I.I.I.I.7.p.K.J.K.K.J.K.p.7.Z.I.&.E H.I+J+",
"K+K+S r | B $.D %.0.n.6.o.p.p.P._+K.K.K.K.K.K.K.K.K.K.K.K.K.K.K.K.K.K.K.K.K.K. +P.o.N.I.I.L.I.>+p.K.K.K.K.K.K.p.7.I.I.&.E b+k+6 ",
"m m L+(.+.M+3 8.q.I.I.7.p.K.`.K.K.K.K.K.K.K.K.K.K.K.K.K.K.K.K.K.K.K.K.K.K.K.K.K.K.P.;+N.M.L.I.7.p._+P./+/+P. +p.7.n.0.:+,+N+Q.2 ",
"V.X O+t @.P+3 E &.I.Z.7.p.K.`.K.K.K.K.K.K.K.K.K.K.K.K.K.K.K.K.K.K.K.K.K.K.K.K.K.K. +P.o.N.I.I.7.p.P.O.>+>+O.P.p.7.4.9.,+Q+F.c+R+",
"~.q } S+l.T+D 3.4.I.I.6.o.p.p.P._+K.K.K.K.K.K.K.K.K.K.K.K.K.K.K.K.K.K.K.K.K.K.K.K.K.K.P.;+N.M.N.(+U+V+N.M.W+X+Y+Z+&.`+f+Q.b+k+ @",
".@r | :.4 D %.4.n.I.I.5.6.>+7.;+P.K.K.K.K.K.K.K.K.K.K.K.K.K.K.K.K.K.K.K.K.K.K.K.K.K.K. +P.o.N.5.N.V+U+o.N.+@@@#@+@q.E c+Q.$@b+%@",
"( &@*@=@H.8.q.I.I.I.I.I.I.I.I.N.o.P. +K.K.K.K.K.K.K.K.K.K.K.K.K.K.K.K.K.K.K.K.K.K.K.K.K.K.P.;+>+>+O.P.P.O.-@;@>@:+,@'@F.)@H.J | ",
"~.+.5 k+b+E &.I.Z.I.I.I.I.L.I.M.N.;+P.K.K.K.K.K.K.K.K.K.K.K.K.K.K.K.K.K.K.K.K.K.K.K.K.K.K._+P./+/+P._+ +P.!@~@:+{@|+`+N+c+]@^@} ",
"y /@(@_@:@9.<@I.I.[@4.}@}@4.n.I.Z.6.o.p.p.P._+K.K.K.K.K.K.K.K.K.K.K.K.K.K.K.K.K.K.K.K.K.K.K.K.K.K.K.K. +P.|@V+1@2@:@_@3@f+4@5@6@",
"-.7@8.:@8@4.n.I.I.4.3.8.8.3.4.I.I.M.N.>+7.;+P.K.K.K.K.K.K.K.K.K.K.K.K.K.K.K.K.K.K.K.K.K.K.K.K.K.K.J.K.P.O.V+U+!@-@8@9@E k+4@5@{ ",
"0@a@s.2@~@7.>+>+7.~@2@8.b@>@:+}@&.4.n.I.I.6.o.p.p.P._+K.K.K.K.K.K.K.K._+P.p.p.p.p.p.p.p.p.p.p.p.p.c@d@e@f@g@e@Y+Z+&.`+f+a.]@^@} ",
"*.m.%.~@!@p.p.p.p.h@i@&.j@k@>@8.E 3.0.L.I.M.N.>+7.;+P.K.K.K.K.K.K.K.K.P.;+7.>+7.7.7.7.7.7.7.7.>+7.l@m@n@o@p@q@#@r@&.F.f+c+H.J | ",
"5 F &.7.p.K.K.K.K.P.;+>+>+~@2@8.8.>@k@4.n.I.I.I.I.6.o.p.p.p.p.p.p.p.p.o.6.I.I.I.I.I.I.I.I.I.I.I.I.4.3.E 8.E E s@k@r.t@u@v@w@t.@.",
"4 F &.>+p.K.`.K.K._+P.p.p.!@~@&.j@:+>@3.4.I.I.L.I.M.N.7.7.7.7.7.7.7.7.N.M.I.L.I.I.I.I.I.I.I.I.I.I.[@x@j@}@&.j@:+>@y@z@:+E w@t.@.",
"3 F &.7.p.K.K.K.K.K.K.K.K.P.;+6.M.q.E E q.I.Z.I.I.I.I.I.I.I.I.I.I.I.I.I.I.I.I.I.I.I.I.I.I.I.I.I.I.I.I.I.I.I.I.0.3.N+s@A@D H.J | ",
"3 F &.7.p.K.K.K.K.K.K.K.K. +P.o.6.&.8.8.}@I.I.I.I.I.I.I.I.I.I.I.I.I.I.I.I.I.I.I.I.I.I.I.I.I.I.I.I.I.I.I.I.Z.I.n.4.%.`+b+Y.]@^@} ",
"5 F &.6.o.P. +K.K.K.K._+P.P._+p.B@&.8.E &.[@0.4.[@I.Z.I.I.C@4.D@D@D@D@D@D@4.E@I.I.I.I.I.I.I.I.I.I.I.I.M.N.7.7.6.M.0.9.8.G.R+F@G@",
"2 E &.M.6.;+P.K.K.K.K.H@;+O.P.p.7.q.F F.q.4.3.3.4.I.I.I.I.4.3.E 8.E E 8.E 3.4.I.I.I.I.I.I.I.I.I.I.I.I.6.o.p.p.o.6.n.0.%.D 5 I@l+",
" @v@J@0.n.6.o.p.p.p.p.(+6.6.o.!@-@K@>@s@K@L@D D L@M@D@N@O@P@Q@R@S@R@R@S@R@T@U@0.n.I.I.I.I.I.I.I.I.5.6.O.P.J.J.P.O.6.5.&.E ]@V@y ",
"q+s+Q.9.0.M.6.7.7.7.7.N.M.5.N.~@2@s@:+k@s@W@X@}.D Y@E Z@`@ #.#+#@#+#+#+#+###T@3.4.I.I.I.I.I.I.I.I.N.o.P. +K.K. +P.o.6.&.F t.b.-.",
"&+$#%#E &.I.Z.I.I.I.I.I.I.E@4.U@T@&#*#U@&#R@=#-#;#R@>#,#'#)#!#~#~#~#~#~#~#+#R@f+{#4.n.I.Z.I.I.I.I.6.o.p.p.p.p.p.p.o.6.&.F ]#^#0@",
"} /#(#8.q.I.I.I.I.I.I.I.I._#9.:###<#[#[#<#}#|#;#}#+#+#1#2#3#)#~#4#~#~#5#~#6#S@]@7#3.0.I.I.I.I.I.I.5.6.7.7.7.7.7.7.6.5.&.E 8#9#*.",
"C._.0#v@J@4.n.I.I.I.I.Z.I.D@Y@R@@#)#a#a#)#)#a#a#)#b#c#d#e#f#g#h#i#h#h#j#k#+#l#3 3 D %.D@D@D@D@D@D@4.E@I.Z.Z.I.n.4.&.q.m#n#o#p#5 ",
"&+q#r#v@Q.3.4.I.I.I.I.I.I.D@8.S@+#b#s#t#b#!#)#c#!#c#a#,#'#u#v#w#x#w#w#y#z#+#A#3 %#}.D E E E E 8.E 3.0.I.I.I.I.0.9.F 8.n#B#C#p@4 ",
"| W.X.y@x+E &.I.Z.Z.I.n.4.U@T@a#s#~#4#~#~#4#~#b#)#d#e#D#g#E#F#w#w#w#w#F#E#g#D#G#H#-#;#R@R@R@R@S@>#I#U@&.D@&.&.k@J#K#L#o#M#m#N#5 ",
"C.^+E.O#<.8.q.I.I.I.I.4.3.P#Q#)#b#~#~#~#~#~#~#c#a#e#'#g#v#F#E#h#h#h#h#E#R#v#S#T#G#;#}#+#+#+#+#+#+#Q#T@E Y@E E t@U#V#W#p#X#Y#Z#2 ",
"; r | `#T+D  $&.&.&.&.{#D .$+$+#+#+#+#+#+#+#+#@$#$$$%$E#F#&$*$=$*$*$=$*$&$F#E#u#f#-$)#~#~#~#~#b#)#;$>$,$'$f+)$u@:+!$~${$^#N+a. @",
"}+z r ]$`#v@D E E E E ^$/$($>$>#R@R@R@R@R@A#R@_$:$<$[$F#E#*$k#*$&$&$*$k#*$E#F#v#g#)#!#~#4#4#~#}$a#|$3#1$2$c+c+v@b@3$4$9#]#`+5$q+",
"~./.~.r | `#T+6$w@w@6$C `#7$8$9$0$9$9$a$3 3 3 b$c$d$e$&$*$k#*$f$R#R#f$*$k#h#w#w#h#~#~#4#~#b#)#g$|$h$T#i$j$Q.)$f+Q.k$l${$^#m$n$| ",
"p > !.z r o$`#t.t.t.t.p$o$q$r$s$t$u$u$v$w$x$y$z$A$$$%$*$k#*$&$R#E#E#R#&$*$h#w#x#i#~#~#~#~#)#-$|$B$C$l#D$E$c+)$c+a.F$G$9#]#H$o$} ",
"` < I$% K+} | +.@.@.+.&+} } &++.@.@.+.| } J$K$w 3 L$M$*$k#h#w#w#h#h#w#w#h#z#&$y#j#b#)#+#+#i$N$>#>#O$P$R@O$6$t.f+Q.m$n$@.+.| } : ",
"[ Q$R$S$i.q r s t t s r q q r s t t s r q < T$w 3 U$V$W$j#h#w#w#h#h#w#w#h#=$*$*$=$)#-$R@A#>$P$P$P$X$Y$Z$`$w@t.c+Q. %]$t (.r q .%",
"+%& @%#%$%%%0 &%b *%< [ d =%-%;%n+  >%,%# y '%)%>$!%<$w#h#z#&$R#E#E#R#&$z#~#~#b#)#T#~%{%]%3 3 5 2 ^%/%(%q++.+.@.+.| } ;%_%:%<%[ ",
"9 [%}%|%1%2%3%4%5%6%.%[ z+F+g ~+S i + % [%'%4 7%T#%$[$w#h#k#*$f$R#R#f$z#k#~#~#)#-$=#8%9%0%a%b%c%K d%e%f%y s s t s r q [+g g%h%>%",
",%$ # i%j%k%3%l%m%n >.[ n%Q Q ).).[ * y '%o%>$p%)#h#x#w#h#q%q%*$&$R#E#r%=$b#)#T#=#3 3 R+s%..o ; %+t%L+!.,.u%d F+B+n+n+n+p+v%w%x%",
"y%z%$ A%B%C%D%E%F%%+R e.- g.< !.!.Y ~.'%4 >$i$)#b#h#w#w#h#~#q%k#z#E#R#y#z#)#-$>$o%a%b%K s , !.G%> S H%I%[ J%d '.K%U n+n+L%F+. + ",
"@ * k M%N%O%P%_ /.; V./.e.> /.m ; y '%o%>$a#c#~#~#z#Q%R#E#h#h#h#h#E#R#y#z#+#A#3 R%f.e.]+; !.< o I%].< X [ ,.Q Q R V.T U '.d ,.K+",
"_ _ V S%Z Y ].- y...V.) : %+%+4+, '%4 >$i$)#b#~#~#k#z#T%R#w#w#w#w#R#f$j#=$+#A#3 w p p 4+, !.U%U%i.V%- f.Y ,.d < L+Q i.).).Q U !.",
": f.!.^.Z ; ( /.i.i.Z ..6%W%'%w *@o%=#a#)#!#)#)#!#~#~#z#Q%w#w#x#w#y#*$~#~#+#A#3 w @+6%> w.0+w.g.w.( /.m ~.X%Q m m m S w.R !.Z ( ",
"~.m : .@( Y%/.: : i./.p ) Z%4 3 3 >$T#c#b#)#a#-$)#~#~#k#z#h#h#h#h#z#k#~#~#+#R@3 R%`% &g.S w..&Z V%%+e.y.+&@&#&@&> f.6%i.!.~.) V.",
"i+/.e.]+).$&Z ).6%W%'%w *@-#=#A#R@-$)#~#~#)#-$a#)#~#~#~#~#~#~#!#)#)#!#~#~#)#-$=#o%R%w R%R%*@R%'%W%Z ; /.4+%&j ; , Z ` Z > V.; > ",
"S ].)./.R ( e...( Z%4 3 3 =#T#+#+#)#b#~#~#!#)#)#!#~#~#~#~#~#~#&&p%-$)#~#~#b#)#T#=#3 3 3 3 3 3 4 Z%../.: /.[ d }+%+*&=&-&/.K$/.o ",
";&m ~.!.m ` ; y '%-#>$A#R@-$)#~#~#~#~#~#~#~#~#!#)#)#!#~#~#b#)#'#,#-$)#~#~#~#~#)#-$R@A#R@R@R@R@=#-#R%w *@R%'%W%6%; 0+}+>&@+6%, ,&",
"O d '&* * j * '%4 =#i$+#+#)#b#~#4#~#~#~#~#~#~#)#a#-$)#~#~#)#-$2#'#)#!#~#~#~#~#b#)#+#+#+#+#+#+#T#=#3 3 3 3 4 Z%/.S%d O S g )&f B+",
"!&F++ ~&% {&q+]&l#a#)#~#~#~#~#~#~#~#~#~#~#~#~#+#R@R@+#~#~#+#R@R@+#~#~#~#~#~#~#~#~#~#~#~#~#~#~#c#a#>#R@>#>#l#^&q+{&+ /&~+-%n+[+p+",
"B+n%>%%%[%'%4 >$i$)#b#~#4#~#~#~#~#~#~#~#~#~#~#+#A#A#+#~#~#+#A#R@+#~#4#~#~#~#~#~#~#~#~#~#~#4#~#b#)#+#+#+#+#i$=#4 '%;%S m+n+n+-%~+",
"(&w%x%,%_&Z%4 R@+#~#~#~#~#~#~#~#~#~#~#~#~#~#~#+#R@R@+#~#~#+#R@R@+#~#~#~#~#~#~#~#~#~#~#~#~#~#~#~#~#~#~#~#~#+#R@4 Z%:&A+U <&n+-%B+"};
