/* XPM */
static char * wall3_xpm[] = {
"64 64 672 2",
"  	c #627B0E",
". 	c #5F790C",
"+ 	c #5E770B",
"@ 	c #5D760A",
"# 	c #597308",
"$ 	c #5B7408",
"% 	c #5B7508",
"& 	c #5C7509",
"* 	c #5D7508",
"= 	c #5F760A",
"- 	c #61770B",
"; 	c #62790B",
"> 	c #64790C",
", 	c #647B0C",
"' 	c #657A0D",
") 	c #64790B",
"! 	c #748037",
"~ 	c #8B8A71",
"{ 	c #90907C",
"] 	c #979688",
"^ 	c #8C8C75",
"/ 	c #6B7C23",
"( 	c #61790A",
"_ 	c #5E7608",
": 	c #60780A",
"< 	c #60770B",
"[ 	c #5E770A",
"} 	c #364D2C",
"| 	c #273A1F",
"1 	c #101A0B",
"2 	c #020301",
"3 	c #000000",
"4 	c #000100",
"5 	c #010100",
"6 	c #060D04",
"7 	c #26381E",
"8 	c #687F10",
"9 	c #5C750A",
"0 	c #476305",
"a 	c #526D06",
"b 	c #567108",
"c 	c #6A8210",
"d 	c #60790C",
"e 	c #647C0F",
"f 	c #647D0D",
"g 	c #667D0F",
"h 	c #647D0F",
"i 	c #617A0D",
"j 	c #5D7509",
"k 	c #5D7409",
"l 	c #5B7308",
"m 	c #60770A",
"n 	c #61780A",
"o 	c #637A0D",
"p 	c #63780A",
"q 	c #3A542F",
"r 	c #364E2C",
"s 	c #334A2A",
"t 	c #334A29",
"u 	c #293C20",
"v 	c #162210",
"w 	c #0E180A",
"x 	c #1A2814",
"y 	c #304627",
"z 	c #3A5430",
"A 	c #283C20",
"B 	c #122410",
"C 	c #0A1B0A",
"D 	c #081908",
"E 	c #071607",
"F 	c #081608",
"G 	c #0E1D0C",
"H 	c #172512",
"I 	c #0F1F0D",
"J 	c #10200D",
"K 	c #22331B",
"L 	c #2A3D21",
"M 	c #38512E",
"N 	c #5A740B",
"O 	c #627B0C",
"P 	c #5F780B",
"Q 	c #61790C",
"R 	c #61790B",
"S 	c #647B0D",
"T 	c #637B0D",
"U 	c #647C0D",
"V 	c #5F770A",
"W 	c #5F780A",
"X 	c #5E7709",
"Y 	c #5E7508",
"Z 	c #62770A",
"` 	c #5F7509",
" .	c #607808",
"..	c #657A0C",
"+.	c #1C2B16",
"@.	c #1C2A15",
"#.	c #081006",
"$.	c #081808",
"%.	c #091A09",
"&.	c #040E04",
"*.	c #010301",
"=.	c #010401",
"-.	c #030A03",
";.	c #020401",
">.	c #070E05",
",.	c #182613",
"'.	c #587108",
").	c #5E7509",
"!.	c #60780B",
"~.	c #627B0D",
"{.	c #627A0C",
"].	c #62790C",
"^.	c #607709",
"/.	c #5F7609",
"(.	c #607708",
"_.	c #5E7507",
":.	c #62790A",
"<.	c #344B2A",
"[.	c #23361C",
"}.	c #0B1809",
"|.	c #040F04",
"1.	c #091B09",
"2.	c #0F250F",
"3.	c #102710",
"4.	c #0B1508",
"5.	c #071206",
"6.	c #061406",
"7.	c #0C200C",
"8.	c #112611",
"9.	c #091908",
"0.	c #142310",
"a.	c #293D21",
"b.	c #63780B",
"c.	c #61780B",
"d.	c #63790D",
"e.	c #60790A",
"f.	c #637A0C",
"g.	c #627708",
"h.	c #64790A",
"i.	c #1C3C1C",
"j.	c #214421",
"k.	c #030D03",
"l.	c #070D05",
"m.	c #667B0E",
"n.	c #607508",
"o.	c #627A0A",
"p.	c #617508",
"q.	c #617A0A",
"r.	c #3A532F",
"s.	c #354D2B",
"t.	c #2D4324",
"u.	c #1E3319",
"v.	c #112811",
"w.	c #0D200D",
"x.	c #0B1D0B",
"y.	c #102610",
"z.	c #183518",
"A.	c #224722",
"B.	c #274F27",
"C.	c #234723",
"D.	c #183418",
"E.	c #265226",
"F.	c #245724",
"G.	c #225922",
"H.	c #265126",
"I.	c #0A1A09",
"J.	c #1C2D17",
"K.	c #39522E",
"L.	c #617609",
"M.	c #617509",
"N.	c #637B0C",
"O.	c #1D3319",
"P.	c #1E3E1D",
"Q.	c #204420",
"R.	c #264D26",
"S.	c #275027",
"T.	c #1D631D",
"U.	c #186918",
"V.	c #687C0D",
"W.	c #677C0D",
"X.	c #5F7708",
"Y.	c #63770C",
"Z.	c #627709",
"`.	c #273A20",
" +	c #1F3E1E",
".+	c #204320",
"++	c #1E3E1E",
"@+	c #274E27",
"#+	c #245624",
"$+	c #1D621D",
"%+	c #166B16",
"&+	c #126E12",
"*+	c #1E601E",
"=+	c #081707",
"-+	c #152310",
";+	c #26391E",
">+	c #667D0E",
",+	c #677B0D",
"'+	c #617608",
")+	c #2C4324",
"!+	c #122A12",
"~+	c #0B1E0B",
"{+	c #010201",
"]+	c #126F12",
"^+	c #697F0F",
"/+	c #63770B",
"(+	c #0C1E0C",
"_+	c #235923",
":+	c #205D20",
"<+	c #1B651B",
"[+	c #0F240F",
"}+	c #12230F",
"|+	c #5D760B",
"1+	c #5C740B",
"2+	c #65790C",
"3+	c #132410",
"4+	c #205E20",
"5+	c #1C3B1C",
"6+	c #506B07",
"7+	c #546F08",
"8+	c #6B810E",
"9+	c #677A0F",
"0+	c #63770A",
"a+	c #273B20",
"b+	c #0D210D",
"c+	c #1F601F",
"d+	c #107010",
"e+	c #166A16",
"f+	c #446205",
"g+	c #556F08",
"h+	c #4D6707",
"i+	c #677C0F",
"j+	c #647C0C",
"k+	c #283B20",
"l+	c #1C3D1C",
"m+	c #677C0E",
"n+	c #657D0F",
"o+	c #667E0F",
"p+	c #667F0F",
"q+	c #657D0E",
"r+	c #162411",
"s+	c #0F700F",
"t+	c #132D13",
"u+	c #0D220D",
"v+	c #0F190B",
"w+	c #2F4626",
"x+	c #23381D",
"y+	c #0F210E",
"z+	c #091909",
"A+	c #0C1F0C",
"B+	c #102510",
"C+	c #0E200D",
"D+	c #5E780B",
"E+	c #617B0C",
"F+	c #647D0E",
"G+	c #152712",
"H+	c #101D0C",
"I+	c #617B0D",
"J+	c #0C1C0B",
"K+	c #25371E",
"L+	c #60780C",
"M+	c #1B3B1B",
"N+	c #0E240E",
"O+	c #61780C",
"P+	c #020702",
"Q+	c #234623",
"R+	c #60750A",
"S+	c #051205",
"T+	c #030602",
"U+	c #24371D",
"V+	c #163916",
"W+	c #1F4F1F",
"X+	c #225422",
"Y+	c #214A21",
"Z+	c #214321",
"`+	c #224622",
" @	c #264C26",
".@	c #080F05",
"+@	c #607507",
"@@	c #1B611B",
"#@	c #165D16",
"$@	c #134013",
"%@	c #152110",
"&@	c #2C4023",
"*@	c #0D1609",
"=@	c #0D650D",
"-@	c #084D08",
";@	c #043A04",
">@	c #043904",
",@	c #0F3C0F",
"'@	c #1C411C",
")@	c #0F710F",
"!@	c #165C16",
"~@	c #225522",
"{@	c #112711",
"]@	c #12240F",
"^@	c #0F6D0F",
"/@	c #0C610C",
"(@	c #0D560D",
"_@	c #0F3D0F",
":@	c #134113",
"<@	c #050F04",
"[@	c #1E2F18",
"}@	c #0F1B0B",
"|@	c #1C421C",
"1@	c #1F501F",
"2@	c #1E501E",
"3@	c #173817",
"4@	c #163016",
"5@	c #1D3D1D",
"6@	c #0F260F",
"7@	c #050B04",
"8@	c #26391F",
"9@	c #717E31",
"0@	c #071407",
"a@	c #107110",
"b@	c #162F16",
"c@	c #070D04",
"d@	c #142E14",
"e@	c #122B12",
"f@	c #1E3018",
"g@	c #214221",
"h@	c #186818",
"i@	c #142D14",
"j@	c #122510",
"k@	c #0C210C",
"l@	c #0A1A0A",
"m@	c #051105",
"n@	c #156716",
"o@	c #0F6310",
"p@	c #0C560D",
"q@	c #0F3D10",
"r@	c #183618",
"s@	c #254C25",
"t@	c #0E230E",
"u@	c #163116",
"v@	c #112911",
"w@	c #1D521D",
"x@	c #104410",
"y@	c #193519",
"z@	c #132C13",
"A@	c #254D26",
"B@	c #223C1C",
"C@	c #252811",
"D@	c #242811",
"E@	c #223B1C",
"F@	c #204421",
"G@	c #254C26",
"H@	c #23341B",
"I@	c #667A0E",
"J@	c #224723",
"K@	c #252712",
"L@	c #3A2813",
"M@	c #3A2913",
"N@	c #252812",
"O@	c #0F2710",
"P@	c #1A2914",
"Q@	c #0A1C0A",
"R@	c #261708",
"S@	c #422A14",
"T@	c #452D16",
"U@	c #34210E",
"V@	c #211206",
"W@	c #110802",
"X@	c #1B3C1C",
"Y@	c #1F4421",
"Z@	c #264622",
"`@	c #304823",
" #	c #31401F",
".#	c #2B2B13",
"+#	c #261608",
"@#	c #225A22",
"##	c #152210",
"$#	c #0E220E",
"%#	c #153115",
"&#	c #422B14",
"*#	c #4B3118",
"=#	c #462D16",
"-#	c #3F2813",
";#	c #2D1D0C",
">#	c #0D250F",
",#	c #262E14",
"'#	c #3C371A",
")#	c #45381B",
"!#	c #433017",
"~#	c #061506",
"{#	c #0A1B09",
"]#	c #11210E",
"^#	c #452D15",
"/#	c #4D3319",
"(#	c #4A3118",
"_#	c #352310",
":#	c #191005",
"<#	c #231507",
"[#	c #271809",
"}#	c #2F1E0C",
"|#	c #3C2712",
"1#	c #1A3A1B",
"2#	c #040D04",
"3#	c #3A2A13",
"4#	c #2B1B0B",
"5#	c #241507",
"6#	c #3A2511",
"7#	c #3C2611",
"8#	c #2F1D0C",
"9#	c #34200E",
"0#	c #4E3319",
"a#	c #4E3419",
"b#	c #432B14",
"c#	c #0A200C",
"d#	c #23361D",
"e#	c #0C1B0A",
"f#	c #241508",
"g#	c #3B2511",
"h#	c #452E16",
"i#	c #3B2612",
"j#	c #2E1D0C",
"k#	c #38220D",
"l#	c #4E3114",
"m#	c #583717",
"n#	c #593717",
"o#	c #563618",
"p#	c #503419",
"q#	c #251608",
"r#	c #235724",
"s#	c #1C631D",
"t#	c #1C4D1C",
"u#	c #0D2D0D",
"v#	c #1C3118",
"w#	c #1B371A",
"x#	c #153015",
"y#	c #071507",
"z#	c #122912",
"A#	c #0E250F",
"B#	c #181D0B",
"C#	c #241407",
"D#	c #251508",
"E#	c #4E3014",
"F#	c #603913",
"G#	c #683D13",
"H#	c #693D13",
"I#	c #623B15",
"J#	c #553617",
"K#	c #251708",
"L#	c #145A14",
"M#	c #083608",
"N#	c #193719",
"O#	c #071707",
"P#	c #000200",
"Q#	c #060501",
"R#	c #29190A",
"S#	c #301E0C",
"T#	c #100802",
"U#	c #241608",
"V#	c #3A2611",
"W#	c #37220D",
"X#	c #5D3916",
"Y#	c #653C14",
"Z#	c #231508",
"`#	c #160E05",
" $	c #2A2A13",
".$	c #314B25",
"+$	c #2B4E27",
"@$	c #235A23",
"#$	c #205F20",
"$$	c #0B1F0B",
"%$	c #161406",
"&$	c #261809",
"*$	c #1A0F04",
"=$	c #1B0F05",
"-$	c #462E16",
";$	c #643B14",
">$	c #4F3114",
",$	c #3B2611",
"'$	c #432F17",
")$	c #3F4120",
"!$	c #314A25",
"~$	c #0E2D0E",
"{$	c #172B14",
"]$	c #112710",
"^$	c #102811",
"/$	c #1F1D0B",
"($	c #201206",
"_$	c #1F1206",
":$	c #150B03",
"<$	c #040201",
"[$	c #090401",
"}$	c #261709",
"|$	c #402811",
"1$	c #3D230A",
"2$	c #44270B",
"3$	c #523213",
"4$	c #623A15",
"5$	c #553618",
"6$	c #503418",
"7$	c #33210E",
"8$	c #44381B",
"9$	c #30401F",
"0$	c #166716",
"a$	c #106310",
"b$	c #1C4C1C",
"c$	c #2A3E22",
"d$	c #172A14",
"e$	c #251709",
"f$	c #211407",
"g$	c #201306",
"h$	c #1D1105",
"i$	c #140A03",
"j$	c #190D04",
"k$	c #1B1005",
"l$	c #3C2209",
"m$	c #56300B",
"n$	c #63380E",
"o$	c #673C11",
"p$	c #0E2710",
"q$	c #1D531D",
"r$	c #0D2C0D",
"s$	c #0E210E",
"t$	c #102711",
"u$	c #232310",
"v$	c #140B03",
"w$	c #030200",
"x$	c #371D04",
"y$	c #57300A",
"z$	c #63390E",
"A$	c #673B11",
"B$	c #5D3816",
"C$	c #271708",
"D$	c #1C401C",
"E$	c #0F370F",
"F$	c #062C06",
"G$	c #0A260A",
"H$	c #2A3F22",
"I$	c #2D3D21",
"J$	c #242311",
"K$	c #1E1D0D",
"L$	c #182210",
"M$	c #14200F",
"N$	c #0F1A0B",
"O$	c #2A1503",
"P$	c #381D04",
"Q$	c #123112",
"R$	c #0D350D",
"S$	c #062E06",
"T$	c #0A250A",
"U$	c #5E750A",
"V$	c #607909",
"W$	c #677A0C",
"X$	c #2C1907",
"Y$	c #4B2E12",
"Z$	c #587008",
"`$	c #395502",
" %	c #496306",
".%	c #62760A",
"+%	c #351C05",
"@%	c #59340F",
"#%	c #613A15",
"$%	c #160903",
"%%	c #030C03",
"&%	c #182A14",
"*%	c #5E7609",
"=%	c #5D770A",
"-%	c #506B06",
";%	c #3F5C04",
">%	c #677F11",
",%	c #5B750A",
"'%	c #536C05",
")%	c #6D8210",
"!%	c #637D0F",
"~%	c #677E0F",
"{%	c #677F0F",
"]%	c #5E770C",
"^%	c #5B7509",
"/%	c #172411",
"(%	c #140D05",
"_%	c #44270A",
":%	c #020502",
"<%	c #030502",
"[%	c #081005",
"}%	c #657E0F",
"|%	c #627D0D",
"1%	c #607B0D",
"2%	c #5A7308",
"3%	c #567007",
"4%	c #496405",
"5%	c #506B0A",
"6%	c #5E790D",
"7%	c #456104",
"8%	c #4D6706",
"9%	c #5B760B",
"0%	c #667B0D",
"a%	c #221508",
"b%	c #191206",
"c%	c #101B0C",
"d%	c #182512",
"e%	c #1D2C16",
"f%	c #25361D",
"g%	c #25371D",
"h%	c #293C21",
"i%	c #637D0E",
"j%	c #607A0D",
"k%	c #556F07",
"l%	c #3F5C03",
"m%	c #486506",
"n%	c #496606",
"o%	c #587209",
"p%	c #60790D",
"q%	c #180E05",
"r%	c #33200E",
"s%	c #4C3319",
"t%	c #563617",
"u%	c #21321A",
"v%	c #647A0E",
"w%	c #5E760A",
"x%	c #627C0D",
"y%	c #5F790D",
"z%	c #5D770C",
"A%	c #5C7508",
"B%	c #5A7408",
"C%	c #597207",
"D%	c #506A06",
"E%	c #3C5902",
"F%	c #405E03",
"G%	c #4E6907",
"H%	c #59730A",
"I%	c #61750A",
"J%	c #60770C",
"K%	c #62790D",
"L%	c #5F770C",
"M%	c #637C0F",
"N%	c #647C0E",
"O%	c #5B7409",
"P%	c #5C730A",
"Q%	c #567008",
"R%	c #5A7108",
"S%	c #623B14",
"T%	c #0D1709",
"U%	c #60790B",
"V%	c #5C3816",
"W%	c #687B0F",
"X%	c #62770C",
"Y%	c #2E4425",
"Z%	c #65790D",
"`%	c #637809",
" &	c #162311",
".&	c #61760B",
"+&	c #677A0D",
"@&	c #677B0E",
"#&	c #65790B",
"$&	c #62780C",
"%&	c #5F7709",
"&&	c #627B0B",
"*&	c #5E7306",
"=&	c #442D16",
"-&	c #657A0A",
";&	c #637B09",
">&	c #617907",
",&	c #617A0C",
"'&	c #687C0E",
")&	c #657C0E",
"!&	c #5F770B",
"~&	c #677D0D",
"{&	c #627D0E",
"]&	c #5C760A",
"^&	c #2E4325",
"/&	c #1A1005",
"(&	c #1C1106",
"_&	c #627A0D",
":&	c #627C0E",
"<&	c #5A7307",
"[&	c #698011",
"}&	c #667E0E",
"  . + @ # $ % & * = - ; > ; , ' ) ! ~ { ] ^ / ( _ : < [ [ } | 1 2 3 3 3 3 4 5 6 7 } | 1 2 3 3 4 5 6 7 8 9 0 a b c [ d e f g g h ",
"i < + @ j k l = _ m n ) o ; p ) ) q r s t u v w 1 x y z r A B C D E E F F E E D G H I C D E E E E D J K L y M N O P Q R S T U O ",
": V W m X Y * Z : p `  .p S ..p ..} | +.@.#.3 3 3 5 x r | B $.%.&.*.*.*.*.*.*.&.D =.-.%.&.*.*.*.*.&.D ;.>.,.y '.).< Q !.~.{.Q ].",
": ^./._ ].- (._.m ; :.q r s t <.s [.}.|.&.1.2.3.3.2.C 4.5.6.E 7.2.3.8.8.8.8.3.2.7.E E 7.2.3.3.3.3.2.7.E E 9.0.K a.y M b.c.].d.e.",
"^.:.f.; ` ( (.g.h.p f.} | +.@.+.+.}.*.3 3 2.i.j.j.i.2.3 3 4 *.2.i.j.j.j.j.j.j.i.2.*.*.2.i.j.j.j.j.i.2.*.*.k.E ;.l.,.y ].].c.m.].",
"( ].n.:.o.p.:.R q.r.s.t.u.v.3.w.6.x.2.y.3.z.A.B.B.C.D.8.y.y.3.z.A.E.F.G.G.F.H.C.D.y.y.z.A.B.B.B.B.A.z.3.y.2.7.E E I.J.y K.' d.L.",
"> M.N.; ..:.p m @ r | O.P.j.j.3.=.2.i.Q.j.A.R.S.S.R.A.j.Q.Q.j.C.R.F.T.U.U.T.F.R.C.Q.Q.A.R.B.S.S.B.R.A.j.Q.i.2.*.*.k.%.,.y V.:.:.",
"[ W.X.> Y.Z.> > :.r `.u. +.+++x.4 y.Q.B.B.B.B.@+B.E.#+#+E.B.@+@+B.#+$+%+&+%+*+F.E.B.B.B.B.B.B.B.B.B.B.B.B.A.z.3.y.2.7.=+-+;+s.) ",
">+W.,+' :.'+p > p r.s.)+u.!+~+E {+3.j.B.S.B.B.B.B.F.T.T.F.B.B.B.B.E.F.*+%+]+%+T.F.B.B.B.B.B.B.B.B.B.B.S.B.R.A.j.Q.i.2.=.=.6 7 b.",
"^+!.V /+].Z.) ..'+z r A B 7.1.(+2.z.A.B.B.H.#+_+G.*+%+%+*+G._+#+H.H.#+:+<+U.U.T.F.B.B.B.B.E.F.G.G.#+H.B.@+B.B.B.B.A.z.3.y.[+}+7 ",
"|+1+d , ..:.2+'+'+r `.3+$.1.&.2.i.A.R.B.B.F.T.U.U.%+&+&+%+U.U.$+F.F.$+<+4+G.G.F.E.B.B.B.B.F.T.U.U.T.F.B.B.B.B.S.B.R.A.j.Q.5+[+6 ",
"6+7+8+9+0+..' r.s.a+3+b+%.7.2.z.A.B.B.H.#+c+%+d+d+d+d+d+d+d+d+e+c+*+e+%+*+#+H.B.@+B.B.B.B.#+T.%+]+%+c+G._+G.G.#+H.B.B.S.B.j.3.4 ",
"f+g+, , S S f.r | B $.1.&.2.i.A.R.B.B.#+T.%+]+d+d+d+d+d+d+d+d+&+%+%+&+&+%+$+#+B.B.B.B.B.B.E.F.*+%+&+%+U.U.U.U.T.F.B.B.S.B.j.3.4 ",
"h+9 i+U >+>+j+r k+I -.E *.y.Q.B.B.H.F.c+%+d+d+d+d+d+d+d+d+d+d+d+d+d+d+d+d+%+c+G._+#+H.B.B.B.B.#+T.%+&+d+d+d+d+%+c+F.H.R.C.l+2.2 ",
"O m+>+n+o+p+q+r.s.r+*.E *.3.j.B.S.#+T.%+]+d+d+d+d+d+d+d+d+d+d+d+d+d+d+d+d+&+%+U.U.T.F.B.B.B.B.H.#+c+%+d+s+d+d+]+%+T.#+A.D.t+u+v+",
"Q U n+o+o+q r w+x+y+z+A+2.z.A.B.B.G.U.d+d+d+d+d+d+d+d+d+d+d+d+d+d+d+d+d+d+d+d+d+d+%+c+#+H.B.B.B.B.G.U.d+d+d+d+d+d+U.G.Q.B+1.C+| ",
"D+E+F+p+o+} | G+z+1.&.2.i.A.R.B.B.G.U.d+d+d+d+d+d+d+d+d+d+d+d+d+d+d+d+d+d+d+d+d+d+]+%+T.#+B.B.@+B._+U.d+d+d+d+d+d+U.G.Q.B+k.H+} ",
". I+~.q } a+B b+1.A+2.z.A.B.B.B.B.#+T.%+]+d+d+d+d+d+d+d+d+d+d+d+d+d+d+d+d+d+d+d+d+d+d+%+c+F.H.B.B.#+T.%+]+d+d+d+d+U.G.A.D.u+J+K+",
"L+L+S r | B $.1.&.2.i.A.R.B.B.B.B.H.F.c+%+d+d+d+d+d+d+d+d+d+d+d+d+d+d+d+d+d+d+d+d+d+d+]+%+T.#+B.B.H.F.c+%+d+d+d+d+U.G.R.C.M+N+6 ",
"m m O+<.+.$.P+%.[+D.Q+B.B.B.B.B.B.B.B.#+T.%+&+d+d+d+d+d+d+d+d+d+d+d+d+d+d+d+d+d+d+d+d+d+d+U._+B.@+B.B.#+T.%+]+s+d+U.G.S.B.j.3.2 ",
"N.X R+t @.S+4 2.i.A.R.B.B.B.B.B.B.B.B.H.#+c+%+d+d+d+d+d+d+d+d+d+d+d+d+d+d+d+d+d+d+d+d+d+d+U.G.B.B.B.B.H.#+c+%+d+d+U.G.S.B.j.3.T+",
"^.q } U+}.z+[+V+W+G._+X+Y+Z+Z+`+ @B.S.B.B.G.U.d+d+d+d+d+d+d+d+d+d+d+d+d+d+d+d+d+d+d+d+d+d+%+c+#+H.B.@+@+B.#+T.%+]+U.G.R.C.l+2..@",
"+@r | }.*.[+i.W+@@U.U.#@$@y.y.z.A.B.B.@+B._+U.d+d+d+d+d+d+d+d+d+d+d+d+d+d+d+d+d+d+d+d+d+d+&+%+T.#+B.B.B.B.H.#+*+%+U.G.A.D.t+u+%@",
"( &@*@%.2.V+W+c+%+d+d+=@-@;@>@,@'@Z+Z+Q+ @_+U.d+)@d+d+d+d+d+d+d+d+d+d+d+d+d+d+d+d+d+d+d+d+d+d+%+c+G.G.G.G.#+H.X+!@#@~@j.{@1.]@| ",
"^.+.5 [+i.W+@@%+]+d+d+^@=@/@/@(@_@y.y.D.A.G.U.d+d+d+d+d+d+d+d+d+d+d+d+d+d+d+d+d+d+d+d+d+d+d+d+&+%+U.U.U.U.T.#+Y+$@:@Y+Q.3.<@[@} ",
"y }@4 8.j.G.U.d+d+d+d+d+d+d+d+=@-@;@>@,@|@1@@@U.U.%+&+d+d+d+d+d+d+d+d+d+d+d+d+d+d+d+d+d+d+d+d+d+d+&+%+%+&+%+*+2@3@4@5@l+6@7@8@9@",
",.0@{+8.j._+U.d+d+d+d+d+d+a@a@^@=@/@/@(@_@V+W+_+_+c+%+d+d+d+d+d+d+d+d+d+d+d+d+d+d+d+d+d+d+d+d+d+d+%+*+*+%+]+%+@@W+5@b@t+b+7@8@{ ",
"c@F *.8.j.G.U.d+d+d+d+d+d+d+d+d+d+a@d+/@;@3.Z+B.B.F.T.U.U.%+&+d+d+d+d+&+%+U.U.U.U.U.U.U.U.U.U.%+&+U.G.G.U.&+%+<+4+2@V+d@e@~+f@} ",
";.F *.8.j.G.U.d+d+d+d+d+d+d+d+d+d+a@a@/@;@y.g@@+B.H.#+_+G.c+%+d+d+d+d+%+c+G._+G.G.G.G.G.G._+G.*+%+h@G.G.h@%+*+4+<+@@2@5@i@y.j@| ",
"5 E *.8.j.F.T.%+]+d+d+d+d+d+d+d+d+a@d+/@;@y.Z+B.B.B.B.B.B.F.T.U.U.U.U.T.F.B.B.B.B.B.B.B.B.B.B.F.T.$+F.F.T.T.F.F.T.T.F.j.8.b+k@@.",
"4 F *.3.j.H.F.c+%+d+d+d+d+d+d+d+d+a@d+/@;@3.Z+B.B.B.B.@+B.H.#+G.G.G.G.#+H.B.@+B.B.B.B.B.B.@+B.E.#+#+E.E.#+#+E.E.F.F.E.j.3.7.k@@.",
"3 l@m@2.i.C.R.#+T.%+]+d+d+&+%+U.U.n@o@p@q@r@C.B.B.B.B.B.B.B.B.B.B.B.B.B.B.B.B.B.B.B.B.B.B.B.B.B.B.B.B.s@A.Q..+.+Q.C.R.j.3.1.]@| ",
"3 t@u@v@6@D.C.H.F.c+%+d+d+%+c+_+_+w@x@_@'@A. @B.B.B.B.B.B.B.B.B.B.B.B.B.B.B.B.B.B.B.B.B.B.B.B.B.B.B.B.C.D.8.y.y.8.y@C.j.v.<@[@} ",
"5 2.l+z@=.3.j.B.S.F.T.U.U.T.F.A@C.B@C@D@E@F@F@A.R.B.S.B.B.G@A.F@F@F@F@F@F@A.A@B.B.B.B.B.B.B.B.B.B.B.B.C.D.8.B+y.8.4@5@l+6@T+H@I@",
"2 u+t+7.=.y.Q.B.B.H.#+G.G.F.H.J@D.K@L@M@N@3.O@z.A.B.B.B.B.A.z.3.y.3.3.y.3.z.A.B.B.B.B.B.B.B.B.B.B.B.B.s@A.Q..+j.Q.5@4@t+u+5 P@m+",
".@A+Q@1.m@2.i.A.R.B.B.B.B.S.B.F@O@R@S@T@U@V@W@2.X@Y@F@Z@`@ #.#R@+#R@R@+#R@C@B@C.R.B.B.B.B.B.B.B.B.@+B.E.F.G.@#@#G.2@V+!+b+&.H+y ",
"##Q@6.$#%#v.2.z.A.B.B.B.B.B.B.F@y.+#&#*#=#-#;#C >#O@3.,#'#)#!#&#S@&#&#&#&#M@C@z.A.B.B.B.B.B.B.B.B.B.B.F.T.U.U.U.U.@@W+M+2.~#{#,.",
"`.]#|.2.l+z@=.3.j.B.S.S.B.R.A.B@C@U@^#/#/#(#_#:#<#R@[#}#|#T@(#/#/#/#/#/#/#&#R@7.1#A.R.B.S.B.B.E.F.G.@#4+<+h@h@U.U.T.F.A.D.2.x.c@",
"} [@2#b+t+k@=.y.Q.B.B.B.B.A.z.D@3#T@*#/#/#T@4#5#6#&#&#7#8#9#T@/#0#/#/#a#/#b#+#2#c#z.C.B.B.B.B.F.T.U.U.<+4+G.G.@#G.F.E.R.A.5+[+;.",
"s.d#e#u+Q@1.m@2.i.j.j.j.j.X@2.f#g#T@*#0#0#T@U@U@T@*#h#i#j#k#l#m#n#m#m#o#p#&#q#3 3 2.i.F@F@J@G@r#s#U.U.<+4+@#G.F.E.@+@+E.F.t#u#5 ",
"`.v#w#x#y#$#%#z#2.3.3.3.3.A#B#C#D#U@T@/#/#(#T@h#(#h#U@}#|#E#F#G#H#G#G#I#J#&#K#3 {+C 2.y.3.z.A.E.F.G.@#4+<+U.h@$+#+@+B.F.T.L#M#4 ",
"| O.P.N#O#2.i.u@m@*.*.{+P#Q#R#S#T#U#V#&#&#T@*#*#T@i#j#W#l#X#Y#G#G#G#G#Y#X#l#W#Z#`#:#5#+#R@ $ #.$+$B.B.F.T.U.U.<+4+G.@$#$<+L#M#5 ",
"s.)+u.z@$$u+t+t@1.E E 1.D %$&$U#*$=$f#K#R@U@-$h#U@j#|#l#F#Y#X#m#m#m#m#X#;$F#>$,$Z#5#g#S@&#'$)#)$!$@+B.E.F.G.@#4+<+U.U.<+4+t#~$2 ",
"; r | {$]$v@v.b+7.7.b+^$v@/$R@($_$:$<$<$[$}$,$|$1$2$3$X#Y#4$5$6$5$5$6$5$4$Y#X#E#k#7$T@/#/#/#/#8$9$F@Y@A.A@B.S.F.T.0$a$L#b$i.[+.@",
"/+z r c$d$!+v@k@k@k@k@v@!+/$e$f$g$h$:$i$j$k$U#l$m$n$o$Y#X#5$p#5$4$4$5$p#5$X#Y#F#l#T@(#/#0#0#/#!# $y.p$z.C.@+B.E.F.q$x@M#r$z@s$##",
"^.:.^.r | d$]$b+7.7.b+t$d$u$&$($_$($($v$w$3 3 x$y$z$A$4$5$p#5$B$;$;$B$5$p#m#G#G#m#/#/#/#/#0#/#-$U@C$R@N@B@j.F@j.j.D$E$F$G$]$d$| ",
"p > ].z r H${$k@k@k@k@{$H$I$J$f$g$g$g$K$L$M$N$O$P$2$3$5$p#5$4$;$X#X#;$4$5$m#G#H#n#/#/#/#/#/#/#(#^#&#S@3#C@3.O@3.8.Q$R$S$T${$H$} ",
"` < U$% L+} | +.@.@.+.`.} } `.+.@.@.+.| } V$W$w 3 X$Y$5$p#m#G#G#m#m#G#G#m#J#4$I#o#0#/#*#T@&#&#&#&#&#&#,$Z#k.1.7.b+]$d$@.+.| } : ",
"[ Z$`$ %f.q r s t t s r q q r s t t s r q < .%w 3 +%@%#%o#m#G#G#m#m#G#G#m#6$5$J#6$/#/#T@7$R@K#R@[#[#[#f#$%%%1.k@b+&%c$t <.r q *%",
"=%& -%;%>%,%0 '%b )%< [ d !%~%{%o+  ]%^%# y /%(%f#_%n$G#m#J#4$;$X#X#;$4$J#/#/#*#T@&#&#,$U#3 3 5 2 :%<%[%##+.+.@.+.| } {%}%|%1%[ ",
"9 2%3%4%5%6%7%8%9%0%*%[ D+I+g >+S i + % 2%/%4 a%,$3$o$G#m#p#5$B$;$;$B$J#p#/#/#T@7$R@K#U#b%c%d%e%K f%g%h%y s s t s r q ^+g i%j%]%",
"^%$ # k%l%m%7%n%o%n ).[ p%Q Q {.{.[ * y /%q%f#r%T@m#H#G#m#s%s%5$4$;$X#t%6$*#T@,$U#3 3 T+u%..o ; Z.v%O+].!.w%d I+F+o+o+o+q+x%y%z%",
"A%B%$ C%D%E%F%G%H%Z.R b.- d.< ].].Y ^./%4 f#V#T@*#m#G#G#m#/#s%p#J#X#;$I#J#T@7$U#q%c%d%K s , ].I%> S J%K%[ L%d ~.M%U o+o+N%I+. + ",
"@ * k O%P%Q%R%_ :.; N.:.b.> :.m ; y /%q%f#U@h#/#/#J#S%;$X#m#m#m#m#X#;$I#J#&#K#3 T%c.b.'+; ].< o K%(.< X [ !.Q Q R N.T U ~.d !.L+",
"_ _ V U%Z Y (.- o...N.) : Z.Z.2+, /%4 f#V#T@*#/#/#p#J#V%;$G#G#G#G#;$B$o#6$&#K#3 w p p 2+, ].W%W%f.X%- c.Y !.d < O+Q f.{.{.Q U ].",
": c.]._.Z ; ( :.f.f.Z ..0%Y%/%w *@q%U#U@T@(#T@T@(#/#/#J#S%G#G#H#G#I#5$/#/#&#K#3 w W.0%> m.0+m.d.m.( :.m ^.Z%Q m m m S m.R ].Z ( ",
"^.m : +@( `%:.: : f.:.p )  &4 3 3 f#,$h#*#T@U@7$T@/#/#p#J#m#m#m#m#J#p#/#/#&#R@3 T%.&+&d.S m.@&Z X%Z.b.o.#&$&%&$&> c.0%f.].^.) N.",
"j+:.b.'+{.&&Z {.0%Y%/%w *@:#U#K#R@7$T@/#/#T@7$U@T@/#/#/#/#/#/#(#T@T@(#/#/#T@7$U#q%T%w T%T%*@T%/%Y%Z ; :.2+*&j ; , Z ` Z > N.; > ",
"S (.{.:.R ( b...(  &4 3 3 U#,$&#&#T@*#/#/#(#T@T@(#/#/#/#/#/#/#=&r%7$T@/#/#*#T@,$U#3 3 3 3 3 3 4  &..:.: :.[ d /+Z.-&;&>&:.W$:.o ",
",&m ^.].m ` ; y /%:#f#K#R@7$T@/#/#/#/#/#/#/#/#(#T@T@(#/#/#*#T@|#}#7$T@/#/#/#/#T@7$R@K#R@R@R@R@U#:#T%w *@T%/%Y%0%; 0+/+'&W.0%, )&",
"O d !&* * j * /%4 U#V#&#&#T@*#/#0#/#/#/#/#/#/#T@U@7$T@/#/#T@7$8#|#T@(#/#/#/#/#*#T@&#&#&#&#&#&#,$U#3 3 3 3 4  &:.U%d O S g ~&f F+",
"{&I++ ]&% ^&##/&q#U@T@/#/#/#/#/#/#/#/#/#/#/#/#&#R@R@&#/#/#&#R@R@&#/#/#/#/#/#/#/#/#/#/#/#/#/#/#h#U@[#R@[#[#q#(&##^&+ _&>+~%o+^+q+",
"F+p%]%,%2%/%4 f#V#T@*#/#0#/#/#/#/#/#/#/#/#/#/#&#K#K#&#/#/#&#K#R@&#/#0#/#/#/#/#/#/#/#/#/#/#0#/#*#T@&#&#&#&#V#U#4 /%{%S n+o+o+~%>+",
":&y%z%^%<& &4 R@&#/#/#/#/#/#/#/#/#/#/#/#/#/#/#&#R@R@&#/#/#&#R@R@&#/#/#/#/#/#/#/#/#/#/#/#/#/#/#/#/#/#/#/#/#&#R@4  &[&E+U }&o+~%F+"};
