/* XPM */
static char * wall1_xpm[] = {
"64 64 652 2",
"  	c #627B0E",
". 	c #5F790C",
"+ 	c #5E770B",
"@ 	c #5D760A",
"# 	c #597308",
"$ 	c #5B7408",
"% 	c #5B7508",
"& 	c #5C7509",
"* 	c #5D7508",
"= 	c #5F760A",
"- 	c #61770B",
"; 	c #62790B",
"> 	c #64790C",
", 	c #647B0C",
"' 	c #657A0D",
") 	c #64790B",
"! 	c #748037",
"~ 	c #8B8A71",
"{ 	c #90907C",
"] 	c #979688",
"^ 	c #8C8C75",
"/ 	c #6B7C23",
"( 	c #61790A",
"_ 	c #5E7608",
": 	c #60780A",
"< 	c #60770B",
"[ 	c #5E770A",
"} 	c #364D2C",
"| 	c #273A1F",
"1 	c #101A0B",
"2 	c #020301",
"3 	c #000000",
"4 	c #000100",
"5 	c #010100",
"6 	c #060D04",
"7 	c #26381E",
"8 	c #687F10",
"9 	c #5C750A",
"0 	c #476305",
"a 	c #526D06",
"b 	c #567108",
"c 	c #6A8210",
"d 	c #60790C",
"e 	c #647C0F",
"f 	c #647D0D",
"g 	c #667D0F",
"h 	c #647D0F",
"i 	c #617A0D",
"j 	c #5D7509",
"k 	c #5D7409",
"l 	c #5B7308",
"m 	c #60770A",
"n 	c #61780A",
"o 	c #637A0D",
"p 	c #63780A",
"q 	c #3A542F",
"r 	c #364E2C",
"s 	c #334A2A",
"t 	c #334A29",
"u 	c #293C20",
"v 	c #162210",
"w 	c #0E180A",
"x 	c #1A2814",
"y 	c #304627",
"z 	c #3A5430",
"A 	c #283C20",
"B 	c #122410",
"C 	c #0B1D0B",
"D 	c #0D210D",
"E 	c #0C210C",
"F 	c #0D200D",
"G 	c #0F1F0D",
"H 	c #172512",
"I 	c #11210E",
"J 	c #22331B",
"K 	c #2A3D21",
"L 	c #38512E",
"M 	c #5A740B",
"N 	c #627B0C",
"O 	c #5F780B",
"P 	c #61790C",
"Q 	c #61790B",
"R 	c #647B0D",
"S 	c #637B0D",
"T 	c #647C0D",
"U 	c #5F770A",
"V 	c #5F780A",
"W 	c #5E7709",
"X 	c #5E7508",
"Y 	c #62770A",
"Z 	c #5F7509",
"` 	c #607808",
" .	c #657A0C",
"..	c #1C2B16",
"+.	c #1C2A15",
"@.	c #081006",
"#.	c #081808",
"$.	c #0D220D",
"%.	c #102710",
"&.	c #0C200C",
"*.	c #010401",
"=.	c #030A03",
"-.	c #0D210C",
";.	c #020401",
">.	c #070E05",
",.	c #182613",
"'.	c #587108",
").	c #5E7509",
"!.	c #60780B",
"~.	c #627B0D",
"{.	c #627A0C",
"].	c #62790C",
"^.	c #607709",
"/.	c #5F7609",
"(.	c #607708",
"_.	c #5E7507",
":.	c #62790A",
"<.	c #344B2A",
"[.	c #23361D",
"}.	c #0D1D0B",
"|.	c #071707",
"1.	c #071607",
"2.	c #0A1C0A",
"3.	c #0F250F",
"4.	c #0A1B0A",
"5.	c #0C1609",
"6.	c #091708",
"7.	c #0B1E0B",
"8.	c #122B12",
"9.	c #142E14",
"0.	c #112611",
"a.	c #122A12",
"b.	c #0C1F0C",
"c.	c #152411",
"d.	c #293D21",
"e.	c #63780B",
"f.	c #61780B",
"g.	c #63790D",
"h.	c #60790A",
"i.	c #637A0C",
"j.	c #627708",
"k.	c #64790A",
"l.	c #0D1C0B",
"m.	c #030D03",
"n.	c #010301",
"o.	c #1C3C1C",
"p.	c #214421",
"q.	c #051005",
"r.	c #1D3D1D",
"s.	c #102610",
"t.	c #070D05",
"u.	c #667B0E",
"v.	c #607508",
"w.	c #627A0A",
"x.	c #617508",
"y.	c #617A0A",
"z.	c #3A532F",
"A.	c #354D2B",
"B.	c #2D4324",
"C.	c #1E3319",
"D.	c #112811",
"E.	c #0E230E",
"F.	c #091B09",
"G.	c #183518",
"H.	c #234723",
"I.	c #274F27",
"J.	c #183418",
"K.	c #224722",
"L.	c #265226",
"M.	c #245724",
"N.	c #225922",
"O.	c #265126",
"P.	c #1C2E17",
"Q.	c #39522E",
"R.	c #617609",
"S.	c #617509",
"T.	c #637B0C",
"U.	c #1D3319",
"V.	c #1E3E1D",
"W.	c #153115",
"X.	c #051105",
"Y.	c #204420",
"Z.	c #264D26",
"`.	c #275027",
" +	c #1D631D",
".+	c #186918",
"++	c #687C0D",
"@+	c #677C0D",
"#+	c #5F7708",
"$+	c #63770C",
"%+	c #627709",
"&+	c #273A20",
"*+	c #1F3E1E",
"=+	c #204320",
"-+	c #1E3E1E",
";+	c #112911",
">+	c #245624",
",+	c #274E27",
"'+	c #1D621D",
")+	c #166B16",
"!+	c #126E12",
"~+	c #1E601E",
"{+	c #26391E",
"]+	c #667D0E",
"^+	c #677B0D",
"/+	c #617608",
"(+	c #2C4324",
"_+	c #126F12",
":+	c #040E04",
"<+	c #697F0F",
"[+	c #63770B",
"}+	c #0E220E",
"|+	c #1F601F",
"1+	c #107010",
"2+	c #235923",
"3+	c #205D20",
"4+	c #1B651B",
"5+	c #12230F",
"6+	c #5D760B",
"7+	c #5C740B",
"8+	c #65790C",
"9+	c #132410",
"0+	c #205E20",
"a+	c #0F710F",
"b+	c #506B07",
"c+	c #546F08",
"d+	c #6B810E",
"e+	c #677A0F",
"f+	c #63770A",
"g+	c #273B20",
"h+	c #166A16",
"i+	c #0F700F",
"j+	c #446205",
"k+	c #556F08",
"l+	c #4D6707",
"m+	c #677C0F",
"n+	c #647C0C",
"o+	c #283B20",
"p+	c #677C0E",
"q+	c #657D0F",
"r+	c #667E0F",
"s+	c #667F0F",
"t+	c #657D0E",
"u+	c #162411",
"v+	c #0F240F",
"w+	c #081908",
"x+	c #0F190B",
"y+	c #2F4626",
"z+	c #23381D",
"A+	c #10230F",
"B+	c #102510",
"C+	c #071106",
"D+	c #5E780B",
"E+	c #617B0C",
"F+	c #647D0E",
"G+	c #152712",
"H+	c #091909",
"I+	c #0E190A",
"J+	c #617B0D",
"K+	c #0C1D0B",
"L+	c #25371E",
"M+	c #60780C",
"N+	c #61780C",
"O+	c #091A09",
"P+	c #030B03",
"Q+	c #132D13",
"R+	c #60750A",
"S+	c #010501",
"T+	c #030602",
"U+	c #24371D",
"V+	c #0C1E0C",
"W+	c #234623",
"X+	c #264C26",
"Y+	c #186818",
"Z+	c #1B3A1B",
"`+	c #080F05",
" @	c #607507",
".@	c #152110",
"+@	c #2C4023",
"@@	c #0D1609",
"#@	c #163916",
"$@	c #1F4F1F",
"%@	c #163016",
"&@	c #225422",
"*@	c #165C16",
"=@	c #165D16",
"-@	c #225522",
";@	c #112711",
">@	c #010201",
",@	c #0E1C0B",
"'@	c #1B611B",
")@	c #1A611A",
"!@	c #1E4F1E",
"~@	c #214321",
"{@	c #1D3E1D",
"]@	c #214A21",
"^@	c #134013",
"/@	c #134113",
"(@	c #020501",
"_@	c #1E2E18",
":@	c #101E0D",
"<@	c #040D04",
"[@	c #1F501F",
"}@	c #1E501E",
"|@	c #173817",
"1@	c #1B3B1B",
"2@	c #0E240E",
"3@	c #050B04",
"4@	c #26391F",
"5@	c #717E31",
"6@	c #162F16",
"7@	c #070D04",
"8@	c #0E210E",
"9@	c #1D2E17",
"0@	c #1C3D1C",
"a@	c #051205",
"b@	c #142D14",
"c@	c #153315",
"d@	c #1C3F1C",
"e@	c #1E501F",
"f@	c #1C3E1D",
"g@	c #183618",
"h@	c #254C25",
"i@	c #0F260F",
"j@	c #143314",
"k@	c #193519",
"l@	c #254D26",
"m@	c #223C1C",
"n@	c #252811",
"o@	c #242811",
"p@	c #223B1C",
"q@	c #204421",
"r@	c #254C26",
"s@	c #163116",
"t@	c #23341B",
"u@	c #667A0E",
"v@	c #224723",
"w@	c #252712",
"x@	c #3A2913",
"y@	c #3A2A13",
"z@	c #252912",
"A@	c #0F2710",
"B@	c #1A2914",
"C@	c #153015",
"D@	c #261708",
"E@	c #422A14",
"F@	c #452D16",
"G@	c #34210E",
"H@	c #211808",
"I@	c #111105",
"J@	c #1B3C1C",
"K@	c #1F4421",
"L@	c #264622",
"M@	c #304823",
"N@	c #31401F",
"O@	c #2B2B13",
"P@	c #261608",
"Q@	c #0A1D0A",
"R@	c #111F0D",
"S@	c #152210",
"T@	c #061406",
"U@	c #422B14",
"V@	c #4B3118",
"W@	c #462D16",
"X@	c #392712",
"Y@	c #221C0B",
"Z@	c #0D250F",
"`@	c #262E14",
" #	c #3C371A",
".#	c #45381B",
"+#	c #433017",
"@#	c #040F04",
"##	c #452D15",
"$#	c #4D3319",
"%#	c #442D15",
"&#	c #2C1C0B",
"*#	c #191005",
"=#	c #231507",
"-#	c #271809",
";#	c #2F1E0C",
">#	c #3C2712",
",#	c #4A3118",
"'#	c #1A3A1B",
")#	c #1E2F18",
"!#	c #0D230D",
"~#	c #442C16",
"{#	c #2A1A0A",
"]#	c #241507",
"^#	c #3A2511",
"/#	c #3C2611",
"(#	c #2F1D0C",
"_#	c #34200E",
":#	c #4E3319",
"<#	c #4E3419",
"[#	c #432B14",
"}#	c #0A200C",
"|#	c #0C1B0A",
"1#	c #15260F",
"2#	c #281809",
"3#	c #33210E",
"4#	c #452E16",
"5#	c #3B2612",
"6#	c #2E1D0C",
"7#	c #38220D",
"8#	c #4E3114",
"9#	c #583717",
"0#	c #593717",
"a#	c #563618",
"b#	c #503419",
"c#	c #251608",
"d#	c #225A22",
"e#	c #1C3118",
"f#	c #1B371A",
"g#	c #071507",
"h#	c #14260F",
"i#	c #2B240F",
"j#	c #36220F",
"k#	c #4E3014",
"l#	c #603913",
"m#	c #683D13",
"n#	c #693D13",
"o#	c #623B15",
"p#	c #553617",
"q#	c #251708",
"r#	c #193719",
"s#	c #091C0A",
"t#	c #161406",
"u#	c #3B2611",
"v#	c #2C1B0B",
"w#	c #2B1A0B",
"x#	c #3A2611",
"y#	c #37220D",
"z#	c #5D3916",
"A#	c #653C14",
"B#	c #231508",
"C#	c #160E05",
"D#	c #2A2A13",
"E#	c #314A25",
"F#	c #2B4E27",
"G#	c #235A23",
"H#	c #245824",
"I#	c #132C13",
"J#	c #0B1F0B",
"K#	c #1C1B0A",
"L#	c #29190A",
"M#	c #261709",
"N#	c #221406",
"O#	c #1F1306",
"P#	c #241508",
"Q#	c #643B14",
"R#	c #4F3114",
"S#	c #3B2511",
"T#	c #432F17",
"U#	c #3F4120",
"V#	c #314B25",
"W#	c #235724",
"X#	c #172B14",
"Y#	c #112710",
"Z#	c #102811",
"`#	c #1F1D0B",
" $	c #201206",
".$	c #1F1206",
"+$	c #1C1005",
"@$	c #130903",
"#$	c #402811",
"$$	c #3D230A",
"%$	c #44270B",
"&$	c #523213",
"*$	c #623A15",
"=$	c #553618",
"-$	c #503418",
";$	c #44381B",
">$	c #30401F",
",$	c #166716",
"'$	c #106310",
")$	c #145A14",
"!$	c #1C4C1C",
"~$	c #2A3E22",
"{$	c #172A14",
"]$	c #251709",
"^$	c #211407",
"/$	c #201306",
"($	c #1D1105",
"_$	c #3C2209",
":$	c #56300B",
"<$	c #63380E",
"[$	c #673C11",
"}$	c #0F2610",
"|$	c #1D531D",
"1$	c #104410",
"2$	c #083608",
"3$	c #0D2C0D",
"4$	c #0C1D0C",
"5$	c #102711",
"6$	c #232310",
"7$	c #261809",
"8$	c #140B03",
"9$	c #030200",
"0$	c #371D04",
"a$	c #57300A",
"b$	c #63390E",
"c$	c #673B11",
"d$	c #5D3816",
"e$	c #462E16",
"f$	c #271708",
"g$	c #252812",
"h$	c #0E260E",
"i$	c #011301",
"j$	c #031003",
"k$	c #162813",
"l$	c #2A3F22",
"m$	c #2D3D21",
"n$	c #242311",
"o$	c #1E1D0D",
"p$	c #182210",
"q$	c #14200F",
"r$	c #0F1A0B",
"s$	c #2A1503",
"t$	c #381D04",
"u$	c #0B280B",
"v$	c #042704",
"w$	c #072007",
"x$	c #5E750A",
"y$	c #607909",
"z$	c #677A0C",
"A$	c #2C1907",
"B$	c #4B2E12",
"C$	c #3A2510",
"D$	c #020A02",
"E$	c #030C03",
"F$	c #587008",
"G$	c #395502",
"H$	c #496306",
"I$	c #62760A",
"J$	c #351C05",
"K$	c #59340F",
"L$	c #613A15",
"M$	c #170A03",
"N$	c #020902",
"O$	c #5E7609",
"P$	c #5D770A",
"Q$	c #506B06",
"R$	c #3F5C04",
"S$	c #677F11",
"T$	c #5B750A",
"U$	c #536C05",
"V$	c #6D8210",
"W$	c #637D0F",
"X$	c #677E0F",
"Y$	c #677F0F",
"Z$	c #5E770C",
"`$	c #5B7509",
" %	c #172411",
".%	c #140D05",
"+%	c #44270A",
"@%	c #020502",
"#%	c #030502",
"$%	c #081005",
"%%	c #657E0F",
"&%	c #627D0D",
"*%	c #607B0D",
"=%	c #5A7308",
"-%	c #567007",
";%	c #496405",
">%	c #506B0A",
",%	c #5E790D",
"'%	c #456104",
")%	c #4D6706",
"!%	c #5B760B",
"~%	c #667B0D",
"{%	c #221508",
"]%	c #241608",
"^%	c #171105",
"/%	c #101B0C",
"(%	c #182512",
"_%	c #1D2C16",
":%	c #25361D",
"<%	c #25371D",
"[%	c #293C21",
"}%	c #637D0E",
"|%	c #607A0D",
"1%	c #556F07",
"2%	c #3F5C03",
"3%	c #486506",
"4%	c #496606",
"5%	c #587209",
"6%	c #60790D",
"7%	c #180E05",
"8%	c #33200E",
"9%	c #4C3319",
"0%	c #563617",
"a%	c #21321A",
"b%	c #647A0E",
"c%	c #5E760A",
"d%	c #627C0D",
"e%	c #5F790D",
"f%	c #5D770C",
"g%	c #5C7508",
"h%	c #5A7408",
"i%	c #597207",
"j%	c #506A06",
"k%	c #3C5902",
"l%	c #405E03",
"m%	c #4E6907",
"n%	c #59730A",
"o%	c #61750A",
"p%	c #60770C",
"q%	c #62790D",
"r%	c #5F770C",
"s%	c #637C0F",
"t%	c #647C0E",
"u%	c #5B7409",
"v%	c #5C730A",
"w%	c #567008",
"x%	c #5A7108",
"y%	c #623B14",
"z%	c #0D1709",
"A%	c #60790B",
"B%	c #5C3816",
"C%	c #687B0F",
"D%	c #62770C",
"E%	c #2E4425",
"F%	c #65790D",
"G%	c #637809",
"H%	c #162311",
"I%	c #61760B",
"J%	c #677A0D",
"K%	c #677B0E",
"L%	c #65790B",
"M%	c #62780C",
"N%	c #5F7709",
"O%	c #627B0B",
"P%	c #5E7306",
"Q%	c #442D16",
"R%	c #657A0A",
"S%	c #637B09",
"T%	c #617907",
"U%	c #617A0C",
"V%	c #687C0E",
"W%	c #657C0E",
"X%	c #5F770B",
"Y%	c #677D0D",
"Z%	c #627D0E",
"`%	c #5C760A",
" &	c #2E4325",
".&	c #1A1005",
"+&	c #1C1106",
"@&	c #627A0D",
"#&	c #627C0E",
"$&	c #5A7307",
"%&	c #698011",
"&&	c #667E0E",
"  . + @ # $ % & * = - ; > ; , ' ) ! ~ { ] ^ / ( _ : < [ [ } | 1 2 3 3 3 3 4 5 6 7 } | 1 2 3 3 4 5 6 7 8 9 0 a b c [ d e f g g h ",
"i < + @ j k l = _ m n ) o ; p ) ) q r s t u v w 1 x y z r A B C D E F F F F E D G H G C D E F F E D I J K y L M N O P Q R S T N ",
": U V m W X * Y : p Z ` p R  .p  .} | ..+.@.3 3 3 5 x r | B #.$.%.D &.D D &.D %.&.*.=.$.%.D &.&.D %.-.;.>.,.y '.).< P !.~.{.P ].",
": ^./._ ].- (._.m ; :.q r s t <.s [.}.|.1.2.3.%.%.3.4.5.6.7.E 8.9.%.0.0.0.0.%.9.8.F F a.9.%.%.%.%.9.a.E F b.c.J d.y L e.f.].g.h.",
"^.:.i.; Z ( (.j.k.p i.} | ..+.....l.m.n.n.3.o.p.p.o.3.4 n.q.2.9.r.p.p.p.p.p.p.r.9.E E 9.r.p.p.p.p.r.9.&.E s.C ;.t.,.y ].].f.u.].",
"( ].v.:.w.x.:.Q y.z.A.B.C.D.%.E.F.D 3.s.%.G.H.I.I.H.J.0.s.s.%.G.K.L.M.N.N.M.O.H.J.s.s.G.K.I.I.I.I.H.G.%.s.9.8.E F D P.y Q.' g.R.",
"> S.T.;  .:.p m @ r | U.V.p.p.W.X.3.o.Y.p.K.Z.`.`.Z.K.p.Y.Y.p.H.Z.M. +.+.+ +M.Z.H.Y.Y.K.Z.I.`.`.I.Z.K.p.Y.r.9.&.E s.F ,.y ++:.:.",
"[ @+#+> $+%+> > :.r &+C.*+=+-+;+X.s.Y.I.I.O.>+N.N.N.N.>+O.I.,+,+I.>+'+)+!+)+~+M.L.I.I.I.I.O.>+N.N.M.L.I.I.K.G.%.s.9.8.b.c.{+A.) ",
"]+@+^+' :./+p > p z.A.(+C.a.7.D 2.%.p.I.`.M. +.+.+.+.+ +M.I.I.I.I.L.M.~+)+_+)+ +M.I.I.I.I.M. +.+.+ +M.`.I.Z.K.p.Y.r.9.F.:+6 7 e.",
"<+!.U [+].%+)  ./+z r A B $.}+a.9.J.H.O.M.|+)+1+1+1+1+)+|+N.2+>+O.O.>+3+4+.+.+ +M.I.I.L.M.~+)+1+1+.+2+I.,+I.I.I.I.K.G.%.s.3.5+7 ",
"6+7+d ,  .:.8+/+/+r &+9+#.$.%.9.r.H.Z.>+ +)+_+1+1+1+1+!+)+.+.+'+M.M.'+4+0+N.N.M.L.I.I.>+ +)+_+a+1+.+N.I.I.I.I.`.I.Z.K.p.Y.o.3.6 ",
"b+c+d+e+f+ .' z.A.g+9+E.$.8.9.G.K.O.M.|+)+1+1+1+1+1+1+1+1+1+1+h+|+~+h+)+~+>+O.I.,+,+I.>+ +)+_+i+1+)+|+N.2+N.N.>+O.I.I.`.I.p.%.4 ",
"j+k+, , R R i.r | B #.}+%.9.r.H.Z.M. +)+_+1+1+1+1+1+1+1+1+1+1+!+)+)+!+!+)+'+>+I.I.I.I.L.M.~+)+1+1+!+)+.+.+.+.+ +M.I.I.`.I.p.%.4 ",
"l+9 m+T ]+]+n+r o+G =.F E s.Y.I.I.N..+1+1+1+1+1+1+1+1+1+1+1+1+1+1+1+1+1+1+)+|+N.2+>+O.,+I.>+ +)+_+1+1+1+1+1+1+)+|+M.O.Z.H.o.3.2 ",
"N p+]+q+r+s+t+z.A.u+n.E &.%.p.I.`.N..+1+1+1+1+1+1+1+1+1+1+1+1+1+1+1+1+1+1+!+)+.+.+ +M.I.,+O.>+|+)+1+i+1+1+1+1+_+)+ +>+K.J.v+w+x+",
"P T q+r+r+q r y+z+A+D a.9.G.K.I.I.N..+1+1+1+1+1+1+1+1+1+1+1+1+1+1+1+1+1+1+1+1+1+1+)+|+>+O.,+I.>+ +)+!+1+1+1+1+1+1+.+N.Y.B+3 C+| ",
"D+E+F+s+r+} | G+H+}+%.9.r.K.Z.I.I.N..+1+1+1+1+1+1+1+1+1+1+1+1+1+1+1+1+1+1+1+1+1+1+_+)+ +>+I.,+O.>+|+)+1+1+1+1+1+1+.+N.Y.B+3 I+} ",
". J+~.q } g+B E.$.a.9.G.K.I.I.I.I.>+ +)+_+1+1+1+1+1+1+1+1+1+1+1+1+1+1+1+1+1+1+1+1+1+1+)+|+M.O.I.I.N..+1+1+1+1+1+1+.+N.K.J.v+K+L+",
"M+M+R r | B #.$.%.9.r.K.Z.I.I.I.I.O.M.|+)+1+1+1+1+1+1+1+1+1+1+1+1+1+1+1+1+1+1+1+1+1+1+_+)+ +>+,+,+2+.+1+1+1+1+1+1+.+N.Z.H.o.3.6 ",
"m m N+<...O+P+F Q+G.K.I.`.I.I.I.I.I.I.>+ +)+!+1+1+1+1+1+1+1+1+1+1+1+1+1+1+1+1+1+1+1+1+1+1+.+2+,+,+>+ +)+_+1+1+i+1+.+N.`.I.p.%.2 ",
"T.W R+t +.#.S+3.o.K.Z.I.I.I.I.I.I.I.I.O.>+|+)+1+1+1+1+1+1+1+1+1+1+1+1+1+1+1+1+1+1+1+1+1+1+.+N.I.I.O.M.|+)+1+1+1+1+.+N.`.I.p.%.T+",
"^.q } U+}.V+3.J.W+I.I.X+K.=+=+K.Z.I.`.I.I.N..+1+1+1+1+1+1+1+1+1+1+1+1+1+1+1+1+1+1+1+1+1+1+)+|+>+O.,+,+>+'+Y+.+)+_+.+N.Z.H.Z+E.`+",
" @r | }.m.3.o.K.Z.`.I.K.G.s.s.G.K.I.I.,+I.2+.+1+1+1+1+1+1+1+1+1+1+1+1+1+1+1+1+1+1+1+1+1+1+!+)+ +>+I.,+O.>+2+N.~+)+.+N.K.J.D w+.@",
"( +@@@4.3.#@$@N.2+2+N.$@#@s.B+%@r.=+p.W+Z.2+.+1+a+1+1+1+1+1+1+1+1+1+1+1+1+1+1+1+1+1+1+1+1+1+1+)+|+N.N.N.N.>+O.&@*@=@-@p.;@>@,@| ",
"^...5 v+o.$@'@.+.+.+.+)@!@p.~@{@%@s.%.J.K.N..+1+1+1+1+1+1+1+1+1+1+1+1+1+1+1+1+1+1+1+1+1+1+1+1+!+)+.+.+.+Y+ +>+]@^@/@]@Y.%.(@_@} ",
"y :@<@0.p.N..+1+1+1+1+)+|+2+2+$@#@s.s.%@{@[@'@.+.+)+!+1+1+1+1+1+1+1+1+1+1+1+1+1+1+1+1+1+1+1+1+1+1+!+)+)+!+)+~+}@|@%@r.1@2@3@4@5@",
",.K+F.0.p.2+.+1+a+1+1+!+)+.+.+'@$@p.~@r.%@#@$@2+2+|+)+1+1+1+1+1+1+1+1+1+1+1+1+1+1+1+1+1+1+1+1+1+1+)+~+~+)+_+)+'@$@r.6@a.b.3@4@{ ",
"7@F D 0.p.N..+1+1+1+1+1+1+1+1+)+|+M.O.Y.%.%.Y.I.I.M. +.+.+)+!+1+1+1+1+!+)+.+.+.+.+.+.+.+.+.+.+)+!+.+N.N..+!+)+4+0+}@#@Q+8@(@9@} ",
";.F D 0.p.N..+1+1+1+1+1+1+1+1+_+)+ +M.p.s.s.~@,+I.O.>+2+N.|+)+1+1+1+1+)+|+N.2+N.N.N.N.N.N.2+N.~+)+Y+N.N.Y+)+~+0+4+'@}@0@3.>@,@| ",
"5 F &.0.p.2+.+1+a+1+1+1+1+1+1+a+1+.+2+p.s.s.=+I.I.I.I.I.I.M. +.+.+.+.+ +M.I.I.I.I.I.I.I.I.I.I.M. +'+M.M. + +M.M. + +M.p.0.4 a@+.",
"4 F D 0.p.N..+1+1+1+1+1+1+1+1+1+1+.+N.Y.0.%.Y.I.I.I.I.,+I.O.>+N.N.N.N.>+O.I.,+I.I.I.I.I.I.,+I.L.>+>+L.L.>+>+L.L.M.M.L.p.%.4 a@+.",
"3 }+b@c@d@[@'@.+.+)+!+1+1+!+)+.+.+'@e@f@%@g@H.I.I.I.I.I.I.I.I.I.I.I.I.I.I.I.I.I.I.I.I.I.I.I.I.I.I.I.I.h@K.Y.=+=+Y.H.Z.p.%.>@,@| ",
"3 i@r.d@j@#@$@2+2+|+)+1+1+)+|+2+2+$@#@%@r.K.Z.I.I.I.I.I.I.I.I.I.I.I.I.I.I.I.I.I.I.I.I.I.I.I.I.I.I.I.I.H.J.0.s.s.0.k@H.p.D.(@9@} ",
"5 3.0@r.3.%.p.I.`.M. +.+.+ +M.l@H.m@n@o@p@q@q@K.Z.I.`.I.I.r@K.q@q@q@q@q@q@K.l@I.I.I.I.I.I.I.I.I.I.I.I.K.G.%.s.%.%.s@{@1@2@T+t@u@",
"2 $.Q+b@E.s.~@,+I.O.>+N.N.M.O.v@J.w@x@y@z@%.A@G.K.I.I.I.I.K.G.%.s.%.%.s.%.G.K.I.I.I.I.I.I.I.I.I.I.I.I.h@K.Y.=+p.Y.r.%@a.E 5 B@p+",
"`+b.2.E.b@C@r.K.Z.I.I.I.I.`.I.q@A@D@E@F@G@H@I@3.J@K@q@L@M@N@O@D@P@D@D@P@D@n@m@H.Z.I.I.I.I.I.I.I.I.I.I.I.I.I.I.I.I.K.G.9.a.Q@R@y ",
"S@2.T@3.0@r.C@G.K.I.I.I.I.I.I.q@s.P@U@V@W@X@Y@4.Z@A@%.`@ #.#+#U@E@U@U@U@U@x@n@G.K.I.I.I.I.I.I.I.I.I.I.I.I.I.I.`.I.Z.K.r.9.s.b.,.",
"&+I @#3.0@0@3.%.p.I.`.`.I.Z.K.m@n@G@##$#$#%#&#*#=#D@-#;#>#F@,#$#$#$#$#$#$#U@D@&.'#K.Z.I.`.I.I.I.I.L.M.>+L.I.,+I.I.I.I.K.G.Q+$.7@",
"} )#<@D Q+b@!#s.Y.I.I.I.I.K.G.o@y@F@V@$#$#~#{#]#^#U@U@/#(#_#F@$#:#$#$#<#$#[#P@<@}#G.H.I.I.I.I.I.I.M. + +M.I.I.I.I.I.I.Z.K.o.3.;.",
"A.[.|#$.2.E.b@C@r.p.p.p.p.J@1#2#/#F@V@:#$#F@3#G@F@V@4#5#6#7#8#9#0#9#9#a#b#U@c#3 3 3.o.q@q@K.r@I.I.N..+)+~+d#N.M.L.I.,+I.I.p.%.5 ",
"&+e#f#C@g#3.0@{@C@%.%.%.%.h#i#j#(#G@F@$#$#,#F@4#,#4#G@;#>#k#l#m#n#m#m#o#p#U@q#3 >@4.3.s.%.G.K.I.I.N..+!+)+.+.+ +M.I.I.`.I.p.%.4 ",
"| U.V.r#|.3.o.r.b@D &.s#T@t#G@u#v#w#x#F@V@:#:#V@F@5#6#y#8#z#A#m#m#m#m#A#z#8#y#B#C#*#]#P@D@D#N@E#F#M. +.+.+.+.+4+0+d#G#H#L.p.%.5 ",
"A.(+C.I#J#$.Q+i@E.E E A@v+K#L#M#N#O#P#3#F@$#:#4#G@6#>#8#l#A#z#9#9#9#9#z#Q#l#R#u#B#]#S#E@U@T#.#U#V#L.W#N.N.N.N.0+4+.+.+ +M.p.0.2 ",
"; r | X#Y#;+D.D &.&.D Z#;+`#D@ $.$+$@$M#x#U@U@#$$$%$&$z#A#*$=$-$=$=$-$=$*$A#z#k#7#3#F@$#$#$#$#;$>$q@K@K.l@I.`.M. +,$'$)$!$1@E.`+",
"[+z r ~${$a.;+E E E E ;+a.`#]$^$/$.$+$($P#q#D@_$:$<$[$A#z#=$b#=$*$*$=$b#=$z#A#l#8#F@,#$#:#:#$#+#D#s.}$J.H.,+I.L.M.|$1$2$3$3.4$S@",
"^.:.^.r | {$Y#D &.&.D 5${$6$7$ $.$ $ $8$9$3 3 0$a$b$c$*$=$b#=$d$Q#Q#d$=$b#9#m#m#9#$#$#$#$#:#$#e$G@f$D@g$m@p.q@p.p.1@h$i$j$H+k$| ",
"p > ].z r l$X#E E E E X#l$m$n$^$/$/$/$o$p$q$r$s$t$%$&$=$b#=$*$Q#z#z#Q#*$=$9#m#n#0#$#$#$#$#$#$#,###U@E@y@n@%.A@%.0.3.u$v$w$k$l$} ",
"Z < x$% M+} | ..+.+...&+} } &+..+.+...| } y$z$w 3 A$B$=$b#9#m#m#9#9#m#m#9#p#*$o#a#:#$#V@F@U@U@U@U@U@U@C$=#n.D$E$m.H+k$+...| } : ",
"[ F$G$H$i.q r s t t s r q q r s t t s r q < I$w 3 J$K$L$a#9#m#m#9#9#m#m#9#-$=$p#-$$#$#F@3#D@q#D@-#-#-#=#M$N$1.F.4.k$~$t <.r q O$",
"P$& Q$R$S$T$0 U$b V$< [ d W$X$Y$r+  Z$`$# y  %.%P#+%<$m#9#p#*$Q#z#z#Q#*$p#$#$#V@F@U@U@u#B#3 3 5 2 @%#%$%S@....+...| } Y$%%&%*%[ ",
"9 =%-%;%>%,%'%)%!%~%O$[ D+J+g ]+R i + % =% %4 {%u#&$[$m#9#b#=$d$Q#Q#d$p#b#$#$#F@3#D@q#]%^%/%(%_%J :%<%[%y s s t s r q <+g }%|%Z$",
"`$$ # 1%2%3%'%4%5%n ).[ 6%P P {.{.[ * y  %7%P#8%F@9#n#m#9#9%9%=$*$Q#z#0%-$V@F@u#]%3 3 T+a% .o ; %+b%N+].!.c%d J+F+r+r+r+t+d%e%f%",
"g%h%$ i%j%k%l%m%n%%+Q e.- g.< ].].X ^. %4 P#x#F@V@9#m#m#9#$#9%b#p#z#Q#o#p#F@3#]%7%/%(%J s , ].o%> R p%q%[ r%d ~.s%T r+r+t%J+. + ",
"@ * k u%v%w%x%_ :.; T.:.e.> :.m ; y  %7%P#G@4#$#$#p#y%Q#z#9#9#9#9#z#Q#o#p#U@q#3 z%f.e./+; ].< o q%(.< W [ !.P P Q T.S T ~.d !.M+",
"_ _ U A%Y X (.- w. .T.) : %+%+8+,  %4 P#x#F@V@$#$#b#p#B%Q#m#m#m#m#Q#d$a#-$U@q#3 w p p 8+, ].C%C%i.D%- f.X !.d < N+P i.{.{.P T ].",
": f.]._.Y ; ( :.i.i.Y  .~%E% %w @@7%]%G@F@,#F@F@,#$#$#p#y%m#m#n#m#o#=$$#$#U@q#3 w @+~%> u.f+u.g.u.( :.m ^.F%P m m m R u.Q ].Y ( ",
"^.m :  @( G%:.: : i.:.p ) H%4 3 3 P#u#4#V@F@G@3#F@$#$#b#p#9#9#9#9#p#b#$#$#U@D@3 z%I%J%g.R u.K%Y D%%+e.w.L%M%N%M%> f.~%i.].^.) T.",
"n+:.e./+{.O%Y {.~%E% %w @@*#]%q#D@3#F@$#$#F@3#G@F@$#$#$#$#$#$#,#F@F@,#$#$#F@3#]%7%z%w z%z%@@z% %E%Y ; :.8+P%j ; , Y Z Y > T.; > ",
"R (.{.:.Q ( e. .( H%4 3 3 ]%u#U@U@F@V@$#$#,#F@F@,#$#$#$#$#$#$#Q%8%3#F@$#$#V@F@u#]%3 3 3 3 3 3 4 H% .:.: :.[ d [+%+R%S%T%:.z$:.o ",
"U%m ^.].m Z ; y  %*#P#q#D@3#F@$#$#$#$#$#$#$#$#,#F@F@,#$#$#V@F@>#;#3#F@$#$#$#$#F@3#D@q#D@D@D@D@]%*#z%w @@z% %E%~%; f+[+V%@+~%, W%",
"N d X%* * j *  %4 ]%x#U@U@F@V@$#:#$#$#$#$#$#$#F@G@3#F@$#$#F@3#(#>#F@,#$#$#$#$#V@F@U@U@U@U@U@U@u#]%3 3 3 3 4 H%:.A%d N R g Y%f F+",
"Z%J++ `%%  &S@.&c#G@F@$#$#$#$#$#$#$#$#$#$#$#$#U@D@D@U@$#$#U@D@D@U@$#$#$#$#$#$#$#$#$#$#$#$#$#$#4#G@-#D@-#-#c#+&S@ &+ @&]+X$r+<+t+",
"F+6%Z$T$=% %4 P#x#F@V@$#:#$#$#$#$#$#$#$#$#$#$#U@q#q#U@$#$#U@q#D@U@$#:#$#$#$#$#$#$#$#$#$#$#:#$#V@F@U@U@U@U@x#]%4  %Y$R q+r+r+X$]+",
"#&e%f%`$$&H%4 D@U@$#$#$#$#$#$#$#$#$#$#$#$#$#$#U@D@D@U@$#$#U@D@D@U@$#$#$#$#$#$#$#$#$#$#$#$#$#$#$#$#$#$#$#$#U@D@4 H%%&E+T &&r+X$F+"};
