/* XPM */
static char * wall7_xpm[] = {
"64 64 663 2",
"  	c #627B0E",
". 	c #5F790C",
"+ 	c #5E770B",
"@ 	c #5D760A",
"# 	c #597308",
"$ 	c #5B7408",
"% 	c #5B7508",
"& 	c #5C7509",
"* 	c #5D7508",
"= 	c #5F760A",
"- 	c #61770B",
"; 	c #62790B",
"> 	c #64790C",
", 	c #647B0C",
"' 	c #657A0D",
") 	c #64790B",
"! 	c #748037",
"~ 	c #8B8A71",
"{ 	c #90907C",
"] 	c #979688",
"^ 	c #8C8C75",
"/ 	c #6B7C23",
"( 	c #61790A",
"_ 	c #5E7608",
": 	c #60780A",
"< 	c #60770B",
"[ 	c #5E770A",
"} 	c #364D2C",
"| 	c #273A1F",
"1 	c #101A0B",
"2 	c #020301",
"3 	c #000000",
"4 	c #000100",
"5 	c #010100",
"6 	c #060D04",
"7 	c #26381E",
"8 	c #687F10",
"9 	c #5C750A",
"0 	c #476305",
"a 	c #526D06",
"b 	c #567108",
"c 	c #6A8210",
"d 	c #60790C",
"e 	c #647C0F",
"f 	c #647D0D",
"g 	c #667D0F",
"h 	c #647D0F",
"i 	c #617A0D",
"j 	c #5D7509",
"k 	c #5D7409",
"l 	c #5B7308",
"m 	c #60770A",
"n 	c #61780A",
"o 	c #637A0D",
"p 	c #63780A",
"q 	c #3A542F",
"r 	c #364E2C",
"s 	c #334A2A",
"t 	c #334A29",
"u 	c #293C20",
"v 	c #162210",
"w 	c #0E180A",
"x 	c #1A2814",
"y 	c #304627",
"z 	c #3A5430",
"A 	c #283C20",
"B 	c #142611",
"C 	c #0D220D",
"D 	c #0F250F",
"E 	c #102710",
"F 	c #112611",
"G 	c #0E240E",
"H 	c #0F1E0C",
"I 	c #172612",
"J 	c #11230F",
"K 	c #0F240F",
"L 	c #11210E",
"M 	c #22331B",
"N 	c #2A3D21",
"O 	c #38512E",
"P 	c #5A740B",
"Q 	c #627B0C",
"R 	c #5F780B",
"S 	c #61790C",
"T 	c #61790B",
"U 	c #647B0D",
"V 	c #637B0D",
"W 	c #647C0D",
"X 	c #5F770A",
"Y 	c #5F780A",
"Z 	c #5E7709",
"` 	c #5E7508",
" .	c #62770A",
"..	c #5F7509",
"+.	c #607808",
"@.	c #657A0C",
"#.	c #1C2B16",
"$.	c #1C2A15",
"%.	c #081006",
"&.	c #102610",
"*.	c #132D13",
"=.	c #1C3C1C",
"-.	c #214421",
";.	c #1B3B1B",
">.	c #030D03",
",.	c #0A1B09",
"'.	c #1C3D1C",
").	c #1C3B1C",
"!.	c #020401",
"~.	c #070E05",
"{.	c #182613",
"].	c #587108",
"^.	c #5E7509",
"/.	c #60780B",
"(.	c #627B0D",
"_.	c #627A0C",
":.	c #62790C",
"<.	c #607709",
"[.	c #5F7609",
"}.	c #607708",
"|.	c #5E7507",
"1.	c #62790A",
"2.	c #344B2A",
"3.	c #24371D",
"4.	c #10220E",
"5.	c #0D210D",
"6.	c #0C210C",
"7.	c #091909",
"8.	c #0D190A",
"9.	c #0D1F0C",
"0.	c #122A12",
"a.	c #142E14",
"b.	c #183518",
"c.	c #224722",
"d.	c #265226",
"e.	c #245724",
"f.	c #225922",
"g.	c #183418",
"h.	c #234723",
"i.	c #091A09",
"j.	c #071607",
"k.	c #14220F",
"l.	c #293D21",
"m.	c #63780B",
"n.	c #61780B",
"o.	c #63790D",
"p.	c #60790A",
"q.	c #637A0C",
"r.	c #627708",
"s.	c #64790A",
"t.	c #0C200C",
"u.	c #091B09",
"v.	c #1D3D1D",
"w.	c #264D26",
"x.	c #1D631D",
"y.	c #186918",
"z.	c #204420",
"A.	c #010401",
"B.	c #010301",
"C.	c #070D05",
"D.	c #667B0E",
"E.	c #607508",
"F.	c #627A0A",
"G.	c #617508",
"H.	c #617A0A",
"I.	c #3A532F",
"J.	c #354D2B",
"K.	c #2D4324",
"L.	c #1E3319",
"M.	c #112811",
"N.	c #0E230E",
"O.	c #122B12",
"P.	c #274F27",
"Q.	c #0F700F",
"R.	c #107010",
"S.	c #274E27",
"T.	c #265126",
"U.	c #245624",
"V.	c #1E601E",
"W.	c #166B16",
"X.	c #0B1E0B",
"Y.	c #0B1D0B",
"Z.	c #1C2E17",
"`.	c #39522E",
" +	c #617609",
".+	c #617509",
"++	c #637B0C",
"@+	c #1D3319",
"#+	c #1E3E1D",
"$+	c #142D14",
"%+	c #275027",
"&+	c #0F710F",
"*+	c #126F12",
"=+	c #081808",
"-+	c #0B1D0A",
";+	c #687C0D",
">+	c #677C0D",
",+	c #5F7708",
"'+	c #63770C",
")+	c #627709",
"!+	c #273A20",
"~+	c #1F3E1E",
"{+	c #214521",
"]+	c #224522",
"^+	c #153015",
"/+	c #1F601F",
"(+	c #235923",
"_+	c #0B1C0A",
":+	c #152511",
"<+	c #26391E",
"[+	c #667D0E",
"}+	c #677B0D",
"|+	c #617608",
"1+	c #2C4324",
"2+	c #152F15",
"3+	c #186818",
"4+	c #1D621D",
"5+	c #126E12",
"6+	c #697F0F",
"7+	c #63770B",
"8+	c #0A1D0A",
"9+	c #5D760B",
"0+	c #5C740B",
"a+	c #65790C",
"b+	c #142711",
"c+	c #506B07",
"d+	c #546F08",
"e+	c #6B810E",
"f+	c #677A0F",
"g+	c #63770A",
"h+	c #273B20",
"i+	c #142712",
"j+	c #446205",
"k+	c #556F08",
"l+	c #030C03",
"m+	c #4D6707",
"n+	c #677C0F",
"o+	c #647C0C",
"p+	c #283B20",
"q+	c #11230E",
"r+	c #030A03",
"s+	c #677C0E",
"t+	c #657D0F",
"u+	c #667E0F",
"v+	c #667F0F",
"w+	c #657D0E",
"x+	c #162512",
"y+	c #040D04",
"z+	c #061506",
"A+	c #0F190B",
"B+	c #2F4626",
"C+	c #243A1E",
"D+	c #132812",
"E+	c #091507",
"F+	c #5E780B",
"G+	c #617B0C",
"H+	c #647D0E",
"I+	c #172A13",
"J+	c #112711",
"K+	c #0F1A0B",
"L+	c #617B0D",
"M+	c #091708",
"N+	c #25371E",
"O+	c #60780C",
"P+	c #61780C",
"Q+	c #0D200D",
"R+	c #081908",
"S+	c #60750A",
"T+	c #030602",
"U+	c #24381D",
"V+	c #1B651B",
"W+	c #205E20",
"X+	c #225422",
"Y+	c #165C16",
"Z+	c #165D16",
"`+	c #225522",
" @	c #0A1B0A",
".@	c #0A1C0A",
"+@	c #0C1F0C",
"@@	c #080F05",
"#@	c #607507",
"$@	c #214A21",
"%@	c #134013",
"&@	c #134113",
"*@	c #061406",
"=@	c #152110",
"-@	c #2C4023",
";@	c #0D1609",
">@	c #1E501E",
",@	c #173817",
"'@	c #163016",
")@	c #0F260F",
"!@	c #040F04",
"~@	c #1B611B",
"{@	c #1F4F1F",
"]@	c #162F16",
"^@	c #1E2F18",
"/@	c #101D0C",
"(@	c #040E04",
"_@	c #122912",
":@	c #234623",
"<@	c #264C26",
"[@	c #204320",
"}@	c #1C661C",
"|@	c #1F501F",
"1@	c #163916",
"2@	c #0D250D",
"3@	c #050B04",
"4@	c #26391F",
"5@	c #717E31",
"6@	c #0A1A09",
"7@	c #070D04",
"8@	c #102510",
"9@	c #156715",
"0@	c #106310",
"a@	c #135A13",
"b@	c #1C4C1C",
"c@	c #1C4D1C",
"d@	c #0F230F",
"e@	c #1A611A",
"f@	c #1E4F1E",
"g@	c #214321",
"h@	c #1D3E1D",
"i@	c #1D521D",
"j@	c #104410",
"k@	c #083508",
"l@	c #0E2C0E",
"m@	c #0D2C0D",
"n@	c #083608",
"o@	c #214B21",
"p@	c #010501",
"q@	c #163116",
"r@	c #051105",
"s@	c #224622",
"t@	c #225A22",
"u@	c #132B13",
"v@	c #0D230D",
"w@	c #020802",
"x@	c #235A23",
"y@	c #254C26",
"z@	c #204421",
"A@	c #254D26",
"B@	c #23341B",
"C@	c #667A0E",
"D@	c #166A16",
"E@	c #1A2914",
"F@	c #1C3E1D",
"G@	c #1B3C1C",
"H@	c #1F4421",
"I@	c #264622",
"J@	c #304823",
"K@	c #31401F",
"L@	c #2B2B13",
"M@	c #261708",
"N@	c #261608",
"O@	c #252811",
"P@	c #223C1C",
"Q@	c #0F1B0B",
"R@	c #152210",
"S@	c #0F1B09",
"T@	c #0F2710",
"U@	c #262E14",
"V@	c #3C371A",
"W@	c #45381B",
"X@	c #433017",
"Y@	c #422B14",
"Z@	c #422A14",
"`@	c #3A2913",
" #	c #010201",
".#	c #071507",
"+#	c #122410",
"@#	c #242912",
"##	c #223B1C",
"$#	c #241507",
"%#	c #1D1105",
"&#	c #191005",
"*#	c #271809",
"=#	c #2F1E0C",
"-#	c #3C2712",
";#	c #452D16",
">#	c #4A3118",
",#	c #4D3319",
"'#	c #1A3A1B",
")#	c #051A05",
"!#	c #050F04",
"~#	c #224723",
"{#	c #252712",
"]#	c #392A13",
"^#	c #252912",
"/#	c #3B2511",
"(#	c #251508",
"_#	c #3C2611",
":#	c #2F1D0C",
"<#	c #34200E",
"[#	c #4E3319",
"}#	c #4E3419",
"|#	c #432B14",
"1#	c #0A200C",
"2#	c #000600",
"3#	c #032103",
"4#	c #23361D",
"5#	c #0C1B0A",
"6#	c #112911",
"7#	c #34210E",
"8#	c #4B3118",
"9#	c #452E16",
"0#	c #3B2612",
"a#	c #2E1D0C",
"b#	c #38220D",
"c#	c #4E3114",
"d#	c #583717",
"e#	c #593717",
"f#	c #563618",
"g#	c #503419",
"h#	c #251608",
"i#	c #021902",
"j#	c #042604",
"k#	c #1C3118",
"l#	c #1B371A",
"m#	c #193819",
"n#	c #462D16",
"o#	c #452D15",
"p#	c #4E3014",
"q#	c #603913",
"r#	c #683D13",
"s#	c #693D13",
"t#	c #623B15",
"u#	c #553617",
"v#	c #251708",
"w#	c #0F2E0F",
"x#	c #123812",
"y#	c #0C290C",
"z#	c #37220D",
"A#	c #5D3916",
"B#	c #653C14",
"C#	c #231508",
"D#	c #160E05",
"E#	c #252812",
"F#	c #000700",
"G#	c #123712",
"H#	c #1C3E1C",
"I#	c #0E280E",
"J#	c #242811",
"K#	c #3A2A13",
"L#	c #643B14",
"M#	c #4F3114",
"N#	c #3B2611",
"O#	c #102B10",
"P#	c #0F340F",
"Q#	c #072B07",
"R#	c #0B280B",
"S#	c #122F12",
"T#	c #0D260D",
"U#	c #172B14",
"V#	c #112710",
"W#	c #1C3D1D",
"X#	c #24210D",
"Y#	c #3A2511",
"Z#	c #402811",
"`#	c #3D230A",
" $	c #44270B",
".$	c #523213",
"+$	c #623A15",
"@$	c #553618",
"#$	c #503418",
"$$	c #33210E",
"%$	c #241508",
"&$	c #1C401C",
"*$	c #0F370F",
"=$	c #062C06",
"-$	c #0A260A",
";$	c #102810",
">$	c #2A3E22",
",$	c #172A14",
"'$	c #132C13",
")$	c #132E14",
"!$	c #201F0C",
"~$	c #2A1A0B",
"{$	c #3C2209",
"]$	c #56300B",
"^$	c #63380E",
"/$	c #673C11",
"($	c #462E16",
"_$	c #231306",
":$	c #241909",
"<$	c #161808",
"[$	c #061607",
"}$	c #0F220F",
"|$	c #123112",
"1$	c #0D350D",
"2$	c #062E06",
"3$	c #0A250A",
"4$	c #0E200E",
"5$	c #102711",
"6$	c #232310",
"7$	c #261809",
"8$	c #201206",
"9$	c #1F1206",
"0$	c #1B0F05",
"a$	c #0C0602",
"b$	c #371D04",
"c$	c #57300A",
"d$	c #63390E",
"e$	c #673B11",
"f$	c #5D3816",
"g$	c #3A2611",
"h$	c #100702",
"i$	c #301E0C",
"j$	c #0C210D",
"k$	c #102A10",
"l$	c #0D310D",
"m$	c #2A3F22",
"n$	c #2D3D21",
"o$	c #242311",
"p$	c #211407",
"q$	c #201306",
"r$	c #201E0D",
"s$	c #1A2210",
"t$	c #14200F",
"u$	c #2A1503",
"v$	c #381D04",
"w$	c #1E1106",
"x$	c #231507",
"y$	c #2A1B0B",
"z$	c #211E0C",
"A$	c #102C10",
"B$	c #0D330D",
"C$	c #5E750A",
"D$	c #607909",
"E$	c #677A0C",
"F$	c #2C1907",
"G$	c #4B2E12",
"H$	c #241608",
"I$	c #0D0602",
"J$	c #1E1206",
"K$	c #587008",
"L$	c #395502",
"M$	c #496306",
"N$	c #62760A",
"O$	c #351C05",
"P$	c #59340F",
"Q$	c #613A15",
"R$	c #1B1005",
"S$	c #190E04",
"T$	c #211307",
"U$	c #150803",
"V$	c #182A14",
"W$	c #5E7609",
"X$	c #5D770A",
"Y$	c #506B06",
"Z$	c #3F5C04",
"`$	c #677F11",
" %	c #5B750A",
".%	c #536C05",
"+%	c #6D8210",
"@%	c #637D0F",
"#%	c #677E0F",
"$%	c #677F0F",
"%%	c #5E770C",
"&%	c #5B7509",
"*%	c #172411",
"=%	c #140D05",
"-%	c #44270A",
";%	c #020100",
">%	c #010000",
",%	c #020502",
"'%	c #030502",
")%	c #081005",
"!%	c #657E0F",
"~%	c #627D0D",
"{%	c #607B0D",
"]%	c #5A7308",
"^%	c #567007",
"/%	c #496405",
"(%	c #506B0A",
"_%	c #5E790D",
":%	c #456104",
"<%	c #4D6706",
"[%	c #5B760B",
"}%	c #667B0D",
"|%	c #221508",
"1%	c #1A0F05",
"2%	c #140B03",
"3%	c #0F0C04",
"4%	c #101B0C",
"5%	c #182512",
"6%	c #1D2C16",
"7%	c #25361D",
"8%	c #25371D",
"9%	c #293C21",
"0%	c #637D0E",
"a%	c #607A0D",
"b%	c #556F07",
"c%	c #3F5C03",
"d%	c #486506",
"e%	c #496606",
"f%	c #587209",
"g%	c #60790D",
"h%	c #180E05",
"i%	c #33200E",
"j%	c #4C3319",
"k%	c #563617",
"l%	c #21321A",
"m%	c #647A0E",
"n%	c #5E760A",
"o%	c #627C0D",
"p%	c #5F790D",
"q%	c #5D770C",
"r%	c #5C7508",
"s%	c #5A7408",
"t%	c #597207",
"u%	c #506A06",
"v%	c #3C5902",
"w%	c #405E03",
"x%	c #4E6907",
"y%	c #59730A",
"z%	c #61750A",
"A%	c #60770C",
"B%	c #62790D",
"C%	c #5F770C",
"D%	c #637C0F",
"E%	c #647C0E",
"F%	c #5B7409",
"G%	c #5C730A",
"H%	c #567008",
"I%	c #5A7108",
"J%	c #623B14",
"K%	c #0D1709",
"L%	c #60790B",
"M%	c #5C3816",
"N%	c #687B0F",
"O%	c #62770C",
"P%	c #2E4425",
"Q%	c #65790D",
"R%	c #637809",
"S%	c #162311",
"T%	c #61760B",
"U%	c #677A0D",
"V%	c #677B0E",
"W%	c #65790B",
"X%	c #62780C",
"Y%	c #5F7709",
"Z%	c #627B0B",
"`%	c #5E7306",
" &	c #442D16",
".&	c #657A0A",
"+&	c #637B09",
"@&	c #617907",
"#&	c #617A0C",
"$&	c #687C0E",
"%&	c #657C0E",
"&&	c #5F770B",
"*&	c #677D0D",
"=&	c #627D0E",
"-&	c #5C760A",
";&	c #2E4325",
">&	c #1A1005",
",&	c #1C1106",
"'&	c #627A0D",
")&	c #627C0E",
"!&	c #5A7307",
"~&	c #698011",
"{&	c #667E0E",
"  . + @ # $ % & * = - ; > ; , ' ) ! ~ { ] ^ / ( _ : < [ [ } | 1 2 3 3 3 3 4 5 6 7 } | 1 2 3 3 4 5 6 7 8 9 0 a b c [ d e f g g h ",
"i < + @ j k l = _ m n ) o ; p ) ) q r s t u v w 1 x y z r A B C D E F F F F E G H I J C D E F F E K L M N y O P Q R S T U V W Q ",
": X Y m Z ` *  .: p ..+.p U @.p @.} | #.$.%.3 3 3 5 x r | B &.*.=.-.-.-.-.-.-.;.C >.,.*.'.-.-.-.-.).K !.~.{.y ].^.< S /.(._.S :.",
": <.[._ :.- }.|.m ; 1.q r s t 2.s 3.4.5.6.C D E E G 7.8.9.0.a.b.c.d.e.f.f.e.d.c.b.&.&.g.h.d.e.e.d.h.g.G i.j.k.M l.y O m.n.:.o.p.",
"<.1.q.; ..( }.r.s.p q.} | #.$.#.#.4.&.5.t.*.'.-.-.;.C >.u.a.v.h.w.e.x.y.y.x.e.w.h.z.z.h.w.e.x.x.e.w.h.;.C A.B.!.C.{.y :.:.n.D.:.",
"( :.E.1.F.G.1.T H.I.J.K.L.M.E D N.O.a.&.F g.h.P.P.h.g.&.&.b.c.P.P.f.y.Q.R.y.f.P.S.S.P.T.U.V.W.W.V.e.T.c.b.E &.D X.Y.Z.y `.' o. +",
"> .+++; @.1.p m @ r | @+#+-.-.'.$+a.v.z.-.c.w.%+%+w.c.z.z.c.w.P.P.f.y.&+&+y.f.P.P.P.P.e.x.W.*+*+W.x.e.w.h.-.z.=.E =+-+{.y ;+1.1.",
"[ >+,+> '+)+> > 1.r !+L.~+{+]+v.^+g.h.T.e.f.f.f.f.f.f.U.T.P.S.S.P.U.x.W.*+y.f.d.U.f.f./+W.R.R.R.R.y.(+P.S.P.P.c.b.E N._+:+<+J.) ",
"[+>+}+' 1.|+p > p I.J.1+L.2+2+^+v.h.w.e.x.y.y.y.y.y.y.x.e.P.P.P.P.T.e.V.W.3+f.e.4+y.y.W.5+R.R.R.R.y.f.P.P.%+P.w.c.=.E =+i.6 7 m.",
"6+/.X 7+:.)+) @.|+z r A B 0.a.g.h.T.e./+W.R.R.R.R.R.R.W./+f.(+f.f.U.T.e.x.4+e.U.4+W.*+R.R.R.R.R.R.W./+f.(+U.T.P.P.c.b.E K 8+L 7 ",
"9+0+d , @.1.a+|+|+r !+b+&.$+v.h.w.e.x.W.*+R.R.R.R.R.R.5+W.y.y.y.y.x.U.d.U.U.d.d.e.V.W.R.R.R.R.R.R.5+W.y.y.x.e.P.P.w.c.=.E =+8+6 ",
"c+d+e+f+g+@.' I.J.h+i+O.a.b.c.T.e./+W.R.R.R.R.R.R.R.R.R.R.R.R.R.R.W./+U.T.P.S.S.P.U.x.W.*+R.R.R.R.R.R.R.R.W./+e.T.P.P.-.E >.u.4 ",
"j+k+, , U U q.r | B &.a.v.h.w.e.x.W.*+R.R.R.R.R.R.R.R.R.R.R.R.R.R.*+W.x.U.P.P.P.P.T.U./+W.R.R.R.R.R.R.R.R.*+W.x.U.%+P.-.E l+u.4 ",
"m+9 n+W [+[+o+r p+q+u.&.z.P.P.f.y.R.R.R.R.R.R.R.R.R.R.R.R.R.R.R.R.R.R.W./+f.(+U.T.S.P.U.x.W.*+R.R.R.R.R.R.R.R.y.f.P.P.-.E r+i.2 ",
"Q s+[+t+u+v+w+I.J.x+y+E -.P.%+f.y.R.R.R.R.R.R.R.R.R.R.R.R.R.R.R.R.R.R.5+W.y.y.x.e.P.S.T.U./+W.R.R.R.R.R.R.R.R.y.f.P.P.-.E A.z+A+",
"S W t+u+u+q r B+C+D+&.b.h.S.P.(+y.R.R.R.R.R.R.R.R.R.R.R.R.R.R.R.R.R.R.R.R.R.R.W./+U.T.S.P.U.x.W.5+R.R.R.R.R.R.y.f.P.P.-.E 4 E+| ",
"F+G+H+v+u+} | I+J+$+'.c.w.P.P.f.y.R.R.R.R.R.R.R.R.R.R.R.R.R.R.R.R.R.R.R.R.R.R.*+W.x.U.P.S.T.U./+W.R.R.R.R.R.R.y.f.P.P.-.E 3 K+} ",
". L+(.q } h+B O.a.b.c.d.e.(+f./+W.R.R.R.R.R.R.R.R.R.R.R.R.R.R.R.R.R.R.R.R.R.R.R.R.W./+e.T.P.P.f.y.R.Q.R.R.Q.R.y.f.%+P.-.E A.M+N+",
"O+O+U r | B &.$+v.h.w.e.x.y.y.W.5+R.R.R.R.R.R.R.R.R.R.R.R.R.R.R.R.R.R.R.R.R.R.R.R.*+W.x.U.S.S.(+y.R.R.R.R.R.R.y.f.P.P.-.E r+i.6 ",
"m m P+2.#.Q+6.&.z.P.P.f.y.R.&+R.R.R.R.R.R.R.R.R.R.R.R.R.R.R.R.R.R.R.R.R.R.R.R.R.R.R.R.y.(+S.S.f.y.5+W.3+3+W.*+y.f.w.h.=.E R+Y.2 ",
"++Z S+t $.6.t.E -.P.%+f.y.R.&+R.R.R.R.R.R.R.R.R.R.R.R.R.R.R.R.R.R.R.R.R.R.R.R.R.R.R.R.y.f.P.P.f.y.W.V.(+(+V.W.y.f.c.g.E K K t.T+",
"<.q } U+4.O.a.b.c.P.P.e.x.y.y.W.5+R.R.R.R.R.R.R.R.R.R.R.R.R.R.R.R.R.R.R.R.R.R.R.R.R.R.W./+U.T.U.4+V+W+U.T.X+Y+Z+`+-.J+l+ @.@+@@@",
"#@r | 4.&.a.v.c.w.P.P.d.e.(+f./+W.R.R.R.R.R.R.R.R.R.R.R.R.R.R.R.R.R.R.R.R.R.R.R.R.R.R.5+W.x.U.d.U.W+V+x.U.$@%@&@$@z.E >..@*@.@=@",
"( -@;@5.5.&.z.P.P.P.P.P.P.P.P.U.x.W.*+R.R.R.R.R.R.R.R.R.R.R.R.R.R.R.R.R.R.R.R.R.R.R.R.R.R.W./+(+(+V.W.W.V.>@,@'@v.;.)@R+X.!@L | ",
"<.#.5 6.t.E -.P.%+P.P.P.P.S.P.T.U./+W.R.R.R.R.R.R.R.R.R.R.R.R.R.R.R.R.R.R.R.R.R.R.R.R.R.R.5+W.3+3+W.5+*+W.~@{@v.]@D 5.N.t.y+^@} ",
"y /@(@t._@g.:@P.P.<@c.[@[@c.w.P.%+e.x.y.y.W.5+R.R.R.R.R.R.R.R.R.R.R.R.R.R.R.R.R.R.R.R.R.R.R.R.R.R.R.R.*+W.}@W+|@1@)@2@5.X.3@4@5@",
"{.6@*@)@).c.w.P.P.c.b.&.&.b.c.P.P.T.U.(+f./+W.R.R.R.R.R.R.R.R.R.R.R.R.R.R.R.R.R.R.R.R.R.R.R.R.R.R.Q.R.W.V.W+V+~@>@;.)@=+.@3@4@{ ",
"7@Y.)@1@{@f.(+(+f.{@1@&.8@'@v.[@-.c.w.P.P.e.x.y.y.W.5+R.R.R.R.R.R.R.R.5+W.y.y.y.y.y.y.y.y.y.y.y.y.9@0@a@b@c@a@Z+`+-.J+r+7.y+^@} ",
"!.d@).{@~@y.y.y.y.e@f@-.g@h@'@&.E b.h.S.P.T.U.(+f./+W.R.R.R.R.R.R.R.R.W./+f.(+f.f.f.f.f.f.f.f.(+f.i@j@k@l@m@n@&@o@-.M.p@=+!@L | ",
"5 F -.f.y.R.R.R.R.W./+(+(+{@1@&.&.'@h@c.w.P.P.P.P.e.x.y.y.y.y.y.y.y.y.x.e.P.P.P.P.P.P.P.P.P.P.P.P.h.g.F 8@&.E q@h@=.)@r@u.l+u.$.",
"4 F -.(+y.R.&+R.R.5+W.y.y.~@{@-.g@v.'@b.c.P.P.S.P.T.U.f.f.f.f.f.f.f.f.U.T.P.S.P.P.P.P.P.P.P.P.P.P.<@s@g@[@-.g@v.'@D &.q@K l+u.$.",
"3 F -.f.y.R.R.R.R.R.R.R.R.W./+e.T.z.E E z.P.%+P.P.P.P.P.P.P.P.P.P.P.P.P.P.P.P.P.P.P.P.P.P.P.P.d.e.f.t@f.f.e.T.h.g.D 5.u@v@!@L | ",
"3 F -.f.y.R.R.R.R.R.R.R.R.*+W.x.e.-.&.&.[@P.P.P.P.P.P.P.P.P.P.P.P.P.P.P.P.P.P.P.P.P.P.P.P.P.P.e.x.y.y.y.y.x.e.w.s@=.D w@=+y+^@} ",
"5 F -.e.x.W.*+R.R.R.R.5+W.W.5+y.x@-.&.E -.<@h.c.<@P.%+P.P.y@c.z@z@z@z@z@z@c.A@P.P.P.P.P.P.P.P.e.x.y.y.W.5+W./+e.T.h.g.D  @T+B@C@",
"2 E -.T.e./+W.R.R.R.R.D@/+V.W.y.f.z.F M.z.c.b.b.c.P.P.P.P.c.b.E &.E E &.E b.c.P.P.P.P.P.P.P.P.d.e.f.t@V.W.*+W.x.e.w.h.=.D 5 E@s+",
"@@D '.h.w.e.x.y.y.y.y.4+e.e.x.~@>@F@'@q@F@G@)@D G@H@z@I@J@K@L@M@N@M@M@N@M@O@P@h.w.P.P.P.P.P.P.P.P.P.P.U.x.W.*+W.V.e.d.-.E 4 Q@y ",
"R@C *.g.h.T.e.f.f.f.f.U.T.d.U.{@1@q@v.h@q@D S@ @D T@E U@V@W@X@Y@Z@Y@Y@Y@Y@`@O@b.c.P.P.P.P.P.P.P.P.S.P.T.U./+W.*+W.x.e.-.F  #.#{.",
"!++#u.E -.P.%+P.P.P.P.P.P.A@c.P@O@@###P@@#$#%#&#$#M@*#=#-#;#>#,#,#,#,#,#,#Y@M@t.'#c.w.P.%+P.P.P.P.P.P.P.P.e.x.y.y.x.e.-.F A.)#7@",
"} ^@!#&.z.P.P.P.P.P.P.P.P.~#g.{#`@]#^#^#]#/#(#$#/#Y@Y@_#:#<#;#,#[#,#,#}#,#|#N@y+1#b.h.P.P.P.P.P.P.P.P.P.P.T.U.f.f.e.d.-.E 2#3#!.",
"J.4#5#6#'.c.w.P.P.P.P.%+P.z@T@M@Z@;#7#7#;#;#7#7#;#8#9#0#a#b#c#d#e#d#d#f#g#Y@h#3 3 D =.z@z@z@z@z@z@c.A@P.%+%+P.w.c.-.z.=.)@i#j#5 ",
"!+k#l#m#2+b.c.P.P.P.P.P.P.z@&.N@Y@8#n#o#8#>#;#9#>#9#7#=#-#p#q#r#s#r#r#t#u#Y@v#3  # @D E E E E &.E b.c.P.P.P.P.h.g.F &.)@w#x#y#4 ",
"| @+#+'.D E -.P.%+%+P.w.c.P@O@7#n#,#[#,#,#[#,#8#;#0#a#z#c#A#B#r#r#r#r#B#A#c#z#C#D#&#$#M@M@M@M@N@*#E#P@-.z@-.-.=.)@F#F#i#G#H#I#5 ",
"J.1+L.$+v@&.z.P.P.P.P.c.b.J#K#;#8#,#,#,#,#,#,#9#7#a#-#c#q#B#A#d#d#d#d#A#L#q#M#N#C#$#/#Y@Y@Y@Y@Y@Y@K#O@E T@E E )@O#P#Q#j#R#S#T#2 ",
"; r | U#V#a.v.-.-.-.-.W#a.X#Y#Y@Y@Y@Y@Y@Y@Y@Y@Z#`# $.$A#B#+$@$#$@$@$#$@$+$B#A#p#b#$$;#,#,#,#,#8#;#N#%$5 B.B.B.r@q@&$*$=$-$;$Q+@@",
"7+z r >$,$'$a.E E E E )$O.!$~$*#M@M@M@M@M@v#M@{$]$^$/$B#A#@$g#@$+$+$@$g#@$A#B#q#c#;#>#,#[#[#,#($7#h#_$:$<$j.[$u.}$|$1$2$3$J+4$R@",
"<.1.<.r | ,$V#5.t.t.5.5$,$6$7$8$9$8$8$0$a$3 3 b$c$d$e$+$@$g#@$f$L#L#f$@$g#d#r#r#d#,#,#[#,#8#;#g$%$h$i$g$X#5.j$t.5.k$l$=$-$V#,$| ",
"p > :.z r m$U#6.6.6.6.U#m$n$o$p$q$q$q$r$s$t$K+u$v$ $.$@$g#@$+$L#A#A#L#+$@$d#r#s#e#,#,#,#,#;#$$%$w$0$x$y$z$6.j$6.Q+A$B$2$3$U#m$} ",
"..< C$% O+} | #.$.$.#.!+} } !+#.$.$.#.| } D$E$w 3 F$G$@$g#d#r#r#d#d#r#r#d#u#+$t#f#8#;#Y@Y@g$H$I$J$9$q$M@9$>.u.t.5.V#,$$.#.| } : ",
"[ K$L$M$q.q r s t t s r q q r s t t s r q < N$w 3 O$P$Q$f#d#r#r#d#d#r#r#d##$@$@$#$;#$$M@v#%$R$S$J$T$p$8$U$l+u.6.5.V$>$t 2.r q W$",
"X$& Y$Z$`$ %0 .%b +%< [ d @%#%$%u+  %%&%# y *%=%%$-%^$r#d#u#+$L#A#A#L#+$u#,#,#8#;#N#%$;%>%3 3 5 2 ,%'%)%R@#.#.$.#.| } $%!%~%{%[ ",
"9 ]%^%/%(%_%:%<%[%}%W$[ F+L+g [+U i + % ]%*%4 |%N#.$/$r#d#g#@$f$L#L#f$u#g#,#,#;#$$H$1%2%3%4%5%6%M 7%8%9%y s s t s r q 6+g 0%a%%%",
"&%$ # b%c%d%:%e%f%n ^.[ g%S S _._.[ * y *%h%%$i%;#d#s#r#d#j%j%@$+$L#A#k%#$8#;#N#H$3 3 T+l%@.o ; )+m%P+:./.n%d L+H+u+u+u+w+o%p%q%",
"r%s%$ t%u%v%w%x%y%)+T m.- o.< :.:.` <.*%4 %$g$;#8#d#r#r#d#,#j%g#u#A#L#t#u#;#$$%$h%4%5%M s , :.z%> U A%B%[ C%d (.D%W u+u+E%L+. + ",
"@ * k F%G%H%I%_ 1.; ++1.m.> 1.m ; y *%h%%$7#9#,#,#u#J%L#A#d#d#d#d#A#L#t#u#Y@v#3 K%n.m.|+; :.< o B%}.< Z [ /.S S T ++V W (.d /.O+",
"_ _ X L% .` }.- F.@.++) : )+)+a+, *%4 %$g$;#8#,#,#g#u#M%L#r#r#r#r#L#f$f##$Y@v#3 w p p a+, :.N%N%q.O%- n.` /.d < P+S q._._.S W :.",
": n.:.|. .; ( 1.q.q. .@.}%P%*%w ;@h%H$7#;#>#;#;#>#,#,#u#J%r#r#s#r#t#@$,#,#Y@v#3 w >+}%> D.g+D.o.D.( 1.m <.Q%S m m m U D.T :. .( ",
"<.m : #@( R%1.: : q.1.p ) S%4 3 3 %$N#9#8#;#7#$$;#,#,#g#u#d#d#d#d#u#g#,#,#Y@M@3 K%T%U%o.U D.V% .O%)+m.F.W%X%Y%X%> n.}%q.:.<.) ++",
"o+1.m.|+_.Z% ._.}%P%*%w ;@&#H$v#M@$$;#,#,#;#$$7#;#,#,#,#,#,#,#>#;#;#>#,#,#;#$$H$h%K%w K%K%;@K%*%P% .; 1.a+`%j ; ,  ... .> ++; > ",
"U }._.1.T ( m.@.( S%4 3 3 H$N#Y@Y@;#8#,#,#>#;#;#>#,#,#,#,#,#,# &i%$$;#,#,#8#;#N#H$3 3 3 3 3 3 4 S%@.1.: 1.[ d 7+)+.&+&@&1.E$1.o ",
"#&m <.:.m ..; y *%&#%$v#M@$$;#,#,#,#,#,#,#,#,#>#;#;#>#,#,#8#;#-#=#$$;#,#,#,#,#;#$$M@v#M@M@M@M@H$&#K%w ;@K%*%P%}%; g+7+$&>+}%, %&",
"Q d &&* * j * *%4 H$g$Y@Y@;#8#,#[#,#,#,#,#,#,#;#7#$$;#,#,#;#$$:#-#;#>#,#,#,#,#8#;#Y@Y@Y@Y@Y@Y@N#H$3 3 3 3 4 S%1.L%d Q U g *&f H+",
"=&L++ -&% ;&R@>&h#7#;#,#,#,#,#,#,#,#,#,#,#,#,#Y@M@M@Y@,#,#Y@M@M@Y@,#,#,#,#,#,#,#,#,#,#,#,#,#,#9#7#*#M@*#*#h#,&R@;&+ '&[+#%u+6+w+",
"H+g%%% %]%*%4 %$g$;#8#,#[#,#,#,#,#,#,#,#,#,#,#Y@v#v#Y@,#,#Y@v#M@Y@,#[#,#,#,#,#,#,#,#,#,#,#[#,#8#;#Y@Y@Y@Y@g$H$4 *%$%U t+u+u+#%[+",
")&p%q%&%!&S%4 M@Y@,#,#,#,#,#,#,#,#,#,#,#,#,#,#Y@M@M@Y@,#,#Y@M@M@Y@,#,#,#,#,#,#,#,#,#,#,#,#,#,#,#,#,#,#,#,#Y@M@4 S%~&G+W {&u+#%H+"};
