/* XPM */
static char * wall2_xpm[] = {
"64 64 643 2",
"  	c #627B0E",
". 	c #5F790C",
"+ 	c #5E770B",
"@ 	c #5D760A",
"# 	c #597308",
"$ 	c #5B7408",
"% 	c #5B7508",
"& 	c #5C7509",
"* 	c #5D7508",
"= 	c #5F760A",
"- 	c #61770B",
"; 	c #62790B",
"> 	c #64790C",
", 	c #647B0C",
"' 	c #657A0D",
") 	c #64790B",
"! 	c #748037",
"~ 	c #8B8A71",
"{ 	c #90907C",
"] 	c #979688",
"^ 	c #8C8C75",
"/ 	c #6B7C23",
"( 	c #61790A",
"_ 	c #5E7608",
": 	c #60780A",
"< 	c #60770B",
"[ 	c #5E770A",
"} 	c #364D2C",
"| 	c #273A1F",
"1 	c #101A0B",
"2 	c #020301",
"3 	c #000000",
"4 	c #000100",
"5 	c #010100",
"6 	c #060D04",
"7 	c #26381E",
"8 	c #687F10",
"9 	c #5C750A",
"0 	c #476305",
"a 	c #526D06",
"b 	c #567108",
"c 	c #6A8210",
"d 	c #60790C",
"e 	c #647C0F",
"f 	c #647D0D",
"g 	c #667D0F",
"h 	c #647D0F",
"i 	c #617A0D",
"j 	c #5D7509",
"k 	c #5D7409",
"l 	c #5B7308",
"m 	c #60770A",
"n 	c #61780A",
"o 	c #637A0D",
"p 	c #63780A",
"q 	c #3A542F",
"r 	c #364E2C",
"s 	c #334A2A",
"t 	c #334A29",
"u 	c #293C20",
"v 	c #162210",
"w 	c #0E180A",
"x 	c #1A2814",
"y 	c #304627",
"z 	c #3A5430",
"A 	c #283C20",
"B 	c #122410",
"C 	c #0A1C0A",
"D 	c #0A1D0A",
"E 	c #091B09",
"F 	c #0A1A0A",
"G 	c #0A1B0A",
"H 	c #0E1E0C",
"I 	c #172512",
"J 	c #0F1F0D",
"K 	c #10200E",
"L 	c #22331B",
"M 	c #2A3D21",
"N 	c #38512E",
"O 	c #5A740B",
"P 	c #627B0C",
"Q 	c #5F780B",
"R 	c #61790C",
"S 	c #61790B",
"T 	c #647B0D",
"U 	c #637B0D",
"V 	c #647C0D",
"W 	c #5F770A",
"X 	c #5F780A",
"Y 	c #5E7709",
"Z 	c #5E7508",
"` 	c #62770A",
" .	c #5F7509",
"..	c #607808",
"+.	c #657A0C",
"@.	c #1C2B16",
"#.	c #1C2A15",
"$.	c #081006",
"%.	c #081808",
"&.	c #0B1E0B",
"*.	c #030D03",
"=.	c #030C03",
"-.	c #010401",
";.	c #030A03",
">.	c #020401",
",.	c #070E05",
"'.	c #182613",
").	c #587108",
"!.	c #5E7509",
"~.	c #60780B",
"{.	c #627B0D",
"].	c #627A0C",
"^.	c #62790C",
"/.	c #607709",
"(.	c #5F7609",
"_.	c #607708",
":.	c #5E7507",
"<.	c #62790A",
"[.	c #344B2A",
"}.	c #23361C",
"|.	c #0C1B0A",
"1.	c #051305",
"2.	c #051205",
"3.	c #0F250F",
"4.	c #102710",
"5.	c #0B1608",
"6.	c #081407",
"7.	c #081908",
"8.	c #0F240F",
"9.	c #112611",
"0.	c #152411",
"a.	c #293D21",
"b.	c #63780B",
"c.	c #61780B",
"d.	c #63790D",
"e.	c #60790A",
"f.	c #637A0C",
"g.	c #627708",
"h.	c #64790A",
"i.	c #0C1A0A",
"j.	c #020602",
"k.	c #1C3C1C",
"l.	c #214421",
"m.	c #010501",
"n.	c #071707",
"o.	c #091909",
"p.	c #070D05",
"q.	c #667B0E",
"r.	c #607508",
"s.	c #627A0A",
"t.	c #617508",
"u.	c #617A0A",
"v.	c #3A532F",
"w.	c #354D2B",
"x.	c #2D4324",
"y.	c #1E3319",
"z.	c #112811",
"A.	c #0D210D",
"B.	c #0C1F0C",
"C.	c #102610",
"D.	c #183518",
"E.	c #224722",
"F.	c #274F27",
"G.	c #265226",
"H.	c #245724",
"I.	c #225922",
"J.	c #265126",
"K.	c #234723",
"L.	c #183418",
"M.	c #0B1D0B",
"N.	c #1C2E17",
"O.	c #39522E",
"P.	c #617609",
"Q.	c #617509",
"R.	c #637B0C",
"S.	c #1D3319",
"T.	c #1E3E1D",
"U.	c #122C12",
"V.	c #020802",
"W.	c #204420",
"X.	c #264D26",
"Y.	c #275027",
"Z.	c #1D631D",
"`.	c #186918",
" +	c #687C0D",
".+	c #677C0D",
"++	c #5F7708",
"@+	c #63770C",
"#+	c #627709",
"$+	c #273A20",
"%+	c #1F3E1E",
"&+	c #204320",
"*+	c #1E3E1E",
"=+	c #0E230E",
"-+	c #274E27",
";+	c #245624",
">+	c #1D621D",
",+	c #166B16",
"'+	c #126E12",
")+	c #1E601E",
"!+	c #26391E",
"~+	c #667D0E",
"{+	c #677B0D",
"]+	c #617608",
"^+	c #2C4324",
"/+	c #122A12",
"(+	c #020902",
"_+	c #126F12",
":+	c #040F04",
"<+	c #697F0F",
"[+	c #63770B",
"}+	c #205D20",
"|+	c #1B651B",
"1+	c #0D200D",
"2+	c #0D210C",
"3+	c #11220F",
"4+	c #5D760B",
"5+	c #5C740B",
"6+	c #65790C",
"7+	c #132410",
"8+	c #205E20",
"9+	c #132D13",
"0+	c #506B07",
"a+	c #546F08",
"b+	c #6B810E",
"c+	c #677A0F",
"d+	c #63770A",
"e+	c #273B20",
"f+	c #0D220D",
"g+	c #1F601F",
"h+	c #107010",
"i+	c #166A16",
"j+	c #0F700F",
"k+	c #446205",
"l+	c #556F08",
"m+	c #4D6707",
"n+	c #677C0F",
"o+	c #647C0C",
"p+	c #283B20",
"q+	c #235923",
"r+	c #677C0E",
"s+	c #657D0F",
"t+	c #667E0F",
"u+	c #667F0F",
"v+	c #657D0E",
"w+	c #162411",
"x+	c #010301",
"y+	c #0F190B",
"z+	c #2F4626",
"A+	c #23381D",
"B+	c #10220E",
"C+	c #1B3A1B",
"D+	c #10240F",
"E+	c #5E780B",
"F+	c #617B0C",
"G+	c #647D0E",
"H+	c #152712",
"I+	c #111F0D",
"J+	c #617B0D",
"K+	c #102510",
"L+	c #0B1909",
"M+	c #25371E",
"N+	c #60780C",
"O+	c #61780C",
"P+	c #60750A",
"Q+	c #061506",
"R+	c #010201",
"S+	c #1C3D1C",
"T+	c #030602",
"U+	c #24371D",
"V+	c #234623",
"W+	c #264C26",
"X+	c #186818",
"Y+	c #080F05",
"Z+	c #607507",
"`+	c #152110",
" @	c #2C4023",
".@	c #0D1609",
"+@	c #091A09",
"@@	c #163916",
"#@	c #1F4F1F",
"$@	c #163016",
"%@	c #1D3D1D",
"&@	c #0F710F",
"*@	c #142812",
"=@	c #1B611B",
"-@	c #1A611A",
";@	c #1E4F1E",
">@	c #214321",
",@	c #1D3E1D",
"'@	c #0E220D",
")@	c #1F3019",
"!@	c #0F1C0C",
"~@	c #1F501F",
"{@	c #050B04",
"]@	c #26391F",
"^@	c #717E31",
"/@	c #070D04",
"(@	c #1E3018",
"_@	c #0C1E0C",
":@	c #1E501F",
"<@	c #1C3E1D",
"[@	c #183618",
"}@	c #254C25",
"|@	c #193719",
"1@	c #153115",
"2@	c #102810",
"3@	c #254D26",
"4@	c #223C1C",
"5@	c #252811",
"6@	c #242811",
"7@	c #223B1C",
"8@	c #204421",
"9@	c #254C26",
"0@	c #0C200C",
"a@	c #1B391B",
"b@	c #23341B",
"c@	c #667A0E",
"d@	c #040E04",
"e@	c #224723",
"f@	c #252712",
"g@	c #3A2913",
"h@	c #3A2A13",
"i@	c #252912",
"j@	c #0F2710",
"k@	c #1A2914",
"l@	c #0B1F0B",
"m@	c #261708",
"n@	c #422A14",
"o@	c #452D16",
"p@	c #34210E",
"q@	c #211206",
"r@	c #110A03",
"s@	c #1B3C1C",
"t@	c #1F4421",
"u@	c #264622",
"v@	c #304823",
"w@	c #31401F",
"x@	c #2B2B13",
"y@	c #261608",
"z@	c #163116",
"A@	c #1C3B1C",
"B@	c #051105",
"C@	c #101D0D",
"D@	c #152210",
"E@	c #061406",
"F@	c #0F230F",
"G@	c #422B14",
"H@	c #4B3118",
"I@	c #462D16",
"J@	c #3E2813",
"K@	c #2A1D0C",
"L@	c #0D250F",
"M@	c #262E14",
"N@	c #3C371A",
"O@	c #45381B",
"P@	c #433017",
"Q@	c #122B12",
"R@	c #0C1E0B",
"S@	c #11210E",
"T@	c #173417",
"U@	c #452D15",
"V@	c #4D3319",
"W@	c #493018",
"X@	c #32210E",
"Y@	c #191005",
"Z@	c #231507",
"`@	c #271809",
" #	c #2F1E0C",
".#	c #3C2712",
"+#	c #4A3118",
"@#	c #1A3A1B",
"##	c #142D14",
"$#	c #1E2F18",
"%#	c #040D04",
"&#	c #2B1B0B",
"*#	c #241507",
"=#	c #3A2511",
"-#	c #3C2611",
";#	c #2F1D0C",
">#	c #34200E",
",#	c #4E3319",
"'#	c #4E3419",
")#	c #432B14",
"!#	c #0A200C",
"~#	c #142E14",
"{#	c #23361D",
"]#	c #10250F",
"^#	c #251608",
"/#	c #3B2511",
"(#	c #452E16",
"_#	c #3B2612",
":#	c #2E1D0C",
"<#	c #38220D",
"[#	c #4E3114",
"}#	c #583717",
"|#	c #593717",
"1#	c #563618",
"2#	c #503419",
"3#	c #214A21",
"4#	c #124012",
"5#	c #0D3A0D",
"6#	c #0A290A",
"7#	c #1C3118",
"8#	c #1B371A",
"9#	c #153015",
"0#	c #071507",
"a#	c #163216",
"b#	c #20200D",
"c#	c #2B1A0A",
"d#	c #271709",
"e#	c #4E3014",
"f#	c #603913",
"g#	c #683D13",
"h#	c #693D13",
"i#	c #623B15",
"j#	c #553617",
"k#	c #251708",
"l#	c #225522",
"m#	c #165D16",
"n#	c #0C550C",
"o#	c #063506",
"p#	c #020A03",
"q#	c #0C0A03",
"r#	c #35220F",
"s#	c #1C1005",
"t#	c #261709",
"u#	c #3A2611",
"v#	c #37220D",
"w#	c #5D3916",
"x#	c #653C14",
"y#	c #231508",
"z#	c #160E05",
"A#	c #213C1C",
"B#	c #135A13",
"C#	c #083608",
"D#	c #132C13",
"E#	c #0C210C",
"F#	c #191708",
"G#	c #1E1105",
"H#	c #1D1105",
"I#	c #241508",
"J#	c #462E16",
"K#	c #643B14",
"L#	c #4F3114",
"M#	c #3B2611",
"N#	c #1D4D1D",
"O#	c #0E2D0E",
"P#	c #172B14",
"Q#	c #112710",
"R#	c #112911",
"S#	c #102811",
"T#	c #1F1D0B",
"U#	c #201206",
"V#	c #1F1206",
"W#	c #180D04",
"X#	c #0A0401",
"Y#	c #100702",
"Z#	c #1B0F05",
"`#	c #402811",
" $	c #3D230A",
".$	c #44270B",
"+$	c #523213",
"@$	c #623A15",
"#$	c #553618",
"$$	c #503418",
"%$	c #33210E",
"&$	c #204321",
"*$	c #1A611B",
"=$	c #107110",
"-$	c #196919",
";$	c #235A23",
">$	c #2A3E22",
",$	c #172A14",
"'$	c #251709",
")$	c #211407",
"!$	c #201306",
"~$	c #190D04",
"{$	c #190E04",
"]$	c #1E1106",
"^$	c #1F1306",
"/$	c #241608",
"($	c #3C2209",
"_$	c #56300B",
":$	c #63380E",
"<$	c #673C11",
"[$	c #0F2610",
"}$	c #225A22",
"|$	c #102711",
"1$	c #232310",
"2$	c #261809",
"3$	c #140B03",
"4$	c #030200",
"5$	c #371D04",
"6$	c #57300A",
"7$	c #63390E",
"8$	c #673B11",
"9$	c #5D3816",
"0$	c #271708",
"a$	c #166716",
"b$	c #106310",
"c$	c #145A14",
"d$	c #1C4C1C",
"e$	c #192D15",
"f$	c #2A3F22",
"g$	c #2D3D21",
"h$	c #242311",
"i$	c #1E1D0D",
"j$	c #182210",
"k$	c #14200F",
"l$	c #0F1A0B",
"m$	c #2A1503",
"n$	c #381D04",
"o$	c #1D521D",
"p$	c #104410",
"q$	c #0D2C0D",
"r$	c #5E750A",
"s$	c #607909",
"t$	c #677A0C",
"u$	c #2C1907",
"v$	c #4B2E12",
"w$	c #382410",
"x$	c #587008",
"y$	c #395502",
"z$	c #496306",
"A$	c #62760A",
"B$	c #351C05",
"C$	c #59340F",
"D$	c #613A15",
"E$	c #100602",
"F$	c #112711",
"G$	c #5E7609",
"H$	c #5D770A",
"I$	c #506B06",
"J$	c #3F5C04",
"K$	c #677F11",
"L$	c #5B750A",
"M$	c #536C05",
"N$	c #6D8210",
"O$	c #637D0F",
"P$	c #677E0F",
"Q$	c #677F0F",
"R$	c #5E770C",
"S$	c #5B7509",
"T$	c #172411",
"U$	c #140D05",
"V$	c #44270A",
"W$	c #020502",
"X$	c #030502",
"Y$	c #081005",
"Z$	c #657E0F",
"`$	c #627D0D",
" %	c #607B0D",
".%	c #5A7308",
"+%	c #567007",
"@%	c #496405",
"#%	c #506B0A",
"$%	c #5E790D",
"%%	c #456104",
"&%	c #4D6706",
"*%	c #5B760B",
"=%	c #667B0D",
"-%	c #221508",
";%	c #191106",
">%	c #101B0C",
",%	c #182512",
"'%	c #1D2C16",
")%	c #25361D",
"!%	c #25371D",
"~%	c #293C21",
"{%	c #637D0E",
"]%	c #607A0D",
"^%	c #556F07",
"/%	c #3F5C03",
"(%	c #486506",
"_%	c #496606",
":%	c #587209",
"<%	c #60790D",
"[%	c #180E05",
"}%	c #33200E",
"|%	c #4C3319",
"1%	c #563617",
"2%	c #21321A",
"3%	c #647A0E",
"4%	c #5E760A",
"5%	c #627C0D",
"6%	c #5F790D",
"7%	c #5D770C",
"8%	c #5C7508",
"9%	c #5A7408",
"0%	c #597207",
"a%	c #506A06",
"b%	c #3C5902",
"c%	c #405E03",
"d%	c #4E6907",
"e%	c #59730A",
"f%	c #61750A",
"g%	c #60770C",
"h%	c #62790D",
"i%	c #5F770C",
"j%	c #637C0F",
"k%	c #647C0E",
"l%	c #5B7409",
"m%	c #5C730A",
"n%	c #567008",
"o%	c #5A7108",
"p%	c #623B14",
"q%	c #0D1709",
"r%	c #60790B",
"s%	c #5C3816",
"t%	c #687B0F",
"u%	c #62770C",
"v%	c #2E4425",
"w%	c #65790D",
"x%	c #637809",
"y%	c #162311",
"z%	c #61760B",
"A%	c #677A0D",
"B%	c #677B0E",
"C%	c #65790B",
"D%	c #62780C",
"E%	c #5F7709",
"F%	c #627B0B",
"G%	c #5E7306",
"H%	c #442D16",
"I%	c #657A0A",
"J%	c #637B09",
"K%	c #617907",
"L%	c #617A0C",
"M%	c #687C0E",
"N%	c #657C0E",
"O%	c #5F770B",
"P%	c #677D0D",
"Q%	c #627D0E",
"R%	c #5C760A",
"S%	c #2E4325",
"T%	c #1A1005",
"U%	c #1C1106",
"V%	c #627A0D",
"W%	c #627C0E",
"X%	c #5A7307",
"Y%	c #698011",
"Z%	c #667E0E",
"  . + @ # $ % & * = - ; > ; , ' ) ! ~ { ] ^ / ( _ : < [ [ } | 1 2 3 3 3 3 4 5 6 7 } | 1 2 3 3 4 5 6 7 8 9 0 a b c [ d e f g g h ",
"i < + @ j k l = _ m n ) o ; p ) ) q r s t u v w 1 x y z r A B C D E F G G F E D H I J C D E F F E D K L M y N O P Q R S T U V P ",
": W X m Y Z * ` : p  ...p T +.p +.} | @.#.$.3 3 3 5 x r | B %.&.%.*.=.*.*.=.*.%.C -.;.&.%.*.=.=.*.%.D >.,.'.y ).!.< R ~.{.].R ^.",
": /.(._ ^.- _.:.m ; <.q r s t [.s }.|.1.2.G 3.4.4.3.G 5.6.7.E 8.4.4.9.9.9.9.4.4.8.G G 8.4.4.4.4.4.4.8.E G C 0.L a.y N b.c.^.d.e.",
"/.<.f.;  .( _.g.h.p f.} | @.#.@.@.i.j.4 4 3.k.l.l.k.3.3 4 m.;.4.k.l.l.l.l.l.l.k.4.*.*.4.k.l.l.l.l.k.4.=.*.n.o.>.p.'.y ^.^.c.q.^.",
"( ^.r.<.s.t.<.S u.v.w.x.y.z.4.A.n.B.3.C.4.D.E.F.F.E.D.4.C.C.4.D.E.G.H.I.I.H.J.K.L.C.C.D.E.F.F.F.F.E.D.4.C.4.8.E G M.N.y O.' d.P.",
"> Q.R.; +.<.p m @ r | S.T.l.l.U.V.3.k.W.l.E.X.Y.Y.X.E.l.W.W.l.K.X.H.Z.`.`.Z.H.X.K.W.W.E.X.F.Y.Y.F.X.E.l.W.k.4.=.*.%.M.'.y  +<.<.",
"[ .+++> @+#+> > <.r $+y.%+&+*+=+m.C.W.F.F.F.F.F.F.F.F.F.F.F.F.-+F.;+>+,+'+,+)+H.G.F.F.F.F.G.;+;+G.F.F.F.F.E.D.4.C.4.8.G 0.!+w.) ",
"~+.+{+' <.]+p > p v.w.^+y./+&.G (+4.l.F.Y.F.F.F.F.F.F.F.F.F.F.F.F.G.H.)+,+_+,+Z.H.F.F.F.F.H.Z.Z.H.F.F.Y.F.X.E.l.W.k.4.:+=.6 7 b.",
"<+~.W [+^.#+) +.]+z r A B A.&.=+4.D.E.F.F.J.;+I.I.I.I.I.I.I.I.;+J.J.;+}+|+`.`.Z.H.F.F.G.H.)+,+,+)+;+J.F.F.F.F.F.F.E.D.3.1+2+3+7 ",
"4+5+d , +.<.6+]+]+r $+7+%.&.%.4.k.E.X.F.F.H.Z.`.`.`.`.`.`.`.`.>+H.H.>+|+8+I.I.H.G.F.F.;+Z.,+_+_+,+Z.;+F.F.F.F.Y.F.X.E.k.9+4.A.6 ",
"0+a+b+c+d++.' v.w.e+7+f+&.8.4.D.E.F.F.J.;+g+,+h+h+h+h+h+h+h+h+i+g+)+i+,+)+;+J.F.F.F.F.;+Z.,+_+j+h+,+g+;+J.F.-+F.F.F.F.E.D.9+f+4 ",
"k+l+, , T T f.r | B %.&.%.4.k.E.X.F.F.;+Z.,+_+h+h+h+h+h+h+h+h+'+,+,+'+'+,+>+;+F.F.F.F.G.H.)+,+h+j+_+,+Z.;+F.F.F.F.F.F.X.E.k.3.4 ",
"m+9 n+V ~+~+o+r p+J ;.G *.C.W.F.F.J.H.g+,+h+h+h+h+h+h+h+h+h+h+h+h+h+h+h+h+,+g+;+J.F.F.F.F.;+Z.,+_+j+h+,+g+I.q+;+J.F.F.Y.F.l.4.2 ",
"P r+~+s+t+u+v+v.w.w+x+E =.4.l.F.Y.;+Z.,+_+h+h+h+h+h+h+h+h+h+h+h+h+h+h+h+h+_+,+Z.;+F.F.F.F.J.;+g+,+h+j+'+,+`.`.Z.H.F.F.Y.F.l.4.y+",
"R V s+t+t+q r z+A+B+M.=+4.D.E.F.F.I.`.h+h+h+h+h+h+h+h+h+h+h+h+h+h+h+h+h+h+h+h+,+g+;+J.F.F.F.F.;+Z.,+'+h+h+h+h+,+g+H.J.X.K.C+D+| ",
"E+F+G+u+t+} | H+o.&.%.4.k.E.X.F.F.I.`.h+h+h+h+h+h+h+h+h+h+h+h+h+h+h+h+h+h+h+h+_+,+Z.;+F.F.F.F.J.;+g+,+h+j+h+h+_+,+Z.;+E.L.A.I+} ",
". J+{.q } e+B f+&.=+4.D.E.F.F.F.F.;+Z.,+_+h+h+h+h+h+h+h+h+h+h+h+h+h+h+h+h+h+h+h+h+,+g+;+J.F.F.F.F.I.`.h+h+h+h+h+h+`.I.W.K+:+L+M+",
"N+N+T r | B %.&.%.4.k.E.X.F.F.F.F.J.H.g+,+h+h+h+h+h+h+h+h+h+h+h+h+h+h+h+h+h+h+h+h+_+,+Z.;+F.F.-+F.q+`.h+h+h+h+h+h+`.I.W.K+C B.6 ",
"m m O+[.@.o.(+M.4.D.E.F.Y.F.F.F.F.F.F.;+Z.,+'+h+h+h+h+h+h+h+h+h+h+h+h+h+h+h+h+h+h+h+h+,+g+H.J.F.F.;+Z.,+_+h+h+j+h+`.I.E.L.9+f+2 ",
"R.Y P+t #.Q+R+3.k.E.X.F.F.F.F.F.F.F.F.J.;+g+,+h+h+h+h+h+h+h+h+h+h+h+h+h+h+h+h+h+h+h+h+_+,+Z.;+F.F.J.H.g+,+h+h+h+h+`.I.X.K.S+3.T+",
"/.q } U+i.G 8.L.V+F.F.W+E.&+&+E.X.F.Y.F.F.I.`.h+h+h+h+h+h+h+h+h+h+h+h+h+h+h+h+h+h+h+h+h+h+`.q+F.-+F.F.;+>+X+`.,+'+`.I.Y.F.l.4.Y+",
"Z+r | |.j.3.k.E.X.Y.F.E.D.C.C.D.E.F.F.-+F.q+`.h+h+h+h+h+h+h+h+h+h+h+h+h+h+h+h+h+h+h+h+h+h+`.I.F.F.F.F.J.;+q+I.)+,+`.I.Y.F.l.4.`+",
"(  @.@+@3.@@#@I.q+q+I.#@@@C.K+$@%@&+l.V+X.q+`.h+&@h+h+h+h+h+h+h+h+h+h+h+h+h+h+h+h+h+h+h+h+,+g+;+J.F.F.G.H.;+G.H.Z.Z.H.X.K.C+*@| ",
"/.@.5 8.k.#@=@`.`.`.`.-@;@l.>@,@$@C.4.L.E.I.`.h+h+h+h+h+h+h+h+h+h+h+h+h+h+h+h+h+h+h+h+h+h+'+,+Z.;+F.F.H.>+>+;+G.;+H.G.E.D.'@)@} ",
"y !@-.9.l.I.`.h+h+h+h+,+g+q+q+#@@@C.C.$@,@~@=@`.`.,+'+h+h+h+h+h+h+h+h+h+h+h+h+h+h+h+h+h+h+j+h+,+g+;+J.I.`.,+)+H.J.F.F.W.C.{@]@^@",
"'.o.(+9.l.q+`.h+&@h+h+'+,+`.`.=@#@l.>@%@$@@@#@q+q+g+,+h+h+h+h+h+h+h+h+h+h+h+h+h+h+h+h+h+h+h+h+_+,+>+;+I.`._+,+Z.;+F.F.W.C.{@]@{ ",
"/@G *.9.l.I.`.h+h+h+h+h+h+h+h+,+g+H.J.W.4.4.W.F.F.H.Z.`.`.,+'+h+h+h+h+'+,+`.`.`.`.`.`.`.`.`.`.,+'+`.I.I.`.'+,+|+8+H.G.E.D.'@(@} ",
">.G *.9.l.I.`.h+h+h+h+h+h+h+h+_+,+Z.H.l.C.C.>@-+F.J.;+q+I.g+,+h+h+h+h+,+g+I.q+I.I.I.I.I.I.q+I.)+,+`.I.I.X+,+)+8+|+Z.H.X.K.C+*@| ",
"5 F =.9.l.q+`.h+&@h+h+h+h+h+h+&@h+`.q+l.C.C.&+F.F.F.F.F.F.H.Z.`.`.`.`.Z.H.F.F.F.F.F.F.F.F.F.F.H.Z.>+H.H.Z.Z.H.H.>+Z.H.Y.F.l.4.#.",
"4 G *.9.l.I.`.h+h+h+h+h+h+h+h+h+h+`.I.W.9.4.W.F.F.F.F.-+F.J.;+I.I.I.I.;+J.F.-+F.F.F.F.F.F.-+F.G.;+;+G.G.;+;+G.G.H.H.G.Y.F.l.4.#.",
"3 _@D 4.k.~@=@`.`.,+'+h+h+'+,+`.`.=@:@<@$@[@K.F.F.F.F.F.F.F.F.F.F.F.F.F.F.F.F.F.F.F.F.F.F.F.F.F.F.F.F.}@E.K.X.F.Y.F.F.X.E.C+*@| ",
"3 8.|@1@2@@@#@q+q+g+,+h+h+,+g+q+q+#@@@$@%@E.X.F.F.F.F.F.F.F.F.F.F.F.F.F.F.F.F.F.F.F.F.F.F.F.F.F.F.F.F.E.L.L.E.F.F.F.F.E.D.'@(@} ",
"5 3.S+L.:+4.l.F.Y.H.Z.`.`.Z.H.3@K.4@5@6@7@8@8@E.X.F.Y.F.F.9@E.8@8@8@8@8@8@E.3@F.F.F.F.F.F.F.F.F.F.F.F.W.C.0@a@&+l.K.X.l.4.T+b@c@",
"2 f+9+C.d@C.>@-+F.J.;+I.I.H.J.e@L.f@g@h@i@4.j@D.E.F.F.F.F.E.D.4.C.4.4.C.4.D.E.F.F.F.F.F.F.F.F.F.F.F.F.l.C.:+B.C.4.[@E.W.4.5 k@r+",
"Y+B.C l@D 4.k.E.X.F.F.F.F.Y.F.8@j@m@n@o@p@q@r@3.s@t@8@u@v@w@x@m@y@m@m@y@m@5@4@K.X.F.F.F.F.F.F.F.F.F.F.K.D.4.C.4.4.z@,@A@4.B@C@y ",
"D@C E@F@|@z@4.D.E.F.F.F.F.F.F.8@C.y@G@H@I@J@K@G L@j@4.M@N@O@P@G@n@G@G@G@G@g@5@D.E.F.F.F.F.F.F.F.F.F.F.}@E.l.W.l.W.%@$@Q@4.f+R@'.",
"$+S@:+3.S+T@:+4.l.F.Y.Y.F.X.E.4@5@p@U@V@V@W@X@Y@Z@m@`@ #.#o@+#V@V@V@V@V@V@G@m@0@@#E.X.F.Y.F.F.F.F.G.H.;+G.F.F.F.F.E.D.##/+z.A./@",
"} $#%#A.9+4.d@C.W.F.F.F.F.E.D.6@h@o@H@V@V@o@&#*#=#G@G@-#;#>#o@V@,#V@V@'#V@)#y@%#!#D.K.F.F.F.F.F.F.H.Z.Z.H.F.F.Y.F.X.E.%@~#z.A.>.",
"w.{#|.f+C l@D 4.k.l.l.l.l.s@]#^#/#o@H@,#,#o@p@p@o@H@(#_#:#<#[#}#|#}#}#1#2#G@^#3 3 3.k.8@8@E.3@F.F.I.`.,+)+;+J.F.-+F.F.3#4#5#6#5 ",
"$+7#8#9#0#F@|@a#4.4.4.4.4.3.b#c#d#p@o@V@V@+#o@(#+#(#p@ #.#e#f#g#h#g#g#i#j#G@k#3 R+G 3.C.4.D.E.F.F.I.`._+,+Z.;+F.F.F.F.l#m#n#o#4 ",
"| S.T.|@n.3.k.|@D *.=.p#j.q#:#r#s#t#u#G@G@o@H@H@o@_#:#v#[#w#x#g#g#g#g#x#w#[#v#y#z#Y@*#y@m@6@A#e@3@H.Z.,+_+,+)+I.q+q+I.8+|+B#C#5 ",
"w.^+y.D#l@f+9+8.l@E E E#&.F#`@^#G#H#I#k#m@p@J#(#p@:#.#[#f#x#w#}#}#}#}#w#K#f#L#M#y#*#/#G@G@g@5@D.E.J.H.g+,+'+,+`.`.`.`.|+8+N#O#2 ",
"; r | P#Q#R#z.A.0@0@A.S#R#T#m@U#V#W#X#Y#Z#&#M#`# $.$+$w#x#@$#$$$#$#$$$#$@$x#w#e#<#%$o@V@V@U@%$6@A#&$8@:@*$`.`.,+'+&@=$-$;$l.9.Y+",
"[+z r >$,$/+R#E#E#E#E#R#/+T#'$)$!$G#~${$]$^$/$($_$:$<$x#w##$2##$@$@$#$2##$w#x#f#[#o@+#,#,#H@U@h@6@C.[$@@#@q+}$)+,+&@j+`.q+>@9.D@",
"/.<./.r | ,$Q#A.0@0@A.|$,$1$2$U#V#U#U#3$4$3 3 5$6$7$8$@$#$2##$9$K#K#9$#$2#}#g#g#}#V@V@V@V@,#V@J#p@0$m@5@4@K.X.H.Z.a$b$c$d$A@e$| ",
"p > ^.z r f$P#E#E#E#E#P#f$g$h$)$!$!$!$i$j$k$l$m$n$.$+$#$2##$@$K#w#w#K#@$#$}#g#h#|#V@V@V@V@V@V@H@U@G@n@g@f@L.e@G.H.o$p$C#q$e$f$} ",
" .< r$% N+} | @.#.#.@.$+} } $+@.#.#.@.| } s$t$w 3 u$v$#$2#}#g#g#}#}#g#g#}#j#@$i#1#,#V@H@o@G@G@G@G@G@G@w$!$A.@#l.l.A@e$#.@.| } : ",
"[ x$y$z$f.q r s t t s r q q r s t t s r q < A$w 3 B$C$D$1#}#g#g#}#}#g#g#}#$$#$j#$$V@V@o@%$m@k#m@`@`@`@U#E$:+0@4.F$e$>$t [.r q G$",
"H$& I$J$K$L$0 M$b N$< [ d O$P$Q$t+  R$S$# y T$U$I#V$:$g#}#j#@$K#w#w#K#@$j#V@V@H@o@G@G@M#/$3 3 5 2 W$X$Y$D@@.@.#.@.| } Q$Z$`$ %[ ",
"9 .%+%@%#%$%%%&%*%=%G$[ E+J+g ~+T i + % .%T$4 -%M#+$<$g#}#2##$9$K#K#9$j#2#V@V@o@%$m@k#/$;%>%,%'%L )%!%~%y s s t s r q <+g {%]%R$",
"S$$ # ^%/%(%%%_%:%n !.[ <%R R ].].[ * y T$[%I#}%o@}#h#g#}#|%|%#$@$K#w#1%$$H@o@M#/$3 3 T+2%+.o ; #+3%O+^.~.4%d J+G+t+t+t+v+5%6%7%",
"8%9%$ 0%a%b%c%d%e%#+S b.- d.< ^.^.Z /.T$4 I#u#o@H@}#g#g#}#V@|%2#j#w#K#i#j#o@%$/$[%>%,%L s , ^.f%> T g%h%[ i%d {.j%V t+t+k%J+. + ",
"@ * k l%m%n%o%_ <.; R.<.b.> <.m ; y T$[%I#p@(#V@V@j#p%K#w#}#}#}#}#w#K#i#j#G@k#3 q%c.b.]+; ^.< o h%_.< Y [ ~.R R S R.U V {.d ~.N+",
"_ _ W r%` Z _.- s.+.R.) : #+#+6+, T$4 I#u#o@H@V@V@2#j#s%K#g#g#g#g#K#9$1#$$G@k#3 w p p 6+, ^.t%t%f.u%- c.Z ~.d < O+R f.].].R V ^.",
": c.^.:.` ; ( <.f.f.` +.=%v%T$w .@[%/$p@o@+#o@o@+#V@V@j#p%g#g#h#g#i##$V@V@G@k#3 w .+=%> q.d+q.d.q.( <.m /.w%R m m m T q.S ^.` ( ",
"/.m : Z+( x%<.: : f.<.p ) y%4 3 3 I#M#(#H@o@p@%$o@V@V@2#j#}#}#}#}#j#2#V@V@G@m@3 q%z%A%d.T q.B%` u%#+b.s.C%D%E%D%> c.=%f.^./.) R.",
"o+<.b.]+].F%` ].=%v%T$w .@Y@/$k#m@%$o@V@V@o@%$p@o@V@V@V@V@V@V@+#o@o@+#V@V@o@%$/$[%q%w q%q%.@q%T$v%` ; <.6+G%j ; , `  .` > R.; > ",
"T _.].<.S ( b.+.( y%4 3 3 /$M#G@G@o@H@V@V@+#o@o@+#V@V@V@V@V@V@H%}%%$o@V@V@H@o@M#/$3 3 3 3 3 3 4 y%+.<.: <.[ d [+#+I%J%K%<.t$<.o ",
"L%m /.^.m  .; y T$Y@I#k#m@%$o@V@V@V@V@V@V@V@V@+#o@o@+#V@V@H@o@.# #%$o@V@V@V@V@o@%$m@k#m@m@m@m@/$Y@q%w .@q%T$v%=%; d+[+M%.+=%, N%",
"P d O%* * j * T$4 /$u#G@G@o@H@V@,#V@V@V@V@V@V@o@p@%$o@V@V@o@%$;#.#o@+#V@V@V@V@H@o@G@G@G@G@G@G@M#/$3 3 3 3 4 y%<.r%d P T g P%f G+",
"Q%J++ R%% S%D@T%^#p@o@V@V@V@V@V@V@V@V@V@V@V@V@G@m@m@G@V@V@G@m@m@G@V@V@V@V@V@V@V@V@V@V@V@V@V@V@(#p@`@m@`@`@^#U%D@S%+ V%~+P$t+<+v+",
"G+<%R$L$.%T$4 I#u#o@H@V@,#V@V@V@V@V@V@V@V@V@V@G@k#k#G@V@V@G@k#m@G@V@,#V@V@V@V@V@V@V@V@V@V@,#V@H@o@G@G@G@G@u#/$4 T$Q$T s+t+t+P$~+",
"W%6%7%S$X%y%4 m@G@V@V@V@V@V@V@V@V@V@V@V@V@V@V@G@m@m@G@V@V@G@m@m@G@V@V@V@V@V@V@V@V@V@V@V@V@V@V@V@V@V@V@V@V@G@m@4 y%Y%F+V Z%t+P$G+"};
