/* XPM */
static char * exit0_xpm[] = {
"32 32 690 2",
"  	c #60790C",
". 	c #5E770A",
"+ 	c #5C7409",
"@ 	c #5C7509",
"# 	c #5F7609",
"$ 	c #62780B",
"% 	c #63790C",
"& 	c #64790B",
"* 	c #6B7C27",
"= 	c #8A8A6F",
"- 	c #8A8B6F",
"; 	c #687B1E",
"> 	c #60770B",
", 	c #5B6F17",
"' 	c #666331",
") 	c #76603C",
"! 	c #77603C",
"~ 	c #656531",
"{ 	c #5B7017",
"] 	c #5E760B",
"^ 	c #5E7609",
"/ 	c #60770A",
"( 	c #63790B",
"_ 	c #5F760B",
": 	c #546D0A",
"< 	c #526D08",
"[ 	c #546F08",
"} 	c #627A0C",
"| 	c #617A0C",
"1 	c #647C0D",
"2 	c #647C0E",
"3 	c #60780A",
"4 	c #5F7709",
"5 	c #5F7608",
"6 	c #61780A",
"7 	c #617809",
"8 	c #63790A",
"9 	c #64790D",
"0 	c #677A1F",
"a 	c #677A1C",
"b 	c #5E7117",
"c 	c #646432",
"d 	c #81614C",
"e 	c #8D604A",
"f 	c #BB7C55",
"g 	c #BA7C56",
"h 	c #89614D",
"i 	c #81614A",
"j 	c #636434",
"k 	c #5B6F15",
"l 	c #61770A",
"m 	c #62770A",
"n 	c #586F09",
"o 	c #456204",
"p 	c #536D07",
"q 	c #5F770A",
"r 	c #61780B",
"s 	c #62790C",
"t 	c #62780A",
"u 	c #617709",
"v 	c #62790B",
"w 	c #637B0D",
"x 	c #5F770B",
"y 	c #63780B",
"z 	c #5F7217",
"A 	c #646331",
"B 	c #83634D",
"C 	c #A16F5A",
"D 	c #A8735B",
"E 	c #90604A",
"F 	c #BD7D55",
"G 	c #BD7D56",
"H 	c #8B614E",
"I 	c #9C6C58",
"J 	c #624E3B",
"K 	c #676530",
"L 	c #5D7116",
"M 	c #62790A",
"N 	c #61760A",
"O 	c #5C7309",
"P 	c #60780B",
"Q 	c #637A0C",
"R 	c #5B7016",
"S 	c #64642F",
"T 	c #83624B",
"U 	c #A06D59",
"V 	c #AB755C",
"W 	c #AC755C",
"X 	c #A9745A",
"Y 	c #A9735B",
"Z 	c #A9725B",
"` 	c #A0684D",
" .	c #B17653",
"..	c #906746",
"+.	c #676630",
"@.	c #5C7115",
"#.	c #647A0C",
"$.	c #657A0B",
"%.	c #657C0D",
"&.	c #62770B",
"*.	c #5D7216",
"=.	c #64632F",
"-.	c #816349",
";.	c #9F6E5A",
">.	c #A16B56",
",.	c #9A6451",
"'.	c #AA735B",
").	c #AB745C",
"!.	c #8F5F49",
"~.	c #8A604E",
"{.	c #9D6C57",
"].	c #A7725A",
"^.	c #BC7C55",
"/.	c #AF7654",
"(.	c #8E6846",
"_.	c #586D15",
":.	c #607709",
"<.	c #647A0B",
"[.	c #587209",
"}.	c #657B0D",
"|.	c #5F7216",
"1.	c #626130",
"2.	c #84634B",
"3.	c #A26F58",
"4.	c #AC745C",
"5.	c #AC755D",
"6.	c #A66F58",
"7.	c #AA735C",
"8.	c #9E6D59",
"9.	c #8B6151",
"0.	c #8D6355",
"a.	c #8F604A",
"b.	c #8A604D",
"c.	c #956451",
"d.	c #8A5E51",
"e.	c #94634B",
"f.	c #BC7D55",
"g.	c #B17652",
"h.	c #906847",
"i.	c #656230",
"j.	c #5C7016",
"k.	c #62780C",
"l.	c #5F760A",
"m.	c #597109",
"n.	c #536D08",
"o.	c #5F7415",
"p.	c #696630",
"q.	c #8D6848",
"r.	c #93614C",
"s.	c #AB745B",
"t.	c #9F6E58",
"u.	c #956552",
"v.	c #775049",
"w.	c #A06E5A",
"x.	c #A9735A",
"y.	c #8F614A",
"z.	c #996451",
"A.	c #9E6A57",
"B.	c #956554",
"C.	c #946450",
"D.	c #AF7452",
"E.	c #B17754",
"F.	c #916848",
"G.	c #666431",
"H.	c #5D7215",
"I.	c #576F09",
"J.	c #5B6B21",
"K.	c #A4704E",
"L.	c #B27652",
"M.	c #915E4C",
"N.	c #9E6D58",
"O.	c #8E614F",
"P.	c #9A6A51",
"Q.	c #B77954",
"R.	c #97644F",
"S.	c #A8715B",
"T.	c #A57059",
"U.	c #A9725A",
"V.	c #A5705A",
"W.	c #9E6A53",
"X.	c #A46A4F",
"Y.	c #B37652",
"Z.	c #BB7D56",
"`.	c #A46F4F",
" +	c #596721",
".+	c #607A0C",
"++	c #5A6A21",
"@+	c #A36D4D",
"#+	c #A86C4E",
"$+	c #835B4D",
"%+	c #8D614E",
"&+	c #9A6B51",
"*+	c #B37A56",
"=+	c #A7715B",
"-+	c #9A6A56",
";+	c #8E5F49",
">+	c #89604D",
",+	c #9B6955",
"'+	c #A8715A",
")+	c #9D6852",
"!+	c #8F634E",
"~+	c #AE7450",
"{+	c #AD734F",
"]+	c #566521",
"^+	c #5D7509",
"/+	c #596821",
"(+	c #AB7451",
"_+	c #AD7352",
":+	c #724F43",
"<+	c #B67955",
"[+	c #92634D",
"}+	c #895E4C",
"|+	c #9A6951",
"1+	c #8B614D",
"2+	c #9C684F",
"3+	c #8A614F",
"4+	c #9E6C57",
"5+	c #805B4F",
"6+	c #9A684D",
"7+	c #93654D",
"8+	c #AE7552",
"9+	c #AA7350",
"0+	c #576622",
"a+	c #61790B",
"b+	c #576520",
"c+	c #8B5E49",
"d+	c #9E6B51",
"e+	c #B47956",
"f+	c #AC7454",
"g+	c #A46B4C",
"h+	c #A96F4F",
"i+	c #B57955",
"j+	c #AF7350",
"k+	c #8F6049",
"l+	c #8C624D",
"m+	c #B97A54",
"n+	c #B67A54",
"o+	c #A76F50",
"p+	c #95634F",
"q+	c #9F6D57",
"r+	c #865C4F",
"s+	c #BA7B55",
"t+	c #B47955",
"u+	c #9C6B50",
"v+	c #855E4B",
"w+	c #576722",
"x+	c #596720",
"y+	c #A7704E",
"z+	c #BB7C54",
"A+	c #A96D4D",
"B+	c #A86D4F",
"C+	c #B77B55",
"D+	c #AB7454",
"E+	c #95654C",
"F+	c #9F6C4F",
"G+	c #B87B53",
"H+	c #BD7D54",
"I+	c #B27551",
"J+	c #A96E4E",
"K+	c #906049",
"L+	c #BA7A54",
"M+	c #B67954",
"N+	c #9C634B",
"O+	c #8F604F",
"P+	c #9C6C59",
"Q+	c #865A4F",
"R+	c #BA7C54",
"S+	c #B97B54",
"T+	c #956149",
"U+	c #586821",
"V+	c #63770A",
"W+	c #6C7D2D",
"X+	c #5A6822",
"Y+	c #AC734F",
"Z+	c #A46E51",
"`+	c #8C604D",
" @	c #845E4D",
".@	c #B57A57",
"+@	c #B97B53",
"@@	c #916149",
"#@	c #B87A53",
"$@	c #A2674C",
"%@	c #A3715B",
"&@	c #916554",
"*@	c #714C47",
"=@	c #AC7251",
"-@	c #A86F4E",
";@	c #5A6723",
">@	c #6C7C29",
",@	c #898B6D",
"'@	c #5E692B",
")@	c #AB7250",
"!@	c #B37552",
"~@	c #99654D",
"{@	c #926755",
"]@	c #A5725A",
"^@	c #8C614D",
"/@	c #BD7C55",
"(@	c #BA7B53",
"_@	c #BC7D56",
":@	c #895F4C",
"<@	c #AF7251",
"[@	c #9A644D",
"}@	c #AA745B",
"|@	c #A8725B",
"1@	c #976554",
"2@	c #8D604E",
"3@	c #AB7353",
"4@	c #626B32",
"5@	c #898A6D",
"6@	c #677B1B",
"7@	c #576620",
"8@	c #925F49",
"9@	c #A16A53",
"0@	c #9F674D",
"a@	c #BC7C54",
"b@	c #B67952",
"c@	c #5D3B3B",
"d@	c #8F5E48",
"e@	c #8F5E49",
"f@	c #59393A",
"g@	c #AB704E",
"h@	c #805C4F",
"i@	c #916553",
"j@	c #7C5949",
"k@	c #566522",
"l@	c #687A1E",
"m@	c #586620",
"n@	c #9B6B54",
"o@	c #955E49",
"p@	c #A3684B",
"q@	c #AF7250",
"r@	c #BB7B55",
"s@	c #AC7151",
"t@	c #845444",
"u@	c #54353A",
"v@	c #382539",
"w@	c #302437",
"x@	c #302337",
"y@	c #37263B",
"z@	c #55343C",
"A@	c #855544",
"B@	c #92614D",
"C@	c #A77059",
"D@	c #795449",
"E@	c #AA735A",
"F@	c #9C6B55",
"G@	c #576522",
"H@	c #64780B",
"I@	c #5A6821",
"J@	c #9C6C56",
"K@	c #AA745C",
"L@	c #94624E",
"M@	c #B97A55",
"N@	c #AE7150",
"O@	c #875744",
"P@	c #55353A",
"Q@	c #40273A",
"R@	c #372539",
"S@	c #44283D",
"T@	c #38253A",
"U@	c #37243A",
"V@	c #3F2739",
"W@	c #57363B",
"X@	c #865644",
"Y@	c #7A5246",
"Z@	c #A8725A",
"`@	c #9C6652",
" #	c #7F5A4E",
".#	c #9F6C55",
"+#	c #586623",
"@#	c #65790D",
"##	c #5A6B22",
"$#	c #9C6C55",
"%#	c #785247",
"&#	c #875647",
"*#	c #4F343A",
"=#	c #312438",
"-#	c #302338",
";#	c #312337",
">#	c #312437",
",#	c #342737",
"'#	c #7F5248",
")#	c #9F6A56",
"!#	c #835C4E",
"~#	c #576623",
"{#	c #637A0D",
"]#	c #596A21",
"^#	c #8C5D4C",
"/#	c #9A6552",
"(#	c #9F6A55",
"_#	c #7F5247",
":#	c #3C2938",
"<#	c #40273B",
"[#	c #45283D",
"}#	c #4B2C3D",
"|#	c #643A3D",
"1#	c #653A3D",
"2#	c #4B2C3C",
"3#	c #44283C",
"4#	c #41283B",
"5#	c #54343B",
"6#	c #7F5348",
"7#	c #9E6A55",
"8#	c #7F5B4E",
"9#	c #566624",
"0#	c #5F780B",
"a#	c #596921",
"b#	c #986953",
"c#	c #9D6955",
"d#	c #4E3239",
"e#	c #3A263A",
"f#	c #42283D",
"g#	c #42273D",
"h#	c #43283D",
"i#	c #5C383F",
"j#	c #70423D",
"k#	c #73443F",
"l#	c #71433F",
"m#	c #5D383F",
"n#	c #41273D",
"o#	c #3B273A",
"p#	c #4F3239",
"q#	c #55393D",
"r#	c #9C6954",
"s#	c #9C6B54",
"t#	c #556523",
"u#	c #566620",
"v#	c #6F4A41",
"w#	c #52333A",
"x#	c #38263A",
"y#	c #392539",
"z#	c #3B263A",
"A#	c #432A3A",
"B#	c #442A3A",
"C#	c #482C39",
"D#	c #442A39",
"E#	c #422A39",
"F#	c #392739",
"G#	c #39273A",
"H#	c #38273A",
"I#	c #39253A",
"J#	c #3F273B",
"K#	c #53343B",
"L#	c #6F4942",
"M#	c #566622",
"N#	c #5B6F14",
"O#	c #45512A",
"P#	c #40293C",
"Q#	c #3A253A",
"R#	c #42273B",
"S#	c #48303E",
"T#	c #4F3840",
"U#	c #634141",
"V#	c #64423F",
"W#	c #644240",
"X#	c #6A433F",
"Y#	c #673B3E",
"Z#	c #734340",
"`#	c #74433E",
" $	c #74433F",
".$	c #5B3A3F",
"+$	c #7F584D",
"@$	c #7A554C",
"#$	c #79554C",
"$$	c #7B554B",
"%$	c #7B564C",
"&$	c #4B323F",
"*$	c #41293C",
"=$	c #5B7015",
"-$	c #63780A",
";$	c #506220",
">$	c #412A3C",
",$	c #482A3C",
"'$	c #663B3E",
")$	c #755149",
"!$	c #77544C",
"~$	c #6E4E47",
"{$	c #6E4F47",
"]$	c #71504A",
"^$	c #7A574F",
"/$	c #653A3E",
"($	c #6A3D3D",
"_$	c #6C3D3D",
":$	c #5A343D",
"<$	c #7D564B",
"[$	c #6F4645",
"}$	c #582E3B",
"|$	c #572D3B",
"1$	c #6F4B46",
"2$	c #724F49",
"3$	c #54333D",
"4$	c #53323B",
"5$	c #4F2E3D",
"6$	c #422A3B",
"7$	c #54641F",
"8$	c #472C3C",
"9$	c #5B343D",
"0$	c #55333B",
"a$	c #59343C",
"b$	c #73423E",
"c$	c #7D5547",
"d$	c #4A373D",
"e$	c #212035",
"f$	c #322938",
"g$	c #7E594D",
"h$	c #60393E",
"i$	c #75433F",
"j$	c #5E373E",
"k$	c #835949",
"l$	c #77443D",
"m$	c #73403B",
"n$	c #693A3A",
"o$	c #6B433E",
"p$	c #795246",
"q$	c #5B363E",
"r$	c #643C3A",
"s$	c #79453E",
"t$	c #58353C",
"u$	c #54651F",
"v$	c #637A0B",
"w$	c #5B7409",
"x$	c #496405",
"y$	c #536421",
"z$	c #6A3F3D",
"A$	c #7B463F",
"B$	c #623B3B",
"C$	c #56323B",
"D$	c #6B3D3D",
"E$	c #805646",
"F$	c #4E393C",
"G$	c #272336",
"H$	c #372B38",
"I$	c #825B4C",
"J$	c #6B3E3B",
"K$	c #6D3E3D",
"L$	c #6E3D3D",
"M$	c #865A47",
"N$	c #723F3B",
"O$	c #6E3B3A",
"P$	c #653739",
"Q$	c #6D3B3A",
"R$	c #69413D",
"S$	c #7D5446",
"T$	c #56333C",
"U$	c #633C3A",
"V$	c #7C473E",
"W$	c #72443D",
"X$	c #586921",
"Y$	c #637D0E",
"Z$	c #5F790B",
"`$	c #445721",
" %	c #72443B",
".%	c #5A343C",
"+%	c #73423D",
"@%	c #795245",
"#%	c #865D4A",
"$%	c #825A47",
"%%	c #835947",
"&%	c #835B49",
"*%	c #7D5749",
"=%	c #72433D",
"-%	c #74433D",
";%	c #865B46",
">%	c #73423B",
",%	c #7B443C",
"'%	c #663839",
")%	c #7C443C",
"!%	c #72463E",
"~%	c #7D5445",
"{%	c #5F393D",
"]%	c #643D3B",
"^%	c #74443D",
"/%	c #647D0E",
"(%	c #5F780C",
"_%	c #5C7508",
":%	c #5B7308",
"<%	c #495B21",
"[%	c #72433C",
"}%	c #57333C",
"|%	c #6E403E",
"1%	c #6D403D",
"2%	c #5D393C",
"3%	c #6A3F3C",
"4%	c #6C413D",
"5%	c #6D413C",
"6%	c #6F403E",
"7%	c #6E3F3E",
"8%	c #6E403D",
"9%	c #5A353D",
"0%	c #75423D",
"a%	c #71463E",
"b%	c #74443C",
"c%	c #566721",
"d%	c #627B0D",
"e%	c #536322",
"f%	c #73443C",
"g%	c #72423E",
"h%	c #72423F",
"i%	c #623A3E",
"j%	c #6F403D",
"k%	c #73423F",
"l%	c #5D363D",
"m%	c #855A47",
"n%	c #6B3C3B",
"o%	c #683A3A",
"p%	c #65403D",
"q%	c #59363D",
"r%	c #643C3B",
"s%	c #61790A",
"t%	c #546521",
"u%	c #57333B",
"v%	c #6F3F3D",
"w%	c #855B46",
"x%	c #7F483D",
"y%	c #7B433C",
"z%	c #58343C",
"A%	c #633C3B",
"B%	c #556420",
"C%	c #56681D",
"D%	c #664339",
"E%	c #6E423C",
"F%	c #5B4237",
"G%	c #4C4731",
"H%	c #584B33",
"I%	c #594B32",
"J%	c #584B32",
"K%	c #584A32",
"L%	c #574B33",
"M%	c #584C33",
"N%	c #594C33",
"O%	c #594D33",
"P%	c #4C4832",
"Q%	c #775445",
"R%	c #674936",
"S%	c #664F31",
"T%	c #584A2F",
"U%	c #604938",
"V%	c #6E5042",
"W%	c #4C4632",
"X%	c #5C4336",
"Y%	c #6D423B",
"Z%	c #67433A",
"`%	c #596A1C",
" &	c #657B0C",
".&	c #647B0C",
"+&	c #617B0D",
"@&	c #5E760A",
"#&	c #5B740A",
"$&	c #54681C",
"%&	c #55671F",
"&&	c #5B6E18",
"*&	c #63780D",
"=&	c #62760C",
"-&	c #62770C",
";&	c #61760C",
">&	c #61770C",
",&	c #60770D",
"'&	c #5F760D",
")&	c #62790E",
"!&	c #657C10",
"~&	c #657D11",
"{&	c #627B11",
"]&	c #55691E",
"^&	c #566D15",
"/&	c #5A730B",
"(&	c #5E760C",
"_&	c #60760C",
":&	c #5B6F19",
"<&	c #586A1C",
"[&	c #60760F",
"}&	c #5C7019",
"|&	c #586920",
"1&	c #55691B",
"2&	c #637A0E",
"3&	c #667D0E",
"4&	c #5C760B",
"5&	c #597308",
"6&	c #65790E",
"7&	c #6A7B22",
"8&	c #697C25",
"9&	c #647D0D",
"0&	c #667E0F",
"a&	c #637C0E",
"b&	c #5F790C",
"c&	c #5A7408",
"d&	c #5D760A",
"e&	c #577009",
"f&	c #5B730A",
"g&	c #5D750B",
"  . + @ # $ % & * = - ; > , ' ) ! ~ { ] ^ / / ( _ : < [ } | 1 2 ",
"3 4 / 5 6 7 % 8 9 0 a b c d e f g h i j k l 6 6 m n o p q r s s ",
"6 t u 7 v w x u y z A B C D E F G H D I J K L % M N O $ & y % % ",
"( v y y P Q ] R S T U V W X E F G H Y Z `  ...+.@.] # t #.#.$.8 ",
"%.% t & &.*.=.-.;.>.,.'.).I !.G G ~.{.].` F ^./.(.=._.+ :.<.& t ",
"[.}.% |.1.2.3.4.5.6.7.8.9.0.a.G G b.c.d.e.f.F F ^.g.h.i.j.k.l.m.",
"n.o.p.q.r.s.W W s.t.u.v.w.x.y.G G b.z.A.B.C.D.^.F F ^.E.F.G.H.I.",
"w J.K.L.M.V V N.O.P.Q.R.S.Y E G G H T.U.W V.W.X.Y.Z.F F f.`. +> ",
".+++@+#+$+{.%+&+*+f.F R.=+-+;+G G >+,+).W W W '+)+!+~+^.F {+]+^+",
"P /+(+_+:+P.<+f.F F ^.[+}+|+E G G 1+2+3+4+).W W ).5+6+7+8+9+0+q ",
"a+b+c+d+e+f.F F ^.f+g+h+i+j+k+G G l+m+n+o+p+q+W V r+s+t+u+v+w+/ ",
"t x+y+z+A+B+C+D+E+F+G+H+I+J+K+G G l+L+F f.M+N+O+P+Q+R+F S+T+U+V+",
"W+X+Y+F f Z+`+ @.@F F F F +@@@G G l+#@F F F $@%@&@*@=@^.^.-@;@>@",
",@'@)@!@~@{@]@^@/@F F F F (@;+G _@:@<@F F F [@}@W |@1@2@3@)@4@5@",
"6@7@8@9@'.W s.0@a@a@F F a@b@c@d@e@f@g@a@F f.r.'.W W V h@i@j@k@l@",
"& m@n@W W W s.o@p@q@r@s@t@u@v@w@x@y@z@A@s@s+B@'.W W C@D@E@F@G@H@",
"( I@J@W W W K@L@M@N@O@P@Q@R@S@R@T@S@U@V@W@X@Y@Z@W '.`@ #E@.#+#@#",
"}.##$#Z ).W Z@%#&#*#=#U@v@x@v@x@-#v@;#v@v@>#,#'#)#K@).!#'..#~#{#",
"1 ]#^#/#'+(#_#:#<#S@S@S@S@[#}#|#1#2#3#S@S@S@S@4#5#6#7#8#E@.#9#0#",
"| a#b#c#'#d#e#f#g#g#g#g#h#i#j#k#k#l#m#S@g#g#g#g#n#o#p#q#r#s#t#0#",
"/ u#v#w#4#x#y#e#e#z#A#B#B#C#D#C#C#C#E#F#G#H#G#H#e#v@I#J#K#L#M#r ",
"l N#O#P#[#Q#R#[#S#T#U#V#W#X#Y#Z#`# $.$+$@$#$$$%$&$g#z#[#*$O#=$-$",
"t t ;$>$[#z#,$'$)$!$~${$]$^$/$($_$:$<$[$}$|$}$1$2$3$4$5$6$7$( v ",
"l l.;$8$9$0$a$b$c$d$e$e$f$g$h$Z#i$j$k$l$m$n$m$o$p$q$r$s$t$u$v$a+",
"w$x$y$z$A$B$C$D$E$F$G$G$H$I$J$K$L$:$M$N$O$P$Q$R$S$T$U$V$W$X$Y$Z$",
"w$p `$ %V$B$.%+%@%#%$%%%&%*%=%-%`#j$;%>%,%'%)%!%~%{%]%V$^%X$/%(%",
"_%:%<%[%V$B$}%|%1%2%3%4%5%1%6%7%8%9%;%0%,%'%,%a%S${%]%V$b%c%d%(%",
"4 / e%f%V$B$a$g%h%i%j%b$k%b$k%b$h%l%m%n%'%o%'%p%~%q%r%V$b%u#s v ",
"s%u t%f%V$B$u%v%v%v%v%v%v%j%j%v%v%9%w%x%,%'%y%a%S$z%A%V$f%B%v ( ",
"a+r C%D%E%F%G%H%I%J%K%J%J%L%M%N%O%P%Q%R%S%T%S%U%V%W%X%Y%Z%`% &.&",
"+&@&#&$&%&&&*&=&-&-&;&>&,&'&)&!&~&{&]&^&/&(&_&:&<&[&}&|&1&2&3&3&",
"+&4&5&:%l.t v ( 6&7&8&k.q @&  9&0&a&b&@ c&d&q r e&f&g&w$d%1 0&0&"};
