/* XPM */
static char * foe_l2_xpm[] = {
"32 32 379 2",
"  	c #647C0E",
". 	c #627A0D",
"+ 	c #627B0C",
"@ 	c #546F08",
"# 	c #526D08",
"$ 	c #536C0A",
"% 	c #60770C",
"& 	c #63790B",
"* 	c #60770A",
"= 	c #5E7609",
"- 	c #5F770A",
"; 	c #627A0C",
"> 	c #637B0D",
", 	c #637A0C",
"' 	c #60780B",
") 	c #607709",
"! 	c #667B15",
"~ 	c #8C8C73",
"{ 	c #8C8B73",
"] 	c #6A7C21",
"^ 	c #647A0C",
"/ 	c #63790C",
"( 	c #62780B",
"_ 	c #5F7609",
": 	c #5C7509",
"< 	c #5C7409",
"[ 	c #5E770B",
"} 	c #61790D",
"| 	c #62790C",
"1 	c #61780B",
"2 	c #526D07",
"3 	c #436004",
"4 	c #586F09",
"5 	c #62770A",
"6 	c #61780A",
"7 	c #627809",
"8 	c #61790A",
"9 	c #62790B",
"0 	c #61770B",
"a 	c #617709",
"b 	c #667A12",
"c 	c #667A16",
"d 	c #64790B",
"e 	c #63790A",
"f 	c #64790C",
"g 	c #617809",
"h 	c #5F7608",
"i 	c #5F7709",
"j 	c #60780A",
"k 	c #63780B",
"l 	c #71752D",
"m 	c #6A6F22",
"n 	c #746B38",
"o 	c #7B6D3B",
"p 	c #7B6C3B",
"q 	c #796C39",
"r 	c #797040",
"s 	c #797147",
"t 	c #62790A",
"u 	c #64780B",
"v 	c #63780A",
"w 	c #657A0C",
"x 	c #5F770B",
"y 	c #647C0D",
"z 	c #62780A",
"A 	c #657A0B",
"B 	c #7E703E",
"C 	c #9B6E5D",
"D 	c #A47562",
"E 	c #7B6240",
"F 	c #927556",
"G 	c #B78773",
"H 	c #D29C84",
"I 	c #DDA68C",
"J 	c #E2AA90",
"K 	c #E1A98F",
"L 	c #DBA48B",
"M 	c #CC9780",
"N 	c #B58672",
"O 	c #8E7456",
"P 	c #766A35",
"Q 	c #8B6D4C",
"R 	c #996B59",
"S 	c #896E51",
"T 	c #5E770A",
"U 	c #60770B",
"V 	c #647A0B",
"W 	c #5C7507",
"X 	c #5B7308",
"Y 	c #5B7509",
"Z 	c #A97966",
"` 	c #542C26",
" .	c #6C453A",
"..	c #C5917B",
"+.	c #E3AA91",
"@.	c #E6AC92",
"#.	c #E5AC92",
"$.	c #E4AB91",
"%.	c #A87966",
"&.	c #936656",
"*.	c #522A25",
"=.	c #9C6F5D",
"-.	c #756E3F",
";.	c #667C0D",
">.	c #587109",
",.	c #5A7309",
"'.	c #966B5B",
").	c #7D5548",
"!.	c #DAA28A",
"~.	c #DDA58C",
"{.	c #B3836E",
"].	c #60372F",
"^.	c #9C6E5C",
"/.	c #7A6D37",
"(.	c #627709",
"_.	c #577109",
":.	c #566F08",
"<.	c #5E7509",
"[.	c #765D3C",
"}.	c #D9A189",
"|.	c #E5AB92",
"1.	c #DBA38A",
"2.	c #A27360",
"3.	c #637B0C",
"4.	c #657C0E",
"5.	c #657C0D",
"6.	c #516C07",
"7.	c #607809",
"8.	c #61770A",
"9.	c #697024",
"0.	c #BC8974",
"a.	c #CE9A83",
"b.	c #69632F",
"c.	c #5C7609",
"d.	c #5F790C",
"e.	c #647D0E",
"f.	c #667E0F",
"g.	c #667D0F",
"h.	c #647B0D",
"i.	c #5D7509",
"j.	c #627A0B",
"k.	c #E0A88E",
"l.	c #A47664",
"m.	c #5E780C",
"n.	c #637C0E",
"o.	c #667E0E",
"p.	c #607A0C",
"q.	c #A37462",
"r.	c #CE9881",
"s.	c #817142",
"t.	c #60790B",
"u.	c #B78671",
"v.	c #796D3A",
"w.	c #63770A",
"x.	c #766B37",
"y.	c #C6917A",
"z.	c #D49D86",
"A.	c #DCA38B",
"B.	c #D59F87",
"C.	c #E1A88F",
"D.	c #997857",
"E.	c #6B7C23",
"F.	c #63780C",
"G.	c #6A6123",
"H.	c #CA947D",
"I.	c #DBA48C",
"J.	c #C4927C",
"K.	c #C08E79",
"L.	c #A67863",
"M.	c #6B7C27",
"N.	c #697C20",
"O.	c #727835",
"P.	c #C18D77",
"Q.	c #D8A088",
"R.	c #C6917B",
"S.	c #D49E85",
"T.	c #E4AA91",
"U.	c #CE9780",
"V.	c #C5917A",
"W.	c #DEA68D",
"X.	c #A57663",
"Y.	c #667A15",
"Z.	c #BB8B6D",
"`.	c #ECB38C",
" +	c #C39079",
".+	c #D69F87",
"++	c #A6715E",
"@+	c #9C614F",
"#+	c #DAA289",
"$+	c #C9947D",
"%+	c #C08C77",
"&+	c #DDA58D",
"*+	c #E6AD8F",
"=+	c #E5AD8F",
"-+	c #947450",
";+	c #617609",
">+	c #716A38",
",+	c #E2AB7E",
"'+	c #F8BF85",
")+	c #EEB589",
"!+	c #BE856D",
"~+	c #C66F57",
"{+	c #D8A188",
"]+	c #ECB38B",
"^+	c #F0B786",
"/+	c #DCA48B",
"(+	c #746930",
"_+	c #657A0D",
":+	c #6F6937",
"<+	c #E1A97D",
"[+	c #F6BE85",
"}+	c #C8937C",
"|+	c #AA6A55",
"1+	c #E8AE8F",
"2+	c #AE7D69",
"3+	c #647A0D",
"4+	c #637A0D",
"5+	c #61780C",
"6+	c #A36B4F",
"7+	c #D5634C",
"8+	c #D46C55",
"9+	c #E7AE8E",
"0+	c #656D21",
"a+	c #5E760B",
"b+	c #627B0D",
"c+	c #657E0E",
"d+	c #657B0D",
"e+	c #5F780B",
"f+	c #60780C",
"g+	c #61770C",
"h+	c #D4321A",
"i+	c #F2290A",
"j+	c #C95441",
"k+	c #E2A990",
"l+	c #C78771",
"m+	c #C6624F",
"n+	c #CF8F6E",
"o+	c #F5BD86",
"p+	c #EDB48A",
"q+	c #DBA38B",
"r+	c #AB7B69",
"s+	c #646D1F",
"t+	c #5A7408",
"u+	c #5D770B",
"v+	c #617B0E",
"w+	c #62780C",
"x+	c #887747",
"y+	c #EC290B",
"z+	c #BD260E",
"A+	c #9C6E5D",
"B+	c #D19B83",
"C+	c #C68E77",
"D+	c #EA2A0C",
"E+	c #AB715D",
"F+	c #A97A66",
"G+	c #9F705D",
"H+	c #66532F",
"I+	c #696F1B",
"J+	c #5E7608",
"K+	c #5D770A",
"L+	c #60790C",
"M+	c #617A0C",
"N+	c #D62C12",
"O+	c #E1280B",
"P+	c #C23E29",
"Q+	c #D49E86",
"R+	c #CA725D",
"S+	c #C62910",
"T+	c #936756",
"U+	c #E1A990",
"V+	c #A06C59",
"W+	c #61790C",
"X+	c #786C0E",
"Y+	c #C72E18",
"Z+	c #D2290E",
"`+	c #CA8670",
" @	c #C27A65",
".@	c #D6270C",
"+@	c #CD3B25",
"@@	c #DEA78D",
"#@	c #996C5A",
"$@	c #697228",
"%@	c #60760A",
"&@	c #676F1F",
"*@	c #855027",
"=@	c #8C6353",
"-@	c #BD8B75",
";@	c #D9A289",
">@	c #CE4B39",
",@	c #D4290E",
"'@	c #C57761",
")@	c #7D6F3B",
"!@	c #687F0F",
"~@	c #637A0B",
"{@	c #667A0D",
"]@	c #746934",
"^@	c #CA8C74",
"/@	c #954637",
"(@	c #E0A88F",
"_@	c #B07F6B",
":@	c #D29C83",
"<@	c #9E715F",
"[@	c #657B0C",
"}@	c #5F760A",
"|@	c #62770B",
"1@	c #5F790B",
"2@	c #637D0E",
"3@	c #677E0F",
"4@	c #667C0E",
"5@	c #9C6D5B",
"6@	c #DFA78E",
"7@	c #BD8B76",
"8@	c #B98772",
"9@	c #B1816D",
"0@	c #526B07",
"a@	c #456004",
"b@	c #5F780D",
"c@	c #677F0F",
"d@	c #9C6A58",
"e@	c #B88772",
"f@	c #878360",
"g@	c #5E760A",
"h@	c #486405",
"i@	c #4E6A08",
"j@	c #546E07",
"k@	c #5B7409",
"l@	c #5F780C",
"m@	c #657D0E",
"n@	c #906454",
"o@	c #B68571",
"p@	c #827E3E",
"q@	c #526C07",
"r@	c #516A07",
"s@	c #5B7408",
"t@	c #667B0E",
"u@	c #896946",
"v@	c #66652C",
"w@	c #C18E78",
"x@	c #CC967F",
"y@	c #D79F87",
"z@	c #D69F86",
"A@	c #776B36",
"B@	c #647B0C",
"C@	c #667B0C",
"D@	c #647A0A",
"E@	c #A37564",
"F@	c #E5AB91",
"G@	c #CE9882",
"H@	c #736933",
"I@	c #66732A",
"J@	c #5E6121",
"K@	c #5F6020",
"L@	c #5F5F1F",
"M@	c #5D5E21",
"N@	c #69593A",
"O@	c #C28E79",
"P@	c #6F7328",
"Q@	c #61790B",
"R@	c #637A0A",
"S@	c #616E24",
"T@	c #7E6F40",
"U@	c #6F6631",
"V@	c #647D0F",
"W@	c #816749",
"X@	c #B1826D",
"Y@	c #7D6E39",
"Z@	c #5C7508",
"`@	c #617B0D",
" #	c #5B7309",
".#	c #5C740B",
"+#	c #5B730A",
"@#	c #576F09",
"##	c #5D760A",
"$#	c #647D0D",
"%#	c #6A7C27",
"&#	c #6A7B22",
"*#	c #65790D",
"=#	c #597308",
"-#	c #5C760B",
"    . + @ # $ % & * * = = - ; > , ' * ) ! ~ { ] ^ / ( _ : < [ } ",
"| ; 1 * 2 3 4 5 6 6 7 6 | 8 9 | 0 1 a ^ & b c d e f g 6 h * i j ",
"/ / k f k < 5 9 l m , & 9 n o p q r s t u v w & a x y & g a z 8 ",
"e A ^ w ( _ - B C D E F G H I J K L M N O P Q R S T > U k k 9 k ",
"z d V ) W X Y Z `  ...+.@.#.@.#.#.@.@.#.$.%.&.*.=.-.t z d z f ;.",
">.- 9 * : ,.: '.).!.@.@.@.@.@.@.@.@.@.@.@.~.{.].^./.(.g f d ;._.",
":.9 d * = <.= [.}.@.@.@.#.@.#.#.@.@.@.@.@.|.@.1.2.j - ' 3.4.5.6.",
"' / 7.( a 8.9.0.@.@.@.@.@.@.@.@.@.@.@.@.@.@.@.@.a.b.c.d.e.f.g.h.",
"i.- ( ) j.d P k.#.|.@.@.@.|.@.#.@.|.@.#.#.#.#.#.|.l.Y m.n.o.e.p.",
"- j ) z v d q.@.@.@.@.@.@.@.@.@.@.@.@.@.@.@.@.@.@.r.s.t.| 3.; ' ",
"* z & d v z u.@.@.@.@.|.@.@.#.#.@.@.@.@.#.@.@.@.|.J v.z / 1 0 9 ",
"w.V z v v x.y.@.@.z.A.@.@.@.@.@.B.C.@.@.@.@.@.@.@.@.D.( z v & z ",
"E.F.z (.z G.H.#.#.I.J.|.@.@.#.K K.J @.#.#.@.@.@.|.@.L.k & & & M.",
"{ N.t & d O.P.@.Q.R.S.@.~.J T.@.U.V.W.@.@.@.@.@.@.@.X.d d v Y.~ ",
"Y.a d d 7 v Z.`.L  +.+|.++@+#+#.$+%+&+*+=+#.@.@.@.#.-+t v d z b ",
"u ;+u w v >+,+'+)+@.@.@.!+~+{+@.#.+.]+'+'+^+#.@.@./+(+(.e V & f ",
"_+z z (.V :+<+'+[+@.@.|.}+|+W.#.@.@.[+'+'+'+1+@.|.2+9 9 j.3+w & ",
"4+5+w 9 v d 6+7+8+.+@.@.#.@.@.@.@.#.[+'+'+'+9+@.}+0+a+[ b+c+f.d+",
"e+f+g+z & A h+i+i+j+k+#.@.|.#.|.l+m+n+o+[+p+q+r+s+t+,.u+v+f.o.y ",
"e+x | w+& x+y+i+i+z+A+B+@.@.@.C+D+i+D+E+F+G+H+I+J+: < K+L+y h.M+",
"1 9 ( 3+& v N+i+O+P+Q+Q+#.#.@.R+i+i+y+S+T+U+V+9 9 * * ' ' W+| * ",
"k a ( w w d X+Y+Z+`+T.@.@.@.@. @i+i+.@+@@@@.#@$@e g 8.j x 1 %@6 ",
"9 d d & d w e &@*@=@-@|.@.@.@.;@>@i+,@'@|.#.2+)@^ 7 ( 1 !@* e z ",
"9 ~@w ;.u {@& ^ d ]@k+@.#.#.#.|.&+^@/@$+(@_@:@<@[@e & }@  * - |@",
"1@2@3@g.4@, | & f 5@|.|.|.|.#.#.|.#.6@7@8@B.#.9@3@n.j.' 0@W+a@: ",
"b@e.c@f.. f+| & ^ d@@.@.@.@.@.@.@.@.@.@.@.@.@.e@f@L+g@x h@i@j@k@",
"l@b+m@> M+x ' / w+n@#.|.#.@.#.#.|.#.@.#.|.#.@.o@p@F.9 * q@r@s@: ",
"9 | h.1 ' 8.1 / t@x.|.@.@.$.@.#.@.#.@.@.@.#.+.u@v d d , 6 8.j i ",
", 9 k & * w.9 ( _+v@Q+|.|.w@x@y@L I /+z@|.#.6@A@d d & ~@9 j.a t ",
"B@C@D@v h., z d ^ / E@F@G@H@I@J@K@L@M@N@B.@.O@P@v w d & & j 9 Q@",
"o.3@h.e+d+y w+9 R@z S@T@U@d.V@3@f., * Q@W@X@Y@v v d t 6 = Z@g@`@",
"f.f.y b+ #.#+#@#1 - ##t+: d.n.f.$#p.g@- ( %#&#*#& 9 ( - X =#-#v+"};
