/* XPM */
static char * foe_l1_xpm[] = {
"32 32 389 2",
"  	c #61790D",
". 	c #5E770B",
"+ 	c #5C7409",
"@ 	c #5C7509",
"# 	c #5F7609",
"$ 	c #62780B",
"% 	c #63790C",
"& 	c #647A0C",
"* 	c #6A7C21",
"= 	c #8C8B73",
"- 	c #8C8C73",
"; 	c #667B15",
"> 	c #607709",
", 	c #60770A",
"' 	c #60780B",
") 	c #637A0C",
"! 	c #637B0D",
"~ 	c #627A0C",
"{ 	c #5F770A",
"] 	c #5E7609",
"^ 	c #63790B",
"/ 	c #60770C",
"( 	c #536C0A",
"_ 	c #526D08",
": 	c #546F08",
"< 	c #627B0C",
"[ 	c #627A0D",
"} 	c #647C0E",
"| 	c #60780A",
"1 	c #5F7709",
"2 	c #5F7608",
"3 	c #61780A",
"4 	c #64790C",
"5 	c #63790A",
"6 	c #64790B",
"7 	c #667A16",
"8 	c #667A12",
"9 	c #617709",
"0 	c #61780B",
"a 	c #61770B",
"b 	c #62790C",
"c 	c #62790B",
"d 	c #61790A",
"e 	c #627809",
"f 	c #62770A",
"g 	c #586F09",
"h 	c #436004",
"i 	c #526D07",
"j 	c #62780A",
"k 	c #617809",
"l 	c #647C0D",
"m 	c #5F770B",
"n 	c #71752D",
"o 	c #6C7122",
"p 	c #63780A",
"q 	c #64780B",
"r 	c #62790A",
"s 	c #736A38",
"t 	c #7C6E3B",
"u 	c #7B6D3B",
"v 	c #796B39",
"w 	c #786F40",
"x 	c #797247",
"y 	c #637A0B",
"z 	c #63780B",
"A 	c #60770B",
"B 	c #5E770A",
"C 	c #7E6F3E",
"D 	c #9B6E5D",
"E 	c #A47562",
"F 	c #7B6140",
"G 	c #917556",
"H 	c #B78773",
"I 	c #D29C84",
"J 	c #DDA68C",
"K 	c #E2AA90",
"L 	c #E1A98F",
"M 	c #DBA48B",
"N 	c #CC9780",
"O 	c #B58672",
"P 	c #8E7456",
"Q 	c #766B35",
"R 	c #8B6D4C",
"S 	c #996B59",
"T 	c #8A6F51",
"U 	c #657A0C",
"V 	c #657A0B",
"W 	c #667C0D",
"X 	c #A97966",
"Y 	c #542C26",
"Z 	c #6C453A",
"` 	c #C5917B",
" .	c #E3AA91",
"..	c #E6AC92",
"+.	c #E5AC92",
"@.	c #E4AB91",
"#.	c #A87966",
"$.	c #936656",
"%.	c #522A25",
"&.	c #9C6F5D",
"*.	c #716B3F",
"=.	c #5B7308",
"-.	c #5C7507",
";.	c #647A0B",
">.	c #577109",
",.	c #627709",
"'.	c #966B5B",
").	c #7D5548",
"!.	c #DAA28A",
"~.	c #DDA58C",
"{.	c #B3836E",
"].	c #60372F",
"^.	c #9C6E5C",
"/.	c #766937",
"(.	c #5A7309",
"_.	c #587109",
":.	c #516C07",
"<.	c #657C0D",
"[.	c #657C0E",
"}.	c #637B0C",
"|.	c #775E3C",
"1.	c #D9A189",
"2.	c #E5AB92",
"3.	c #DBA38A",
"4.	c #A27360",
"5.	c #5E7509",
"6.	c #566F08",
"7.	c #647B0D",
"8.	c #667D0F",
"9.	c #667E0F",
"0.	c #647D0E",
"a.	c #5F790C",
"b.	c #5C7609",
"c.	c #656D23",
"d.	c #BC8974",
"e.	c #CE9A83",
"f.	c #6B652F",
"g.	c #61770A",
"h.	c #607809",
"i.	c #607A0C",
"j.	c #667E0E",
"k.	c #637C0E",
"l.	c #5E780C",
"m.	c #5B7509",
"n.	c #736735",
"o.	c #E0A88E",
"p.	c #A47664",
"q.	c #627A0B",
"r.	c #5D7509",
"s.	c #60790B",
"t.	c #A37462",
"u.	c #CE9881",
"v.	c #837342",
"w.	c #B78671",
"x.	c #796D3A",
"y.	c #756B37",
"z.	c #C6917A",
"A.	c #D69F87",
"B.	c #DCA48B",
"C.	c #D59F87",
"D.	c #E1A88F",
"E.	c #997857",
"F.	c #63770A",
"G.	c #6B7C27",
"H.	c #6A6023",
"I.	c #CA947D",
"J.	c #D09B83",
"K.	c #C4917C",
"L.	c #C08E79",
"M.	c #A67863",
"N.	c #63780C",
"O.	c #6B7C23",
"P.	c #667A15",
"Q.	c #757936",
"R.	c #C18D77",
"S.	c #C8947D",
"T.	c #4B2319",
"U.	c #B58570",
"V.	c #E4AA91",
"W.	c #A97B67",
"X.	c #653F34",
"Y.	c #DAA38A",
"Z.	c #A57663",
"`.	c #697C20",
" +	c #BB8B6D",
".+	c #ECB38C",
"++	c #865C4C",
"@+	c #CB967F",
"#+	c #A6715E",
"$+	c #9C614F",
"%+	c #DAA289",
"&+	c #AE7E6A",
"*+	c #70473A",
"=+	c #E6AD8F",
"-+	c #E5AD8F",
";+	c #947350",
">+	c #726C38",
",+	c #E2AB7E",
"'+	c #F8BF85",
")+	c #EEB589",
"!+	c #BE856D",
"~+	c #C66F57",
"{+	c #D8A188",
"]+	c #ECB38B",
"^+	c #F0B786",
"/+	c #73682F",
"(+	c #617609",
"_+	c #647A0D",
":+	c #6E6A37",
"<+	c #E1A97D",
"[+	c #EAB280",
"}+	c #D6A177",
"|+	c #E2A98F",
"1+	c #C8937C",
"2+	c #AA6A55",
"3+	c #DEA68D",
"4+	c #F6BE85",
"5+	c #E8AE8F",
"6+	c #AE7D69",
"7+	c #657A0D",
"8+	c #657B0D",
"9+	c #657E0E",
"0+	c #627B0D",
"a+	c #5E760B",
"b+	c #985C4A",
"c+	c #E12A0E",
"d+	c #EF290A",
"e+	c #C95341",
"f+	c #E3AA8F",
"g+	c #E7AE8E",
"h+	c #6A7122",
"i+	c #61780C",
"j+	c #637A0D",
"k+	c #617B0E",
"l+	c #5D770B",
"m+	c #C54331",
"n+	c #F2290A",
"o+	c #EC290B",
"p+	c #C6927B",
"q+	c #C69279",
"r+	c #D7A189",
"s+	c #E6AE8C",
"t+	c #F5BD86",
"u+	c #EDB48A",
"v+	c #DBA38B",
"w+	c #AB7B69",
"x+	c #68701F",
"y+	c #667A0C",
"z+	c #61770C",
"A+	c #60780C",
"B+	c #5F780B",
"C+	c #617A0C",
"D+	c #60790C",
"E+	c #5D770A",
"F+	c #767535",
"G+	c #CF2B12",
"H+	c #D3290E",
"I+	c #9C5F4E",
"J+	c #D7A188",
"K+	c #D69F86",
"L+	c #D73B25",
"M+	c #F1290A",
"N+	c #CF4633",
"O+	c #B88670",
"P+	c #C08D77",
"Q+	c #AC7D69",
"R+	c #9F705D",
"S+	c #65522F",
"T+	c #696D1B",
"U+	c #62780C",
"V+	c #61790C",
"W+	c #BD2B13",
"X+	c #EA290B",
"Y+	c #D0280E",
"Z+	c #C24D3A",
"`+	c #AA7B68",
" @	c #C97863",
".@	c #E9290B",
"+@	c #BF2A11",
"@@	c #8B6051",
"#@	c #CD9981",
"$@	c #E1A990",
"%@	c #A06C59",
"&@	c #60760A",
"*@	c #766A0C",
"=@	c #9F321F",
"-@	c #C74532",
";@	c #C67965",
">@	c #E12A0D",
",@	c #CE2A0F",
"'@	c #DEA68C",
")@	c #996C5A",
"!@	c #697228",
"~@	c #687F0F",
"{@	c #666F1D",
"]@	c #745E1B",
"^@	c #785043",
"/@	c #BC8A74",
"(@	c #DA321A",
"_@	c #DC290D",
":@	c #CC513D",
"<@	c #AF7E69",
"[@	c #62770B",
"}@	c #5F760A",
"|@	c #657B0C",
"1@	c #617A0A",
"2@	c #736A32",
"3@	c #E2A990",
"4@	c #D59981",
"5@	c #CD6D59",
"6@	c #AB4E3E",
"7@	c #B86D59",
"8@	c #D6A087",
"9@	c #B07F6C",
"0@	c #D29C85",
"a@	c #9E715F",
"b@	c #667A0D",
"c@	c #456005",
"d@	c #526B07",
"e@	c #677E0F",
"f@	c #9D6E5B",
"g@	c #CF9981",
"h@	c #BF8B76",
"i@	c #C08C77",
"j@	c #B1816D",
"k@	c #667C0E",
"l@	c #60790D",
"m@	c #5F790B",
"n@	c #5B7409",
"o@	c #546E07",
"p@	c #4E6A08",
"q@	c #486405",
"r@	c #5E760A",
"s@	c #9E6C5A",
"t@	c #B88772",
"u@	c #878260",
"v@	c #677F0F",
"w@	c #5F780D",
"x@	c #5B7408",
"y@	c #516A07",
"z@	c #526C07",
"A@	c #906454",
"B@	c #B68571",
"C@	c #837F3E",
"D@	c #5F780C",
"E@	c #896946",
"F@	c #66632C",
"G@	c #C18E78",
"H@	c #CC967F",
"I@	c #D79F87",
"J@	c #80703E",
"K@	c #61790B",
"L@	c #A37766",
"M@	c #E5AB91",
"N@	c #CE9882",
"O@	c #746832",
"P@	c #67722A",
"Q@	c #5D6021",
"R@	c #5F6020",
"S@	c #5B5E21",
"T@	c #67583A",
"U@	c #6D7226",
"V@	c #647A0A",
"W@	c #667B0C",
"X@	c #647B0C",
"Y@	c #617B0D",
"Z@	c #5C7508",
"`@	c #64790A",
" #	c #636F23",
".#	c #817140",
"+#	c #726831",
"@#	c #647D0F",
"##	c #5C750A",
"$#	c #806749",
"%#	c #B1826E",
"&#	c #7A6D39",
"*#	c #637A0A",
"=#	c #5C760B",
"-#	c #597308",
";#	c #65790D",
">#	c #6A7B22",
",#	c #6A7C27",
"'#	c #647D0D",
")#	c #5A7408",
"!#	c #5D760A",
"~#	c #576F09",
"{#	c #5B730A",
"]#	c #5C740B",
"^#	c #5B7309",
"  . + @ # $ % & * = - ; > , ' ) ! ~ { ] ] , , ^ / ( _ : < [ } } ",
"| 1 , 2 3 > 4 5 6 7 8 ^ & 9 0 a b c d b 3 e 3 3 f g h i , 0 ~ b ",
"d j 9 k ^ l m 9 n o p q r s t u v w x c ^ ) 3 y c f + z 4 z % % ",
"z c z z A ! B C D E F G H I J K L M N O P Q R S T { # $ U & V 5 ",
"W 4 j 6 j r q X Y Z `  ...+...+.+.....+.@.#.$.%.&.*.=.-.> ;.6 j ",
">.W 6 4 k ,.& '.).!.......................~.{.].^./.(.@ , c { _.",
":.<.[.}.' { | |.1.......+...+.+...........2...3.4.] 5.] , 6 c 6.",
"7.8.9.0.a.b.c.d.................................e.f.g.9 $ h.% ' ",
"i.0.j.k.l.m.n.o.+.2.......2...+...2...+.+.+.+.+.2.p.6 q.> $ { r.",
"' ~ }.b s.] t.....................................u.v.p j > | { ",
"c a 0 % j 0 w.........2.....+.+.........+.......2.K x.p 6 ^ j , ",
"j ^ p j $ y.z.....A.B...........C.D.................E.p p j ;.F.",
"G.^ ^ ^ z H.I.+.+.J.K.2.....+.L L.K ..+.+.......2...M.j ,.j N.O.",
"- P.p 6 6 Q.R...S.T.U...~.K V...W.X.Y...............Z.6 ^ r `.= ",
"8 j 6 p r p  +.+C.++@+2.#+$+%++.&+*+M =+-++.......+.;+e 6 6 9 P.",
"4 ^ ;.5 ,.>+,+'+)+......!+~+{+..+. .]+'+'+^++.....B./+p U q (+q ",
"^ U _+q.c :+<+[+}+|+..2.1+2+3++.....4+'+'+'+5+..2.6+p ;.,.j j 7+",
"8+9.9+0+. a+b+c+d+e+f+..+.........+.4+'+'+'+g+..1+h+6 p c U i+j+",
"l j.9.k+l+(.m+n+n+o+p++...2.+.!.q+r+s+t+4+u+v+w+x+y+V ^ j z+A+B+",
"C+7.l D+E+F+G+n+n+H+I+J+....K+L+M+N+O+P+Q+R+S+T+;.6 6 ^ U+b m B+",
", b V+' ' , W+X+Y+Z+N `+2.+. @n+n+.@+@@@#@$@%@4 ~ ^ p ^ _+$ c 0 ",
"3 &@0 m | g.*@=@-@A.V.......;@n+n+>@,@'@@...)@!@| ;.6 U U $ 9 z ",
"j 5 , ~@0 $ e {@]@^@/@2.....J+(@n+_@:@D.2.+.<@Q ^ 5 U 6 ^ 6 6 c ",
"[@{ , } }@^ 5 |@1@2@3@..+.+.2.4@5@6@7@8@1.9@0@a@& ^ b@q W U y c ",
"@ c@V+d@' q.k.e@} f@2.2.2.2.+.+.2.V.g@h@i@Y.+.j@^ b ) k@8.e@l@m@",
"n@o@p@q@m r@D+7.C+s@..........................t@u@b A+[ 9.v@0.w@",
"@ x@y@z@, c N.0 3 A@+.2.+...+.+.2.+...+.2.+...B@C@' m C+! } 0+D@",
"1 | g.3 ) 6 6 p ;.x.+.....@...+...+.......+. .E@% 0 g.' 0 7.b c ",
"r 9 q.c y ^ 6 6 6 F@8@2.2.G@H@I@M J B.K+2.+.3+J@$ c F., ^ z c ) ",
"K@c | ^ ^ 6 U p & 6 L@M@N@O@P@Q@R@R@S@T@C...G@U@6 j ) 7.p V@W@X@",
"Y@r@Z@] 3 r 6 p p `@ #.#+#, ) 9.e@@#a.##$#%#&#*#c U+l 8+B+7.e@j.",
"k+=#-#=.{ $ c ^ ;#>#,#$ { r@i.'#9.k.a.@ )#!#{ 0 ~#{#]#^#0+l 9.9."};
