/* XPM */
static char * foe_l1_xpm[] = {
"32 32 388 2",
"  	c #647C0E",
". 	c #627A0D",
"+ 	c #627B0C",
"@ 	c #546F08",
"# 	c #526D08",
"$ 	c #536C0A",
"% 	c #60770C",
"& 	c #63790B",
"* 	c #60770A",
"= 	c #5E7609",
"- 	c #5F770A",
"; 	c #627A0C",
"> 	c #637B0D",
", 	c #637A0C",
"' 	c #60780B",
") 	c #607709",
"! 	c #667B15",
"~ 	c #8C8C73",
"{ 	c #8C8B73",
"] 	c #6A7C21",
"^ 	c #647A0C",
"/ 	c #63790C",
"( 	c #62780B",
"_ 	c #5F7609",
": 	c #5C7509",
"< 	c #5C7409",
"[ 	c #5E770B",
"} 	c #61790D",
"| 	c #62790C",
"1 	c #61780B",
"2 	c #526D07",
"3 	c #436004",
"4 	c #586F09",
"5 	c #62770A",
"6 	c #61780A",
"7 	c #627809",
"8 	c #61790A",
"9 	c #62790B",
"0 	c #61770B",
"a 	c #617709",
"b 	c #667A12",
"c 	c #667A16",
"d 	c #64790B",
"e 	c #63790A",
"f 	c #64790C",
"g 	c #617809",
"h 	c #5F7608",
"i 	c #5F7709",
"j 	c #60780A",
"k 	c #63780B",
"l 	c #71752D",
"m 	c #6A6F22",
"n 	c #746B38",
"o 	c #7B6D3B",
"p 	c #7B6C3B",
"q 	c #796C39",
"r 	c #797040",
"s 	c #797147",
"t 	c #62790A",
"u 	c #64780B",
"v 	c #63780A",
"w 	c #657A0C",
"x 	c #5F770B",
"y 	c #647C0D",
"z 	c #62780A",
"A 	c #657A0B",
"B 	c #7E703E",
"C 	c #9B6E5D",
"D 	c #A47562",
"E 	c #7B6240",
"F 	c #927556",
"G 	c #B78773",
"H 	c #D29C84",
"I 	c #DDA68C",
"J 	c #E2AA90",
"K 	c #E1A98F",
"L 	c #DBA48B",
"M 	c #CC9780",
"N 	c #B58672",
"O 	c #8E7456",
"P 	c #766A35",
"Q 	c #8B6D4C",
"R 	c #996B59",
"S 	c #896E51",
"T 	c #5E770A",
"U 	c #60770B",
"V 	c #647A0B",
"W 	c #5C7507",
"X 	c #5B7308",
"Y 	c #5B7509",
"Z 	c #A97966",
"` 	c #542C26",
" .	c #6C453A",
"..	c #C5917B",
"+.	c #E3AA91",
"@.	c #E6AC92",
"#.	c #E5AC92",
"$.	c #E4AB91",
"%.	c #A87966",
"&.	c #936656",
"*.	c #522A25",
"=.	c #9C6F5D",
"-.	c #756E3F",
";.	c #667C0D",
">.	c #587109",
",.	c #5A7309",
"'.	c #966B5B",
").	c #7D5548",
"!.	c #DAA28A",
"~.	c #DDA58C",
"{.	c #B3836E",
"].	c #60372F",
"^.	c #9C6E5C",
"/.	c #7A6D37",
"(.	c #627709",
"_.	c #577109",
":.	c #566F08",
"<.	c #5E7509",
"[.	c #765D3C",
"}.	c #D9A189",
"|.	c #E5AB92",
"1.	c #DBA38A",
"2.	c #A27360",
"3.	c #637B0C",
"4.	c #657C0E",
"5.	c #657C0D",
"6.	c #516C07",
"7.	c #607809",
"8.	c #61770A",
"9.	c #697024",
"0.	c #BC8974",
"a.	c #CE9A83",
"b.	c #69632F",
"c.	c #5C7609",
"d.	c #5F790C",
"e.	c #647D0E",
"f.	c #667E0F",
"g.	c #667D0F",
"h.	c #647B0D",
"i.	c #5D7509",
"j.	c #627A0B",
"k.	c #E0A88E",
"l.	c #A47664",
"m.	c #5E780C",
"n.	c #637C0E",
"o.	c #667E0E",
"p.	c #607A0C",
"q.	c #A37462",
"r.	c #CE9881",
"s.	c #817142",
"t.	c #60790B",
"u.	c #B78671",
"v.	c #796D3A",
"w.	c #63770A",
"x.	c #766B37",
"y.	c #C6917A",
"z.	c #D69F87",
"A.	c #DCA48B",
"B.	c #D59F87",
"C.	c #E1A88F",
"D.	c #997857",
"E.	c #6B7C23",
"F.	c #63780C",
"G.	c #6A6123",
"H.	c #CA947D",
"I.	c #D09B83",
"J.	c #C4917C",
"K.	c #C08E79",
"L.	c #A67863",
"M.	c #6B7C27",
"N.	c #697C20",
"O.	c #727835",
"P.	c #C18D77",
"Q.	c #C8947D",
"R.	c #4B2319",
"S.	c #B58570",
"T.	c #E4AA91",
"U.	c #A97B67",
"V.	c #653F34",
"W.	c #DAA38A",
"X.	c #A57663",
"Y.	c #667A15",
"Z.	c #BB8B6D",
"`.	c #ECB38C",
" +	c #865C4C",
".+	c #CB967F",
"++	c #A6715E",
"@+	c #9C614F",
"#+	c #DAA289",
"$+	c #AE7E6A",
"%+	c #70473A",
"&+	c #E6AD8F",
"*+	c #E5AD8F",
"=+	c #947450",
"-+	c #617609",
";+	c #716A38",
">+	c #E2AB7E",
",+	c #F8BF85",
"'+	c #EEB589",
")+	c #BE856D",
"!+	c #C66F57",
"~+	c #D8A188",
"{+	c #ECB38B",
"]+	c #F0B786",
"^+	c #746930",
"/+	c #657A0D",
"(+	c #6F6937",
"_+	c #E1A97D",
":+	c #EAB280",
"<+	c #D6A177",
"[+	c #E2A98F",
"}+	c #C8937C",
"|+	c #AA6A55",
"1+	c #DEA68D",
"2+	c #F6BE85",
"3+	c #E8AE8F",
"4+	c #AE7D69",
"5+	c #647A0D",
"6+	c #637A0D",
"7+	c #61780C",
"8+	c #985C4A",
"9+	c #E12A0E",
"0+	c #EF290A",
"a+	c #C95341",
"b+	c #E3AA8F",
"c+	c #E7AE8E",
"d+	c #656D21",
"e+	c #5E760B",
"f+	c #627B0D",
"g+	c #657E0E",
"h+	c #657B0D",
"i+	c #5F780B",
"j+	c #60780C",
"k+	c #61770C",
"l+	c #C54331",
"m+	c #F2290A",
"n+	c #EC290B",
"o+	c #C6927B",
"p+	c #C69279",
"q+	c #D7A189",
"r+	c #E6AE8C",
"s+	c #F5BD86",
"t+	c #EDB48A",
"u+	c #DBA38B",
"v+	c #AB7B69",
"w+	c #646D1F",
"x+	c #5A7408",
"y+	c #5D770B",
"z+	c #617B0E",
"A+	c #62780C",
"B+	c #7A7A36",
"C+	c #CF2B12",
"D+	c #D3290E",
"E+	c #9C5F4E",
"F+	c #D7A188",
"G+	c #D69F86",
"H+	c #D73B25",
"I+	c #F1290A",
"J+	c #CF4633",
"K+	c #B88670",
"L+	c #C08D77",
"M+	c #AC7D69",
"N+	c #9F705D",
"O+	c #66532F",
"P+	c #696F1B",
"Q+	c #5E7608",
"R+	c #5D770A",
"S+	c #60790C",
"T+	c #617A0C",
"U+	c #BD2B13",
"V+	c #EA290B",
"W+	c #D0280E",
"X+	c #C24D3A",
"Y+	c #AA7B68",
"Z+	c #C97863",
"`+	c #E9290B",
" @	c #BF2A11",
".@	c #8B6051",
"+@	c #CD9981",
"@@	c #E1A990",
"#@	c #A06C59",
"$@	c #61790C",
"%@	c #786C0E",
"&@	c #9F321F",
"*@	c #C74532",
"=@	c #C67965",
"-@	c #E12A0D",
";@	c #CE2A0F",
">@	c #DEA68C",
",@	c #996C5A",
"'@	c #697228",
")@	c #60760A",
"!@	c #656E1C",
"~@	c #745E1B",
"{@	c #785043",
"]@	c #BC8A74",
"^@	c #DA321A",
"/@	c #DC290D",
"(@	c #CC513D",
"_@	c #AF7E69",
":@	c #687F0F",
"<@	c #637A0B",
"[@	c #667A0D",
"}@	c #726832",
"|@	c #E2A990",
"1@	c #D59981",
"2@	c #CD6D59",
"3@	c #AB4E3E",
"4@	c #B86D59",
"5@	c #D6A087",
"6@	c #B07F6C",
"7@	c #D29C85",
"8@	c #9E715F",
"9@	c #657B0C",
"0@	c #5F760A",
"a@	c #62770B",
"b@	c #5F790B",
"c@	c #637D0E",
"d@	c #677E0F",
"e@	c #667C0E",
"f@	c #9D6E5B",
"g@	c #CF9981",
"h@	c #BF8B76",
"i@	c #C08C77",
"j@	c #B1816D",
"k@	c #526B07",
"l@	c #456004",
"m@	c #5F780D",
"n@	c #677F0F",
"o@	c #9E6C5A",
"p@	c #B88772",
"q@	c #878360",
"r@	c #5E760A",
"s@	c #486405",
"t@	c #4E6A08",
"u@	c #546E07",
"v@	c #5B7409",
"w@	c #5F780C",
"x@	c #657D0E",
"y@	c #906454",
"z@	c #B68571",
"A@	c #827E3E",
"B@	c #526C07",
"C@	c #516A07",
"D@	c #5B7408",
"E@	c #667B0E",
"F@	c #896946",
"G@	c #68652D",
"H@	c #C18E78",
"I@	c #CC967F",
"J@	c #D79F87",
"K@	c #80713E",
"L@	c #647B0C",
"M@	c #667B0C",
"N@	c #647A0A",
"O@	c #A37766",
"P@	c #E5AB91",
"Q@	c #CE9882",
"R@	c #736933",
"S@	c #66732A",
"T@	c #5E6121",
"U@	c #5F6020",
"V@	c #5F5F1F",
"W@	c #5D5E21",
"X@	c #69593A",
"Y@	c #6D7226",
"Z@	c #61790B",
"`@	c #637A0A",
" #	c #616E24",
".#	c #7E6F40",
"+#	c #6F6631",
"@#	c #647D0F",
"##	c #816749",
"$#	c #B1826E",
"%#	c #7B6E39",
"&#	c #5C7508",
"*#	c #617B0D",
"=#	c #5B7309",
"-#	c #5C740B",
";#	c #5B730A",
">#	c #576F09",
",#	c #5D760A",
"'#	c #647D0D",
")#	c #6A7C27",
"!#	c #6A7B22",
"~#	c #65790D",
"{#	c #597308",
"]#	c #5C760B",
"    . + @ # $ % & * * = = - ; > , ' * ) ! ~ { ] ^ / ( _ : < [ } ",
"| ; 1 * 2 3 4 5 6 6 7 6 | 8 9 | 0 1 a ^ & b c d e f g 6 h * i j ",
"/ / k f k < 5 9 l m , & 9 n o p q r s t u v w & a x y & g a z 8 ",
"e A ^ w ( _ - B C D E F G H I J K L M N O P Q R S T > U k k 9 k ",
"z d V ) W X Y Z `  ...+.@.#.@.#.#.@.@.#.$.%.&.*.=.-.t z d z f ;.",
">.- 9 * : ,.: '.).!.@.@.@.@.@.@.@.@.@.@.@.~.{.].^./.(.g f d ;._.",
":.9 d * = <.= [.}.@.@.@.#.@.#.#.@.@.@.@.@.|.@.1.2.j - ' 3.4.5.6.",
"' / 7.( a 8.9.0.@.@.@.@.@.@.@.@.@.@.@.@.@.@.@.@.a.b.c.d.e.f.g.h.",
"i.- ( ) j.d P k.#.|.@.@.@.|.@.#.@.|.@.#.#.#.#.#.|.l.Y m.n.o.e.p.",
"- j ) z v d q.@.@.@.@.@.@.@.@.@.@.@.@.@.@.@.@.@.@.r.s.t.| 3.; ' ",
"* z & d v z u.@.@.@.@.|.@.@.#.#.@.@.@.@.#.@.@.@.|.J v.z / 1 0 9 ",
"w.V z v v x.y.@.@.z.A.@.@.@.@.@.B.C.@.@.@.@.@.@.@.@.D.( z v & z ",
"E.F.z (.z G.H.#.#.I.J.|.@.@.#.K K.J @.#.#.@.@.@.|.@.L.k & & & M.",
"{ N.t & d O.P.@.Q.R.S.@.~.J T.@.U.V.W.@.@.@.@.@.@.@.X.d d v Y.~ ",
"Y.a d d 7 v Z.`.B. +.+|.++@+#+#.$+%+L &+*+#.@.@.@.#.=+t v d z b ",
"u -+u w v ;+>+,+'+@.@.@.)+!+~+@.#.+.{+,+,+]+#.@.@.A.^+(.e V & f ",
"/+z z (.V (+_+:+<+[+@.|.}+|+1+#.@.@.2+,+,+,+3+@.|.4+9 9 j.5+w & ",
"6+7+w 9 v d 8+9+0+a+b+@.#.@.@.@.@.#.2+,+,+,+c+@.}+d+e+[ f+g+f.h+",
"i+j+k+z & A l+m+m+n+o+#.@.|.#.!.p+q+r+s+2+t+u+v+w+x+,.y+z+f.o.y ",
"i+x | A+& B+C+m+m+D+E+F+@.@.G+H+I+J+K+L+M+N+O+P+Q+: < R+S+y h.T+",
"1 9 ( 5+& v U+V+W+X+M Y+|.#.Z+m+m+`+ @.@+@@@#@9 9 * * ' ' $@| * ",
"k a ( w w d %@&@*@z.T.@.@.@.=@m+m+-@;@>@$.@.,@'@e g 8.j x 1 )@6 ",
"9 d d & d w e !@~@{@]@|.@.@.F+^@m+/@(@C.|.#._@P ^ 7 ( 1 :@* e z ",
"9 <@w ;.u [@& ^ d }@|@@.#.#.|.1@2@3@4@5@}.6@7@8@9@e & 0@  * - a@",
"b@c@d@g.e@, | & f f@|.|.|.|.#.#.|.T.g@h@i@W.#.j@d@n.j.' k@$@l@: ",
"m@e.n@f.. j+| & ^ o@@.@.@.@.@.@.@.@.@.@.@.@.@.p@q@S+r@x s@t@u@v@",
"w@f+x@> T+x ' / A+y@#.|.#.@.#.#.|.#.@.#.|.#.@.z@A@F.9 * B@C@D@: ",
"9 | h.1 ' 8.1 / E@v.#.@.@.$.@.#.@.#.@.@.@.#.+.F@v d d , 6 8.j i ",
", 9 k & * w.9 ( /+G@5@|.|.H@I@J@L I A.G+|.#.1+K@d d & <@9 j.a t ",
"L@M@N@v h., z d ^ / O@P@Q@R@S@T@U@V@W@X@B.@.H@Y@v w d & & j 9 Z@",
"o.d@h.i+h+y A+9 `@z  #.#+#d.@#d@f., * Z@##$#%#v v d t 6 = &#r@*#",
"f.f.y f+=#-#;#>#1 - ,#x+: d.n.f.'#p.r@- ( )#!#~#& 9 ( - X {#]#z+"};
