/* XPM */
static char * foe_l3_xpm[] = {
"32 32 395 2",
"  	c #647C0E",
". 	c #627A0D",
"+ 	c #627B0C",
"@ 	c #546F08",
"# 	c #526D08",
"$ 	c #536C0A",
"% 	c #60770C",
"& 	c #63790B",
"* 	c #60770A",
"= 	c #5E7609",
"- 	c #5F770A",
"; 	c #627A0C",
"> 	c #637B0D",
", 	c #637A0C",
"' 	c #60780B",
") 	c #607709",
"! 	c #667B15",
"~ 	c #8C8C73",
"{ 	c #8C8B73",
"] 	c #6A7C21",
"^ 	c #647A0C",
"/ 	c #63790C",
"( 	c #62780B",
"_ 	c #5F7609",
": 	c #5C7509",
"< 	c #5C7409",
"[ 	c #5E770B",
"} 	c #61790D",
"| 	c #62790C",
"1 	c #61780B",
"2 	c #526D07",
"3 	c #436004",
"4 	c #586F09",
"5 	c #62770A",
"6 	c #61780A",
"7 	c #627809",
"8 	c #61790A",
"9 	c #62790B",
"0 	c #61770B",
"a 	c #617709",
"b 	c #667A12",
"c 	c #667A16",
"d 	c #64790B",
"e 	c #63790A",
"f 	c #64790C",
"g 	c #617809",
"h 	c #5F7608",
"i 	c #5F7709",
"j 	c #60780A",
"k 	c #63780B",
"l 	c #887747",
"m 	c #756D3D",
"n 	c #767731",
"o 	c #746B38",
"p 	c #7B6D3B",
"q 	c #7B6C3B",
"r 	c #796C39",
"s 	c #797040",
"t 	c #797147",
"u 	c #62790A",
"v 	c #64780B",
"w 	c #63780A",
"x 	c #657A0C",
"y 	c #5F770B",
"z 	c #647C0D",
"A 	c #62780A",
"B 	c #657A0B",
"C 	c #896947",
"D 	c #9B6E5D",
"E 	c #A47562",
"F 	c #7B6240",
"G 	c #A07564",
"H 	c #B78773",
"I 	c #D29C84",
"J 	c #DDA68C",
"K 	c #E2AA90",
"L 	c #E1A98F",
"M 	c #DBA48B",
"N 	c #CC9780",
"O 	c #B58672",
"P 	c #8E7456",
"Q 	c #766A35",
"R 	c #956857",
"S 	c #996B59",
"T 	c #896E51",
"U 	c #5E770A",
"V 	c #60770B",
"W 	c #647A0B",
"X 	c #5C7507",
"Y 	c #5B7308",
"Z 	c #5B7509",
"` 	c #A97966",
" .	c #542C26",
"..	c #6C453A",
"+.	c #C5917B",
"@.	c #E3AA91",
"#.	c #E6AC92",
"$.	c #E5AC92",
"%.	c #E4AB91",
"&.	c #A87966",
"*.	c #936656",
"=.	c #522A25",
"-.	c #9C6F5D",
";.	c #756E3F",
">.	c #667C0D",
",.	c #587109",
"'.	c #5A7309",
").	c #966B5B",
"!.	c #7D5548",
"~.	c #DAA28A",
"{.	c #DDA58C",
"].	c #B3836E",
"^.	c #60372F",
"/.	c #9C6E5C",
"(.	c #7A6D37",
"_.	c #627709",
":.	c #577109",
"<.	c #566F08",
"[.	c #5E7509",
"}.	c #765D3C",
"|.	c #D9A189",
"1.	c #E5AB92",
"2.	c #DBA38A",
"3.	c #A27360",
"4.	c #637B0C",
"5.	c #657C0E",
"6.	c #657C0D",
"7.	c #516C07",
"8.	c #607809",
"9.	c #61770A",
"0.	c #697024",
"a.	c #BC8974",
"b.	c #CE9A83",
"c.	c #7F6A51",
"d.	c #5C7609",
"e.	c #5F790C",
"f.	c #647D0E",
"g.	c #667E0F",
"h.	c #667D0F",
"i.	c #647B0D",
"j.	c #5D7509",
"k.	c #627A0B",
"l.	c #7F6342",
"m.	c #E0A88E",
"n.	c #A47664",
"o.	c #5E780C",
"p.	c #637C0E",
"q.	c #667E0E",
"r.	c #607A0C",
"s.	c #A37462",
"t.	c #CE9881",
"u.	c #817142",
"v.	c #60790B",
"w.	c #B78671",
"x.	c #8D6F4F",
"y.	c #63770A",
"z.	c #766B37",
"A.	c #C6917A",
"B.	c #D49D86",
"C.	c #DCA38B",
"D.	c #D59F87",
"E.	c #E1A88F",
"F.	c #A0715F",
"G.	c #6B7C23",
"H.	c #63780C",
"I.	c #6A6123",
"J.	c #CA947D",
"K.	c #D09B83",
"L.	c #C4917C",
"M.	c #C08E79",
"N.	c #A67863",
"O.	c #6B7C27",
"P.	c #697C20",
"Q.	c #727835",
"R.	c #C18D77",
"S.	c #C8947D",
"T.	c #4A231A",
"U.	c #B58570",
"V.	c #E4AA91",
"W.	c #A97B67",
"X.	c #653F34",
"Y.	c #DAA38A",
"Z.	c #A57663",
"`.	c #667A15",
" +	c #7A7935",
".+	c #BB8B6D",
"++	c #ECB38C",
"@+	c #865C4C",
"#+	c #CB967F",
"$+	c #A6715E",
"%+	c #9C614F",
"&+	c #DAA289",
"*+	c #AE7E6A",
"=+	c #70473A",
"-+	c #E6AD8F",
";+	c #E5AD8F",
">+	c #A1715D",
",+	c #617609",
"'+	c #6C6630",
")+	c #E2AB7E",
"!+	c #F8BF85",
"~+	c #EEB589",
"{+	c #BE856D",
"]+	c #C66F57",
"^+	c #D8A188",
"/+	c #ECB38B",
"(+	c #F0B786",
"_+	c #DCA48B",
":+	c #746930",
"<+	c #657A0D",
"[+	c #6A642B",
"}+	c #E1A97D",
"|+	c #EAB280",
"1+	c #D6A177",
"2+	c #C8937C",
"3+	c #AA6A55",
"4+	c #DEA68D",
"5+	c #F6BE85",
"6+	c #E8AE8F",
"7+	c #AE7D69",
"8+	c #757325",
"9+	c #647A0D",
"0+	c #637A0D",
"a+	c #61780C",
"b+	c #747836",
"c+	c #9C5F4C",
"d+	c #E12A0E",
"e+	c #EF290A",
"f+	c #C95341",
"g+	c #E3AA90",
"h+	c #E7AE8E",
"i+	c #C8937D",
"j+	c #8F6541",
"k+	c #5E760B",
"l+	c #627B0D",
"m+	c #657E0E",
"n+	c #657B0D",
"o+	c #5F780B",
"p+	c #60780C",
"q+	c #61770C",
"r+	c #C64533",
"s+	c #F2290A",
"t+	c #EC290B",
"u+	c #C6927C",
"v+	c #DAA38B",
"w+	c #CA957E",
"x+	c #DFA78E",
"y+	c #EAB18E",
"z+	c #EDB48A",
"A+	c #DBA38B",
"B+	c #AC7C69",
"C+	c #78672F",
"D+	c #5A7408",
"E+	c #5D770B",
"F+	c #617B0E",
"G+	c #62780C",
"H+	c #7A7A36",
"I+	c #CB341D",
"J+	c #D0290E",
"K+	c #9D6351",
"L+	c #D59E86",
"M+	c #D73B25",
"N+	c #F1290A",
"O+	c #CF4633",
"P+	c #B98772",
"Q+	c #C28E79",
"R+	c #AC7D6A",
"S+	c #9F705D",
"T+	c #66532F",
"U+	c #696F1B",
"V+	c #5E7608",
"W+	c #5D770A",
"X+	c #60790C",
"Y+	c #617A0C",
"Z+	c #B1341F",
"`+	c #EA290B",
" @	c #D0280E",
".@	c #C3503D",
"+@	c #AA7B68",
"@@	c #C97863",
"#@	c #E9290B",
"$@	c #BF2A11",
"%@	c #8D6151",
"&@	c #CD9780",
"*@	c #E2A990",
"=@	c #A06C59",
"-@	c #61790C",
";@	c #786C0E",
">@	c #943B28",
",@	c #C74532",
"'@	c #D7A087",
")@	c #C77965",
"!@	c #E12A0D",
"~@	c #CE2A0F",
"{@	c #996C5A",
"]@	c #697228",
"^@	c #60760A",
"/@	c #656E1C",
"(@	c #685E1F",
"_@	c #7A5347",
":@	c #BD8B75",
"<@	c #D69F87",
"[@	c #DA321A",
"}@	c #DC290D",
"|@	c #CC513D",
"1@	c #B1816C",
"2@	c #8E6F4E",
"3@	c #687F0F",
"4@	c #637A0B",
"5@	c #667A0D",
"6@	c #726832",
"7@	c #D69A82",
"8@	c #CE6E5A",
"9@	c #AB4E3E",
"0@	c #B86D59",
"a@	c #B68470",
"b@	c #9E715F",
"c@	c #657B0C",
"d@	c #5F760A",
"e@	c #62770B",
"f@	c #5F790B",
"g@	c #637D0E",
"h@	c #677E0F",
"i@	c #667C0E",
"j@	c #9B6C5A",
"k@	c #CF9A82",
"l@	c #BF8B76",
"m@	c #C08C77",
"n@	c #B1816D",
"o@	c #526B07",
"p@	c #456004",
"q@	c #5F780D",
"r@	c #677F0F",
"s@	c #A26C5A",
"t@	c #B88772",
"u@	c #878360",
"v@	c #5E760A",
"w@	c #486405",
"x@	c #4E6A08",
"y@	c #546E07",
"z@	c #5B7409",
"A@	c #5F780C",
"B@	c #657D0E",
"C@	c #906454",
"D@	c #B68571",
"E@	c #827E3E",
"F@	c #526C07",
"G@	c #516A07",
"H@	c #5B7408",
"I@	c #667B0E",
"J@	c #786142",
"K@	c #95644F",
"L@	c #66652C",
"M@	c #D49E86",
"N@	c #C18E78",
"O@	c #CC967F",
"P@	c #D79F87",
"Q@	c #D69F86",
"R@	c #786B36",
"S@	c #647B0C",
"T@	c #667B0C",
"U@	c #647A0A",
"V@	c #A37766",
"W@	c #E5AB91",
"X@	c #CE9882",
"Y@	c #795F3C",
"Z@	c #666732",
"`@	c #5E6121",
" #	c #5F6020",
".#	c #5F5F1F",
"+#	c #5D5E21",
"@#	c #6A593A",
"##	c #6F7328",
"$#	c #61790B",
"%#	c #637A0A",
"&#	c #616E24",
"*#	c #7E6F40",
"=#	c #6F6631",
"-#	c #647D0F",
";#	c #816749",
">#	c #B3846F",
",#	c #846643",
"'#	c #5C7508",
")#	c #617B0D",
"!#	c #5B7309",
"~#	c #5C740B",
"{#	c #5B730A",
"]#	c #576F09",
"^#	c #5D760A",
"/#	c #647D0D",
"(#	c #6A7C27",
"_#	c #6A7B22",
":#	c #65790D",
"<#	c #597308",
"[#	c #5C760B",
"    . + @ # $ % & * * = = - ; > , ' * ) ! ~ { ] ^ / ( _ : < [ } ",
"| ; 1 * 2 3 4 5 6 6 7 6 | 8 9 | 0 1 a ^ & b c d e f g 6 h * i j ",
"/ / k f k < 5 9 l m , & n o p q r s t u v w x & a y z & g a A 8 ",
"e B ^ x ( _ - C D E F G H I J K L M N O P Q R S T U > V k k 9 k ",
"A d W ) X Y Z `  ...+.@.#.$.#.$.$.#.#.$.%.&.*.=.-.;.u A d A f >.",
",.- 9 * : '.: ).!.~.#.#.#.#.#.#.#.#.#.#.#.{.].^./.(._.g f d >.:.",
"<.9 d * = [.= }.|.#.#.#.$.#.$.$.#.#.#.#.#.1.#.2.3.j - ' 4.5.6.7.",
"' / 8.( a 9.0.a.#.#.#.#.#.#.#.#.#.#.#.#.#.#.#.#.b.c.d.e.f.g.h.i.",
"j.- ( ) k.d l.m.$.1.#.#.#.1.#.$.#.1.#.$.$.$.$.$.1.n.Z o.p.q.f.r.",
"- j ) A w d s.#.#.#.#.#.#.#.#.#.#.#.#.#.#.#.#.#.#.t.u.v.| 4.; ' ",
"* A & d w A w.#.#.#.#.1.#.#.$.$.#.#.#.#.$.#.#.#.1.K x.A / 1 0 9 ",
"y.W A w w z.A.#.#.B.C.#.#.#.#.#.D.E.#.#.#.#.#.#.#.#.F.( A w & A ",
"G.H.A _.A I.J.$.$.K.L.1.#.#.$.L M.K #.$.$.#.#.#.1.#.N.k & & & O.",
"{ P.u & d Q.R.#.S.T.U.#.{.K V.#.W.X.Y.#.#.#.#.#.#.#.Z.d d w `.~ ",
"`.a d d 7  +.+++D.@+#+1.$+%+&+$.*+=+M -+;+$.#.#.#.$.>+u w d A b ",
"v ,+v x w '+)+!+~+#.#.#.{+]+^+#.$.@./+!+!+(+$.#.#._+:+_.e W & f ",
"<+A A _.W [+}+|+1+E.#.1.2+3+4+$.#.#.5+!+!+!+6+#.1.7+8+9 k.9+x & ",
"0+a+x 9 w b+c+d+e+f+g+#.$.#.#.#.#.$.5+!+!+!+h+#.i+j+k+[ l+m+g.n+",
"o+p+q+A & B r+s+s+t+u+$.#.1.$.v+w+x+y+5+5+z+A+B+C+D+'.E+F+g.q.z ",
"o+y | G+& H+I+s+s+J+K+J #.#.L+M+N+O+P+Q+R+S+T+U+V+: < W+X+z i.Y+",
"1 9 ( 9+& w Z+`+ @.@N +@1.$.@@s+s+#@$@%@&@*@=@9 9 * * ' ' -@| * ",
"k a ( x x d ;@>@,@'@g+#.#.#.)@s+s+!@~@m.#.#.{@]@e g 9.j y 1 ^@6 ",
"9 d d & d x e /@(@_@:@1.#.#.<@[@s+}@|@$.$.$.1@2@^ 7 ( 1 3@* e A ",
"9 4@x >.v 5@& ^ d 6@*@#.$.#.1.7@8@9@0@{.Y.a@L+b@c@e & d@  * - e@",
"f@g@h@h.i@, | & f j@1.1.1.1.$.$.1.V.k@l@m@{.$.n@h@p.k.' o@-@p@: ",
"q@f.r@g.. p+| & ^ s@#.#.#.#.#.#.#.#.#.#.#.#.#.t@u@X+v@y w@x@y@z@",
"A@l+B@> Y+y ' / G+C@$.1.$.#.$.$.1.$.#.$.1.$.#.D@E@H.9 * F@G@H@: ",
"9 | i.1 ' 9.1 / I@J@1.#.#.%.#.$.#.$.#.#.#.$.@.K@w d d , 6 9.j i ",
", 9 k & * y.9 ( <+L@M@1.1.N@O@P@M J _+Q@1.$.x+R@d d & 4@9 k.a u ",
"S@T@U@w i., A d ^ / V@W@X@Y@Z@`@ #.#+#@#D.#.Q+##w x d & & j 9 $#",
"q.h@i.o+n+z G+9 %#A &#*#=#e.-#h@g., * $#;#>#,#w w d u 6 = '#v@)#",
"g.g.z l+!#~#{#]#1 - ^#D+: e.p.g./#r.v@- ( (#_#:#& 9 ( - Y <#[#F+"};
