/* XPM */
static char * foe_r0_xpm[] = {
"32 32 381 2",
"  	c #61790D",
". 	c #5E770B",
"+ 	c #5C7409",
"@ 	c #5C7509",
"# 	c #5F7609",
"$ 	c #62780B",
"% 	c #63790C",
"& 	c #647A0C",
"* 	c #6A7C21",
"= 	c #8C8B73",
"- 	c #8C8C73",
"; 	c #667B15",
"> 	c #607709",
", 	c #60770A",
"' 	c #60780B",
") 	c #637A0C",
"! 	c #637B0D",
"~ 	c #627A0C",
"{ 	c #5F770A",
"] 	c #5E7609",
"^ 	c #63790B",
"/ 	c #60770C",
"( 	c #536C0A",
"_ 	c #526D08",
": 	c #546F08",
"< 	c #627B0C",
"[ 	c #627A0D",
"} 	c #647C0E",
"| 	c #60780A",
"1 	c #5F7709",
"2 	c #5F7608",
"3 	c #61780A",
"4 	c #617809",
"5 	c #64790C",
"6 	c #63790A",
"7 	c #64790B",
"8 	c #667A16",
"9 	c #667A12",
"0 	c #617709",
"a 	c #61780B",
"b 	c #61770B",
"c 	c #62790C",
"d 	c #62790B",
"e 	c #61790A",
"f 	c #627809",
"g 	c #62770A",
"h 	c #586F09",
"i 	c #436004",
"j 	c #526D07",
"k 	c #62780A",
"l 	c #647C0D",
"m 	c #5F770B",
"n 	c #657A0C",
"o 	c #63780A",
"p 	c #64780B",
"q 	c #62790A",
"r 	c #797147",
"s 	c #797040",
"t 	c #796C39",
"u 	c #7B6C3B",
"v 	c #7B6D3B",
"w 	c #746B38",
"x 	c #6A6F22",
"y 	c #71752D",
"z 	c #63780B",
"A 	c #60770B",
"B 	c #5E770A",
"C 	c #896E51",
"D 	c #996B59",
"E 	c #8B6D4C",
"F 	c #766A35",
"G 	c #8E7456",
"H 	c #B58672",
"I 	c #CC9780",
"J 	c #DBA48B",
"K 	c #E1A98F",
"L 	c #E2AA90",
"M 	c #DDA68C",
"N 	c #D29C84",
"O 	c #B78773",
"P 	c #927556",
"Q 	c #7B6240",
"R 	c #A47562",
"S 	c #9B6E5D",
"T 	c #7E703E",
"U 	c #657A0B",
"V 	c #667C0D",
"W 	c #756E3F",
"X 	c #9C6F5D",
"Y 	c #522A25",
"Z 	c #936656",
"` 	c #A87966",
" .	c #E4AB91",
"..	c #E5AC92",
"+.	c #E6AC92",
"@.	c #E3AA91",
"#.	c #C5917B",
"$.	c #6C453A",
"%.	c #542C26",
"&.	c #A97966",
"*.	c #5B7509",
"=.	c #5B7308",
"-.	c #5C7507",
";.	c #647A0B",
">.	c #577109",
",.	c #627709",
"'.	c #7A6D37",
").	c #9C6E5C",
"!.	c #60372F",
"~.	c #B3836E",
"{.	c #DDA58C",
"].	c #DAA28A",
"^.	c #7D5548",
"/.	c #966B5B",
"(.	c #5A7309",
"_.	c #587109",
":.	c #516C07",
"<.	c #657C0D",
"[.	c #657C0E",
"}.	c #637B0C",
"|.	c #A27360",
"1.	c #DBA38A",
"2.	c #E5AB92",
"3.	c #D9A189",
"4.	c #765D3C",
"5.	c #5E7509",
"6.	c #566F08",
"7.	c #647B0D",
"8.	c #667D0F",
"9.	c #667E0F",
"0.	c #647D0E",
"a.	c #5F790C",
"b.	c #5C7609",
"c.	c #69632F",
"d.	c #CE9A83",
"e.	c #BC8974",
"f.	c #697024",
"g.	c #61770A",
"h.	c #607809",
"i.	c #607A0C",
"j.	c #667E0E",
"k.	c #637C0E",
"l.	c #5E780C",
"m.	c #A47664",
"n.	c #E0A88E",
"o.	c #627A0B",
"p.	c #5D7509",
"q.	c #60790B",
"r.	c #817142",
"s.	c #CE9881",
"t.	c #A37462",
"u.	c #796D3A",
"v.	c #B78671",
"w.	c #997857",
"x.	c #E1A88F",
"y.	c #D59F87",
"z.	c #DCA38B",
"A.	c #D49D86",
"B.	c #C6917A",
"C.	c #766B37",
"D.	c #63770A",
"E.	c #6B7C27",
"F.	c #A67863",
"G.	c #C08E79",
"H.	c #C4917C",
"I.	c #D09B83",
"J.	c #CA947D",
"K.	c #6A6123",
"L.	c #63780C",
"M.	c #6B7C23",
"N.	c #667A15",
"O.	c #A57663",
"P.	c #DAA38A",
"Q.	c #653F34",
"R.	c #A97B67",
"S.	c #E4AA91",
"T.	c #B58570",
"U.	c #4B2319",
"V.	c #C8947D",
"W.	c #C18D77",
"X.	c #727835",
"Y.	c #697C20",
"Z.	c #947450",
"`.	c #E5AD8F",
" +	c #E6AD8F",
".+	c #70473A",
"++	c #AE7E6A",
"@+	c #DAA289",
"#+	c #9C614F",
"$+	c #A6715E",
"%+	c #CB967F",
"&+	c #865C4C",
"*+	c #ECB38C",
"=+	c #BB8B6D",
"-+	c #746930",
";+	c #DCA48B",
">+	c #F0B786",
",+	c #F8BF85",
"'+	c #ECB38B",
")+	c #D8A188",
"!+	c #C66F57",
"~+	c #BE856D",
"{+	c #EEB589",
"]+	c #E2AB7E",
"^+	c #716A38",
"/+	c #617609",
"(+	c #647A0D",
"_+	c #AE7D69",
":+	c #E8AE8F",
"<+	c #F6BE85",
"[+	c #DEA68D",
"}+	c #AA6A55",
"|+	c #C8937C",
"1+	c #F5BC84",
"2+	c #E1A97D",
"3+	c #6F6937",
"4+	c #657A0D",
"5+	c #657B0D",
"6+	c #657E0E",
"7+	c #627B0D",
"8+	c #5E760B",
"9+	c #656D21",
"0+	c #E7AE8E",
"a+	c #D69F87",
"b+	c #D46C55",
"c+	c #D5634C",
"d+	c #A46B4F",
"e+	c #61780C",
"f+	c #637A0D",
"g+	c #617B0E",
"h+	c #5D770B",
"i+	c #5A7408",
"j+	c #646D1F",
"k+	c #AB7B69",
"l+	c #DBA38B",
"m+	c #EDB48A",
"n+	c #F5BD86",
"o+	c #D69472",
"p+	c #CF6D5A",
"q+	c #CB8B74",
"r+	c #E3AA90",
"s+	c #C75441",
"t+	c #F2290A",
"u+	c #D4321A",
"v+	c #61770C",
"w+	c #60780C",
"x+	c #5F780B",
"y+	c #617A0C",
"z+	c #60790C",
"A+	c #5D770A",
"B+	c #5E7608",
"C+	c #696F1B",
"D+	c #66532F",
"E+	c #9F705D",
"F+	c #A87A66",
"G+	c #AA705D",
"H+	c #EA2A0C",
"I+	c #CF947C",
"J+	c #D39D84",
"K+	c #9A6D5B",
"L+	c #C5280F",
"M+	c #EC290B",
"N+	c #7A7A36",
"O+	c #62780C",
"P+	c #61790C",
"Q+	c #A06C59",
"R+	c #E1A990",
"S+	c #976A58",
"T+	c #C2280F",
"U+	c #D27B65",
"V+	c #D49E86",
"W+	c #BF4634",
"X+	c #E1280B",
"Y+	c #D62C12",
"Z+	c #60760A",
"`+	c #697228",
" @	c #996C5A",
".@	c #CD3C26",
"+@	c #D6270C",
"@@	c #C7836D",
"#@	c #E2A990",
"$@	c #CA8671",
"%@	c #D22A0F",
"&@	c #C72E18",
"*@	c #786C0E",
"=@	c #687F0F",
"-@	c #AF7F6B",
";@	c #C87963",
">@	c #D4290E",
",@	c #CF4C39",
"'@	c #BE8B76",
")@	c #8E6453",
"!@	c #835D18",
"~@	c #676F1F",
"{@	c #62770B",
"]@	c #5F760A",
"^@	c #657B0C",
"/@	c #9E715F",
"(@	c #D39D85",
"_@	c #B4836F",
":@	c #CF9A82",
"<@	c #944537",
"[@	c #CB8D75",
"}@	c #726832",
"|@	c #667A0D",
"1@	c #637A0B",
"2@	c #456005",
"3@	c #526B07",
"4@	c #677E0F",
"5@	c #B1816D",
"6@	c #D59F88",
"7@	c #B88772",
"8@	c #C08D77",
"9@	c #DFA78E",
"0@	c #9A6C59",
"a@	c #667C0E",
"b@	c #637D0E",
"c@	c #5F790B",
"d@	c #5B7409",
"e@	c #546E07",
"f@	c #4E6A08",
"g@	c #486405",
"h@	c #5E760A",
"i@	c #878360",
"j@	c #9E6C5A",
"k@	c #677F0F",
"l@	c #5F780D",
"m@	c #5B7408",
"n@	c #516A07",
"o@	c #526C07",
"p@	c #827E3E",
"q@	c #B68571",
"r@	c #906454",
"s@	c #657D0E",
"t@	c #5F780C",
"u@	c #896946",
"v@	c #756A36",
"w@	c #667B0E",
"x@	c #776B36",
"y@	c #D69F86",
"z@	c #D79F87",
"A@	c #CC967F",
"B@	c #C18E78",
"C@	c #646F1E",
"D@	c #61790B",
"E@	c #6F7328",
"F@	c #C28E79",
"G@	c #69593A",
"H@	c #5D5E21",
"I@	c #5F5F1F",
"J@	c #5F6020",
"K@	c #5E6121",
"L@	c #66732A",
"M@	c #736933",
"N@	c #CE9882",
"O@	c #E5AB91",
"P@	c #A37766",
"Q@	c #647A0A",
"R@	c #667B0C",
"S@	c #647B0C",
"T@	c #617B0D",
"U@	c #5C7508",
"V@	c #7D6E39",
"W@	c #B1826D",
"X@	c #816749",
"Y@	c #647D0F",
"Z@	c #6F6631",
"`@	c #7E6F40",
" #	c #616E24",
".#	c #637A0A",
"+#	c #5C760B",
"@#	c #597308",
"##	c #65790D",
"$#	c #6A7B22",
"%#	c #6A7C27",
"&#	c #647D0D",
"*#	c #5D760A",
"=#	c #576F09",
"-#	c #5B730A",
";#	c #5C740B",
">#	c #5B7309",
"  . + @ # $ % & * = - ; > , ' ) ! ~ { ] ] , , ^ / ( _ : < [ } } ",
"| 1 , 2 3 4 5 6 7 8 9 ^ & 0 a b c d e c 3 f 3 3 g h i j , a ~ c ",
"e k 0 4 ^ l m 0 ^ n o p q r s t u v w d ^ ) x y d g + z 5 z % % ",
"z d z z A ! B C D E F G H I J K L M N O P Q R S T { # $ n & U 6 ",
"V 5 k 7 k q W X Y Z `  ...+.+.....+...+.@.#.$.%.&.*.=.-.> ;.7 k ",
">.V 7 5 4 ,.'.).!.~.{.+.+.+.+.+.+.+.+.+.+.+.].^./.@ (.@ , d { _.",
":.<.[.}.' { | |.1.+.2.+.+.+.+.+.....+...+.+.+.3.4.] 5.] , 7 d 6.",
"7.8.9.0.a.b.c.d.+.+.+.+.+.+.+.+.+.+.+.+.+.+.+.+.e.f.g.0 $ h.% ' ",
"i.0.j.k.l.*.m.2...........+.2.+...+.2.+.+.+.2...n.F 7 o.> $ { p.",
"' ~ }.c q.r.s.+.+.+.+.+.+.+.+.+.+.+.+.+.+.+.+.+.+.t.7 o k > | { ",
"d b a % k u.L 2.+.+.+...+.+.+.+.....+.+.2.+.+.+.+.v.k o 7 ^ k , ",
"k ^ o k $ w.+.+.+.+.+.+.+.+.x.y.+.+.+.+.+.z.A.+.+.B.C.o o k ;.D.",
"E.^ ^ ^ z F.+.2.+.+.+.....+.L G.K ..+.+.2.H.I.....J.K.k ,.k L.M.",
"- N.o 7 7 O.+.+.+.+.+.+.+.P.Q.R.+.S.L {.+.T.U.V.+.W.X.7 ^ q Y.= ",
"9 k 7 o q Z...+.+.+...`. +J .+++..@+#+$+2.%+&+y.*+=+o f 7 7 0 N.",
"5 ^ ;.6 ,.-+;++.+...>+,+,+'+@...+.)+!+~++.+.+.{+,+]+^+o n p /+p ",
"^ n (+o.d d _+2.+.:+,+,+,+<++.+...[+}+|+2.+.+.1+,+2+3+;.,.k k 4+",
"5+9.6+7+. 8+9+|++.0+,+,+,+<+..+.+.+.+...+.+.a+b+c+d+7 o d n e+f+",
"l j.9.g+h+(.i+j+k+l+m+<+n+o+p+q+....2.+...r+s+t+t+u+U ^ k v+w+x+",
"y+7.l z+A++ @ B+C+D+E+F+G+H+t+H+I++.+.+.J+K+L+t+t+M+N+^ O+c m x+",
", c P+' ' , , d d Q+R+S+T+M+t+t+U++.....V+V+W+X+t+Y+o ^ (+$ d a ",
"3 Z+a m | g.4 6 `+ @+.n..@+@t+t+@@+.+.+.+.#@$@%@&@*@7 n n $ 0 z ",
"k 6 , =@a $ f & F -@..2.;@>@t+,@J ..+.+.2.'@)@!@~@6 n 7 ^ 7 7 d ",
"{@{ , } ]@^ 6 ^@/@(@_@K :@<@[@[+........+.#@}@7 & ^ |@p V n 1@d ",
"@ 2@P+3@' o.k.4@5@..6@7@8@9@..2.....2.2.2.2.0@5 ^ c ) a@8.4@b@c@",
"d@e@f@g@m h@z+i@7@+.+.+.+.+.+.+.+.+.+.+.+.+.j@& ^ c w+[ 9.k@0.l@",
"@ m@n@o@, d L.p@q@+...2...+...2.....+...2...r@O+% ' m y+! s@7+t@",
"1 | g.3 ) 7 7 o u@@...+.+.+...+...+. .+.+...v@w@% a g.' a 7.c d ",
"q 0 o.d 1@^ 7 7 x@9@..2.y@;+M J z@A@B@2.2.V+C@4+$ d D., ^ z d ) ",
"D@d | ^ ^ 7 n o E@F@+.y.G@H@I@J@K@L@M@N@O@P@% & 7 k ) 7.o Q@R@S@",
"T@h@U@] 3 q 7 o o V@W@X@D@, ) 9.4@Y@a.Z@`@ #k .#d O+l 5+x+7.4@j.",
"g++#@#=.{ $ d ^ ##$#%#$ { h@i.&#9.k.a.@ i+*#{ a =#-#;#>#7+l 9.9."};
