/* XPM */
static char * foe_l2_xpm[] = {
"32 32 381 2",
"  	c #61790D",
". 	c #5E770B",
"+ 	c #5C7409",
"@ 	c #5C7509",
"# 	c #5F7609",
"$ 	c #62780B",
"% 	c #63790C",
"& 	c #647A0C",
"* 	c #6A7C21",
"= 	c #8C8B73",
"- 	c #8C8C73",
"; 	c #667B15",
"> 	c #607709",
", 	c #60770A",
"' 	c #60780B",
") 	c #637A0C",
"! 	c #637B0D",
"~ 	c #627A0C",
"{ 	c #5F770A",
"] 	c #5E7609",
"^ 	c #63790B",
"/ 	c #60770C",
"( 	c #536C0A",
"_ 	c #526D08",
": 	c #546F08",
"< 	c #627B0C",
"[ 	c #627A0D",
"} 	c #647C0E",
"| 	c #60780A",
"1 	c #5F7709",
"2 	c #5F7608",
"3 	c #61780A",
"4 	c #64790C",
"5 	c #63790A",
"6 	c #64790B",
"7 	c #667A16",
"8 	c #667A12",
"9 	c #617709",
"0 	c #61780B",
"a 	c #61770B",
"b 	c #62790C",
"c 	c #62790B",
"d 	c #61790A",
"e 	c #627809",
"f 	c #62770A",
"g 	c #586F09",
"h 	c #436004",
"i 	c #526D07",
"j 	c #62780A",
"k 	c #617809",
"l 	c #647C0D",
"m 	c #5F770B",
"n 	c #71752D",
"o 	c #6C7122",
"p 	c #63780A",
"q 	c #64780B",
"r 	c #62790A",
"s 	c #736A38",
"t 	c #7C6E3B",
"u 	c #7B6D3B",
"v 	c #796B39",
"w 	c #786F40",
"x 	c #797247",
"y 	c #637A0B",
"z 	c #63780B",
"A 	c #60770B",
"B 	c #5E770A",
"C 	c #7E6F3E",
"D 	c #9B6E5D",
"E 	c #A47562",
"F 	c #7B6140",
"G 	c #917556",
"H 	c #B78773",
"I 	c #D29C84",
"J 	c #DDA68C",
"K 	c #E2AA90",
"L 	c #E1A98F",
"M 	c #DBA48B",
"N 	c #CC9780",
"O 	c #B58672",
"P 	c #8E7456",
"Q 	c #766B35",
"R 	c #8B6D4C",
"S 	c #996B59",
"T 	c #8A6F51",
"U 	c #657A0C",
"V 	c #657A0B",
"W 	c #667C0D",
"X 	c #A97966",
"Y 	c #542C26",
"Z 	c #6C453A",
"` 	c #C5917B",
" .	c #E3AA91",
"..	c #E6AC92",
"+.	c #E5AC92",
"@.	c #E4AB91",
"#.	c #A87966",
"$.	c #936656",
"%.	c #522A25",
"&.	c #9C6F5D",
"*.	c #716B3F",
"=.	c #5B7308",
"-.	c #5C7507",
";.	c #647A0B",
">.	c #577109",
",.	c #627709",
"'.	c #966B5B",
").	c #7D5548",
"!.	c #DAA28A",
"~.	c #DDA58C",
"{.	c #B3836E",
"].	c #60372F",
"^.	c #9C6E5C",
"/.	c #766937",
"(.	c #5A7309",
"_.	c #587109",
":.	c #516C07",
"<.	c #657C0D",
"[.	c #657C0E",
"}.	c #637B0C",
"|.	c #775E3C",
"1.	c #D9A189",
"2.	c #E5AB92",
"3.	c #DBA38A",
"4.	c #A27360",
"5.	c #5E7509",
"6.	c #566F08",
"7.	c #647B0D",
"8.	c #667D0F",
"9.	c #667E0F",
"0.	c #647D0E",
"a.	c #5F790C",
"b.	c #5C7609",
"c.	c #656D23",
"d.	c #BC8974",
"e.	c #CE9A83",
"f.	c #6B652F",
"g.	c #61770A",
"h.	c #607809",
"i.	c #607A0C",
"j.	c #667E0E",
"k.	c #637C0E",
"l.	c #5E780C",
"m.	c #5B7509",
"n.	c #736735",
"o.	c #E0A88E",
"p.	c #A47664",
"q.	c #627A0B",
"r.	c #5D7509",
"s.	c #60790B",
"t.	c #A37462",
"u.	c #CE9881",
"v.	c #837342",
"w.	c #B78671",
"x.	c #796D3A",
"y.	c #756B37",
"z.	c #C6917A",
"A.	c #D49D86",
"B.	c #DCA38B",
"C.	c #D59F87",
"D.	c #E1A88F",
"E.	c #997857",
"F.	c #63770A",
"G.	c #6B7C27",
"H.	c #6A6023",
"I.	c #CA947D",
"J.	c #DBA48C",
"K.	c #C4927C",
"L.	c #C08E79",
"M.	c #A67863",
"N.	c #63780C",
"O.	c #6B7C23",
"P.	c #667A15",
"Q.	c #757936",
"R.	c #C18D77",
"S.	c #D8A088",
"T.	c #C6917B",
"U.	c #D49E85",
"V.	c #E4AA91",
"W.	c #CE9780",
"X.	c #C5917A",
"Y.	c #DEA68D",
"Z.	c #A57663",
"`.	c #697C20",
" +	c #BB8B6D",
".+	c #ECB38C",
"++	c #C39079",
"@+	c #D69F87",
"#+	c #A6715E",
"$+	c #9C614F",
"%+	c #DAA289",
"&+	c #C9947D",
"*+	c #C08C77",
"=+	c #DDA58D",
"-+	c #E6AD8F",
";+	c #E5AD8F",
">+	c #947350",
",+	c #726C38",
"'+	c #E2AB7E",
")+	c #F8BF85",
"!+	c #EEB589",
"~+	c #BE856D",
"{+	c #C66F57",
"]+	c #D8A188",
"^+	c #ECB38B",
"/+	c #F0B786",
"(+	c #DCA48B",
"_+	c #73682F",
":+	c #617609",
"<+	c #647A0D",
"[+	c #6E6A37",
"}+	c #E1A97D",
"|+	c #F6BE85",
"1+	c #C8937C",
"2+	c #AA6A55",
"3+	c #E8AE8F",
"4+	c #AE7D69",
"5+	c #657A0D",
"6+	c #657B0D",
"7+	c #657E0E",
"8+	c #627B0D",
"9+	c #5E760B",
"0+	c #A36B4F",
"a+	c #D5634C",
"b+	c #D46C55",
"c+	c #E7AE8E",
"d+	c #6A7122",
"e+	c #61780C",
"f+	c #637A0D",
"g+	c #617B0E",
"h+	c #5D770B",
"i+	c #D4321A",
"j+	c #F2290A",
"k+	c #C95441",
"l+	c #E2A990",
"m+	c #C78771",
"n+	c #C6624F",
"o+	c #CF8F6E",
"p+	c #F5BD86",
"q+	c #EDB48A",
"r+	c #DBA38B",
"s+	c #AB7B69",
"t+	c #68701F",
"u+	c #667A0C",
"v+	c #61770C",
"w+	c #60780C",
"x+	c #5F780B",
"y+	c #617A0C",
"z+	c #60790C",
"A+	c #5D770A",
"B+	c #867547",
"C+	c #EC290B",
"D+	c #BD260E",
"E+	c #9C6E5D",
"F+	c #D19B83",
"G+	c #C68E77",
"H+	c #EA2A0C",
"I+	c #AB715D",
"J+	c #A97A66",
"K+	c #9F705D",
"L+	c #65522F",
"M+	c #696D1B",
"N+	c #62780C",
"O+	c #61790C",
"P+	c #D62C12",
"Q+	c #E1280B",
"R+	c #C23E29",
"S+	c #D49E86",
"T+	c #CA725D",
"U+	c #C62910",
"V+	c #936756",
"W+	c #E1A990",
"X+	c #A06C59",
"Y+	c #60760A",
"Z+	c #766A0C",
"`+	c #C72E18",
" @	c #D2290E",
".@	c #CA8670",
"+@	c #C27A65",
"@@	c #D6270C",
"#@	c #CD3B25",
"$@	c #DEA78D",
"%@	c #996C5A",
"&@	c #697228",
"*@	c #687F0F",
"=@	c #697020",
"-@	c #835E18",
";@	c #8C6353",
">@	c #BD8B75",
",@	c #D9A289",
"'@	c #CE4B39",
")@	c #D4290E",
"!@	c #C57761",
"~@	c #7D6F3B",
"{@	c #62770B",
"]@	c #5F760A",
"^@	c #657B0C",
"/@	c #617A0A",
"(@	c #756B34",
"_@	c #CA8C74",
":@	c #954637",
"<@	c #E0A88F",
"[@	c #B07F6B",
"}@	c #D29C83",
"|@	c #9E715F",
"1@	c #667A0D",
"2@	c #456005",
"3@	c #526B07",
"4@	c #677E0F",
"5@	c #9C6D5B",
"6@	c #DFA78E",
"7@	c #BD8B76",
"8@	c #B98772",
"9@	c #B1816D",
"0@	c #667C0E",
"a@	c #60790D",
"b@	c #5F790B",
"c@	c #5B7409",
"d@	c #546E07",
"e@	c #4E6A08",
"f@	c #486405",
"g@	c #5E760A",
"h@	c #9C6A58",
"i@	c #B88772",
"j@	c #878260",
"k@	c #677F0F",
"l@	c #5F780D",
"m@	c #5B7408",
"n@	c #516A07",
"o@	c #526C07",
"p@	c #906454",
"q@	c #B68571",
"r@	c #837F3E",
"s@	c #5F780C",
"t@	c #766B37",
"u@	c #896946",
"v@	c #65632C",
"w@	c #C18E78",
"x@	c #CC967F",
"y@	c #D79F87",
"z@	c #D69F86",
"A@	c #776B36",
"B@	c #61790B",
"C@	c #A37564",
"D@	c #E5AB91",
"E@	c #CE9882",
"F@	c #746832",
"G@	c #67722A",
"H@	c #5D6021",
"I@	c #5F6020",
"J@	c #5B5E21",
"K@	c #67583A",
"L@	c #C28E79",
"M@	c #6F7328",
"N@	c #647A0A",
"O@	c #667B0C",
"P@	c #647B0C",
"Q@	c #617B0D",
"R@	c #5C7508",
"S@	c #64790A",
"T@	c #636F23",
"U@	c #817140",
"V@	c #726831",
"W@	c #647D0F",
"X@	c #5C750A",
"Y@	c #806749",
"Z@	c #B1826D",
"`@	c #7B6D39",
" #	c #637A0A",
".#	c #5C760B",
"+#	c #597308",
"@#	c #65790D",
"##	c #6A7B22",
"$#	c #6A7C27",
"%#	c #647D0D",
"&#	c #5A7408",
"*#	c #5D760A",
"=#	c #576F09",
"-#	c #5B730A",
";#	c #5C740B",
">#	c #5B7309",
"  . + @ # $ % & * = - ; > , ' ) ! ~ { ] ] , , ^ / ( _ : < [ } } ",
"| 1 , 2 3 > 4 5 6 7 8 ^ & 9 0 a b c d b 3 e 3 3 f g h i , 0 ~ b ",
"d j 9 k ^ l m 9 n o p q r s t u v w x c ^ ) 3 y c f + z 4 z % % ",
"z c z z A ! B C D E F G H I J K L M N O P Q R S T { # $ U & V 5 ",
"W 4 j 6 j r q X Y Z `  ...+...+.+.....+.@.#.$.%.&.*.=.-.> ;.6 j ",
">.W 6 4 k ,.& '.).!.......................~.{.].^./.(.@ , c { _.",
":.<.[.}.' { | |.1.......+...+.+...........2...3.4.] 5.] , 6 c 6.",
"7.8.9.0.a.b.c.d.................................e.f.g.9 $ h.% ' ",
"i.0.j.k.l.m.n.o.+.2.......2...+...2...+.+.+.+.+.2.p.6 q.> $ { r.",
"' ~ }.b s.] t.....................................u.v.p j > | { ",
"c a 0 % j 0 w.........2.....+.+.........+.......2.K x.p 6 ^ j , ",
"j ^ p j $ y.z.....A.B...........C.D.................E.p p j ;.F.",
"G.^ ^ ^ z H.I.+.+.J.K.2.....+.L L.K ..+.+.......2...M.j ,.j N.O.",
"- P.p 6 6 Q.R...S.T.U...~.K V...W.X.Y...............Z.6 ^ r `.= ",
"8 j 6 p r p  +.+M ++@+2.#+$+%++.&+*+=+-+;++.......+.>+e 6 6 9 P.",
"4 ^ ;.5 ,.,+'+)+!+......~+{+]+..+. .^+)+)+/++.....(+_+p U q :+q ",
"^ U <+q.c [+}+)+|+....2.1+2+Y.+.....|+)+)+)+3+..2.4+p ;.,.j j 5+",
"6+9.7+8+. 9+0+a+b+@+....+.........+.|+)+)+)+c+..1+d+6 p c U e+f+",
"l j.9.g+h+(.i+j+j+k+l++...2.+.2.m+n+o+p+|+q+r+s+t+u+V ^ j v+w+x+",
"y+7.l z+A+B+C+j+j+D+E+F+......G+H+j+H+I+J+K+L+M+;.6 6 ^ N+b m x+",
", b O+' ' , P+j+Q+R+S+S++.+...T+j+j+C+U+V+W+X+4 ~ ^ p ^ <+$ c 0 ",
"3 Y+0 m | g.Z+`+ @.@V.........+@j+j+@@#@$@..%@&@| ;.6 U U $ 9 z ",
"j 5 , *@0 $ e =@-@;@>@2.......,@'@j+)@!@2.+.4+~@^ 5 U 6 ^ 6 6 c ",
"{@{ , } ]@^ 5 ^@/@(@l+..+.+.+.2.=+_@:@&+<@[@}@|@& ^ 1@q W U y c ",
"@ 2@O+3@' q.k.4@} 5@2.2.2.2.+.+.2.+.6@7@8@C.+.9@^ b ) 0@8.4@a@b@",
"c@d@e@f@m g@z+7.y+h@..........................i@j@b w+[ 9.k@0.l@",
"@ m@n@o@, c N.0 3 p@+.2.+...+.+.2.+...+.2.+...q@r@' m y+! } 8+s@",
"1 | g.3 ) 6 6 p ;.t@2.....@...+...+.......+. .u@% 0 g.' 0 7.b c ",
"r 9 q.c y ^ 6 6 6 v@S+2.2.w@x@y@M J (+z@2.+.6@A@$ c F., ^ z c ) ",
"B@c | ^ ^ 6 U p & 6 C@D@E@F@G@H@I@I@J@K@C...L@M@6 j ) 7.p N@O@P@",
"Q@g@R@] 3 r 6 p p S@T@U@V@, ) 9.4@W@a.X@Y@Z@`@ #c N+l 6+x+7.4@j.",
"g+.#+#=.{ $ c ^ @###$#$ { g@i.%#9.k.a.@ &#*#{ 0 =#-#;#>#8+l 9.9."};
