/* XPM */
static char * foe_r3_xpm[] = {
"32 32 395 2",
"  	c #61790D",
". 	c #5E770B",
"+ 	c #5C7409",
"@ 	c #5C7509",
"# 	c #5F7609",
"$ 	c #62780B",
"% 	c #63790C",
"& 	c #647A0C",
"* 	c #6A7C21",
"= 	c #8C8B73",
"- 	c #8C8C73",
"; 	c #667B15",
"> 	c #607709",
", 	c #60770A",
"' 	c #60780B",
") 	c #637A0C",
"! 	c #637B0D",
"~ 	c #627A0C",
"{ 	c #5F770A",
"] 	c #5E7609",
"^ 	c #63790B",
"/ 	c #60770C",
"( 	c #536C0A",
"_ 	c #526D08",
": 	c #546F08",
"< 	c #627B0C",
"[ 	c #627A0D",
"} 	c #647C0E",
"| 	c #60780A",
"1 	c #5F7709",
"2 	c #5F7608",
"3 	c #61780A",
"4 	c #617809",
"5 	c #64790C",
"6 	c #63790A",
"7 	c #64790B",
"8 	c #667A16",
"9 	c #667A12",
"0 	c #617709",
"a 	c #61780B",
"b 	c #61770B",
"c 	c #62790C",
"d 	c #62790B",
"e 	c #61790A",
"f 	c #627809",
"g 	c #62770A",
"h 	c #586F09",
"i 	c #436004",
"j 	c #526D07",
"k 	c #62780A",
"l 	c #647C0D",
"m 	c #5F770B",
"n 	c #657A0C",
"o 	c #63780A",
"p 	c #64780B",
"q 	c #62790A",
"r 	c #797147",
"s 	c #797040",
"t 	c #796C39",
"u 	c #7B6C3B",
"v 	c #7B6D3B",
"w 	c #746B38",
"x 	c #767731",
"y 	c #756D3D",
"z 	c #887747",
"A 	c #63780B",
"B 	c #60770B",
"C 	c #5E770A",
"D 	c #896E51",
"E 	c #996B59",
"F 	c #956857",
"G 	c #766A35",
"H 	c #8E7456",
"I 	c #B58672",
"J 	c #CC9780",
"K 	c #DBA48B",
"L 	c #E1A98F",
"M 	c #E2AA90",
"N 	c #DDA68C",
"O 	c #D29C84",
"P 	c #B78773",
"Q 	c #A07564",
"R 	c #7B6240",
"S 	c #A47562",
"T 	c #9B6E5D",
"U 	c #896947",
"V 	c #657A0B",
"W 	c #667C0D",
"X 	c #756E3F",
"Y 	c #9C6F5D",
"Z 	c #522A25",
"` 	c #936656",
" .	c #A87966",
"..	c #E4AB91",
"+.	c #E5AC92",
"@.	c #E6AC92",
"#.	c #E3AA91",
"$.	c #C5917B",
"%.	c #6C453A",
"&.	c #542C26",
"*.	c #A97966",
"=.	c #5B7509",
"-.	c #5B7308",
";.	c #5C7507",
">.	c #647A0B",
",.	c #577109",
"'.	c #627709",
").	c #7A6D37",
"!.	c #9C6E5C",
"~.	c #60372F",
"{.	c #B3836E",
"].	c #DDA58C",
"^.	c #DAA28A",
"/.	c #7D5548",
"(.	c #966B5B",
"_.	c #5A7309",
":.	c #587109",
"<.	c #516C07",
"[.	c #657C0D",
"}.	c #657C0E",
"|.	c #637B0C",
"1.	c #A27360",
"2.	c #DBA38A",
"3.	c #E5AB92",
"4.	c #D9A189",
"5.	c #765D3C",
"6.	c #5E7509",
"7.	c #566F08",
"8.	c #647B0D",
"9.	c #667D0F",
"0.	c #667E0F",
"a.	c #647D0E",
"b.	c #5F790C",
"c.	c #5C7609",
"d.	c #7F6A51",
"e.	c #CE9A83",
"f.	c #BC8974",
"g.	c #697024",
"h.	c #61770A",
"i.	c #607809",
"j.	c #607A0C",
"k.	c #667E0E",
"l.	c #637C0E",
"m.	c #5E780C",
"n.	c #A47664",
"o.	c #E0A88E",
"p.	c #7F6342",
"q.	c #627A0B",
"r.	c #5D7509",
"s.	c #60790B",
"t.	c #817142",
"u.	c #CE9881",
"v.	c #A37462",
"w.	c #8D6F4F",
"x.	c #B78671",
"y.	c #A0715F",
"z.	c #E1A88F",
"A.	c #D59F87",
"B.	c #DCA38B",
"C.	c #D49D86",
"D.	c #C6917A",
"E.	c #766B37",
"F.	c #63770A",
"G.	c #6B7C27",
"H.	c #A67863",
"I.	c #C08E79",
"J.	c #C4917C",
"K.	c #D09B83",
"L.	c #CA947D",
"M.	c #6A6123",
"N.	c #63780C",
"O.	c #6B7C23",
"P.	c #667A15",
"Q.	c #A57663",
"R.	c #DAA38A",
"S.	c #653F34",
"T.	c #A97B67",
"U.	c #E4AA91",
"V.	c #B58570",
"W.	c #4A231A",
"X.	c #C8947D",
"Y.	c #C18D77",
"Z.	c #727835",
"`.	c #697C20",
" +	c #A1715D",
".+	c #E5AD8F",
"++	c #E6AD8F",
"@+	c #70473A",
"#+	c #AE7E6A",
"$+	c #DAA289",
"%+	c #9C614F",
"&+	c #A6715E",
"*+	c #CB967F",
"=+	c #865C4C",
"-+	c #ECB38C",
";+	c #BB8B6D",
">+	c #7A7935",
",+	c #746930",
"'+	c #DCA48B",
")+	c #F0B786",
"!+	c #F8BF85",
"~+	c #ECB38B",
"{+	c #D8A188",
"]+	c #C66F57",
"^+	c #BE856D",
"/+	c #EEB589",
"(+	c #E2AB7E",
"_+	c #6C6630",
":+	c #617609",
"<+	c #647A0D",
"[+	c #757325",
"}+	c #AE7D69",
"|+	c #E8AE8F",
"1+	c #F6BE85",
"2+	c #DEA68D",
"3+	c #AA6A55",
"4+	c #C8937C",
"5+	c #D6A177",
"6+	c #EAB280",
"7+	c #E1A97D",
"8+	c #6A642B",
"9+	c #657A0D",
"0+	c #657B0D",
"a+	c #657E0E",
"b+	c #627B0D",
"c+	c #5E760B",
"d+	c #8F6541",
"e+	c #C8937D",
"f+	c #E7AE8E",
"g+	c #E3AA90",
"h+	c #C95341",
"i+	c #EF290A",
"j+	c #E12A0E",
"k+	c #9C5F4C",
"l+	c #747836",
"m+	c #61780C",
"n+	c #637A0D",
"o+	c #617B0E",
"p+	c #5D770B",
"q+	c #5A7408",
"r+	c #78672F",
"s+	c #AC7C69",
"t+	c #DBA38B",
"u+	c #EDB48A",
"v+	c #EAB18E",
"w+	c #DFA78E",
"x+	c #CA957E",
"y+	c #DAA38B",
"z+	c #C6927C",
"A+	c #EC290B",
"B+	c #F2290A",
"C+	c #C64533",
"D+	c #61770C",
"E+	c #60780C",
"F+	c #5F780B",
"G+	c #617A0C",
"H+	c #60790C",
"I+	c #5D770A",
"J+	c #5E7608",
"K+	c #696F1B",
"L+	c #66532F",
"M+	c #9F705D",
"N+	c #AC7D6A",
"O+	c #C28E79",
"P+	c #B98772",
"Q+	c #CF4633",
"R+	c #F1290A",
"S+	c #D73B25",
"T+	c #D59E86",
"U+	c #9D6351",
"V+	c #D0290E",
"W+	c #CB341D",
"X+	c #7A7A36",
"Y+	c #62780C",
"Z+	c #61790C",
"`+	c #A06C59",
" @	c #E2A990",
".@	c #CD9780",
"+@	c #8D6151",
"@@	c #BF2A11",
"#@	c #E9290B",
"$@	c #C97863",
"%@	c #AA7B68",
"&@	c #C3503D",
"*@	c #D0280E",
"=@	c #EA290B",
"-@	c #B1341F",
";@	c #60760A",
">@	c #697228",
",@	c #996C5A",
"'@	c #CE2A0F",
")@	c #E12A0D",
"!@	c #C77965",
"~@	c #D7A087",
"{@	c #C74532",
"]@	c #943B28",
"^@	c #786C0E",
"/@	c #687F0F",
"(@	c #8E6F4E",
"_@	c #B1816C",
":@	c #CC513D",
"<@	c #DC290D",
"[@	c #DA321A",
"}@	c #D69F87",
"|@	c #BD8B75",
"1@	c #7A5347",
"2@	c #685E1F",
"3@	c #656E1C",
"4@	c #62770B",
"5@	c #5F760A",
"6@	c #657B0C",
"7@	c #9E715F",
"8@	c #B68470",
"9@	c #B86D59",
"0@	c #AB4E3E",
"a@	c #CE6E5A",
"b@	c #D69A82",
"c@	c #726832",
"d@	c #667A0D",
"e@	c #637A0B",
"f@	c #456005",
"g@	c #526B07",
"h@	c #677E0F",
"i@	c #B1816D",
"j@	c #C08C77",
"k@	c #BF8B76",
"l@	c #CF9A82",
"m@	c #9B6C5A",
"n@	c #667C0E",
"o@	c #637D0E",
"p@	c #5F790B",
"q@	c #5B7409",
"r@	c #546E07",
"s@	c #4E6A08",
"t@	c #486405",
"u@	c #5E760A",
"v@	c #878360",
"w@	c #B88772",
"x@	c #A26C5A",
"y@	c #677F0F",
"z@	c #5F780D",
"A@	c #5B7408",
"B@	c #516A07",
"C@	c #526C07",
"D@	c #827E3E",
"E@	c #B68571",
"F@	c #906454",
"G@	c #657D0E",
"H@	c #5F780C",
"I@	c #95644F",
"J@	c #786142",
"K@	c #667B0E",
"L@	c #786B36",
"M@	c #D69F86",
"N@	c #D79F87",
"O@	c #CC967F",
"P@	c #C18E78",
"Q@	c #D49E86",
"R@	c #66652C",
"S@	c #61790B",
"T@	c #6F7328",
"U@	c #6A593A",
"V@	c #5D5E21",
"W@	c #5F5F1F",
"X@	c #5F6020",
"Y@	c #5E6121",
"Z@	c #666732",
"`@	c #795F3C",
" #	c #CE9882",
".#	c #E5AB91",
"+#	c #A37766",
"@#	c #647A0A",
"##	c #667B0C",
"$#	c #647B0C",
"%#	c #617B0D",
"&#	c #5C7508",
"*#	c #846643",
"=#	c #B3846F",
"-#	c #816749",
";#	c #647D0F",
">#	c #6F6631",
",#	c #7E6F40",
"'#	c #616E24",
")#	c #637A0A",
"!#	c #5C760B",
"~#	c #597308",
"{#	c #65790D",
"]#	c #6A7B22",
"^#	c #6A7C27",
"/#	c #647D0D",
"(#	c #5D760A",
"_#	c #576F09",
":#	c #5B730A",
"<#	c #5C740B",
"[#	c #5B7309",
"  . + @ # $ % & * = - ; > , ' ) ! ~ { ] ] , , ^ / ( _ : < [ } } ",
"| 1 , 2 3 4 5 6 7 8 9 ^ & 0 a b c d e c 3 f 3 3 g h i j , a ~ c ",
"e k 0 4 ^ l m 0 ^ n o p q r s t u v w x ^ ) y z d g + A 5 A % % ",
"A d A A B ! C D E F G H I J K L M N O P Q R S T U { # $ n & V 6 ",
"W 5 k 7 k q X Y Z `  ...+.@.@.+.+.@.+.@.#.$.%.&.*.=.-.;.> >.7 k ",
",.W 7 5 4 '.).!.~.{.].@.@.@.@.@.@.@.@.@.@.@.^./.(.@ _.@ , d { :.",
"<.[.}.|.' { | 1.2.@.3.@.@.@.@.@.+.+.@.+.@.@.@.4.5.] 6.] , 7 d 7.",
"8.9.0.a.b.c.d.e.@.@.@.@.@.@.@.@.@.@.@.@.@.@.@.@.f.g.h.0 $ i.% ' ",
"j.a.k.l.m.=.n.3.+.+.+.+.+.@.3.@.+.@.3.@.@.@.3.+.o.p.7 q.> $ { r.",
"' ~ |.c s.t.u.@.@.@.@.@.@.@.@.@.@.@.@.@.@.@.@.@.@.v.7 o k > | { ",
"d b a % k w.M 3.@.@.@.+.@.@.@.@.+.+.@.@.3.@.@.@.@.x.k o 7 ^ k , ",
"k ^ o k $ y.@.@.@.@.@.@.@.@.z.A.@.@.@.@.@.B.C.@.@.D.E.o o k >.F.",
"G.^ ^ ^ A H.@.3.@.@.@.+.+.@.M I.L +.@.@.3.J.K.+.+.L.M.k '.k N.O.",
"- P.o 7 7 Q.@.@.@.@.@.@.@.R.S.T.@.U.M ].@.V.W.X.@.Y.Z.7 ^ q `.= ",
"9 k 7 o q  ++.@.@.@.+..+++K @+#++.$+%+&+3.*+=+A.-+;+>+f 7 7 0 P.",
"5 ^ >.6 '.,+'+@.@.+.)+!+!+~+#.+.@.{+]+^+@.@.@./+!+(+_+o n p :+p ",
"^ n <+q.d [+}+3.@.|+!+!+!+1+@.@.+.2+3+4+3.@.z.5+6+7+8+>.'.k k 9+",
"0+0.a+b+. c+d+e+@.f+!+!+!+1++.@.@.@.@.+.@.g+h+i+j+k+l+o d n m+n+",
"l k.0.o+p+_.q+r+s+t+u+1+1+v+w+x+y++.3.@.+.z+A+B+B+C+V ^ k D+E+F+",
"G+8.l H+I++ @ J+K+L+M+N+O+P+Q+R+S+T+@.@.N U+V+B+B+W+X+^ Y+c m F+",
", c Z+' ' , , d d `+ @.@+@@@#@B+B+$@+.3.%@J &@*@=@-@o ^ <+$ d a ",
"3 ;@a m | h.4 6 >@,@@.@.o.'@)@B+B+!@@.@.@.g+~@{@]@^@7 n n $ 0 A ",
"k 6 , /@a $ f & (@_@+.+.+.:@<@B+[@}@@.@.3.|@1@2@3@6 n 7 ^ 7 7 d ",
"4@{ , } 5@^ 6 6@7@T+8@R.].9@0@a@b@3.@.+.@. @c@7 & ^ d@p W n e@d ",
"@ f@Z+g@' q.l.h@i@+.].j@k@l@U.3.+.+.3.3.3.3.m@5 ^ c ) n@9.h@o@p@",
"q@r@s@t@m u@H+v@w@@.@.@.@.@.@.@.@.@.@.@.@.@.x@& ^ c E+[ 0.y@a.z@",
"@ A@B@C@, d N.D@E@@.+.3.+.@.+.3.+.+.@.+.3.+.F@Y+% ' m G+! G@b+H@",
"1 | h.3 ) 7 7 o I@#.+.@.@.@.+.@.+.@...@.@.3.J@K@% a h.' a 8.c d ",
"q 0 q.d e@^ 7 7 L@w++.3.M@'+N K N@O@P@3.3.Q@R@9+$ d F., ^ A d ) ",
"S@d | ^ ^ 7 n o T@O+@.A.U@V@W@X@Y@Z@`@ #.#+#% & 7 k ) 8.o @###$#",
"%#u@&#] 3 q 7 o o *#=#-#S@, ) 0.h@;#b.>#,#'#k )#d Y+l 0+F+8.h@k.",
"o+!#~#-.{ $ d ^ {#]#^#$ { u@j./#0.l.b.@ q+(#{ a _#:#<#[#b+l 0.0."};
