/* XPM */
static char * foe_r1_xpm[] = {
"32 32 388 2",
"  	c #61790D",
". 	c #5E770B",
"+ 	c #5C7409",
"@ 	c #5C7509",
"# 	c #5F7609",
"$ 	c #62780B",
"% 	c #63790C",
"& 	c #647A0C",
"* 	c #6A7C21",
"= 	c #8C8B73",
"- 	c #8C8C73",
"; 	c #667B15",
"> 	c #607709",
", 	c #60770A",
"' 	c #60780B",
") 	c #637A0C",
"! 	c #637B0D",
"~ 	c #627A0C",
"{ 	c #5F770A",
"] 	c #5E7609",
"^ 	c #63790B",
"/ 	c #60770C",
"( 	c #536C0A",
"_ 	c #526D08",
": 	c #546F08",
"< 	c #627B0C",
"[ 	c #627A0D",
"} 	c #647C0E",
"| 	c #60780A",
"1 	c #5F7709",
"2 	c #5F7608",
"3 	c #61780A",
"4 	c #617809",
"5 	c #64790C",
"6 	c #63790A",
"7 	c #64790B",
"8 	c #667A16",
"9 	c #667A12",
"0 	c #617709",
"a 	c #61780B",
"b 	c #61770B",
"c 	c #62790C",
"d 	c #62790B",
"e 	c #61790A",
"f 	c #627809",
"g 	c #62770A",
"h 	c #586F09",
"i 	c #436004",
"j 	c #526D07",
"k 	c #62780A",
"l 	c #647C0D",
"m 	c #5F770B",
"n 	c #657A0C",
"o 	c #63780A",
"p 	c #64780B",
"q 	c #62790A",
"r 	c #797147",
"s 	c #797040",
"t 	c #796C39",
"u 	c #7B6C3B",
"v 	c #7B6D3B",
"w 	c #746B38",
"x 	c #6A6F22",
"y 	c #71752D",
"z 	c #63780B",
"A 	c #60770B",
"B 	c #5E770A",
"C 	c #896E51",
"D 	c #996B59",
"E 	c #8B6D4C",
"F 	c #766A35",
"G 	c #8E7456",
"H 	c #B58672",
"I 	c #CC9780",
"J 	c #DBA48B",
"K 	c #E1A98F",
"L 	c #E2AA90",
"M 	c #DDA68C",
"N 	c #D29C84",
"O 	c #B78773",
"P 	c #927556",
"Q 	c #7B6240",
"R 	c #A47562",
"S 	c #9B6E5D",
"T 	c #7E703E",
"U 	c #657A0B",
"V 	c #667C0D",
"W 	c #756E3F",
"X 	c #9C6F5D",
"Y 	c #522A25",
"Z 	c #936656",
"` 	c #A87966",
" .	c #E4AB91",
"..	c #E5AC92",
"+.	c #E6AC92",
"@.	c #E3AA91",
"#.	c #C5917B",
"$.	c #6C453A",
"%.	c #542C26",
"&.	c #A97966",
"*.	c #5B7509",
"=.	c #5B7308",
"-.	c #5C7507",
";.	c #647A0B",
">.	c #577109",
",.	c #627709",
"'.	c #7A6D37",
").	c #9C6E5C",
"!.	c #60372F",
"~.	c #B3836E",
"{.	c #DDA58C",
"].	c #DAA28A",
"^.	c #7D5548",
"/.	c #966B5B",
"(.	c #5A7309",
"_.	c #587109",
":.	c #516C07",
"<.	c #657C0D",
"[.	c #657C0E",
"}.	c #637B0C",
"|.	c #A27360",
"1.	c #DBA38A",
"2.	c #E5AB92",
"3.	c #D9A189",
"4.	c #765D3C",
"5.	c #5E7509",
"6.	c #566F08",
"7.	c #647B0D",
"8.	c #667D0F",
"9.	c #667E0F",
"0.	c #647D0E",
"a.	c #5F790C",
"b.	c #5C7609",
"c.	c #69632F",
"d.	c #CE9A83",
"e.	c #BC8974",
"f.	c #697024",
"g.	c #61770A",
"h.	c #607809",
"i.	c #607A0C",
"j.	c #667E0E",
"k.	c #637C0E",
"l.	c #5E780C",
"m.	c #A47664",
"n.	c #E0A88E",
"o.	c #627A0B",
"p.	c #5D7509",
"q.	c #60790B",
"r.	c #817142",
"s.	c #CE9881",
"t.	c #A37462",
"u.	c #796D3A",
"v.	c #B78671",
"w.	c #997857",
"x.	c #E1A88F",
"y.	c #D59F87",
"z.	c #DCA48B",
"A.	c #D69F87",
"B.	c #C6917A",
"C.	c #766B37",
"D.	c #63770A",
"E.	c #6B7C27",
"F.	c #A67863",
"G.	c #C08E79",
"H.	c #C4917C",
"I.	c #D09B83",
"J.	c #CA947D",
"K.	c #6A6123",
"L.	c #63780C",
"M.	c #6B7C23",
"N.	c #667A15",
"O.	c #A57663",
"P.	c #DAA38A",
"Q.	c #653F34",
"R.	c #A97B67",
"S.	c #E4AA91",
"T.	c #B58570",
"U.	c #4B2319",
"V.	c #C8947D",
"W.	c #C18D77",
"X.	c #727835",
"Y.	c #697C20",
"Z.	c #947450",
"`.	c #E5AD8F",
" +	c #E6AD8F",
".+	c #70473A",
"++	c #AE7E6A",
"@+	c #DAA289",
"#+	c #9C614F",
"$+	c #A6715E",
"%+	c #CB967F",
"&+	c #865C4C",
"*+	c #ECB38C",
"=+	c #BB8B6D",
"-+	c #746930",
";+	c #F0B786",
">+	c #F8BF85",
",+	c #ECB38B",
"'+	c #D8A188",
")+	c #C66F57",
"!+	c #BE856D",
"~+	c #EEB589",
"{+	c #E2AB7E",
"]+	c #716A38",
"^+	c #617609",
"/+	c #647A0D",
"(+	c #AE7D69",
"_+	c #E8AE8F",
":+	c #F6BE85",
"<+	c #DEA68D",
"[+	c #AA6A55",
"}+	c #C8937C",
"|+	c #E2A98F",
"1+	c #D6A177",
"2+	c #EAB280",
"3+	c #E1A97D",
"4+	c #6F6937",
"5+	c #657A0D",
"6+	c #657B0D",
"7+	c #657E0E",
"8+	c #627B0D",
"9+	c #5E760B",
"0+	c #656D21",
"a+	c #E7AE8E",
"b+	c #E3AA8F",
"c+	c #C95341",
"d+	c #EF290A",
"e+	c #E12A0E",
"f+	c #985C4A",
"g+	c #61780C",
"h+	c #637A0D",
"i+	c #617B0E",
"j+	c #5D770B",
"k+	c #5A7408",
"l+	c #646D1F",
"m+	c #AB7B69",
"n+	c #DBA38B",
"o+	c #EDB48A",
"p+	c #F5BD86",
"q+	c #E6AE8C",
"r+	c #D7A189",
"s+	c #C69279",
"t+	c #C6927B",
"u+	c #EC290B",
"v+	c #F2290A",
"w+	c #C54331",
"x+	c #61770C",
"y+	c #60780C",
"z+	c #5F780B",
"A+	c #617A0C",
"B+	c #60790C",
"C+	c #5D770A",
"D+	c #5E7608",
"E+	c #696F1B",
"F+	c #66532F",
"G+	c #9F705D",
"H+	c #AC7D69",
"I+	c #C08D77",
"J+	c #B88670",
"K+	c #CF4633",
"L+	c #F1290A",
"M+	c #D73B25",
"N+	c #D69F86",
"O+	c #D7A188",
"P+	c #9C5F4E",
"Q+	c #D3290E",
"R+	c #CF2B12",
"S+	c #7A7A36",
"T+	c #62780C",
"U+	c #61790C",
"V+	c #A06C59",
"W+	c #E1A990",
"X+	c #CD9981",
"Y+	c #8B6051",
"Z+	c #BF2A11",
"`+	c #E9290B",
" @	c #C97863",
".@	c #AA7B68",
"+@	c #C24D3A",
"@@	c #D0280E",
"#@	c #EA290B",
"$@	c #BD2B13",
"%@	c #60760A",
"&@	c #697228",
"*@	c #996C5A",
"=@	c #DEA68C",
"-@	c #CE2A0F",
";@	c #E12A0D",
">@	c #C67965",
",@	c #C74532",
"'@	c #9F321F",
")@	c #786C0E",
"!@	c #687F0F",
"~@	c #AF7E69",
"{@	c #CC513D",
"]@	c #DC290D",
"^@	c #DA321A",
"/@	c #BC8A74",
"(@	c #785043",
"_@	c #745E1B",
":@	c #656E1C",
"<@	c #62770B",
"[@	c #5F760A",
"}@	c #657B0C",
"|@	c #9E715F",
"1@	c #D29C85",
"2@	c #B07F6C",
"3@	c #D6A087",
"4@	c #B86D59",
"5@	c #AB4E3E",
"6@	c #CD6D59",
"7@	c #D59981",
"8@	c #E2A990",
"9@	c #726832",
"0@	c #667A0D",
"a@	c #637A0B",
"b@	c #456005",
"c@	c #526B07",
"d@	c #677E0F",
"e@	c #B1816D",
"f@	c #C08C77",
"g@	c #BF8B76",
"h@	c #CF9981",
"i@	c #9D6E5B",
"j@	c #667C0E",
"k@	c #637D0E",
"l@	c #5F790B",
"m@	c #5B7409",
"n@	c #546E07",
"o@	c #4E6A08",
"p@	c #486405",
"q@	c #5E760A",
"r@	c #878360",
"s@	c #B88772",
"t@	c #9E6C5A",
"u@	c #677F0F",
"v@	c #5F780D",
"w@	c #5B7408",
"x@	c #516A07",
"y@	c #526C07",
"z@	c #827E3E",
"A@	c #B68571",
"B@	c #906454",
"C@	c #657D0E",
"D@	c #5F780C",
"E@	c #896946",
"F@	c #667B0E",
"G@	c #80713E",
"H@	c #D79F87",
"I@	c #CC967F",
"J@	c #C18E78",
"K@	c #68652D",
"L@	c #61790B",
"M@	c #6D7226",
"N@	c #69593A",
"O@	c #5D5E21",
"P@	c #5F5F1F",
"Q@	c #5F6020",
"R@	c #5E6121",
"S@	c #66732A",
"T@	c #736933",
"U@	c #CE9882",
"V@	c #E5AB91",
"W@	c #A37766",
"X@	c #647A0A",
"Y@	c #667B0C",
"Z@	c #647B0C",
"`@	c #617B0D",
" #	c #5C7508",
".#	c #7B6E39",
"+#	c #B1826E",
"@#	c #816749",
"##	c #647D0F",
"$#	c #6F6631",
"%#	c #7E6F40",
"&#	c #616E24",
"*#	c #637A0A",
"=#	c #5C760B",
"-#	c #597308",
";#	c #65790D",
">#	c #6A7B22",
",#	c #6A7C27",
"'#	c #647D0D",
")#	c #5D760A",
"!#	c #576F09",
"~#	c #5B730A",
"{#	c #5C740B",
"]#	c #5B7309",
"  . + @ # $ % & * = - ; > , ' ) ! ~ { ] ] , , ^ / ( _ : < [ } } ",
"| 1 , 2 3 4 5 6 7 8 9 ^ & 0 a b c d e c 3 f 3 3 g h i j , a ~ c ",
"e k 0 4 ^ l m 0 ^ n o p q r s t u v w d ^ ) x y d g + z 5 z % % ",
"z d z z A ! B C D E F G H I J K L M N O P Q R S T { # $ n & U 6 ",
"V 5 k 7 k q W X Y Z `  ...+.+.....+...+.@.#.$.%.&.*.=.-.> ;.7 k ",
">.V 7 5 4 ,.'.).!.~.{.+.+.+.+.+.+.+.+.+.+.+.].^./.@ (.@ , d { _.",
":.<.[.}.' { | |.1.+.2.+.+.+.+.+.....+...+.+.+.3.4.] 5.] , 7 d 6.",
"7.8.9.0.a.b.c.d.+.+.+.+.+.+.+.+.+.+.+.+.+.+.+.+.e.f.g.0 $ h.% ' ",
"i.0.j.k.l.*.m.2...........+.2.+...+.2.+.+.+.2...n.F 7 o.> $ { p.",
"' ~ }.c q.r.s.+.+.+.+.+.+.+.+.+.+.+.+.+.+.+.+.+.+.t.7 o k > | { ",
"d b a % k u.L 2.+.+.+...+.+.+.+.....+.+.2.+.+.+.+.v.k o 7 ^ k , ",
"k ^ o k $ w.+.+.+.+.+.+.+.+.x.y.+.+.+.+.+.z.A.+.+.B.C.o o k ;.D.",
"E.^ ^ ^ z F.+.2.+.+.+.....+.L G.K ..+.+.2.H.I.....J.K.k ,.k L.M.",
"- N.o 7 7 O.+.+.+.+.+.+.+.P.Q.R.+.S.L {.+.T.U.V.+.W.X.7 ^ q Y.= ",
"9 k 7 o q Z...+.+.+...`. +J .+++..@+#+$+2.%+&+y.*+=+o f 7 7 0 N.",
"5 ^ ;.6 ,.-+z.+.+...;+>+>+,+@...+.'+)+!++.+.+.~+>+{+]+o n p ^+p ",
"^ n /+o.d d (+2.+._+>+>+>+:++.+...<+[+}+2.+.|+1+2+3+4+;.,.k k 5+",
"6+9.7+8+. 9+0+}++.a+>+>+>+:+..+.+.+.+...+.b+c+d+e+f+7 o d n g+h+",
"l j.9.i+j+(.k+l+m+n+o+:+p+q+r+s+]...2.+...t+u+v+v+w+U ^ k x+y+z+",
"A+7.l B+C++ @ D+E+F+G+H+I+J+K+L+M+N++.+.O+P+Q+v+v+R+S+^ T+c m z+",
", c U+' ' , , d d V+W+X+Y+Z+`+v+v+ @..2..@I +@@@#@$@o ^ /+$ d a ",
"3 %@a m | g.4 6 &@*@+. .=@-@;@v+v+>@+.+.+.S.A.,@'@)@7 n n $ 0 z ",
"k 6 , !@a $ f & F ~@..2.x.{@]@v+^@O++.+.2./@(@_@:@6 n 7 ^ 7 7 d ",
"<@{ , } [@^ 6 }@|@1@2@3.3@4@5@6@7@2.....+.8@9@7 & ^ 0@p V n a@d ",
"@ b@U+c@' o.k.d@e@..P.f@g@h@S.2.....2.2.2.2.i@5 ^ c ) j@8.d@k@l@",
"m@n@o@p@m q@B+r@s@+.+.+.+.+.+.+.+.+.+.+.+.+.t@& ^ c y+[ 9.u@0.v@",
"@ w@x@y@, d L.z@A@+...2...+...2.....+...2...B@T+% ' m A+! C@8+D@",
"1 | g.3 ) 7 7 o E@@...+.+.+...+...+. .+.+...u.F@% a g.' a 7.c d ",
"q 0 o.d a@^ 7 7 G@<+..2.N+z.M J H@I@J@2.2.3@K@5+$ d D., ^ z d ) ",
"L@d | ^ ^ 7 n o M@J@+.y.N@O@P@Q@R@S@T@U@V@W@% & 7 k ) 7.o X@Y@Z@",
"`@q@ #] 3 q 7 o o .#+#@#L@, ) 9.d@##a.$#%#&#k *#d T+l 6+z+7.d@j.",
"i+=#-#=.{ $ d ^ ;#>#,#$ { q@i.'#9.k.a.@ k+)#{ a !#~#{#]#8+l 9.9."};
