/* XPM */
static char * foe_l0_xpm[] = {
"32 32 381 2",
"  	c #647C0E",
". 	c #627A0D",
"+ 	c #627B0C",
"@ 	c #546F08",
"# 	c #526D08",
"$ 	c #536C0A",
"% 	c #60770C",
"& 	c #63790B",
"* 	c #60770A",
"= 	c #5E7609",
"- 	c #5F770A",
"; 	c #627A0C",
"> 	c #637B0D",
", 	c #637A0C",
"' 	c #60780B",
") 	c #607709",
"! 	c #667B15",
"~ 	c #8C8C73",
"{ 	c #8C8B73",
"] 	c #6A7C21",
"^ 	c #647A0C",
"/ 	c #63790C",
"( 	c #62780B",
"_ 	c #5F7609",
": 	c #5C7509",
"< 	c #5C7409",
"[ 	c #5E770B",
"} 	c #61790D",
"| 	c #62790C",
"1 	c #61780B",
"2 	c #526D07",
"3 	c #436004",
"4 	c #586F09",
"5 	c #62770A",
"6 	c #61780A",
"7 	c #627809",
"8 	c #61790A",
"9 	c #62790B",
"0 	c #61770B",
"a 	c #617709",
"b 	c #667A12",
"c 	c #667A16",
"d 	c #64790B",
"e 	c #63790A",
"f 	c #64790C",
"g 	c #617809",
"h 	c #5F7608",
"i 	c #5F7709",
"j 	c #60780A",
"k 	c #63780B",
"l 	c #71752D",
"m 	c #6A6F22",
"n 	c #746B38",
"o 	c #7B6D3B",
"p 	c #7B6C3B",
"q 	c #796C39",
"r 	c #797040",
"s 	c #797147",
"t 	c #62790A",
"u 	c #64780B",
"v 	c #63780A",
"w 	c #657A0C",
"x 	c #5F770B",
"y 	c #647C0D",
"z 	c #62780A",
"A 	c #657A0B",
"B 	c #7E703E",
"C 	c #9B6E5D",
"D 	c #A47562",
"E 	c #7B6240",
"F 	c #927556",
"G 	c #B78773",
"H 	c #D29C84",
"I 	c #DDA68C",
"J 	c #E2AA90",
"K 	c #E1A98F",
"L 	c #DBA48B",
"M 	c #CC9780",
"N 	c #B58672",
"O 	c #8E7456",
"P 	c #766A35",
"Q 	c #8B6D4C",
"R 	c #996B59",
"S 	c #896E51",
"T 	c #5E770A",
"U 	c #60770B",
"V 	c #647A0B",
"W 	c #5C7507",
"X 	c #5B7308",
"Y 	c #5B7509",
"Z 	c #A97966",
"` 	c #542C26",
" .	c #6C453A",
"..	c #C5917B",
"+.	c #E3AA91",
"@.	c #E6AC92",
"#.	c #E5AC92",
"$.	c #E4AB91",
"%.	c #A87966",
"&.	c #936656",
"*.	c #522A25",
"=.	c #9C6F5D",
"-.	c #756E3F",
";.	c #667C0D",
">.	c #587109",
",.	c #5A7309",
"'.	c #966B5B",
").	c #7D5548",
"!.	c #DAA28A",
"~.	c #DDA58C",
"{.	c #B3836E",
"].	c #60372F",
"^.	c #9C6E5C",
"/.	c #7A6D37",
"(.	c #627709",
"_.	c #577109",
":.	c #566F08",
"<.	c #5E7509",
"[.	c #765D3C",
"}.	c #D9A189",
"|.	c #E5AB92",
"1.	c #DBA38A",
"2.	c #A27360",
"3.	c #637B0C",
"4.	c #657C0E",
"5.	c #657C0D",
"6.	c #516C07",
"7.	c #607809",
"8.	c #61770A",
"9.	c #697024",
"0.	c #BC8974",
"a.	c #CE9A83",
"b.	c #69632F",
"c.	c #5C7609",
"d.	c #5F790C",
"e.	c #647D0E",
"f.	c #667E0F",
"g.	c #667D0F",
"h.	c #647B0D",
"i.	c #5D7509",
"j.	c #627A0B",
"k.	c #E0A88E",
"l.	c #A47664",
"m.	c #5E780C",
"n.	c #637C0E",
"o.	c #667E0E",
"p.	c #607A0C",
"q.	c #A37462",
"r.	c #CE9881",
"s.	c #817142",
"t.	c #60790B",
"u.	c #B78671",
"v.	c #796D3A",
"w.	c #63770A",
"x.	c #766B37",
"y.	c #C6917A",
"z.	c #D49D86",
"A.	c #DCA38B",
"B.	c #D59F87",
"C.	c #E1A88F",
"D.	c #997857",
"E.	c #6B7C23",
"F.	c #63780C",
"G.	c #6A6123",
"H.	c #CA947D",
"I.	c #D09B83",
"J.	c #C4917C",
"K.	c #C08E79",
"L.	c #A67863",
"M.	c #6B7C27",
"N.	c #697C20",
"O.	c #727835",
"P.	c #C18D77",
"Q.	c #C8947D",
"R.	c #4B2319",
"S.	c #B58570",
"T.	c #E4AA91",
"U.	c #A97B67",
"V.	c #653F34",
"W.	c #DAA38A",
"X.	c #A57663",
"Y.	c #667A15",
"Z.	c #BB8B6D",
"`.	c #ECB38C",
" +	c #865C4C",
".+	c #CB967F",
"++	c #A6715E",
"@+	c #9C614F",
"#+	c #DAA289",
"$+	c #AE7E6A",
"%+	c #70473A",
"&+	c #E6AD8F",
"*+	c #E5AD8F",
"=+	c #947450",
"-+	c #617609",
";+	c #716A38",
">+	c #E2AB7E",
",+	c #F8BF85",
"'+	c #EEB589",
")+	c #BE856D",
"!+	c #C66F57",
"~+	c #D8A188",
"{+	c #ECB38B",
"]+	c #F0B786",
"^+	c #DCA48B",
"/+	c #746930",
"(+	c #657A0D",
"_+	c #6F6937",
":+	c #E1A97D",
"<+	c #F5BC84",
"[+	c #C8937C",
"}+	c #AA6A55",
"|+	c #DEA68D",
"1+	c #F6BE85",
"2+	c #E8AE8F",
"3+	c #AE7D69",
"4+	c #647A0D",
"5+	c #637A0D",
"6+	c #61780C",
"7+	c #A46B4F",
"8+	c #D5634C",
"9+	c #D46C55",
"0+	c #D69F87",
"a+	c #E7AE8E",
"b+	c #656D21",
"c+	c #5E760B",
"d+	c #627B0D",
"e+	c #657E0E",
"f+	c #657B0D",
"g+	c #5F780B",
"h+	c #60780C",
"i+	c #61770C",
"j+	c #D4321A",
"k+	c #F2290A",
"l+	c #C75441",
"m+	c #E3AA90",
"n+	c #CB8B74",
"o+	c #CF6D5A",
"p+	c #D69472",
"q+	c #F5BD86",
"r+	c #EDB48A",
"s+	c #DBA38B",
"t+	c #AB7B69",
"u+	c #646D1F",
"v+	c #5A7408",
"w+	c #5D770B",
"x+	c #617B0E",
"y+	c #62780C",
"z+	c #7A7A36",
"A+	c #EC290B",
"B+	c #C5280F",
"C+	c #9A6D5B",
"D+	c #D39D84",
"E+	c #CF947C",
"F+	c #EA2A0C",
"G+	c #AA705D",
"H+	c #A87A66",
"I+	c #9F705D",
"J+	c #66532F",
"K+	c #696F1B",
"L+	c #5E7608",
"M+	c #5D770A",
"N+	c #60790C",
"O+	c #617A0C",
"P+	c #D62C12",
"Q+	c #E1280B",
"R+	c #BF4634",
"S+	c #D49E86",
"T+	c #D27B65",
"U+	c #C2280F",
"V+	c #976A58",
"W+	c #E1A990",
"X+	c #A06C59",
"Y+	c #61790C",
"Z+	c #786C0E",
"`+	c #C72E18",
" @	c #D22A0F",
".@	c #CA8671",
"+@	c #E2A990",
"@@	c #C7836D",
"#@	c #D6270C",
"$@	c #CD3C26",
"%@	c #996C5A",
"&@	c #697228",
"*@	c #60760A",
"=@	c #676F1F",
"-@	c #835D18",
";@	c #8E6453",
">@	c #BE8B76",
",@	c #CF4C39",
"'@	c #D4290E",
")@	c #C87963",
"!@	c #AF7F6B",
"~@	c #687F0F",
"{@	c #637A0B",
"]@	c #667A0D",
"^@	c #726832",
"/@	c #CB8D75",
"(@	c #944537",
"_@	c #CF9A82",
":@	c #B4836F",
"<@	c #D39D85",
"[@	c #9E715F",
"}@	c #657B0C",
"|@	c #5F760A",
"1@	c #62770B",
"2@	c #5F790B",
"3@	c #637D0E",
"4@	c #677E0F",
"5@	c #667C0E",
"6@	c #9A6C59",
"7@	c #DFA78E",
"8@	c #C08D77",
"9@	c #B88772",
"0@	c #D59F88",
"a@	c #B1816D",
"b@	c #526B07",
"c@	c #456004",
"d@	c #5F780D",
"e@	c #677F0F",
"f@	c #9E6C5A",
"g@	c #878360",
"h@	c #5E760A",
"i@	c #486405",
"j@	c #4E6A08",
"k@	c #546E07",
"l@	c #5B7409",
"m@	c #5F780C",
"n@	c #657D0E",
"o@	c #906454",
"p@	c #B68571",
"q@	c #827E3E",
"r@	c #526C07",
"s@	c #516A07",
"t@	c #5B7408",
"u@	c #667B0E",
"v@	c #756A36",
"w@	c #896946",
"x@	c #646F1E",
"y@	c #C18E78",
"z@	c #CC967F",
"A@	c #D79F87",
"B@	c #D69F86",
"C@	c #776B36",
"D@	c #647B0C",
"E@	c #667B0C",
"F@	c #647A0A",
"G@	c #A37766",
"H@	c #E5AB91",
"I@	c #CE9882",
"J@	c #736933",
"K@	c #66732A",
"L@	c #5E6121",
"M@	c #5F6020",
"N@	c #5F5F1F",
"O@	c #5D5E21",
"P@	c #69593A",
"Q@	c #C28E79",
"R@	c #6F7328",
"S@	c #61790B",
"T@	c #637A0A",
"U@	c #616E24",
"V@	c #7E6F40",
"W@	c #6F6631",
"X@	c #647D0F",
"Y@	c #816749",
"Z@	c #B1826D",
"`@	c #7D6E39",
" #	c #5C7508",
".#	c #617B0D",
"+#	c #5B7309",
"@#	c #5C740B",
"##	c #5B730A",
"$#	c #576F09",
"%#	c #5D760A",
"&#	c #647D0D",
"*#	c #6A7C27",
"=#	c #6A7B22",
"-#	c #65790D",
";#	c #597308",
">#	c #5C760B",
"    . + @ # $ % & * * = = - ; > , ' * ) ! ~ { ] ^ / ( _ : < [ } ",
"| ; 1 * 2 3 4 5 6 6 7 6 | 8 9 | 0 1 a ^ & b c d e f g 6 h * i j ",
"/ / k f k < 5 9 l m , & 9 n o p q r s t u v w & a x y & g a z 8 ",
"e A ^ w ( _ - B C D E F G H I J K L M N O P Q R S T > U k k 9 k ",
"z d V ) W X Y Z `  ...+.@.#.@.#.#.@.@.#.$.%.&.*.=.-.t z d z f ;.",
">.- 9 * : ,.: '.).!.@.@.@.@.@.@.@.@.@.@.@.~.{.].^./.(.g f d ;._.",
":.9 d * = <.= [.}.@.@.@.#.@.#.#.@.@.@.@.@.|.@.1.2.j - ' 3.4.5.6.",
"' / 7.( a 8.9.0.@.@.@.@.@.@.@.@.@.@.@.@.@.@.@.@.a.b.c.d.e.f.g.h.",
"i.- ( ) j.d P k.#.|.@.@.@.|.@.#.@.|.@.#.#.#.#.#.|.l.Y m.n.o.e.p.",
"- j ) z v d q.@.@.@.@.@.@.@.@.@.@.@.@.@.@.@.@.@.@.r.s.t.| 3.; ' ",
"* z & d v z u.@.@.@.@.|.@.@.#.#.@.@.@.@.#.@.@.@.|.J v.z / 1 0 9 ",
"w.V z v v x.y.@.@.z.A.@.@.@.@.@.B.C.@.@.@.@.@.@.@.@.D.( z v & z ",
"E.F.z (.z G.H.#.#.I.J.|.@.@.#.K K.J @.#.#.@.@.@.|.@.L.k & & & M.",
"{ N.t & d O.P.@.Q.R.S.@.~.J T.@.U.V.W.@.@.@.@.@.@.@.X.d d v Y.~ ",
"Y.a d d 7 v Z.`.B. +.+|.++@+#+#.$+%+L &+*+#.@.@.@.#.=+t v d z b ",
"u -+u w v ;+>+,+'+@.@.@.)+!+~+@.#.+.{+,+,+]+#.@.@.^+/+(.e V & f ",
"(+z z (.V _+:+,+<+@.@.|.[+}+|+#.@.@.1+,+,+,+2+@.|.3+9 9 j.4+w & ",
"5+6+w 9 v d 7+8+9+0+@.@.#.@.@.@.@.#.1+,+,+,+a+@.[+b+c+[ d+e+f.f+",
"g+h+i+z & A j+k+k+l+m+#.@.|.#.#.n+o+p+q+1+r+s+t+u+v+,.w+x+f.o.y ",
"g+x | y+& z+A+k+k+B+C+D+@.@.@.E+F+k+F+G+H+I+J+K+L+: < M+N+y h.O+",
"1 9 ( 4+& v P+k+Q+R+S+S+#.#.@.T+k+k+A+U+V+W+X+9 9 * * ' ' Y+| * ",
"k a ( w w d Z+`+ @.@+@@.@.@.@.@@k+k+#@$@k.@.%@&@e g 8.j x 1 *@6 ",
"9 d d & d w e =@-@;@>@|.@.@.#.L ,@k+'@)@|.#.!@P ^ 7 ( 1 ~@* e z ",
"9 {@w ;.u ]@& ^ d ^@+@@.#.#.#.#.|+/@(@_@K :@<@[@}@e & |@  * - 1@",
"2@3@4@g.5@, | & f 6@|.|.|.|.#.#.|.#.7@8@9@0@#.a@4@n.j.' b@Y+c@: ",
"d@e.e@f.. h+| & ^ f@@.@.@.@.@.@.@.@.@.@.@.@.@.9@g@N+h@x i@j@k@l@",
"m@d+n@> O+x ' / y+o@#.|.#.@.#.#.|.#.@.#.|.#.@.p@q@F.9 * r@s@t@: ",
"9 | h.1 ' 8.1 / u@v@#.@.@.$.@.#.@.#.@.@.@.#.+.w@v d d , 6 8.j i ",
", 9 k & * w.9 ( (+x@S+|.|.y@z@A@L I ^+B@|.#.7@C@d d & {@9 j.a t ",
"D@E@F@v h., z d ^ / G@H@I@J@K@L@M@N@O@P@B.@.Q@R@v w d & & j 9 S@",
"o.4@h.g+f+y y+9 T@z U@V@W@d.X@4@f., * S@Y@Z@`@v v d t 6 =  #h@.#",
"f.f.y d++#@###$#1 - %#v+: d.n.f.&#p.h@- ( *#=#-#& 9 ( - X ;#>#x+"};
