/* XPM */
static char * foe_l0_xpm[] = {
"32 32 385 2",
"  	c #61790D",
". 	c #5E770B",
"+ 	c #5C7409",
"@ 	c #5C7509",
"# 	c #5F7609",
"$ 	c #62780B",
"% 	c #63790C",
"& 	c #647A0C",
"* 	c #6A7C21",
"= 	c #8C8B73",
"- 	c #8C8C73",
"; 	c #667B15",
"> 	c #607709",
", 	c #60770A",
"' 	c #60780B",
") 	c #637A0C",
"! 	c #637B0D",
"~ 	c #627A0C",
"{ 	c #5F770A",
"] 	c #5E7609",
"^ 	c #637920",
"/ 	c #63790B",
"( 	c #60770C",
"_ 	c #536C0A",
": 	c #526D08",
"< 	c #546F08",
"[ 	c #627B0C",
"} 	c #627A0D",
"| 	c #647C0E",
"1 	c #60780A",
"2 	c #5F7709",
"3 	c #5F7608",
"4 	c #61780A",
"5 	c #617809",
"6 	c #64790C",
"7 	c #63790A",
"8 	c #64790B",
"9 	c #667A16",
"0 	c #667A12",
"a 	c #617709",
"b 	c #61780B",
"c 	c #61770B",
"d 	c #62790C",
"e 	c #62790B",
"f 	c #61790A",
"g 	c #627809",
"h 	c #62770A",
"i 	c #586F09",
"j 	c #436004",
"k 	c #526D07",
"l 	c #62780A",
"m 	c #647C0D",
"n 	c #5F770B",
"o 	c #71752D",
"p 	c #6C7122",
"q 	c #63780A",
"r 	c #64780B",
"s 	c #62790A",
"t 	c #736A38",
"u 	c #7C6E3B",
"v 	c #7B6D3B",
"w 	c #796B39",
"x 	c #786F40",
"y 	c #797247",
"z 	c #637A0B",
"A 	c #63780B",
"B 	c #60770B",
"C 	c #5E770A",
"D 	c #7E6F3E",
"E 	c #9B6E5D",
"F 	c #A47562",
"G 	c #7B6140",
"H 	c #917556",
"I 	c #B78773",
"J 	c #D29C84",
"K 	c #DDA68C",
"L 	c #E2AA90",
"M 	c #E1A98F",
"N 	c #DBA48B",
"O 	c #CC9780",
"P 	c #B58672",
"Q 	c #8E7456",
"R 	c #766B35",
"S 	c #8B6D4C",
"T 	c #996B59",
"U 	c #8A6F51",
"V 	c #657A0C",
"W 	c #657A0B",
"X 	c #667C0D",
"Y 	c #A97966",
"Z 	c #542C26",
"` 	c #6C453A",
" .	c #C5917B",
"..	c #E3AA91",
"+.	c #E6AC92",
"@.	c #E5AC92",
"#.	c #E4AB91",
"$.	c #A87966",
"%.	c #936656",
"&.	c #522A25",
"*.	c #9C6F5D",
"=.	c #716B3F",
"-.	c #5B7308",
";.	c #5C7507",
">.	c #647A0B",
",.	c #577109",
"'.	c #627709",
").	c #966B5B",
"!.	c #7D5548",
"~.	c #DAA28A",
"{.	c #DDA58C",
"].	c #B3836E",
"^.	c #60372F",
"/.	c #9C6E5C",
"(.	c #766937",
"_.	c #5A7309",
":.	c #587109",
"<.	c #516C07",
"[.	c #657C0D",
"}.	c #657C0E",
"|.	c #637B0C",
"1.	c #775E3C",
"2.	c #D9A189",
"3.	c #E5AB92",
"4.	c #DBA38A",
"5.	c #A27360",
"6.	c #5E7509",
"7.	c #566F08",
"8.	c #647B0D",
"9.	c #667D0F",
"0.	c #667E0F",
"a.	c #647D0E",
"b.	c #5F790C",
"c.	c #5C7609",
"d.	c #656D23",
"e.	c #BC8974",
"f.	c #CE9A83",
"g.	c #6B652F",
"h.	c #61770A",
"i.	c #607809",
"j.	c #607A0C",
"k.	c #667E0E",
"l.	c #637C0E",
"m.	c #5E780C",
"n.	c #5B7509",
"o.	c #736735",
"p.	c #E0A88E",
"q.	c #A47664",
"r.	c #627A0B",
"s.	c #5D7509",
"t.	c #60790B",
"u.	c #A37462",
"v.	c #CE9881",
"w.	c #837342",
"x.	c #B78671",
"y.	c #796D3A",
"z.	c #756B37",
"A.	c #C6917A",
"B.	c #D49D86",
"C.	c #DCA38B",
"D.	c #D59F87",
"E.	c #E1A88F",
"F.	c #997857",
"G.	c #63770A",
"H.	c #6B7C27",
"I.	c #6A6023",
"J.	c #CA947D",
"K.	c #D09B83",
"L.	c #C4917C",
"M.	c #C08E79",
"N.	c #A67863",
"O.	c #63780C",
"P.	c #6B7C23",
"Q.	c #667A15",
"R.	c #757936",
"S.	c #C18D77",
"T.	c #C8947D",
"U.	c #4B2319",
"V.	c #B58570",
"W.	c #E4AA91",
"X.	c #A97B67",
"Y.	c #653F34",
"Z.	c #DAA38A",
"`.	c #A57663",
" +	c #697C20",
".+	c #8C8C74",
"++	c #BB8B6D",
"@+	c #ECB38C",
"#+	c #865C4C",
"$+	c #CB967F",
"%+	c #A6715E",
"&+	c #9C614F",
"*+	c #DAA289",
"=+	c #AE7E6A",
"-+	c #70473A",
";+	c #E6AD8F",
">+	c #E5AD8F",
",+	c #947350",
"'+	c #726C38",
")+	c #E2AB7E",
"!+	c #F8BF85",
"~+	c #EEB589",
"{+	c #BE856D",
"]+	c #C66F57",
"^+	c #D8A188",
"/+	c #ECB38B",
"(+	c #F0B786",
"_+	c #DCA48B",
":+	c #73682F",
"<+	c #617609",
"[+	c #647A0D",
"}+	c #6E6A37",
"|+	c #E1A97D",
"1+	c #F5BC84",
"2+	c #C8937C",
"3+	c #AA6A55",
"4+	c #DEA68D",
"5+	c #F6BE85",
"6+	c #E8AE8F",
"7+	c #AE7D69",
"8+	c #657A0D",
"9+	c #657B0D",
"0+	c #657E0E",
"a+	c #627B0D",
"b+	c #5E760B",
"c+	c #A46B4F",
"d+	c #D5634C",
"e+	c #D46C55",
"f+	c #D69F87",
"g+	c #E7AE8E",
"h+	c #6A7122",
"i+	c #61780C",
"j+	c #637A0D",
"k+	c #617B0E",
"l+	c #5D770B",
"m+	c #D4321A",
"n+	c #F2290A",
"o+	c #C75441",
"p+	c #E3AA90",
"q+	c #CB8B74",
"r+	c #CF6D5A",
"s+	c #D69472",
"t+	c #F5BD86",
"u+	c #EDB48A",
"v+	c #DBA38B",
"w+	c #AB7B69",
"x+	c #68701F",
"y+	c #667A0C",
"z+	c #61770C",
"A+	c #60780C",
"B+	c #5F780B",
"C+	c #617A0C",
"D+	c #60790C",
"E+	c #5D770A",
"F+	c #767535",
"G+	c #EC290B",
"H+	c #C5280F",
"I+	c #9A6D5B",
"J+	c #D39D84",
"K+	c #CF947C",
"L+	c #EA2A0C",
"M+	c #AA705D",
"N+	c #A87A66",
"O+	c #9F705D",
"P+	c #65522F",
"Q+	c #696D1B",
"R+	c #62780C",
"S+	c #61790C",
"T+	c #D62C12",
"U+	c #E1280B",
"V+	c #BF4634",
"W+	c #D49E86",
"X+	c #D27B65",
"Y+	c #C2280F",
"Z+	c #976A58",
"`+	c #E1A990",
" @	c #A06C59",
".@	c #60760A",
"+@	c #766A0C",
"@@	c #C72E18",
"#@	c #D22A0F",
"$@	c #CA8671",
"%@	c #E2A990",
"&@	c #C7836D",
"*@	c #D6270C",
"=@	c #CD3C26",
"-@	c #996C5A",
";@	c #697228",
">@	c #687F0F",
",@	c #697020",
"'@	c #835E18",
")@	c #8E6453",
"!@	c #BE8B76",
"~@	c #CF4C39",
"{@	c #D4290E",
"]@	c #C87963",
"^@	c #AF7F6B",
"/@	c #62770B",
"(@	c #5F760A",
"_@	c #657B0C",
":@	c #617A0A",
"<@	c #736A32",
"[@	c #CB8D75",
"}@	c #944537",
"|@	c #CF9A82",
"1@	c #B4836F",
"2@	c #D39D85",
"3@	c #9E715F",
"4@	c #667A0D",
"5@	c #456005",
"6@	c #526B07",
"7@	c #677E0F",
"8@	c #9A6C59",
"9@	c #DFA78E",
"0@	c #C08D77",
"a@	c #B88772",
"b@	c #D59F88",
"c@	c #B1816D",
"d@	c #667C0E",
"e@	c #637D0E",
"f@	c #5F790B",
"g@	c #5B7409",
"h@	c #546E07",
"i@	c #4E6A08",
"j@	c #486405",
"k@	c #5E760A",
"l@	c #9E6C5A",
"m@	c #878260",
"n@	c #677F0F",
"o@	c #5F780D",
"p@	c #5B7408",
"q@	c #516A07",
"r@	c #526C07",
"s@	c #906454",
"t@	c #B68571",
"u@	c #837F3E",
"v@	c #657D0E",
"w@	c #5F780C",
"x@	c #756B36",
"y@	c #896946",
"z@	c #646E1D",
"A@	c #C18E78",
"B@	c #CC967F",
"C@	c #D79F87",
"D@	c #D69F86",
"E@	c #776B36",
"F@	c #61790B",
"G@	c #A37766",
"H@	c #E5AB91",
"I@	c #CE9882",
"J@	c #746832",
"K@	c #67722A",
"L@	c #5D6021",
"M@	c #5F6020",
"N@	c #5B5E21",
"O@	c #67583A",
"P@	c #C28E79",
"Q@	c #6F7328",
"R@	c #647A0A",
"S@	c #667B0C",
"T@	c #647B0C",
"U@	c #617B0D",
"V@	c #5C7508",
"W@	c #64790A",
"X@	c #636F23",
"Y@	c #817140",
"Z@	c #726831",
"`@	c #647D0F",
" #	c #5C750A",
".#	c #806749",
"+#	c #B1826D",
"@#	c #7B6D39",
"##	c #637A0A",
"$#	c #5C760B",
"%#	c #597308",
"&#	c #65790D",
"*#	c #6A7B22",
"=#	c #6A7C27",
"-#	c #647D0D",
";#	c #5A7408",
">#	c #5D760A",
",#	c #576F09",
"'#	c #5B730A",
")#	c #5C740B",
"!#	c #5B7309",
"  . + @ # $ % & * = - ; > , ' ) ! ~ { ] ] ^ , / ( _ : < [ } | | ",
"1 2 , 3 4 5 6 7 8 9 0 / & a b c d e f d 4 g 4 4 h i j k , b ~ d ",
"f l a 5 / m n a o p q r s t u v w x y e / ) 4 z e h + A 6 A % % ",
"A e A A B ! C D E F G H I J K L M N O P Q R S T U { # $ V & W 7 ",
"X 6 l 8 l s r Y Z `  ...+.@.+.@.@.+.+.@.#.$.%.&.*.=.-.;.> >.8 l ",
",.X 8 6 5 '.& ).!.~.+.+.+.+.+.+.+.+.+.+.+.{.].^./.(._.@ , e { :.",
"<.[.}.|.' { 1 1.2.+.+.+.@.+.@.@.+.+.+.+.+.3.+.4.5.] 6.] , 8 e 7.",
"8.9.0.a.b.c.d.e.+.+.+.+.+.+.+.+.+.+.+.+.+.+.+.+.f.g.h.a $ i.% ' ",
"j.a.k.l.m.n.o.p.@.3.+.+.+.3.+.@.+.3.+.@.@.@.@.@.3.q.8 r.> $ { s.",
"' ~ |.d t.] u.+.+.+.+.+.+.+.+.+.+.+.+.+.+.+.+.+.+.v.w.q l > 1 { ",
"e c b % l b x.+.+.+.+.3.+.+.@.@.+.+.+.+.@.+.+.+.3.L y.q 8 / l , ",
"l / q l $ z.A.+.+.B.C.+.+.+.+.+.D.E.+.+.+.+.+.+.+.+.F.q q l >.G.",
"H./ / / A I.J.@.@.K.L.3.+.+.@.M M.L +.@.@.+.+.+.3.+.N.l '.l O.P.",
"- Q.q 8 8 R.S.+.T.U.V.+.{.L W.+.X.Y.Z.+.+.+.+.+.+.+.`.8 / s  +.+",
"0 l 8 q s q ++@+D.#+$+3.%+&+*+@.=+-+N ;+>+@.+.+.+.@.,+g 8 8 a Q.",
"6 / >.7 '.'+)+!+~++.+.+.{+]+^++.@.../+!+!+(+@.+.+._+:+q V r <+r ",
"/ V [+r.e }+|+!+1++.+.3.2+3+4+@.+.+.5+!+!+!+6++.3.7+q >.'.l l 8+",
"9+0.0+a+. b+c+d+e+f++.+.@.+.+.+.+.@.5+!+!+!+g++.2+h+8 q e V i+j+",
"m k.0.k+l+_.m+n+n+o+p+@.+.3.@.@.q+r+s+t+5+u+v+w+x+y+W / l z+A+B+",
"C+8.m D+E+F+G+n+n+H+I+J++.+.+.K+L+n+L+M+N+O+P+Q+>.8 8 / R+d n B+",
", d S+' ' , T+n+U+V+W+W+@.@.+.X+n+n+G+Y+Z+`+ @6 ~ / q / [+$ e b ",
"4 .@b n 1 h.+@@@#@$@%@+.+.+.+.&@n+n+*@=@p.+.-@;@1 >.8 V V $ a A ",
"l 7 , >@b $ g ,@'@)@!@3.+.+.@.N ~@n+{@]@3.@.^@R / 7 V 8 / 8 8 e ",
"/@{ , | (@/ 7 _@:@<@%@+.@.@.@.@.4+[@}@|@M 1@2@3@& / 4@r X V z e ",
"@ 5@S+6@' r.l.7@| 8@3.3.3.3.@.@.3.@.9@0@a@b@@.c@/ d ) d@9.7@e@f@",
"g@h@i@j@n k@D+8.C+l@+.+.+.+.+.+.+.+.+.+.+.+.+.a@m@d A+} 0.n@a.o@",
"@ p@q@r@, e O.b 4 s@@.3.@.+.@.@.3.@.+.@.3.@.+.t@u@' n C+! v@a+w@",
"2 1 h.4 ) 8 8 q >.x@@.+.+.#.+.@.+.@.+.+.+.@...y@% b h.' b 8.d e ",
"s a r.e z / 8 8 8 z@W+3.3.A@B@C@N K _+D@3.@.9@E@$ e G., / A e ) ",
"F@e 1 / / 8 V q & 8 G@H@I@J@K@L@M@M@N@O@D.+.P@Q@8 l ) 8.q R@S@T@",
"U@k@V@] 4 s 8 q q W@X@Y@Z@, ) 0.7@`@b. #.#+#@###e R+m 9+B+8.7@k.",
"k+$#%#-.{ $ e $ &#*#=#$ { k@j.-#0.l.b.@ ;#>#{ b ,#'#)#!#a+m 0.0."};
