/* XPM */
static char * foe_r2_xpm[] = {
"32 32 379 2",
"  	c #61790D",
". 	c #5E770B",
"+ 	c #5C7409",
"@ 	c #5C7509",
"# 	c #5F7609",
"$ 	c #62780B",
"% 	c #63790C",
"& 	c #647A0C",
"* 	c #6A7C21",
"= 	c #8C8B73",
"- 	c #8C8C73",
"; 	c #667B15",
"> 	c #607709",
", 	c #60770A",
"' 	c #60780B",
") 	c #637A0C",
"! 	c #637B0D",
"~ 	c #627A0C",
"{ 	c #5F770A",
"] 	c #5E7609",
"^ 	c #63790B",
"/ 	c #60770C",
"( 	c #536C0A",
"_ 	c #526D08",
": 	c #546F08",
"< 	c #627B0C",
"[ 	c #627A0D",
"} 	c #647C0E",
"| 	c #60780A",
"1 	c #5F7709",
"2 	c #5F7608",
"3 	c #61780A",
"4 	c #617809",
"5 	c #64790C",
"6 	c #63790A",
"7 	c #64790B",
"8 	c #667A16",
"9 	c #667A12",
"0 	c #617709",
"a 	c #61780B",
"b 	c #61770B",
"c 	c #62790C",
"d 	c #62790B",
"e 	c #61790A",
"f 	c #627809",
"g 	c #62770A",
"h 	c #586F09",
"i 	c #436004",
"j 	c #526D07",
"k 	c #62780A",
"l 	c #647C0D",
"m 	c #5F770B",
"n 	c #657A0C",
"o 	c #63780A",
"p 	c #64780B",
"q 	c #62790A",
"r 	c #797147",
"s 	c #797040",
"t 	c #796C39",
"u 	c #7B6C3B",
"v 	c #7B6D3B",
"w 	c #746B38",
"x 	c #6A6F22",
"y 	c #71752D",
"z 	c #63780B",
"A 	c #60770B",
"B 	c #5E770A",
"C 	c #896E51",
"D 	c #996B59",
"E 	c #8B6D4C",
"F 	c #766A35",
"G 	c #8E7456",
"H 	c #B58672",
"I 	c #CC9780",
"J 	c #DBA48B",
"K 	c #E1A98F",
"L 	c #E2AA90",
"M 	c #DDA68C",
"N 	c #D29C84",
"O 	c #B78773",
"P 	c #927556",
"Q 	c #7B6240",
"R 	c #A47562",
"S 	c #9B6E5D",
"T 	c #7E703E",
"U 	c #657A0B",
"V 	c #667C0D",
"W 	c #756E3F",
"X 	c #9C6F5D",
"Y 	c #522A25",
"Z 	c #936656",
"` 	c #A87966",
" .	c #E4AB91",
"..	c #E5AC92",
"+.	c #E6AC92",
"@.	c #E3AA91",
"#.	c #C5917B",
"$.	c #6C453A",
"%.	c #542C26",
"&.	c #A97966",
"*.	c #5B7509",
"=.	c #5B7308",
"-.	c #5C7507",
";.	c #647A0B",
">.	c #577109",
",.	c #627709",
"'.	c #7A6D37",
").	c #9C6E5C",
"!.	c #60372F",
"~.	c #B3836E",
"{.	c #DDA58C",
"].	c #DAA28A",
"^.	c #7D5548",
"/.	c #966B5B",
"(.	c #5A7309",
"_.	c #587109",
":.	c #516C07",
"<.	c #657C0D",
"[.	c #657C0E",
"}.	c #637B0C",
"|.	c #A27360",
"1.	c #DBA38A",
"2.	c #E5AB92",
"3.	c #D9A189",
"4.	c #765D3C",
"5.	c #5E7509",
"6.	c #566F08",
"7.	c #647B0D",
"8.	c #667D0F",
"9.	c #667E0F",
"0.	c #647D0E",
"a.	c #5F790C",
"b.	c #5C7609",
"c.	c #69632F",
"d.	c #CE9A83",
"e.	c #BC8974",
"f.	c #697024",
"g.	c #61770A",
"h.	c #607809",
"i.	c #607A0C",
"j.	c #667E0E",
"k.	c #637C0E",
"l.	c #5E780C",
"m.	c #A47664",
"n.	c #E0A88E",
"o.	c #627A0B",
"p.	c #5D7509",
"q.	c #60790B",
"r.	c #817142",
"s.	c #CE9881",
"t.	c #A37462",
"u.	c #796D3A",
"v.	c #B78671",
"w.	c #997857",
"x.	c #E1A88F",
"y.	c #D59F87",
"z.	c #DCA38B",
"A.	c #D49D86",
"B.	c #C6917A",
"C.	c #766B37",
"D.	c #63770A",
"E.	c #6B7C27",
"F.	c #A67863",
"G.	c #C08E79",
"H.	c #C4927C",
"I.	c #DBA48C",
"J.	c #CA947D",
"K.	c #6A6123",
"L.	c #63780C",
"M.	c #6B7C23",
"N.	c #667A15",
"O.	c #A57663",
"P.	c #DEA68D",
"Q.	c #C5917A",
"R.	c #CE9780",
"S.	c #E4AA91",
"T.	c #D49E85",
"U.	c #C6917B",
"V.	c #D8A088",
"W.	c #C18D77",
"X.	c #727835",
"Y.	c #697C20",
"Z.	c #947450",
"`.	c #E5AD8F",
" +	c #E6AD8F",
".+	c #DDA58D",
"++	c #C08C77",
"@+	c #C9947D",
"#+	c #DAA289",
"$+	c #9C614F",
"%+	c #A6715E",
"&+	c #D69F87",
"*+	c #C39079",
"=+	c #ECB38C",
"-+	c #BB8B6D",
";+	c #746930",
">+	c #DCA48B",
",+	c #F0B786",
"'+	c #F8BF85",
")+	c #ECB38B",
"!+	c #D8A188",
"~+	c #C66F57",
"{+	c #BE856D",
"]+	c #EEB589",
"^+	c #E2AB7E",
"/+	c #716A38",
"(+	c #617609",
"_+	c #647A0D",
":+	c #AE7D69",
"<+	c #E8AE8F",
"[+	c #F6BE85",
"}+	c #AA6A55",
"|+	c #C8937C",
"1+	c #E1A97D",
"2+	c #6F6937",
"3+	c #657A0D",
"4+	c #657B0D",
"5+	c #657E0E",
"6+	c #627B0D",
"7+	c #5E760B",
"8+	c #656D21",
"9+	c #E7AE8E",
"0+	c #D46C55",
"a+	c #D5634C",
"b+	c #A36B4F",
"c+	c #61780C",
"d+	c #637A0D",
"e+	c #617B0E",
"f+	c #5D770B",
"g+	c #5A7408",
"h+	c #646D1F",
"i+	c #AB7B69",
"j+	c #DBA38B",
"k+	c #EDB48A",
"l+	c #F5BD86",
"m+	c #CF8F6E",
"n+	c #C6624F",
"o+	c #C78771",
"p+	c #E2A990",
"q+	c #C95441",
"r+	c #F2290A",
"s+	c #D4321A",
"t+	c #61770C",
"u+	c #60780C",
"v+	c #5F780B",
"w+	c #617A0C",
"x+	c #60790C",
"y+	c #5D770A",
"z+	c #5E7608",
"A+	c #696F1B",
"B+	c #66532F",
"C+	c #9F705D",
"D+	c #A97A66",
"E+	c #AB715D",
"F+	c #EA2A0C",
"G+	c #C68E77",
"H+	c #D19B83",
"I+	c #9C6E5D",
"J+	c #BD260E",
"K+	c #EC290B",
"L+	c #887747",
"M+	c #62780C",
"N+	c #61790C",
"O+	c #A06C59",
"P+	c #E1A990",
"Q+	c #936756",
"R+	c #C62910",
"S+	c #CA725D",
"T+	c #D49E86",
"U+	c #C23E29",
"V+	c #E1280B",
"W+	c #D62C12",
"X+	c #60760A",
"Y+	c #697228",
"Z+	c #996C5A",
"`+	c #DEA78D",
" @	c #CD3B25",
".@	c #D6270C",
"+@	c #C27A65",
"@@	c #CA8670",
"#@	c #D2290E",
"$@	c #C72E18",
"%@	c #786C0E",
"&@	c #687F0F",
"*@	c #7D6F3B",
"=@	c #C57761",
"-@	c #D4290E",
";@	c #CE4B39",
">@	c #D9A289",
",@	c #BD8B75",
"'@	c #8C6353",
")@	c #855027",
"!@	c #676F1F",
"~@	c #62770B",
"{@	c #5F760A",
"]@	c #657B0C",
"^@	c #9E715F",
"/@	c #D29C83",
"(@	c #B07F6B",
"_@	c #E0A88F",
":@	c #954637",
"<@	c #CA8C74",
"[@	c #746934",
"}@	c #667A0D",
"|@	c #637A0B",
"1@	c #456005",
"2@	c #526B07",
"3@	c #677E0F",
"4@	c #B1816D",
"5@	c #B98772",
"6@	c #BD8B76",
"7@	c #DFA78E",
"8@	c #9C6D5B",
"9@	c #667C0E",
"0@	c #637D0E",
"a@	c #5F790B",
"b@	c #5B7409",
"c@	c #546E07",
"d@	c #4E6A08",
"e@	c #486405",
"f@	c #5E760A",
"g@	c #878360",
"h@	c #B88772",
"i@	c #9C6A58",
"j@	c #677F0F",
"k@	c #5F780D",
"l@	c #5B7408",
"m@	c #516A07",
"n@	c #526C07",
"o@	c #827E3E",
"p@	c #B68571",
"q@	c #906454",
"r@	c #657D0E",
"s@	c #5F780C",
"t@	c #896946",
"u@	c #667B0E",
"v@	c #776B36",
"w@	c #D69F86",
"x@	c #D79F87",
"y@	c #CC967F",
"z@	c #C18E78",
"A@	c #66652C",
"B@	c #61790B",
"C@	c #6F7328",
"D@	c #C28E79",
"E@	c #69593A",
"F@	c #5D5E21",
"G@	c #5F5F1F",
"H@	c #5F6020",
"I@	c #5E6121",
"J@	c #66732A",
"K@	c #736933",
"L@	c #CE9882",
"M@	c #E5AB91",
"N@	c #A37564",
"O@	c #647A0A",
"P@	c #667B0C",
"Q@	c #647B0C",
"R@	c #617B0D",
"S@	c #5C7508",
"T@	c #7D6E39",
"U@	c #B1826D",
"V@	c #816749",
"W@	c #647D0F",
"X@	c #6F6631",
"Y@	c #7E6F40",
"Z@	c #616E24",
"`@	c #637A0A",
" #	c #5C760B",
".#	c #597308",
"+#	c #65790D",
"@#	c #6A7B22",
"##	c #6A7C27",
"$#	c #647D0D",
"%#	c #5D760A",
"&#	c #576F09",
"*#	c #5B730A",
"=#	c #5C740B",
"-#	c #5B7309",
"  . + @ # $ % & * = - ; > , ' ) ! ~ { ] ] , , ^ / ( _ : < [ } } ",
"| 1 , 2 3 4 5 6 7 8 9 ^ & 0 a b c d e c 3 f 3 3 g h i j , a ~ c ",
"e k 0 4 ^ l m 0 ^ n o p q r s t u v w d ^ ) x y d g + z 5 z % % ",
"z d z z A ! B C D E F G H I J K L M N O P Q R S T { # $ n & U 6 ",
"V 5 k 7 k q W X Y Z `  ...+.+.....+...+.@.#.$.%.&.*.=.-.> ;.7 k ",
">.V 7 5 4 ,.'.).!.~.{.+.+.+.+.+.+.+.+.+.+.+.].^./.@ (.@ , d { _.",
":.<.[.}.' { | |.1.+.2.+.+.+.+.+.....+...+.+.+.3.4.] 5.] , 7 d 6.",
"7.8.9.0.a.b.c.d.+.+.+.+.+.+.+.+.+.+.+.+.+.+.+.+.e.f.g.0 $ h.% ' ",
"i.0.j.k.l.*.m.2...........+.2.+...+.2.+.+.+.2...n.F 7 o.> $ { p.",
"' ~ }.c q.r.s.+.+.+.+.+.+.+.+.+.+.+.+.+.+.+.+.+.+.t.7 o k > | { ",
"d b a % k u.L 2.+.+.+...+.+.+.+.....+.+.2.+.+.+.+.v.k o 7 ^ k , ",
"k ^ o k $ w.+.+.+.+.+.+.+.+.x.y.+.+.+.+.+.z.A.+.+.B.C.o o k ;.D.",
"E.^ ^ ^ z F.+.2.+.+.+.....+.L G.K ..+.+.2.H.I.....J.K.k ,.k L.M.",
"- N.o 7 7 O.+.+.+.+.+.+.+.P.Q.R.+.S.L {.+.T.U.V.+.W.X.7 ^ q Y.= ",
"9 k 7 o q Z...+.+.+...`. +.+++@+..#+$+%+2.&+*+J =+-+o f 7 7 0 N.",
"5 ^ ;.6 ,.;+>++.+...,+'+'+)+@...+.!+~+{++.+.+.]+'+^+/+o n p (+p ",
"^ n _+o.d d :+2.+.<+'+'+'+[++.+...P.}+|+2.+.+.[+'+1+2+;.,.k k 3+",
"4+9.5+6+. 7+8+|++.9+'+'+'+[+..+.+.+.+...+.+.&+0+a+b+7 o d n c+d+",
"l j.9.e+f+(.g+h+i+j+k+[+l+m+n+o+2...2.+...p+q+r+r+s+U ^ k t+u+v+",
"w+7.l x+y++ @ z+A+B+C+D+E+F+r+F+G++.+.+.H+I+J+r+r+K+L+^ M+c m v+",
", c N+' ' , , d d O+P+Q+R+K+r+r+S++.....T+T+U+V+r+W+o ^ _+$ d a ",
"3 X+a m | g.4 6 Y+Z++.`+ @.@r+r++@+.+.+.+.S.@@#@$@%@7 n n $ 0 z ",
"k 6 , &@a $ f & *@:+..2.=@-@r+;@>@+.+.+.2.,@'@)@!@6 n 7 ^ 7 7 d ",
"~@{ , } {@^ 6 ]@^@/@(@_@@+:@<@.+2.......+.p+[@7 & ^ }@p V n |@d ",
"@ 1@N+2@' o.k.3@4@..y.5@6@7@..2.....2.2.2.2.8@5 ^ c ) 9@8.3@0@a@",
"b@c@d@e@m f@x+g@h@+.+.+.+.+.+.+.+.+.+.+.+.+.i@& ^ c u+[ 9.j@0.k@",
"@ l@m@n@, d L.o@p@+...2...+...2.....+...2...q@M+% ' m w+! r@6+s@",
"1 | g.3 ) 7 7 o t@@...+.+.+...+...+. .+.+.2.C.u@% a g.' a 7.c d ",
"q 0 o.d |@^ 7 7 v@7@..2.w@>+M J x@y@z@2.2.T+A@3+$ d D., ^ z d ) ",
"B@d | ^ ^ 7 n o C@D@+.y.E@F@G@H@I@J@K@L@M@N@% & 7 k ) 7.o O@P@Q@",
"R@f@S@] 3 q 7 o o T@U@V@B@, ) 9.3@W@a.X@Y@Z@k `@d M+l 4+v+7.3@j.",
"e+ #.#=.{ $ d ^ +#@###$ { f@i.$#9.k.a.@ g+%#{ a &#*#=#-#6+l 9.9."};
