/* XPM */
static char * item0_xpm[] = {
"32 32 314 2",
"  	c #60790C",
". 	c #5E770A",
"+ 	c #5C7409",
"@ 	c #5C7509",
"# 	c #5F7609",
"$ 	c #62780B",
"% 	c #63790C",
"& 	c #64790B",
"* 	c #6B7C27",
"= 	c #8A8A6F",
"- 	c #8A8B6F",
"; 	c #687B1E",
"> 	c #61770A",
", 	c #60770A",
"' 	c #60780B",
") 	c #627A0C",
"! 	c #637B0D",
"~ 	c #62790C",
"{ 	c #5F770A",
"] 	c #5E7609",
"^ 	c #63790B",
"/ 	c #5F760B",
"( 	c #546D0A",
"_ 	c #526D08",
": 	c #546F08",
"< 	c #617A0C",
"[ 	c #647C0D",
"} 	c #647C0E",
"| 	c #60780A",
"1 	c #5F7709",
"2 	c #5F7608",
"3 	c #61780A",
"4 	c #617809",
"5 	c #63790A",
"6 	c #64790D",
"7 	c #677A1F",
"8 	c #677A1C",
"9 	c #617709",
"0 	c #61780B",
"a 	c #61770B",
"b 	c #62790B",
"c 	c #627709",
"d 	c #62770A",
"e 	c #586F09",
"f 	c #456204",
"g 	c #536D07",
"h 	c #62780A",
"i 	c #5F770B",
"j 	c #647A0C",
"k 	c #63780A",
"l 	c #63780B",
"m 	c #62790A",
"n 	c #607608",
"o 	c #61760A",
"p 	c #5C7309",
"q 	c #637A0C",
"r 	c #667A0C",
"s 	c #64790C",
"t 	c #647A0D",
"u 	c #647B0C",
"v 	c #637B0C",
"w 	c #5F760A",
"x 	c #657A0B",
"y 	c #657C0D",
"z 	c #657A0C",
"A 	c #65790C",
"B 	c #60770B",
"C 	c #637A0D",
"D 	c #667E0F",
"E 	c #5F790C",
"F 	c #5B7509",
"G 	c #5B7308",
"H 	c #5C7508",
"I 	c #607709",
"J 	c #647A0B",
"K 	c #587209",
"L 	c #657B0D",
"M 	c #62770B",
"N 	c #5D750A",
"O 	c #607A0D",
"P 	c #647D0E",
"Q 	c #657D0E",
"R 	c #637C0E",
"S 	c #5E780C",
"T 	c #5A7308",
"U 	c #597109",
"V 	c #536D08",
"W 	c #657E0F",
"X 	c #5F780B",
"Y 	c #5B740A",
"Z 	c #5F760C",
"` 	c #60780D",
" .	c #61790C",
"..	c #5E7509",
"+.	c #576F09",
"@.	c #657D0F",
"#.	c #5C7609",
"$.	c #5B7309",
"%.	c #5D7609",
"&.	c #61790A",
"*.	c #5E770B",
"=.	c #5D7509",
"-.	c #64790E",
";.	c #63770E",
">.	c #61770C",
",.	c #62780C",
"'.	c #607809",
").	c #607A0C",
"!.	c #5A7309",
"~.	c #647B0D",
"{.	c #697B1A",
"].	c #6F7D23",
"^.	c #707E25",
"/.	c #717E25",
"(.	c #69791C",
"_.	c #627A0B",
":.	c #5E760A",
"<.	c #62790E",
"[.	c #738029",
"}.	c #C2A76D",
"|.	c #E2B67C",
"1.	c #FBC28B",
"2.	c #FBBE88",
"3.	c #FBBF88",
"4.	c #C3A569",
"5.	c #61790B",
"6.	c #637A0B",
"7.	c #597008",
"8.	c #647321",
"9.	c #C4A66B",
"0.	c #F9C28A",
"a.	c #FFAF79",
"b.	c #FF9F69",
"c.	c #FFB561",
"d.	c #FFD25C",
"e.	c #FFD35D",
"f.	c #E2CD62",
"g.	c #6B7E17",
"h.	c #6F7D1F",
"i.	c #DFB47B",
"j.	c #FFBB82",
"k.	c #FF8B60",
"l.	c #FF854D",
"m.	c #FFCE58",
"n.	c #FFEA70",
"o.	c #FFF691",
"p.	c #FFF694",
"q.	c #FDEE90",
"r.	c #A5A95A",
"s.	c #667C0D",
"t.	c #63770A",
"u.	c #6C7D2D",
"v.	c #6F7C1D",
"w.	c #E0B776",
"x.	c #FEBE7F",
"y.	c #FF865A",
"z.	c #FF9D50",
"A.	c #FFDA5F",
"B.	c #FEE47A",
"C.	c #FEA166",
"D.	c #FFE78E",
"E.	c #FFE38C",
"F.	c #FF9560",
"G.	c #F9DA89",
"H.	c #73852B",
"I.	c #627B0D",
"J.	c #5B7408",
"K.	c #627809",
"L.	c #63780F",
"M.	c #6C7C29",
"N.	c #898B6D",
"O.	c #677A1D",
"P.	c #64780B",
"Q.	c #C6A45D",
"R.	c #FFC880",
"S.	c #FE9059",
"T.	c #FEB653",
"U.	c #FFE653",
"V.	c #FFC663",
"W.	c #FFD683",
"X.	c #FFE990",
"Y.	c #FFF297",
"Z.	c #FFED93",
"`.	c #FFD484",
" +	c #FFF095",
".+	c #E0DC88",
"++	c #6E8125",
"@+	c #60790B",
"#+	c #6A7C25",
"$+	c #898A6D",
"%+	c #677B1B",
"&+	c #6E7B19",
"*+	c #F5B771",
"=+	c #FFA96E",
"-+	c #FF8D4D",
";+	c #FFE556",
">+	c #FFE56E",
",+	c #FF9964",
"'+	c #FFC87F",
")+	c #FFE28D",
"!+	c #FF9962",
"~+	c #FFAF6D",
"{+	c #FFF296",
"]+	c #FFEE94",
"^+	c #FFE58F",
"/+	c #C6C479",
"(+	c #647A0E",
"_+	c #687A1E",
":+	c #958330",
"<+	c #D88A44",
"[+	c #F7A352",
"}+	c #FED059",
"|+	c #FEE978",
"1+	c #FFF497",
"2+	c #FFEE93",
"3+	c #FFC57B",
"4+	c #FFC57A",
"5+	c #FFBF77",
"6+	c #FF7C54",
"7+	c #F9DA8E",
"8+	c #75852D",
"9+	c #617609",
"0+	c #697C11",
"a+	c #737E17",
"b+	c #B38A37",
"c+	c #DBBA69",
"d+	c #FCEB93",
"e+	c #FAE27B",
"f+	c #FEEC7B",
"g+	c #FEE97E",
"h+	c #FED16D",
"i+	c #FEB25B",
"j+	c #FFE886",
"k+	c #FFCE81",
"l+	c #FFDC89",
"m+	c #C5BF75",
"n+	c #65790D",
"o+	c #667D0E",
"p+	c #5E760B",
"q+	c #5F790B",
"r+	c #6F802C",
"s+	c #C3C27F",
"t+	c #A0A15C",
"u+	c #BEA650",
"v+	c #BE9E4B",
"w+	c #EEB65A",
"x+	c #F3BA56",
"y+	c #FADB6B",
"z+	c #FEDB6C",
"A+	c #FF9857",
"B+	c #F8DC92",
"C+	c #75842D",
"D+	c #61780C",
"E+	c #667E0E",
"F+	c #617B0D",
"G+	c #5D770B",
"H+	c #5A7408",
"I+	c #60760B",
"J+	c #677C1C",
"K+	c #657C0E",
"L+	c #6E7E16",
"M+	c #6C7C15",
"N+	c #9B9549",
"O+	c #C09749",
"P+	c #EEAC55",
"Q+	c #FCE38A",
"R+	c #DED380",
"S+	c #6B7E19",
"T+	c #637C0D",
"U+	c #5D760A",
"V+	c #5E7608",
"W+	c #5C750A",
"X+	c #6C7919",
"Y+	c #BBA65C",
"Z+	c #999146",
"`+	c #64790A",
" @	c #677E0F",
".@	c #64780C",
"+@	c #637B0E",
"@@	c #627A0A",
"#@	c #5A740A",
"$@	c #657A0D",
"%@	c #667B0D",
"&@	c #5B7409",
"*@	c #496405",
"=@	c #5F770C",
"-@	c #536C07",
";@	c #5C760B",
">@	c #5C740A",
",@	c #657B0C",
"'@	c #4F6908",
")@	c #597309",
"!@	c #667C0E",
"~@	c #637D0E",
"{@	c #4E6A08",
"]@	c #4A6505",
"^@	c #5C7408",
"/@	c #60780C",
"(@	c #627A0D",
"_@	c #5F780C",
":@	c #516B07",
"<@	c #63780C",
"[@	c #607609",
"}@	c #667A0E",
"|@	c #627B0C",
"1@	c #647A0A",
"2@	c #597308",
"3@	c #65790E",
"4@	c #6A7B22",
"5@	c #697C25",
"6@	c #647D0D",
"7@	c #577009",
"8@	c #5B730A",
"9@	c #5D750B",
"  . + @ # $ % & * = - ; > , ' ) ! ~ { ] ] , , ^ / ( _ : ) < [ } ",
"| 1 , 2 3 4 % 5 6 7 8 % ^ 9 0 a b b 3 b 3 c 3 3 d e f g { 0 ~ ~ ",
"3 h 9 4 b ! i 9 ^ j k l m c ^ h n 3 $ $ ^ ^ h ^ m o p $ & l % % ",
"^ b l l ' q . , ^ r ^ ^ k ^ b s ^ l > 0 t u u v | w # h j j x 5 ",
"y % h & h m k h & z z & c ^ & k A 9 # B C D D } E F G H I J & h ",
"K L & & 4 c & ^ & & l & j ^ M s s , { N O P Q R S @ T @ , $ w U ",
"V L y v ' { | $ ^ h ' } W X Y # > b $ Z `  .C < i ] ..] I 5 $ +.",
"! @.D } E #.$.%.3 &.{ < < *.=.w > s -.;.>.,.$ | 3 0 > 9 3 '.~ B ",
").P Q R S F !.@ w $ 3 ,.) ~., {.].^./.(.0 l h h 9 h & _.I $ { =.",
"' ~ q ~ ' ] :.B 0 3 B w <.[.}.|.1.2.3.4.j k m k 9 c & k h I , { ",
"5.a 0 ~ h 0 % k 6.C 7.8.9.0.a.b.c.d.e.f.g.& z z & k h k & b h , ",
"h ^ h h $ ^ k b ^ ^ h.i.j.k.l.m.n.o.p.q.r.% s.v { 9 ^ k k h 6.t.",
"u.-.5 ^ l d & & ^ v.w.x.y.z.A.B.C.D.E.F.G.H.Q I.F J.9 K.c h L.M.",
"N.O.k & & A k m P.Q.R.S.T.U.V.W.X.Y.Z.`. +.+++@+1 I 3 ^ 5 m #+$+",
"%+$ & k m k & k &+*+=+-+;+>+,+'+)+!+~+{+]+^+/+(+h c k K.& & M _+",
"& ^ J 5 h z & j k :+<+[+}+|+1+p.2+3+4+)+5+6+7+8+k 5 k k A k 9+P.",
"^ z j _.$ b ^ l 9 h 0+a+b+c+d+e+f+g+h+i+j+k+l+m+n+k k & k h h n+",
"L o+Q I.*.p+:., 1 q+Q I.@ r+s+t+u+v+w+x+y+z+A+B+C+x & k b z D+C ",
"[ E+o+F+G+!.H+] , , 3 | , I+J+3 u K+L+M+N+O+P+Q+R+S+J ^ h a B X ",
"< ~.T+  U++ @ V+0 ~ k d b > 0 :.) D D O W+!.X+Y+Z+n+& $ ,.,.i X ",
", ~  .' | , , $ b b h K.^ h , .   } }   =.+ ] % ) ^ k ^ q $ $ 0 ",
"> , 3 i | > 4 5 ^ j J `+k k 9 ^ 0 0 B | | 3 h b 3 & & s s $ 9 k ",
"h h ,  @0 $ K.s ^ j & k k & 5 & ^ .@b b b 5 ^ & ^ 5 j & ^ ^ ^ b ",
"> w , +@B b 5 u @@) b J & & ^ h $ 7.#@i b & & & J ^ $@& %@z 6.5.",
"&@*@=@-@' ) R D R ;@>@$ ,@& ^ ^ 0 p+'@)@w ^ 5 & ^ ~ q !@o+E+~@q+",
"&@g {@]@p+.   ~. .%.^@# b J h l ^ , ~ q  .> ^ % ^ ~ /@(@W  @P _@",
"H G :@-@, b <@0 3 3 h 4 c ^ & & & ^ % ~  .[@b ,.~ ' i  .! Q I._@",
"1 , > 3 6.^ & k J k k ^ P.& & k & ^ & $@z s j }@% 3 > ' 0 t ~ b ",
"&.9 m b 6.^ & & & ^ ^ k J l h & z h b & l s $@$@$ m d , ^ l b ^ ",
"5.0 | b ^ & z k & & k h ^ h s L y |@' B D+~ % s & h q u k 1@,@u ",
"F+:.H ] 3 m & k k k h h 3 , q D D P E W+&@i 3 5 $ ,.~.~.X ~.o+o+",
"F+;@2@G w h b ^ 3@4@5@,.{ :.  6@D R E @ H+U+{ 0 7@8@9@&@I.[ D D "};
