/* XPM */
static char * item3_xpm[] = {
"32 32 324 2",
"  	c #60790C",
". 	c #5E770A",
"+ 	c #5C7409",
"@ 	c #5C7509",
"# 	c #5F7609",
"$ 	c #62780B",
"% 	c #63790C",
"& 	c #64790B",
"* 	c #6B7C27",
"= 	c #8A8A6F",
"- 	c #8A8B6F",
"; 	c #687B1E",
"> 	c #61770A",
", 	c #60770A",
"' 	c #60780B",
") 	c #627A0C",
"! 	c #637B0D",
"~ 	c #62790C",
"{ 	c #5F770A",
"] 	c #5E7609",
"^ 	c #63790B",
"/ 	c #5F760B",
"( 	c #546D0A",
"_ 	c #526D08",
": 	c #546F08",
"< 	c #617A0C",
"[ 	c #647C0D",
"} 	c #647C0E",
"| 	c #60780A",
"1 	c #5F7709",
"2 	c #5F7608",
"3 	c #61780A",
"4 	c #617809",
"5 	c #63790A",
"6 	c #64790D",
"7 	c #677A1F",
"8 	c #677A1C",
"9 	c #617709",
"0 	c #61780B",
"a 	c #61770B",
"b 	c #62790B",
"c 	c #627709",
"d 	c #62770A",
"e 	c #586F09",
"f 	c #456204",
"g 	c #536D07",
"h 	c #62780A",
"i 	c #5F770B",
"j 	c #647A0C",
"k 	c #63780A",
"l 	c #63780B",
"m 	c #62790A",
"n 	c #607608",
"o 	c #61760A",
"p 	c #5C7309",
"q 	c #637A0C",
"r 	c #667A0C",
"s 	c #64790C",
"t 	c #647A0D",
"u 	c #647B0C",
"v 	c #637B0C",
"w 	c #5F760A",
"x 	c #657A0B",
"y 	c #657C0D",
"z 	c #657A0C",
"A 	c #65790C",
"B 	c #60770B",
"C 	c #637A0D",
"D 	c #667E0F",
"E 	c #5F790C",
"F 	c #5B7509",
"G 	c #5B7308",
"H 	c #5C7508",
"I 	c #607709",
"J 	c #647A0B",
"K 	c #587209",
"L 	c #657B0D",
"M 	c #62770B",
"N 	c #5D750A",
"O 	c #607A0D",
"P 	c #647D0E",
"Q 	c #657D0E",
"R 	c #637C0E",
"S 	c #5E780C",
"T 	c #5A7308",
"U 	c #597109",
"V 	c #536D08",
"W 	c #657E0F",
"X 	c #5F780B",
"Y 	c #5B740A",
"Z 	c #5F760C",
"` 	c #60780D",
" .	c #61790C",
"..	c #5E7509",
"+.	c #576F09",
"@.	c #657D0F",
"#.	c #5C7609",
"$.	c #5B7309",
"%.	c #5D7609",
"&.	c #61790A",
"*.	c #5E770B",
"=.	c #5D7509",
"-.	c #64790E",
";.	c #63770E",
">.	c #61770C",
",.	c #62780C",
"'.	c #607809",
").	c #607A0C",
"!.	c #5A7309",
"~.	c #647B0D",
"{.	c #697B18",
"].	c #6F7D21",
"^.	c #707D23",
"/.	c #717E24",
"(.	c #69791B",
"_.	c #627A0B",
":.	c #5E760A",
"<.	c #62790E",
"[.	c #737F27",
"}.	c #C2A569",
"|.	c #E2B47A",
"1.	c #FBC087",
"2.	c #FBBC84",
"3.	c #FBBD84",
"4.	c #C3A566",
"5.	c #61790B",
"6.	c #637A0B",
"7.	c #597008",
"8.	c #647320",
"9.	c #C4A569",
"0.	c #F9C086",
"a.	c #FFAE79",
"b.	c #FF9F69",
"c.	c #FFB460",
"d.	c #FFD25C",
"e.	c #FFD35C",
"f.	c #E3CD5D",
"g.	c #6B7E16",
"h.	c #6F7C1D",
"i.	c #DFB176",
"j.	c #FFBB82",
"k.	c #FF8B60",
"l.	c #FF834C",
"m.	c #FFCD57",
"n.	c #FFE970",
"o.	c #FFF591",
"p.	c #FFF694",
"q.	c #FDEE90",
"r.	c #A5A956",
"s.	c #667C0D",
"t.	c #63770A",
"u.	c #6C7D2D",
"v.	c #6F7C19",
"w.	c #E0B66C",
"x.	c #FEBE7E",
"y.	c #FF865A",
"z.	c #FF9D50",
"A.	c #FFDA5E",
"B.	c #FEE378",
"C.	c #FF9F65",
"D.	c #FFE78E",
"E.	c #FFE38C",
"F.	c #FF9560",
"G.	c #F9DA89",
"H.	c #73852B",
"I.	c #627B0D",
"J.	c #5B7408",
"K.	c #627809",
"L.	c #63780F",
"M.	c #6C7C29",
"N.	c #898B6D",
"O.	c #677A1D",
"P.	c #64780B",
"Q.	c #C6A455",
"R.	c #FFC87D",
"S.	c #FF9458",
"T.	c #FEB653",
"U.	c #FFE453",
"V.	c #FFC663",
"W.	c #FFD683",
"X.	c #FFE991",
"Y.	c #FFF297",
"Z.	c #FFED93",
"`.	c #FFD484",
" +	c #FFF095",
".+	c #E0DC86",
"++	c #6E8124",
"@+	c #60790B",
"#+	c #6A7C25",
"$+	c #898A6D",
"%+	c #677B1B",
"&+	c #6E7B16",
"*+	c #F5BA6B",
"=+	c #FFA96E",
"-+	c #FF894E",
";+	c #FFE556",
">+	c #FFE56E",
",+	c #FF9964",
"'+	c #FFC87F",
")+	c #FFE38E",
"!+	c #FF9A62",
"~+	c #FFB06D",
"{+	c #FFF296",
"]+	c #FFEE94",
"^+	c #FFE58E",
"/+	c #C6C378",
"(+	c #647A0E",
"_+	c #687A1E",
":+	c #948026",
"<+	c #D68740",
"[+	c #F29E51",
"}+	c #FED058",
"|+	c #FEE978",
"1+	c #FFF497",
"2+	c #FFEE93",
"3+	c #FFC57B",
"4+	c #FEC679",
"5+	c #FFE28D",
"6+	c #FFBF77",
"7+	c #FF7C54",
"8+	c #F9D989",
"9+	c #75852A",
"0+	c #617609",
"a+	c #697B10",
"b+	c #727D16",
"c+	c #B38933",
"d+	c #DEBD6B",
"e+	c #FEEA93",
"f+	c #FAE377",
"g+	c #FEEC7B",
"h+	c #FEE97E",
"i+	c #FED16D",
"j+	c #FEB25B",
"k+	c #FFE886",
"l+	c #FFCE7F",
"m+	c #FFDC88",
"n+	c #C6C070",
"o+	c #65790D",
"p+	c #667D0E",
"q+	c #5E760B",
"r+	c #5F790B",
"s+	c #C1C177",
"t+	c #E7E095",
"u+	c #C7C177",
"v+	c #BCA14E",
"w+	c #DAB568",
"x+	c #F1B761",
"y+	c #F4BA54",
"z+	c #F8DB68",
"A+	c #FEDB6C",
"B+	c #FF9858",
"C+	c #F8DC8F",
"D+	c #75842C",
"E+	c #61780C",
"F+	c #667E0E",
"G+	c #617B0D",
"H+	c #5D770B",
"I+	c #5A7408",
"J+	c #72832E",
"K+	c #C3C37C",
"L+	c #99A158",
"M+	c #6B7F1B",
"N+	c #6F7E18",
"O+	c #6D7C15",
"P+	c #BEB469",
"Q+	c #C69946",
"R+	c #F0AB51",
"S+	c #FDE188",
"T+	c #E0D480",
"U+	c #6C7E19",
"V+	c #637C0D",
"W+	c #5D760A",
"X+	c #5E7608",
"Y+	c #6E8026",
"Z+	c #BCBE77",
"`+	c #637A19",
" @	c #5B730B",
".@	c #6D7816",
"+@	c #D7BF72",
"@@	c #C1AE5D",
"#@	c #6A7D17",
"$@	c #62780D",
"%@	c #667B1B",
"&@	c #697D1A",
"*@	c #64790A",
"=@	c #677E0F",
"-@	c #64780C",
";@	c #637B0E",
">@	c #627A0A",
",@	c #5A740A",
"'@	c #657A0D",
")@	c #667B0D",
"!@	c #5B7409",
"~@	c #496405",
"{@	c #5F770C",
"]@	c #536C07",
"^@	c #5C760B",
"/@	c #5C740A",
"(@	c #657B0C",
"_@	c #4F6908",
":@	c #597309",
"<@	c #667C0E",
"[@	c #637D0E",
"}@	c #4E6A08",
"|@	c #4A6505",
"1@	c #5C7408",
"2@	c #60780C",
"3@	c #627A0D",
"4@	c #5F780C",
"5@	c #516B07",
"6@	c #63780C",
"7@	c #607609",
"8@	c #667A0E",
"9@	c #627B0C",
"0@	c #647A0A",
"a@	c #5C750A",
"b@	c #597308",
"c@	c #65790E",
"d@	c #6A7B22",
"e@	c #697C25",
"f@	c #647D0D",
"g@	c #577009",
"h@	c #5B730A",
"i@	c #5D750B",
"  . + @ # $ % & * = - ; > , ' ) ! ~ { ] ] , , ^ / ( _ : ) < [ } ",
"| 1 , 2 3 4 % 5 6 7 8 % ^ 9 0 a b b 3 b 3 c 3 3 d e f g { 0 ~ ~ ",
"3 h 9 4 b ! i 9 ^ j k l m c ^ h n 3 $ $ ^ ^ h ^ m o p $ & l % % ",
"^ b l l ' q . , ^ r ^ ^ k ^ b s ^ l > 0 t u u v | w # h j j x 5 ",
"y % h & h m k h & z z & c ^ & k A 9 # B C D D } E F G H I J & h ",
"K L & & 4 c & ^ & & l & j ^ M s s , { N O P Q R S @ T @ , $ w U ",
"V L y v ' { | $ ^ h ' } W X Y # > b $ Z `  .C < i ] ..] I 5 $ +.",
"! @.D } E #.$.%.3 &.{ < < *.=.w > s -.;.>.,.$ | 3 0 > 9 3 '.~ B ",
").P Q R S F !.@ w $ 3 ,.) ~., {.].^./.(.0 l h h 9 h & _.I $ { =.",
"' ~ q ~ ' ] :.B 0 3 B w <.[.}.|.1.2.3.4.j k m k 9 c & k h I , { ",
"5.a 0 ~ h 0 % k 6.C 7.8.9.0.a.b.c.d.e.f.g.& z z & k h k & b h , ",
"h ^ h h $ ^ k b ^ ^ h.i.j.k.l.m.n.o.p.q.r.% s.v { 9 ^ k k h 6.t.",
"u.-.5 ^ l d & & ^ v.w.x.y.z.A.B.C.D.E.F.G.H.Q I.F J.9 K.c h L.M.",
"N.O.k & & A k m P.Q.R.S.T.U.V.W.X.Y.Z.`. +.+++@+1 I 3 ^ 5 m #+$+",
"%+$ & k m k & k &+*+=+-+;+>+,+'+)+!+~+{+]+^+/+(+h c k K.& & M _+",
"& ^ J 5 h z & j k :+<+[+}+|+1+p.2+3+4+5+6+7+8+9+k 5 k k A k 0+P.",
"^ z j _.$ b ^ l 9 h a+b+c+d+e+f+g+h+i+j+k+l+m+n+6 k k & k h h o+",
"L p+Q I.*.q+:., 1 r+Q I.@ s+t+u+v+w+x+y+z+A+B+C+D+x & k b z E+C ",
"[ F+p+G+H+!.I+] , , 3 | , J+K+L+u M+N+O+P+Q+R+S+T+U+J ^ h a B X ",
"< ~.V+  W++ @ X+0 ~ k d b Y+Z+:.) D D O `+ @.@+@@@#@& $ ,.,.i X ",
", ~  .' | , , $ b b h K.^ $@%@.   } }   =.+ ] &@C ^ k ^ q $ $ 0 ",
"> , 3 i | > 4 5 ^ j J *@k k 9 ^ 0 0 B | | 3 h b 3 & & s s $ 9 k ",
"h h , =@0 $ K.s ^ j & k k & 5 & ^ -@b b b 5 ^ & ^ 5 j & ^ ^ ^ b ",
"> w , ;@B b 5 u >@) b J & & ^ h $ 7.,@i b & & & J ^ '@& )@z 6.5.",
"!@~@{@]@' ) R D R ^@/@$ (@& ^ ^ 0 q+_@:@w ^ 5 & ^ ~ q <@p+F+[@r+",
"!@g }@|@q+.   ~. .%.1@# b J h l ^ , ~ q  .> ^ % ^ ~ 2@3@W =@P 4@",
"H G 5@]@, b 6@0 3 3 h 4 c ^ & & & ^ % ~  .7@b ,.~ ' i  .! Q I.4@",
"1 , > 3 6.^ & k J k k ^ P.& & k & ^ & '@z s j 8@% 3 > ' 0 t ~ b ",
"&.9 m b 6.^ & & & ^ ^ k J l h & z h b & l s '@'@$ m d , ^ l b ^ ",
"5.0 | b ^ & z k & & k h ^ h s L y 9@' B E+~ % s & h q u k 0@(@u ",
"G+:.H ] 3 m & k k k h h 3 , q D D P E a@!@i 3 5 $ ,.~.~.X ~.p+p+",
"G+^@b@G w h b ^ c@d@e@,.{ :.  f@D R E @ I+W+{ 0 g@h@i@!@I.[ D D "};
