/* XPM */
static char * player_right_ex0_xpm[] = {
"32 32 674 2",
"  	c #60790C",
". 	c #5E770A",
"+ 	c #5C7409",
"@ 	c #5C7509",
"# 	c #5F7609",
"$ 	c #62780B",
"% 	c #63790C",
"& 	c #64790B",
"* 	c #6B7C27",
"= 	c #8A8A6F",
"- 	c #8A8B6F",
"; 	c #687B1E",
"> 	c #60770B",
", 	c #5B6F17",
"' 	c #666331",
") 	c #76603C",
"! 	c #77603C",
"~ 	c #656531",
"{ 	c #5B7017",
"] 	c #5E760B",
"^ 	c #5E7609",
"/ 	c #60770A",
"( 	c #63790B",
"_ 	c #5F760B",
": 	c #546D0A",
"< 	c #526D08",
"[ 	c #546F08",
"} 	c #627A0C",
"| 	c #617A0C",
"1 	c #647C0D",
"2 	c #647C0E",
"3 	c #60780A",
"4 	c #5F7709",
"5 	c #5F7608",
"6 	c #61780A",
"7 	c #617809",
"8 	c #63790A",
"9 	c #64790D",
"0 	c #677A1F",
"a 	c #677A1C",
"b 	c #5E7117",
"c 	c #646432",
"d 	c #81614C",
"e 	c #8D604A",
"f 	c #BB7C55",
"g 	c #BA7C56",
"h 	c #89614D",
"i 	c #81614A",
"j 	c #636434",
"k 	c #5B6F15",
"l 	c #61770A",
"m 	c #62770A",
"n 	c #586F09",
"o 	c #456204",
"p 	c #536D07",
"q 	c #5F770A",
"r 	c #61780B",
"s 	c #62790C",
"t 	c #62780A",
"u 	c #617709",
"v 	c #62790B",
"w 	c #637B0D",
"x 	c #627531",
"y 	c #667143",
"z 	c #637817",
"A 	c #5F7217",
"B 	c #646331",
"C 	c #83634D",
"D 	c #A16F5A",
"E 	c #A8735B",
"F 	c #90604A",
"G 	c #BD7D55",
"H 	c #BD7D56",
"I 	c #8B614E",
"J 	c #9C6C58",
"K 	c #624E3B",
"L 	c #676530",
"M 	c #5F6D35",
"N 	c #627816",
"O 	c #61760A",
"P 	c #5C7309",
"Q 	c #63780B",
"R 	c #60780B",
"S 	c #637A0D",
"T 	c #727C5D",
"U 	c #868684",
"V 	c #6D6F61",
"W 	c #83634C",
"X 	c #A06D59",
"Y 	c #AB755C",
"Z 	c #AC755C",
"` 	c #A9745A",
" .	c #A9735B",
"..	c #A9725B",
"+.	c #A0684D",
"@.	c #AF7654",
"#.	c #7C7973",
"$.	c #868583",
"%.	c #67724B",
"&.	c #647A0C",
"*.	c #657A0B",
"=.	c #657C0D",
"-.	c #637430",
";.	c #626D42",
">.	c #848480",
",.	c #A6A5A5",
"'.	c #858380",
").	c #907164",
"!.	c #996452",
"~.	c #AA735B",
"{.	c #AB745C",
"].	c #8F5F49",
"^.	c #8A604E",
"/.	c #9D6C57",
"(.	c #A7725A",
"_.	c #9F674D",
":.	c #B87C56",
"<.	c #8F8B88",
"[.	c #A5A3A3",
"}.	c #6E7067",
"|.	c #616C4C",
"1.	c #586D19",
"2.	c #607709",
"3.	c #647A0B",
"4.	c #587209",
"5.	c #657B0D",
"6.	c #5F7216",
"7.	c #5B6343",
"8.	c #464642",
"9.	c #A8A8A4",
"0.	c #F0EEEA",
"a.	c #B4B3B3",
"b.	c #908D8B",
"c.	c #A9745E",
"d.	c #9E6D59",
"e.	c #8B6151",
"f.	c #8D6355",
"g.	c #8F604A",
"h.	c #8A604D",
"i.	c #956451",
"j.	c #8A5E51",
"k.	c #625651",
"l.	c #6B6963",
"m.	c #C2C0BC",
"n.	c #EEEDE8",
"o.	c #A09F9F",
"p.	c #8C8A88",
"q.	c #8D684A",
"r.	c #656230",
"s.	c #5C7016",
"t.	c #62780C",
"u.	c #5F760A",
"v.	c #597109",
"w.	c #536D08",
"x.	c #5F7415",
"y.	c #615A48",
"z.	c #615750",
"A.	c #8A8985",
"B.	c #C6C6C1",
"C.	c #FBFBF3",
"D.	c #BCBBBB",
"E.	c #959291",
"F.	c #956755",
"G.	c #775049",
"H.	c #A06E5A",
"I.	c #A9735A",
"J.	c #8F614A",
"K.	c #996451",
"L.	c #9E6A57",
"M.	c #84695B",
"N.	c #666864",
"O.	c #CAC9C4",
"P.	c #D1D1CD",
"Q.	c #BAB9B6",
"R.	c #98847A",
"S.	c #8F7362",
"T.	c #8F6848",
"U.	c #666431",
"V.	c #5D7215",
"W.	c #576F09",
"X.	c #5B6B21",
"Y.	c #A06F4E",
"Z.	c #554E49",
"`.	c #525250",
" +	c #C2C1BD",
".+	c #E4E3DE",
"++	c #FCFCF3",
"@+	c #BFBEBD",
"#+	c #999796",
"$+	c #957360",
"%+	c #825F53",
"&+	c #A8715C",
"*+	c #A47059",
"=+	c #9A6E5A",
"-+	c #7D6C5F",
";+	c #6B6D6A",
">+	c #CBCAC7",
",+	c #FEFEF6",
"'+	c #FEFEF5",
")+	c #E4E5DF",
"!+	c #9C9B9C",
"~+	c #7E7973",
"{+	c #BA7C55",
"]+	c #A46F4F",
"^+	c #596721",
"/+	c #607A0C",
"(+	c #5A6A21",
"_+	c #9E6C4E",
":+	c #524D48",
"<+	c #515250",
"[+	c #C3C2BF",
"}+	c #E5E4E0",
"|+	c #F1F0E9",
"1+	c #DDDCD7",
"2+	c #969595",
"3+	c #7D7A75",
"4+	c #A6725D",
"5+	c #996A57",
"6+	c #88604E",
"7+	c #896656",
"8+	c #58534E",
"9+	c #696866",
"0+	c #B4B4B1",
"a+	c #E3E2DC",
"b+	c #FFFFF6",
"c+	c #E6E5DF",
"d+	c #9D9C9D",
"e+	c #AD734F",
"f+	c #566521",
"g+	c #5D7509",
"h+	c #5C6B35",
"i+	c #625E57",
"j+	c #63635F",
"k+	c #7C7B79",
"l+	c #D0CECA",
"m+	c #EBEAE4",
"n+	c #EFEFE9",
"o+	c #979696",
"p+	c #757572",
"q+	c #635E58",
"r+	c #615E57",
"s+	c #615D57",
"t+	c #655F57",
"u+	c #5F5D57",
"v+	c #434440",
"w+	c #676565",
"x+	c #C9C9C5",
"y+	c #ECEBE4",
"z+	c #EAE9E3",
"A+	c #B1B0AF",
"B+	c #84817B",
"C+	c #A97758",
"D+	c #AA7350",
"E+	c #576622",
"F+	c #61790B",
"G+	c #5F6B3D",
"H+	c #383837",
"I+	c #9A9998",
"J+	c #D4D2CE",
"K+	c #F8F7F0",
"L+	c #FEFDF6",
"M+	c #717270",
"N+	c #50504E",
"O+	c #3A3A39",
"P+	c #3A3B39",
"Q+	c #393938",
"R+	c #6A6867",
"S+	c #C9C8C5",
"T+	c #EAEAE4",
"U+	c #FAF9F2",
"V+	c #A1A29C",
"W+	c #696660",
"X+	c #845E4C",
"Y+	c #576722",
"Z+	c #606B3E",
"`+	c #363635",
" @	c #9B9A99",
".@	c #D6D5D1",
"+@	c #F9F8F1",
"@@	c #E4E4DD",
"#@	c #B8B8B5",
"$@	c #EEEEE6",
"%@	c #F8F8F0",
"&@	c #D7D6D1",
"*@	c #D4D3CD",
"=@	c #D2D1CC",
"-@	c #EDECE6",
";@	c #F7F7F0",
">@	c #A2A29D",
",@	c #686560",
"'@	c #91604A",
")@	c #586821",
"!@	c #63770A",
"~@	c #616D41",
"{@	c #616259",
"]@	c #5F5F5E",
"^@	c #A9AAA7",
"/@	c #DADAD5",
"(@	c #EDECE8",
"_@	c #CFCEC9",
":@	c #92938E",
"<@	c #E7E7E0",
"[@	c #FCFCF4",
"}@	c #B4B4AE",
"|@	c #896B5A",
"1@	c #596728",
"2@	c #6C7C29",
"3@	c #4D4D4A",
"4@	c #60605D",
"5@	c #C3C2BE",
"6@	c #F0F2EB",
"7@	c #9C9D9A",
"8@	c #BCBCB9",
"9@	c #F3F3EB",
"0@	c #F6F6EE",
"a@	c #747572",
"b@	c #67695E",
"c@	c #88896E",
"d@	c #454742",
"e@	c #605F5D",
"f@	c #CDCCC8",
"g@	c #ECEBE5",
"h@	c #F8F9F1",
"i@	c #C8C9C3",
"j@	c #DEDDD8",
"k@	c #E6E6E0",
"l@	c #757674",
"m@	c #65685D",
"n@	c #687A24",
"o@	c #454741",
"p@	c #FDFDF4",
"q@	c #FAFAF1",
"r@	c #FAFAF2",
"s@	c #647816",
"t@	c #DDDCD6",
"u@	c #939391",
"v@	c #888886",
"w@	c #A2A29F",
"x@	c #E8E8E2",
"y@	c #969694",
"z@	c #E4E3DD",
"A@	c #CDCEC9",
"B@	c #90918F",
"C@	c #868685",
"D@	c #BCBBB7",
"E@	c #FDFDF5",
"F@	c #657917",
"G@	c #F6F5EE",
"H@	c #C7C6C2",
"I@	c #5B5D5A",
"J@	c #40403F",
"K@	c #7F7F7C",
"L@	c #E3E3DC",
"M@	c #E1E0DC",
"N@	c #A4A4A1",
"O@	c #D1D0CB",
"P@	c #BDC0BA",
"Q@	c #585B58",
"R@	c #393A3A",
"S@	c #9A9997",
"T@	c #F2F1EB",
"U@	c #637917",
"V@	c #FBFBF4",
"W@	c #DAD9D5",
"X@	c #AAA8A6",
"Y@	c #3D3E3D",
"Z@	c #82827F",
"`@	c #FCFBF3",
" #	c #F0F0E8",
".#	c #72726E",
"+#	c #B9B9B2",
"@#	c #DBDBD7",
"##	c #DFDED9",
"$#	c #FAFAF4",
"%#	c #ABABA4",
"&#	c #91938E",
"*#	c #F4F4EC",
"=#	c #B9BCB7",
"-#	c #3E3E3D",
";#	c #393939",
">#	c #858483",
",#	c #D2D1CE",
"'#	c #F4F3ED",
")#	c #747673",
"!#	c #64685D",
"~#	c #607716",
"{#	c #CDCDC8",
"]#	c #D9D8D5",
"^#	c #C6C5C2",
"/#	c #B6B5B2",
"(#	c #D3D1CD",
"_#	c #E1E0DB",
":#	c #EFEFE8",
"<#	c #6C6C69",
"[#	c #B7B6B2",
"}#	c #A6A5A2",
"|#	c #B0AFAC",
"1#	c #A9A9A3",
"2#	c #8D8F8B",
"3#	c #F4F5ED",
"4#	c #ECECE5",
"5#	c #B9B8B5",
"6#	c #BEBDBA",
"7#	c #D3D1CE",
"8#	c #E5E5DF",
"9#	c #60615F",
"0#	c #585A51",
"a#	c #5F7716",
"b#	c #4D4E49",
"c#	c #60615E",
"d#	c #BEBEBA",
"e#	c #E0E0DA",
"f#	c #F3F4EE",
"g#	c #DFDFDB",
"h#	c #DBDAD6",
"i#	c #DDDCD8",
"j#	c #F7F6F0",
"k#	c #F1F1E9",
"l#	c #868582",
"m#	c #B4B3B0",
"n#	c #E7E6E1",
"o#	c #8F8E8E",
"p#	c #9A9996",
"q#	c #E9E8E3",
"r#	c #AAA9A5",
"s#	c #E0DFDA",
"t#	c #DBD9D6",
"u#	c #D4D3CF",
"v#	c #585957",
"w#	c #57584F",
"x#	c #617715",
"y#	c #626D41",
"z#	c #60664E",
"A#	c #575655",
"B#	c #A5A5A3",
"C#	c #D7D7D3",
"D#	c #F5F4EE",
"E#	c #FBFAF3",
"F#	c #D0CFCB",
"G#	c #A3A4A3",
"H#	c #6D6C6B",
"I#	c #B5B3B2",
"J#	c #B6B5B3",
"K#	c #6C6B6A",
"L#	c #B2B1AF",
"M#	c #D4D3D1",
"N#	c #FBFAF2",
"O#	c #A0A09D",
"P#	c #646360",
"Q#	c #626850",
"R#	c #636F41",
"S#	c #637811",
"T#	c #626E3F",
"U#	c #53534B",
"V#	c #7D7C79",
"W#	c #9D9C99",
"X#	c #B4B6B1",
"Y#	c #CDCFC9",
"Z#	c #E7E7E1",
"`#	c #E7E8E2",
" $	c #BCBBB9",
".$	c #A2A19E",
"+$	c #C8C6C4",
"@$	c #C5C4C3",
"#$	c #A1A09D",
"$$	c #D5D5D1",
"%$	c #E6E7E1",
"&$	c #E5E6DF",
"*$	c #BEC0BB",
"=$	c #B8BBB5",
"-$	c #B6B9B3",
";$	c #7A7A76",
">$	c #56544F",
",$	c #646F42",
"'$	c #5F7610",
")$	c #5B6937",
"!$	c #4E4E4A",
"~$	c #3C3C3A",
"{$	c #535351",
"]$	c #959591",
"^$	c #CBC9C6",
"/$	c #CCCAC7",
"($	c #CCCAC8",
"_$	c #CFCECB",
":$	c #D1CFCC",
"<$	c #D0CECB",
"[$	c #CBC9C7",
"}$	c #CCCBC8",
"|$	c #C7C7C2",
"1$	c #5D5D5A",
"2$	c #3A3A38",
"3$	c #3B3B3A",
"4$	c #5E5A54",
"5$	c #593B3F",
"6$	c #556521",
"7$	c #637A0B",
"8$	c #5B7409",
"9$	c #496405",
"0$	c #536624",
"a$	c #61635B",
"b$	c #767774",
"c$	c #E3E2DD",
"d$	c #C7C6C1",
"e$	c #5F5F5C",
"f$	c #5B5B58",
"g$	c #CDCCC9",
"h$	c #828180",
"i$	c #5C5C59",
"j$	c #5B5C58",
"k$	c #605E59",
"l$	c #5F4E4C",
"m$	c #604E4B",
"n$	c #765047",
"o$	c #72443D",
"p$	c #586921",
"q$	c #637D0E",
"r$	c #5F790B",
"s$	c #435824",
"t$	c #5D5F58",
"u$	c #EEEEE7",
"v$	c #CCCCC6",
"w$	c #737372",
"x$	c #828281",
"y$	c #838382",
"z$	c #B8B7B5",
"A$	c #DDDED9",
"B$	c #DEE0DB",
"C$	c #DCDED8",
"D$	c #B4B3AF",
"E$	c #A5A4A1",
"F$	c #545453",
"G$	c #9E9D9A",
"H$	c #7B7B79",
"I$	c #464645",
"J$	c #504B4C",
"K$	c #5F393D",
"L$	c #643D3B",
"M$	c #7C473E",
"N$	c #74443D",
"O$	c #647D0E",
"P$	c #5F780C",
"Q$	c #5C7508",
"R$	c #5B7308",
"S$	c #495C23",
"T$	c #4B4B47",
"U$	c #60605F",
"V$	c #CACAC4",
"W$	c #484847",
"X$	c #B5B4B2",
"Y$	c #CFCDCA",
"Z$	c #D6D7D2",
"`$	c #F7F8F0",
" %	c #FCFCF5",
".%	c #FAFAF3",
"+%	c #9B9A96",
"@%	c #787875",
"#%	c #EEEFE7",
"$%	c #BCBFBA",
"%%	c #6A6864",
"&%	c #7A5548",
"*%	c #74443C",
"=%	c #566721",
"-%	c #627B0D",
";%	c #526324",
">%	c #4B4B46",
",%	c #434343",
"'%	c #8A8B87",
")%	c #787975",
"!%	c #B7B5B3",
"~%	c #D3D2CE",
"{%	c #DFDFDA",
"]%	c #DEDDD9",
"^%	c #898886",
"/%	c #555553",
"(%	c #9B9C97",
"_%	c #989895",
":%	c #8D8C8C",
"<%	c #65615E",
"[%	c #5A383E",
"}%	c #643C3B",
"|%	c #566620",
"1%	c #61790A",
"2%	c #52524D",
"3%	c #42423F",
"4%	c #3C3C39",
"5%	c #414141",
"6%	c #CECCC9",
"7%	c #C0BEBC",
"8%	c #BEBCBA",
"9%	c #C1C0BD",
"0%	c #858482",
"a%	c #494947",
"b%	c #62635E",
"c%	c #7D7E7B",
"d%	c #8E8D8D",
"e%	c #64615F",
"f%	c #59363D",
"g%	c #633C3B",
"h%	c #73443C",
"i%	c #556420",
"j%	c #56691F",
"k%	c #5E554C",
"l%	c #60524D",
"m%	c #5C574A",
"n%	c #4D5142",
"o%	c #424241",
"p%	c #B6B4B3",
"q%	c #C2C0BD",
"r%	c #727371",
"s%	c #5C5D5B",
"t%	c #474846",
"u%	c #474847",
"v%	c #7E7D7B",
"w%	c #CDCBC9",
"x%	c #91908D",
"y%	c #62645E",
"z%	c #5F6C3A",
"A%	c #667147",
"B%	c #626550",
"C%	c #584E48",
"D%	c #4C4632",
"E%	c #5C4336",
"F%	c #6D423B",
"G%	c #67433A",
"H%	c #596A1C",
"I%	c #657B0C",
"J%	c #647B0C",
"K%	c #617B0D",
"L%	c #5E760A",
"M%	c #5B740A",
"N%	c #54681C",
"O%	c #55671F",
"P%	c #5B6E18",
"Q%	c #55612D",
"R%	c #383838",
"S%	c #7A7A79",
"T%	c #858584",
"U%	c #646663",
"V%	c #5C5D57",
"W%	c #52534B",
"X%	c #51514B",
"Y%	c #565655",
"Z%	c #8A8A89",
"`%	c #737370",
" &	c #64665F",
".&	c #5F7616",
"+&	c #5B7018",
"@&	c #586A1C",
"#&	c #60760F",
"$&	c #5C7019",
"%&	c #586920",
"&&	c #55691B",
"*&	c #637A0E",
"=&	c #667D0E",
"-&	c #5C760B",
";&	c #597308",
">&	c #54622C",
",&	c #353731",
"'&	c #42433F",
")&	c #636560",
"!&	c #636F46",
"~&	c #5F7615",
"{&	c #5E7515",
"]&	c #607916",
"^&	c #637042",
"/&	c #3F413B",
"(&	c #343631",
"_&	c #363833",
":&	c #585A56",
"<&	c #63675E",
"[&	c #577009",
"}&	c #5B730A",
"|&	c #5D750B",
"1&	c #667E0F",
"  . + @ # $ % & * = - ; > , ' ) ! ~ { ] ^ / / ( _ : < [ } | 1 2 ",
"3 4 / 5 6 7 % 8 9 0 a b c d e f g h i j k l 6 6 m n o p q r s s ",
"6 t u 7 v w x y z A B C D E F G H I E J K L M y N O P $ & Q % % ",
"( v Q Q R S T U V W X Y Z ` F G H I  ...+.@.#.$.%.] # t &.&.*.8 ",
"=.% t & -.;.>.,.'.).!.~.{.J ].H H ^./.(._.:.<.[.}.|.1.+ 2.3.& t ",
"4.5.% 6.7.8.9.0.a.b.c.d.e.f.g.H H h.i.j.k.l.m.n.o.p.q.r.s.t.u.v.",
"w.x.L y.z.A.B.C.D.E.F.G.H.I.J.H H h.K.L.M.N.O.C.P.Q.R.S.T.U.V.W.",
"w X.Y.Z.`. +.+++@+#+$+%+&+ .F H H I *+=+-+;+>+,+'+)+!+~+{+]+^+> ",
"/+(+_+:+<+[+}+'+|+1+2+3+4+5+e g g 6+7+8+9+0+a+b+b+c+d+~+{+e+f+g+",
"R h+i+j+k+l+m+b+b+n+o+p+q+r+s+t+t+s+u+v+w+x+y+b+b+z+A+B+C+D+E+q ",
"F+G+H+I+J+K+L+'+b+y+M+N+O+P+P+P+P+P+O+Q+R+S+T+b+b+,+U+V+W+X+Y+/ ",
"t Z+`+ @.@+@@@#@$@%@&@*@=@=@=@=@=@=@=@=@&@-@;@b+b+b+++>@,@'@)@!@",
"~@{@]@^@/@(@_@:@<@b+b+b+b+b+b+b+b+b+b+b+b+b+b+b+b+b+[@}@'.|@1@2@",
"3@4@5@.+6@7@8@9@++b+b+b+b+b+b+b+b+b+b+b+b+b+b+b+b+b+b+0@1+a@b@c@",
"d@e@f@g@h@i@j@,+b+b+b+b+b+b+b+b+b+b+b+b+b+b+b+b+b+b+b+b+k@l@m@n@",
"o@e@f@g@b+,+p@q@q@r@b+b+b+b+b+b+b+'+q@p@b+b+++q@q@C.b+b+k@l@m@s@",
"o@e@f@g@b+b+t@u@v@w@[@b+b+b+b+b+b+x@y@z@b+'+A@B@C@D@E@b+k@l@m@F@",
"o@e@f@g@'+G@H@I@J@K@C.b+C.L@$@'+0@M@N@O@<@C.P@Q@R@S@T@++k@l@m@U@",
"o@e@f@y+V@W@X@Y@O+Z@`@b+ #.#+#++@###$#%#&#*#=#-#;#>#,#'#k@)#!#~#",
"o@e@{#y+V@]#^#/#(#_#,+b+:#<#[#r@}#|#V@1#2#3#4#&@5#6#7#'#8#9#0#a#",
"b#c#d#e#f#g#h#i#j#b+b+b+k#l#m#n#o#p#q#r#7@0@b+p@s#h#t#n#u#v#w#x#",
"y#z#A#B#C#D#E#C.'+b+b+b+%@F#G#H#I#J#K#L#M#N#b+,+C.N#;@O#P#Q#R#S#",
"t T#U#V#W#X#Y#Z#x@x@`#x@)+u# $.$+$@$#$[+$$%$x@&$*$=$-$;$>$,$( v ",
"l '$)$!$~${$]$^$/$/$($_$:$:$:$<$($>+[$[$/$/$}$|$1$2$3$4$5$6$7$F+",
"8$9$0$a$b$c$d$e$f$f$1$|#:$:$:$g$h$i$i$f$f$i$i$j$k$l$m$n$o$p$q$r$",
"8$p s$t$a@u$v$J@w$x$y$z$u#A$B$C$D$}#E$9+F$G$H$I$J$K$L$M$N$p$O$P$",
"Q$R$S$T$U$m+V$W$X$Y$Y$<$Z$`$E@E@ %[@.%+%@%#%$%%%&%K$L$M$*%=%-%P$",
"4 / ;%>%,%'%)%,%!%:$:$:$~%i#{%{%{%{%]%^%/%(%_%:%<%[%}%M$*%|%s v ",
"1%u 0$2%3%3%4%5%!%6%7%8%Q.Q.Q.Q.Q.9%<$0%a%b%c%d%e%f%g%M$h%i%v ( ",
"F+r j%k%l%m%n%o%p%q%r%s%t%t%t%t%u%v%w%x%y%z%A%B%C%D%E%F%G%H%I%J%",
"K%L%M%N%O%P%Q%R%S%T%U%V%W%W%W%X%Q+Y%Z%`% &.&6 +&@&#&$&%&&&*&=&=&",
"K%-&;&R$u.t >&,&,&'&)&!&~&{&]&^&/&(&_&:&<&{&q r [&}&|&8$-%1 1&1&"};
