/* XPM */
static char * player_right1_xpm[] = {
"32 32 598 2",
"  	c #60790C",
". 	c #5E770A",
"+ 	c #5C7409",
"@ 	c #5C7509",
"# 	c #5F7609",
"$ 	c #62780B",
"% 	c #63790C",
"& 	c #64790B",
"* 	c #6B7C27",
"= 	c #8A8A6F",
"- 	c #8A8B6F",
"; 	c #687B1E",
"> 	c #61770A",
", 	c #60770A",
"' 	c #60780B",
") 	c #627A0C",
"! 	c #637B0D",
"~ 	c #62790C",
"{ 	c #5F770A",
"] 	c #5E7609",
"^ 	c #63790B",
"/ 	c #5F760B",
"( 	c #546D0A",
"_ 	c #526D08",
": 	c #546F08",
"< 	c #617A0C",
"[ 	c #647C0D",
"} 	c #647C0E",
"| 	c #60780A",
"1 	c #5F7709",
"2 	c #5F7608",
"3 	c #61780A",
"4 	c #617809",
"5 	c #657532",
"6 	c #6F7852",
"7 	c #727A56",
"8 	c #687A20",
"9 	c #617709",
"0 	c #61780B",
"a 	c #61770B",
"b 	c #62790B",
"c 	c #627709",
"d 	c #647432",
"e 	c #6E7753",
"f 	c #66704F",
"g 	c #46620E",
"h 	c #536D07",
"i 	c #62780A",
"j 	c #5F7710",
"k 	c #67714B",
"l 	c #939292",
"m 	c #939291",
"n 	c #687249",
"o 	c #657433",
"p 	c #607608",
"q 	c #627810",
"r 	c #6A744D",
"s 	c #969596",
"t 	c #8F8F8E",
"u 	c #626D49",
"v 	c #637333",
"w 	c #64790C",
"x 	c #63780B",
"y 	c #637A0C",
"z 	c #5B693A",
"A 	c #5A5A55",
"B 	c #C2C1BE",
"C 	c #CBCAC6",
"D 	c #8B8A89",
"E 	c #75766D",
"F 	c #637716",
"G 	c #647A0D",
"H 	c #647B0C",
"I 	c #667345",
"J 	c #73736C",
"K 	c #CDCBC9",
"L 	c #898987",
"M 	c #727369",
"N 	c #647916",
"O 	c #647A0C",
"P 	c #657A0B",
"Q 	c #63790A",
"R 	c #657C0D",
"S 	c #637430",
"T 	c #616E40",
"U 	c #5C624A",
"V 	c #61605F",
"W 	c #E1E0DB",
"X 	c #F1F0EA",
"Y 	c #A1A0A1",
"Z 	c #7E7E79",
"` 	c #627716",
" .	c #63780A",
"..	c #65790C",
"+.	c #60770B",
"@.	c #637A0D",
"#.	c #667E0F",
"$.	c #677347",
"%.	c #777773",
"&.	c #F2F0EC",
"*.	c #E7E6E1",
"=.	c #AAA8A8",
"-.	c #81807D",
";.	c #68724D",
">.	c #587209",
",.	c #657B0D",
"'.	c #616D40",
").	c #454542",
"!.	c #8A8985",
"~.	c #C5C4C1",
"{.	c #F2F1EB",
"].	c #A1A1A1",
"^.	c #7E7F79",
"/.	c #647917",
"(.	c #62770B",
"_.	c #5D750A",
":.	c #607A0D",
"<.	c #647D0F",
"[.	c #677349",
"}.	c #787774",
"|.	c #F2F1EC",
"1.	c #FBFAF3",
"2.	c #B5B5B4",
"3.	c #8B8B8A",
"4.	c #67734A",
"5.	c #5F760A",
"6.	c #597109",
"7.	c #536D08",
"8.	c #637B0C",
"9.	c #606D40",
"0.	c #3D3D3B",
"a.	c #90908D",
"b.	c #D2D1CE",
"c.	c #F6F4EE",
"d.	c #F7F6EF",
"e.	c #CECECA",
"f.	c #A4A5A2",
"g.	c #7C8568",
"h.	c #67744A",
"i.	c #5C7410",
"j.	c #5F760C",
"k.	c #60722E",
"l.	c #576534",
"m.	c #82827B",
"n.	c #A3A39F",
"o.	c #F6F5EE",
"p.	c #FFFEF6",
"q.	c #FDFCF5",
"r.	c #BEBDBC",
"s.	c #919090",
"t.	c #69744B",
"u.	c #576F09",
"v.	c #657D0F",
"w.	c #657732",
"x.	c #62694F",
"y.	c #484846",
"z.	c #959491",
"A.	c #D4D3D0",
"B.	c #FDFCF6",
"C.	c #CCCAC9",
"D.	c #6F6F68",
"E.	c #616D44",
"F.	c #626E42",
"G.	c #636E43",
"H.	c #647043",
"I.	c #657043",
"J.	c #646F43",
"K.	c #5F654D",
"L.	c #3E3E3D",
"M.	c #9D9D9D",
"N.	c #D2D1D0",
"O.	c #FAF9F3",
"P.	c #C1C0BF",
"Q.	c #969594",
"R.	c #68734D",
"S.	c #637812",
"T.	c #607A0C",
"U.	c #647D0E",
"V.	c #657C16",
"W.	c #55574D",
"X.	c #585955",
"Y.	c #ACAAA9",
"Z.	c #D2D1CD",
"`.	c #F5F4ED",
" +	c #FCFBF4",
".+	c #FEFDF6",
"++	c #BBBAB8",
"@+	c #777775",
"#+	c #4F4F4D",
"$+	c #484845",
"%+	c #444442",
"&+	c #373737",
"*+	c #9F9E9C",
"=+	c #D4D3D1",
"-+	c #F0EFE9",
";+	c #D5D4CF",
">+	c #757470",
",+	c #656C52",
"'+	c #5D7510",
")+	c #627915",
"!+	c #4C4D46",
"~+	c #515150",
"{+	c #C3C1BF",
"]+	c #E5E4DF",
"^+	c #FEFDF5",
"/+	c #F0F0EA",
"(+	c #EFEFE8",
"_+	c #FDFDF5",
":+	c #C5C4BF",
"<+	c #8E8E8A",
"[+	c #81817E",
"}+	c #7F7F7B",
"|+	c #80807C",
"1+	c #B7B6B3",
"2+	c #DEDCD9",
"3+	c #FBFAF4",
"4+	c #E6E5E1",
"5+	c #68675F",
"6+	c #5F7616",
"7+	c #61790B",
"8+	c #617715",
"9+	c #636F43",
"0+	c #4F504A",
"a+	c #535453",
"b+	c #C4C2C0",
"c+	c #E4E4E0",
"d+	c #FAF9F2",
"e+	c #A7A6A1",
"f+	c #9A9A97",
"g+	c #FDFCF4",
"h+	c #FEFCF6",
"i+	c #7A7976",
"j+	c #696860",
"k+	c #61761D",
"l+	c #626D3E",
"m+	c #4E4D49",
"n+	c #878685",
"o+	c #B3B2AF",
"p+	c #D9D8D4",
"q+	c #B7B7B2",
"r+	c #CECCC9",
"s+	c #DFDED9",
"t+	c #FEFCF5",
"u+	c #D8D6D1",
"v+	c #9D9C98",
"w+	c #686860",
"x+	c #6C7D2D",
"y+	c #606C3D",
"z+	c #363635",
"A+	c #9B9A9A",
"B+	c #D6D5D2",
"C+	c #F9F7F2",
"D+	c #D8D7D2",
"E+	c #949390",
"F+	c #E7E6E0",
"G+	c #FFFDF7",
"H+	c #B6B5B0",
"I+	c #696864",
"J+	c #898B6D",
"K+	c #646D42",
"L+	c #D5D4D3",
"M+	c #F4F3EC",
"N+	c #FCFBF3",
"O+	c #696764",
"P+	c #677B1B",
"Q+	c #5F6B3C",
"R+	c #9B9B99",
"S+	c #DBDAD6",
"T+	c #C5C5BE",
"U+	c #ECEAE4",
"V+	c #DCDCD6",
"W+	c #D5D5CE",
"X+	c #D3D3CF",
"Y+	c #CAC9C3",
"Z+	c #C7C6BF",
"`+	c #F0F0E8",
" @	c #FFFEF7",
".@	c #B6B6B0",
"+@	c #5F6A3C",
"@@	c #F9F8F1",
"#@	c #A1A19C",
"$@	c #60605D",
"%@	c #3D3E3C",
"&@	c #D3D1CC",
"*@	c #FAF9F1",
"=@	c #FBFBF3",
"-@	c #AEADA9",
";@	c #979692",
">@	c #F1F0E9",
",@	c #898886",
"'@	c #5B5B58",
")@	c #474845",
"!@	c #616C3C",
"~@	c #F1F0EC",
"{@	c #D7D8D4",
"]@	c #80807F",
"^@	c #3C3C3C",
"/@	c #3A3A39",
"(@	c #D2D1CC",
"_@	c #D3D2CD",
":@	c #8E8D8A",
"<@	c #ECEBE5",
"[@	c #F5F4F0",
"}@	c #DBDCD8",
"|@	c #E5E4E0",
"1@	c #A3A29F",
"2@	c #D7D6D0",
"3@	c #F8F7EF",
"4@	c #70706E",
"5@	c #3C3C3B",
"6@	c #40403F",
"7@	c #BFC0BC",
"8@	c #E3E3DF",
"9@	c #616E3D",
"0@	c #9B9A99",
"a@	c #D6D4D2",
"b@	c #EEECE8",
"c@	c #CFCDCB",
"d@	c #949492",
"e@	c #7C7C7A",
"f@	c #949391",
"g@	c #DFDED8",
"h@	c #C5C4BE",
"i@	c #52514F",
"j@	c #E8E6E0",
"k@	c #EFECE9",
"l@	c #BDBBB9",
"m@	c #ECEBE6",
"n@	c #EDEBE8",
"o@	c #83817F",
"p@	c #CAC8C5",
"q@	c #A4A4A0",
"r@	c #8C8B89",
"s@	c #BEBDBD",
"t@	c #DCDCD8",
"u@	c #B3B3AE",
"v@	c #5E5E59",
"w@	c #373736",
"x@	c #9A9A99",
"y@	c #D5D3D1",
"z@	c #F8F6F2",
"A@	c #EEECE7",
"B@	c #D0D0CC",
"C@	c #DAD9D4",
"D@	c #C6C6BF",
"E@	c #555453",
"F@	c #E6E5DF",
"G@	c #DEDCD8",
"H@	c #525250",
"I@	c #ECEAE7",
"J@	c #848280",
"K@	c #F0EEE9",
"L@	c #D1CFCC",
"M@	c #D1CFCD",
"N@	c #DDDBD8",
"O@	c #F9F8F2",
"P@	c #AAA9A6",
"Q@	c #363735",
"R@	c #5C5D51",
"S@	c #6F6F6C",
"T@	c #8C8C89",
"U@	c #D5D4D1",
"V@	c #E8E7E2",
"W@	c #F2F0ED",
"X@	c #F5F4EE",
"Y@	c #E0DFD9",
"Z@	c #B3B2B0",
"`@	c #A1A19F",
" #	c #A09F9D",
".#	c #B4B2B0",
"+#	c #A3A2A0",
"@#	c #A19F9D",
"##	c #B7B6B4",
"$#	c #E1DFDB",
"%#	c #FBF9F3",
"&#	c #E2E1DD",
"*#	c #A2A19E",
"=#	c #787873",
"-#	c #5B5C52",
";#	c #61771C",
">#	c #52544B",
",#	c #555653",
"'#	c #B5B4B1",
")#	c #D4D2CF",
"!#	c #ECEAE6",
"~#	c #F3F2EE",
"{#	c #F5F6EE",
"]#	c #F5F5F0",
"^#	c #E6E6E1",
"/#	c #CECCCA",
"(#	c #8A8989",
"_#	c #8E8D8C",
":#	c #939190",
"<#	c #817F7E",
"[#	c #CAC8C7",
"}#	c #F6F6F0",
"|#	c #F8F7F1",
"1#	c #F5F3ED",
"2#	c #D4D2D0",
"3#	c #585857",
"4#	c #57584F",
"5#	c #61771D",
"6#	c #617710",
"7#	c #636F41",
"8#	c #61674F",
"9#	c #585755",
"0#	c #5C5C5B",
"a#	c #6C6B6A",
"b#	c #BFBEBB",
"c#	c #D3D3D0",
"d#	c #D4D4D1",
"e#	c #D3D2CF",
"f#	c #D0CFCD",
"g#	c #CBC9C7",
"h#	c #D0CECC",
"i#	c #CAC8C6",
"j#	c #C9C7C5",
"k#	c #B9B8B7",
"l#	c #686765",
"m#	c #656462",
"n#	c #646361",
"o#	c #626850",
"p#	c #637811",
"q#	c #677E0F",
"r#	c #626F40",
"s#	c #55554C",
"t#	c #525249",
"u#	c #56564F",
"v#	c #8C8B8A",
"w#	c #9C9B99",
"x#	c #A4A2A0",
"y#	c #B0B0AD",
"z#	c #B8B7B6",
"A#	c #CCCAC8",
"B#	c #C5C3C2",
"C#	c #9B9998",
"D#	c #888886",
"E#	c #54544C",
"F#	c #57584E",
"G#	c #647041",
"H#	c #637B0E",
"I#	c #607611",
"J#	c #627815",
"K#	c #637814",
"L#	c #656F44",
"M#	c #484946",
"N#	c #474746",
"O#	c #979694",
"P#	c #A5A4A4",
"Q#	c #A09F9F",
"R#	c #9D9C9D",
"S#	c #C9C8C6",
"T#	c #BFBEBC",
"U#	c #5B5B59",
"V#	c #555553",
"W#	c #51514F",
"X#	c #393938",
"Y#	c #363636",
"Z#	c #383837",
"`#	c #4F514A",
" $	c #65781C",
".$	c #647815",
"+$	c #667A16",
"@$	c #657A12",
"#$	c #637A0B",
"$$	c #5B7409",
"%$	c #496405",
"&$	c #5F770C",
"*$	c #536C07",
"=$	c #637C0E",
"-$	c #667243",
";$	c #797977",
">$	c #EFEDE9",
",$	c #C7C7C0",
"'$	c #7D7B78",
")$	c #E6E5E0",
"!$	c #E0DFDA",
"~$	c #626160",
"{$	c #4F4E48",
"]$	c #606B40",
"^$	c #606B3F",
"/$	c #637912",
"($	c #667C0E",
"_$	c #667D0E",
":$	c #667E0E",
"<$	c #637D0E",
"[$	c #5F790B",
"}$	c #4E6A08",
"|$	c #4A6505",
"1$	c #5E760B",
"2$	c #6D6D6B",
"3$	c #D4D2CE",
"4$	c #D6D6D0",
"5$	c #D8D5D2",
"6$	c #DBD9D5",
"7$	c #B3B2AD",
"8$	c #777572",
"9$	c #EAE9E3",
"0$	c #656463",
"a$	c #52524B",
"b$	c #667046",
"c$	c #657045",
"d$	c #657144",
"e$	c #617812",
"f$	c #627A0D",
"g$	c #657E0F",
"h$	c #5F780C",
"i$	c #5C7508",
"j$	c #5B7308",
"k$	c #516B07",
"l$	c #63780C",
"m$	c #474745",
"n$	c #51514E",
"o$	c #6C6C69",
"p$	c #6E6D6A",
"q$	c #E9E8E2",
"r$	c #EBEAE4",
"s$	c #6A6968",
"t$	c #595A56",
"u$	c #6B6A67",
"v$	c #676662",
"w$	c #66665F",
"x$	c #5F7716",
"y$	c #61790C",
"z$	c #657D0E",
"A$	c #627B0D",
"B$	c #647911",
"C$	c #646E44",
"D$	c #5F5F5D",
"E$	c #B4B3B1",
"F$	c #B7B5B3",
"G$	c #BAB9B6",
"H$	c #BAB9B7",
"I$	c #BDBCBB",
"J$	c #D8D7D4",
"K$	c #DEDDDA",
"L$	c #DFDDDA",
"M$	c #D9D7D4",
"N$	c #B9B8B8",
"O$	c #B6B6B5",
"P$	c #5E5F5B",
"Q$	c #53564E",
"R$	c #617614",
"S$	c #61790A",
"T$	c #62790A",
"U$	c #5F5F57",
"V$	c #8D8C8A",
"W$	c #C7C5C3",
"X$	c #B6B5B5",
"Y$	c #545452",
"Z$	c #4C4E47",
"`$	c #627614",
" %	c #57642E",
".%	c #444444",
"+%	c #B2B1B0",
"@%	c #A2A19F",
"#%	c #6F6E6B",
"$%	c #4E4F4D",
"%%	c #474846",
"&%	c #464645",
"*%	c #353635",
"=%	c #647A0A",
"-%	c #657B0C",
";%	c #617B0D",
">%	c #5E760A",
",%	c #55622D",
"'%	c #383838",
")%	c #7A7A79",
"!%	c #8E8D8D",
"~%	c #969593",
"{%	c #7D7C77",
"]%	c #66665D",
"^%	c #55564E",
"/%	c #52534B",
"(%	c #5B5D51",
"_%	c #647B16",
":%	c #647B0D",
"<%	c #5F780B",
"[%	c #5C760B",
"}%	c #597308",
"|%	c #54612C",
"1%	c #323232",
"2%	c #414140",
"3%	c #676663",
"4%	c #656F48",
"5%	c #5E7615",
"6%	c #607916",
"7%	c #647C17",
"8%	c #667D18",
"9%	c #637B17",
"0%	c #5F7816",
"a%	c #5C7414",
"b%	c #5B7314",
"c%	c #5D7515",
"d%	c #5F7615",
"e%	c #576F14",
"f%	c #5B7214",
"g%	c #5D750B",
"  . + @ # $ % & * = - ; > , ' ) ! ~ { ] ] , , ^ / ( _ : ) < [ } ",
"| 1 , 2 3 4 % 5 6 7 8 % ^ 9 0 a b b 3 b 3 c 3 d e f g h { 0 ~ ~ ",
"3 i 9 4 b ! j k l m n o b c ^ i p 3 $ $ ^ ^ q r s t u v w x % % ",
"^ b x x ' y z A B C D E F ^ b w ^ x > 0 G H I J K B L M N O P Q ",
"R % i & S T U V W X Y Z ` ^ &  ...9 # +.@.#.$.%.&.*.=.-.;.5 & i ",
">.,.& & '.).!.~.{.X ].^./.^ (.w w , { _.:.<.[.}.|.1.&.2.3.4.5.6.",
"7.,.R 8.9.0.a.b.c.d.e.f.g.h.i.# > b $ j.k.l.m.n.o.p.q.r.s.t.$ u.",
"! v.#.w.x.y.z.A.c.p.B.C.s D.E.F.G.H.I.J.K.L.M.N.O.p.q.P.Q.R.S.+.",
"T.U.V.W.X.Y.Z.`. +p..+++@+#+$+$+$+$+$+$+%+&+*+=+O.p..+-+;+>+,+'+",
"' ~ )+!+~+{+]+^+/+(+_+:+<+[+}+}+}+}+}+}+}+|+1+2+3+p.p.p.4+}.5+6+",
"7+8+9+0+a+b+c+d+e+f+1.g+1.1.1.1.1.1.1.1.1.1. +h+p.p.p.p.*.i+j+k+",
"i l+m+n+o+4+p+q+r+s+t+p.p.p.p.p.p.p.p.p.p.p.p.p.p.p.p.p.o.u+v+w+",
"x+y+z+A+B+C+D+E+F+G+p.p.p.p.p.p.p.p.p.p.p.p.p.p.p.p.p.p.p.q.H+I+",
"J+K+z+A+L+C+d+M+N+p.p.p.p.p.p.p.p.p.p.p.p.p.p.p.p.p.p.p.p.t+H+O+",
"P+Q+z+R+B+C+p.g+S+C T+U+p.p.p.p.p.p..+V+W+d+p. +X+Y+Z+`+ @t+.@O+",
"& +@z+R+B+C+^+@@#@$@%@&@p.p.g+*@^+.+=@-@;@>@g+@@,@'@)@V+B.B.H+O+",
"^ !@z+R+B+C+~@{@]@^@/@(@p.p._@:@<@[@}@|@2+1@2@3@4@5@6@7@8@3+H+O+",
",.9@z+0@a@C+b@c@d@e@f@g@p.p.h@i@j@k@l@m@n@o@p@@@q@r@e@s@t@1.u@v@",
"[ 9@w@x@y@z@A@b.B@C@3+.+p.p.D@E@F@G@H@p+I@J@p@.+g+K@L@M@N@O@P@Q@",
"< S R@S@T@U@V@&.W@X@p.p.p.p.Y@Z@`@ #.#+#@###$#p.p.%#|.|.&#*#=#-#",
", ~ ;#>#,#'#)#!#~#{#]#]#]#{#^#/#(#_#c@:#<#[#F+}#|#1#<@m@2#3#4#5#",
"> , 6#7#8#9#0#a#b#c#c#=+=+d#e#f#g#g#h#i#j#h#)#=+U@k#l#m#n#o#7#p#",
"i i , q#r#s#t#u#v#w#x#y#z#z#z#k#A#B#w#C#C#C#C#C#C#D#E#t#F#G#^ b ",
"> 5., H#I#J#K#L#M#N#}.O#P#P#Q#R#S#T#U#V#W#X#Y#Z#X#`# $.$+$@$#$7+",
"$$%$&$*$' ) =$-$$+;$>$M+c.o.,$'$)$|#>@>@!$~${$]$^$r#/$($_$:$<$[$",
"$$h }$|$1$.   I.)@2$3$4$5$6$7$8$9$p.p.p.<@0$a$b$c$d$e$f$g$q#U.h$",
"i$j$k$*$, b l$9+m$Y#m$y.n$o$p$}.q$^+^+^+r$s$t$u$v$w$x$y$! z$A$h$",
"1 , > 3 #$^ B$C$m$D$E$F$##G$H$I$J$K$L$L$M$++N$O$P$Q$R$' 0 G ~ b ",
"S$9 T$b #$^ l+U$4@V$c@W$T#++G$H$G$G$G$G$G$H$H$X$Y$Z$`$, ^ x b ^ ",
"7+0 | b ^ &  %.%+%A#c@@%#%$%%%%%%%%%%%%%%%%%%%&%*%Z$)+H  .=%-%H ",
";%>%i$] 3 T$,%'%)%!%~%{%]%^%/%/%/%/%/%a$a$/%/%/%/%(%_%:%<%:%_$_$",
";%[%}%j$5.i |%1%1%2%3%4%6+5%6%7%8%9%0%a%b%c%d%8+e%f%g%$$A$[ #.#."};
