/* XPM */
static char * player_left2_xpm[] = {
"32 32 594 2",
"  	c #60790C",
". 	c #5E770A",
"+ 	c #5C7409",
"@ 	c #5C7509",
"# 	c #5F7609",
"$ 	c #62780B",
"% 	c #63790C",
"& 	c #64790B",
"* 	c #6B7C27",
"= 	c #8A8A6F",
"- 	c #8A8B6F",
"; 	c #687B1E",
"> 	c #61770A",
", 	c #60770A",
"' 	c #60780B",
") 	c #627A0C",
"! 	c #637B0D",
"~ 	c #62790C",
"{ 	c #5F770A",
"] 	c #5E7609",
"^ 	c #63790B",
"/ 	c #5F760B",
"( 	c #546D0A",
"_ 	c #526D08",
": 	c #546F08",
"< 	c #617A0C",
"[ 	c #647C0D",
"} 	c #647C0E",
"| 	c #60780A",
"1 	c #5F7709",
"2 	c #5F7608",
"3 	c #61780A",
"4 	c #617809",
"5 	c #63790A",
"6 	c #64790D",
"7 	c #677A1F",
"8 	c #677A1C",
"9 	c #617709",
"0 	c #61780B",
"a 	c #61770B",
"b 	c #62790B",
"c 	c #627709",
"d 	c #62770A",
"e 	c #586F09",
"f 	c #456204",
"g 	c #536D07",
"h 	c #62780A",
"i 	c #5F770B",
"j 	c #617711",
"k 	c #647919",
"l 	c #657918",
"m 	c #63780B",
"n 	c #62790A",
"o 	c #607608",
"p 	c #637913",
"q 	c #637919",
"r 	c #617612",
"s 	c #5C7309",
"t 	c #637A0C",
"u 	c #67734B",
"v 	c #838480",
"w 	c #777971",
"x 	c #647817",
"y 	c #63780A",
"z 	c #64790C",
"A 	c #647A0D",
"B 	c #647B0C",
"C 	c #6C7850",
"D 	c #81827F",
"E 	c #717C5A",
"F 	c #647A0C",
"G 	c #657A0B",
"H 	c #657C0D",
"I 	c #627911",
"J 	c #69744B",
"K 	c #727764",
"L 	c #9F9E9E",
"M 	c #898986",
"N 	c #657920",
"O 	c #65790C",
"P 	c #60770B",
"Q 	c #637A0D",
"R 	c #667D15",
"S 	c #6C794E",
"T 	c #84897A",
"U 	c #A1A0A1",
"V 	c #7E8476",
"W 	c #5E6B40",
"X 	c #5D7413",
"Y 	c #607709",
"Z 	c #647A0B",
"` 	c #587209",
" .	c #657B0D",
"..	c #637719",
"+.	c #848482",
"@.	c #9C9C9B",
"#.	c #EDEDE7",
"$.	c #C0C0BC",
"%.	c #656961",
"&.	c #647816",
"*.	c #62770B",
"=.	c #5D750A",
"-.	c #607A0D",
";.	c #667E21",
">.	c #8F908E",
",.	c #B6B5B3",
"'.	c #F1F0EB",
").	c #A7A8A5",
"!.	c #474745",
"~.	c #5F760A",
"{.	c #597109",
"].	c #536D08",
"^.	c #637B0C",
"/.	c #67793E",
"(.	c #7C856B",
"_.	c #BCBBB7",
":.	c #D0CFCC",
"<.	c #FBFBF4",
"[.	c #C9C9C5",
"}.	c #666963",
"|.	c #647B18",
"1.	c #657E0F",
"2.	c #5F780B",
"3.	c #5B740A",
"4.	c #5F760C",
"5.	c #60780D",
"6.	c #637A21",
"7.	c #949492",
"8.	c #BDBBB9",
"9.	c #FBFAF3",
"0.	c #C4C5C0",
"a.	c #878684",
"b.	c #5A614B",
"c.	c #5A6737",
"d.	c #637810",
"e.	c #576F09",
"f.	c #657D0F",
"g.	c #667E0F",
"h.	c #7A8568",
"i.	c #9D9C9D",
"j.	c #E4E4E1",
"k.	c #FEFEF5",
"l.	c #FEFEF6",
"m.	c #CBCAC8",
"n.	c #6C6D6A",
"o.	c #637538",
"p.	c #617915",
"q.	c #5E770B",
"r.	c #5D7509",
"s.	c #64790E",
"t.	c #63770E",
"u.	c #637436",
"v.	c #6A744F",
"w.	c #989797",
"x.	c #BFBEBD",
"y.	c #FCFBF4",
"z.	c #E4E3DD",
"A.	c #C4C2C0",
"B.	c #535352",
"C.	c #505249",
"D.	c #607713",
"E.	c #607A0C",
"F.	c #647D0E",
"G.	c #657D0E",
"H.	c #637C0E",
"I.	c #E5E5DE",
"J.	c #FFFFF6",
"K.	c #E2E2DB",
"L.	c #B4B4B1",
"M.	c #63645F",
"N.	c #53554B",
"O.	c #647A16",
"P.	c #64790F",
"Q.	c #647911",
"R.	c #637618",
"S.	c #767872",
"T.	c #969696",
"U.	c #DCDCD7",
"V.	c #F1F0EA",
"W.	c #E4E4DF",
"X.	c #C5C3C1",
"Y.	c #535351",
"Z.	c #617714",
"`.	c #62781A",
" +	c #808576",
".+	c #B2B0AF",
"++	c #EAE9E3",
"@+	c #EAEAE3",
"#+	c #C9C9C3",
"$+	c #5F605D",
"%+	c #464743",
"&+	c #5C693C",
"*+	c #5A683B",
"=+	c #5B683B",
"-+	c #5C693B",
";+	c #5D693C",
">+	c #5C683D",
",+	c #797A77",
"'+	c #979797",
")+	c #EDEFE8",
"!+	c #EAE9E4",
"~+	c #D0CFCB",
"{+	c #797977",
"]+	c #61635E",
"^+	c #5C693D",
"/+	c #607330",
"(+	c #61790B",
"_+	c #617715",
":+	c #63685D",
"<+	c #A0A19C",
"[+	c #F9F9F2",
"}+	c #E9E9E3",
"|+	c #C9C7C5",
"1+	c #646562",
"2+	c #3A3B38",
"3+	c #3B3C39",
"4+	c #3C3C3A",
"5+	c #51514F",
"6+	c #71716E",
"7+	c #ECEBE5",
"8+	c #FEFDF6",
"9+	c #F7F7EF",
"0+	c #D3D2CF",
"a+	c #9B9A99",
"b+	c #383937",
"c+	c #5E6B3D",
"d+	c #627715",
"e+	c #63675E",
"f+	c #A2A29E",
"g+	c #F6F6F0",
"h+	c #ECECE7",
"i+	c #D7D6D2",
"j+	c #D1D1CB",
"k+	c #D1D1CC",
"l+	c #D1D0CD",
"m+	c #D1D1CD",
"n+	c #D3D3D0",
"o+	c #F9F8F1",
"p+	c #EEEDE6",
"q+	c #B6B6B2",
"r+	c #E3E3DE",
"s+	c #F9F8F0",
"t+	c #D6D6D2",
"u+	c #9D9C9A",
"v+	c #363635",
"w+	c #5F6C3C",
"x+	c #63770A",
"y+	c #6C7D2D",
"z+	c #647913",
"A+	c #66753A",
"B+	c #848480",
"C+	c #B4B3AF",
"D+	c #E6E5E0",
"E+	c #929290",
"F+	c #CFCFCB",
"G+	c #EBECE6",
"H+	c #DBDAD6",
"I+	c #ABAAA7",
"J+	c #60605E",
"K+	c #60664E",
"L+	c #616D40",
"M+	c #898B6D",
"N+	c #68724A",
"O+	c #70726E",
"P+	c #DEDDD7",
"Q+	c #FFFEF6",
"R+	c #FCFCF3",
"S+	c #F4F3ED",
"T+	c #BEBDBA",
"U+	c #9E9D9C",
"V+	c #F2F2EB",
"W+	c #E5E3DF",
"X+	c #C3C2BE",
"Y+	c #60605D",
"Z+	c #4A4B48",
"`+	c #677B1B",
" @	c #636F47",
".@	c #727370",
"+@	c #E7E6E0",
"@@	c #E0DFDA",
"#@	c #C9C8C4",
"$@	c #CDCCC7",
"%@	c #5E5F5C",
"&@	c #464644",
"*@	c #626E47",
"=@	c #F9F9F0",
"-@	c #FDFCF4",
";@	c #FDFDF5",
">@	c #FEFDF5",
",@	c #FAFAF2",
"'@	c #F9F9F1",
")@	c #FDFCF5",
"!@	c #CCCBC7",
"~@	c #647047",
"{@	c #BAB9B6",
"]@	c #848483",
"^@	c #8E8E8D",
"/@	c #D2D1CD",
"(@	c #E4E4DE",
"_@	c #959593",
":@	c #E8E7E2",
"<@	c #FCFCF4",
"[@	c #A2A19F",
"}@	c #868785",
"|@	c #90908F",
"1@	c #DCDBD6",
"2@	c #647247",
"3@	c #F3F2ED",
"4@	c #9C9B9B",
"5@	c #3B3A3A",
"6@	c #5C5D59",
"7@	c #B9BCB8",
"8@	c #FBFBF3",
"9@	c #A5A4A1",
"0@	c #E2E1DC",
"a@	c #F7F6F0",
"b@	c #E2E2DC",
"c@	c #FCFBF3",
"d@	c #7F7F7C",
"e@	c #414140",
"f@	c #C9C8C5",
"g@	c #F6F5EF",
"h@	c #F6F5F0",
"i@	c #D2D1CE",
"j@	c #858585",
"k@	c #3A3A39",
"l@	c #3F3F3D",
"m@	c #B6B9B4",
"n@	c #F4F4EC",
"o@	c #8F8F8D",
"p@	c #AAAAA5",
"q@	c #FAFAF3",
"r@	c #DBDCD7",
"s@	c #DADBD7",
"t@	c #BBBBB4",
"u@	c #EEF0E8",
"v@	c #82827F",
"w@	c #3D3E3D",
"x@	c #AAAAA6",
"y@	c #DBD9D5",
"z@	c #FBFAF4",
"A@	c #617A12",
"B@	c #5A6347",
"C@	c #61625F",
"D@	c #D3D2CE",
"E@	c #BEBDBB",
"F@	c #B8B8B4",
"G@	c #D3D3CE",
"H@	c #ECECE5",
"I@	c #F4F5EC",
"J@	c #8B8B89",
"K@	c #A9A9A4",
"L@	c #B0AFAC",
"M@	c #A3A3A1",
"N@	c #FAF9F2",
"O@	c #727372",
"P@	c #E3E2DD",
"Q@	c #B4B3B2",
"R@	c #C5C4C2",
"S@	c #DAD8D4",
"T@	c #CDCDC7",
"U@	c #607615",
"V@	c #585B52",
"W@	c #595A56",
"X@	c #D6D5D0",
"Y@	c #E7E7E1",
"Z@	c #DADAD6",
"`@	c #D9DBD6",
" #	c #DDDFDA",
".#	c #FCFCF5",
"+#	c #F6F6EE",
"@#	c #AAA9A7",
"##	c #8B8B8B",
"$#	c #E7E6E1",
"%#	c #B5B4B1",
"&#	c #F7F7F0",
"*#	c #DBDCD8",
"=#	c #DEDFDA",
"-#	c #F4F4ED",
";#	c #DFE0DA",
">#	c #C3C2BD",
",#	c #4C4D48",
"'#	c #617232",
")#	c #626851",
"!#	c #62625F",
"~#	c #A1A29E",
"{#	c #FAFAF4",
"]#	c #B1B0AF",
"^#	c #6A6A68",
"/#	c #6A6B69",
"(#	c #A4A5A3",
"_#	c #CFCECB",
":#	c #F8F8F0",
"<#	c #F5F5EE",
"[#	c #D8D7D3",
"}#	c #A7A7A4",
"|#	c #585A57",
"1#	c #60654E",
"2#	c #627131",
"3#	c #607132",
"4#	c #575950",
"5#	c #7E7E79",
"6#	c #B7B8B4",
"7#	c #B4B7B2",
"8#	c #BFC0BC",
"9#	c #E5E6DE",
"0#	c #E8E8E1",
"a#	c #E7E7E2",
"b#	c #D5D4D0",
"c#	c #C3C2BF",
"d#	c #A0A09C",
"e#	c #C3C2C2",
"f#	c #D3D3CF",
"g#	c #E5E5DF",
"h#	c #E8E9E2",
"i#	c #E8E9E1",
"j#	c #E8E8E2",
"k#	c #D0D0CB",
"l#	c #B6B7B3",
"m#	c #9C9C99",
"n#	c #82817F",
"o#	c #53534B",
"p#	c #627230",
"q#	c #637A17",
"r#	c #5D693D",
"s#	c #3D3C3A",
"t#	c #3B3938",
"u#	c #5E5D5B",
"v#	c #C7C7C2",
"w#	c #CCCBC6",
"x#	c #CBCAC6",
"y#	c #D0CECB",
"z#	c #D1CFCC",
"A#	c #D1CFCD",
"B#	c #CFCECA",
"C#	c #979694",
"D#	c #565654",
"E#	c #3C3D3A",
"F#	c #52544A",
"G#	c #64781B",
"H#	c #5B7409",
"I#	c #496405",
"J#	c #5F770C",
"K#	c #536C07",
"L#	c #5F6B40",
"M#	c #606D40",
"N#	c #62674F",
"O#	c #5D5D59",
"P#	c #5C5D58",
"Q#	c #5C5B59",
"R#	c #5B5B58",
"S#	c #5C5B58",
"T#	c #CDCCC8",
"U#	c #B2B1AF",
"V#	c #5D5D5B",
"W#	c #5F5F5C",
"X#	c #C8C7C4",
"Y#	c #777775",
"Z#	c #627045",
"`#	c #637D0E",
" $	c #5F790B",
".$	c #4E6A08",
"+$	c #4A6505",
"@$	c #5E760B",
"#$	c #616E3F",
"$$	c #414241",
"%$	c #7D7C7A",
"&$	c #9F9E9B",
"*$	c #676866",
"=$	c #A4A4A0",
"-$	c #A4A59F",
";$	c #B5B4B0",
">$	c #DDDDD8",
",$	c #DEDED9",
"'$	c #BAB9B7",
")$	c #848383",
"!$	c #858584",
"~$	c #747371",
"{$	c #403F3F",
"]$	c #CDCDC9",
"^$	c #EDEEE7",
"/$	c #777875",
"($	c #626A4E",
"_$	c #677E14",
":$	c #5F780C",
"<$	c #5C7508",
"[$	c #5B7308",
"}$	c #516B07",
"|$	c #63780C",
"1$	c #62771E",
"2$	c #666964",
"3$	c #BFC0BD",
"4$	c #F0EFE8",
"5$	c #797975",
"6$	c #9A9A95",
"7$	c #FBFAF2",
"8$	c #CFCDCA",
"9$	c #B6B4B3",
"0$	c #494848",
"a$	c #CBCBC7",
"b$	c #EBEAE4",
"c$	c #616160",
"d$	c #50534A",
"e$	c #647C16",
"f$	c #627B0D",
"g$	c #637A0B",
"h$	c #6B764F",
"i$	c #929292",
"j$	c #989896",
"k$	c #9B9B98",
"l$	c #888786",
"m$	c #E0DEDA",
"n$	c #E1DFDC",
"o$	c #DDDDD9",
"p$	c #B7B5B4",
"q$	c #434443",
"r$	c #7B7B77",
"s$	c #637915",
"t$	c #61790A",
"u$	c #6C764F",
"v$	c #919191",
"w$	c #80817E",
"x$	c #61655D",
"y$	c #464744",
"z$	c #7F7F7E",
"A$	c #CFCDCB",
"B$	c #C0BFBD",
"C$	c #B9B8B7",
"D$	c #BAB9B8",
"E$	c #CDCCC9",
"F$	c #414141",
"G$	c #3F3F3E",
"H$	c #474845",
"I$	c #474846",
"J$	c #56584F",
"K$	c #627814",
"L$	c #657A0C",
"M$	c #637717",
"N$	c #69744A",
"O$	c #667538",
"P$	c #63761D",
"Q$	c #61645D",
"R$	c #90908E",
"S$	c #CCCAC8",
"T$	c #7D7D7C",
"U$	c #4C4D4C",
"V$	c #484848",
"W$	c #5A5B59",
"X$	c #C4C2BF",
"Y$	c #535A41",
"Z$	c #647144",
"`$	c #647244",
" %	c #637432",
".%	c #657B0C",
"+%	c #617B0D",
"@%	c #5E760A",
"#%	c #627716",
"$%	c #636660",
"%%	c #737371",
"&%	c #838382",
"*%	c #525250",
"=%	c #393938",
"-%	c #52544D",
";%	c #54564E",
">%	c #53564E",
",%	c #595B55",
"'%	c #646663",
")%	c #828281",
"!%	c #737472",
"~%	c #373737",
"{%	c #52612D",
"]%	c #647B0D",
"^%	c #667D0E",
"/%	c #5C760B",
"(%	c #597308",
"_%	c #65790E",
":%	c #6A7B22",
"<%	c #697B2B",
"[%	c #63665F",
"}%	c #545554",
"|%	c #373636",
"1%	c #353433",
"2%	c #3E3F39",
"3%	c #647B1B",
"4%	c #637B18",
"5%	c #5F7817",
"6%	c #5C7415",
"7%	c #5F6C48",
"8%	c #626461",
"9%	c #3F3E3E",
"0%	c #353534",
"a%	c #353434",
"b%	c #53622D",
"c%	c #5D750B",
"  . + @ # $ % & * = - ; > , ' ) ! ~ { ] ] , , ^ / ( _ : ) < [ } ",
"| 1 , 2 3 4 % 5 6 7 8 % ^ 9 0 a b b 3 b 3 c 3 3 d e f g { 0 ~ ~ ",
"3 h 9 4 b ! i j k l m m n c ^ h o 3 $ $ ^ ^ h p q r s $ & m % % ",
"^ b m m ' t . u v w x ^ y ^ b z ^ m > 0 A B B C D E # h F F G 5 ",
"H % h & h I J K L M N z c ^ & y O 9 # P Q R S T U V W X Y Z & h ",
"`  .& & 4 ..+.@.#.$.%.&.F ^ *.z z , { =.-.;.>.,.'.).!.W , $ ~.{.",
"]. .H ^./.(._.:.<.[.}.|.1.2.3.# > b $ 4.5.6.7.8.9.0.a.b.c.d.$ e.",
"! f.g.} h.i.j.k.l.m.n.o.p.q.r.~.> z s.t.u.v.w.x.y.z.A.B.C.D.~ P ",
"E.F.G.H.h.i.I.J.J.K.L.M.N.O., h $ P.Q.R.S.T.U.V.k.W.X.Y.C.Z.{ r.",
"' ~ Q `. +.+++J.J.@+#+$+%+&+*+=+-+;+;+>+,+'+)+J.J.!+~+{+]+^+/+{ ",
"(+a _+:+<+[+k.J.J.}+|+1+2+3+3+3+3+3+3+4+5+6+7+J.k.8+9+0+a+b+c+, ",
"h ^ d+e+f+y.J.J.J.g+h+i+j+j+j+j+j+k+l+l+m+n+o+p+q+r+s+t+u+v+w+x+",
"y+z+A+B+C+y.J.J.J.J.J.J.J.J.J.J.J.J.J.J.J.J.J.D+E+F+G+H+I+J+K+L+",
"M+N+O+P+9+Q+J.J.J.J.J.J.J.J.J.J.J.J.J.J.J.J.J.R+S+T+U+V+W+X+Y+Z+",
"`+ @.@+@J.J.J.J.J.J.J.J.J.J.J.J.J.J.J.J.J.J.J.J.Q+@@#@o+7+$@%@&@",
"& *@.@+@J.J.<.=@=@-@J.J.;@=@>@J.J.J.J.J.J.J.,@=@'@)@k.J.7+!@%@&@",
"^ ~@.@+@J.;@{@]@^@/@l.J.(@_@:@J.J.J.J.J.J.<@[@}@|@1@J.J.7+!@%@&@",
" .2@.@+@R+3@4@5@6@7@8@+@k+9@0@a@Q+p+b@8@J.c@d@e@%@f@g@>@7+!@%@&@",
"[ 2@.@+@h@i@j@k@l@m@n@o@p@q@r@s@<@t@.@u@J.c@v@2+w@x@y@z@7+!@%@&@",
"A@B@C@I.h@D@E@F@G@H@I@J@K@8@L@M@N@F@O@)+J.k.P@:.Q@R@S@<.7+T@%@&@",
"U@V@W@X@Y@Z@`@ #.#J.+#U+@#:@a+##$#%#D u@J.J.J.&#*#`@=#-#;#>#Y+,#",
"a '#)#!#~#&#{#z@l.J.9.n+]#^#Q@Q@/#(#_#:#J.J.J.>@<.<.<#[#}#|#1#2#",
"h h 3#4#5#6#7#8#9#0#a#b#c#d#e#f@f+T+f#g#h#h#i#j#0#k#l#m#n#o#p#b ",
"> ~.P q#r#s#t#u#v#!@!@w#x#x#x#!@y#z#z#A#B#!@!@!@x#C#D#E#F#G#t (+",
"H#I#J#K#/+L#M#N#O#P#Q#R#S#Q#Q#D T#z#z#z#U#V#S#S#W#X#P@Y#Z#g.`# $",
"H#g .$+$@$.   #$$$%$&$5+*$=$-$;$>$0@,$f#'$)$!$~${$]$^$/$($_$F.:$",
"<$[$}$K#, b |$1$2$3$4$5$6$7$-@)@;@>@9+i+~+8$8$9$0$a$b$c$d$e$f$:$",
"1 , > 3 g$^ & h$i$j$k$5+l$m$n$n$n$n$o$D@z#z#z#p$q$r$M q$C.s$~ b ",
"t$9 n b g$^ & u$v$w$x$y$z$A$B$C$C$C$C$C$C$D$E$p$F$G$H$I$J$K$b ^ ",
"(+0 | b ^ & L$M$N$O$P$Q$R$S$T$U$U$U$U$V$W$.@X$9$F$Y$Z$`$ %Z .%B ",
"+%@%<$] 3 n & y y y #%$%%%&%*%=%-%;%>%>%,%'%)%!%~%{%]%]%2.]%^%^%",
"+%/%(%[$~.h b ^ _%:%<%[%}%|%1%2%3%4%5%6%7%8%9%0%a%b%c%H#f$[ g.g."};
