/* XPM */
static char * player_left3_xpm[] = {
"32 32 611 2",
"  	c #60790C",
". 	c #5E770A",
"+ 	c #5C7409",
"@ 	c #5C7509",
"# 	c #5F7609",
"$ 	c #62780B",
"% 	c #63790C",
"& 	c #64790B",
"* 	c #6B7C27",
"= 	c #8A8A6F",
"- 	c #8A8B6F",
"; 	c #687B1E",
"> 	c #61770A",
", 	c #60770A",
"' 	c #60780B",
") 	c #627A0C",
"! 	c #637B0D",
"~ 	c #62790C",
"{ 	c #5F770A",
"] 	c #5E7609",
"^ 	c #63790B",
"/ 	c #5F760B",
"( 	c #546D0A",
"_ 	c #526D08",
": 	c #546F08",
"< 	c #617A0C",
"[ 	c #647C0D",
"} 	c #647C0E",
"| 	c #60780A",
"1 	c #5F7709",
"2 	c #5F7608",
"3 	c #61780A",
"4 	c #617812",
"5 	c #6D7750",
"6 	c #6F7853",
"7 	c #667533",
"8 	c #677A1F",
"9 	c #677A1C",
"0 	c #617709",
"a 	c #61780B",
"b 	c #61770B",
"c 	c #62790B",
"d 	c #627712",
"e 	c #6C7751",
"f 	c #6D7752",
"g 	c #647432",
"h 	c #586F09",
"i 	c #456204",
"j 	c #536D07",
"k 	c #62780A",
"l 	c #647533",
"m 	c #677249",
"n 	c #8F8F8E",
"o 	c #969596",
"p 	c #69744D",
"q 	c #657912",
"r 	c #63780A",
"s 	c #63780B",
"t 	c #62790A",
"u 	c #627709",
"v 	c #607608",
"w 	c #62780C",
"x 	c #647433",
"y 	c #687249",
"z 	c #939291",
"A 	c #939292",
"B 	c #68734B",
"C 	c #617610",
"D 	c #5C7309",
"E 	c #637815",
"F 	c #727369",
"G 	c #898987",
"H 	c #C2C1BE",
"I 	c #CDCCC9",
"J 	c #72726B",
"K 	c #667145",
"L 	c #64790C",
"M 	c #627716",
"N 	c #75766D",
"O 	c #8B8A89",
"P 	c #CBCAC6",
"Q 	c #5A5A55",
"R 	c #5C693A",
"S 	c #647A0C",
"T 	c #657A0B",
"U 	c #63790A",
"V 	c #657C0D",
"W 	c #69734D",
"X 	c #81807D",
"Y 	c #AAA8A8",
"Z 	c #E7E6E1",
"` 	c #F2F1EB",
" .	c #777774",
"..	c #667147",
"+.	c #657A0C",
"@.	c #65790C",
"#.	c #617717",
"$.	c #7E7E79",
"%.	c #A1A0A1",
"&.	c #F1F0EA",
"*.	c #E1E0DB",
"=.	c #61605F",
"-.	c #5A614A",
";.	c #5E6B40",
">.	c #5F7130",
",.	c #607709",
"'.	c #647A0B",
").	c #587209",
"!.	c #657B0D",
"~.	c #68734A",
"{.	c #8B8B8A",
"].	c #B5B5B4",
"^.	c #F2F0EC",
"/.	c #FBFAF3",
"(.	c #F3F3EC",
"_.	c #787773",
":.	c #667048",
"<.	c #62770B",
"[.	c #5E7516",
"}.	c #7E7F79",
"|.	c #A1A1A1",
"1.	c #C5C4C1",
"2.	c #8A8985",
"3.	c #454542",
"4.	c #5F6B40",
"5.	c #5F760A",
"6.	c #597109",
"7.	c #536D08",
"8.	c #69754B",
"9.	c #919090",
"0.	c #BEBDBC",
"a.	c #FDFCF5",
"b.	c #FFFEF6",
"c.	c #F6F5EE",
"d.	c #A4A39F",
"e.	c #82827C",
"f.	c #576434",
"g.	c #63762F",
"h.	c #657E0F",
"i.	c #5F780B",
"j.	c #5B740A",
"k.	c #627811",
"l.	c #68744A",
"m.	c #7A8268",
"n.	c #A4A5A2",
"o.	c #CECECA",
"p.	c #F7F6EF",
"q.	c #F6F4EE",
"r.	c #D2D1CE",
"s.	c #90908D",
"t.	c #3D3D3B",
"u.	c #5F6C3F",
"v.	c #576F09",
"w.	c #667D14",
"x.	c #6A764D",
"y.	c #969594",
"z.	c #C1C0BF",
"A.	c #FAF9F3",
"B.	c #D3D2CF",
"C.	c #9E9D9B",
"D.	c #3E3E3D",
"E.	c #60674E",
"F.	c #657143",
"G.	c #626E43",
"H.	c #606D42",
"I.	c #626E42",
"J.	c #636E43",
"K.	c #646F44",
"L.	c #6F6F68",
"M.	c #CBCAC9",
"N.	c #FDFCF6",
"O.	c #D4D3D0",
"P.	c #959491",
"Q.	c #484846",
"R.	c #61674F",
"S.	c #627331",
"T.	c #60770B",
"U.	c #607912",
"V.	c #676E53",
"W.	c #747470",
"X.	c #D5D4CF",
"Y.	c #F0EFE9",
"Z.	c #FEFDF6",
"`.	c #D3D3D1",
" +	c #9F9E9D",
".+	c #373737",
"++	c #444442",
"@+	c #484845",
"#+	c #4F4F4D",
"$+	c #767675",
"%+	c #BBBAB8",
"&+	c #FCFBF4",
"*+	c #F5F4ED",
"=+	c #D2D1CD",
"-+	c #ACAAA9",
";+	c #585955",
">+	c #55574D",
",+	c #617714",
"'+	c #5D7509",
")+	c #607716",
"!+	c #68675F",
"~+	c #787774",
"{+	c #E6E5E1",
"]+	c #FBFAF4",
"^+	c #DEDCD9",
"/+	c #B7B6B3",
"(+	c #80807C",
"_+	c #7F7F7B",
":+	c #81817E",
"<+	c #8E8E8A",
"[+	c #C5C4BF",
"}+	c #FDFDF5",
"|+	c #EFEFE8",
"1+	c #F0F0EA",
"2+	c #FEFDF5",
"3+	c #E5E4DF",
"4+	c #C3C1BF",
"5+	c #515150",
"6+	c #4C4D46",
"7+	c #607613",
"8+	c #62771E",
"9+	c #696860",
"0+	c #7A7976",
"a+	c #FEFCF6",
"b+	c #FDFCF4",
"c+	c #9A9A97",
"d+	c #A7A6A1",
"e+	c #FAF9F2",
"f+	c #E4E4E0",
"g+	c #C4C2C0",
"h+	c #535452",
"i+	c #4F504A",
"j+	c #647043",
"k+	c #627814",
"l+	c #686860",
"m+	c #9D9C98",
"n+	c #D8D6D1",
"o+	c #FEFCF5",
"p+	c #DFDED9",
"q+	c #CECDC8",
"r+	c #B7B6B2",
"s+	c #D9D8D4",
"t+	c #B2B1B0",
"u+	c #878685",
"v+	c #4E4D49",
"w+	c #626F3E",
"x+	c #63770A",
"y+	c #696764",
"z+	c #B6B5B0",
"A+	c #FFFDF7",
"B+	c #E7E6E0",
"C+	c #949290",
"D+	c #D8D7D2",
"E+	c #F9F8F1",
"F+	c #D5D4D1",
"G+	c #9B9A99",
"H+	c #363635",
"I+	c #616C3E",
"J+	c #6C7C29",
"K+	c #FCFAF3",
"L+	c #F4F2ED",
"M+	c #F9F8F2",
"N+	c #D6D4D1",
"O+	c #676E46",
"P+	c #898A6D",
"Q+	c #F0F0E8",
"R+	c #C7C6BF",
"S+	c #CAC9C5",
"T+	c #D3D3CF",
"U+	c #D5D5CE",
"V+	c #DDDCD6",
"W+	c #ECEAE4",
"X+	c #C5C5BE",
"Y+	c #CBCAC5",
"Z+	c #DBDAD5",
"`+	c #5F6B3D",
" @	c #687A1E",
".@	c #DCDBD5",
"+@	c #474745",
"@@	c #5B5B58",
"#@	c #898886",
"$@	c #F0F0E9",
"%@	c #969792",
"&@	c #AEAEA9",
"*@	c #FBFBF3",
"=@	c #FAF9F1",
"-@	c #D3D1CC",
";@	c #3D3E3C",
">@	c #60605C",
",@	c #A1A09C",
"'@	c #F9F7F1",
")@	c #5F6A3C",
"!@	c #64780B",
"~@	c #E3E3DE",
"{@	c #BEBFBB",
"]@	c #3F403F",
"^@	c #3C3C3B",
"/@	c #70706E",
"(@	c #F8F7EF",
"_@	c #D6D4CF",
":@	c #9F9E9B",
"<@	c #E5E4E0",
"[@	c #DBDCD8",
"}@	c #F5F4F0",
"|@	c #ECEBE5",
"1@	c #8E8D8A",
"2@	c #D3D2CD",
"3@	c #D2D1CC",
"4@	c #3A3A39",
"5@	c #3C3C3C",
"6@	c #80807F",
"7@	c #D7D8D4",
"8@	c #F1F0EC",
"9@	c #F9F7F2",
"0@	c #65790D",
"a@	c #5E5E59",
"b@	c #B3B3AD",
"c@	c #DCDCD8",
"d@	c #BEBFBC",
"e@	c #7B7C7A",
"f@	c #8B8B89",
"g@	c #A4A4A0",
"h@	c #CAC8C6",
"i@	c #83817F",
"j@	c #EDEBE8",
"k@	c #ECEBE6",
"l@	c #BDBBB9",
"m@	c #EFECE9",
"n@	c #E8E6E0",
"o@	c #52514F",
"p@	c #C5C4BE",
"q@	c #DFDED8",
"r@	c #949391",
"s@	c #7C7C79",
"t@	c #939392",
"u@	c #CECDCD",
"v@	c #EDECE8",
"w@	c #5F6B3C",
"x@	c #637A0D",
"y@	c #363735",
"z@	c #AAAAA5",
"A@	c #DDDCD8",
"B@	c #D1CFCD",
"C@	c #D0CFCD",
"D@	c #F0EEE9",
"E@	c #CBC8C6",
"F@	c #848280",
"G@	c #ECEAE7",
"H@	c #525150",
"I@	c #DEDCD8",
"J@	c #E6E5DF",
"K@	c #555453",
"L@	c #C6C6BF",
"M@	c #DAD9D4",
"N@	c #D1D1D0",
"O@	c #EEECE7",
"P@	c #F8F7F1",
"Q@	c #D5D3D0",
"R@	c #373736",
"S@	c #5E6B3C",
"T@	c #5C5C52",
"U@	c #787874",
"V@	c #A2A19E",
"W@	c #E2E1DD",
"X@	c #F2F1EC",
"Y@	c #E1DFDB",
"Z@	c #B7B6B4",
"`@	c #A19F9D",
" #	c #A3A2A0",
".#	c #B3B2B0",
"+#	c #A3A3A0",
"@#	c #A2A19F",
"##	c #E0DFD9",
"$#	c #F4F3EE",
"%#	c #F2F0ED",
"&#	c #E8E7E2",
"*#	c #8C8C89",
"=#	c #6F6F6C",
"-#	c #5C5C51",
";#	c #60712F",
">#	c #60761C",
",#	c #57584F",
"'#	c #585857",
")#	c #D4D3CF",
"!#	c #F3F2ED",
"~#	c #F5F6EF",
"{#	c #CAC9C6",
"]#	c #817F7E",
"^#	c #929190",
"/#	c #CECECC",
"(#	c #8E8E8C",
"_#	c #8A8989",
":#	c #CECCCA",
"<#	c #E6E6E1",
"[#	c #F5F6EE",
"}#	c #F5F5F0",
"|#	c #F3F3ED",
"1#	c #D4D2CF",
"2#	c #B5B4B2",
"3#	c #555654",
"4#	c #52544B",
"5#	c #62761C",
"6#	c #617711",
"7#	c #626E41",
"8#	c #636850",
"9#	c #646461",
"0#	c #656463",
"a#	c #686766",
"b#	c #B7B8B6",
"c#	c #D4D4D0",
"d#	c #D0CECC",
"e#	c #C9C7C5",
"f#	c #CBC9C8",
"g#	c #CBC9C7",
"h#	c #D4D4D1",
"i#	c #BFBEBB",
"j#	c #6D6C6B",
"k#	c #5D5C5C",
"l#	c #585855",
"m#	c #647041",
"n#	c #575753",
"o#	c #51524E",
"p#	c #545351",
"q#	c #878887",
"r#	c #9A9998",
"s#	c #9B9998",
"t#	c #9C9B99",
"u#	c #C5C3C2",
"v#	c #CBCAC7",
"w#	c #9B9A98",
"x#	c #787875",
"y#	c #555551",
"z#	c #636F40",
"A#	c #607619",
"B#	c #66675F",
"C#	c #6C6B68",
"D#	c #777673",
"E#	c #636360",
"F#	c #555553",
"G#	c #484847",
"H#	c #393938",
"I#	c #51514F",
"J#	c #5B5B59",
"K#	c #C0BEBC",
"L#	c #D3D1CF",
"M#	c #C7C5C3",
"N#	c #6A6A6A",
"O#	c #4A4B4A",
"P#	c #4A4A49",
"Q#	c #393A39",
"R#	c #7C7B79",
"S#	c #D0CECB",
"T#	c #A5A4A0",
"U#	c #757570",
"V#	c #66743A",
"W#	c #667B17",
"X#	c #657A0D",
"Y#	c #637A0B",
"Z#	c #61790B",
"`#	c #5B7409",
" $	c #496405",
".$	c #607717",
"+$	c #67675F",
"@$	c #9F9F9C",
"#$	c #B8B7B5",
"$$	c #646362",
"%$	c #E0DFDA",
"&$	c #F1F0E9",
"*$	c #F3F1EC",
"=$	c #C8C6C5",
"-$	c #C6C5C3",
";$	c #C4C3C0",
">$	c #666664",
",$	c #91908E",
"'$	c #F6F5EF",
")$	c #E4E3DF",
"!$	c #7B7B78",
"~$	c #68685E",
"{$	c #667D18",
"]$	c #637D0E",
"^$	c #5F790B",
"/$	c #506A14",
"($	c #939390",
"_$	c #DAD9D3",
":$	c #DCDAD6",
"<$	c #DCDAD5",
"[$	c #D6D4D0",
"}$	c #F4F3EC",
"|$	c #C2C0BE",
"1$	c #C7C5C4",
"2$	c #6B6B69",
"3$	c #7D7C7B",
"4$	c #D4D2CD",
"5$	c #EFEEE8",
"6$	c #7E7D79",
"7$	c #677E19",
"8$	c #647D0E",
"9$	c #5F780C",
"0$	c #5C7508",
"a$	c #5B7308",
"b$	c #526A14",
"c$	c #676660",
"d$	c #6B6B68",
"e$	c #676863",
"f$	c #434240",
"g$	c #383938",
"h$	c #656462",
"i$	c #EBEAE4",
"j$	c #EDEDE7",
"k$	c #A2A1A2",
"l$	c #9E9D9E",
"m$	c #A09F9F",
"n$	c #B4B3B3",
"o$	c #464644",
"p$	c #7D7C79",
"q$	c #657C18",
"r$	c #627B0D",
"s$	c #617710",
"t$	c #657044",
"u$	c #657046",
"v$	c #667046",
"w$	c #677146",
"x$	c #646E45",
"y$	c #5D5D52",
"z$	c #4A4A45",
"A$	c #5B5A59",
"B$	c #CFCECA",
"C$	c #DFDEDA",
"D$	c #DFDDDA",
"E$	c #D1CFCC",
"F$	c #81807F",
"G$	c #BFBFBC",
"H$	c #E1E0DC",
"I$	c #CFCDCB",
"J$	c #424240",
"K$	c #5D5C54",
"L$	c #81817B",
"M$	c #8B8B88",
"N$	c #4F504E",
"O$	c #55574E",
"P$	c #637916",
"Q$	c #61790A",
"R$	c #64771C",
"S$	c #57584E",
"T$	c #5A5A57",
"U$	c #B2B1AF",
"V$	c #D0CFCC",
"W$	c #AFAEAB",
"X$	c #676664",
"Y$	c #B6B6B3",
"Z$	c #E4E4DD",
"`$	c #D5D5D1",
" %	c #B9B8B5",
".%	c #686865",
"+%	c #50504C",
"@%	c #54554C",
"#%	c #42423E",
"$%	c #42423F",
"%%	c #54544C",
"&%	c #647911",
"*%	c #646F41",
"=%	c #6E6F69",
"-%	c #979693",
";%	c #CCCCCA",
">%	c #7D7E7C",
",%	c #464645",
"'%	c #484848",
")%	c #555555",
"!%	c #505050",
"~%	c #605F58",
"{%	c #646F42",
"]%	c #647819",
"^%	c #647042",
"/%	c #657142",
"(%	c #657B0C",
"_%	c #647B0C",
":%	c #617B0D",
"<%	c #5E760A",
"[%	c #627715",
"}%	c #676760",
"|%	c #747471",
"1%	c #8A8A89",
"2%	c #555655",
"3%	c #51514B",
"4%	c #52534B",
"5%	c #52524B",
"6%	c #52534C",
"7%	c #62694D",
"8%	c #637910",
"9%	c #647B0D",
"0%	c #667D0E",
"a%	c #5C760B",
"b%	c #597308",
"c%	c #65790E",
"d%	c #6A7B22",
"e%	c #6A7B2A",
"f%	c #686760",
"g%	c #5C5A58",
"h%	c #343433",
"i%	c #323232",
"j%	c #3D3D3C",
"k%	c #637B17",
"l%	c #5F7816",
"m%	c #5C7414",
"n%	c #5B7314",
"o%	c #5D7515",
"p%	c #607710",
"q%	c #577009",
"r%	c #5B730A",
"s%	c #5D750B",
"t%	c #667E0F",
"  . + @ # $ % & * = - ; > , ' ) ! ~ { ] ] , , ^ / ( _ : ) < [ } ",
"| 1 , 2 3 4 5 6 7 8 9 % ^ 0 a b c c 3 c 3 d e f g h i j { a ~ ~ ",
"3 k 0 3 l m n o p q r s t u ^ k v 3 $ w x y z A B C D $ & s % % ",
"^ c s E F G H I J K ^ ^ r ^ c L ^ s > M N O P H Q R # k S S T U ",
"V % g W X Y Z `  ...+.& u ^ & r @.0 # #.$.%.&.*.=.-.;.>.,.'.& k ",
").!.~.{.].^./.(._.:.s & S ^ <.L L , { [.}.|.&.` 1.2.3.4., $ 5.6.",
"7.!.8.9.0.a.b.c.d.e.f.g.h.i.j.# > k.l.m.n.o.p.q.r.s.t.u.,.U $ v.",
"! w.x.y.z.a.b.A.B.C.D.E.F.G.H.I.J.K.L.o M.N.b.q.O.P.Q.R.S.| ~ T.",
"U.V.W.X.Y.Z.b.A.`. +.+++@+@+@+@+@+@+#+$+%+Z.b.&+*+=+-+;+>+,+{ '+",
")+!+~+{+b.b.b.]+^+/+(+_+_+_+_+_+_+_+:+<+[+}+|+1+2+3+4+5+6+7+, { ",
"8+9+0+Z b.b.b.b.a+&+/./././././././././.b+/.c+d+e+f+g+h+i+j+k+, ",
"l+m+n+c.b.b.b.b.b.b.b.b.b.b.b.b.b.b.b.b.b.o+p+q+r+s+{+t+u+v+w+x+",
"y+z+a.b.b.b.b.b.b.b.b.b.b.b.b.b.b.b.b.b.b.b.A+B+C+D+E+F+G+H+I+J+",
"y+z+a+b.b.b.b.b.b.b.b.b.b.b.b.b.b.b.b.b.b.b.b.K+L+e+M+N+G+H+O+P+",
"y+z+a+b.Q+R+S+T+&+b.e+U+V+Z.b.b.b.b.b.b.W+X+Y+Z+b+b.M+N+G+H+`+ @",
"y+z+N.}+.@+@@@#@E+b+$@%@&@*@Z.2+=@b+b.b.-@;@>@,@E+2+'@N+G+H+)@!@",
"y+z+]+~@{@]@^@/@(@_@:@^+<@[@}@|@1@2@b.b.3@4@5@6@7@8@9@N+G+H+)@0@",
"a@b@/.c@d@e@f@g@E+h@i@j@k@l@m@n@o@p@b.b.q@r@s@t@u@v@9@N+G+H+w@x@",
"y@z@M+A@B@C@D@b+Z.E@F@G@s+H@I@J@K@L@b.b.Z.]+M@C@N@O@P@Q@G+R@S@i.",
"T@U@V@W@` X@/.b.b.Y@Z@`@ #.#+#@#.###b.b.b.b.$#%#^.&#F+*#=#-#;#i.",
">#,#'#)#|@|@!#~#~#<@{#]#^#/#(#_#:#<#[#}#}#[#~#|#|@1#2#3#4#5#w a ",
"6#7#8#9#0#a#b#c#c#r.d#e#h@d#f#g#B@B.h#O.O.c#c#i#j#k#l#R.m#k.0 r ",
"k k 7#n#o#p#q#r#s#s#s#s#s#t#u#B@B@B@v# #s#s#s#w#C.x#y#z#^ ^ ^ c ",
"> 5.A#B#C#D#E#F#F#G#H#I#F#J#K#L#B@B@M#N#O#P#Q#R#S#T#U#V#W#X#Y#Z#",
"`# $.$+$@$&.&.Y.Y.#$$$%$&$&$P@*$L#B@d#=$-$;$>$,$'$c.)$!$~${$]$^$",
"`#j /$+$($_$:$<$[$ #>$|@b.b.b.}$u#|$|$|$1$:#2$3$4$5$5$6$l+7$8$9$",
"0$a$b$c$y+C#d$e$f$g$h$i$2+2+2+j$k$l$m$m$n$:#2$H+o$Y+k@p$+$q$r$9$",
"1 , s$t$u$v$w$x$y$z$A$B$C$D$C$E$F$G$<#Z H$I$2$J$K$L$M$N$O$P$~ c ",
"Q$0 t c Y#^ & & R$S$T$U$1.V$|$W$X$Y$Z$)$`$ %.%+%x$@%#%$%%%k+c ^ ",
"Z#a | c ^ & +.r &%*%x$=%-%;%>%,%.+'%)%)%!%G#~%{%]%*%^%/%{%&%(%_%",
":%<%0$] 3 t & r r r [%}%|%1%2%g$3%4%4%5%5%6%7%8%$ w 9%9%i.9%0%0%",
":%a%b%a$5.k c ^ c%d%e%f%g%h%i%j%F.k%l%m%n%o%p%a q%r%s%`#r$[ t%t%"};
