/* XPM */
static char * player_right3_xpm[] = {
"32 32 609 2",
"  	c #60790C",
". 	c #5E770A",
"+ 	c #5C7409",
"@ 	c #5C7509",
"# 	c #5F7609",
"$ 	c #62780B",
"% 	c #63790C",
"& 	c #64790B",
"* 	c #6B7C27",
"= 	c #8A8A6F",
"- 	c #8A8B6F",
"; 	c #687B1E",
"> 	c #61770A",
", 	c #60770A",
"' 	c #60780B",
") 	c #627A0C",
"! 	c #637B0D",
"~ 	c #62790C",
"{ 	c #5F770A",
"] 	c #5E7609",
"^ 	c #63790B",
"/ 	c #5F760B",
"( 	c #546D0A",
"_ 	c #526D08",
": 	c #546F08",
"< 	c #617A0C",
"[ 	c #647C0D",
"} 	c #647C0E",
"| 	c #60780A",
"1 	c #5F7709",
"2 	c #5F7608",
"3 	c #61780A",
"4 	c #617809",
"5 	c #657532",
"6 	c #6F7852",
"7 	c #727A56",
"8 	c #687A20",
"9 	c #617709",
"0 	c #61780B",
"a 	c #61770B",
"b 	c #62790B",
"c 	c #627709",
"d 	c #647432",
"e 	c #6E7753",
"f 	c #66704F",
"g 	c #46620E",
"h 	c #536D07",
"i 	c #62780A",
"j 	c #5F7710",
"k 	c #67714B",
"l 	c #939292",
"m 	c #939291",
"n 	c #687249",
"o 	c #657433",
"p 	c #607608",
"q 	c #627810",
"r 	c #6A744D",
"s 	c #969596",
"t 	c #8F8F8E",
"u 	c #626D49",
"v 	c #637333",
"w 	c #64790C",
"x 	c #63780B",
"y 	c #637A0C",
"z 	c #5B693A",
"A 	c #5A5A55",
"B 	c #C2C1BE",
"C 	c #CBCAC6",
"D 	c #8B8A89",
"E 	c #75766D",
"F 	c #637716",
"G 	c #647A0D",
"H 	c #647B0C",
"I 	c #657245",
"J 	c #72726B",
"K 	c #CDCCC9",
"L 	c #898987",
"M 	c #727369",
"N 	c #647916",
"O 	c #647A0C",
"P 	c #657A0B",
"Q 	c #63790A",
"R 	c #657C0D",
"S 	c #637430",
"T 	c #616E40",
"U 	c #5C624A",
"V 	c #61605F",
"W 	c #E1E0DB",
"X 	c #F1F0EA",
"Y 	c #A1A0A1",
"Z 	c #7E7E79",
"` 	c #627716",
" .	c #63780A",
"..	c #65790C",
"+.	c #60770B",
"@.	c #637A0D",
"#.	c #667E0F",
"$.	c #677347",
"%.	c #777774",
"&.	c #F2F1EB",
"*.	c #E7E6E1",
"=.	c #AAA8A8",
"-.	c #81807D",
";.	c #68724D",
">.	c #587209",
",.	c #657B0D",
"'.	c #616D40",
").	c #454542",
"!.	c #8A8985",
"~.	c #C5C4C1",
"{.	c #A1A1A1",
"].	c #7E7F79",
"^.	c #647917",
"/.	c #62770B",
"(.	c #5D750A",
"_.	c #607A0D",
":.	c #647D0F",
"<.	c #677249",
"[.	c #787773",
"}.	c #F3F3EC",
"|.	c #FBFAF3",
"1.	c #F2F0EC",
"2.	c #B5B5B4",
"3.	c #8B8B8A",
"4.	c #67734A",
"5.	c #5F760A",
"6.	c #597109",
"7.	c #536D08",
"8.	c #637B0C",
"9.	c #606D40",
"0.	c #3D3D3B",
"a.	c #90908D",
"b.	c #D2D1CE",
"c.	c #F6F4EE",
"d.	c #F7F6EF",
"e.	c #CECECA",
"f.	c #A4A5A2",
"g.	c #7C8568",
"h.	c #67744A",
"i.	c #5C7410",
"j.	c #5F760C",
"k.	c #60722E",
"l.	c #576534",
"m.	c #82827C",
"n.	c #A4A39F",
"o.	c #F6F5EE",
"p.	c #FFFEF6",
"q.	c #FDFCF5",
"r.	c #BEBDBC",
"s.	c #919090",
"t.	c #69744B",
"u.	c #576F09",
"v.	c #657D0F",
"w.	c #657732",
"x.	c #62694F",
"y.	c #484846",
"z.	c #959491",
"A.	c #D4D3D0",
"B.	c #FDFCF6",
"C.	c #CBCAC9",
"D.	c #6F6F68",
"E.	c #616D44",
"F.	c #626E42",
"G.	c #636E43",
"H.	c #647043",
"I.	c #657043",
"J.	c #646F43",
"K.	c #5F654D",
"L.	c #3E3E3D",
"M.	c #9E9D9B",
"N.	c #D3D2CF",
"O.	c #FAF9F3",
"P.	c #C1C0BF",
"Q.	c #969594",
"R.	c #68734D",
"S.	c #637812",
"T.	c #607A0C",
"U.	c #647D0E",
"V.	c #657C16",
"W.	c #55574D",
"X.	c #585955",
"Y.	c #ACAAA9",
"Z.	c #D2D1CD",
"`.	c #F5F4ED",
" +	c #FCFBF4",
".+	c #FEFDF6",
"++	c #BBBAB8",
"@+	c #767675",
"#+	c #4F4F4D",
"$+	c #484845",
"%+	c #444442",
"&+	c #373737",
"*+	c #9F9E9D",
"=+	c #D3D3D1",
"-+	c #F0EFE9",
";+	c #D5D4CF",
">+	c #747370",
",+	c #656B52",
"'+	c #5D7510",
")+	c #627915",
"!+	c #4C4D46",
"~+	c #515150",
"{+	c #C3C1BF",
"]+	c #E5E4DF",
"^+	c #FEFDF5",
"/+	c #F0F0EA",
"(+	c #EFEFE8",
"_+	c #FDFDF5",
":+	c #C5C4BF",
"<+	c #8E8E8A",
"[+	c #81817E",
"}+	c #7F7F7B",
"|+	c #80807C",
"1+	c #B7B6B3",
"2+	c #DEDCD9",
"3+	c #FBFAF4",
"4+	c #E6E5E1",
"5+	c #787774",
"6+	c #68675F",
"7+	c #5F7616",
"8+	c #61790B",
"9+	c #617715",
"0+	c #636F43",
"a+	c #4F504A",
"b+	c #535452",
"c+	c #C4C2C0",
"d+	c #E4E4E0",
"e+	c #FAF9F2",
"f+	c #A7A6A1",
"g+	c #9A9A97",
"h+	c #FDFCF4",
"i+	c #FEFCF6",
"j+	c #7A7976",
"k+	c #696860",
"l+	c #61761D",
"m+	c #626D3E",
"n+	c #4E4D49",
"o+	c #878685",
"p+	c #B2B1B0",
"q+	c #D9D8D4",
"r+	c #B7B6B2",
"s+	c #CECDC8",
"t+	c #DFDED9",
"u+	c #FEFCF5",
"v+	c #D8D6D1",
"w+	c #9D9C98",
"x+	c #686860",
"y+	c #6C7D2D",
"z+	c #606C3D",
"A+	c #363635",
"B+	c #9B9A99",
"C+	c #D5D4D1",
"D+	c #F9F8F1",
"E+	c #D8D7D2",
"F+	c #949290",
"G+	c #E7E6E0",
"H+	c #FFFDF7",
"I+	c #B6B5B0",
"J+	c #696764",
"K+	c #898B6D",
"L+	c #646D42",
"M+	c #D6D4D1",
"N+	c #F9F8F2",
"O+	c #F4F2ED",
"P+	c #FCFAF3",
"Q+	c #677B1B",
"R+	c #5F6B3C",
"S+	c #DBDAD5",
"T+	c #CBCAC5",
"U+	c #C5C5BE",
"V+	c #ECEAE4",
"W+	c #DDDCD6",
"X+	c #D5D5CE",
"Y+	c #D3D3CF",
"Z+	c #CAC9C5",
"`+	c #C7C6BF",
" @	c #F0F0E8",
".@	c #5F6A3C",
"+@	c #F9F7F1",
"@@	c #A1A09C",
"#@	c #60605C",
"$@	c #3D3E3C",
"%@	c #D3D1CC",
"&@	c #FAF9F1",
"*@	c #FBFBF3",
"=@	c #AEAEA9",
"-@	c #969792",
";@	c #F0F0E9",
">@	c #898886",
",@	c #5B5B58",
"'@	c #474745",
")@	c #DCDBD5",
"!@	c #616C3C",
"~@	c #F9F7F2",
"{@	c #F1F0EC",
"]@	c #D7D8D4",
"^@	c #80807F",
"/@	c #3C3C3C",
"(@	c #3A3A39",
"_@	c #D2D1CC",
":@	c #D3D2CD",
"<@	c #8E8D8A",
"[@	c #ECEBE5",
"}@	c #F5F4F0",
"|@	c #DBDCD8",
"1@	c #E5E4E0",
"2@	c #9F9E9B",
"3@	c #D6D4CF",
"4@	c #F8F7EF",
"5@	c #70706E",
"6@	c #3C3C3B",
"7@	c #3F403F",
"8@	c #BEBFBB",
"9@	c #E3E3DE",
"0@	c #616E3D",
"a@	c #EDECE8",
"b@	c #CECDCD",
"c@	c #939392",
"d@	c #7C7C79",
"e@	c #949391",
"f@	c #DFDED8",
"g@	c #C5C4BE",
"h@	c #52514F",
"i@	c #E8E6E0",
"j@	c #EFECE9",
"k@	c #BDBBB9",
"l@	c #ECEBE6",
"m@	c #EDEBE8",
"n@	c #83817F",
"o@	c #CAC8C6",
"p@	c #A4A4A0",
"q@	c #8B8B89",
"r@	c #7B7C7A",
"s@	c #BEBFBC",
"t@	c #DCDCD8",
"u@	c #B3B3AD",
"v@	c #5E5E59",
"w@	c #373736",
"x@	c #D5D3D0",
"y@	c #F8F7F1",
"z@	c #EEECE7",
"A@	c #D1D1D0",
"B@	c #D0CFCD",
"C@	c #DAD9D4",
"D@	c #C6C6BF",
"E@	c #555453",
"F@	c #E6E5DF",
"G@	c #DEDCD8",
"H@	c #525150",
"I@	c #ECEAE7",
"J@	c #848280",
"K@	c #CBC8C6",
"L@	c #F0EEE9",
"M@	c #D1CFCD",
"N@	c #DDDCD8",
"O@	c #AAAAA5",
"P@	c #363735",
"Q@	c #5C5D51",
"R@	c #6F6F6C",
"S@	c #8C8C89",
"T@	c #E8E7E2",
"U@	c #F2F0ED",
"V@	c #F4F3EE",
"W@	c #E0DFD9",
"X@	c #B3B2B0",
"Y@	c #A2A19F",
"Z@	c #A3A3A0",
"`@	c #A3A2A0",
" #	c #A19F9D",
".#	c #B7B6B4",
"+#	c #E1DFDB",
"@#	c #F2F1EC",
"##	c #E2E1DD",
"$#	c #A2A19E",
"%#	c #787874",
"&#	c #5C5C52",
"*#	c #61771C",
"=#	c #52544B",
"-#	c #555654",
";#	c #B5B4B2",
">#	c #D4D2CF",
",#	c #F3F3ED",
"'#	c #F5F6EF",
")#	c #F5F6EE",
"!#	c #F5F5F0",
"~#	c #E6E6E1",
"{#	c #CECCCA",
"]#	c #8A8989",
"^#	c #8E8E8C",
"/#	c #CECECC",
"(#	c #929190",
"_#	c #817F7E",
":#	c #CAC9C6",
"<#	c #F3F2ED",
"[#	c #D4D3CF",
"}#	c #585857",
"|#	c #57584F",
"1#	c #61771D",
"2#	c #617710",
"3#	c #636F41",
"4#	c #61674F",
"5#	c #585855",
"6#	c #5D5C5C",
"7#	c #6D6C6B",
"8#	c #BFBEBB",
"9#	c #D4D4D0",
"0#	c #D4D4D1",
"a#	c #CBC9C7",
"b#	c #CBC9C8",
"c#	c #D0CECC",
"d#	c #C9C7C5",
"e#	c #B7B8B6",
"f#	c #686766",
"g#	c #656463",
"h#	c #646461",
"i#	c #626850",
"j#	c #637811",
"k#	c #677E0F",
"l#	c #626F40",
"m#	c #555551",
"n#	c #787875",
"o#	c #9B9A98",
"p#	c #9B9998",
"q#	c #CBCAC7",
"r#	c #C5C3C2",
"s#	c #9C9B99",
"t#	c #9A9998",
"u#	c #878887",
"v#	c #545351",
"w#	c #51524E",
"x#	c #575753",
"y#	c #647041",
"z#	c #647B18",
"A#	c #65743A",
"B#	c #757570",
"C#	c #A5A4A0",
"D#	c #D0CECB",
"E#	c #7C7B79",
"F#	c #393A39",
"G#	c #4A4A49",
"H#	c #4A4B4A",
"I#	c #6A6A6A",
"J#	c #C7C5C3",
"K#	c #D3D1CF",
"L#	c #C0BEBC",
"M#	c #5B5B59",
"N#	c #555553",
"O#	c #51514F",
"P#	c #393938",
"Q#	c #484847",
"R#	c #636360",
"S#	c #777673",
"T#	c #6C6B68",
"U#	c #66685F",
"V#	c #65791A",
"W#	c #637A0B",
"X#	c #5B7409",
"Y#	c #496405",
"Z#	c #607716",
"`#	c #67685E",
" $	c #7B7B78",
".$	c #E4E3DF",
"+$	c #F6F5EF",
"@$	c #91908E",
"#$	c #666664",
"$$	c #C4C3C0",
"%$	c #C6C5C3",
"&$	c #C8C6C5",
"*$	c #F3F1EC",
"=$	c #F1F0E9",
"-$	c #E0DFDA",
";$	c #646362",
">$	c #B8B7B5",
",$	c #9F9F9C",
"'$	c #67675F",
")$	c #667D18",
"!$	c #637D0E",
"~$	c #5F790B",
"{$	c #506A14",
"]$	c #676760",
"^$	c #7E7D79",
"/$	c #EFEEE8",
"($	c #D4D2CD",
"_$	c #7D7C7B",
":$	c #6B6B69",
"<$	c #C7C5C4",
"[$	c #C2C0BE",
"}$	c #F4F3EC",
"|$	c #D6D4D0",
"1$	c #DCDAD5",
"2$	c #DCDAD6",
"3$	c #DAD9D3",
"4$	c #939390",
"5$	c #686760",
"6$	c #677E19",
"7$	c #5F780C",
"8$	c #5C7508",
"9$	c #5B7308",
"0$	c #526A14",
"a$	c #66665F",
"b$	c #7D7C79",
"c$	c #464644",
"d$	c #B4B3B3",
"e$	c #A09F9F",
"f$	c #9E9D9E",
"g$	c #A2A1A2",
"h$	c #EDEDE7",
"i$	c #EBEAE4",
"j$	c #656462",
"k$	c #383938",
"l$	c #434240",
"m$	c #676863",
"n$	c #6B6B68",
"o$	c #657C18",
"p$	c #627B0D",
"q$	c #617614",
"r$	c #55564E",
"s$	c #4F504E",
"t$	c #8B8B88",
"u$	c #81817B",
"v$	c #5D5C54",
"w$	c #424240",
"x$	c #CFCDCB",
"y$	c #E1E0DC",
"z$	c #BFBFBC",
"A$	c #81807F",
"B$	c #D1CFCC",
"C$	c #DFDEDA",
"D$	c #DFDDDA",
"E$	c #CFCECA",
"F$	c #5B5A59",
"G$	c #4A4A45",
"H$	c #5D5E52",
"I$	c #646F45",
"J$	c #656F46",
"K$	c #646F46",
"L$	c #647044",
"M$	c #647A12",
"N$	c #61790A",
"O$	c #627814",
"P$	c #54544C",
"Q$	c #42423F",
"R$	c #42423E",
"S$	c #54554C",
"T$	c #656E45",
"U$	c #50504C",
"V$	c #686865",
"W$	c #B9B8B5",
"X$	c #D5D5D1",
"Y$	c #E4E4DD",
"Z$	c #B6B6B3",
"`$	c #676664",
" %	c #AFAEAB",
".%	c #D0CFCC",
"+%	c #B2B1AF",
"@%	c #5A5A57",
"#%	c #57584E",
"$%	c #65781D",
"%%	c #62790A",
"&%	c #62770A",
"*%	c #607710",
"=%	c #626E41",
"-%	c #657041",
";%	c #637719",
">%	c #656F42",
",%	c #605F58",
"'%	c #505050",
")%	c #555555",
"!%	c #484848",
"~%	c #464645",
"{%	c #7D7E7C",
"]%	c #CCCCCA",
"^%	c #979693",
"/%	c #6E6F69",
"(%	c #646F41",
"_%	c #647911",
":%	c #647A0A",
"<%	c #657B0C",
"[%	c #617B0D",
"}%	c #5E760A",
"|%	c #637810",
"1%	c #636A4D",
"2%	c #53534C",
"3%	c #52534B",
"4%	c #51514B",
"5%	c #555655",
"6%	c #8A8A89",
"7%	c #747471",
"8%	c #62780C",
"9%	c #647B0D",
"0%	c #5F780B",
"a%	c #667D0E",
"b%	c #5C760B",
"c%	c #597308",
"d%	c #65790E",
"e%	c #6A7B25",
"f%	c #697B2A",
"g%	c #5F7615",
"h%	c #5E7515",
"i%	c #607916",
"j%	c #637043",
"k%	c #3D3D3C",
"l%	c #323232",
"m%	c #343433",
"n%	c #5C5A58",
"o%	c #5E7516",
"p%	c #577009",
"q%	c #5B730A",
"r%	c #5D750B",
"  . + @ # $ % & * = - ; > , ' ) ! ~ { ] ] , , ^ / ( _ : ) < [ } ",
"| 1 , 2 3 4 % 5 6 7 8 % ^ 9 0 a b b 3 b 3 c 3 d e f g h { 0 ~ ~ ",
"3 i 9 4 b ! j k l m n o b c ^ i p 3 $ $ ^ ^ q r s t u v w x % % ",
"^ b x x ' y z A B C D E F ^ b w ^ x > 0 G H I J K B L M N O P Q ",
"R % i & S T U V W X Y Z ` ^ &  ...9 # +.@.#.$.%.&.*.=.-.;.5 & i ",
">.,.& & '.).!.~.&.X {.].^.^ /.w w , { (._.:.<.[.}.|.1.2.3.4.5.6.",
"7.,.R 8.9.0.a.b.c.d.e.f.g.h.i.# > b $ j.k.l.m.n.o.p.q.r.s.t.$ u.",
"! v.#.w.x.y.z.A.c.p.B.C.s D.E.F.G.H.I.J.K.L.M.N.O.p.q.P.Q.R.S.+.",
"T.U.V.W.X.Y.Z.`. +p..+++@+#+$+$+$+$+$+$+%+&+*+=+O.p..+-+;+>+,+'+",
"' ~ )+!+~+{+]+^+/+(+_+:+<+[+}+}+}+}+}+}+}+|+1+2+3+p.p.p.4+5+6+7+",
"8+9+0+a+b+c+d+e+f+g+|.h+|.|.|.|.|.|.|.|.|.|. +i+p.p.p.p.*.j+k+l+",
"i m+n+o+p+4+q+r+s+t+u+p.p.p.p.p.p.p.p.p.p.p.p.p.p.p.p.p.o.v+w+x+",
"y+z+A+B+C+D+E+F+G+H+p.p.p.p.p.p.p.p.p.p.p.p.p.p.p.p.p.p.p.q.I+J+",
"K+L+A+B+M+N+e+O+P+p.p.p.p.p.p.p.p.p.p.p.p.p.p.p.p.p.p.p.p.i+I+J+",
"Q+R+A+B+M+N+p.h+S+T+U+V+p.p.p.p.p.p..+W+X+e+p. +Y+Z+`+ @p.i+I+J+",
"& .@A+B+M++@^+D+@@#@$@%@p.p.h+&@^+.+*@=@-@;@h+D+>@,@'@)@_+B.I+J+",
"^ !@A+B+M+~@{@]@^@/@(@_@p.p.:@<@[@}@|@1@2+2@3@4@5@6@7@8@9@3+I+J+",
",.0@A+B+M+~@a@b@c@d@e@f@p.p.g@h@i@j@k@l@m@n@o@D+p@q@r@s@t@|.u@v@",
"[ 0@w@B+x@y@z@A@B@C@3+.+p.p.D@E@F@G@H@q+I@J@K@.+h+L@B@M@N@N+O@P@",
"< S Q@R@S@C+T@1.U@V@p.p.p.p.W@X@Y@Z@X@`@ #.#+#p.p.|.@#&.##$#%#&#",
", ~ *#=#-#;#>#[@,#'#)#!#!#)#~#{#]#^#/#(#_#:#1@'#'#<#[@[@[#}#|#1#",
"> , 2#3#4#5#6#7#8#9#9#A.A.0#N.M@a#b#c#o@d#c#b.9#9#e#f#g#h#i#3#j#",
"i i , k#l#m#n#M.o#p#p#p#`@q#M@M@M@r#s#p#p#p#p#p#t#u#v#w#x#y#^ b ",
"> 5.+.z#A#B#C#D#E#F#G#H#I#J#M@M@K#L#M#N#O#P#Q#N#N#R#S#T#U#V#W#8+",
"X#Y#Z#`# $.$o.+$@$#$$$%$&$c#M@K#*$y@=$=$-$;$>$-+-+X X ,$'$)$!$~$",
"X#h {$]$^$/$/$($_$:${#<$[$[$[$r#}$p.p.p.[@#$`@|$1$2$3$4$5$6$U.7$",
"8$9$0$a$b$l@T+c$A+:${#d$e$e$f$g$h$^+^+^+i$j$k$l$m$n$T#J+x+o$p$7$",
"1 , q$r$s$t$u$v$w$:$x$y$*.~#z$A$B$C$D$C$E$F$G$H$I$J$J$K$L$M$~ b ",
"N$9 O$P$Q$R$S$T$U$V$W$X$.$Y$Z$`$ %[$.%~.+%@%#%$%$ %%&%, ^ x b ^ ",
"8+0 *%3#=%3#-%;%>%,%Q#'%)%)%!%&+~%{%]%^%/%I$(%_%& i y H  .:%<%H ",
"[%}%8$] 3 %%&  .|%1%2%3%3%3%3%4%k$5%6%7%]$7+3 Q $ 8%9%9%0%9%a%a%",
"[%b%c%9$5.i b ^ d%e%f%` g%h%i%j%k%l%m%n%5$o%{ 0 p%q%r%X#p$[ #.#."};
