/* XPM */
static char * player_left1_xpm[] = {
"32 32 602 2",
"  	c #60790C",
". 	c #5E770A",
"+ 	c #5C7409",
"@ 	c #5C7509",
"# 	c #5F7609",
"$ 	c #62780B",
"% 	c #63790C",
"& 	c #64790B",
"* 	c #6B7C27",
"= 	c #8A8A6F",
"- 	c #8A8B6F",
"; 	c #687B1E",
"> 	c #61770A",
", 	c #60770A",
"' 	c #60780B",
") 	c #627A0C",
"! 	c #637B0D",
"~ 	c #62790C",
"{ 	c #5F770A",
"] 	c #5E7609",
"^ 	c #63790B",
"/ 	c #5F760B",
"( 	c #546D0A",
"_ 	c #526D08",
": 	c #546F08",
"< 	c #617A0C",
"[ 	c #647C0D",
"} 	c #647C0E",
"| 	c #60780A",
"1 	c #5F7709",
"2 	c #5F7608",
"3 	c #61780A",
"4 	c #617812",
"5 	c #6D7750",
"6 	c #6F7853",
"7 	c #667533",
"8 	c #677A1F",
"9 	c #677A1C",
"0 	c #617709",
"a 	c #61780B",
"b 	c #61770B",
"c 	c #62790B",
"d 	c #627712",
"e 	c #6C7751",
"f 	c #6D7752",
"g 	c #647432",
"h 	c #586F09",
"i 	c #456204",
"j 	c #536D07",
"k 	c #62780A",
"l 	c #647533",
"m 	c #677249",
"n 	c #8F8F8E",
"o 	c #969596",
"p 	c #6A744D",
"q 	c #657912",
"r 	c #63780A",
"s 	c #63780B",
"t 	c #62790A",
"u 	c #627709",
"v 	c #607608",
"w 	c #62780C",
"x 	c #647433",
"y 	c #687249",
"z 	c #939291",
"A 	c #939292",
"B 	c #68734B",
"C 	c #617610",
"D 	c #5C7309",
"E 	c #637815",
"F 	c #727369",
"G 	c #898987",
"H 	c #C2C1BE",
"I 	c #CDCBC9",
"J 	c #73736C",
"K 	c #667245",
"L 	c #64790C",
"M 	c #627716",
"N 	c #75766D",
"O 	c #8B8A89",
"P 	c #CBCAC6",
"Q 	c #5A5A55",
"R 	c #5C693A",
"S 	c #647A0C",
"T 	c #657A0B",
"U 	c #63790A",
"V 	c #657C0D",
"W 	c #69734D",
"X 	c #81807D",
"Y 	c #AAA8A8",
"Z 	c #E7E6E1",
"` 	c #F2F0EC",
" .	c #777773",
"..	c #667147",
"+.	c #657A0C",
"@.	c #65790C",
"#.	c #617717",
"$.	c #7E7E79",
"%.	c #A1A0A1",
"&.	c #F1F0EA",
"*.	c #E1E0DB",
"=.	c #61605F",
"-.	c #5A614A",
";.	c #5E6B40",
">.	c #5F7130",
",.	c #607709",
"'.	c #647A0B",
").	c #587209",
"!.	c #657B0D",
"~.	c #68734A",
"{.	c #8B8B8A",
"].	c #B5B5B4",
"^.	c #FBFAF3",
"/.	c #F2F1EC",
"(.	c #787774",
"_.	c #667048",
":.	c #62770B",
"<.	c #5E7516",
"[.	c #7E7F79",
"}.	c #A1A1A1",
"|.	c #F2F1EB",
"1.	c #C5C4C1",
"2.	c #8A8985",
"3.	c #454542",
"4.	c #5F6B40",
"5.	c #5F760A",
"6.	c #597109",
"7.	c #536D08",
"8.	c #69754B",
"9.	c #919090",
"0.	c #BEBDBC",
"a.	c #FDFCF5",
"b.	c #FFFEF6",
"c.	c #F6F5EE",
"d.	c #A3A39F",
"e.	c #82827B",
"f.	c #576434",
"g.	c #63762F",
"h.	c #657E0F",
"i.	c #5F780B",
"j.	c #5B740A",
"k.	c #627811",
"l.	c #68744A",
"m.	c #7A8268",
"n.	c #A4A5A2",
"o.	c #CECECA",
"p.	c #F7F6EF",
"q.	c #F6F4EE",
"r.	c #D2D1CE",
"s.	c #90908D",
"t.	c #3D3D3B",
"u.	c #5F6C3F",
"v.	c #576F09",
"w.	c #667D14",
"x.	c #6A764D",
"y.	c #969594",
"z.	c #C1C0BF",
"A.	c #FAF9F3",
"B.	c #D2D1D0",
"C.	c #9D9D9D",
"D.	c #3E3E3D",
"E.	c #60674E",
"F.	c #657143",
"G.	c #626E43",
"H.	c #606D42",
"I.	c #626E42",
"J.	c #636E43",
"K.	c #646F44",
"L.	c #6F6F68",
"M.	c #CCCAC9",
"N.	c #FDFCF6",
"O.	c #D4D3D0",
"P.	c #959491",
"Q.	c #484846",
"R.	c #61674F",
"S.	c #627331",
"T.	c #60770B",
"U.	c #607912",
"V.	c #676E53",
"W.	c #757470",
"X.	c #D5D4CF",
"Y.	c #F0EFE9",
"Z.	c #FEFDF6",
"`.	c #D4D3D1",
" +	c #9F9E9C",
".+	c #373737",
"++	c #444442",
"@+	c #484845",
"#+	c #4F4F4D",
"$+	c #777775",
"%+	c #BBBAB8",
"&+	c #FCFBF4",
"*+	c #F5F4ED",
"=+	c #D2D1CD",
"-+	c #ACAAA9",
";+	c #585955",
">+	c #55574D",
",+	c #617714",
"'+	c #5D7509",
")+	c #607716",
"!+	c #68675F",
"~+	c #E6E5E1",
"{+	c #FBFAF4",
"]+	c #DEDCD9",
"^+	c #B7B6B3",
"/+	c #80807C",
"(+	c #7F7F7B",
"_+	c #81817E",
":+	c #8E8E8A",
"<+	c #C5C4BF",
"[+	c #FDFDF5",
"}+	c #EFEFE8",
"|+	c #F0F0EA",
"1+	c #FEFDF5",
"2+	c #E5E4DF",
"3+	c #C3C1BF",
"4+	c #515150",
"5+	c #4C4D46",
"6+	c #607613",
"7+	c #62771E",
"8+	c #696860",
"9+	c #7A7976",
"0+	c #FEFCF6",
"a+	c #FDFCF4",
"b+	c #9A9A97",
"c+	c #A7A6A1",
"d+	c #FAF9F2",
"e+	c #E4E4E0",
"f+	c #C4C2C0",
"g+	c #535453",
"h+	c #4F504A",
"i+	c #647043",
"j+	c #627814",
"k+	c #686860",
"l+	c #9D9C98",
"m+	c #D8D6D1",
"n+	c #FEFCF5",
"o+	c #DFDED9",
"p+	c #CECCC9",
"q+	c #B7B7B2",
"r+	c #D9D8D4",
"s+	c #B3B2AF",
"t+	c #878685",
"u+	c #4E4D49",
"v+	c #626F3E",
"w+	c #63770A",
"x+	c #696864",
"y+	c #B6B5B0",
"z+	c #FFFDF7",
"A+	c #E7E6E0",
"B+	c #949390",
"C+	c #D8D7D2",
"D+	c #F9F7F2",
"E+	c #D6D5D2",
"F+	c #9B9A9A",
"G+	c #363635",
"H+	c #616C3E",
"I+	c #6C7C29",
"J+	c #696764",
"K+	c #FCFBF3",
"L+	c #F4F3EC",
"M+	c #D5D4D3",
"N+	c #676E46",
"O+	c #898A6D",
"P+	c #B6B6B0",
"Q+	c #FFFEF7",
"R+	c #F0F0E8",
"S+	c #C7C6BF",
"T+	c #CAC9C3",
"U+	c #D3D3CF",
"V+	c #D5D5CE",
"W+	c #DCDCD6",
"X+	c #ECEAE4",
"Y+	c #C5C5BE",
"Z+	c #DBDAD6",
"`+	c #9B9B99",
" @	c #5F6B3D",
".@	c #687A1E",
"+@	c #474845",
"@@	c #5B5B58",
"#@	c #898886",
"$@	c #F9F8F1",
"%@	c #F1F0E9",
"&@	c #979692",
"*@	c #AEADA9",
"=@	c #FBFBF3",
"-@	c #FAF9F1",
";@	c #D3D1CC",
">@	c #3D3E3C",
",@	c #60605D",
"'@	c #A1A19C",
")@	c #5F6A3C",
"!@	c #64780B",
"~@	c #E3E3DF",
"{@	c #BFC0BC",
"]@	c #40403F",
"^@	c #3C3C3B",
"/@	c #70706E",
"(@	c #F8F7EF",
"_@	c #D7D6D0",
":@	c #A3A29F",
"<@	c #E5E4E0",
"[@	c #DBDCD8",
"}@	c #F5F4F0",
"|@	c #ECEBE5",
"1@	c #8E8D8A",
"2@	c #D3D2CD",
"3@	c #D2D1CC",
"4@	c #3A3A39",
"5@	c #3C3C3C",
"6@	c #80807F",
"7@	c #D7D8D4",
"8@	c #F1F0EC",
"9@	c #65790D",
"0@	c #5E5E59",
"a@	c #B3B3AE",
"b@	c #DCDCD8",
"c@	c #BEBDBD",
"d@	c #7C7C7A",
"e@	c #8C8B89",
"f@	c #A4A4A0",
"g@	c #CAC8C5",
"h@	c #83817F",
"i@	c #EDEBE8",
"j@	c #ECEBE6",
"k@	c #BDBBB9",
"l@	c #EFECE9",
"m@	c #E8E6E0",
"n@	c #52514F",
"o@	c #C5C4BE",
"p@	c #DFDED8",
"q@	c #949391",
"r@	c #949492",
"s@	c #CFCDCB",
"t@	c #EEECE8",
"u@	c #D6D4D2",
"v@	c #9B9A99",
"w@	c #5F6B3C",
"x@	c #637A0D",
"y@	c #363735",
"z@	c #AAA9A6",
"A@	c #F9F8F2",
"B@	c #DDDBD8",
"C@	c #D1CFCD",
"D@	c #D1CFCC",
"E@	c #F0EEE9",
"F@	c #848280",
"G@	c #ECEAE7",
"H@	c #525250",
"I@	c #DEDCD8",
"J@	c #E6E5DF",
"K@	c #555453",
"L@	c #C6C6BF",
"M@	c #DAD9D4",
"N@	c #D0D0CC",
"O@	c #EEECE7",
"P@	c #F8F6F2",
"Q@	c #D5D3D1",
"R@	c #9A9A99",
"S@	c #373736",
"T@	c #5E6B3C",
"U@	c #5B5C52",
"V@	c #787873",
"W@	c #A2A19E",
"X@	c #E2E1DD",
"Y@	c #FBF9F3",
"Z@	c #E1DFDB",
"`@	c #B7B6B4",
" #	c #A19F9D",
".#	c #A3A2A0",
"+#	c #B4B2B0",
"@#	c #A09F9D",
"##	c #A1A19F",
"$#	c #B3B2B0",
"%#	c #E0DFD9",
"&#	c #F5F4EE",
"*#	c #F2F0ED",
"=#	c #E8E7E2",
"-#	c #D5D4D1",
";#	c #8C8C89",
">#	c #6F6F6C",
",#	c #5C5C51",
"'#	c #60712F",
")#	c #60761C",
"!#	c #57584F",
"~#	c #585857",
"{#	c #D4D2D0",
"]#	c #F5F3ED",
"^#	c #F8F7F1",
"/#	c #F6F6F0",
"(#	c #CAC8C7",
"_#	c #817F7E",
":#	c #939190",
"<#	c #8E8D8C",
"[#	c #8A8989",
"}#	c #CECCCA",
"|#	c #E6E6E1",
"1#	c #F5F6EE",
"2#	c #F5F5F0",
"3#	c #F3F2EE",
"4#	c #ECEAE6",
"5#	c #D4D2CF",
"6#	c #B5B4B1",
"7#	c #555653",
"8#	c #52544B",
"9#	c #62761C",
"0#	c #617711",
"a#	c #626E41",
"b#	c #636850",
"c#	c #646361",
"d#	c #656462",
"e#	c #686765",
"f#	c #B9B8B7",
"g#	c #D0CECC",
"h#	c #C9C7C5",
"i#	c #CAC8C6",
"j#	c #CBC9C7",
"k#	c #D0CFCD",
"l#	c #D3D2CF",
"m#	c #D4D4D1",
"n#	c #D3D3D0",
"o#	c #BFBEBB",
"p#	c #6C6B6A",
"q#	c #5C5C5B",
"r#	c #585755",
"s#	c #647041",
"t#	c #57584E",
"u#	c #525249",
"v#	c #53544C",
"w#	c #888886",
"x#	c #9B9998",
"y#	c #9C9B99",
"z#	c #C5C3C2",
"A#	c #CCCAC8",
"B#	c #B8B7B6",
"C#	c #B0B0AD",
"D#	c #A4A2A0",
"E#	c #8C8B8A",
"F#	c #56564F",
"G#	c #55564C",
"H#	c #636F40",
"I#	c #607711",
"J#	c #637A17",
"K#	c #607614",
"L#	c #62771B",
"M#	c #4F514A",
"N#	c #393938",
"O#	c #383837",
"P#	c #363636",
"Q#	c #51514F",
"R#	c #555553",
"S#	c #5B5B59",
"T#	c #BFBEBC",
"U#	c #C9C8C6",
"V#	c #9D9C9D",
"W#	c #A09F9F",
"X#	c #A5A4A4",
"Y#	c #979694",
"Z#	c #474746",
"`#	c #484946",
" $	c #657044",
".$	c #657916",
"+$	c #647811",
"@$	c #667B0D",
"#$	c #637A0B",
"$$	c #61790B",
"%$	c #5B7409",
"&$	c #496405",
"*$	c #5F770C",
"=$	c #536C07",
"-$	c #627911",
";$	c #626F40",
">$	c #626F3F",
",$	c #606D40",
"'$	c #4F4E48",
")$	c #626160",
"!$	c #E0DFDA",
"~$	c #E6E5E0",
"{$	c #7D7B78",
"]$	c #C7C7C0",
"^$	c #EFEDE9",
"/$	c #797977",
"($	c #657043",
"_$	c #637A0C",
":$	c #667C0E",
"<$	c #667D0E",
"[$	c #667E0E",
"}$	c #637D0E",
"|$	c #5F790B",
"1$	c #4E6A08",
"2$	c #4A6505",
"3$	c #5E760B",
"4$	c #5F7610",
"5$	c #647144",
"6$	c #677345",
"7$	c #657146",
"8$	c #52524B",
"9$	c #656463",
"0$	c #EAE9E3",
"a$	c #777572",
"b$	c #B3B2AD",
"c$	c #DBD9D5",
"d$	c #D8D5D2",
"e$	c #D6D6D0",
"f$	c #D4D2CE",
"g$	c #6D6D6B",
"h$	c #60780C",
"i$	c #627A0D",
"j$	c #677E0F",
"k$	c #647D0E",
"l$	c #5F780C",
"m$	c #5C7508",
"n$	c #5B7308",
"o$	c #516B07",
"p$	c #627816",
"q$	c #67665F",
"r$	c #676662",
"s$	c #6B6A67",
"t$	c #595A56",
"u$	c #6A6968",
"v$	c #EBEAE4",
"w$	c #E9E8E2",
"x$	c #6E6D6A",
"y$	c #6C6C69",
"z$	c #51514E",
"A$	c #474745",
"B$	c #646F43",
"C$	c #5F770B",
"D$	c #61790C",
"E$	c #657D0E",
"F$	c #627B0D",
"G$	c #54564E",
"H$	c #5E5F5B",
"I$	c #B6B6B5",
"J$	c #B9B8B8",
"K$	c #D9D7D4",
"L$	c #DFDDDA",
"M$	c #DEDDDA",
"N$	c #D8D7D4",
"O$	c #BDBCBB",
"P$	c #BAB9B7",
"Q$	c #BAB9B6",
"R$	c #B7B5B3",
"S$	c #B4B3B1",
"T$	c #5F5F5D",
"U$	c #647A0D",
"V$	c #61790A",
"W$	c #4C4E47",
"X$	c #545452",
"Y$	c #B6B5B5",
"Z$	c #C7C5C3",
"`$	c #8D8C8A",
" %	c #5F5F57",
".%	c #616D3E",
"+%	c #62770A",
"@%	c #647814",
"#%	c #353635",
"$%	c #464645",
"%%	c #474846",
"&%	c #4E4F4D",
"*%	c #6F6E6B",
"=%	c #A2A19F",
"-%	c #B2B1B0",
";%	c #444444",
">%	c #54612E",
",%	c #647B0C",
"'%	c #647A0A",
")%	c #657B0C",
"!%	c #617B0D",
"~%	c #5E760A",
"{%	c #5B5D51",
"]%	c #52534B",
"^%	c #55564E",
"/%	c #66665D",
"(%	c #7C7C77",
"_%	c #969593",
":%	c #8E8D8D",
"<%	c #7A7A79",
"[%	c #383838",
"}%	c #53612D",
"|%	c #647B0D",
"1%	c #5C760B",
"2%	c #597308",
"3%	c #627815",
"4%	c #657817",
"5%	c #6A7A27",
"6%	c #697B2A",
"7%	c #5F7615",
"8%	c #5E7515",
"9%	c #607916",
"0%	c #647C17",
"a%	c #667D18",
"b%	c #637B17",
"c%	c #5F7816",
"d%	c #5C7415",
"e%	c #626D48",
"f%	c #676663",
"g%	c #414140",
"h%	c #323232",
"i%	c #54622D",
"j%	c #5D750B",
"k%	c #667E0F",
"  . + @ # $ % & * = - ; > , ' ) ! ~ { ] ] , , ^ / ( _ : ) < [ } ",
"| 1 , 2 3 4 5 6 7 8 9 % ^ 0 a b c c 3 c 3 d e f g h i j { a ~ ~ ",
"3 k 0 3 l m n o p q r s t u ^ k v 3 $ w x y z A B C D $ & s % % ",
"^ c s E F G H I J K ^ ^ r ^ c L ^ s > M N O P H Q R # k S S T U ",
"V % g W X Y Z `  ...+.& u ^ & r @.0 # #.$.%.&.*.=.-.;.>.,.'.& k ",
").!.~.{.].` ^./.(._.s & S ^ :.L L , { <.[.}.&.|.1.2.3.4., $ 5.6.",
"7.!.8.9.0.a.b.c.d.e.f.g.h.i.j.# > k.l.m.n.o.p.q.r.s.t.u.,.U $ v.",
"! w.x.y.z.a.b.A.B.C.D.E.F.G.H.I.J.K.L.o M.N.b.q.O.P.Q.R.S.| ~ T.",
"U.V.W.X.Y.Z.b.A.`. +.+++@+@+@+@+@+@+#+$+%+Z.b.&+*+=+-+;+>+,+{ '+",
")+!+(.~+b.b.b.{+]+^+/+(+(+(+(+(+(+(+_+:+<+[+}+|+1+2+3+4+5+6+, { ",
"7+8+9+Z b.b.b.b.0+&+^.^.^.^.^.^.^.^.^.^.a+^.b+c+d+e+f+g+h+i+j+, ",
"k+l+m+c.b.b.b.b.b.b.b.b.b.b.b.b.b.b.b.b.b.n+o+p+q+r+~+s+t+u+v+w+",
"x+y+a.b.b.b.b.b.b.b.b.b.b.b.b.b.b.b.b.b.b.b.z+A+B+C+D+E+F+G+H+I+",
"J+y+n+b.b.b.b.b.b.b.b.b.b.b.b.b.b.b.b.b.b.b.b.K+L+d+D+M+F+G+N+O+",
"J+P+n+Q+R+S+T+U+&+b.d+V+W+Z.b.b.b.b.b.b.X+Y+P Z+a+b.D+E+`+G+ @.@",
"J+y+N.N.W++@@@#@$@a+%@&@*@=@Z.1+-@a+b.b.;@>@,@'@$@1+D+E+`+G+)@!@",
"J+y+{+~@{@]@^@/@(@_@:@]+<@[@}@|@1@2@b.b.3@4@5@6@7@8@D+E+`+G+)@9@",
"0@a@^.b@c@d@e@f@$@g@h@i@j@k@l@m@n@o@b.b.p@q@d@r@s@t@D+u@v@G+w@x@",
"y@z@A@B@C@D@E@a+Z.g@F@G@r+H@I@J@K@L@b.b.Z.{+M@N@r.O@P@Q@R@S@T@i.",
"U@V@W@X@/./.Y@b.b.Z@`@ #.#+#@###$#%#b.b.b.b.&#*#` =#-#;#>#,#'#i.",
")#!#~#{#j@|@]#^#/#A+(#_#:#s@<#[#}#|#1#2#2#2#1#3#4#5#6#7#8#9#w a ",
"0#a#b#c#d#e#f#-#`.5#g#h#i#g#j#j#k#l#m#`.`.n#n#o#p#q#r#R.s#k.0 r ",
"k k a#t#u#v#w#x#x#x#x#x#x#y#z#A#f#B#B#B#C#D#y#E#F#u#G#H#^ ^ ^ c ",
"> 5.I#J#K#L#M#N#O#P#N#Q#R#S#T#U#V#W#X#X#Y#(.Z#`# $E .$+$@$+.#$$$",
"%$&$*$=$' -$;$>$,$'$)$!$%@%@^#~${$]$c.q.L+^$/$@+($~ _$:$<$[$}$|$",
"%$j 1$2$3$4$5$6$7$8$9$|@b.b.b.0$a$b$c$d$e$f$g$+@i+~ h$i$h.j$k$l$",
"m$n$o$=$, p$q$r$s$t$u$v$1+1+1+w$(.x$y$z$Q.A$P#A$B$' C$D$! E$F$l$",
"1 , > 3 #$E G$H$I$J$%+K$L$L$M$N$O$P$Q$`@R$S$T$A$K.0#> ' a U$~ c ",
"V$0 t c #$j+W$X$Y$P$P$Q$Q$Q$Q$Q$P$Q$%+T#Z$s@`$/@ %.%+%, ^ s c ^ ",
"$$a | c ^ @%W$#%$%%%%%%%%%%%%%%%%%%%&%*%=%s@A#-%;%>%_$,%r '%)%,%",
"!%~%m$] 3 j+{%]%]%]%]%]%]%]%]%]%]%]%^%/%(%_%:%<%[%}%|%|%i.|%<$<$",
"!%1%2%n$5.$ 3%E 4%5%6%M 7%8%9%0%a%b%c%d%e%f%g%h%h%i%j%%$F$[ k%k%"};
