/* XPM */
static char * player_right_ex1_xpm[] = {
"32 32 665 2",
"  	c #60790C",
". 	c #5E770A",
"+ 	c #5C7409",
"@ 	c #5C7509",
"# 	c #5F7609",
"$ 	c #62780B",
"% 	c #63790C",
"& 	c #64790B",
"* 	c #6B7C27",
"= 	c #8A8A6F",
"- 	c #8A8B6F",
"; 	c #687B1E",
"> 	c #60770B",
", 	c #5B6F17",
"' 	c #666331",
") 	c #76603C",
"! 	c #77603C",
"~ 	c #656531",
"{ 	c #5B7017",
"] 	c #5E760B",
"^ 	c #5E7609",
"/ 	c #60770A",
"( 	c #63790B",
"_ 	c #5F760B",
": 	c #546D0A",
"< 	c #526D08",
"[ 	c #546F08",
"} 	c #627A0C",
"| 	c #617A0C",
"1 	c #647C0D",
"2 	c #647C0E",
"3 	c #60780A",
"4 	c #5F7709",
"5 	c #5F7608",
"6 	c #61780A",
"7 	c #617809",
"8 	c #657532",
"9 	c #6F7852",
"0 	c #727A56",
"a 	c #677A21",
"b 	c #5E7117",
"c 	c #646432",
"d 	c #81614C",
"e 	c #8D604A",
"f 	c #BB7C55",
"g 	c #BA7C56",
"h 	c #89614D",
"i 	c #81614A",
"j 	c #636434",
"k 	c #5B6F15",
"l 	c #61770A",
"m 	c #647432",
"n 	c #6E7753",
"o 	c #66704F",
"p 	c #46620E",
"q 	c #536D07",
"r 	c #5F770A",
"s 	c #61780B",
"t 	c #62790C",
"u 	c #62780A",
"v 	c #617709",
"w 	c #62790B",
"x 	c #637B0D",
"y 	c #5F7710",
"z 	c #67714B",
"A 	c #939292",
"B 	c #939291",
"C 	c #636B4B",
"D 	c #796451",
"E 	c #A16F5A",
"F 	c #A8735B",
"G 	c #90604A",
"H 	c #BD7D55",
"I 	c #BD7D56",
"J 	c #8B614E",
"K 	c #9C6C58",
"L 	c #624E3B",
"M 	c #676530",
"N 	c #5E7119",
"O 	c #6A744D",
"P 	c #969596",
"Q 	c #8F8F8E",
"R 	c #626D49",
"S 	c #637333",
"T 	c #64790C",
"U 	c #63780B",
"V 	c #60780B",
"W 	c #637A0C",
"X 	c #5B693A",
"Y 	c #5A5A55",
"Z 	c #C2C1BE",
"` 	c #CBCAC6",
" .	c #8B8A89",
"..	c #7A756F",
"+.	c #AA755C",
"@.	c #A9745A",
"#.	c #A9735B",
"$.	c #A9725B",
"%.	c #A0684D",
"&.	c #B17653",
"*.	c #896C57",
"=.	c #73736C",
"-.	c #CDCBC9",
";.	c #898987",
">.	c #727369",
",.	c #647916",
"'.	c #647A0C",
").	c #657A0B",
"!.	c #63790A",
"~.	c #657C0D",
"{.	c #637430",
"].	c #616E40",
"^.	c #5C624A",
"/.	c #61605F",
"(.	c #E1E0DB",
"_.	c #F1F0EA",
":.	c #A1A0A1",
"<.	c #827E7A",
"[.	c #A9745C",
"}.	c #8F5F49",
"|.	c #8A604E",
"1.	c #9D6C57",
"2.	c #A7725A",
"3.	c #9A735C",
"4.	c #777773",
"5.	c #F2F0EC",
"6.	c #E7E6E1",
"7.	c #AAA8A8",
"8.	c #81807D",
"9.	c #68724D",
"0.	c #587209",
"a.	c #657B0D",
"b.	c #5F7216",
"c.	c #5B6343",
"d.	c #454542",
"e.	c #8A8985",
"f.	c #C5C4C1",
"g.	c #F2F1EB",
"h.	c #A1A1A1",
"i.	c #807E7A",
"j.	c #8A6152",
"k.	c #8D6355",
"l.	c #8F604A",
"m.	c #8A604D",
"n.	c #956451",
"o.	c #8A5E51",
"p.	c #94634B",
"q.	c #BC7D55",
"r.	c #99725C",
"s.	c #787774",
"t.	c #F2F1EC",
"u.	c #FBFAF3",
"v.	c #B5B5B4",
"w.	c #8B8B8A",
"x.	c #67734A",
"y.	c #5F760A",
"z.	c #597109",
"A.	c #536D08",
"B.	c #5F7415",
"C.	c #696630",
"D.	c #8D6848",
"E.	c #735B4E",
"F.	c #3D3D3B",
"G.	c #90908D",
"H.	c #D2D1CE",
"I.	c #F6F4EE",
"J.	c #F7F6EF",
"K.	c #CECECA",
"L.	c #A5A4A3",
"M.	c #947E77",
"N.	c #8F7060",
"O.	c #8E614A",
"P.	c #996451",
"Q.	c #9E6A57",
"R.	c #896254",
"S.	c #7F5C4C",
"T.	c #85827C",
"U.	c #A3A39F",
"V.	c #F6F5EE",
"W.	c #FFFEF6",
"X.	c #FDFCF5",
"Y.	c #BEBDBC",
"Z.	c #919090",
"`.	c #646A4E",
" +	c #5D7215",
".+	c #576F09",
"++	c #5B6B21",
"@+	c #A4704E",
"#+	c #A97758",
"$+	c #726056",
"%+	c #484846",
"&+	c #959491",
"*+	c #D4D3D0",
"=+	c #FDFCF6",
"-+	c #CCCAC9",
";+	c #6F6E68",
">+	c #7B6254",
",+	c #997259",
"'+	c #7A6355",
")+	c #876859",
"!+	c #8B6A5A",
"~+	c #786559",
"{+	c #3E3E3D",
"]+	c #9D9D9D",
"^+	c #D2D1D0",
"/+	c #FAF9F3",
"(+	c #C1C0BF",
"_+	c #969594",
":+	c #7E695A",
"<+	c #596824",
"[+	c #607A0C",
"}+	c #5A6A21",
"|+	c #A06D4D",
"1+	c #5D564F",
"2+	c #585955",
"3+	c #ACAAA9",
"4+	c #D2D1CD",
"5+	c #F5F4ED",
"6+	c #FCFBF4",
"7+	c #FEFDF6",
"8+	c #BBBAB8",
"9+	c #777775",
"0+	c #4F4F4D",
"a+	c #484845",
"b+	c #444442",
"c+	c #373737",
"d+	c #9F9E9C",
"e+	c #D4D3D1",
"f+	c #F0EFE9",
"g+	c #D5D4CF",
"h+	c #767470",
"i+	c #656B53",
"j+	c #5D7510",
"k+	c #596821",
"l+	c #A87351",
"m+	c #544E48",
"n+	c #515150",
"o+	c #C3C1BF",
"p+	c #E5E4DF",
"q+	c #FEFDF5",
"r+	c #F0F0EA",
"s+	c #EFEFE8",
"t+	c #FDFDF5",
"u+	c #C5C4BF",
"v+	c #8E8E8A",
"w+	c #81817E",
"x+	c #7F7F7B",
"y+	c #80807C",
"z+	c #B7B6B3",
"A+	c #DEDCD9",
"B+	c #FBFAF4",
"C+	c #E6E5E1",
"D+	c #68675F",
"E+	c #5F7616",
"F+	c #61790B",
"G+	c #576623",
"H+	c #7F6554",
"I+	c #514F4B",
"J+	c #535453",
"K+	c #C4C2C0",
"L+	c #E4E4E0",
"M+	c #FAF9F2",
"N+	c #A7A6A1",
"O+	c #9A9A97",
"P+	c #FDFCF4",
"Q+	c #FEFCF6",
"R+	c #7A7976",
"S+	c #696860",
"T+	c #61761D",
"U+	c #616D3E",
"V+	c #4E4D49",
"W+	c #878685",
"X+	c #B3B2AF",
"Y+	c #D9D8D4",
"Z+	c #B7B7B2",
"`+	c #CECCC9",
" @	c #DFDED9",
".@	c #FEFCF5",
"+@	c #D8D6D1",
"@@	c #9D9C98",
"#@	c #68685F",
"$@	c #6C7D2D",
"%@	c #606C3D",
"&@	c #363635",
"*@	c #9B9A9A",
"=@	c #D6D5D2",
"-@	c #F9F7F2",
";@	c #D8D7D2",
">@	c #949390",
",@	c #E7E6E0",
"'@	c #FFFDF7",
")@	c #B6B5B0",
"!@	c #696863",
"~@	c #898B6D",
"{@	c #646D42",
"]@	c #D5D4D3",
"^@	c #F4F3EC",
"/@	c #FCFBF3",
"(@	c #6B6965",
"_@	c #677B1B",
":@	c #5F6B3C",
"<@	c #9B9B99",
"[@	c #DBDAD6",
"}@	c #C5C5BE",
"|@	c #ECEAE4",
"1@	c #DCDCD6",
"2@	c #D5D5CE",
"3@	c #D3D3CF",
"4@	c #CAC9C3",
"5@	c #C7C6BF",
"6@	c #F0F0E8",
"7@	c #FFFEF7",
"8@	c #B6B6B0",
"9@	c #5F6A3C",
"0@	c #F9F8F1",
"a@	c #A1A19C",
"b@	c #60605D",
"c@	c #3D3E3C",
"d@	c #D3D1CC",
"e@	c #FAF9F1",
"f@	c #FBFBF3",
"g@	c #AEADA9",
"h@	c #979692",
"i@	c #F1F0E9",
"j@	c #898886",
"k@	c #5B5B58",
"l@	c #474845",
"m@	c #616C3C",
"n@	c #F1F0EC",
"o@	c #D7D8D4",
"p@	c #80807F",
"q@	c #3C3C3C",
"r@	c #3A3A39",
"s@	c #D2D1CC",
"t@	c #D3D2CD",
"u@	c #8E8D8A",
"v@	c #ECEBE5",
"w@	c #F5F4F0",
"x@	c #DBDCD8",
"y@	c #E5E4E0",
"z@	c #A3A29F",
"A@	c #D7D6D0",
"B@	c #F8F7EF",
"C@	c #70706E",
"D@	c #3C3C3B",
"E@	c #40403F",
"F@	c #BFC0BC",
"G@	c #E3E3DF",
"H@	c #616E3D",
"I@	c #9B9A99",
"J@	c #D6D4D2",
"K@	c #EEECE8",
"L@	c #CFCDCB",
"M@	c #949492",
"N@	c #7C7C7A",
"O@	c #949391",
"P@	c #DFDED8",
"Q@	c #C5C4BE",
"R@	c #52514F",
"S@	c #E8E6E0",
"T@	c #EFECE9",
"U@	c #BDBBB9",
"V@	c #ECEBE6",
"W@	c #EDEBE8",
"X@	c #83817F",
"Y@	c #CAC8C5",
"Z@	c #A4A4A0",
"`@	c #8C8B89",
" #	c #BEBDBD",
".#	c #DCDCD8",
"+#	c #B3B3AE",
"@#	c #5E5F58",
"##	c #373736",
"$#	c #9A9A99",
"%#	c #D5D3D1",
"&#	c #F8F6F2",
"*#	c #EEECE7",
"=#	c #D0D0CC",
"-#	c #DAD9D4",
";#	c #C6C6BF",
">#	c #555453",
",#	c #E6E5DF",
"'#	c #DEDCD8",
")#	c #525250",
"!#	c #ECEAE7",
"~#	c #848280",
"{#	c #F0EEE9",
"]#	c #D1CFCC",
"^#	c #D1CFCD",
"/#	c #DDDBD8",
"(#	c #F9F8F2",
"_#	c #AAA9A6",
":#	c #383B35",
"<#	c #5D6C33",
"[#	c #5D5A52",
"}#	c #6F6F6C",
"|#	c #8C8C89",
"1#	c #D5D4D1",
"2#	c #E8E7E2",
"3#	c #F2F0ED",
"4#	c #F5F4EE",
"5#	c #E0DFD9",
"6#	c #B3B2B0",
"7#	c #A1A19F",
"8#	c #A09F9D",
"9#	c #B4B2B0",
"0#	c #A3A2A0",
"a#	c #A19F9D",
"b#	c #B7B6B4",
"c#	c #E1DFDB",
"d#	c #FBF9F3",
"e#	c #E2E1DD",
"f#	c #A2A19E",
"g#	c #787873",
"h#	c #5B5D51",
"i#	c #566620",
"j#	c #6D4C43",
"k#	c #53514C",
"l#	c #555653",
"m#	c #B5B4B1",
"n#	c #D4D2CF",
"o#	c #ECEAE6",
"p#	c #F3F2EE",
"q#	c #F5F6EE",
"r#	c #F5F5F0",
"s#	c #E6E6E1",
"t#	c #CECCCA",
"u#	c #8A8989",
"v#	c #8E8D8C",
"w#	c #939190",
"x#	c #817F7E",
"y#	c #CAC8C7",
"z#	c #F6F6F0",
"A#	c #F8F7F1",
"B#	c #F5F3ED",
"C#	c #D4D2D0",
"D#	c #585857",
"E#	c #57584F",
"F#	c #61771C",
"G#	c #5B6F14",
"H#	c #46522B",
"I#	c #544C4C",
"J#	c #5B5754",
"K#	c #585755",
"L#	c #5C5C5B",
"M#	c #6C6B6A",
"N#	c #BFBEBB",
"O#	c #D3D3D0",
"P#	c #D4D4D1",
"Q#	c #D3D2CF",
"R#	c #D0CFCD",
"S#	c #CBC9C7",
"T#	c #D0CECC",
"U#	c #CAC8C6",
"V#	c #C9C7C5",
"W#	c #B9B8B7",
"X#	c #686765",
"Y#	c #656462",
"Z#	c #646361",
"`#	c #626850",
" $	c #636F41",
".$	c #637811",
"+$	c #506220",
"@$	c #412A3C",
"#$	c #554B4D",
"$$	c #54524D",
"%$	c #514F4A",
"&$	c #575450",
"*$	c #8C8B8A",
"=$	c #9C9B99",
"-$	c #A4A2A0",
";$	c #B0B0AD",
">$	c #B8B7B6",
",$	c #CCCAC8",
"'$	c #C5C3C2",
")$	c #9B9998",
"!$	c #888886",
"~$	c #54514C",
"{$	c #534F4A",
"]$	c #56544F",
"^$	c #646F42",
"/$	c #472C3C",
"($	c #5C363E",
"_$	c #56373C",
":$	c #5A373E",
"<$	c #6C564F",
"[$	c #484946",
"}$	c #474746",
"|$	c #979694",
"1$	c #A5A4A4",
"2$	c #A09F9F",
"3$	c #9D9C9D",
"4$	c #C9C8C6",
"5$	c #BFBEBC",
"6$	c #5B5B59",
"7$	c #555553",
"8$	c #51514F",
"9$	c #393938",
"0$	c #363636",
"a$	c #383837",
"b$	c #4E4E4B",
"c$	c #64403D",
"d$	c #79473F",
"e$	c #59393E",
"f$	c #556521",
"g$	c #637A0B",
"h$	c #5B7409",
"i$	c #496405",
"j$	c #536421",
"k$	c #6A3F3D",
"l$	c #7B463F",
"m$	c #623B3B",
"n$	c #56323B",
"o$	c #69544E",
"p$	c #797977",
"q$	c #EFEDE9",
"r$	c #C7C7C0",
"s$	c #7D7B78",
"t$	c #E6E5E0",
"u$	c #E0DFDA",
"v$	c #626160",
"w$	c #4D4C49",
"x$	c #564D4B",
"y$	c #6E584F",
"z$	c #604F4D",
"A$	c #643E3B",
"B$	c #7C473E",
"C$	c #72443D",
"D$	c #586921",
"E$	c #637D0E",
"F$	c #5F790B",
"G$	c #445721",
"H$	c #72443B",
"I$	c #5A343C",
"J$	c #6D564F",
"K$	c #6D6D6B",
"L$	c #D4D2CE",
"M$	c #D6D6D0",
"N$	c #D8D5D2",
"O$	c #DBD9D5",
"P$	c #B3B2AD",
"Q$	c #777572",
"R$	c #EAE9E3",
"S$	c #656463",
"T$	c #51504C",
"U$	c #5C5450",
"V$	c #735E53",
"W$	c #635350",
"X$	c #643E3C",
"Y$	c #74443D",
"Z$	c #647D0E",
"`$	c #5F780C",
" %	c #5C7508",
".%	c #5B7308",
"+%	c #495B21",
"@%	c #72433C",
"#%	c #57333C",
"$%	c #6A554F",
"%%	c #474745",
"&%	c #51514E",
"*%	c #6C6C69",
"=%	c #6E6D6A",
"-%	c #E9E8E2",
";%	c #EBEAE4",
">%	c #6A6968",
",%	c #595A56",
"'%	c #6B6A67",
")%	c #676662",
"!%	c #656460",
"~%	c #643F3D",
"{%	c #74443C",
"]%	c #566721",
"^%	c #627B0D",
"/%	c #536322",
"(%	c #73443C",
"_%	c #59353D",
":%	c #5F5F5D",
"<%	c #B4B3B1",
"[%	c #B7B5B3",
"}%	c #BAB9B6",
"|%	c #BAB9B7",
"1%	c #BDBCBB",
"2%	c #D8D7D4",
"3%	c #DEDDDA",
"4%	c #DFDDDA",
"5%	c #D9D7D4",
"6%	c #B9B8B8",
"7%	c #B6B6B5",
"8%	c #5E5F5B",
"9%	c #52534F",
"0%	c #61790A",
"a%	c #546521",
"b%	c #52484A",
"c%	c #5F5E57",
"d%	c #8D8C8A",
"e%	c #C7C5C3",
"f%	c #B6B5B5",
"g%	c #545452",
"h%	c #4B4B48",
"i%	c #633E3C",
"j%	c #556420",
"k%	c #56681D",
"l%	c #664339",
"m%	c #6E423C",
"n%	c #5B4237",
"o%	c #434438",
"p%	c #444444",
"q%	c #B2B1B0",
"r%	c #A2A19F",
"s%	c #6F6E6B",
"t%	c #4E4F4D",
"u%	c #474846",
"v%	c #464645",
"w%	c #353635",
"x%	c #5C4438",
"y%	c #6D423B",
"z%	c #67433A",
"A%	c #596A1C",
"B%	c #657B0C",
"C%	c #647B0C",
"D%	c #617B0D",
"E%	c #5E760A",
"F%	c #5B740A",
"G%	c #54681C",
"H%	c #55671F",
"I%	c #5B6E18",
"J%	c #55612D",
"K%	c #383838",
"L%	c #7A7A79",
"M%	c #8E8D8D",
"N%	c #969593",
"O%	c #7D7C77",
"P%	c #66665D",
"Q%	c #55564E",
"R%	c #52534B",
"S%	c #52524B",
"T%	c #5A5C51",
"U%	c #5C701F",
"V%	c #586920",
"W%	c #55691B",
"X%	c #637A0E",
"Y%	c #667D0E",
"Z%	c #5C760B",
"`%	c #597308",
" &	c #54622C",
".&	c #353731",
"+&	c #353732",
"@&	c #434440",
"#&	c #686761",
"$&	c #656F47",
"%&	c #5E7615",
"&&	c #607916",
"*&	c #647C17",
"=&	c #667D18",
"-&	c #637B17",
";&	c #5F7816",
">&	c #5C7414",
",&	c #5B7314",
"'&	c #5D7515",
")&	c #5F7615",
"!&	c #617715",
"~&	c #576F14",
"{&	c #5B7214",
"]&	c #5D750B",
"^&	c #667E0F",
"  . + @ # $ % & * = - ; > , ' ) ! ~ { ] ^ / / ( _ : < [ } | 1 2 ",
"3 4 / 5 6 7 % 8 9 0 a b c d e f g h i j k l 6 m n o p q r s t t ",
"6 u v 7 w x y z A B C D E F G H I J F K L M N O P Q R S T U % % ",
"( w U U V W X Y Z `  ...+.@.G H I J #.$.%.&.*.=.-.Z ;.>.,.'.).!.",
"~.% u & {.].^./.(._.:.<.[.K }.I I |.1.2.%.H 3.4.5.6.7.8.9.8 & u ",
"0.a.% b.c.d.e.f.g._.h.i.j.k.l.I I m.n.o.p.q.r.s.t.u.5.v.w.x.y.z.",
"A.B.C.D.E.F.G.H.I.J.K.L.M.N.O.I I m.P.Q.R.S.T.U.V.W.X.Y.Z.`. +.+",
"x ++@+#+$+%+&+*+I.W.=+-+P ;+>+,+,+'+)+!+~+{+]+^+/+W.X.(+_+:+<+> ",
"[+}+|+1+2+3+4+5+6+W.7+8+9+0+a+a+a+a+a+a+b+c+d+e+/+W.7+f+g+h+i+j+",
"V k+l+m+n+o+p+q+r+s+t+u+v+w+x+x+x+x+x+x+x+y+z+A+B+W.W.W.C+s.D+E+",
"F+G+H+I+J+K+L+M+N+O+u.P+u.u.u.u.u.u.u.u.u.u.6+Q+W.W.W.W.6.R+S+T+",
"u U+V+W+X+C+Y+Z+`+ @.@W.W.W.W.W.W.W.W.W.W.W.W.W.W.W.W.W.V.+@@@#@",
"$@%@&@*@=@-@;@>@,@'@W.W.W.W.W.W.W.W.W.W.W.W.W.W.W.W.W.W.W.X.)@!@",
"~@{@&@*@]@-@M+^@/@W.W.W.W.W.W.W.W.W.W.W.W.W.W.W.W.W.W.W.W..@)@(@",
"_@:@&@<@=@-@W.P+[@` }@|@W.W.W.W.W.W.7+1@2@M+W.6+3@4@5@6@7@.@8@!@",
"& 9@&@<@=@-@q+0@a@b@c@d@W.W.P+e@q+7+f@g@h@i@P+0@j@k@l@1@=+=+)@!@",
"( m@&@<@=@-@n@o@p@q@r@s@W.W.t@u@v@w@x@y@A+z@A@B@C@D@E@F@G@B+)@!@",
"a.H@&@I@J@-@K@L@M@N@O@P@W.W.Q@R@S@T@U@V@W@X@Y@0@Z@`@N@ #.#u.+#@#",
"1 H@##$#%#&#*#H.=#-#B+7+W.W.;#>#,#'#)#Y+!#~#Y@7+P+{#]#^#/#(#_#:#",
"| <#[#}#|#1#2#5.3#4#W.W.W.W.5#6#7#8#9#0#a#b#c#W.W.d#t.t.e#f#g#h#",
"/ i#j#k#l#m#n#o#p#q#r#r#r#q#s#t#u#v#L@w#x#y#,@z#A#B#v@V@C#D#E#F#",
"l G#H#I#J#K#L#M#N#O#O#e+e+P#Q#R#S#S#T#U#V#T#n#e+1#W#X#Y#Z#`# $.$",
"u u +$@$#$$$%$&$*$=$-$;$>$>$>$W#,$'$=$)$)$)$)$)$)$!$~${$]$^$( w ",
"l y.+$/$($_$:$<$[$}$s.|$1$1$2$3$4$5$6$7$8$9$0$a$9$b$c$d$e$f$g$F+",
"h$i$j$k$l$m$n$o$a+p$q$^@I.V.r$s$t$A#i@i@u$v$w$x$y$z$A$B$C$D$E$F$",
"h$q G$H$B$m$I$J$l@K$L$M$N$O$P$Q$R$W.W.W.v@S$T$U$V$W$X$B$Y$D$Z$`$",
" %.%+%@%B$m$#%$%%%0$%%%+&%*%=%s.-%q+q+q+;%>%,%'%)%!%~%B${%]%^%`$",
"4 / /%(%B$m$_%<$%%:%<%[%b#}%|%1%2%3%4%4%5%8+6%7%8%9%X$B${%i#t w ",
"0%v a%(%B$m$b%c%C@d%L@e%5$8+}%|%}%}%}%}%}%|%|%f%g%h%i%B$(%j%w ( ",
"F+s k%l%m%n%o%p%q%,$L@r%s%t%u%u%u%u%u%u%u%u%u%v%w%h%x%y%z%A%B%C%",
"D%E%F%G%H%I%J%K%L%M%N%O%P%Q%R%R%R%R%R%S%S%R%R%R%R%T%U%V%W%X%Y%Y%",
"D%Z%`%.%y.u  &.&+&@&#&$&E+%&&&*&=&-&;&>&,&'&)&!&~&{&]&h$^%1 ^&^&"};
