/* XPM */
static char * player_left_ex1_xpm[] = {
"32 32 680 2",
"  	c #60790C",
". 	c #5E770A",
"+ 	c #5C7409",
"@ 	c #5C7509",
"# 	c #5F7609",
"$ 	c #62780B",
"% 	c #63790C",
"& 	c #64790B",
"* 	c #6B7C27",
"= 	c #8A8A6F",
"- 	c #8A8B6F",
"; 	c #687B1E",
"> 	c #60770B",
", 	c #5B6F17",
"' 	c #666331",
") 	c #76603C",
"! 	c #77603C",
"~ 	c #656531",
"{ 	c #5B7017",
"] 	c #5E760B",
"^ 	c #5E7609",
"/ 	c #60770A",
"( 	c #63790B",
"_ 	c #5F760B",
": 	c #546D0A",
"< 	c #526D08",
"[ 	c #546F08",
"} 	c #627A0C",
"| 	c #617A0C",
"1 	c #647C0D",
"2 	c #647C0E",
"3 	c #60780A",
"4 	c #5F7709",
"5 	c #5F7608",
"6 	c #61780A",
"7 	c #617812",
"8 	c #6D7750",
"9 	c #6F7853",
"0 	c #667533",
"a 	c #677A1F",
"b 	c #677A1C",
"c 	c #5E7117",
"d 	c #646432",
"e 	c #81614C",
"f 	c #8D604A",
"g 	c #BB7C55",
"h 	c #BA7C56",
"i 	c #89614D",
"j 	c #81614A",
"k 	c #636434",
"l 	c #5B6F15",
"m 	c #627713",
"n 	c #6C7751",
"o 	c #6D7752",
"p 	c #647432",
"q 	c #586F09",
"r 	c #456204",
"s 	c #536D07",
"t 	c #5F770A",
"u 	c #61780B",
"v 	c #62790C",
"w 	c #62780A",
"x 	c #617709",
"y 	c #647533",
"z 	c #677249",
"A 	c #8F8F8E",
"B 	c #969596",
"C 	c #6A744D",
"D 	c #60721B",
"E 	c #646331",
"F 	c #83634D",
"G 	c #A16F5A",
"H 	c #A8735B",
"I 	c #90604A",
"J 	c #BD7D55",
"K 	c #BD7D56",
"L 	c #8B614E",
"M 	c #9C6D58",
"N 	c #4F4F42",
"O 	c #636B4B",
"P 	c #939291",
"Q 	c #939292",
"R 	c #68734B",
"S 	c #617610",
"T 	c #5C7309",
"U 	c #63780B",
"V 	c #62790B",
"W 	c #637815",
"X 	c #727369",
"Y 	c #898987",
"Z 	c #C2C1BE",
"` 	c #CDCBC9",
" .	c #73736C",
"..	c #7F695B",
"+.	c #A06D59",
"@.	c #AB755C",
"#.	c #AC755C",
"$.	c #A9745A",
"%.	c #A9735B",
"&.	c #A8735C",
"*.	c #78746F",
"=.	c #8B8A89",
"-.	c #CBCAC6",
";.	c #5A5A55",
">.	c #5C693A",
",.	c #647A0C",
"'.	c #657A0B",
").	c #63790A",
"!.	c #657C0D",
"~.	c #69734D",
"{.	c #81807D",
"].	c #AAA8A8",
"^.	c #E7E6E1",
"/.	c #F2F0EC",
"(.	c #777773",
"_.	c #88695C",
":.	c #9A6451",
"<.	c #AA735B",
"[.	c #AB745C",
"}.	c #9C6C58",
"|.	c #8F5F49",
"1.	c #8A604E",
"2.	c #9D6C57",
"3.	c #A7735C",
"4.	c #817E7A",
"5.	c #A1A0A1",
"6.	c #F1F0EA",
"7.	c #E1E0DB",
"8.	c #61605F",
"9.	c #5A614A",
"0.	c #5E6B40",
"a.	c #5F7130",
"b.	c #607709",
"c.	c #647A0B",
"d.	c #587209",
"e.	c #657B0D",
"f.	c #68734A",
"g.	c #8B8B8A",
"h.	c #B5B5B4",
"i.	c #FBFAF3",
"j.	c #F2F1EC",
"k.	c #787774",
"l.	c #8A6B5D",
"m.	c #AA735C",
"n.	c #9E6D59",
"o.	c #8B6151",
"p.	c #8D6355",
"q.	c #8F604A",
"r.	c #8A604D",
"s.	c #956451",
"t.	c #8B5F52",
"u.	c #807E7A",
"v.	c #A1A1A1",
"w.	c #F2F1EB",
"x.	c #C5C4C1",
"y.	c #8A8985",
"z.	c #454542",
"A.	c #5B6344",
"B.	c #5C7016",
"C.	c #62780C",
"D.	c #5F760A",
"E.	c #597109",
"F.	c #536D08",
"G.	c #5F7415",
"H.	c #646B4E",
"I.	c #919090",
"J.	c #BEBDBC",
"K.	c #FDFCF5",
"L.	c #FFFEF6",
"M.	c #F6F5EE",
"N.	c #A3A39F",
"O.	c #85827D",
"P.	c #75594E",
"Q.	c #614A4A",
"R.	c #A06E5A",
"S.	c #A9735A",
"T.	c #8F614A",
"U.	c #89604D",
"V.	c #886A5D",
"W.	c #957E77",
"X.	c #A5A4A2",
"Y.	c #CECECA",
"Z.	c #F7F6EF",
"`.	c #F6F4EE",
" +	c #D2D1CE",
".+	c #90908D",
"++	c #3D3D3B",
"@+	c #8B6A55",
"#+	c #916848",
"$+	c #666431",
"%+	c #5D7215",
"&+	c #576F09",
"*+	c #637B0D",
"=+	c #5B6B23",
"-+	c #7E6A5A",
";+	c #969594",
">+	c #C1C0BF",
",+	c #FAF9F3",
"'+	c #D2D1D0",
")+	c #9D9D9D",
"!+	c #3E3E3D",
"~+	c #605853",
"{+	c #8C6B5C",
"]+	c #8C6C5C",
"^+	c #7D6354",
"/+	c #997259",
"(+	c #786355",
"_+	c #6F6E68",
":+	c #CCCAC9",
"<+	c #FDFCF6",
"[+	c #D4D3D0",
"}+	c #959491",
"|+	c #484846",
"1+	c #816959",
"2+	c #AA7757",
"3+	c #A46F4F",
"4+	c #596721",
"5+	c #607912",
"6+	c #676D53",
"7+	c #767470",
"8+	c #D5D4CF",
"9+	c #F0EFE9",
"0+	c #FEFDF6",
"a+	c #D4D3D1",
"b+	c #9F9E9C",
"c+	c #373737",
"d+	c #444442",
"e+	c #484845",
"f+	c #4F4F4D",
"g+	c #777775",
"h+	c #BBBAB8",
"i+	c #FCFBF4",
"j+	c #F5F4ED",
"k+	c #D2D1CD",
"l+	c #ACAAA9",
"m+	c #585955",
"n+	c #5F5750",
"o+	c #AA724F",
"p+	c #566521",
"q+	c #5D7509",
"r+	c #607716",
"s+	c #68675F",
"t+	c #E6E5E1",
"u+	c #FBFAF4",
"v+	c #DEDCD9",
"w+	c #B7B6B3",
"x+	c #80807C",
"y+	c #7F7F7B",
"z+	c #81817E",
"A+	c #8E8E8A",
"B+	c #C5C4BF",
"C+	c #FDFDF5",
"D+	c #EFEFE8",
"E+	c #F0F0EA",
"F+	c #FEFDF5",
"G+	c #E5E4DF",
"H+	c #C3C1BF",
"I+	c #515150",
"J+	c #544E48",
"K+	c #A77250",
"L+	c #576622",
"M+	c #62771D",
"N+	c #696860",
"O+	c #7A7976",
"P+	c #FEFCF6",
"Q+	c #FDFCF4",
"R+	c #9A9A97",
"S+	c #A7A6A1",
"T+	c #FAF9F2",
"U+	c #E4E4E0",
"V+	c #C4C2C0",
"W+	c #535453",
"X+	c #514F4B",
"Y+	c #7C6455",
"Z+	c #586825",
"`+	c #68695F",
" @	c #9D9C98",
".@	c #D8D6D1",
"+@	c #FEFCF5",
"@@	c #DFDED9",
"#@	c #CECCC9",
"$@	c #B7B7B2",
"%@	c #D9D8D4",
"&@	c #B3B2AF",
"*@	c #878685",
"=@	c #4E4D49",
"-@	c #626E3E",
";@	c #63770A",
">@	c #696863",
",@	c #B6B5B0",
"'@	c #FFFDF7",
")@	c #E7E6E0",
"!@	c #949390",
"~@	c #D8D7D2",
"{@	c #F9F7F2",
"]@	c #D6D5D2",
"^@	c #9B9A9A",
"/@	c #363635",
"(@	c #616C3E",
"_@	c #6C7C29",
":@	c #6B6965",
"<@	c #FCFBF3",
"[@	c #F4F3EC",
"}@	c #D5D4D3",
"|@	c #676E46",
"1@	c #898A6D",
"2@	c #B6B6B0",
"3@	c #FFFEF7",
"4@	c #F0F0E8",
"5@	c #C7C6BF",
"6@	c #CAC9C3",
"7@	c #D3D3CF",
"8@	c #D5D5CE",
"9@	c #DCDCD6",
"0@	c #ECEAE4",
"a@	c #C5C5BE",
"b@	c #DBDAD6",
"c@	c #9B9B99",
"d@	c #5F6B3D",
"e@	c #687A1E",
"f@	c #474845",
"g@	c #5B5B58",
"h@	c #898886",
"i@	c #F9F8F1",
"j@	c #F1F0E9",
"k@	c #979692",
"l@	c #AEADA9",
"m@	c #FBFBF3",
"n@	c #FAF9F1",
"o@	c #D3D1CC",
"p@	c #3D3E3C",
"q@	c #60605D",
"r@	c #A1A19C",
"s@	c #5F6A3C",
"t@	c #64780B",
"u@	c #E3E3DF",
"v@	c #BFC0BC",
"w@	c #40403F",
"x@	c #3C3C3B",
"y@	c #70706E",
"z@	c #F8F7EF",
"A@	c #D7D6D0",
"B@	c #A3A29F",
"C@	c #E5E4E0",
"D@	c #DBDCD8",
"E@	c #F5F4F0",
"F@	c #ECEBE5",
"G@	c #8E8D8A",
"H@	c #D3D2CD",
"I@	c #D2D1CC",
"J@	c #3A3A39",
"K@	c #3C3C3C",
"L@	c #80807F",
"M@	c #D7D8D4",
"N@	c #F1F0EC",
"O@	c #65790D",
"P@	c #5E5F58",
"Q@	c #B3B3AE",
"R@	c #DCDCD8",
"S@	c #BEBDBD",
"T@	c #7C7C7A",
"U@	c #8C8B89",
"V@	c #A4A4A0",
"W@	c #CAC8C5",
"X@	c #83817F",
"Y@	c #EDEBE8",
"Z@	c #ECEBE6",
"`@	c #BDBBB9",
" #	c #EFECE9",
".#	c #E8E6E0",
"+#	c #52514F",
"@#	c #C5C4BE",
"##	c #DFDED8",
"$#	c #949391",
"%#	c #949492",
"&#	c #CFCDCB",
"*#	c #EEECE8",
"=#	c #D6D4D2",
"-#	c #9B9A99",
";#	c #5F6B3C",
">#	c #637A0D",
",#	c #393B35",
"'#	c #AAA9A6",
")#	c #F9F8F2",
"!#	c #DDDBD8",
"~#	c #D1CFCD",
"{#	c #D1CFCC",
"]#	c #F0EEE9",
"^#	c #848280",
"/#	c #ECEAE7",
"(#	c #525250",
"_#	c #DEDCD8",
":#	c #E6E5DF",
"<#	c #555453",
"[#	c #C6C6BF",
"}#	c #DAD9D4",
"|#	c #D0D0CC",
"1#	c #EEECE7",
"2#	c #F8F6F2",
"3#	c #D5D3D1",
"4#	c #9A9A99",
"5#	c #373736",
"6#	c #5E6B3C",
"7#	c #5F780B",
"8#	c #5C5D51",
"9#	c #787873",
"0#	c #A2A19E",
"a#	c #E2E1DD",
"b#	c #FBF9F3",
"c#	c #E1DFDB",
"d#	c #B7B6B4",
"e#	c #A19F9D",
"f#	c #A3A2A0",
"g#	c #B4B2B0",
"h#	c #A09F9D",
"i#	c #A1A19F",
"j#	c #B3B2B0",
"k#	c #E0DFD9",
"l#	c #F5F4EE",
"m#	c #F2F0ED",
"n#	c #E8E7E2",
"o#	c #D5D4D1",
"p#	c #8C8C89",
"q#	c #6F6F6C",
"r#	c #5D5A52",
"s#	c #5A6934",
"t#	c #60761C",
"u#	c #57584F",
"v#	c #585857",
"w#	c #D4D2D0",
"x#	c #F5F3ED",
"y#	c #F8F7F1",
"z#	c #F6F6F0",
"A#	c #CAC8C7",
"B#	c #817F7E",
"C#	c #939190",
"D#	c #8E8D8C",
"E#	c #8A8989",
"F#	c #CECCCA",
"G#	c #E6E6E1",
"H#	c #F5F6EE",
"I#	c #F5F5F0",
"J#	c #F3F2EE",
"K#	c #ECEAE6",
"L#	c #D4D2CF",
"M#	c #B5B4B1",
"N#	c #555653",
"O#	c #53514C",
"P#	c #6D4B43",
"Q#	c #566622",
"R#	c #617711",
"S#	c #626E41",
"T#	c #636850",
"U#	c #646361",
"V#	c #656462",
"W#	c #686765",
"X#	c #B9B8B7",
"Y#	c #D0CECC",
"Z#	c #C9C7C5",
"`#	c #CAC8C6",
" $	c #CBC9C7",
".$	c #D0CFCD",
"+$	c #D3D2CF",
"@$	c #D4D4D1",
"#$	c #D3D3D0",
"$$	c #BFBEBB",
"%$	c #6C6B6A",
"&$	c #5C5C5B",
"*$	c #585755",
"=$	c #5B5754",
"-$	c #544C4C",
";$	c #46522B",
">$	c #5B7015",
",$	c #63780A",
"'$	c #616D41",
")$	c #55544F",
"!$	c #514F4A",
"~$	c #52514D",
"{$	c #888886",
"]$	c #9B9998",
"^$	c #9C9B99",
"/$	c #C5C3C2",
"($	c #CCCAC8",
"_$	c #B8B7B6",
":$	c #B0B0AD",
"<$	c #A4A2A0",
"[$	c #8C8B8A",
"}$	c #555450",
"|$	c #55534D",
"1$	c #594D4D",
"2$	c #422A3B",
"3$	c #54641F",
"4$	c #61770A",
"5$	c #516322",
"6$	c #48303D",
"7$	c #5C373E",
"8$	c #57393E",
"9$	c #4E4E4B",
"0$	c #393938",
"a$	c #383837",
"b$	c #363636",
"c$	c #51514F",
"d$	c #555553",
"e$	c #5B5B59",
"f$	c #BFBEBC",
"g$	c #C9C8C6",
"h$	c #9D9C9D",
"i$	c #A09F9F",
"j$	c #A5A4A4",
"k$	c #979694",
"l$	c #474746",
"m$	c #484946",
"n$	c #514E4D",
"o$	c #5B393F",
"p$	c #643E3C",
"q$	c #79463F",
"r$	c #58353C",
"s$	c #54651F",
"t$	c #637A0B",
"u$	c #61790B",
"v$	c #5B7409",
"w$	c #496405",
"x$	c #536421",
"y$	c #6A3F3D",
"z$	c #7B463F",
"A$	c #623D3C",
"B$	c #604E4C",
"C$	c #6D514C",
"D$	c #715A50",
"E$	c #514E49",
"F$	c #626160",
"G$	c #E0DFDA",
"H$	c #E6E5E0",
"I$	c #7D7B78",
"J$	c #C7C7C0",
"K$	c #EFEDE9",
"L$	c #797977",
"M$	c #504C4D",
"N$	c #56333C",
"O$	c #633C3A",
"P$	c #7C473E",
"Q$	c #72443D",
"R$	c #586921",
"S$	c #637D0E",
"T$	c #5F790B",
"U$	c #445721",
"V$	c #72443B",
"W$	c #62524F",
"X$	c #725850",
"Y$	c #766054",
"Z$	c #55524C",
"`$	c #656463",
" %	c #EAE9E3",
".%	c #777572",
"+%	c #B3B2AD",
"@%	c #DBD9D5",
"#%	c #D8D5D2",
"$%	c #D6D6D0",
"%%	c #D4D2CE",
"&%	c #6D6D6B",
"*%	c #504D4D",
"=%	c #5F393D",
"-%	c #643D3B",
";%	c #74443D",
">%	c #647D0E",
",%	c #5F780C",
"'%	c #5C7508",
")%	c #5B7308",
"!%	c #495B21",
"~%	c #72433C",
"{%	c #633E3E",
"]%	c #656460",
"^%	c #676662",
"/%	c #6B6A67",
"(%	c #595A56",
"_%	c #6A6968",
":%	c #EBEAE4",
"<%	c #E9E8E2",
"[%	c #6E6D6A",
"}%	c #6C6C69",
"|%	c #51514E",
"1%	c #474745",
"2%	c #74443C",
"3%	c #566721",
"4%	c #627B0D",
"5%	c #536322",
"6%	c #73443C",
"7%	c #623E3D",
"8%	c #52534F",
"9%	c #5E5F5B",
"0%	c #B6B6B5",
"a%	c #B9B8B8",
"b%	c #D9D7D4",
"c%	c #DFDDDA",
"d%	c #DEDDDA",
"e%	c #D8D7D4",
"f%	c #BDBCBB",
"g%	c #BAB9B7",
"h%	c #BAB9B6",
"i%	c #B7B5B3",
"j%	c #B4B3B1",
"k%	c #5F5F5D",
"l%	c #514E4E",
"m%	c #5A373E",
"n%	c #643C3B",
"o%	c #566620",
"p%	c #61790A",
"q%	c #546521",
"r%	c #4B4B48",
"s%	c #545452",
"t%	c #B6B5B5",
"u%	c #C7C5C3",
"v%	c #8D8C8A",
"w%	c #5E5D57",
"x%	c #604E4B",
"y%	c #633C3B",
"z%	c #556420",
"A%	c #56681D",
"B%	c #664339",
"C%	c #6E423C",
"D%	c #5C4439",
"E%	c #353635",
"F%	c #464645",
"G%	c #474846",
"H%	c #4E4F4D",
"I%	c #6F6E6B",
"J%	c #A2A19F",
"K%	c #B2B1B0",
"L%	c #444444",
"M%	c #4B453A",
"N%	c #5C4336",
"O%	c #6D423B",
"P%	c #67433A",
"Q%	c #596A1C",
"R%	c #657B0C",
"S%	c #647B0C",
"T%	c #617B0D",
"U%	c #5E760A",
"V%	c #5B740A",
"W%	c #54681C",
"X%	c #55671F",
"Y%	c #5B6D1E",
"Z%	c #5B5D51",
"`%	c #52534B",
" &	c #55564E",
".&	c #66665D",
"+&	c #7C7C77",
"@&	c #969593",
"#&	c #8E8D8D",
"$&	c #7A7A79",
"%&	c #383838",
"&&	c #52602D",
"*&	c #5C7019",
"=&	c #586920",
"-&	c #55691B",
";&	c #637A0E",
">&	c #667D0E",
",&	c #5C760B",
"'&	c #597308",
")&	c #627815",
"!&	c #657817",
"~&	c #6A7A27",
"{&	c #697B2A",
"]&	c #627716",
"^&	c #5F7615",
"/&	c #5E7515",
"(&	c #607916",
"_&	c #647C17",
":&	c #667D18",
"<&	c #637B17",
"[&	c #5F7816",
"}&	c #5C7415",
"|&	c #626D47",
"1&	c #676661",
"2&	c #42433F",
"3&	c #353631",
"4&	c #333531",
"5&	c #54622C",
"6&	c #5D750B",
"7&	c #667E0F",
"  . + @ # $ % & * = - ; > , ' ) ! ~ { ] ^ / / ( _ : < [ } | 1 2 ",
"3 4 / 5 6 7 8 9 0 a b c d e f g h i j k l m n o p q r s t u v v ",
"6 w x 6 y z A B C D E F G H I J K L H M N O P Q R S T $ & U % % ",
"( V U W X Y Z `  ...+.@.#.$.I J K L %.&.*.=.-.Z ;.>.# w ,.,.'.).",
"!.% p ~.{.].^./.(._.:.<.[.}.|.K K 1.2.3.4.5.6.7.8.9.0.a.b.c.& w ",
"d.e.f.g.h./.i.j.k.l.m.n.o.p.q.K K r.s.t.u.v.6.w.x.y.z.A.B.C.D.E.",
"F.G.H.I.J.K.L.M.N.O.P.Q.R.S.T.K K U.V.W.X.Y.Z.`. +.+++@+#+$+%+&+",
"*+=+-+;+>+K.L.,+'+)+!+~+{+]+^+/+/+(+_+B :+<+L.`.[+}+|+1+2+3+4+> ",
"5+6+7+8+9+0+L.,+a+b+c+d+e+e+e+e+e+e+f+g+h+0+L.i+j+k+l+m+n+o+p+q+",
"r+s+k.t+L.L.L.u+v+w+x+y+y+y+y+y+y+y+z+A+B+C+D+E+F+G+H+I+J+K+L+t ",
"M+N+O+^.L.L.L.L.P+i+i.i.i.i.i.i.i.i.i.i.Q+i.R+S+T+U+V+W+X+Y+Z+/ ",
"`+ @.@M.L.L.L.L.L.L.L.L.L.L.L.L.L.L.L.L.L.+@@@#@$@%@t+&@*@=@-@;@",
">@,@K.L.L.L.L.L.L.L.L.L.L.L.L.L.L.L.L.L.L.L.'@)@!@~@{@]@^@/@(@_@",
":@,@+@L.L.L.L.L.L.L.L.L.L.L.L.L.L.L.L.L.L.L.L.<@[@T+{@}@^@/@|@1@",
">@2@+@3@4@5@6@7@i+L.T+8@9@0+L.L.L.L.L.L.0@a@-.b@Q+L.{@]@c@/@d@e@",
">@,@<+<+9@f@g@h@i@Q+j@k@l@m@0+F+n@Q+L.L.o@p@q@r@i@F+{@]@c@/@s@t@",
">@,@u+u@v@w@x@y@z@A@B@v+C@D@E@F@G@H@L.L.I@J@K@L@M@N@{@]@c@/@s@O@",
"P@Q@i.R@S@T@U@V@i@W@X@Y@Z@`@ #.#+#@#L.L.##$#T@%#&#*#{@=#-#/@;#>#",
",#'#)#!#~#{#]#Q+0+W@^#/#%@(#_#:#<#[#L.L.0+u+}#|# +1#2#3#4#5#6#7#",
"8#9#0#a#j.j.b#L.L.c#d#e#f#g#h#i#j#k#L.L.L.L.l#m#/.n#o#p#q#r#s#7#",
"t#u#v#w#Z@F@x#y#z#)@A#B#C#&#D#E#F#G#H#I#I#I#H#J#K#L#M#N#O#P#Q#u ",
"R#S#T#U#V#W#X#o#a+L#Y#Z#`#Y# $ $.$+$@$a+a+#$#$$$%$&$*$=$-$;$>$,$",
"w w '$)$!$~${$]$]$]$]$]$]$^$/$($X#_$_$_$:$<$^$[$}$!$|$1$2$3$( V ",
"4$D.5$6$7$8$9$0$a$b$0$c$d$e$f$g$h$i$j$j$k$k.l$m$n$o$p$q$r$s$t$u$",
"v$w$x$y$z$A$B$C$D$E$F$G$j@j@y#H$I$J$M.`.[@K$L$e+M$N$O$P$Q$R$S$T$",
"v$s U$V$P$A$W$X$Y$Z$`$F@L.L.L. %.%+%@%#%$%%%&%f@*%=%-%P$;%R$>%,%",
"'%)%!%~%P${%]%^%/%(%_%:%F+F+F+<%k.[%}%|%|+1%b$1%*%=%-%P$2%3%4%,%",
"4 / 5%6%P$7%8%9%0%a%h+b%c%c%d%e%f%g%h%d#i%j%k%1%l%m%n%P$2%o%v V ",
"p%x q%6%P$7%r%s%t%g%g%h%h%h%h%h%g%h%h+f$u%&#v%y@w%x%y%P$6%z%V ( ",
"u$u A%B%C%D%r%E%F%G%G%G%G%G%G%G%G%G%H%I%J%&#($K%L%M%N%O%P%Q%R%S%",
"T%U%V%W%X%Y%Z%`%`%`%`%`%`%`%`%`%`%`% &.&+&@&#&$&%&&&*&=&-&;&>&>&",
"T%,&'&)%D.$ )&W !&~&{&]&^&/&(&_&:&<&[&}&|&1&2&3&4&5&6&v$4%1 7&7&"};
