/* XPM */
static char * player_left_ex0_xpm[] = {
"32 32 673 2",
"  	c #60790C",
". 	c #5E770A",
"+ 	c #5C7409",
"@ 	c #5C7509",
"# 	c #5F7609",
"$ 	c #62780B",
"% 	c #63790C",
"& 	c #64790B",
"* 	c #6B7C27",
"= 	c #8A8A6F",
"- 	c #8A8B6F",
"; 	c #687B1E",
"> 	c #60770B",
", 	c #5B6F17",
"' 	c #666331",
") 	c #76603C",
"! 	c #77603C",
"~ 	c #656531",
"{ 	c #5B7017",
"] 	c #5E760B",
"^ 	c #5E7609",
"/ 	c #60770A",
"( 	c #63790B",
"_ 	c #5F760B",
": 	c #546D0A",
"< 	c #526D08",
"[ 	c #546F08",
"} 	c #627A0C",
"| 	c #617A0C",
"1 	c #647C0D",
"2 	c #647C0E",
"3 	c #60780A",
"4 	c #5F7709",
"5 	c #5F7608",
"6 	c #61780A",
"7 	c #617809",
"8 	c #63790A",
"9 	c #64790D",
"0 	c #677A1F",
"a 	c #677A1C",
"b 	c #5E7117",
"c 	c #646432",
"d 	c #81614C",
"e 	c #8D604A",
"f 	c #BB7C55",
"g 	c #BA7C56",
"h 	c #89614D",
"i 	c #81614A",
"j 	c #636434",
"k 	c #5B6F15",
"l 	c #61770A",
"m 	c #62770A",
"n 	c #586F09",
"o 	c #456204",
"p 	c #536D07",
"q 	c #5F770A",
"r 	c #61780B",
"s 	c #62790C",
"t 	c #62780A",
"u 	c #617709",
"v 	c #62790B",
"w 	c #637B0D",
"x 	c #5F770B",
"y 	c #617715",
"z 	c #667143",
"A 	c #616E36",
"B 	c #646331",
"C 	c #83634D",
"D 	c #A16F5A",
"E 	c #A8735B",
"F 	c #90604A",
"G 	c #BD7D55",
"H 	c #BD7D56",
"I 	c #8B614E",
"J 	c #9C6C58",
"K 	c #624E3B",
"L 	c #676530",
"M 	c #5D7116",
"N 	c #637817",
"O 	c #667144",
"P 	c #637231",
"Q 	c #5C7309",
"R 	c #63780B",
"S 	c #60780B",
"T 	c #637A0C",
"U 	c #66724B",
"V 	c #868583",
"W 	c #7B7873",
"X 	c #9F6D59",
"Y 	c #AB755C",
"Z 	c #AC755C",
"` 	c #A9745A",
" .	c #A9735B",
"..	c #A9725B",
"+.	c #A0684D",
"@.	c #B17653",
"#.	c #8F6747",
"$.	c #6D6F61",
"%.	c #868684",
"&.	c #727B5D",
"*.	c #5F760A",
"=.	c #647A0C",
"-.	c #657A0B",
";.	c #657C0D",
">.	c #62770B",
",.	c #5E721A",
"'.	c #646D4C",
").	c #6E7066",
"!.	c #A5A3A3",
"~.	c #8D8B88",
"{.	c #966352",
"].	c #AB745C",
"^.	c #8F5F49",
"/.	c #8A604E",
"(.	c #9D6C57",
"_.	c #A7725A",
":.	c #BC7D55",
"<.	c #9C7660",
"[.	c #858380",
"}.	c #A6A5A5",
"|.	c #848480",
"1.	c #5E6B41",
"2.	c #5F7130",
"3.	c #607709",
"4.	c #647A0B",
"5.	c #587209",
"6.	c #657B0D",
"7.	c #5F7216",
"8.	c #626130",
"9.	c #82634E",
"0.	c #8B8988",
"a.	c #A09F9F",
"b.	c #EEEDE8",
"c.	c #C2C0BC",
"d.	c #696862",
"e.	c #806759",
"f.	c #8B6151",
"g.	c #8D6355",
"h.	c #8F604A",
"i.	c #8A604D",
"j.	c #956451",
"k.	c #8A5E51",
"l.	c #94634B",
"m.	c #BA7D58",
"n.	c #918D8B",
"o.	c #B4B3B3",
"p.	c #F0EEEA",
"q.	c #A8A8A4",
"r.	c #464642",
"s.	c #5B6344",
"t.	c #5C7016",
"u.	c #62780C",
"v.	c #597109",
"w.	c #536D08",
"x.	c #5F7415",
"y.	c #696630",
"z.	c #8D6849",
"A.	c #816A5F",
"B.	c #92827B",
"C.	c #BAB8B6",
"D.	c #D1D1CD",
"E.	c #FBFBF3",
"F.	c #CAC9C4",
"G.	c #666864",
"H.	c #5E5451",
"I.	c #A06E5A",
"J.	c #A9735A",
"K.	c #8F614A",
"L.	c #996451",
"M.	c #9E6A57",
"N.	c #956554",
"O.	c #936653",
"P.	c #949291",
"Q.	c #BCBBBB",
"R.	c #C6C6C1",
"S.	c #8A8985",
"T.	c #6C5E53",
"U.	c #635948",
"V.	c #5D7215",
"W.	c #576F09",
"X.	c #5B6B21",
"Y.	c #A4704E",
"Z.	c #B27753",
"`.	c #7D7873",
" +	c #9C9B9C",
".+	c #E4E5DF",
"++	c #FEFEF5",
"@+	c #FEFEF6",
"#+	c #CBCAC7",
"$+	c #6B6D6A",
"%+	c #666059",
"&+	c #9B6F5C",
"*+	c #A57059",
"=+	c #A9725A",
"-+	c #9E725E",
";+	c #896F62",
">+	c #999796",
",+	c #BFBEBD",
"'+	c #FCFCF3",
")+	c #E4E3DE",
"!+	c #C2C1BD",
"~+	c #525250",
"{+	c #554E49",
"]+	c #A16E4F",
"^+	c #596721",
"/+	c #607A0C",
"(+	c #5A6A21",
"_+	c #A36D4D",
":+	c #A86D4F",
"<+	c #9D9C9D",
"[+	c #E6E5DF",
"}+	c #FFFFF6",
"|+	c #E3E2DC",
"1+	c #B4B4B1",
"2+	c #696866",
"3+	c #58534E",
"4+	c #8A6656",
"5+	c #88604E",
"6+	c #9A6A56",
"7+	c #A8745C",
"8+	c #7F7A76",
"9+	c #969595",
"0+	c #DDDCD7",
"a+	c #F1F0E9",
"b+	c #E5E4E0",
"c+	c #C3C2BF",
"d+	c #515250",
"e+	c #544E48",
"f+	c #A77150",
"g+	c #566521",
"h+	c #5D7509",
"i+	c #596821",
"j+	c #AB7451",
"k+	c #AA7759",
"l+	c #84817B",
"m+	c #B1B0AF",
"n+	c #EAE9E3",
"o+	c #ECEBE4",
"p+	c #C9C9C5",
"q+	c #676565",
"r+	c #434440",
"s+	c #5F5D57",
"t+	c #615D57",
"u+	c #655F57",
"v+	c #635E58",
"w+	c #757572",
"x+	c #979696",
"y+	c #EFEFE9",
"z+	c #EBEAE4",
"A+	c #D0CECA",
"B+	c #7C7B79",
"C+	c #63635F",
"D+	c #635E57",
"E+	c #5B6A35",
"F+	c #61790B",
"G+	c #576520",
"H+	c #8A5E4A",
"I+	c #696660",
"J+	c #A1A29C",
"K+	c #FAF9F2",
"L+	c #EAEAE4",
"M+	c #C9C8C5",
"N+	c #6A6867",
"O+	c #393938",
"P+	c #3A3A39",
"Q+	c #3A3B39",
"R+	c #50504E",
"S+	c #717270",
"T+	c #FEFDF6",
"U+	c #F8F7F0",
"V+	c #D4D2CE",
"W+	c #9A9998",
"X+	c #383837",
"Y+	c #5F6C3C",
"Z+	c #596720",
"`+	c #A46F4E",
" @	c #A2A29D",
".@	c #F7F7F0",
"+@	c #EDECE6",
"@@	c #D7D6D1",
"#@	c #D2D1CC",
"$@	c #D4D3CD",
"%@	c #F8F8F0",
"&@	c #EEEEE6",
"*@	c #B8B8B5",
"=@	c #E4E4DD",
"-@	c #F9F8F1",
";@	c #D6D5D1",
">@	c #9B9A99",
",@	c #363635",
"'@	c #606C3E",
")@	c #63770B",
"!@	c #6C7D2E",
"~@	c #596727",
"{@	c #8F705B",
"]@	c #858480",
"^@	c #B4B4AE",
"/@	c #FCFCF4",
"(@	c #E7E7E0",
"_@	c #92938E",
":@	c #CFCEC9",
"<@	c #EDECE8",
"[@	c #DADAD5",
"}@	c #A9AAA7",
"|@	c #5F5F5E",
"1@	c #616259",
"2@	c #626D41",
"3@	c #898A6F",
"4@	c #66695E",
"5@	c #747572",
"6@	c #F6F6EE",
"7@	c #F3F3EB",
"8@	c #BCBCB9",
"9@	c #9C9D9A",
"0@	c #F0F2EB",
"a@	c #C3C2BE",
"b@	c #60605D",
"c@	c #4D4D49",
"d@	c #677A22",
"e@	c #65685D",
"f@	c #757674",
"g@	c #E6E6E0",
"h@	c #DEDDD8",
"i@	c #C8C9C3",
"j@	c #F8F9F1",
"k@	c #ECEBE5",
"l@	c #CDCCC8",
"m@	c #605F5D",
"n@	c #454742",
"o@	c #647816",
"p@	c #FAFAF1",
"q@	c #FDFDF4",
"r@	c #FAFAF2",
"s@	c #454741",
"t@	c #FDFDF5",
"u@	c #BCBBB7",
"v@	c #868685",
"w@	c #90918F",
"x@	c #CDCEC9",
"y@	c #E4E3DD",
"z@	c #969694",
"A@	c #E8E8E2",
"B@	c #A2A29F",
"C@	c #888886",
"D@	c #939391",
"E@	c #DDDCD6",
"F@	c #657A17",
"G@	c #F2F1EB",
"H@	c #9A9997",
"I@	c #393A3A",
"J@	c #585B58",
"K@	c #BDC0BA",
"L@	c #D1D0CB",
"M@	c #A4A4A1",
"N@	c #E1E0DC",
"O@	c #E3E3DC",
"P@	c #7F7F7C",
"Q@	c #40403F",
"R@	c #5B5D5A",
"S@	c #C7C6C2",
"T@	c #F6F5EE",
"U@	c #647B17",
"V@	c #747673",
"W@	c #F4F3ED",
"X@	c #D2D1CE",
"Y@	c #858483",
"Z@	c #393939",
"`@	c #3E3E3D",
" #	c #B9BCB7",
".#	c #F4F4EC",
"+#	c #91938E",
"@#	c #ABABA4",
"##	c #FAFAF4",
"$#	c #DFDED9",
"%#	c #DBDBD7",
"&#	c #B9B9B2",
"*#	c #72726E",
"=#	c #F0F0E8",
"-#	c #FCFBF3",
";#	c #82827F",
">#	c #3D3E3D",
",#	c #AAA8A6",
"'#	c #DAD9D5",
")#	c #FBFBF4",
"!#	c #617916",
"~#	c #585A51",
"{#	c #60615F",
"]#	c #E5E5DF",
"^#	c #D3D1CE",
"/#	c #BEBDBA",
"(#	c #B9B8B5",
"_#	c #ECECE5",
":#	c #F4F5ED",
"<#	c #8D8F8B",
"[#	c #A9A9A3",
"}#	c #B0AFAC",
"|#	c #A6A5A2",
"1#	c #B7B6B2",
"2#	c #6C6C69",
"3#	c #EFEFE8",
"4#	c #E1E0DB",
"5#	c #D3D1CD",
"6#	c #B6B5B2",
"7#	c #C6C5C2",
"8#	c #D9D8D5",
"9#	c #CDCDC8",
"0#	c #607615",
"a#	c #57584F",
"b#	c #585957",
"c#	c #D4D3CF",
"d#	c #E7E6E1",
"e#	c #DBD9D6",
"f#	c #DBDAD6",
"g#	c #E0DFDA",
"h#	c #AAA9A5",
"i#	c #E9E8E3",
"j#	c #9A9996",
"k#	c #8F8E8E",
"l#	c #B4B3B0",
"m#	c #868582",
"n#	c #F1F1E9",
"o#	c #F7F6F0",
"p#	c #DDDCD8",
"q#	c #DFDFDB",
"r#	c #F3F4EE",
"s#	c #E0E0DA",
"t#	c #BEBEBA",
"u#	c #60615E",
"v#	c #4D4E49",
"w#	c #617711",
"x#	c #626E41",
"y#	c #636850",
"z#	c #646360",
"A#	c #A0A09D",
"B#	c #FBFAF2",
"C#	c #D4D3D1",
"D#	c #B2B1AF",
"E#	c #6C6B6A",
"F#	c #B6B5B3",
"G#	c #B5B3B2",
"H#	c #6D6C6B",
"I#	c #A3A4A3",
"J#	c #D0CFCB",
"K#	c #FBFAF3",
"L#	c #F5F4EE",
"M#	c #D7D7D3",
"N#	c #A5A5A3",
"O#	c #575655",
"P#	c #61664E",
"Q#	c #646E41",
"R#	c #616D41",
"S#	c #55544F",
"T#	c #7A7A76",
"U#	c #B6B9B3",
"V#	c #B8BBB5",
"W#	c #BEC0BB",
"X#	c #E5E6DF",
"Y#	c #E6E7E1",
"Z#	c #D5D5D1",
"`#	c #A1A09D",
" $	c #C5C4C3",
".$	c #C8C6C4",
"+$	c #A2A19E",
"@$	c #BCBBB9",
"#$	c #E7E8E2",
"$$	c #E7E7E1",
"%$	c #CDCFC9",
"&$	c #B4B6B1",
"*$	c #9D9C99",
"=$	c #7D7C79",
"-$	c #53534B",
";$	c #636E3F",
">$	c #516322",
",$	c #4A333F",
"'$	c #5D5A54",
")$	c #3B3B3A",
"!$	c #3A3A38",
"~$	c #5D5D5A",
"{$	c #C7C7C2",
"]$	c #CCCBC8",
"^$	c #CCCAC7",
"/$	c #CBC9C7",
"($	c #CCCAC8",
"_$	c #D0CECB",
":$	c #D1CFCC",
"<$	c #CFCECB",
"[$	c #CBC9C6",
"}$	c #959591",
"|$	c #535351",
"1$	c #3C3C3A",
"2$	c #4E4E4A",
"3$	c #5E6B37",
"4$	c #637911",
"5$	c #5B7409",
"6$	c #496405",
"7$	c #536421",
"8$	c #6A3F3D",
"9$	c #755048",
"0$	c #5F4E4B",
"a$	c #5D4C4B",
"b$	c #625F59",
"c$	c #5B5C58",
"d$	c #5C5C59",
"e$	c #5B5B58",
"f$	c #828180",
"g$	c #CDCCC9",
"h$	c #5F5F5C",
"i$	c #C7C6C1",
"j$	c #E3E2DD",
"k$	c #767774",
"l$	c #61635B",
"m$	c #576A24",
"n$	c #637D0E",
"o$	c #5F790B",
"p$	c #445721",
"q$	c #72443B",
"r$	c #7C473E",
"s$	c #623B3B",
"t$	c #5A343C",
"u$	c #6A534D",
"v$	c #464645",
"w$	c #7B7B79",
"x$	c #9E9D9A",
"y$	c #545453",
"z$	c #A5A4A1",
"A$	c #B4B3AF",
"B$	c #DCDED8",
"C$	c #DEE0DB",
"D$	c #DDDED9",
"E$	c #B8B7B5",
"F$	c #838382",
"G$	c #828281",
"H$	c #737372",
"I$	c #CCCCC6",
"J$	c #EEEEE7",
"K$	c #5D5F58",
"L$	c #586A25",
"M$	c #647D0E",
"N$	c #5F780C",
"O$	c #5C7508",
"P$	c #5B7308",
"Q$	c #495B21",
"R$	c #72433C",
"S$	c #57333C",
"T$	c #6E4441",
"U$	c #666664",
"V$	c #BCBFBA",
"W$	c #EEEFE7",
"X$	c #787875",
"Y$	c #9B9A96",
"Z$	c #FAFAF3",
"`$	c #FCFCF5",
" %	c #F7F8F0",
".%	c #D6D7D2",
"+%	c #CFCDCA",
"@%	c #B5B4B2",
"#%	c #484847",
"$%	c #CACAC4",
"%%	c #60605F",
"&%	c #4B4B47",
"*%	c #566823",
"=%	c #627B0D",
"-%	c #536322",
";%	c #73443C",
">%	c #59353D",
",%	c #73655F",
"'%	c #8C8C8C",
")%	c #989895",
"!%	c #9B9C97",
"~%	c #555553",
"{%	c #898886",
"]%	c #DEDDD9",
"^%	c #DFDFDA",
"/%	c #D3D2CE",
"(%	c #B7B5B3",
"_%	c #434343",
":%	c #787975",
"<%	c #8A8B87",
"[%	c #4B4B46",
"}%	c #556622",
"|%	c #61790A",
"1%	c #546521",
"2%	c #57343C",
"3%	c #726660",
"4%	c #8E8D8D",
"5%	c #7D7E7B",
"6%	c #62635E",
"7%	c #494947",
"8%	c #858482",
"9%	c #C1C0BD",
"0%	c #BAB9B6",
"a%	c #BEBCBA",
"b%	c #C0BEBC",
"c%	c #CECCC9",
"d%	c #414141",
"e%	c #3C3C39",
"f%	c #42423F",
"g%	c #52524D",
"h%	c #546522",
"i%	c #56681D",
"j%	c #664339",
"k%	c #6E423C",
"l%	c #5B4237",
"m%	c #4C4731",
"n%	c #595740",
"o%	c #5D634E",
"p%	c #5B614B",
"q%	c #585741",
"r%	c #91908D",
"s%	c #CDCBC9",
"t%	c #7E7D7B",
"u%	c #474847",
"v%	c #474846",
"w%	c #5C5D5B",
"x%	c #727371",
"y%	c #C2C0BD",
"z%	c #B6B4B3",
"A%	c #424241",
"B%	c #4D5042",
"C%	c #5B574A",
"D%	c #5F524C",
"E%	c #5E554C",
"F%	c #596B1E",
"G%	c #657B0C",
"H%	c #647B0C",
"I%	c #617B0D",
"J%	c #5E760A",
"K%	c #5B740A",
"L%	c #54681C",
"M%	c #55671F",
"N%	c #5B6E18",
"O%	c #63780D",
"P%	c #62760C",
"Q%	c #62770C",
"R%	c #617617",
"S%	c #64665F",
"T%	c #737370",
"U%	c #8A8A89",
"V%	c #565655",
"W%	c #51514B",
"X%	c #52534B",
"Y%	c #5C5D57",
"Z%	c #646663",
"`%	c #858584",
" &	c #7A7A79",
".&	c #383838",
"+&	c #52602D",
"@&	c #5C7019",
"#&	c #586920",
"$&	c #55691B",
"%&	c #637A0E",
"&&	c #667D0E",
"*&	c #5C760B",
"=&	c #597308",
"-&	c #65790E",
";&	c #6A7B22",
">&	c #6A7B2A",
",&	c #64675E",
"'&	c #585A56",
")&	c #363733",
"!&	c #343631",
"~&	c #3F413B",
"{&	c #657142",
"]&	c #637B17",
"^&	c #5F7816",
"/&	c #5C7414",
"(&	c #606D45",
"_&	c #626560",
":&	c #41433E",
"<&	c #333531",
"[&	c #54622C",
"}&	c #5D750B",
"|&	c #667E0F",
"  . + @ # $ % & * = - ; > , ' ) ! ~ { ] ^ / / ( _ : < [ } | 1 2 ",
"3 4 / 5 6 7 % 8 9 0 a b c d e f g h i j k l 6 6 m n o p q r s s ",
"6 t u 7 v w x y z A B C D E F G H I E J K L M N O P Q $ & R % % ",
"( v R R S T ] U V W X Y Z ` F G H I  ...+.@.#.$.%.&.*.t =.=.-.8 ",
";.% t & >.,.'.).!.~.{. .].J ^.H H /.(._.+.:.<.[.}.|.1.2.3.4.& t ",
"5.6.% 7.8.9.0.a.b.c.d.e.f.g.h.H H i.j.k.l.m.n.o.p.q.r.s.t.u.*.v.",
"w.x.y.z.A.B.C.D.E.F.G.H.I.J.K.H H i.L.M.N.O.P.Q.E.R.S.T.U.c V.W.",
"w X.Y.Z.`. +.+++@+#+$+%+&+ .F H H I *+=+-+;+>+,+'+)+!+~+{+]+^+> ",
"/+(+_+:+`.<+[+}+}+|+1+2+3+4+e g g 5+6+7+8+9+0+a+++b+c+d+e+f+g+h+",
"S i+j+k+l+m+n+}+}+o+p+q+r+s+t+u+u+t+t+v+w+x+y+}+}+z+A+B+C+D+E+q ",
"F+G+H+I+J+K+@+}+}+L+M+N+O+P+Q+Q+Q+Q+Q+P+R+S+o+}+++T+U+V+W+X+Y+/ ",
"t Z+`+I+ @'+}+}+}+.@+@@@#@#@#@#@#@#@#@#@$@@@%@&@*@=@-@;@>@,@'@)@",
"!@~@{@]@^@/@}+}+}+}+}+}+}+}+}+}+}+}+}+}+}+}+}+(@_@:@<@[@}@|@1@2@",
"3@4@5@0+6@}+}+}+}+}+}+}+}+}+}+}+}+}+}+}+}+}+}+'+7@8@9@0@)+a@b@c@",
"d@e@f@g@}+}+}+}+}+}+}+}+}+}+}+}+}+}+}+}+}+}+}+}+@+h@i@j@k@l@m@n@",
"o@e@f@g@}+}+E.p@p@'+}+}+q@p@++}+}+}+}+}+}+}+r@p@p@q@@+}+k@l@m@s@",
"o@e@f@g@}+t@u@v@w@x@++}+y@z@A@}+}+}+}+}+}+/@B@C@D@E@}+}+k@l@m@s@",
"F@e@f@g@'+G@H@I@J@K@E.(@L@M@N@6@++&@O@E.}+E.P@Q@R@S@T@++k@l@m@s@",
"U@e@V@g@W@X@Y@Z@`@ #.#+#@###$#%#'+&#*#=#}+-#;#P+>#,#'#)#o+l@m@s@",
"!#~#{#]#W@^#/#(#@@_#:#<#[#)#}#|#r@1#2#3#}+@+4#5#6#7#8#)#o+9#m@s@",
"0#a#b#c#d#e#f#g#q@}+6@9@h#i#j#k#d#l#m#n#}+}+}+o#p#f#q#r#s#t#u#v#",
"w#x#y#z#A#.@B#E.@+}+B#C#D#E#F#G#H#I#J#%@}+}+}+++E.K#L#M#N#O#P#Q#",
"t t R#S#T#U#V#W#X#A@Y#Z#c+`# $.$+$@$c#.+A@#$A@A@$$%$&$*$=$-$;$v ",
"l *.>$,$'$)$!$~${$]$^$^$/$/$#+($_$:$:$:$<$($^$^$[$}$|$1$2$3$4$F+",
"5$6$7$8$9$0$a$b$c$d$d$e$e$d$d$f$g$:$:$:$}#~$e$e$h$i$j$k$l$m$n$o$",
"5$p p$q$r$s$t$u$v$w$x$y$2+z$|#A$B$C$D$c#E$F$G$H$Q@I$J$5@K$L$M$N$",
"O$P$Q$R$r$s$S$T$U$V$W$X$Y$Z$/@`$t@t@ %.%_$+%+%@%#%$%z+%%&%*%=%N$",
"4 / -%;%r$s$>%,%'%)%!%~%{%]%^%^%^%^%p#/%:$:$:$(%_%:%<%_%[%}%s v ",
"|%u 1%;%r$s$2%3%4%5%6%7%8%_$9%0%0%0%0%0%a%b%c%(%d%e%f%f%g%h%v ( ",
"F+r i%j%k%l%m%n%o%p%q%6%r%s%t%u%v%v%v%v%w%x%y%z%A%B%C%D%E%F%G%H%",
"I%J%K%L%M%N%O%P%Q%Q%R%S%T%U%V%O+W%X%X%X%Y%Z%`% &.&+&@&#&$&%&&&&&",
"I%*&=&P$*.t v ( -&;&>&,&'&)&!&~&{&]&^&/&(&_&:&!&<&[&}&5$=%1 |&|&"};
