/* XPM */
static char * player_left_ex3_xpm[] = {
"32 32 695 2",
"  	c #60790C",
". 	c #5E770A",
"+ 	c #5C7409",
"@ 	c #5C7509",
"# 	c #5F7609",
"$ 	c #62780B",
"% 	c #63790C",
"& 	c #64790B",
"* 	c #6B7C27",
"= 	c #8A8A6F",
"- 	c #8A8B6F",
"; 	c #687B1E",
"> 	c #60770B",
", 	c #5B6F17",
"' 	c #666331",
") 	c #76603C",
"! 	c #77603C",
"~ 	c #656531",
"{ 	c #5B7017",
"] 	c #5E760B",
"^ 	c #5E7609",
"/ 	c #60770A",
"( 	c #63790B",
"_ 	c #5F760B",
": 	c #546D0A",
"< 	c #526D08",
"[ 	c #546F08",
"} 	c #627A0C",
"| 	c #617A0C",
"1 	c #647C0D",
"2 	c #647C0E",
"3 	c #60780A",
"4 	c #5F7709",
"5 	c #5F7608",
"6 	c #61780A",
"7 	c #617812",
"8 	c #6D7750",
"9 	c #6F7853",
"0 	c #667533",
"a 	c #677A1F",
"b 	c #677A1C",
"c 	c #5E7117",
"d 	c #646432",
"e 	c #81614C",
"f 	c #8D604A",
"g 	c #BB7C55",
"h 	c #BA7C56",
"i 	c #89614D",
"j 	c #81614A",
"k 	c #636434",
"l 	c #5B6F15",
"m 	c #627713",
"n 	c #6C7751",
"o 	c #6D7752",
"p 	c #647432",
"q 	c #586F09",
"r 	c #456204",
"s 	c #536D07",
"t 	c #5F770A",
"u 	c #61780B",
"v 	c #62790C",
"w 	c #62780A",
"x 	c #617709",
"y 	c #647533",
"z 	c #677249",
"A 	c #8F8F8E",
"B 	c #969596",
"C 	c #69744D",
"D 	c #60721B",
"E 	c #646331",
"F 	c #83634D",
"G 	c #A16F5A",
"H 	c #A8735B",
"I 	c #90604A",
"J 	c #BD7D55",
"K 	c #BD7D56",
"L 	c #8B614E",
"M 	c #9C6D58",
"N 	c #4F4F42",
"O 	c #636B4B",
"P 	c #939291",
"Q 	c #939292",
"R 	c #68734B",
"S 	c #617610",
"T 	c #5C7309",
"U 	c #63780B",
"V 	c #62790B",
"W 	c #637815",
"X 	c #727369",
"Y 	c #898987",
"Z 	c #C2C1BE",
"` 	c #CDCCC9",
" .	c #72726B",
"..	c #7F685B",
"+.	c #A06D59",
"@.	c #AB755C",
"#.	c #AC755C",
"$.	c #A9745A",
"%.	c #A9735B",
"&.	c #A8735C",
"*.	c #78746F",
"=.	c #8B8A89",
"-.	c #CBCAC6",
";.	c #5A5A55",
">.	c #5C693A",
",.	c #647A0C",
"'.	c #657A0B",
").	c #63790A",
"!.	c #657C0D",
"~.	c #69734D",
"{.	c #81807D",
"].	c #AAA8A8",
"^.	c #E7E6E1",
"/.	c #F2F1EB",
"(.	c #777774",
"_.	c #87685C",
":.	c #9A6451",
"<.	c #AA735B",
"[.	c #AB745C",
"}.	c #9C6C58",
"|.	c #8F5F49",
"1.	c #8A604E",
"2.	c #9D6C57",
"3.	c #A7735C",
"4.	c #817E7A",
"5.	c #A1A0A1",
"6.	c #F1F0EA",
"7.	c #E1E0DB",
"8.	c #61605F",
"9.	c #5A614A",
"0.	c #5E6B40",
"a.	c #5F7130",
"b.	c #607709",
"c.	c #647A0B",
"d.	c #587209",
"e.	c #657B0D",
"f.	c #68734A",
"g.	c #8B8B8A",
"h.	c #B5B5B4",
"i.	c #F2F0EC",
"j.	c #FBFAF3",
"k.	c #F3F3EC",
"l.	c #787773",
"m.	c #896A5E",
"n.	c #AA735C",
"o.	c #9E6D59",
"p.	c #8B6151",
"q.	c #8D6355",
"r.	c #8F604A",
"s.	c #8A604D",
"t.	c #956451",
"u.	c #8B5F52",
"v.	c #807E7A",
"w.	c #A1A1A1",
"x.	c #C5C4C1",
"y.	c #8A8985",
"z.	c #454542",
"A.	c #5B6344",
"B.	c #5C7016",
"C.	c #62780C",
"D.	c #5F760A",
"E.	c #597109",
"F.	c #536D08",
"G.	c #5F7415",
"H.	c #646B4E",
"I.	c #919090",
"J.	c #BEBDBC",
"K.	c #FDFCF5",
"L.	c #FFFEF6",
"M.	c #F6F5EE",
"N.	c #A4A39F",
"O.	c #85827D",
"P.	c #75594E",
"Q.	c #614A4A",
"R.	c #A06E5A",
"S.	c #A9735A",
"T.	c #8F614A",
"U.	c #89604D",
"V.	c #886A5D",
"W.	c #957E77",
"X.	c #A5A4A3",
"Y.	c #CECECA",
"Z.	c #F7F6EF",
"`.	c #F6F4EE",
" +	c #D2D1CE",
".+	c #90908D",
"++	c #3D3D3B",
"@+	c #8B6A55",
"#+	c #916848",
"$+	c #666431",
"%+	c #5D7215",
"&+	c #576F09",
"*+	c #637B0D",
"=+	c #5B6B23",
"-+	c #7E6A5A",
";+	c #969594",
">+	c #C1C0BF",
",+	c #FAF9F3",
"'+	c #D3D2CF",
")+	c #9E9D9B",
"!+	c #3E3E3D",
"~+	c #605853",
"{+	c #8C6B5C",
"]+	c #8C6C5C",
"^+	c #7D6354",
"/+	c #997259",
"(+	c #786355",
"_+	c #6F6E68",
":+	c #CBCAC9",
"<+	c #FDFCF6",
"[+	c #D4D3D0",
"}+	c #959491",
"|+	c #484846",
"1+	c #816959",
"2+	c #AA7757",
"3+	c #A46F4F",
"4+	c #596721",
"5+	c #607912",
"6+	c #666D53",
"7+	c #767370",
"8+	c #D5D4CF",
"9+	c #F0EFE9",
"0+	c #FEFDF6",
"a+	c #D3D3D1",
"b+	c #9F9E9D",
"c+	c #373737",
"d+	c #444442",
"e+	c #484845",
"f+	c #4F4F4D",
"g+	c #767675",
"h+	c #BBBAB8",
"i+	c #FCFBF4",
"j+	c #F5F4ED",
"k+	c #D2D1CD",
"l+	c #ACAAA9",
"m+	c #585955",
"n+	c #5F5750",
"o+	c #AA724F",
"p+	c #566521",
"q+	c #5D7509",
"r+	c #607716",
"s+	c #68675F",
"t+	c #787774",
"u+	c #E6E5E1",
"v+	c #FBFAF4",
"w+	c #DEDCD9",
"x+	c #B7B6B3",
"y+	c #80807C",
"z+	c #7F7F7B",
"A+	c #81817E",
"B+	c #8E8E8A",
"C+	c #C5C4BF",
"D+	c #FDFDF5",
"E+	c #EFEFE8",
"F+	c #F0F0EA",
"G+	c #FEFDF5",
"H+	c #E5E4DF",
"I+	c #C3C1BF",
"J+	c #515150",
"K+	c #544E48",
"L+	c #A77250",
"M+	c #576622",
"N+	c #62771D",
"O+	c #696860",
"P+	c #7A7976",
"Q+	c #FEFCF6",
"R+	c #FDFCF4",
"S+	c #9A9A97",
"T+	c #A7A6A1",
"U+	c #FAF9F2",
"V+	c #E4E4E0",
"W+	c #C4C2C0",
"X+	c #535452",
"Y+	c #514F4B",
"Z+	c #7C6455",
"`+	c #586825",
" @	c #68685F",
".@	c #9D9C98",
"+@	c #D8D6D1",
"@@	c #FEFCF5",
"#@	c #DFDED9",
"$@	c #CECDC8",
"%@	c #B7B6B2",
"&@	c #D9D8D4",
"*@	c #B2B1B0",
"=@	c #878685",
"-@	c #4E4D49",
";@	c #626E3E",
">@	c #63770A",
",@	c #696863",
"'@	c #B6B5B0",
")@	c #FFFDF7",
"!@	c #E7E6E0",
"~@	c #949290",
"{@	c #D8D7D2",
"]@	c #F9F8F1",
"^@	c #D5D4D1",
"/@	c #9B9A99",
"(@	c #363635",
"_@	c #616C3E",
":@	c #6C7C29",
"<@	c #6B6965",
"[@	c #FCFAF3",
"}@	c #F4F2ED",
"|@	c #F9F8F2",
"1@	c #D6D4D1",
"2@	c #676E46",
"3@	c #898A6D",
"4@	c #F0F0E8",
"5@	c #C7C6BF",
"6@	c #CAC9C5",
"7@	c #D3D3CF",
"8@	c #D5D5CE",
"9@	c #DDDCD6",
"0@	c #ECEAE4",
"a@	c #C5C5BE",
"b@	c #CBCAC5",
"c@	c #DBDAD5",
"d@	c #5F6B3D",
"e@	c #687A1E",
"f@	c #DCDBD5",
"g@	c #474745",
"h@	c #5B5B58",
"i@	c #898886",
"j@	c #F0F0E9",
"k@	c #969792",
"l@	c #AEAEA9",
"m@	c #FBFBF3",
"n@	c #FAF9F1",
"o@	c #D3D1CC",
"p@	c #3D3E3C",
"q@	c #60605C",
"r@	c #A1A09C",
"s@	c #F9F7F1",
"t@	c #5F6A3C",
"u@	c #64780B",
"v@	c #E3E3DE",
"w@	c #BEBFBB",
"x@	c #3F403F",
"y@	c #3C3C3B",
"z@	c #70706E",
"A@	c #F8F7EF",
"B@	c #D6D4CF",
"C@	c #9F9E9B",
"D@	c #E5E4E0",
"E@	c #DBDCD8",
"F@	c #F5F4F0",
"G@	c #ECEBE5",
"H@	c #8E8D8A",
"I@	c #D3D2CD",
"J@	c #D2D1CC",
"K@	c #3A3A39",
"L@	c #3C3C3C",
"M@	c #80807F",
"N@	c #D7D8D4",
"O@	c #F1F0EC",
"P@	c #F9F7F2",
"Q@	c #65790D",
"R@	c #5E5F58",
"S@	c #B3B3AD",
"T@	c #DCDCD8",
"U@	c #BEBFBC",
"V@	c #7B7C7A",
"W@	c #8B8B89",
"X@	c #A4A4A0",
"Y@	c #CAC8C6",
"Z@	c #83817F",
"`@	c #EDEBE8",
" #	c #ECEBE6",
".#	c #BDBBB9",
"+#	c #EFECE9",
"@#	c #E8E6E0",
"##	c #52514F",
"$#	c #C5C4BE",
"%#	c #DFDED8",
"&#	c #949391",
"*#	c #7C7C79",
"=#	c #939392",
"-#	c #CECDCD",
";#	c #EDECE8",
">#	c #5F6B3C",
",#	c #637A0D",
"'#	c #383B34",
")#	c #AAAAA5",
"!#	c #DDDCD8",
"~#	c #D1CFCD",
"{#	c #D0CFCD",
"]#	c #F0EEE9",
"^#	c #CBC8C6",
"/#	c #848280",
"(#	c #ECEAE7",
"_#	c #525150",
":#	c #DEDCD8",
"<#	c #E6E5DF",
"[#	c #555453",
"}#	c #C6C6BF",
"|#	c #DAD9D4",
"1#	c #D1D1D0",
"2#	c #EEECE7",
"3#	c #F8F7F1",
"4#	c #D5D3D0",
"5#	c #373736",
"6#	c #5E6B3C",
"7#	c #5F780B",
"8#	c #5C5D51",
"9#	c #787874",
"0#	c #A2A19E",
"a#	c #E2E1DD",
"b#	c #F2F1EC",
"c#	c #E1DFDB",
"d#	c #B7B6B4",
"e#	c #A19F9D",
"f#	c #A3A2A0",
"g#	c #B3B2B0",
"h#	c #A3A3A0",
"i#	c #A2A19F",
"j#	c #E0DFD9",
"k#	c #F4F3EE",
"l#	c #F2F0ED",
"m#	c #E8E7E2",
"n#	c #8C8C89",
"o#	c #6F6F6C",
"p#	c #5D5A52",
"q#	c #5A6934",
"r#	c #60761C",
"s#	c #57584F",
"t#	c #585857",
"u#	c #D4D3CF",
"v#	c #F3F2ED",
"w#	c #F5F6EF",
"x#	c #CAC9C6",
"y#	c #817F7E",
"z#	c #929190",
"A#	c #CECECC",
"B#	c #8E8E8C",
"C#	c #8A8989",
"D#	c #CECCCA",
"E#	c #E6E6E1",
"F#	c #F5F6EE",
"G#	c #F5F5F0",
"H#	c #F3F3ED",
"I#	c #D4D2CF",
"J#	c #B5B4B2",
"K#	c #555654",
"L#	c #53514C",
"M#	c #6D4B43",
"N#	c #566622",
"O#	c #617711",
"P#	c #626E41",
"Q#	c #636850",
"R#	c #646461",
"S#	c #656463",
"T#	c #686766",
"U#	c #B7B8B6",
"V#	c #D4D4D0",
"W#	c #D0CECC",
"X#	c #C9C7C5",
"Y#	c #CBC9C8",
"Z#	c #CBC9C7",
"`#	c #D4D4D1",
" $	c #BFBEBB",
".$	c #6D6C6B",
"+$	c #5D5C5C",
"@$	c #585855",
"#$	c #5B5754",
"$$	c #544C4C",
"%$	c #46522B",
"&$	c #5B7015",
"*$	c #63780A",
"=$	c #616D41",
"-$	c #575653",
";$	c #51524E",
">$	c #545351",
",$	c #878887",
"'$	c #9A9998",
")$	c #9B9998",
"!$	c #9C9B99",
"~$	c #C5C3C2",
"{$	c #CBCAC7",
"]$	c #9B9A98",
"^$	c #787875",
"/$	c #555551",
"($	c #594D4D",
"_$	c #422A3B",
":$	c #54641F",
"<$	c #61770A",
"[$	c #536525",
"}$	c #65665F",
"|$	c #6C6B68",
"1$	c #777673",
"2$	c #636360",
"3$	c #555553",
"4$	c #484847",
"5$	c #393938",
"6$	c #51514F",
"7$	c #5B5B59",
"8$	c #C0BEBC",
"9$	c #D3D1CF",
"0$	c #C7C5C3",
"a$	c #6A6A6A",
"b$	c #4A4B4A",
"c$	c #4A4A49",
"d$	c #393A39",
"e$	c #7C7B79",
"f$	c #D0CECB",
"g$	c #A5A4A0",
"h$	c #757470",
"i$	c #75534D",
"j$	c #57383E",
"k$	c #54651F",
"l$	c #637A0B",
"m$	c #61790B",
"n$	c #5B7409",
"o$	c #496405",
"p$	c #536625",
"q$	c #666560",
"r$	c #9F9F9C",
"s$	c #B8B7B5",
"t$	c #646362",
"u$	c #E0DFDA",
"v$	c #F1F0E9",
"w$	c #F3F1EC",
"x$	c #C8C6C5",
"y$	c #C6C5C3",
"z$	c #C4C3C0",
"A$	c #666664",
"B$	c #91908E",
"C$	c #F6F5EF",
"D$	c #E4E3DF",
"E$	c #7C7A78",
"F$	c #66645F",
"G$	c #586A24",
"H$	c #637D0E",
"I$	c #5F790B",
"J$	c #445825",
"K$	c #939390",
"L$	c #DAD9D3",
"M$	c #DCDAD6",
"N$	c #DCDAD5",
"O$	c #D6D4D0",
"P$	c #F4F3EC",
"Q$	c #C2C0BE",
"R$	c #C7C5C4",
"S$	c #6B6B69",
"T$	c #7D7C7B",
"U$	c #D4D2CD",
"V$	c #EFEEE8",
"W$	c #7E7D79",
"X$	c #676660",
"Y$	c #586A25",
"Z$	c #647D0E",
"`$	c #5F780C",
" %	c #5C7508",
".%	c #5B7308",
"+%	c #495C25",
"@%	c #696764",
"#%	c #6B6B68",
"$%	c #676863",
"%%	c #434240",
"&%	c #383938",
"*%	c #656462",
"=%	c #EBEAE4",
"-%	c #EDEDE7",
";%	c #A2A1A2",
">%	c #9E9D9E",
",%	c #A09F9F",
"'%	c #B4B3B3",
")%	c #464644",
"!%	c #7D7C79",
"~%	c #566925",
"{%	c #627B0D",
"]%	c #536323",
"^%	c #6D5750",
"/%	c #725852",
"(%	c #655451",
"_%	c #5E5151",
":%	c #665451",
"<%	c #5D5A53",
"[%	c #4A4945",
"}%	c #5B5A59",
"|%	c #CFCECA",
"1%	c #DFDEDA",
"2%	c #DFDDDA",
"3%	c #D1CFCC",
"4%	c #81807F",
"5%	c #BFBFBC",
"6%	c #E1E0DC",
"7%	c #CFCDCB",
"8%	c #424240",
"9%	c #5C5B54",
"0%	c #81817B",
"a%	c #8B8B88",
"b%	c #4F504E",
"c%	c #53544E",
"d%	c #556723",
"e%	c #61790A",
"f%	c #546521",
"g%	c #73443C",
"h%	c #7C473E",
"i%	c #623B3B",
"j%	c #57333B",
"k%	c #6F3F3D",
"l%	c #6E4340",
"m%	c #57554F",
"n%	c #5A5A57",
"o%	c #B2B1AF",
"p%	c #D0CFCC",
"q%	c #AFAEAB",
"r%	c #676664",
"s%	c #B6B6B3",
"t%	c #E4E4DD",
"u%	c #D5D5D1",
"v%	c #B9B8B5",
"w%	c #686865",
"x%	c #50504C",
"y%	c #55504F",
"z%	c #52524D",
"A%	c #42423E",
"B%	c #42423F",
"C%	c #546522",
"D%	c #56681D",
"E%	c #664339",
"F%	c #6E423C",
"G%	c #5B4237",
"H%	c #4C4731",
"I%	c #584B33",
"J%	c #594C33",
"K%	c #585D46",
"L%	c #595E49",
"M%	c #6E6E69",
"N%	c #979693",
"O%	c #CCCCCA",
"P%	c #7D7E7C",
"Q%	c #464645",
"R%	c #484848",
"S%	c #555555",
"T%	c #505050",
"U%	c #5F5F58",
"V%	c #5F5F4A",
"W%	c #6D5244",
"X%	c #575C46",
"Y%	c #5B574A",
"Z%	c #5F524C",
"`%	c #5E554C",
" &	c #596B1E",
".&	c #657B0C",
"+&	c #647B0C",
"@&	c #617B0D",
"#&	c #5E760A",
"$&	c #5B740A",
"%&	c #54681C",
"&&	c #55671F",
"*&	c #5B6E18",
"=&	c #63780D",
"-&	c #62760C",
";&	c #62770C",
">&	c #617617",
",&	c #676760",
"'&	c #747471",
")&	c #8A8A89",
"!&	c #555655",
"~&	c #51514B",
"{&	c #52534B",
"]&	c #52524B",
"^&	c #52534C",
"/&	c #62694D",
"(&	c #5B701C",
"_&	c #586A1C",
":&	c #60760F",
"<&	c #5C7019",
"[&	c #586920",
"}&	c #55691B",
"|&	c #637A0E",
"1&	c #667D0E",
"2&	c #5C760B",
"3&	c #597308",
"4&	c #65790E",
"5&	c #6A7B22",
"6&	c #6A7B2A",
"7&	c #68685E",
"8&	c #5C5B57",
"9&	c #363733",
"0&	c #343631",
"a&	c #3F413B",
"b&	c #657142",
"c&	c #637B17",
"d&	c #5F7816",
"e&	c #5C7414",
"f&	c #5B7314",
"g&	c #5D7515",
"h&	c #607710",
"i&	c #577009",
"j&	c #5B730A",
"k&	c #5D750B",
"l&	c #667E0F",
"  . + @ # $ % & * = - ; > , ' ) ! ~ { ] ^ / / ( _ : < [ } | 1 2 ",
"3 4 / 5 6 7 8 9 0 a b c d e f g h i j k l m n o p q r s t u v v ",
"6 w x 6 y z A B C D E F G H I J K L H M N O P Q R S T $ & U % % ",
"( V U W X Y Z `  ...+.@.#.$.I J K L %.&.*.=.-.Z ;.>.# w ,.,.'.).",
"!.% p ~.{.].^./.(._.:.<.[.}.|.K K 1.2.3.4.5.6.7.8.9.0.a.b.c.& w ",
"d.e.f.g.h.i.j.k.l.m.n.o.p.q.r.K K s.t.u.v.w.6./.x.y.z.A.B.C.D.E.",
"F.G.H.I.J.K.L.M.N.O.P.Q.R.S.T.K K U.V.W.X.Y.Z.`. +.+++@+#+$+%+&+",
"*+=+-+;+>+K.L.,+'+)+!+~+{+]+^+/+/+(+_+B :+<+L.`.[+}+|+1+2+3+4+> ",
"5+6+7+8+9+0+L.,+a+b+c+d+e+e+e+e+e+e+f+g+h+0+L.i+j+k+l+m+n+o+p+q+",
"r+s+t+u+L.L.L.v+w+x+y+z+z+z+z+z+z+z+A+B+C+D+E+F+G+H+I+J+K+L+M+t ",
"N+O+P+^.L.L.L.L.Q+i+j.j.j.j.j.j.j.j.j.j.R+j.S+T+U+V+W+X+Y+Z+`+/ ",
" @.@+@M.L.L.L.L.L.L.L.L.L.L.L.L.L.L.L.L.L.@@#@$@%@&@u+*@=@-@;@>@",
",@'@K.L.L.L.L.L.L.L.L.L.L.L.L.L.L.L.L.L.L.L.)@!@~@{@]@^@/@(@_@:@",
"<@'@Q+L.L.L.L.L.L.L.L.L.L.L.L.L.L.L.L.L.L.L.L.[@}@U+|@1@/@(@2@3@",
",@'@Q+L.4@5@6@7@i+L.U+8@9@0+L.L.L.L.L.L.0@a@b@c@R+L.|@1@/@(@d@e@",
",@'@<+D+f@g@h@i@]@R+j@k@l@m@0+G+n@R+L.L.o@p@q@r@]@G+s@1@/@(@t@u@",
",@'@v+v@w@x@y@z@A@B@C@w+D@E@F@G@H@I@L.L.J@K@L@M@N@O@P@1@/@(@t@Q@",
"R@S@j.T@U@V@W@X@]@Y@Z@`@ #.#+#@###$#L.L.%#&#*#=#-#;#P@1@/@(@>#,#",
"'#)#|@!#~#{#]#R+0+^#/#(#&@_#:#<#[#}#L.L.0+v+|#{#1#2#3#4#/@5#6#7#",
"8#9#0#a#/.b#j.L.L.c#d#e#f#g#h#i#g#j#L.L.L.L.k#l#i.m#^@n#o#p#q#7#",
"r#s#t#u#G@G@v#w#w#D@x#y#z#A#B#C#D#E#F#G#G#F#w#H#G@I#J#K#L#M#N#u ",
"O#P#Q#R#S#T#U#V#V# +W#X#Y@W#Y#Z#~#'+`#[+[+V#V# $.$+$@$#$$$%$&$*$",
"w w =$-$;$>$,$'$)$)$)$)$)$!$~$~#~#~#{$f#)$)$)$]$)+^$/$($_$:$( V ",
"<$D.[$}$|$1$2$3$3$4$5$6$3$7$8$9$~#~#0$a$b$c$d$e$f$g$h$i$j$k$l$m$",
"n$o$p$q$r$6.6.9+9+s$t$u$v$v$3#w$9$~#W#x$y$z$A$B$C$M.D$E$F$G$H$I$",
"n$s J$q$K$L$M$N$O$f#A$G@L.L.L.P$~$Q$Q$Q$R$D#S$T$U$V$V$W$X$Y$Z$`$",
" %.%+%q$@%|$#%$%%%&%*%=%G+G+G+-%;%>%,%,%'%D#S$(@)%b@ #!%q$~%{%`$",
"4 / ]%^%/%(%_%:%<%[%}%|%1%2%1%3%4%5%E#^.6%7%S$8%9%0%a%b%c%d%v V ",
"e%x f%g%h%i%j%k%l%m%n%o%x.p%Q$q%r%s%t%D$u%v%w%x%y%z%A%B%z%C%V ( ",
"m$u D%E%F%G%H%I%J%K%L%M%N%O%P%Q%c+R%S%S%T%4$U%V%W%X%Y%Z%`% &.&+&",
"@&#&$&%&&&*&=&-&;&;&>&,&'&)&!&&%~&{&{&]&]&^&/&(&_&:&<&[&}&|&1&1&",
"@&2&3&.%D.w V ( 4&5&6&7&8&9&0&a&b&c&d&e&f&g&h&u i&j&k&n${%1 l&l&"};
