/* XPM */
static char * player_right_ex3_xpm[] = {
"32 32 677 2",
"  	c #60790C",
". 	c #5E770A",
"+ 	c #5C7409",
"@ 	c #5C7509",
"# 	c #5F7609",
"$ 	c #62780B",
"% 	c #63790C",
"& 	c #64790B",
"* 	c #6B7C27",
"= 	c #8A8A6F",
"- 	c #8A8B6F",
"; 	c #687B1E",
"> 	c #60770B",
", 	c #5B6F17",
"' 	c #666331",
") 	c #76603C",
"! 	c #77603C",
"~ 	c #656531",
"{ 	c #5B7017",
"] 	c #5E760B",
"^ 	c #5E7609",
"/ 	c #60770A",
"( 	c #63790B",
"_ 	c #5F760B",
": 	c #546D0A",
"< 	c #526D08",
"[ 	c #546F08",
"} 	c #627A0C",
"| 	c #617A0C",
"1 	c #647C0D",
"2 	c #647C0E",
"3 	c #60780A",
"4 	c #5F7709",
"5 	c #5F7608",
"6 	c #61780A",
"7 	c #617809",
"8 	c #657532",
"9 	c #6F7852",
"0 	c #727A56",
"a 	c #677A21",
"b 	c #5E7117",
"c 	c #646432",
"d 	c #81614C",
"e 	c #8D604A",
"f 	c #BB7C55",
"g 	c #BA7C56",
"h 	c #89614D",
"i 	c #81614A",
"j 	c #636434",
"k 	c #5B6F15",
"l 	c #61770A",
"m 	c #647432",
"n 	c #6E7753",
"o 	c #66704F",
"p 	c #46620E",
"q 	c #536D07",
"r 	c #5F770A",
"s 	c #61780B",
"t 	c #62790C",
"u 	c #62780A",
"v 	c #617709",
"w 	c #62790B",
"x 	c #637B0D",
"y 	c #5F7710",
"z 	c #67714B",
"A 	c #939292",
"B 	c #939291",
"C 	c #636B4B",
"D 	c #796451",
"E 	c #A16F5A",
"F 	c #A8735B",
"G 	c #90604A",
"H 	c #BD7D55",
"I 	c #BD7D56",
"J 	c #8B614E",
"K 	c #9C6C58",
"L 	c #624E3B",
"M 	c #676530",
"N 	c #5E7119",
"O 	c #6A744D",
"P 	c #969596",
"Q 	c #8F8F8E",
"R 	c #626D49",
"S 	c #637333",
"T 	c #64790C",
"U 	c #63780B",
"V 	c #60780B",
"W 	c #637A0C",
"X 	c #5B693A",
"Y 	c #5A5A55",
"Z 	c #C2C1BE",
"` 	c #CBCAC6",
" .	c #8B8A89",
"..	c #7A756F",
"+.	c #AA755C",
"@.	c #A9745A",
"#.	c #A9735B",
"$.	c #A9725B",
"%.	c #A0684D",
"&.	c #B17653",
"*.	c #896B57",
"=.	c #72726B",
"-.	c #CDCCC9",
";.	c #898987",
">.	c #727369",
",.	c #647916",
"'.	c #647A0C",
").	c #657A0B",
"!.	c #63790A",
"~.	c #657C0D",
"{.	c #637430",
"].	c #616E40",
"^.	c #5C624A",
"/.	c #61605F",
"(.	c #E1E0DB",
"_.	c #F1F0EA",
":.	c #A1A0A1",
"<.	c #827E7A",
"[.	c #A9745C",
"}.	c #8F5F49",
"|.	c #8A604E",
"1.	c #9D6C57",
"2.	c #A7725A",
"3.	c #9A725C",
"4.	c #777774",
"5.	c #F2F1EB",
"6.	c #E7E6E1",
"7.	c #AAA8A8",
"8.	c #81807D",
"9.	c #68724D",
"0.	c #587209",
"a.	c #657B0D",
"b.	c #5F7216",
"c.	c #5B6343",
"d.	c #454542",
"e.	c #8A8985",
"f.	c #C5C4C1",
"g.	c #A1A1A1",
"h.	c #807E7A",
"i.	c #8A6152",
"j.	c #8D6355",
"k.	c #8F604A",
"l.	c #8A604D",
"m.	c #956451",
"n.	c #8A5E51",
"o.	c #94634B",
"p.	c #BC7D55",
"q.	c #99725C",
"r.	c #787773",
"s.	c #F3F3EC",
"t.	c #FBFAF3",
"u.	c #F2F0EC",
"v.	c #B5B5B4",
"w.	c #8B8B8A",
"x.	c #67734A",
"y.	c #5F760A",
"z.	c #597109",
"A.	c #536D08",
"B.	c #5F7415",
"C.	c #696630",
"D.	c #8D6848",
"E.	c #735B4E",
"F.	c #3D3D3B",
"G.	c #90908D",
"H.	c #D2D1CE",
"I.	c #F6F4EE",
"J.	c #F7F6EF",
"K.	c #CECECA",
"L.	c #A5A4A3",
"M.	c #947E77",
"N.	c #8F7060",
"O.	c #8E614A",
"P.	c #996451",
"Q.	c #9E6A57",
"R.	c #896254",
"S.	c #7F5C4C",
"T.	c #86827D",
"U.	c #A4A39F",
"V.	c #F6F5EE",
"W.	c #FFFEF6",
"X.	c #FDFCF5",
"Y.	c #BEBDBC",
"Z.	c #919090",
"`.	c #646A4E",
" +	c #5D7215",
".+	c #576F09",
"++	c #5B6B21",
"@+	c #A4704E",
"#+	c #A97758",
"$+	c #726056",
"%+	c #484846",
"&+	c #959491",
"*+	c #D4D3D0",
"=+	c #FDFCF6",
"-+	c #CBCAC9",
";+	c #6F6E68",
">+	c #7B6254",
",+	c #997259",
"'+	c #7A6355",
")+	c #876859",
"!+	c #8B6A5A",
"~+	c #786559",
"{+	c #3E3E3D",
"]+	c #9E9D9B",
"^+	c #D3D2CF",
"/+	c #FAF9F3",
"(+	c #C1C0BF",
"_+	c #969594",
":+	c #7E695A",
"<+	c #596824",
"[+	c #607A0C",
"}+	c #5A6A21",
"|+	c #A06D4D",
"1+	c #5D564F",
"2+	c #585955",
"3+	c #ACAAA9",
"4+	c #D2D1CD",
"5+	c #F5F4ED",
"6+	c #FCFBF4",
"7+	c #FEFDF6",
"8+	c #BBBAB8",
"9+	c #767675",
"0+	c #4F4F4D",
"a+	c #484845",
"b+	c #444442",
"c+	c #373737",
"d+	c #9F9E9D",
"e+	c #D3D3D1",
"f+	c #F0EFE9",
"g+	c #D5D4CF",
"h+	c #767370",
"i+	c #656B53",
"j+	c #5D7510",
"k+	c #596821",
"l+	c #A87351",
"m+	c #544E48",
"n+	c #515150",
"o+	c #C3C1BF",
"p+	c #E5E4DF",
"q+	c #FEFDF5",
"r+	c #F0F0EA",
"s+	c #EFEFE8",
"t+	c #FDFDF5",
"u+	c #C5C4BF",
"v+	c #8E8E8A",
"w+	c #81817E",
"x+	c #7F7F7B",
"y+	c #80807C",
"z+	c #B7B6B3",
"A+	c #DEDCD9",
"B+	c #FBFAF4",
"C+	c #E6E5E1",
"D+	c #787774",
"E+	c #68675F",
"F+	c #5F7616",
"G+	c #61790B",
"H+	c #576623",
"I+	c #7F6554",
"J+	c #514F4B",
"K+	c #535452",
"L+	c #C4C2C0",
"M+	c #E4E4E0",
"N+	c #FAF9F2",
"O+	c #A7A6A1",
"P+	c #9A9A97",
"Q+	c #FDFCF4",
"R+	c #FEFCF6",
"S+	c #7A7976",
"T+	c #696860",
"U+	c #61761D",
"V+	c #616D3E",
"W+	c #4E4D49",
"X+	c #878685",
"Y+	c #B2B1B0",
"Z+	c #D9D8D4",
"`+	c #B7B6B2",
" @	c #CECDC8",
".@	c #DFDED9",
"+@	c #FEFCF5",
"@@	c #D8D6D1",
"#@	c #9D9C98",
"$@	c #68685F",
"%@	c #6C7D2D",
"&@	c #606C3D",
"*@	c #363635",
"=@	c #9B9A99",
"-@	c #D5D4D1",
";@	c #F9F8F1",
">@	c #D8D7D2",
",@	c #949290",
"'@	c #E7E6E0",
")@	c #FFFDF7",
"!@	c #B6B5B0",
"~@	c #696863",
"{@	c #898B6D",
"]@	c #646D42",
"^@	c #D6D4D1",
"/@	c #F9F8F2",
"(@	c #F4F2ED",
"_@	c #FCFAF3",
":@	c #6B6965",
"<@	c #677B1B",
"[@	c #5F6B3C",
"}@	c #DBDAD5",
"|@	c #CBCAC5",
"1@	c #C5C5BE",
"2@	c #ECEAE4",
"3@	c #DDDCD6",
"4@	c #D5D5CE",
"5@	c #D3D3CF",
"6@	c #CAC9C5",
"7@	c #C7C6BF",
"8@	c #F0F0E8",
"9@	c #5F6A3C",
"0@	c #F9F7F1",
"a@	c #A1A09C",
"b@	c #60605C",
"c@	c #3D3E3C",
"d@	c #D3D1CC",
"e@	c #FAF9F1",
"f@	c #FBFBF3",
"g@	c #AEAEA9",
"h@	c #969792",
"i@	c #F0F0E9",
"j@	c #898886",
"k@	c #5B5B58",
"l@	c #474745",
"m@	c #DCDBD5",
"n@	c #616C3C",
"o@	c #F9F7F2",
"p@	c #F1F0EC",
"q@	c #D7D8D4",
"r@	c #80807F",
"s@	c #3C3C3C",
"t@	c #3A3A39",
"u@	c #D2D1CC",
"v@	c #D3D2CD",
"w@	c #8E8D8A",
"x@	c #ECEBE5",
"y@	c #F5F4F0",
"z@	c #DBDCD8",
"A@	c #E5E4E0",
"B@	c #9F9E9B",
"C@	c #D6D4CF",
"D@	c #F8F7EF",
"E@	c #70706E",
"F@	c #3C3C3B",
"G@	c #3F403F",
"H@	c #BEBFBB",
"I@	c #E3E3DE",
"J@	c #616E3D",
"K@	c #EDECE8",
"L@	c #CECDCD",
"M@	c #939392",
"N@	c #7C7C79",
"O@	c #949391",
"P@	c #DFDED8",
"Q@	c #C5C4BE",
"R@	c #52514F",
"S@	c #E8E6E0",
"T@	c #EFECE9",
"U@	c #BDBBB9",
"V@	c #ECEBE6",
"W@	c #EDEBE8",
"X@	c #83817F",
"Y@	c #CAC8C6",
"Z@	c #A4A4A0",
"`@	c #8B8B89",
" #	c #7B7C7A",
".#	c #BEBFBC",
"+#	c #DCDCD8",
"@#	c #B3B3AD",
"##	c #5E5F58",
"$#	c #373736",
"%#	c #D5D3D0",
"&#	c #F8F7F1",
"*#	c #EEECE7",
"=#	c #D1D1D0",
"-#	c #D0CFCD",
";#	c #DAD9D4",
">#	c #C6C6BF",
",#	c #555453",
"'#	c #E6E5DF",
")#	c #DEDCD8",
"!#	c #525150",
"~#	c #ECEAE7",
"{#	c #848280",
"]#	c #CBC8C6",
"^#	c #F0EEE9",
"/#	c #D1CFCD",
"(#	c #DDDCD8",
"_#	c #AAAAA5",
":#	c #383B34",
"<#	c #5D6C33",
"[#	c #5D5A52",
"}#	c #6F6F6C",
"|#	c #8C8C89",
"1#	c #E8E7E2",
"2#	c #F2F0ED",
"3#	c #F4F3EE",
"4#	c #E0DFD9",
"5#	c #B3B2B0",
"6#	c #A2A19F",
"7#	c #A3A3A0",
"8#	c #A3A2A0",
"9#	c #A19F9D",
"0#	c #B7B6B4",
"a#	c #E1DFDB",
"b#	c #F2F1EC",
"c#	c #E2E1DD",
"d#	c #A2A19E",
"e#	c #787874",
"f#	c #5B5D51",
"g#	c #566620",
"h#	c #6D4C43",
"i#	c #53514C",
"j#	c #555654",
"k#	c #B5B4B2",
"l#	c #D4D2CF",
"m#	c #F3F3ED",
"n#	c #F5F6EF",
"o#	c #F5F6EE",
"p#	c #F5F5F0",
"q#	c #E6E6E1",
"r#	c #CECCCA",
"s#	c #8A8989",
"t#	c #8E8E8C",
"u#	c #CECECC",
"v#	c #929190",
"w#	c #817F7E",
"x#	c #CAC9C6",
"y#	c #F3F2ED",
"z#	c #D4D3CF",
"A#	c #585857",
"B#	c #57584F",
"C#	c #61771C",
"D#	c #5B6F14",
"E#	c #46522B",
"F#	c #544C4C",
"G#	c #5B5754",
"H#	c #585855",
"I#	c #5D5C5C",
"J#	c #6D6C6B",
"K#	c #BFBEBB",
"L#	c #D4D4D0",
"M#	c #D4D4D1",
"N#	c #CBC9C7",
"O#	c #CBC9C8",
"P#	c #D0CECC",
"Q#	c #C9C7C5",
"R#	c #B7B8B6",
"S#	c #686766",
"T#	c #656463",
"U#	c #646461",
"V#	c #626850",
"W#	c #636F41",
"X#	c #637811",
"Y#	c #506220",
"Z#	c #412A3C",
"`#	c #554B4D",
" $	c #555551",
".$	c #787875",
"+$	c #9B9A98",
"@$	c #9B9998",
"#$	c #CBCAC7",
"$$	c #C5C3C2",
"%$	c #9C9B99",
"&$	c #9A9998",
"*$	c #878887",
"=$	c #545351",
"-$	c #51524E",
";$	c #575653",
">$	c #646F41",
",$	c #472F3D",
"'$	c #59484C",
")$	c #757470",
"!$	c #A5A4A0",
"~$	c #D0CECB",
"{$	c #7C7B79",
"]$	c #393A39",
"^$	c #4A4A49",
"/$	c #4A4B4A",
"($	c #6A6A6A",
"_$	c #C7C5C3",
":$	c #D3D1CF",
"<$	c #C0BEBC",
"[$	c #5B5B59",
"}$	c #555553",
"|$	c #51514F",
"1$	c #393938",
"2$	c #484847",
"3$	c #636360",
"4$	c #777673",
"5$	c #6C6B68",
"6$	c #65665F",
"7$	c #566725",
"8$	c #637A0B",
"9$	c #5B7409",
"0$	c #496405",
"a$	c #536625",
"b$	c #65645F",
"c$	c #7B7A78",
"d$	c #E4E3DF",
"e$	c #F6F5EF",
"f$	c #91908E",
"g$	c #666664",
"h$	c #C4C3C0",
"i$	c #C6C5C3",
"j$	c #C8C6C5",
"k$	c #F3F1EC",
"l$	c #F1F0E9",
"m$	c #E0DFDA",
"n$	c #646362",
"o$	c #B8B7B5",
"p$	c #9F9F9C",
"q$	c #666560",
"r$	c #586A25",
"s$	c #637D0E",
"t$	c #5F790B",
"u$	c #445825",
"v$	c #7E7D79",
"w$	c #EFEEE8",
"x$	c #D4D2CD",
"y$	c #7D7C7B",
"z$	c #6B6B69",
"A$	c #C7C5C4",
"B$	c #C2C0BE",
"C$	c #F4F3EC",
"D$	c #D6D4D0",
"E$	c #DCDAD5",
"F$	c #DCDAD6",
"G$	c #DAD9D3",
"H$	c #939390",
"I$	c #647D0E",
"J$	c #5F780C",
"K$	c #5C7508",
"L$	c #5B7308",
"M$	c #495C25",
"N$	c #656560",
"O$	c #7D7C79",
"P$	c #464644",
"Q$	c #B4B3B3",
"R$	c #A09F9F",
"S$	c #9E9D9E",
"T$	c #A2A1A2",
"U$	c #EDEDE7",
"V$	c #EBEAE4",
"W$	c #656462",
"X$	c #383938",
"Y$	c #434240",
"Z$	c #676863",
"`$	c #6B6B68",
" %	c #696764",
".%	c #676660",
"+%	c #566925",
"@%	c #627B0D",
"#%	c #536424",
"$%	c #53544E",
"%%	c #4F504E",
"&%	c #8B8B88",
"*%	c #81817B",
"=%	c #5D5B54",
"-%	c #424240",
";%	c #CFCDCB",
">%	c #E1E0DC",
",%	c #BFBFBC",
"'%	c #81807F",
")%	c #D1CFCC",
"!%	c #DFDEDA",
"~%	c #DFDDDA",
"{%	c #CFCECA",
"]%	c #5B5A59",
"^%	c #4A4945",
"/%	c #5E5B53",
"(%	c #725D54",
"_%	c #5E5151",
":%	c #665451",
"<%	c #735852",
"[%	c #6D5750",
"}%	c #566622",
"|%	c #61790A",
"1%	c #536624",
"2%	c #52524D",
"3%	c #42423F",
"4%	c #42423E",
"5%	c #55524D",
"6%	c #6A5650",
"7%	c #50504C",
"8%	c #686865",
"9%	c #B9B8B5",
"0%	c #D5D5D1",
"a%	c #E4E4DD",
"b%	c #B6B6B3",
"c%	c #676664",
"d%	c #AFAEAB",
"e%	c #D0CFCC",
"f%	c #B2B1AF",
"g%	c #5A5A57",
"h%	c #55544F",
"i%	c #503E3E",
"j%	c #7D5446",
"k%	c #58343C",
"l%	c #633C3B",
"m%	c #7C473E",
"n%	c #73443C",
"o%	c #556420",
"p%	c #56691F",
"q%	c #5E554C",
"r%	c #60524D",
"s%	c #5C574A",
"t%	c #595E46",
"u%	c #584E36",
"v%	c #585D47",
"w%	c #5F5E58",
"x%	c #505050",
"y%	c #555555",
"z%	c #484848",
"A%	c #464645",
"B%	c #7D7E7C",
"C%	c #CCCCCA",
"D%	c #979693",
"E%	c #6E6F69",
"F%	c #646F45",
"G%	c #636E42",
"H%	c #565334",
"I%	c #6E5042",
"J%	c #4C4632",
"K%	c #5C4336",
"L%	c #6D423B",
"M%	c #67433A",
"N%	c #596A1C",
"O%	c #657B0C",
"P%	c #647B0C",
"Q%	c #617B0D",
"R%	c #5E760A",
"S%	c #5B740A",
"T%	c #54681C",
"U%	c #55671F",
"V%	c #5B6E18",
"W%	c #63780D",
"X%	c #62760C",
"Y%	c #627712",
"Z%	c #636A4D",
"`%	c #53534C",
" &	c #52534B",
".&	c #51514B",
"+&	c #555655",
"@&	c #8A8A89",
"#&	c #747471",
"$&	c #676760",
"%&	c #5B7018",
"&&	c #586A1C",
"*&	c #60760F",
"=&	c #5C7019",
"-&	c #586920",
";&	c #55691B",
">&	c #637A0E",
",&	c #667D0E",
"'&	c #5C760B",
")&	c #597308",
"!&	c #65790E",
"~&	c #6A7B25",
"{&	c #697B2A",
"]&	c #627716",
"^&	c #5F7615",
"/&	c #5E7515",
"(&	c #607916",
"_&	c #637042",
":&	c #3F413B",
"<&	c #343631",
"[&	c #363833",
"}&	c #5C5B57",
"|&	c #67685E",
"1&	c #577009",
"2&	c #5B730A",
"3&	c #5D750B",
"4&	c #667E0F",
"  . + @ # $ % & * = - ; > , ' ) ! ~ { ] ^ / / ( _ : < [ } | 1 2 ",
"3 4 / 5 6 7 % 8 9 0 a b c d e f g h i j k l 6 m n o p q r s t t ",
"6 u v 7 w x y z A B C D E F G H I J F K L M N O P Q R S T U % % ",
"( w U U V W X Y Z `  ...+.@.G H I J #.$.%.&.*.=.-.Z ;.>.,.'.).!.",
"~.% u & {.].^./.(._.:.<.[.K }.I I |.1.2.%.H 3.4.5.6.7.8.9.8 & u ",
"0.a.% b.c.d.e.f.5._.g.h.i.j.k.I I l.m.n.o.p.q.r.s.t.u.v.w.x.y.z.",
"A.B.C.D.E.F.G.H.I.J.K.L.M.N.O.I I l.P.Q.R.S.T.U.V.W.X.Y.Z.`. +.+",
"x ++@+#+$+%+&+*+I.W.=+-+P ;+>+,+,+'+)+!+~+{+]+^+/+W.X.(+_+:+<+> ",
"[+}+|+1+2+3+4+5+6+W.7+8+9+0+a+a+a+a+a+a+b+c+d+e+/+W.7+f+g+h+i+j+",
"V k+l+m+n+o+p+q+r+s+t+u+v+w+x+x+x+x+x+x+x+y+z+A+B+W.W.W.C+D+E+F+",
"G+H+I+J+K+L+M+N+O+P+t.Q+t.t.t.t.t.t.t.t.t.t.6+R+W.W.W.W.6.S+T+U+",
"u V+W+X+Y+C+Z+`+ @.@+@W.W.W.W.W.W.W.W.W.W.W.W.W.W.W.W.W.V.@@#@$@",
"%@&@*@=@-@;@>@,@'@)@W.W.W.W.W.W.W.W.W.W.W.W.W.W.W.W.W.W.W.X.!@~@",
"{@]@*@=@^@/@N+(@_@W.W.W.W.W.W.W.W.W.W.W.W.W.W.W.W.W.W.W.W.R+!@:@",
"<@[@*@=@^@/@W.Q+}@|@1@2@W.W.W.W.W.W.7+3@4@N+W.6+5@6@7@8@W.R+!@~@",
"& 9@*@=@^@0@q+;@a@b@c@d@W.W.Q+e@q+7+f@g@h@i@Q+;@j@k@l@m@t+=+!@~@",
"( n@*@=@^@o@p@q@r@s@t@u@W.W.v@w@x@y@z@A@A+B@C@D@E@F@G@H@I@B+!@~@",
"a.J@*@=@^@o@K@L@M@N@O@P@W.W.Q@R@S@T@U@V@W@X@Y@;@Z@`@ #.#+#t.@###",
"1 J@$#=@%#&#*#=#-#;#B+7+W.W.>#,#'#)#!#Z+~#{#]#7+Q+^#-#/#(#/@_#:#",
"| <#[#}#|#-@1#u.2#3#W.W.W.W.4#5#6#7#5#8#9#0#a#W.W.t.b#5.c#d#e#f#",
"/ g#h#i#j#k#l#x@m#n#o#p#p#o#q#r#s#t#u#v#w#x#A@n#n#y#x@x@z#A#B#C#",
"l D#E#F#G#H#I#J#K#L#L#*+*+M#^+/#N#O#P#Y@Q#P#H.L#L#R#S#T#U#V#W#X#",
"u u Y#Z#`# $.$]++$@$@$@$8##$/#/#/#$$%$@$@$@$@$@$&$*$=$-$;$>$( w ",
"l y.Y#,$'$)$!$~${$]$^$/$($_$/#/#:$<$[$}$|$1$2$}$}$3$4$5$6$7$8$G+",
"9$0$a$b$c$d$V.e$f$g$h$i$j$P#/#:$k$&#l$l$m$n$o$f+f+_._.p$q$r$s$t$",
"9$q u$q$v$w$w$x$y$z$r#A$B$B$B$$$C$W.W.W.x@g$8#D$E$F$G$H$q$r$I$J$",
"K$L$M$N$O$V@|@P$*@z$r#Q$R$R$S$T$U$q+q+q+V$W$X$Y$Z$`$5$ %.%+%@%J$",
"4 / #%$%%%&%*%=%-%z$;%>%6.q#,%'%)%!%~%!%{%]%^%/%(%_%:%<%[%}%t w ",
"|%v 1%2%3%4%5%6%7%8%9%0%d$a%b%c%d%B$e%f.f%g%h%i%j%k%l%m%n%o%w ( ",
"G+s p%q%r%s%t%u%v%w%2$x%y%y%z%c+A%B%C%D%E%F%G%H%I%J%K%L%M%N%O%P%",
"Q%R%S%T%U%V%W%X%Y%Z%`% & & & &.&X$+&@&#&$&F+6 %&&&*&=&-&;&>&,&,&",
"Q%'&)&L$y.u w ( !&~&{&]&^&/&(&_&:&<&[&}&|&/&r s 1&2&3&9$@%1 4&4&"};
