/* XPM */
static char * player_right2_xpm[] = {
"32 32 594 2",
"  	c #60790C",
". 	c #5E770A",
"+ 	c #5C7409",
"@ 	c #5C7509",
"# 	c #5F7609",
"$ 	c #62780B",
"% 	c #63790C",
"& 	c #64790B",
"* 	c #6B7C27",
"= 	c #8A8A6F",
"- 	c #8A8B6F",
"; 	c #687B1E",
"> 	c #61770A",
", 	c #60770A",
"' 	c #60780B",
") 	c #627A0C",
"! 	c #637B0D",
"~ 	c #62790C",
"{ 	c #5F770A",
"] 	c #5E7609",
"^ 	c #63790B",
"/ 	c #5F760B",
"( 	c #546D0A",
"_ 	c #526D08",
": 	c #546F08",
"< 	c #617A0C",
"[ 	c #647C0D",
"} 	c #647C0E",
"| 	c #60780A",
"1 	c #5F7709",
"2 	c #5F7608",
"3 	c #61780A",
"4 	c #617809",
"5 	c #63790A",
"6 	c #64790D",
"7 	c #677A1F",
"8 	c #677A1C",
"9 	c #617709",
"0 	c #61780B",
"a 	c #61770B",
"b 	c #62790B",
"c 	c #627709",
"d 	c #62770A",
"e 	c #586F09",
"f 	c #456204",
"g 	c #536D07",
"h 	c #62780A",
"i 	c #5F7712",
"j 	c #627719",
"k 	c #637912",
"l 	c #647A0C",
"m 	c #63780A",
"n 	c #63780B",
"o 	c #62790A",
"p 	c #607608",
"q 	c #627817",
"r 	c #647919",
"s 	c #627911",
"t 	c #61760A",
"u 	c #5C7309",
"v 	c #637A0C",
"w 	c #717C5A",
"x 	c #81827F",
"y 	c #6C7750",
"z 	c #667A0C",
"A 	c #64790C",
"B 	c #647A0D",
"C 	c #657B18",
"D 	c #777971",
"E 	c #838480",
"F 	c #67734B",
"G 	c #5F760A",
"H 	c #657A0B",
"I 	c #657C0D",
"J 	c #627714",
"K 	c #616E41",
"L 	c #808476",
"M 	c #A1A0A1",
"N 	c #85897A",
"O 	c #6C774E",
"P 	c #657A13",
"Q 	c #65790C",
"R 	c #60770B",
"S 	c #637A0D",
"T 	c #667C21",
"U 	c #898A86",
"V 	c #9F9E9E",
"W 	c #717764",
"X 	c #65724B",
"Y 	c #5B7310",
"Z 	c #5C7508",
"` 	c #607709",
" .	c #647A0B",
"..	c #587209",
"+.	c #657B0D",
"@.	c #616D40",
"#.	c #474745",
"$.	c #A7A8A5",
"%.	c #F1F0EB",
"&.	c #B6B5B3",
"*.	c #8F908E",
"=.	c #657920",
"-.	c #62770B",
";.	c #5D750A",
">.	c #607917",
",.	c #656961",
"'.	c #C0C0BC",
").	c #EDEDE7",
"!.	c #9C9C9B",
"~.	c #848481",
"{.	c #5B7319",
"].	c #597109",
"^.	c #536D08",
"/.	c #657B12",
"(.	c #5B6937",
"_.	c #5B624B",
":.	c #878684",
"<.	c #C4C5C0",
"[.	c #FBFAF3",
"}.	c #BDBBB9",
"|.	c #949492",
"1.	c #627920",
"2.	c #657E0F",
"3.	c #5F780B",
"4.	c #5B740A",
"5.	c #5F760C",
"6.	c #607717",
"7.	c #666963",
"8.	c #C9C9C5",
"9.	c #FBFBF4",
"0.	c #D0CFCC",
"a.	c #BCBBB7",
"b.	c #7B846B",
"c.	c #65773E",
"d.	c #576F09",
"e.	c #657D0F",
"f.	c #667D17",
"g.	c #505249",
"h.	c #535352",
"i.	c #C4C2C0",
"j.	c #E4E3DD",
"k.	c #FCFBF4",
"l.	c #BFBEBD",
"m.	c #989797",
"n.	c #68734F",
"o.	c #647636",
"p.	c #617A0D",
"q.	c #5E770B",
"r.	c #5D7509",
"s.	c #64790E",
"t.	c #627616",
"u.	c #637338",
"v.	c #6C6D6A",
"w.	c #CBCAC8",
"x.	c #FEFEF6",
"y.	c #FEFEF5",
"z.	c #E4E4E1",
"A.	c #9D9C9D",
"B.	c #7A8367",
"C.	c #607809",
"D.	c #607A0C",
"E.	c #647D0E",
"F.	c #657C16",
"G.	c #535351",
"H.	c #C5C3C1",
"I.	c #E4E4DF",
"J.	c #F1F0EA",
"K.	c #DCDCD7",
"L.	c #969696",
"M.	c #767872",
"N.	c #637917",
"O.	c #647B0D",
"P.	c #64790F",
"Q.	c #647818",
"R.	c #53554B",
"S.	c #63645F",
"T.	c #B4B4B1",
"U.	c #E2E2DB",
"V.	c #FFFFF6",
"W.	c #E5E5DE",
"X.	c #7B8568",
"Y.	c #627530",
"Z.	c #5D6B3D",
"`.	c #61635E",
" +	c #797977",
".+	c #D0CFCB",
"++	c #EAE9E4",
"@+	c #EDEFE8",
"#+	c #979797",
"$+	c #797A77",
"%+	c #5C6A3D",
"&+	c #5C6A3B",
"*+	c #5A683B",
"=+	c #5B683B",
"-+	c #5C693B",
";+	c #5D693C",
">+	c #5D683D",
",+	c #464743",
"'+	c #5F605D",
")+	c #C9C9C3",
"!+	c #EAEAE3",
"~+	c #EAE9E3",
"{+	c #B2B0AF",
"]+	c #808576",
"^+	c #61790B",
"/+	c #5E6A3D",
"(+	c #383937",
"_+	c #9B9A99",
":+	c #D3D2CF",
"<+	c #F7F7EF",
"[+	c #FEFDF6",
"}+	c #ECEBE5",
"|+	c #71716E",
"1+	c #51514F",
"2+	c #3C3C3A",
"3+	c #3B3C39",
"4+	c #3A3B38",
"5+	c #646562",
"6+	c #C9C7C5",
"7+	c #E9E9E3",
"8+	c #F9F9F2",
"9+	c #A0A19C",
"0+	c #63685D",
"a+	c #627815",
"b+	c #5E6B3C",
"c+	c #363635",
"d+	c #9D9C9A",
"e+	c #D6D6D2",
"f+	c #F9F8F0",
"g+	c #E3E3DE",
"h+	c #B6B6B2",
"i+	c #EEEDE6",
"j+	c #F9F8F1",
"k+	c #D3D3D0",
"l+	c #D1D1CD",
"m+	c #D1D0CD",
"n+	c #D1D1CC",
"o+	c #D1D1CB",
"p+	c #D7D6D2",
"q+	c #ECECE7",
"r+	c #F6F6F0",
"s+	c #A2A29E",
"t+	c #63675E",
"u+	c #637A0B",
"v+	c #63770A",
"w+	c #5F6C40",
"x+	c #5F664D",
"y+	c #60605E",
"z+	c #ABAAA7",
"A+	c #DBDAD6",
"B+	c #EBECE6",
"C+	c #CFCFCB",
"D+	c #929290",
"E+	c #E6E5E0",
"F+	c #B4B3AF",
"G+	c #848480",
"H+	c #65753A",
"I+	c #637815",
"J+	c #6C7C29",
"K+	c #4A4B48",
"L+	c #60605D",
"M+	c #C3C2BE",
"N+	c #E5E3DF",
"O+	c #F2F2EB",
"P+	c #9E9D9C",
"Q+	c #BEBDBA",
"R+	c #F4F3ED",
"S+	c #FCFCF3",
"T+	c #FFFEF6",
"U+	c #DEDDD7",
"V+	c #70726E",
"W+	c #6A734D",
"X+	c #898A6D",
"Y+	c #464644",
"Z+	c #5E5F5C",
"`+	c #CDCCC7",
" @	c #C9C8C4",
".@	c #E0DFDA",
"+@	c #E7E6E0",
"@@	c #727370",
"#@	c #636F47",
"$@	c #687A1E",
"%@	c #CCCBC7",
"&@	c #FDFCF5",
"*@	c #F9F9F1",
"=@	c #F9F9F0",
"-@	c #FAFAF2",
";@	c #FEFDF5",
">@	c #FDFDF5",
",@	c #FDFCF4",
"'@	c #626E47",
")@	c #64780B",
"!@	c #DCDBD6",
"~@	c #90908F",
"{@	c #868785",
"]@	c #A2A19F",
"^@	c #FCFCF4",
"/@	c #E8E7E2",
"(@	c #959593",
"_@	c #E4E4DE",
":@	c #D2D1CD",
"<@	c #8E8E8D",
"[@	c #848483",
"}@	c #BAB9B6",
"|@	c #65790D",
"1@	c #F6F5EF",
"2@	c #C9C8C5",
"3@	c #414140",
"4@	c #7F7F7C",
"5@	c #FCFBF3",
"6@	c #FBFBF3",
"7@	c #E2E2DC",
"8@	c #F7F6F0",
"9@	c #E2E1DC",
"0@	c #A5A4A1",
"a@	c #B9BCB8",
"b@	c #5C5D59",
"c@	c #3B3A3A",
"d@	c #9C9B9B",
"e@	c #F3F2ED",
"f@	c #626F47",
"g@	c #FBFAF4",
"h@	c #DBD9D5",
"i@	c #AAAAA6",
"j@	c #3D3E3D",
"k@	c #82827F",
"l@	c #EEF0E8",
"m@	c #BBBBB4",
"n@	c #DADBD7",
"o@	c #DBDCD7",
"p@	c #FAFAF3",
"q@	c #AAAAA5",
"r@	c #8F8F8D",
"s@	c #F4F4EC",
"t@	c #B6B9B4",
"u@	c #3F3F3D",
"v@	c #3A3A39",
"w@	c #858585",
"x@	c #D2D1CE",
"y@	c #F6F5F0",
"z@	c #616F47",
"A@	c #CDCDC7",
"B@	c #DAD8D4",
"C@	c #C5C4C2",
"D@	c #B4B3B2",
"E@	c #E3E2DD",
"F@	c #727372",
"G@	c #B8B8B4",
"H@	c #FAF9F2",
"I@	c #A3A3A1",
"J@	c #B0AFAC",
"K@	c #A9A9A4",
"L@	c #8B8B89",
"M@	c #F4F5EC",
"N@	c #ECECE5",
"O@	c #D3D3CE",
"P@	c #BEBDBB",
"Q@	c #D3D2CE",
"R@	c #61625F",
"S@	c #586147",
"T@	c #5F7711",
"U@	c #4B4D48",
"V@	c #C3C2BD",
"W@	c #DFE0DA",
"X@	c #F4F4ED",
"Y@	c #DEDFDA",
"Z@	c #D9DBD6",
"`@	c #DBDCD8",
" #	c #F7F7F0",
".#	c #B5B4B1",
"+#	c #E7E6E1",
"@#	c #8B8B8B",
"##	c #AAA9A7",
"$#	c #F6F6EE",
"%#	c #FCFCF5",
"&#	c #DDDFDA",
"*#	c #DADAD6",
"=#	c #E7E7E1",
"-#	c #D6D5D0",
";#	c #595A56",
">#	c #585B52",
",#	c #617716",
"'#	c #607031",
")#	c #5F654E",
"!#	c #585A57",
"~#	c #A7A7A4",
"{#	c #D8D7D3",
"]#	c #F5F5EE",
"^#	c #F8F8F0",
"/#	c #CFCECB",
"(#	c #A4A5A3",
"_#	c #6A6B69",
":#	c #6A6A68",
"<#	c #B1B0AF",
"[#	c #FAFAF4",
"}#	c #A1A29E",
"|#	c #62625F",
"1#	c #616851",
"2#	c #627232",
"3#	c #617230",
"4#	c #53534B",
"5#	c #82817F",
"6#	c #9C9C99",
"7#	c #B6B7B3",
"8#	c #D0D0CB",
"9#	c #E8E8E1",
"0#	c #E8E8E2",
"a#	c #E8E9E1",
"b#	c #E8E9E2",
"c#	c #E5E5DF",
"d#	c #D3D3CF",
"e#	c #C3C2C2",
"f#	c #A0A09C",
"g#	c #C3C2BF",
"h#	c #D5D4D0",
"i#	c #E7E7E2",
"j#	c #E5E6DE",
"k#	c #BFC0BC",
"l#	c #B4B7B2",
"m#	c #B7B8B4",
"n#	c #7E7D79",
"o#	c #575950",
"p#	c #637432",
"q#	c #5F751A",
"r#	c #51534A",
"s#	c #3C3D3A",
"t#	c #565654",
"u#	c #979694",
"v#	c #CBCAC6",
"w#	c #CFCECA",
"x#	c #D1CFCD",
"y#	c #D1CFCC",
"z#	c #D0CECB",
"A#	c #CCCBC6",
"B#	c #C7C7C2",
"C#	c #5E5D5B",
"D#	c #3B3938",
"E#	c #3D3C3A",
"F#	c #5D693D",
"G#	c #667A16",
"H#	c #657A0D",
"I#	c #5B7409",
"J#	c #496405",
"K#	c #5F770C",
"L#	c #586544",
"M#	c #777775",
"N#	c #C8C7C4",
"O#	c #5F5F5C",
"P#	c #5C5B58",
"Q#	c #5D5D5B",
"R#	c #B2B1AF",
"S#	c #CDCCC8",
"T#	c #5C5B59",
"U#	c #5B5B58",
"V#	c #5C5D58",
"W#	c #5D5D59",
"X#	c #61664F",
"Y#	c #606C40",
"Z#	c #647631",
"`#	c #667D0E",
" $	c #667E0E",
".$	c #637D0E",
"+$	c #5F790B",
"@$	c #4F6A0F",
"#$	c #5A624E",
"$$	c #777875",
"%$	c #EDEEE7",
"&$	c #CDCDC9",
"*$	c #403F3F",
"=$	c #747371",
"-$	c #858584",
";$	c #848383",
">$	c #BAB9B7",
",$	c #DEDED9",
"'$	c #DDDDD8",
")$	c #B5B4B0",
"!$	c #A4A59F",
"~$	c #A4A4A0",
"{$	c #676866",
"]$	c #9F9E9B",
"^$	c #7D7C7A",
"/$	c #414241",
"($	c #616D3F",
"_$	c #60780C",
":$	c #627A0D",
"<$	c #677E0F",
"[$	c #5F780C",
"}$	c #5B7308",
"|$	c #526A12",
"1$	c #4F514A",
"2$	c #616160",
"3$	c #EBEAE4",
"4$	c #CBCBC7",
"5$	c #494848",
"6$	c #B6B4B3",
"7$	c #CFCDCA",
"8$	c #FBFAF2",
"9$	c #9A9A95",
"0$	c #797975",
"a$	c #F0EFE8",
"b$	c #BFC0BD",
"c$	c #666964",
"d$	c #63781E",
"e$	c #5F770B",
"f$	c #61790C",
"g$	c #657D0E",
"h$	c #627B0D",
"i$	c #607613",
"j$	c #505149",
"k$	c #434443",
"l$	c #898986",
"m$	c #7B7B77",
"n$	c #B7B5B4",
"o$	c #DDDDD9",
"p$	c #E1DFDC",
"q$	c #E0DEDA",
"r$	c #888786",
"s$	c #9B9B98",
"t$	c #989896",
"u$	c #929292",
"v$	c #6B764F",
"w$	c #61790A",
"x$	c #627814",
"y$	c #56584F",
"z$	c #474846",
"A$	c #474845",
"B$	c #3F3F3E",
"C$	c #414141",
"D$	c #CDCCC9",
"E$	c #BAB9B8",
"F$	c #B9B8B7",
"G$	c #C0BFBD",
"H$	c #CFCDCB",
"I$	c #7F7F7E",
"J$	c #464744",
"K$	c #61655D",
"L$	c #80817E",
"M$	c #919191",
"N$	c #627332",
"O$	c #626E43",
"P$	c #636F43",
"Q$	c #545C41",
"R$	c #C4C2BF",
"S$	c #5A5B59",
"T$	c #484848",
"U$	c #4C4D4C",
"V$	c #7D7D7C",
"W$	c #CCCAC8",
"X$	c #90908E",
"Y$	c #61645D",
"Z$	c #62781E",
"`$	c #667639",
" %	c #68744A",
".%	c #647918",
"+%	c #647B0C",
"@%	c #647A0A",
"#%	c #657B0C",
"$%	c #617B0D",
"%%	c #5E760A",
"&%	c #54622D",
"*%	c #373737",
"=%	c #737472",
"-%	c #828281",
";%	c #646663",
">%	c #595B55",
",%	c #53564E",
"'%	c #52544D",
")%	c #393938",
"!%	c #525250",
"~%	c #838382",
"{%	c #737371",
"]%	c #636660",
"^%	c #5F7616",
"/%	c #62780C",
"(%	c #5C760B",
"_%	c #597308",
":%	c #53612D",
"<%	c #353434",
"[%	c #353534",
"}%	c #3F3E3E",
"|%	c #626461",
"1%	c #626E48",
"2%	c #5E7615",
"3%	c #637A1A",
"4%	c #3D3F39",
"5%	c #353433",
"6%	c #373636",
"7%	c #545554",
"8%	c #63665F",
"9%	c #5D7516",
"0%	c #577009",
"a%	c #5B730A",
"b%	c #5D750B",
"c%	c #667E0F",
"  . + @ # $ % & * = - ; > , ' ) ! ~ { ] ] , , ^ / ( _ : ) < [ } ",
"| 1 , 2 3 4 % 5 6 7 8 % ^ 9 0 a b b 3 b 3 c 3 3 d e f g { 0 ~ ~ ",
"3 h 9 4 b ! i j k l m n o c ^ h p 3 $ $ ^ % q r s t u $ & n % % ",
"^ b n n ' v w x y z ^ ^ m ^ b A ^ n > 0 B C D E F G # h l l H 5 ",
"I % h & J K L M N O P & c ^ & m Q 9 # R S T U V W X Y Z `  .& h ",
"..+.& & @.#.$.%.&.*.=.& l ^ -.A A , { ;.>.,.'.).!.~.{.@ , $ G ].",
"^.+./.(._.:.<.[.}.|.1.} 2.3.4.# > b $ 5.6.7.8.9.0.a.b.c.` 5 $ d.",
"! e.f.g.h.i.j.k.l.m.n.o.p.q.r.G > A s.t.u.v.w.x.y.z.A.B.3 C.~ R ",
"D.E.F.g.G.H.I.y.J.K.L.M.N.O., h $ P.Q.R.S.T.U.V.V.W.A.X.` $ { r.",
"' Y.Z.`. +.+++V.V.@+#+$+%+&+*+=+-+;+>+,+'+)+!+V.V.~+{+]+j , , { ",
"^+/+(+_+:+<+[+y.V.}+|+1+2+3+3+3+3+3+3+4+5+6+7+V.V.y.8+9+0+a+h , ",
"h b+c+d+e+f+g+h+i+j+k+l+m+m+n+o+o+o+o+o+p+q+r+V.V.V.k.s+t+a+u+v+",
"w+x+y+z+A+B+C+D+E+V.V.V.V.V.V.V.V.V.V.V.V.V.V.V.V.V.k.F+G+H+I+J+",
"K+L+M+N+O+P+Q+R+S+V.V.V.V.V.V.V.V.V.V.V.V.V.V.V.V.V.T+<+U+V+W+X+",
"Y+Z+`+}+j+ @.@T+V.V.V.V.V.V.V.V.V.V.V.V.V.V.V.V.V.V.V.V.+@@@#@$@",
"Y+Z+%@}+V.y.&@*@=@-@V.V.V.V.V.V.V.;@=@>@V.V.,@=@=@9.V.V.+@@@'@)@",
"Y+Z+%@}+V.V.!@~@{@]@^@V.V.V.V.V.V./@(@_@V.x.:@<@[@}@>@V.+@@@#@|@",
"Y+Z+%@}+;@1@2@Z+3@4@5@V.6@7@i+T+8@9@0@n++@6@a@b@c@d@e@S++@@@f@S ",
"Y+Z+%@}+g@h@i@j@4+k@5@V.l@@@m@^@n@o@p@q@r@s@t@u@v@w@x@y@+@@@z@3.",
"Y+Z+A@}+9.B@C@D@0.E@y.V.@+F@G@H@I@J@6@K@L@M@N@O@G@P@Q@y@W.R@S@T@",
"U@L+V@W@X@Y@Z@`@ #V.V.V.l@x .#+#@#_+/@##P+$#V.%#&#Z@*#=#-#;#>#,#",
"'#)#!#~#{#]#9.9.;@V.V.V.^#/#(#_#D@D@:#<#k+[.V.x.g@[# #}#|#1#2#n ",
"h 3#4#5#6#7#8#9#0#a#b#b#c#d#Q+s+2@e#f#g#h#i#9#j#k#l#m#n#o#p#^ b ",
"> G q#r#s#t#u#v#%@%@%@w#x#y#y#z#%@v#v#v#A#%@%@B#C#D#E#F#G#H#u+^+",
"I#J#K#L#M#E@N#O#P#P#Q#R#y#y#y#S#x T#T#P#U#T#V#W#X#Y#@.Z#`# $.$+$",
"I#g @$#$$$%$&$*$=$-$;$>$d#,$9@'$)$!$~${$1+]$^$/$($~ _$:$2.<$E.[$",
"Z }$|$1$2$3$4$5$6$7$7$.+p+<+;@>@&@,@8$9$0$a$b$c$d$' e$f$! g$h$[$",
"1 , i$j$k$l$m$k$n$y#y#y#Q@o$p$p$p$p$q$r$1+s$t$u$v$3 > ' 0 B ~ b ",
"w$9 x$y$z$A$B$C$n$D$E$F$F$F$F$F$F$G$H$I$J$K$L$M$v$o d , ^ n b ^ ",
"^+0 ' N$O$P$Q$C$6$R$@@S$T$U$U$U$U$V$W$X$Y$Z$`$ %.%h v +%m @%#%+%",
"$%%%Z ] 3 o &%*%=%-%;%>%,%,%,%'%)%!%~%{%]%^%3 5 $ /%O.O.3.O.`#`#",
"$%(%_%}$G h :%<%[%}%|%1%^%2%>.3%4%5%6%7%8%9%{ 0 0%a%b%I#h$[ c%c%"};
