/* XPM */
static char * score4_xpm[] = {
"16 16 81 1",
" 	c None",
".	c #BA9F94",
"+	c #EE7814",
"@	c #E37318",
"#	c #C77951",
"$	c #BBA296",
"%	c #F07A10",
"&	c #FA7A02",
"*	c #FC7901",
"=	c #E4791B",
"-	c #B9A194",
";	c #ED8012",
">	c #F78003",
",	c #FA7E02",
"'	c #E17D22",
")	c #B8A193",
"!	c #ED8616",
"~	c #F48602",
"{	c #F58604",
"]	c #DB8125",
"^	c #BAA596",
"/	c #E98D18",
"(	c #F08C03",
"_	c #F18C04",
":	c #D28629",
"<	c #B88033",
"[	c #EC9304",
"}	c #EF9304",
"|	c #CE8A33",
"1	c #BE8F4D",
"2	c #E99A03",
"3	c #DD9812",
"4	c #AB8C61",
"5	c #BCA589",
"6	c #D3921B",
"7	c #E99C05",
"8	c #E79F06",
"9	c #B28C54",
"0	c #A48C6C",
"a	c #C3A36F",
"b	c #E7A303",
"c	c #E7A405",
"d	c #E7A502",
"e	c #E8A402",
"f	c #E6A502",
"g	c #E6A403",
"h	c #E5A306",
"i	c #E7A504",
"j	c #BB8E3A",
"k	c #C1AD81",
"l	c #E7AD03",
"m	c #E4AF02",
"n	c #E6AE03",
"o	c #E6AE02",
"p	c #E3AF02",
"q	c #E5AD03",
"r	c #E3AE03",
"s	c #E7AE02",
"t	c #C5A362",
"u	c #B6AB8C",
"v	c #D0AB1F",
"w	c #C9A122",
"x	c #BD9731",
"y	c #C7A42B",
"z	c #E5B802",
"A	c #E6B602",
"B	c #E6BA15",
"C	c #BB9F4B",
"D	c #BCB196",
"E	c #C1B385",
"F	c #E7C201",
"G	c #E5C101",
"H	c #E5C329",
"I	c #BBA36A",
"J	c #DBAA02",
"K	c #DBAA01",
"L	c #D3A617",
"M	c #917454",
"N	c #AC8051",
"O	c #AA845D",
"P	c #A08261",
"                ",
"                ",
"       .+@#     ",
"      $%&*=     ",
"     -;>,'      ",
"    )!~{]       ",
"   ^/(_:        ",
"   <[}|         ",
"   1234567890   ",
"   abcdefghij   ",
"   klmnopqrst   ",
"   uvwxyzABCD   ",
"       EFGH     ",
"       IJKL     ",
"       MNOP     ",
"                "};
