/* XPM */
static char * score6_xpm[] = {
"16 16 76 1",
" 	c None",
".	c #BB8771",
"+	c #D7752C",
"@	c #B88972",
"#	c #F77C0A",
"$	c #F97904",
"%	c #DA7824",
"&	c #BA9C8C",
"*	c #F3800F",
"=	c #F87C02",
"-	c #F8800F",
";	c #BA8362",
">	c #EA8213",
",	c #F48304",
"'	c #F7860A",
")	c #BF8662",
"!	c #CA8335",
"~	c #F28B03",
"{	c #F08A02",
"]	c #CD7D1A",
"^	c #ED940E",
"/	c #ED9102",
"(	c #EC9203",
"_	c #E99309",
":	c #EF940E",
"<	c #EA9615",
"[	c #BD8E5D",
"}	c #C38D35",
"|	c #EB9904",
"1	c #E89903",
"2	c #EA9A03",
"3	c #EA9C17",
"4	c #EB9B0D",
"5	c #EB9805",
"6	c #EB9C0F",
"7	c #B99E7C",
"8	c #DDA115",
"9	c #E4A005",
"0	c #E6A40C",
"a	c #BE995F",
"b	c #B8A18A",
"c	c #E4A210",
"d	c #E5A104",
"e	c #CD9526",
"f	c #E7AF17",
"g	c #E5AA03",
"h	c #D2A31A",
"i	c #DDAA1A",
"j	c #E5AA06",
"k	c #D3A01D",
"l	c #E4B517",
"m	c #E5B401",
"n	c #D5AC1C",
"o	c #B8A77E",
"p	c #E8B60A",
"q	c #E5B402",
"r	c #BFA14B",
"s	c #CEAF24",
"t	c #E5BD05",
"u	c #E6BE07",
"v	c #CFB318",
"w	c #CDAD1E",
"x	c #E6BE12",
"y	c #E3BE04",
"z	c #E1BC1F",
"A	c #E4BD14",
"B	c #E0BD02",
"C	c #E4BA04",
"D	c #E0BB04",
"E	c #E3BB02",
"F	c #D9B91A",
"G	c #AE9876",
"H	c #C88A12",
"I	c #CD8F13",
"J	c #C58C11",
"K	c #AE8A4B",
"                ",
"                ",
"        .+      ",
"       @#$%     ",
"      &*=-;     ",
"      >,')      ",
"     !~{]       ",
"     ^/(_:<[    ",
"    }|1234567   ",
"    890a bcde   ",
"    fgh   ijk   ",
"    lmn  opqr   ",
"    stuvwxyz    ",
"     ABCDEF     ",
"     GHIJK      ",
"                "};
