/* XPM */
static char * score10_xpm[] = {
"56 16 3 1",
" 	c None",
".	c #FFFFFF",
"+	c #FEFEFE",
"                                                        ",
"                                                        ",
"    .        ..+        ...      ...+     ....          ",
"  ....+    .....++    ......+   +.....   .....          ",
"  .++.+   ..+  ++.   ..++ .+..  +..++.. +..++           ",
" ...     ..+     +  +.+     +.  +.+  .. +.+             ",
"  ..+    ..         ..       .+ +.+  .. +.+             ",
"  +..+   ..         ..       .. +.+...+ +.....          ",
"    ...  ..         ..       .. +....+  +.....          ",
"     +.. ..         ..+     +.+ +.+..   +.+             ",
" ..   .. ..+     +   ..     ..  +.++.+  +.+             ",
" ......   +.......   +.....+..  +.+ ..  +.....          ",
"  .....    ......     .....+     .   ..  .....          ",
"                         .                              ",
"                                                        ",
"                                                        "};
