/* XPM */
static char * score3_xpm[] = {
"16 16 83 1",
" 	c None",
".	c #CB7034",
"+	c #F37A17",
"@	c #FB7807",
"#	c #FB7604",
"$	c #F9780C",
"%	c #E77413",
"&	c #B89383",
"*	c #E4791C",
"=	c #FB7905",
"-	c #FB7A03",
";	c #FB7902",
">	c #FC7902",
",	c #FC7904",
"'	c #FB7903",
")	c #F47F14",
"!	c #BD8E71",
"~	c #F8840B",
"{	c #E77F16",
"]	c #D0721D",
"^	c #DF7A16",
"/	c #FA7F03",
"(	c #F88002",
"_	c #F97E02",
":	c #C6855E",
"<	c #B28D72",
"[	c #EA8611",
"}	c #F68403",
"|	c #F58604",
"1	c #C18E69",
"2	c #BF916D",
"3	c #EE8D0A",
"4	c #F08D03",
"5	c #DC8822",
"6	c #ED991D",
"7	c #EC9506",
"8	c #EB9202",
"9	c #DB8F17",
"0	c #D4961F",
"a	c #E59A19",
"b	c #E89A03",
"c	c #E69B09",
"d	c #CB912B",
"e	c #CF9A2B",
"f	c #E6A203",
"g	c #E6A406",
"h	c #BD964E",
"i	c #C49B2C",
"j	c #C29B45",
"k	c #E6AC03",
"l	c #E3AC02",
"m	c #DCAA14",
"n	c #BEA34E",
"o	c #E7B605",
"p	c #E8B70C",
"q	c #D7AC1D",
"r	c #CBA412",
"s	c #E6B611",
"t	c #E4B502",
"u	c #E3B502",
"v	c #DEB51A",
"w	c #B8AF8E",
"x	c #E9C316",
"y	c #E3C103",
"z	c #E5BF02",
"A	c #E5BF01",
"B	c #E7BE01",
"C	c #E4BF02",
"D	c #E3C003",
"E	c #C9AE2A",
"F	c #BEA851",
"G	c #DEB815",
"H	c #E0B802",
"I	c #DFB701",
"J	c #DEB804",
"K	c #DFB602",
"L	c #E1B703",
"M	c #DCBB17",
"N	c #B4966E",
"O	c #B47F0C",
"P	c #C58611",
"Q	c #C38612",
"R	c #AE8029",
"                ",
"                ",
"     .+@#$%&    ",
"    *=-;>,')    ",
"    !~{]^/(_:   ",
"     <   [}|1   ",
"        2345    ",
"       6789     ",
"       0abcd    ",
"         efgh   ",
"     i   jklm   ",
"    nopqrstuv   ",
"   wxyzABCzDE   ",
"    FGHIJKLM    ",
"      NOPQR     ",
"                "};
