/* XPM */
static char * score5_xpm[] = {
"16 16 80 1",
" 	c None",
".	c #BB9585",
"+	c #CA9582",
"@	c #CC8A71",
"#	c #C87D59",
"$	c #C26B38",
"%	c #C56725",
"&	c #C46A28",
"*	c #F67D11",
"=	c #FC7802",
"-	c #FE7701",
";	c #FD7701",
">	c #FD7703",
",	c #F6790D",
"'	c #F97F06",
")	c #F97D03",
"!	c #E0760F",
"~	c #DD7109",
"{	c #DD750C",
"]	c #DF7610",
"^	c #DA7A1E",
"/	c #F68502",
"(	c #EE8711",
"_	c #C6AC9C",
":	c #F48B02",
"<	c #DD8210",
"[	c #BD8457",
"}	c #C0792E",
"|	c #C58D67",
"1	c #C8A383",
"2	c #EF9203",
"3	c #EE9103",
"4	c #EB9004",
"5	c #EB9513",
"6	c #BC8A56",
"7	c #A58B6B",
"8	c #C0915A",
"9	c #C19D75",
"0	c #BE9366",
"a	c #DB941E",
"b	c #E89A03",
"c	c #E99806",
"d	c #EB9B0D",
"e	c #C0A683",
"f	c #E7A104",
"g	c #E6A003",
"h	c #E4A201",
"i	c #BFA685",
"j	c #CDA230",
"k	c #E7AC03",
"l	c #E3AD02",
"m	c #E7AE0D",
"n	c #BBAD87",
"o	c #C6B89A",
"p	c #BEAA6F",
"q	c #D4AE1E",
"r	c #E7B606",
"s	c #E6B507",
"t	c #E5B701",
"u	c #D9B317",
"v	c #CEB11A",
"w	c #E8C105",
"x	c #E5C103",
"y	c #E5C003",
"z	c #E4C001",
"A	c #E7C002",
"B	c #E5C519",
"C	c #BAAD84",
"D	c #B99F50",
"E	c #DDAC02",
"F	c #DBAC02",
"G	c #DDAD01",
"H	c #DDAE07",
"I	c #D1AC1C",
"J	c #B8AC86",
"K	c #AB9B89",
"L	c #AA7A37",
"M	c #AD7D42",
"N	c #AC8862",
"O	c #BAAC9A",
"                ",
"                ",
"     .+@#$%&    ",
"     *=-;;>,    ",
"     ')!~{]^    ",
"     /(         ",
"    _:<[}|      ",
"    12334356    ",
"    7890abcd    ",
"        efghi   ",
"        jklm    ",
"    nopqrstu    ",
"    vwxyzABC    ",
"    DEFGHIJ     ",
"    KLMNO       ",
"                "};
