/* XPM */
static char * score0_xpm[] = {
"16 16 95 2",
"  	c None",
". 	c #BE8F7A",
"+ 	c #C86C2E",
"@ 	c #C8733E",
"# 	c #C09D8E",
"$ 	c #E37519",
"% 	c #FC7804",
"& 	c #FB7702",
"* 	c #FA7802",
"= 	c #FA7806",
"- 	c #C57746",
"; 	c #EE7D18",
"> 	c #F77D03",
", 	c #F97C03",
"' 	c #FA7B01",
") 	c #FB7A03",
"! 	c #F97C01",
"~ 	c #F87F0D",
"{ 	c #BFA698",
"] 	c #DD801D",
"^ 	c #F88103",
"/ 	c #F78103",
"( 	c #F2850E",
"_ 	c #E68216",
": 	c #F6840A",
"< 	c #F78106",
"[ 	c #F68203",
"} 	c #CA7A3A",
"| 	c #BD987E",
"1 	c #F38905",
"2 	c #F18903",
"3 	c #EA8915",
"4 	c #BAA599",
"5 	c #C38A5F",
"6 	c #F48904",
"7 	c #F38704",
"8 	c #E48715",
"9 	c #CD831D",
"0 	c #ED8F04",
"a 	c #EF8F02",
"b 	c #BD926D",
"c 	c #EE9216",
"d 	c #ED8E01",
"e 	c #EB9112",
"f 	c #DE9714",
"g 	c #E99703",
"h 	c #EB9B13",
"i 	c #E89A20",
"j 	c #EA9703",
"k 	c #EA9A16",
"l 	c #E39F16",
"m 	c #E79E03",
"n 	c #E3A31A",
"o 	c #E9A316",
"p 	c #E69E03",
"q 	c #E2A016",
"r 	c #DEA619",
"s 	c #E5A802",
"t 	c #EAAB13",
"u 	c #BFA57F",
"v 	c #E6A905",
"w 	c #E6A702",
"x 	c #CC9A17",
"y 	c #C8A026",
"z 	c #E5B102",
"A 	c #E7B203",
"B 	c #BCA466",
"C 	c #DAAD1E",
"D 	c #E4B103",
"E 	c #E6B305",
"F 	c #BDA571",
"G 	c #BEAE80",
"H 	c #E5BD07",
"I 	c #E5BA05",
"J 	c #E7BC10",
"K 	c #D3AE10",
"L 	c #E2BA19",
"M 	c #E6BB01",
"N 	c #E5BA02",
"O 	c #DDB81E",
"P 	c #D5B820",
"Q 	c #E5C102",
"R 	c #E5C002",
"S 	c #E3C102",
"T 	c #E4C103",
"U 	c #E7BF05",
"V 	c #E6C211",
"W 	c #B9AE86",
"X 	c #C19327",
"Y 	c #D59D0C",
"Z 	c #D29905",
"` 	c #D39C0D",
" .	c #C5941A",
"..	c #B4A78E",
"+.	c #B7A79C",
"                                ",
"              . + @ #           ",
"            $ % & * = -         ",
"          ; > , ' ) ! ~ {       ",
"        ] ^ / ( _ : < [ }       ",
"      | 1 2 3 4   5 6 7 8       ",
"      9 0 a b       c d e       ",
"      f g h         i j k       ",
"      l m n         o p q       ",
"      r s t       u v w x       ",
"      y z A B     C D E F       ",
"      G H I J K L M N O         ",
"        P Q R S T U V W         ",
"          X Y Z `  ...          ",
"              +.                ",
"                                "};
