/* XPM */
static char * score7_xpm[] = {
"16 16 73 1",
" 	c None",
".	c #C8937D",
"+	c #C18368",
"@	c #C27D5D",
"#	c #CB7D53",
"$	c #CF7542",
"%	c #C86F2B",
"&	c #F7790D",
"*	c #FC7702",
"=	c #FD7701",
"-	c #FD7601",
";	c #FD7602",
">	c #FC7700",
",	c #FC7701",
"'	c #E6740C",
")	c #F07C0D",
"!	c #FA7D01",
"~	c #FB7E01",
"{	c #FA7E03",
"]	c #F97E03",
"^	c #FB7C02",
"/	c #F97C01",
"(	c #C77947",
"_	c #B9825B",
":	c #C18F6E",
"<	c #D97A10",
"[	c #F68304",
"}	c #F78406",
"|	c #F08D0C",
"1	c #F18903",
"2	c #ED8A14",
"3	c #AD9A8A",
"4	c #BF7E28",
"5	c #DA871A",
"6	c #EC9002",
"7	c #ED9004",
"8	c #EC9105",
"9	c #C0801D",
"0	c #C8A57D",
"a	c #EB9704",
"b	c #E89902",
"c	c #E69804",
"d	c #EA9704",
"e	c #E89702",
"f	c #C78B32",
"g	c #AD9470",
"h	c #C89330",
"i	c #E6A008",
"j	c #E5A004",
"k	c #E8A104",
"l	c #C19342",
"m	c #B1A089",
"n	c #BEA778",
"o	c #E6AA05",
"p	c #E3AC03",
"q	c #E8AE14",
"r	c #CDA523",
"s	c #E4B402",
"t	c #E4B303",
"u	c #D8B01D",
"v	c #E5C114",
"w	c #E6BF01",
"x	c #E5BE02",
"y	c #C6A93C",
"z	c #BDAE82",
"A	c #E1B904",
"B	c #DEB902",
"C	c #E0B902",
"D	c #BEB07F",
"E	c #9E896D",
"F	c #AA7C32",
"G	c #B17F20",
"H	c #B9841B",
"                ",
"                ",
"      .+@#$%    ",
"    &*=-;>,'    ",
"    )!~{]^/(    ",
"    _:  <[}     ",
"        |12     ",
"     3456789    ",
"     0abcdef    ",
"     ghijklm    ",
"      nopq      ",
"      rstu      ",
"      vwxy      ",
"     zABCD      ",
"     EFGH       ",
"                "};
