/* XPM */
static char * score2_xpm[] = {
"16 16 100 2",
"  	c None",
". 	c #C6A499",
"+ 	c #CA9381",
"@ 	c #C57645",
"# 	c #F17912",
"$ 	c #FB7504",
"% 	c #FC7600",
"& 	c #FA7808",
"* 	c #E2761F",
"= 	c #B89C8F",
"- 	c #E87C11",
"; 	c #FB7A03",
"> 	c #FC7A01",
", 	c #FA7B01",
"' 	c #F97B00",
") 	c #FA7905",
"! 	c #FB7A01",
"~ 	c #EF7A12",
"{ 	c #F0871C",
"] 	c #F97F05",
"^ 	c #F87F03",
"/ 	c #F78002",
"( 	c #F6820F",
"_ 	c #E77F17",
": 	c #FB8106",
"< 	c #F78003",
"[ 	c #F68002",
"} 	c #CC762F",
"| 	c #C28551",
"1 	c #F48707",
"2 	c #F48A0E",
"3 	c #C97F3F",
"4 	c #DB7F15",
"5 	c #F48601",
"6 	c #F38603",
"7 	c #DF8113",
"8 	c #CD8528",
"9 	c #BAA08F",
"0 	c #B79983",
"a 	c #EF8F10",
"b 	c #EF8C03",
"c 	c #F08C02",
"d 	c #C68130",
"e 	c #B79A7B",
"f 	c #E99612",
"g 	c #EB9402",
"h 	c #EA9503",
"i 	c #E59414",
"j 	c #BB9563",
"k 	c #E89D13",
"l 	c #E79B05",
"m 	c #E89C04",
"n 	c #E19C1A",
"o 	c #B9A593",
"p 	c #BF9A52",
"q 	c #E8A60A",
"r 	c #E7A405",
"s 	c #E6A606",
"t 	c #D09929",
"u 	c #C2A14D",
"v 	c #E4B008",
"w 	c #E6AD03",
"x 	c #E6AF09",
"y 	c #B5964C",
"z 	c #BAA67A",
"A 	c #E5BA0F",
"B 	c #E5B603",
"C 	c #E6B801",
"D 	c #E5B905",
"E 	c #D5AE12",
"F 	c #D8B21E",
"G 	c #E3B818",
"H 	c #E9BE10",
"I 	c #C5B592",
"J 	c #C0A529",
"K 	c #E5C201",
"L 	c #E7C101",
"M 	c #E5C104",
"N 	c #E6C101",
"O 	c #E6C004",
"P 	c #E8C001",
"Q 	c #E4C201",
"R 	c #E7C203",
"S 	c #C6BB99",
"T 	c #B5902A",
"U 	c #DAAB01",
"V 	c #D9AA01",
"W 	c #D9AA02",
"X 	c #DAAA01",
"Y 	c #D9AB02",
"Z 	c #D9AB03",
"` 	c #D9AB07",
" .	c #DDAD09",
"..	c #8F6D45",
"+.	c #AC7F4A",
"@.	c #AB8459",
"#.	c #A88760",
"$.	c #AC8E70",
"%.	c #B79C86",
"&.	c #BDA898",
"                                ",
"              . +               ",
"          @ # $ % & *           ",
"      = - ; > , ' ) ! ~         ",
"      { ] ^ / ( _ : < [ }       ",
"      | 1 2 3     4 5 6 7       ",
"        8 9     0 a b c d       ",
"              e f g h i         ",
"            j k l m n o         ",
"          p q r s t             ",
"        u v w x y               ",
"      z A B C D E F G H I       ",
"      J K L M N O P Q R S       ",
"      T U V W X Y Z `  .        ",
"      ..+.@.#.$.%.&.            ",
"                                "};
