/* XPM */
static char * score1_xpm[] = {
"16 16 59 1",
" 	c None",
".	c #B9744E",
"+	c #D46F22",
"@	c #E07115",
"#	c #F3760C",
"$	c #C58967",
"%	c #C97948",
"&	c #FC7905",
"*	c #FA7901",
"=	c #FC7900",
"-	c #CA937A",
";	c #CD7C3F",
">	c #F78006",
",	c #F67F01",
"'	c #F77F01",
")	c #F87E01",
"!	c #F97F01",
"~	c #C49881",
"{	c #E48319",
"]	c #EB8616",
"^	c #CE771B",
"/	c #F38502",
"(	c #F58402",
"_	c #F58502",
":	c #C29D89",
"<	c #C29A78",
"[	c #F28B01",
"}	c #F28B02",
"|	c #F28C03",
"1	c #C49E7B",
"2	c #EF9202",
"3	c #ED9202",
"4	c #EE9405",
"5	c #C3A37D",
"6	c #E99A02",
"7	c #E69A01",
"8	c #E99D0B",
"9	c #C2A67D",
"0	c #E6A304",
"a	c #E3A303",
"b	c #E7A611",
"c	c #C7B187",
"d	c #E6AC03",
"e	c #E2AD03",
"f	c #E7B01A",
"g	c #C8B588",
"h	c #E6B603",
"i	c #E4B602",
"j	c #E8B91A",
"k	c #CABB8C",
"l	c #E6C003",
"m	c #E5C003",
"n	c #E7C119",
"o	c #DEB202",
"p	c #DDB202",
"q	c #DAB217",
"r	c #B09674",
"s	c #AB8550",
"t	c #A57825",
"                ",
"                ",
"      .+@#$     ",
"     %&*==-     ",
"    ;>,')!~     ",
"    {]^/(_:     ",
"      <[}|      ",
"      1234      ",
"      5678      ",
"      90ab      ",
"      cdef      ",
"      ghij      ",
"      klmn      ",
"       opq      ",
"       rst      ",
"                "};
