/* XPM */
static char * score8_xpm[] = {
"16 16 85 1",
" 	c None",
".	c #C8774A",
"+	c #E06B00",
"@	c #DF6C04",
"#	c #C27952",
"$	c #BD7D59",
"%	c #F67C12",
"&	c #FB7703",
"*	c #FB7804",
"=	c #FB7803",
"-	c #D47226",
";	c #BB8F76",
">	c #F87F0D",
",	c #F77E09",
"'	c #D0793D",
")	c #C1886B",
"!	c #F17D10",
"~	c #F97C03",
"{	c #F6810D",
"]	c #DC7B0D",
"^	c #F58301",
"/	c #E17F14",
"(	c #D6781D",
"_	c #F68202",
":	c #F6870A",
"<	c #E2850F",
"[	c #F28801",
"}	c #DB8218",
"|	c #EA8911",
"1	c #F38902",
"2	c #DF8814",
"3	c #BF8D5A",
"4	c #EE9206",
"5	c #EE9109",
"6	c #D4871E",
"7	c #E28E15",
"8	c #EE9004",
"9	c #EF9109",
"0	c #B6947B",
"a	c #E49612",
"b	c #E89805",
"c	c #EB9702",
"d	c #E99604",
"e	c #E89906",
"f	c #E99A04",
"g	c #C38E40",
"h	c #CA9935",
"i	c #E8A004",
"j	c #E8A10F",
"k	c #CA922C",
"l	c #C7923A",
"m	c #E6A20F",
"n	c #E69F04",
"o	c #E5A310",
"p	c #E8AA09",
"q	c #E4AA04",
"r	c #C09B4C",
"s	c #CA9921",
"t	c #E5A900",
"u	c #E7A903",
"v	c #B99936",
"w	c #E5B205",
"x	c #EAB409",
"y	c #C7A125",
"z	c #E5B301",
"A	c #E8B608",
"B	c #BDA457",
"C	c #E4BD01",
"D	c #E5BE06",
"E	c #BDAD81",
"F	c #E6BF14",
"G	c #E5BC04",
"H	c #DBB720",
"I	c #E1C01A",
"J	c #E1BE01",
"K	c #E2BE18",
"L	c #CEB019",
"M	c #E3BF13",
"N	c #E1BE03",
"O	c #E2BF1E",
"P	c #BE8D1B",
"Q	c #CE950E",
"R	c #D1940B",
"S	c #CD9419",
"T	c #B78A26",
"                ",
"       .+@#     ",
"     $%&**=-    ",
"    ;>,')!~{    ",
"    ]^/  (_:    ",
"    <[}  |12    ",
"    34567890    ",
"     abcdefg    ",
"    hijklmno    ",
"    pqr  stu    ",
"   vwx   yzA    ",
"   BCDE  FGH    ",
"    IJKLMNO     ",
"     PQRST      ",
"                ",
"                "};
