/* XPM */
static char * score9_xpm[] = {
"16 16 74 1",
" 	c None",
".	c #C57A54",
"+	c #E16D09",
"@	c #E7700A",
"#	c #C47649",
"$	c #B98F7C",
"%	c #F17A19",
"&	c #FB7902",
"*	c #FA7903",
"=	c #FB7802",
"-	c #FA7804",
";	c #CE7536",
">	c #B79784",
",	c #F4800C",
"'	c #F77D02",
")	c #F87F0C",
"!	c #E67912",
"~	c #F67F0C",
"{	c #F97C02",
"]	c #F57F0C",
"^	c #E38313",
"/	c #F58202",
"(	c #EE8212",
"_	c #BB927C",
":	c #F78407",
"<	c #F68302",
"[	c #BF7B41",
"}	c #F38E0B",
"|	c #F48800",
"1	c #C48452",
"2	c #F18C0C",
"3	c #F28901",
"4	c #C47826",
"5	c #F0930E",
"6	c #EF8F03",
"7	c #CF852E",
"8	c #CC8B3C",
"9	c #EE8F02",
"0	c #ED8F02",
"a	c #C08546",
"b	c #D99217",
"c	c #EC9504",
"d	c #E8990A",
"e	c #DC9519",
"f	c #E39619",
"g	c #ED9805",
"h	c #E99706",
"i	c #EA990C",
"j	c #DE9D18",
"k	c #E8A00A",
"l	c #E7A209",
"m	c #E49E05",
"n	c #E69E03",
"o	c #E59F03",
"p	c #DB9B17",
"q	c #A48D6C",
"r	c #E5AA0C",
"s	c #E3A902",
"t	c #E7A90D",
"u	c #BAA177",
"v	c #C6A540",
"w	c #E7B205",
"x	c #E4B202",
"y	c #CEA62D",
"z	c #C9AB44",
"A	c #E7BC06",
"B	c #E4BB03",
"C	c #DEB71A",
"D	c #ADA16B",
"E	c #E6C312",
"F	c #E3C105",
"G	c #E1C014",
"H	c #B19765",
"I	c #CF9B16",
"                ",
"       .+@#     ",
"     $%&*=-;    ",
"    >,')!~{]    ",
"    ^/(  _:<[   ",
"    }|1   234   ",
"    567  890a   ",
"    bcdefghi    ",
"     jklmnop    ",
"       qrstu    ",
"       vwxy     ",
"      zABC      ",
"     DEFG       ",
"      HI        ",
"                ",
"                "};
