/* XPM */
static char * wall7_xpm[] = {
"32 32 470 2",
"  	c #60790C",
". 	c #5E770A",
"+ 	c #5C7409",
"@ 	c #5C7509",
"# 	c #5F7609",
"$ 	c #62780B",
"% 	c #63790C",
"& 	c #64790B",
"* 	c #607327",
"= 	c #6A7058",
"- 	c #6B705C",
"; 	c #4A5A1A",
"> 	c #45580D",
", 	c #4C631F",
"' 	c #3F5522",
") 	c #192A14",
"! 	c #0A1C0A",
"~ 	c #0B1C0B",
"{ 	c #0C1E0B",
"] 	c #22341B",
"^ 	c #182913",
"/ 	c #3A4B16",
"( 	c #425919",
"_ 	c #506A17",
": 	c #627A0C",
"< 	c #617A0C",
"[ 	c #647C0D",
"} 	c #647C0E",
"| 	c #60780A",
"1 	c #5F7709",
"2 	c #60770A",
"3 	c #5F7608",
"4 	c #61780A",
"5 	c #597018",
"6 	c #50651F",
"7 	c #50641D",
"8 	c #415521",
"9 	c #1C2E17",
"0 	c #13230F",
"a 	c #0B1C0A",
"b 	c #1F3019",
"c 	c #1A2D16",
"d 	c #152F15",
"e 	c #214621",
"f 	c #214F21",
"g 	c #204620",
"h 	c #112811",
"i 	c #132C13",
"j 	c #224E22",
"k 	c #112711",
"l 	c #101F0D",
"m 	c #364A18",
"n 	c #4A6019",
"o 	c #62790C",
"p 	c #62780A",
"q 	c #617709",
"r 	c #617809",
"s 	c #5A7118",
"t 	c #425823",
"u 	c #20341A",
"v 	c #192C15",
"w 	c #152913",
"x 	c #142D14",
"y 	c #214521",
"z 	c #214421",
"A 	c #224622",
"B 	c #245424",
"C 	c #186818",
"D 	c #244924",
"E 	c #244B24",
"F 	c #235723",
"G 	c #1B661B",
"H 	c #235823",
"I 	c #102710",
"J 	c #0B1D0B",
"K 	c #12210F",
"L 	c #3E521E",
"M 	c #63790B",
"N 	c #62790B",
"O 	c #63780B",
"P 	c #4E651F",
"Q 	c #253A1E",
"R 	c #1F401F",
"S 	c #1E3F1E",
"T 	c #163216",
"U 	c #224F22",
"V 	c #234B23",
"W 	c #274E27",
"X 	c #255425",
"Y 	c #186918",
"Z 	c #156C15",
"` 	c #245624",
" .	c #235923",
"..	c #176A17",
"+.	c #116F11",
"@.	c #255325",
"#.	c #244A24",
"$.	c #122A12",
"%.	c #122410",
"&.	c #3E501A",
"*.	c #596F16",
"=.	c #657C0D",
"-.	c #516721",
";.	c #2F4526",
">.	c #182F16",
",.	c #173317",
"'.	c #224722",
").	c #245524",
"!.	c #1B651B",
"~.	c #107010",
"{.	c #146D14",
"].	c #225A22",
"^.	c #264F26",
"/.	c #0D1E0C",
"(.	c #394A16",
"_.	c #587209",
":.	c #657B0D",
"<.	c #5B7019",
"[.	c #415622",
"}.	c #1B3017",
"|.	c #117011",
"1.	c #265126",
"2.	c #0C210C",
"3.	c #081507",
"4.	c #536D08",
"5.	c #516720",
"6.	c #21331A",
"7.	c #112710",
"8.	c #265026",
"9.	c #0C1F0C",
"0.	c #051105",
"a.	c #637B0D",
"b.	c #657D0F",
"c.	c #5D751A",
"d.	c #445B25",
"e.	c #23371D",
"f.	c #0B1D0A",
"g.	c #152310",
"h.	c #607A0C",
"i.	c #5C741A",
"j.	c #435823",
"k.	c #1C3018",
"l.	c #163016",
"m.	c #214721",
"n.	c #20301A",
"o.	c #60780B",
"p.	c #4F651F",
"q.	c #1D2E17",
"r.	c #196819",
"s.	c #166B16",
"t.	c #146C14",
"u.	c #587019",
"v.	c #3F5421",
"w.	c #152812",
"x.	c #215D21",
"y.	c #225922",
"z.	c #176217",
"A.	c #122912",
"B.	c #0C200C",
"C.	c #091808",
"D.	c #4C611C",
"E.	c #275027",
"F.	c #1A671A",
"G.	c #205520",
"H.	c #163E16",
"I.	c #1D401D",
"J.	c #081808",
"K.	c #182813",
"L.	c #384916",
"M.	c #091908",
"N.	c #126F12",
"O.	c #196619",
"P.	c #1E501E",
"Q.	c #143014",
"R.	c #0D220D",
"S.	c #0A1909",
"T.	c #445229",
"U.	c #0F1D0C",
"V.	c #102B10",
"W.	c #1F4B1F",
"X.	c #225022",
"Y.	c #163316",
"Z.	c #153015",
"`.	c #146B14",
" +	c #136513",
".+	c #1C571C",
"++	c #195D19",
"@+	c #1E491E",
"#+	c #091608",
"$+	c #505943",
"%+	c #0B1B0A",
"&+	c #1F4A1F",
"*+	c #176817",
"=+	c #1F541F",
"-+	c #153115",
";+	c #225122",
">+	c #133A13",
",+	c #102D10",
"'+	c #123812",
")+	c #1E411E",
"!+	c #061506",
"~+	c #1A2A14",
"{+	c #205420",
"]+	c #204520",
"^+	c #274F27",
"/+	c #245324",
"(+	c #215021",
"_+	c #214E21",
":+	c #0A1B09",
"<+	c #234823",
"[+	c #254B25",
"}+	c #264E27",
"|+	c #234924",
"1+	c #1C651C",
"2+	c #081607",
"3+	c #3D4F1C",
"4+	c #1A651A",
"5+	c #1E4B1E",
"6+	c #1E401E",
"7+	c #204521",
"8+	c #254924",
"9+	c #2B4722",
"0+	c #232C13",
"a+	c #20220E",
"b+	c #202B13",
"c+	c #244622",
"d+	c #192A15",
"e+	c #224A20",
"f+	c #203215",
"g+	c #1F3A1B",
"h+	c #1E2811",
"i+	c #161808",
"j+	c #1E210D",
"k+	c #272610",
"l+	c #3F3117",
"m+	c #462F17",
"n+	c #472E16",
"o+	c #472F16",
"p+	c #422C15",
"q+	c #202912",
"r+	c #0D1B0A",
"s+	c #2B3F23",
"t+	c #10240F",
"u+	c #202A13",
"v+	c #3D2A14",
"w+	c #302711",
"x+	c #3E2A14",
"y+	c #2F1D0C",
"z+	c #422B14",
"A+	c #3E2813",
"B+	c #36210E",
"C+	c #4F3216",
"D+	c #543518",
"E+	c #533518",
"F+	c #482F16",
"G+	c #1C1206",
"H+	c #0F260F",
"I+	c #0A210A",
"J+	c #031802",
"K+	c #23381D",
"L+	c #1B391A",
"M+	c #234521",
"N+	c #292410",
"O+	c #493017",
"P+	c #4C3218",
"Q+	c #482F17",
"R+	c #432C15",
"S+	c #35220E",
"T+	c #4E3014",
"U+	c #643B14",
"V+	c #673D13",
"W+	c #643C14",
"X+	c #513315",
"Y+	c #281808",
"Z+	c #121206",
"`+	c #20230E",
" @	c #212B13",
".@	c #112911",
"+@	c #133513",
"@@	c #081D07",
"#@	c #415723",
"$@	c #1F341A",
"%@	c #122911",
"&@	c #1F2E14",
"*@	c #3D2913",
"=@	c #462E16",
"-@	c #452D15",
";@	c #3D240D",
">@	c #503113",
",@	c #613A14",
"'@	c #583717",
")@	c #4E3013",
"!@	c #301E0C",
"~@	c #432B15",
"{@	c #1C1F0C",
"]@	c #0B1F0B",
"^@	c #143314",
"/@	c #092D09",
"(@	c #0E2A0E",
"_@	c #597019",
":@	c #1D3118",
"<@	c #1D2711",
"[@	c #27190A",
"}@	c #251608",
"|@	c #241607",
"1@	c #1D1206",
"2@	c #2F1A06",
"3@	c #5A330C",
"4@	c #643A13",
"5@	c #573718",
"6@	c #573618",
"7@	c #623A15",
"8@	c #4C3219",
"9@	c #4D3219",
"0@	c #442D15",
"a@	c #281809",
"b@	c #2B1C0B",
"c@	c #171C0A",
"d@	c #0A1D0A",
"e@	c #102910",
"f@	c #0A300A",
"g@	c #0E270E",
"h@	c #1A2C16",
"i@	c #61770A",
"j@	c #566E19",
"k@	c #1D3018",
"l@	c #172812",
"m@	c #304426",
"n@	c #242C17",
"o@	c #1F2310",
"p@	c #222A15",
"q@	c #3A4C18",
"r@	c #3A4209",
"s@	c #341D06",
"t@	c #523315",
"u@	c #543618",
"v@	c #5C3816",
"w@	c #523418",
"x@	c #271809",
"y@	c #1E1106",
"z@	c #251708",
"A@	c #171908",
"B@	c #142E11",
"C@	c #1D3117",
"D@	c #405623",
"E@	c #5B7409",
"F@	c #496405",
"G@	c #425B1D",
"H@	c #4E641D",
"I@	c #4D641E",
"J@	c #506922",
"K@	c #52681F",
"L@	c #4F661E",
"M@	c #4B631E",
"N@	c #4C631E",
"O@	c #36420B",
"P@	c #311B07",
"Q@	c #5F3812",
"R@	c #513418",
"S@	c #1A0F05",
"T@	c #120B03",
"U@	c #161005",
"V@	c #181307",
"W@	c #161F0E",
"X@	c #162712",
"Y@	c #1D2F18",
"Z@	c #435822",
"`@	c #50681F",
" #	c #577019",
".#	c #536D07",
"+#	c #4E6A08",
"@#	c #4A6505",
"##	c #5E760B",
"$#	c #647B0D",
"%#	c #61790C",
"&#	c #546C13",
"*#	c #33420D",
"=#	c #251809",
"-#	c #4C2F14",
";#	c #673C13",
">#	c #563618",
",#	c #5A3816",
"'#	c #4E3318",
")#	c #442C15",
"!#	c #261709",
"~#	c #110E04",
"{#	c #37450F",
"]#	c #495C10",
"^#	c #4B5E14",
"/#	c #4B5F17",
"(#	c #4C621C",
"_#	c #4D651E",
":#	c #51681F",
"<#	c #5E751A",
"[#	c #647D0E",
"}#	c #5F780C",
"|#	c #5C7508",
"1#	c #5B7308",
"2#	c #516B07",
"3#	c #536C07",
"4#	c #63780C",
"5#	c #61780B",
"6#	c #576D14",
"7#	c #36430E",
"8#	c #261809",
"9#	c #5B3816",
"0#	c #4D3116",
"a#	c #344109",
"b#	c #495B11",
"c#	c #62780C",
"d#	c #5F770B",
"e#	c #657D0E",
"f#	c #627B0D",
"g#	c #637A0B",
"h#	c #596E13",
"i#	c #49590C",
"j#	c #37440C",
"k#	c #4D3319",
"l#	c #563617",
"m#	c #1B1005",
"n#	c #49590A",
"o#	c #64790C",
"p#	c #647A0C",
"q#	c #667A0E",
"r#	c #647A0D",
"s#	c #61790A",
"t#	c #62790A",
"u#	c #596F14",
"v#	c #485A0C",
"w#	c #37430B",
"x#	c #1A1105",
"y#	c #372310",
"z#	c #4E3319",
"A#	c #354008",
"B#	c #49590B",
"C#	c #495A0B",
"D#	c #4A5A0D",
"E#	c #586D13",
"F#	c #62770A",
"G#	c #61790B",
"H#	c #596E14",
"I#	c #37450E",
"J#	c #442D16",
"K#	c #35220F",
"L#	c #1C1005",
"M#	c #1B1105",
"N#	c #465909",
"O#	c #46590C",
"P#	c #63780A",
"Q#	c #647A0A",
"R#	c #657B0C",
"S#	c #647B0C",
"T#	c #617B0D",
"U#	c #5E760A",
"V#	c #536B12",
"W#	c #35430D",
"X#	c #261909",
"Y#	c #301F0D",
"Z#	c #1C1105",
"`#	c #1B1106",
" $	c #37440E",
".$	c #566E13",
"+$	c #667D0E",
"@$	c #5C760B",
"#$	c #43570D",
"$$	c #291909",
"%$	c #412B14",
"&$	c #1B1206",
"*$	c #4C5F10",
"=$	c #667E0F",
"  . + @ # $ % & * = - ; > , ' ) ! ~ ~ { ] ^ ! ~ { / ( _ : < [ } ",
"| 1 2 3 4 5 6 7 8 9 0 ! a b c d e f f g h i e j e k l m n 5 o o ",
"4 p q r s t u v w h x y z h i A B C C B D E F G H e I J K L s % ",
"M N O O P Q R S T e U B B f V W X Y Z ` X  ...+.Y @.#.y $.%.&.*.",
"=.% p & -.;.>.,.'.H Y Z Z Y  .).). .!.H !.Z +.~.{.].X ^.e $./.(.",
"_.:.& <.[.}.d '.H ..|.~.~.+.{.Z Y  .X 1.H ..|.~.+.{.Y H ^.y 2.3.",
"4.:.=.5.6.7.y B Y |.~.~.~.~.~.~.|... .X 8.H ..|.~.~.|.Y X D 9.0.",
"a.b.c.d.e.$.#.).Z ~.~.~.~.~.~.~.~.+.{.Y H 8.H ..+.~.~.Z ).D f.g.",
"h.i.j.k.l.m.X ].{.~.~.~.~.~.~.~.~.~.~.|...H 8. .{.~.~.Z ).D J n.",
"o.p.q.h y B r.{.+.~.~.~.~.~.~.~.~.~.~.~.|.Y X ).s.t.t.Z B y 2.3.",
"u.v.w.x #.X r.{.+.~.~.~.~.~.~.~.~.~.~.~.~.{. .).G x.y.z.f A.B.C.",
"D.) h y W E.X  ...|.~.~.~.~.~.~.~.~.~.~.~.+...].x.F.G.H.I.2.J.K.",
"L.M.i #.W #.D ^.H Y {.+.~.~.~.~.~.~.~.~.~.~.+.t.t.N.O.P.Q.R.S.T.",
"U.V.W.B X.Y.Z.y E @. .Y {.+.~.~.~.+.{.Z Z Z Z Z `. +.+++@+B.#+$+",
"%+&+C Z *+=+W.-+Z.A ^.X  .Y Z Z Z Y  .).).).).).;+>+,+'+)+9.!+~+",
"~ f Z ~.+.{.*+{+]+Z.#.^+E.X ).).).X E.^+^+^+^+E./+(+_+e d h :+~+",
"~ f Y |.~.+.{.C f $.<+[+W ^+}+#.|+|+#.}+^+^+^+@.1+C C H e h 2+3+",
"{ e H Y Z Y x.4+5+d 6+-+7+8+9+0+a+a+b+c+W ^+^+E.X y.Y Y H e a / ",
"d+i E X ).X 8.e+f+g+h+i+j+k+l+m+n+o+p+q+y W ^+^+^+E.H Y !.j J r+",
"s+t+y W ^+^+#.u+v+w+x+y+z+A+B+C+D+E+F+G+H+y |+|+#.}+E./+U ]+I+J+",
"K+L+d #.^+W M+N+o+O+P+Q+R+S+T+U+V+W+X+Y+Z+j+`+a+ @M+|+y .@I++@@@",
"#@$@%@z D y &@*@=@o+o+-@;@>@,@'@'@'@,@)@!@~@o+=@*@{@J ]@^@/@(@:+",
"_@#@:@%@H+.@<@[@}@|@1@2@3@4@5@6@7@6@'@U+C+8@9@0@a@b@c@d@e@f@g@h@",
"i@j@#@k@l@k@m@n@o@p@q@r@s@t@u@U+v@U+'@U+w@Q+R+x@y@z@A@]@H+B@C@D@",
"E@F@u.G@H@I@J@K@L@M@N@O@P@Q@'@U+v@U+E+R@-@x@S@T@U@V@W@X@Y@Z@`@ #",
"E@.#+#@###.   $#%#&#*#=#-#;#u@>#7@,#'#)#!#~#{#]#^#/#(#_#:#<#[#}#",
"|#1#2#3#2 N 4#5#6#7#8#0@w@U+'@u@9#7@0#8#a#b#*.c#o o.d#%#a.e#f#}#",
"1 2 i@4 g#M h#i#j#8#R+Q+k#l#U+V+U+>#F+m#n#o#p#q#% 4 i@o.5#r#o N ",
"s#q t#N u#v#w#x#8#0@Q+y#O+z#E+E+C+k#Q+8#A#B#C#D#E#t#F#2 M O N M ",
"G#5#| H#I#x#8#R+Q+8@8@Q+Q+8@8@J#K#O+8@)#8#m#L#M#w#N#O#H#P#Q#R#S#",
"T#U#V#W#X#R+Q+8@k#k#k#Q+Y#Q+Q+y+R+8@k#8@Q+o+o+R+x@Z#`# $.$$#+$+$",
"T#@$#$`#~@8@k#k#k#k#k#o+$$o+o+$$o+k#k#k#k#k#k#8@Q+n+%$&$*$[ =$=$"};
