/* XPM */
static char * wall2_xpm[] = {
"32 32 475 2",
"  	c #60790C",
". 	c #5E770A",
"+ 	c #5C7409",
"@ 	c #5C7509",
"# 	c #5F7609",
"$ 	c #62780B",
"% 	c #63790C",
"& 	c #64790B",
"* 	c #607327",
"= 	c #6A7058",
"- 	c #6B705C",
"; 	c #4A5A1A",
"> 	c #45580D",
", 	c #4C631F",
"' 	c #3F5522",
") 	c #182813",
"! 	c #061205",
"~ 	c #051005",
"{ 	c #081507",
"] 	c #22331B",
"^ 	c #172612",
"/ 	c #3A4B16",
"( 	c #425919",
"_ 	c #506A17",
": 	c #627A0C",
"< 	c #617A0C",
"[ 	c #647C0D",
"} 	c #647C0E",
"| 	c #60780A",
"1 	c #5F7709",
"2 	c #60770A",
"3 	c #5F7608",
"4 	c #61780A",
"5 	c #597018",
"6 	c #50651F",
"7 	c #50641D",
"8 	c #415521",
"9 	c #1A2A15",
"0 	c #111E0D",
"a 	c #0A1C0A",
"b 	c #0B1D0A",
"c 	c #1F3018",
"d 	c #172713",
"e 	c #0B1E0B",
"f 	c #0C210C",
"g 	c #0C1F0C",
"h 	c #0A1B0A",
"i 	c #111F0E",
"j 	c #364A19",
"k 	c #4A6019",
"l 	c #62790C",
"m 	c #62780A",
"n 	c #617709",
"o 	c #617809",
"p 	c #5A7118",
"q 	c #425823",
"r 	c #20341A",
"s 	c #182A14",
"t 	c #12220F",
"u 	c #102810",
"v 	c #214521",
"w 	c #112811",
"x 	c #0A1D0A",
"y 	c #112911",
"z 	c #214621",
"A 	c #214F21",
"B 	c #244924",
"C 	c #0C200C",
"D 	c #11200E",
"E 	c #3E521E",
"F 	c #63790B",
"G 	c #62790B",
"H 	c #63780B",
"I 	c #4E651F",
"J 	c #253A1E",
"K 	c #1F3F1E",
"L 	c #183418",
"M 	c #0B1D0B",
"N 	c #204420",
"O 	c #244A24",
"P 	c #274E27",
"Q 	c #234923",
"R 	c #255225",
"S 	c #1B651B",
"T 	c #186818",
"U 	c #235823",
"V 	c #244B24",
"W 	c #264F26",
"X 	c #255325",
"Y 	c #122310",
"Z 	c #3E4F1A",
"` 	c #596F16",
" .	c #657C0D",
"..	c #516721",
"+.	c #2F4526",
"@.	c #162B13",
"#.	c #275027",
"$.	c #255425",
"%.	c #245524",
"&.	c #265126",
"*.	c #215C21",
"=.	c #186918",
"-.	c #1B661B",
";.	c #0C1C0A",
">.	c #394A16",
",.	c #587209",
"'.	c #657B0D",
").	c #5B7019",
"!.	c #415622",
"~.	c #1A2C16",
"{.	c #122A12",
"].	c #156C15",
"^.	c #215D21",
"/.	c #1A661A",
"(.	c #205D20",
"_.	c #126F12",
":.	c #176A17",
"<.	c #274F27",
"[.	c #224622",
"}.	c #142F14",
"|.	c #0A1A09",
"1.	c #536D08",
"2.	c #516720",
"3.	c #20321A",
"4.	c #091908",
"5.	c #117011",
"6.	c #107010",
"7.	c #116F11",
"8.	c #136D13",
"9.	c #176917",
"0.	c #235923",
"a.	c #637B0D",
"b.	c #657D0F",
"c.	c #5D751A",
"d.	c #445B25",
"e.	c #22351B",
"f.	c #0A1B09",
"g.	c #146D14",
"h.	c #214421",
"i.	c #182B14",
"j.	c #607A0C",
"k.	c #5C741A",
"l.	c #435823",
"m.	c #1A2D16",
"n.	c #0D200C",
"o.	c #21321A",
"p.	c #60780B",
"q.	c #4F651F",
"r.	c #1C2D16",
"s.	c #091A09",
"t.	c #215021",
"u.	c #132C13",
"v.	c #0A1909",
"w.	c #587019",
"x.	c #3F5421",
"y.	c #102710",
"z.	c #224522",
"A.	c #264D26",
"B.	c #156B15",
"C.	c #245424",
"D.	c #0C1E0C",
"E.	c #4C611C",
"F.	c #182713",
"G.	c #102910",
"H.	c #1F4B1F",
"I.	c #225022",
"J.	c #163316",
"K.	c #153015",
"L.	c #225A22",
"M.	c #374916",
"N.	c #0B1C0B",
"O.	c #1F4A1F",
"P.	c #176817",
"Q.	c #1F541F",
"R.	c #153115",
"S.	c #1F4C1F",
"T.	c #234B23",
"U.	c #122912",
"V.	c #445329",
"W.	c #0E1C0C",
"X.	c #205420",
"Y.	c #204520",
"Z.	c #153215",
"`.	c #224F22",
" +	c #166B16",
".+	c #1A671A",
"++	c #245724",
"@+	c #505943",
"#+	c #061105",
"$+	c #234823",
"%+	c #225922",
"&+	c #1E621E",
"*+	c #1C2F17",
"=+	c #061306",
"-+	c #0E220E",
";+	c #1E4B1F",
">+	c #163016",
",+	c #265026",
"'+	c #234F23",
")+	c #173417",
"!+	c #112C11",
"~+	c #225822",
"{+	c #214B20",
"]+	c #203215",
"^+	c #203F1E",
"/+	c #234924",
"(+	c #264E27",
"_+	c #122911",
":+	c #3D4F1C",
"<+	c #0E240E",
"[+	c #0E230E",
"}+	c #234B24",
"|+	c #202A13",
"1+	c #3D2A14",
"2+	c #27240F",
"3+	c #142911",
"4+	c #204521",
"5+	c #254924",
"6+	c #2B4722",
"7+	c #232C13",
"8+	c #20220E",
"9+	c #202B13",
"0+	c #244622",
"a+	c #1E401E",
"b+	c #3A4B17",
"c+	c #182814",
"d+	c #234521",
"e+	c #29240F",
"f+	c #472F16",
"g+	c #452D16",
"h+	c #241C0B",
"i+	c #1E210D",
"j+	c #272610",
"k+	c #3F3117",
"l+	c #462F17",
"m+	c #472E16",
"n+	c #422C15",
"o+	c #202912",
"p+	c #163216",
"q+	c #101F0D",
"r+	c #2B3F23",
"s+	c #0D1F0C",
"t+	c #0F250F",
"u+	c #202A12",
"v+	c #3E2A14",
"w+	c #4C3218",
"x+	c #493017",
"y+	c #311F0D",
"z+	c #422B14",
"A+	c #3E2813",
"B+	c #36210E",
"C+	c #4F3216",
"D+	c #543518",
"E+	c #533518",
"F+	c #482F16",
"G+	c #1C1206",
"H+	c #0F260F",
"I+	c #214721",
"J+	c #123712",
"K+	c #071B06",
"L+	c #23381D",
"M+	c #193518",
"N+	c #0D210D",
"O+	c #183518",
"P+	c #0D220D",
"Q+	c #0B1F0C",
"R+	c #0F1E0B",
"S+	c #2A1E0C",
"T+	c #2B1A0A",
"U+	c #432C15",
"V+	c #472F17",
"W+	c #35220E",
"X+	c #4E3014",
"Y+	c #643B14",
"Z+	c #673D13",
"`+	c #643C14",
" @	c #513315",
".@	c #281808",
"+@	c #121206",
"@@	c #234622",
"#@	c #255525",
"$@	c #155A15",
"%@	c #052804",
"&@	c #415723",
"*@	c #1E331A",
"=@	c #0B1F0B",
"-@	c #0C210D",
";@	c #161F0C",
">@	c #251608",
",@	c #1D1105",
"'@	c #1E1105",
")@	c #2B1B0A",
"!@	c #412A13",
"~@	c #3D240D",
"{@	c #503113",
"]@	c #613A14",
"^@	c #583717",
"/@	c #4E3013",
"(@	c #301E0C",
"_@	c #432B15",
":@	c #432D15",
"<@	c #292D14",
"[@	c #224521",
"}@	c #1F5420",
"|@	c #176818",
"1@	c #1F531F",
"2@	c #0C220B",
"3@	c #597019",
"4@	c #1D3118",
"5@	c #1C2611",
"6@	c #231608",
"7@	c #1F1206",
"8@	c #1A0E04",
"9@	c #150D04",
"0@	c #2E1A06",
"a@	c #5A330C",
"b@	c #643A13",
"c@	c #573718",
"d@	c #573618",
"e@	c #623A15",
"f@	c #4C3219",
"g@	c #4D3219",
"h@	c #442E16",
"i@	c #29250F",
"j@	c #202C12",
"k@	c #214B1F",
"l@	c #146414",
"m@	c #1E491E",
"n@	c #61770A",
"o@	c #566E19",
"p@	c #1D3018",
"q@	c #172812",
"r@	c #304426",
"s@	c #242C17",
"t@	c #1F2310",
"u@	c #222A15",
"v@	c #3A4C18",
"w@	c #3A4209",
"x@	c #341D06",
"y@	c #523315",
"z@	c #543618",
"A@	c #5C3816",
"B@	c #482F17",
"C@	c #462E16",
"D@	c #412A14",
"E@	c #3B2712",
"F@	c #1D2811",
"G@	c #163913",
"H@	c #1E3419",
"I@	c #405623",
"J@	c #5B7409",
"K@	c #496405",
"L@	c #425B1D",
"M@	c #4E641D",
"N@	c #4D641E",
"O@	c #506922",
"P@	c #52681F",
"Q@	c #4F661E",
"R@	c #4B631E",
"S@	c #4C631E",
"T@	c #36420B",
"U@	c #311B07",
"V@	c #5F3812",
"W@	c #513418",
"X@	c #261809",
"Y@	c #1D1407",
"Z@	c #1C1508",
"`@	c #151F0E",
" #	c #1F3219",
".#	c #435822",
"+#	c #50681F",
"@#	c #577019",
"##	c #536D07",
"$#	c #4E6A08",
"%#	c #4A6505",
"&#	c #5E760B",
"*#	c #647B0D",
"=#	c #61790C",
"-#	c #546C13",
";#	c #33420D",
">#	c #251809",
",#	c #4C2F14",
"'#	c #673C13",
")#	c #563618",
"!#	c #5A3816",
"~#	c #4E3318",
"{#	c #442C15",
"]#	c #1B1407",
"^#	c #39460F",
"/#	c #495C10",
"(#	c #4B5E14",
"_#	c #4B5F17",
":#	c #4C621C",
"<#	c #4D651E",
"[#	c #51681F",
"}#	c #5E751A",
"|#	c #647D0E",
"1#	c #5F780C",
"2#	c #5C7508",
"3#	c #5B7308",
"4#	c #516B07",
"5#	c #536C07",
"6#	c #63780C",
"7#	c #61780B",
"8#	c #576D14",
"9#	c #36430E",
"0#	c #442D15",
"a#	c #523418",
"b#	c #5B3816",
"c#	c #4D3116",
"d#	c #344109",
"e#	c #495B11",
"f#	c #62780C",
"g#	c #5F770B",
"h#	c #657D0E",
"i#	c #627B0D",
"j#	c #637A0B",
"k#	c #596E13",
"l#	c #49590C",
"m#	c #37440C",
"n#	c #4D3319",
"o#	c #563617",
"p#	c #1B1005",
"q#	c #49590A",
"r#	c #64790C",
"s#	c #647A0C",
"t#	c #667A0E",
"u#	c #647A0D",
"v#	c #61790A",
"w#	c #62790A",
"x#	c #596F14",
"y#	c #485A0C",
"z#	c #37430B",
"A#	c #1A1105",
"B#	c #372310",
"C#	c #4E3319",
"D#	c #354008",
"E#	c #49590B",
"F#	c #495A0B",
"G#	c #4A5A0D",
"H#	c #586D13",
"I#	c #62770A",
"J#	c #61790B",
"K#	c #596E14",
"L#	c #37450E",
"M#	c #442D16",
"N#	c #35220F",
"O#	c #1C1005",
"P#	c #1B1105",
"Q#	c #465909",
"R#	c #46590C",
"S#	c #63780A",
"T#	c #647A0A",
"U#	c #657B0C",
"V#	c #647B0C",
"W#	c #617B0D",
"X#	c #5E760A",
"Y#	c #536B12",
"Z#	c #35430D",
"`#	c #261909",
" $	c #301F0D",
".$	c #2F1D0C",
"+$	c #271809",
"@$	c #1C1105",
"#$	c #1B1106",
"$$	c #37440E",
"%$	c #566E13",
"&$	c #667D0E",
"*$	c #5C760B",
"=$	c #43570D",
"-$	c #291909",
";$	c #412B14",
">$	c #1B1206",
",$	c #4C5F10",
"'$	c #667E0F",
"  . + @ # $ % & * = - ; > , ' ) ! ~ ~ { ] ^ ! ~ { / ( _ : < [ } ",
"| 1 2 3 4 5 6 7 8 9 0 a b c d e f g g f h h f g f h i j k 5 l l ",
"4 m n o p q r s t a u v v w x y z A A z y y v B v y C h D E p % ",
"F G H H I J K L M N O P P O Q O R S T U V O W X W O v y C Y Z ` ",
" .% m & ..+.@.C y O #.$.%.%.%.$.&.*.=.S X #.U -.U #.P O v y ;.>.",
",.'.& ).!.~.g {.z W U =.].].].=.^./.(.%.#.X -._.:.U #.<.P [.}.|.",
"1.'. .2.3.4.C v W U :.5.6.6.6.7.8.7.9.U #.#.U :.7.:.0.$.#.P v a ",
"a.b.c.d.e.f.y O $.=.5.6.6.6.6.6.6.6.5.:.U #.#.U :.7.g.=.U W h.i.",
"j.k.l.m.n.{.z P $.=.5.6.6.6.6.6.6.6.6.5.:.U #.#.0.g.6.5.=.A w o.",
"p.q.r.s.{.z P <.#.U :.7.6.6.6.6.6.6.6.6.5.:.U #.$.=.5.6.].t.u.v.",
"w.x.D y.z.A.O O P #.0.g.6.6.6.6.6.6.6.6.6.5.=.$.#.U =.g.B.C.v D.",
"E.F.G.H.C.I.J.K.v B C.].6.6.6.6.6.6.6.6.6.6.g.0.#.&.U L.S C.h.m.",
"M.N.O.T ].P.Q.H.R.K.S.T g.7.6.6.6.6.6.6.6.6.7.:.U %.S 0.$.T.U.V.",
"W.D.A ].6.7.g.P.X.Y.Z.`.0.=.g.7.6.7.g.].].].].].T L. +.+++T.U.@+",
"#+g A ].6.6.6.5.=.A U.$+#.$.0.=.].=.0.%.%.%.%.%+S %+S *.&+X h.*+",
"=+-+H.T g.7.7.g.T ;+>+O <.<.#.$.%.$.#.<.<.<.<.#.X ,+'+,+$.W h.*+",
"s.)+!+`.0.=.=.~+{+]+^+/+P <.(+O /+/+O (+<.<.<.<.<.O K.h.O B _+:+",
"4.<+[+h.W $.$.}+|+1+2+3+4+5+6+7+8+8+9+0+P <.<.<.<.O {.w R.a+g b+",
"c+e )+{.O <.P d+e+f+g+h+i+j+k+l+m+f+n+o+v P <.<.#.R V Q v p+y.q+",
"r+s+t+[+N B v u+v+w+x+y+z+A+B+C+D+E+F+G+H+v O (+$.S U #.P I+J+K+",
"L+M+N+O+P+Q+R+S+T+U+f+V+U+W+X+Y+Z+`+ @.@+@i+9+@@C.=.=.%+#@~+$@%@",
"&@*@t+y.=@-@;@>@,@'@)@!@~@{@]@^@^@^@]@/@(@_@:@<@[@}@|@=.].=.1@2@",
"3@&@4@t+f t+5@6@7@8@9@0@a@b@c@d@e@d@^@Y+C+f@g@h@i@j@k@%+9.l@m@*+",
"n@o@&@p@q@p@r@s@t@u@v@w@x@y@z@Y+A@Y+^@Y+E+f@B@C@D@E@F@4+H.G@H@I@",
"J@K@w.L@M@N@O@P@Q@R@S@T@U@V@^@Y+A@Y+E+W@x+U+X@G+Y@Z@`@s  #.#+#@#",
"J@##$#%#&#.   *#=#-#;#>#,#'#z@)#e@!#~#{#X@]#^#/#(#_#:#<#[#}#|#1#",
"2#3#4#5#2 G 6#7#8#9#X@0#a#Y+^@z@b#e@c#X@d#e#` f#l p.g#=#a.h#i#1#",
"1 2 n@4 j#F k#l#m#X@U+B@n#o#Y+Z+Y+)#F+p#q#r#s#t#% 4 n@p.7#u#l G ",
"v#n w#G x#y#z#A#X@0#B@B#x+C#E+E+C+n#B@X@D#E#F#G#H#w#I#2 F H G F ",
"J#7#| K#L#A#X@U+B@f@f@B@B@f@f@M#N#x+f@{#X@p#O#P#z#Q#R#K#S#T#U#V#",
"W#X#Y#Z#`#U+B@f@n#n#n#B@ $B@B@.$U+f@n#f@B@f+f+U++$@$#$$$%$*#&$&$",
"W#*$=$#$_@f@n#n#n#n#n#f+-$f+f+-$f+n#n#n#n#n#n#f@B@m+;$>$,$[ '$'$"};
