/* XPM */
static char * wall3_xpm[] = {
"32 32 489 2",
"  	c #60790C",
". 	c #5E770A",
"+ 	c #5C7409",
"@ 	c #5C7509",
"# 	c #5F7609",
"$ 	c #62780B",
"% 	c #63790C",
"& 	c #64790B",
"* 	c #607327",
"= 	c #6A7058",
"- 	c #6B705C",
"; 	c #4A5A1A",
"> 	c #45580D",
", 	c #4C631F",
"' 	c #3F5522",
") 	c #182813",
"! 	c #050F04",
"~ 	c #040D04",
"{ 	c #071206",
"] 	c #22331B",
"^ 	c #172612",
"/ 	c #030D03",
"( 	c #3A4B16",
"_ 	c #425919",
": 	c #506A17",
"< 	c #627A0C",
"[ 	c #617A0C",
"} 	c #647C0D",
"| 	c #647C0E",
"1 	c #60780A",
"2 	c #5F7709",
"3 	c #60770A",
"4 	c #5F7608",
"5 	c #61780A",
"6 	c #597018",
"7 	c #50651F",
"8 	c #50641D",
"9 	c #415521",
"0 	c #1A2915",
"a 	c #101E0D",
"b 	c #0A1C0A",
"c 	c #0B1D0A",
"d 	c #1F3018",
"e 	c #0A1B09",
"f 	c #0B1D0B",
"g 	c #081708",
"h 	c #081808",
"i 	c #091808",
"j 	c #364A18",
"k 	c #4A6019",
"l 	c #62790C",
"m 	c #62780A",
"n 	c #617709",
"o 	c #617809",
"p 	c #5A7118",
"q 	c #425823",
"r 	c #20341A",
"s 	c #182A14",
"t 	c #11200E",
"u 	c #102810",
"v 	c #214521",
"w 	c #112711",
"x 	c #112811",
"y 	c #214621",
"z 	c #214F21",
"A 	c #244924",
"B 	c #091708",
"C 	c #111E0D",
"D 	c #3E521E",
"E 	c #63790B",
"F 	c #62790B",
"G 	c #63780B",
"H 	c #4E651F",
"I 	c #253A1E",
"J 	c #1F3F1E",
"K 	c #173217",
"L 	c #204420",
"M 	c #244A24",
"N 	c #274E27",
"O 	c #264F26",
"P 	c #224E22",
"Q 	c #234A23",
"R 	c #255225",
"S 	c #1B651B",
"T 	c #186818",
"U 	c #235823",
"V 	c #244B24",
"W 	c #274F27",
"X 	c #11210E",
"Y 	c #3E4F1A",
"Z 	c #596F16",
"` 	c #657C0D",
" .	c #516721",
"..	c #2F4526",
"+.	c #152A13",
"@.	c #275027",
"#.	c #255425",
"$.	c #225922",
"%.	c #1B661B",
"&.	c #265126",
"*.	c #215C21",
"=.	c #186918",
"-.	c #255325",
";.	c #0E1F0C",
">.	c #394A17",
",.	c #587209",
"'.	c #657B0D",
").	c #5B7019",
"!.	c #415622",
"~.	c #1A2C16",
"{.	c #146D14",
"].	c #116F11",
"^.	c #215D21",
"/.	c #1A661A",
"(.	c #205D20",
"_.	c #245524",
":.	c #235923",
"<.	c #204320",
"[.	c #0C1E0B",
"}.	c #536D08",
"|.	c #516720",
"1.	c #20321A",
"2.	c #071607",
"3.	c #176A17",
"4.	c #117011",
"5.	c #107010",
"6.	c #136D13",
"7.	c #176917",
"8.	c #156C15",
"9.	c #637B0D",
"0.	c #657D0F",
"a.	c #5D751A",
"b.	c #445B25",
"c.	c #22351B",
"d.	c #132B13",
"e.	c #172813",
"f.	c #607A0C",
"g.	c #5C741A",
"h.	c #435823",
"i.	c #1A2D16",
"j.	c #215021",
"k.	c #60780B",
"l.	c #4F651F",
"m.	c #1C2D16",
"n.	c #224522",
"o.	c #245424",
"p.	c #214421",
"q.	c #587019",
"r.	c #3F5421",
"s.	c #111F0D",
"t.	c #0F290F",
"u.	c #1F4B1F",
"v.	c #245324",
"w.	c #0C1E0C",
"x.	c #4C611C",
"y.	c #182713",
"z.	c #102910",
"A.	c #1D501D",
"B.	c #176817",
"C.	c #146614",
"D.	c #0E410E",
"E.	c #113811",
"F.	c #225822",
"G.	c #176217",
"H.	c #132C13",
"I.	c #192A14",
"J.	c #374916",
"K.	c #0B1C0B",
"L.	c #1F4A1F",
"M.	c #106F10",
"N.	c #0E690E",
"O.	c #0D620D",
"P.	c #0C400C",
"Q.	c #1F4D1F",
"R.	c #205520",
"S.	c #163E16",
"T.	c #1E411E",
"U.	c #0D200D",
"V.	c #445229",
"W.	c #0E1A0B",
"X.	c #0D610D",
"Y.	c #113A11",
"Z.	c #224F22",
"`.	c #1F5E1F",
" +	c #196619",
".+	c #1E501E",
"++	c #163316",
"@+	c #0E220D",
"#+	c #505943",
"$+	c #040E04",
"%+	c #0E680E",
"&+	c #0C350C",
"*+	c #244824",
"=+	c #1D611D",
"-+	c #1A2C15",
";+	c #050F05",
">+	c #0C1F0C",
",+	c #235723",
"'+	c #146C14",
")+	c #0E610E",
"!+	c #113912",
"~+	c #265026",
"{+	c #224B22",
"]+	c #234923",
"^+	c #0F250F",
"/+	c #091908",
"(+	c #152F15",
"_+	c #112911",
":+	c #214C1F",
"<+	c #1D3911",
"[+	c #20411E",
"}+	c #234924",
"|+	c #264E27",
"1+	c #254B25",
"2+	c #173117",
"3+	c #122912",
"4+	c #163016",
"5+	c #1E401E",
"6+	c #0D200C",
"7+	c #3D4F1C",
"8+	c #0D220D",
"9+	c #0B1F0B",
"0+	c #234B24",
"a+	c #202A13",
"b+	c #3D2A14",
"c+	c #27240F",
"d+	c #152911",
"e+	c #204521",
"f+	c #254924",
"g+	c #2B4722",
"h+	c #232C13",
"i+	c #20220E",
"j+	c #202B13",
"k+	c #244622",
"l+	c #205020",
"m+	c #1E4B1E",
"n+	c #153315",
"o+	c #091A09",
"p+	c #182814",
"q+	c #0B1E0B",
"r+	c #142F14",
"s+	c #234521",
"t+	c #29240F",
"u+	c #472F16",
"v+	c #462E16",
"w+	c #261C0B",
"x+	c #1E210D",
"y+	c #272610",
"z+	c #3F3117",
"A+	c #462F17",
"B+	c #472E16",
"C+	c #422C15",
"D+	c #202912",
"E+	c #196819",
"F+	c #1B641B",
"G+	c #0F1E0C",
"H+	c #2B3F23",
"I+	c #0D1F0C",
"J+	c #1F2A12",
"K+	c #3E2A14",
"L+	c #4C3218",
"M+	c #493017",
"N+	c #311F0D",
"O+	c #422B14",
"P+	c #3E2813",
"Q+	c #36210E",
"R+	c #4F3216",
"S+	c #543518",
"T+	c #533518",
"U+	c #482F16",
"V+	c #1C1206",
"W+	c #0F260F",
"X+	c #1B651C",
"Y+	c #225A22",
"Z+	c #091F09",
"`+	c #23381D",
" @	c #193518",
".@	c #0C200C",
"+@	c #153015",
"@@	c #0D1C0A",
"#@	c #251A0A",
"$@	c #281809",
"%@	c #432C15",
"&@	c #472F17",
"*@	c #35220E",
"=@	c #4E3014",
"-@	c #643B14",
";@	c #673D13",
">@	c #643C14",
",@	c #513315",
"'@	c #281808",
")@	c #121206",
"!@	c #222C13",
"~@	c #2C4923",
"{@	c #265425",
"]@	c #195D19",
"^@	c #052905",
"/@	c #415723",
"(@	c #1E331A",
"_@	c #102710",
":@	c #0B1F0C",
"<@	c #151D0B",
"[@	c #241608",
"}@	c #1B0F05",
"|@	c #1B1005",
"1@	c #412A13",
"2@	c #3D240D",
"3@	c #503113",
"4@	c #613A14",
"5@	c #583717",
"6@	c #4E3013",
"7@	c #301E0C",
"8@	c #432B15",
"9@	c #473017",
"0@	c #443A1C",
"a@	c #2B4623",
"b@	c #1A651A",
"c@	c #176117",
"d@	c #1C4D1C",
"e@	c #0B210A",
"f@	c #597019",
"g@	c #1D3118",
"h@	c #0C210C",
"i@	c #1C2611",
"j@	c #231608",
"k@	c #1F1206",
"l@	c #180D04",
"m@	c #120A03",
"n@	c #2E1A06",
"o@	c #5A330C",
"p@	c #643A13",
"q@	c #573718",
"r@	c #573618",
"s@	c #623A15",
"t@	c #4C3219",
"u@	c #4E3319",
"v@	c #483118",
"w@	c #2A2510",
"x@	c #234421",
"y@	c #1F4C1F",
"z@	c #0D3A0D",
"A@	c #102B0F",
"B@	c #61770A",
"C@	c #566E19",
"D@	c #1D3018",
"E@	c #172812",
"F@	c #304426",
"G@	c #242C17",
"H@	c #1F2310",
"I@	c #222A15",
"J@	c #3A4C18",
"K@	c #3A4209",
"L@	c #341D06",
"M@	c #523315",
"N@	c #543618",
"O@	c #5C3816",
"P@	c #482F17",
"Q@	c #412A14",
"R@	c #3C2812",
"S@	c #1C200D",
"T@	c #0E240F",
"U@	c #112A11",
"V@	c #152F11",
"W@	c #1D3117",
"X@	c #405623",
"Y@	c #5B7409",
"Z@	c #496405",
"`@	c #425B1D",
" #	c #4E641D",
".#	c #4D641E",
"+#	c #506922",
"@#	c #52681F",
"##	c #4F661E",
"$#	c #4B631E",
"%#	c #4C631E",
"&#	c #36420B",
"*#	c #311B07",
"=#	c #5F3812",
"-#	c #513418",
";#	c #261809",
">#	c #1D1407",
",#	c #1D1608",
"'#	c #161F0E",
")#	c #162712",
"!#	c #1D2F18",
"~#	c #435822",
"{#	c #50681F",
"]#	c #577019",
"^#	c #536D07",
"/#	c #4E6A08",
"(#	c #4A6505",
"_#	c #5E760B",
":#	c #647B0D",
"<#	c #61790C",
"[#	c #546C13",
"}#	c #33420D",
"|#	c #251809",
"1#	c #4C2F14",
"2#	c #673C13",
"3#	c #563618",
"4#	c #5A3816",
"5#	c #4E3318",
"6#	c #442C15",
"7#	c #1B1407",
"8#	c #39460F",
"9#	c #495C10",
"0#	c #4B5E14",
"a#	c #4B5F17",
"b#	c #4C621C",
"c#	c #4D651E",
"d#	c #51681F",
"e#	c #5E751A",
"f#	c #647D0E",
"g#	c #5F780C",
"h#	c #5C7508",
"i#	c #5B7308",
"j#	c #516B07",
"k#	c #536C07",
"l#	c #63780C",
"m#	c #61780B",
"n#	c #576D14",
"o#	c #36430E",
"p#	c #442D15",
"q#	c #523418",
"r#	c #5B3816",
"s#	c #4D3116",
"t#	c #344109",
"u#	c #495B11",
"v#	c #62780C",
"w#	c #5F770B",
"x#	c #657D0E",
"y#	c #627B0D",
"z#	c #637A0B",
"A#	c #596E13",
"B#	c #49590C",
"C#	c #37440C",
"D#	c #4D3319",
"E#	c #563617",
"F#	c #49590A",
"G#	c #64790C",
"H#	c #647A0C",
"I#	c #667A0E",
"J#	c #647A0D",
"K#	c #61790A",
"L#	c #62790A",
"M#	c #596F14",
"N#	c #485A0C",
"O#	c #37430B",
"P#	c #1A1105",
"Q#	c #372310",
"R#	c #354008",
"S#	c #49590B",
"T#	c #495A0B",
"U#	c #4A5A0D",
"V#	c #586D13",
"W#	c #62770A",
"X#	c #61790B",
"Y#	c #596E14",
"Z#	c #37450E",
"`#	c #442D16",
" $	c #35220F",
".$	c #1C1005",
"+$	c #1B1105",
"@$	c #465909",
"#$	c #46590C",
"$$	c #63780A",
"%$	c #647A0A",
"&$	c #657B0C",
"*$	c #647B0C",
"=$	c #617B0D",
"-$	c #5E760A",
";$	c #536B12",
">$	c #35430D",
",$	c #261909",
"'$	c #301F0D",
")$	c #2F1D0C",
"!$	c #271809",
"~$	c #1C1105",
"{$	c #1B1106",
"]$	c #37440E",
"^$	c #566E13",
"/$	c #667D0E",
"($	c #5C760B",
"_$	c #43570D",
":$	c #291909",
"<$	c #412B14",
"[$	c #1B1206",
"}$	c #4C5F10",
"|$	c #667E0F",
"  . + @ # $ % & * = - ; > , ' ) ! ~ ~ { ] ^ ! / { ( _ : < [ } | ",
"1 2 3 4 5 6 7 8 9 0 a b c d ^ e f f f f g h f f f i a j k 6 l l ",
"5 m n o p q r s t b u v v w b x y z z y x x v A v x f B C D p % ",
"E F G G H I J K b L M N O P Q A R S T U V M N W N M v x f X Y Z ",
"` % m &  ...+.f x M @.#.$.%.$.#.&.*.=.S -.W @.#.#.@.N M v x ;.>.",
",.'.& ).!.~.b x y O U =.{.].{.=.^./.(._.@.W -.S =.:._.#.O M <.[.",
"}.'.` |.1.2.f v O U 3.4.5.5.5.].6.].7.:.#.@.@.U =.8.8.=.U O v b ",
"9.0.a.b.c.g x M #.=.4.5.5.5.5.5.5.5.].{.=.U @.@.:.{.5.4.=.z d.e.",
"f.g.h.i.f x y N #.=.4.5.5.5.5.5.5.5.5.5.4.3.U @.#.=.4.5.8.j.x 1.",
"k.l.m.h x n.N W @.U 3.].5.5.5.5.5.5.5.5.5.4.=.#.@.U 3.4.8.o.p.[.",
"q.r.s.t.u.v.V A N @.:.{.5.5.5.5.5.5.5.5.5.5.{.:.@.W U 3.8.o.v w.",
"x.y.z.A.B.C.D.E.y A o.8.5.5.5.5.5.5.5.5.5.5.].3.:._._.F.G.z H.I.",
"J.K.L.B.4.M.N.O.P.E.Q.T {.].5.5.5.5.5.5.5.5.5.].8.=.T R.S.T.U.V.",
"W.f z 8.5.5.5.M.N.X.Y.Z.:.=.{.].5.].{.8.8.8.8.{.8.`.8. +.+++@+#+",
"$+f z =.4.5.5.5.5.%+&+*+@.#.:.=.8.=.:._._._._.$.S $.S *.=+L.x -+",
";+>+y ,+3.4.].{.'+)+!+M W W @.#._.#.@.W W W W @.-.~+P {+Z.]+^+-+",
"/+(+_+V U =.=.F.:+<+[+}+N W |+M }+}+M |+W W W W W 1+2+3+4+5+6+7+",
"/+8+9+v O #.#.0+a+b+c+d+e+f+g+h+i+i+j+k+N W W W W O z l+m+n+o+( ",
"p+q+r+_+M W N s+t+u+v+w+x+y+z+A+B+u+C+D+v N W @.#.U S E+F+L.x G+",
"H+I+8+>+L A v J+K+L+M+N+O+P+Q+R+S+T+U+V+W+v M -.X+/.(.Y+_.~+L.Z+",
"`+ @.@+@9+f @@#@$@%@u+&@%@*@=@-@;@>@,@'@)@x+!@~@{@U S S U :.]@^@",
"/@(@^+_@b :@<@[@}@|@$@1@2@3@4@5@5@5@4@6@7@8@9@0@a@0+o.:.b@c@d@e@",
"f@/@g@^+h@^+i@j@k@l@m@n@o@p@q@r@s@r@5@-@R+t@u@v@w@j+x@Q y@z@A@~.",
"B@C@/@D@E@D@F@G@H@I@J@K@L@M@N@-@O@-@5@-@T+t@P@v+Q@R@S@T@U@V@W@X@",
"Y@Z@q.`@ #.#+#@###$#%#&#*#=#5@-@O@-@T+-#M+%@;#V+>#,#'#)#!#~#{#]#",
"Y@^#/#(#_#.   :#<#[#}#|#1#2#N@3#s@4#5#6#;#7#8#9#0#a#b#c#d#e#f#g#",
"h#i#j#k#3 F l#m#n#o#;#p#q#-@5@N@r#s@s#;#t#u#Z v#l k.w#<#9.x#y#g#",
"2 3 B@5 z#E A#B#C#;#%@P@D#E#-@;@-@3#U+|@F#G#H#I#% 5 B@k.m#J#l F ",
"K#n L#F M#N#O#P#;#p#P@Q#M+u@T+T+R+D#P@;#R#S#T#U#V#L#W#3 E G F E ",
"X#m#1 Y#Z#P#;#%@P@t@t@P@P@t@t@`# $M+t@6#;#|@.$+$O#@$#$Y#$$%$&$*$",
"=$-$;$>$,$%@P@t@D#D#D#P@'$P@P@)$%@t@D#t@P@u+u+%@!$~${$]$^$:#/$/$",
"=$($_${$8@t@D#D#D#D#D#u+:$u+u+:$u+D#D#D#D#D#D#t@P@B+<$[$}$} |$|$"};
