/* XPM */
static char * wall4_xpm[] = {
"32 32 470 2",
"  	c #60790C",
". 	c #5E770A",
"+ 	c #5C7409",
"@ 	c #5C7509",
"# 	c #5F7609",
"$ 	c #62780B",
"% 	c #63790C",
"& 	c #64790B",
"* 	c #607327",
"= 	c #6A7058",
"- 	c #6B705C",
"; 	c #4A5A1A",
"> 	c #45580D",
", 	c #4C631F",
"' 	c #3F5522",
") 	c #172713",
"! 	c #0A1C0A",
"~ 	c #0B1C0B",
"{ 	c #0C1E0B",
"] 	c #22331B",
"^ 	c #162612",
"/ 	c #0A1B0A",
"( 	c #3A4B16",
"_ 	c #425919",
": 	c #506A17",
"< 	c #627A0C",
"[ 	c #617A0C",
"} 	c #647C0D",
"| 	c #647C0E",
"1 	c #60780A",
"2 	c #5F7709",
"3 	c #60770A",
"4 	c #5F7608",
"5 	c #61780A",
"6 	c #597018",
"7 	c #50651F",
"8 	c #50641D",
"9 	c #415521",
"0 	c #1A2914",
"a 	c #101D0C",
"b 	c #0B1D0A",
"c 	c #1F2F18",
"d 	c #172712",
"e 	c #112711",
"f 	c #204620",
"g 	c #214F21",
"h 	c #204520",
"i 	c #214521",
"j 	c #224E22",
"k 	c #122811",
"l 	c #142611",
"m 	c #374A19",
"n 	c #4A6019",
"o 	c #62790C",
"p 	c #62780A",
"q 	c #617709",
"r 	c #617809",
"s 	c #5A7118",
"t 	c #425823",
"u 	c #20341A",
"v 	c #182A14",
"w 	c #11200E",
"x 	c #102710",
"y 	c #245424",
"z 	c #186818",
"A 	c #244924",
"B 	c #244B24",
"C 	c #235723",
"D 	c #1B661B",
"E 	c #235823",
"F 	c #214421",
"G 	c #3E521E",
"H 	c #63790B",
"I 	c #62790B",
"J 	c #63780B",
"K 	c #4E651F",
"L 	c #253A1E",
"M 	c #1F3F1E",
"N 	c #153015",
"O 	c #102610",
"P 	c #214621",
"Q 	c #224F22",
"R 	c #234B23",
"S 	c #274E27",
"T 	c #255425",
"U 	c #186918",
"V 	c #156C15",
"W 	c #245624",
"X 	c #235923",
"Y 	c #176A17",
"Z 	c #116F11",
"` 	c #244A24",
" .	c #172D15",
"..	c #3E501A",
"+.	c #596F16",
"@.	c #657C0D",
"#.	c #516721",
"$.	c #2F4526",
"%.	c #152912",
"&.	c #112811",
"*.	c #245524",
"=.	c #1B651B",
"-.	c #107010",
";.	c #146D14",
">.	c #225A22",
",.	c #264F26",
"'.	c #132912",
").	c #394A17",
"!.	c #587209",
"~.	c #657B0D",
"{.	c #5B7019",
"].	c #415522",
"^.	c #1A2B15",
"/.	c #117011",
"(.	c #265126",
"_.	c #536D08",
":.	c #516720",
"<.	c #203119",
"[.	c #0B1D0B",
"}.	c #265026",
"|.	c #245324",
"1.	c #637B0D",
"2.	c #657D0F",
"3.	c #5D751A",
"4.	c #445B25",
"5.	c #22341B",
"6.	c #215021",
"7.	c #607A0C",
"8.	c #5C741A",
"9.	c #435823",
"0.	c #1A2C15",
"a.	c #20321A",
"b.	c #60780B",
"c.	c #4F651F",
"d.	c #1B2C16",
"e.	c #196819",
"f.	c #166B16",
"g.	c #146C14",
"h.	c #235423",
"i.	c #1F401F",
"j.	c #0C1D0B",
"k.	c #587019",
"l.	c #3F5421",
"m.	c #111E0D",
"n.	c #102810",
"o.	c #255525",
"p.	c #205E20",
"q.	c #225922",
"r.	c #215921",
"s.	c #176217",
"t.	c #142C14",
"u.	c #0A1909",
"v.	c #4C611C",
"w.	c #182713",
"x.	c #224522",
"y.	c #264D26",
"z.	c #215B21",
"A.	c #1A671A",
"B.	c #205520",
"C.	c #163E16",
"D.	c #1E411E",
"E.	c #0C200C",
"F.	c #182813",
"G.	c #384A17",
"H.	c #10290F",
"I.	c #1F4B1F",
"J.	c #225022",
"K.	c #163316",
"L.	c #152F15",
"M.	c #196619",
"N.	c #1E501E",
"O.	c #153315",
"P.	c #0B1C0A",
"Q.	c #445229",
"R.	c #122310",
"S.	c #1E4A1E",
"T.	c #176817",
"U.	c #1F541F",
"V.	c #153115",
"W.	c #224722",
"X.	c #215C21",
"Y.	c #1D611D",
"Z.	c #1F4A1F",
"`.	c #0D1F0D",
" +	c #505943",
".+	c #205420",
"++	c #234A23",
"@+	c #224B22",
"#+	c #234923",
"$+	c #1A2A14",
"%+	c #122912",
"&+	c #274F27",
"*+	c #275027",
"=+	c #254B25",
"-+	c #163116",
";+	c #122A12",
">+	c #163016",
",+	c #1E401E",
"'+	c #0C1F0C",
")+	c #215D21",
"!+	c #1A651A",
"~+	c #1E4B1E",
"{+	c #264E27",
"]+	c #234924",
"^+	c #264E26",
"/+	c #0B1B0A",
"(+	c #3D4F1C",
"_+	c #081607",
":+	c #112911",
"<+	c #224A20",
"[+	c #203215",
"}+	c #203F1E",
"|+	c #204320",
"1+	c #163015",
"2+	c #204521",
"3+	c #254924",
"4+	c #2B4722",
"5+	c #232C13",
"6+	c #20220E",
"7+	c #202B13",
"8+	c #244622",
"9+	c #3B4C17",
"0+	c #202A13",
"a+	c #3D2A14",
"b+	c #292510",
"c+	c #24230E",
"d+	c #1F1A0A",
"e+	c #1E210D",
"f+	c #272610",
"g+	c #3F3117",
"h+	c #462F17",
"i+	c #472E16",
"j+	c #472F16",
"k+	c #422C15",
"l+	c #202912",
"m+	c #1F491F",
"n+	c #11260F",
"o+	c #2B3F23",
"p+	c #234521",
"q+	c #292410",
"r+	c #492F17",
"s+	c #432C15",
"t+	c #2F1E0C",
"u+	c #422B14",
"v+	c #3E2813",
"w+	c #36210E",
"x+	c #4F3216",
"y+	c #543518",
"z+	c #533518",
"A+	c #482F16",
"B+	c #1C1206",
"C+	c #0F260F",
"D+	c #255325",
"E+	c #1C651C",
"F+	c #195D19",
"G+	c #062905",
"H+	c #23381D",
"I+	c #183217",
"J+	c #0B1E0B",
"K+	c #204420",
"L+	c #1D2911",
"M+	c #3D2913",
"N+	c #462E16",
"O+	c #482F17",
"P+	c #4C3218",
"Q+	c #35220E",
"R+	c #4E3014",
"S+	c #643B14",
"T+	c #673D13",
"U+	c #643C14",
"V+	c #513315",
"W+	c #281808",
"X+	c #121206",
"Y+	c #222C13",
"Z+	c #234B24",
"`+	c #176117",
" @	c #1C4E1C",
".@	c #092008",
"+@	c #415723",
"@@	c #1E3319",
"#@	c #0E220D",
"$@	c #0C210C",
"%@	c #151B0A",
"&@	c #201306",
"*@	c #1D1105",
"=@	c #261708",
"-@	c #452D15",
";@	c #3D240D",
">@	c #503113",
",@	c #613A14",
"'@	c #583717",
")@	c #4E3013",
"!@	c #301E0C",
"~@	c #432B15",
"{@	c #473017",
"]@	c #443419",
"^@	c #292711",
"/@	c #234421",
"(@	c #1F4C1F",
"_@	c #0D3A0D",
":@	c #0F2C0F",
"<@	c #0A1B09",
"[@	c #597019",
"}@	c #1C3018",
"|@	c #0A1D0A",
"1@	c #0D220E",
"2@	c #1C2511",
"3@	c #201407",
"4@	c #1C1005",
"5@	c #170D04",
"6@	c #1A1005",
"7@	c #2F1A06",
"8@	c #5A330C",
"9@	c #643A13",
"0@	c #573718",
"a@	c #573618",
"b@	c #623A15",
"c@	c #4C3219",
"d@	c #4D3319",
"e@	c #3C2812",
"f@	c #1D2610",
"g@	c #112A11",
"h@	c #0A300A",
"i@	c #0E270E",
"j@	c #1A2C16",
"k@	c #61770A",
"l@	c #566E19",
"m@	c #1D3018",
"n@	c #172812",
"o@	c #304426",
"p@	c #242C17",
"q@	c #1F2310",
"r@	c #222A15",
"s@	c #3A4C18",
"t@	c #3A4209",
"u@	c #341D06",
"v@	c #523315",
"w@	c #543618",
"x@	c #5C3816",
"y@	c #2C1B0B",
"z@	c #261809",
"A@	c #171908",
"B@	c #0B1F0B",
"C@	c #142E11",
"D@	c #1D3117",
"E@	c #405623",
"F@	c #5B7409",
"G@	c #496405",
"H@	c #425B1D",
"I@	c #4E641D",
"J@	c #4D641E",
"K@	c #506922",
"L@	c #52681F",
"M@	c #4F661E",
"N@	c #4B631E",
"O@	c #4C631E",
"P@	c #36420B",
"Q@	c #311B07",
"R@	c #5F3812",
"S@	c #513418",
"T@	c #493017",
"U@	c #1B1105",
"V@	c #171106",
"W@	c #181307",
"X@	c #161F0E",
"Y@	c #162712",
"Z@	c #1D2F18",
"`@	c #435822",
" #	c #50681F",
".#	c #577019",
"+#	c #536D07",
"@#	c #4E6A08",
"##	c #4A6505",
"$#	c #5E760B",
"%#	c #647B0D",
"&#	c #61790C",
"*#	c #546C13",
"=#	c #33420D",
"-#	c #251809",
";#	c #4C2F14",
">#	c #673C13",
",#	c #563618",
"'#	c #5A3816",
")#	c #4E3318",
"!#	c #442C15",
"~#	c #1B1407",
"{#	c #39460F",
"]#	c #495C10",
"^#	c #4B5E14",
"/#	c #4B5F17",
"(#	c #4C621C",
"_#	c #4D651E",
":#	c #51681F",
"<#	c #5E751A",
"[#	c #647D0E",
"}#	c #5F780C",
"|#	c #5C7508",
"1#	c #5B7308",
"2#	c #516B07",
"3#	c #536C07",
"4#	c #63780C",
"5#	c #61780B",
"6#	c #576D14",
"7#	c #36430E",
"8#	c #442D15",
"9#	c #523418",
"0#	c #5B3816",
"a#	c #4D3116",
"b#	c #344109",
"c#	c #495B11",
"d#	c #62780C",
"e#	c #5F770B",
"f#	c #657D0E",
"g#	c #627B0D",
"h#	c #637A0B",
"i#	c #596E13",
"j#	c #49590C",
"k#	c #37440C",
"l#	c #563617",
"m#	c #1B1005",
"n#	c #49590A",
"o#	c #64790C",
"p#	c #647A0C",
"q#	c #667A0E",
"r#	c #647A0D",
"s#	c #61790A",
"t#	c #62790A",
"u#	c #596F14",
"v#	c #485A0C",
"w#	c #37430B",
"x#	c #1A1105",
"y#	c #372310",
"z#	c #4E3319",
"A#	c #354008",
"B#	c #49590B",
"C#	c #495A0B",
"D#	c #4A5A0D",
"E#	c #586D13",
"F#	c #62770A",
"G#	c #61790B",
"H#	c #596E14",
"I#	c #37450E",
"J#	c #442D16",
"K#	c #35220F",
"L#	c #465909",
"M#	c #46590C",
"N#	c #63780A",
"O#	c #647A0A",
"P#	c #657B0C",
"Q#	c #647B0C",
"R#	c #617B0D",
"S#	c #5E760A",
"T#	c #536B12",
"U#	c #35430D",
"V#	c #261909",
"W#	c #301F0D",
"X#	c #2F1D0C",
"Y#	c #271809",
"Z#	c #1C1105",
"`#	c #1B1106",
" $	c #37440E",
".$	c #566E13",
"+$	c #667D0E",
"@$	c #5C760B",
"#$	c #43570D",
"$$	c #291909",
"%$	c #412B14",
"&$	c #1B1206",
"*$	c #4C5F10",
"=$	c #667E0F",
"  . + @ # $ % & * = - ; > , ' ) ! ~ ~ { ] ^ / ~ { ( _ : < [ } | ",
"1 2 3 4 5 6 7 8 9 0 a ! b c d e f g g h e e i j i k l m n 6 o o ",
"5 p q r s t u v w / e i i e x i y z z y A B C D E B F k l G s % ",
"H I J J K L M N O P Q y y g R S T U V W T X Y Z U T S ` F  ...+.",
"@.% p & #.$.%.&.P E U V V U X *.*.X =.E =.V Z -.;.>.*.T ,.i '.).",
"!.~.& {.].^.&.P E Y /.-.-.Z ;.V U X T (.E Y /.-.Z ;.V U E ,.i { ",
"_.~.@.:.<.[.F y U /.-.-.-.-.-.-./.Y X T }.E Y /.-.-.-./.U |.i ! ",
"1.2.3.4.5.&.` *.V -.-.-.-.-.-.-.-.Z ;.U E }.E Y Z -.-.-.V 6.&.^ ",
"7.8.9.0.k P T >.;.-.-.-.-.-.-.-.-.-.-./.Y E }.X ;.-.-.-.V 6.&.a.",
"b.c.d.b F y e.;.Z -.-.-.-.-.-.-.-.-.-.-./.U T *.f.g.V ;.V h.i.j.",
"k.l.m.n.` o.e.V ;.Z -.-.-.-.-.-.-.-.-.-.-.;.X *.D p.q.r.s.g t.u.",
"v.w.x x.y.R g y X Y /.-.-.-.-.-.-.-.-.-.-.Z Y >.z.A.z B.C.D.E.F.",
"G.H.I.y J.K.L.i ` C Y /.-.-.-.-.-.-.-.-.-.-.Z ;.U p.V M.N.O.P.Q.",
"R.S.z V T.U.I.V.N W.E U ;.Z -.-.-.Z ;.V V V V V e.X =.X.Y.Z.`. +",
"j.g V -.Z ;.T..+h N ++T X U V V V U X *.*.*.*.*.T }.j @+Q #+E.$+",
"~ g U /.-.Z ;.z g %+#+&+*+T *.*.*.T *+&+&+&+&+&+&+=+-+;+>+,+'+$+",
"! P E U V U )+!+~+>+A =+S &+{+` ]+]+` {+&+&+&+&+&+^+` #+i -+/+(+",
"_+:+B T *.T }.<+[+}+|+1+2+3+4+5+6+6+7+8+S &+&+&+&+&+&+&+S P O 9+",
"w.[.i S &+&+` 0+a+b+c+d+e+f+g+h+i+j+k+l+i S &+&+&+*+T T *+,.m+n+",
"o+P.:+` &+S p+q+j+r+s+t+u+v+w+x+y+z+A+B+C+i ` {+&+D+E+=.E X F+G+",
"H+I+J+K+A F L+M+N+O+P+O+s+Q+R+S+T+U+V+W+X+e+Y+4+3+Z+y X !+`+ @.@",
"+@@@#@$@'+E.%@&@*@=@u+-@;@>@,@'@'@'@,@)@!@~@{@]@^@7+/@++(@_@:@<@",
"[@+@}@#@|@1@2@3@4@5@6@7@8@9@0@a@b@a@'@S+x+c@d@P+u+e@f@C+g@h@i@j@",
"k@l@+@m@n@m@o@p@q@r@s@t@u@v@w@S+x@S+'@S+z+c@O+s+y@z@A@B@C+C@D@E@",
"F@G@k.H@I@J@K@L@M@N@O@P@Q@R@'@S+x@S+z+S@T@s+z@U@V@W@X@Y@Z@`@ #.#",
"F@+#@###$#.   %#&#*#=#-#;#>#w@,#b@'#)#!#z@~#{#]#^#/#(#_#:#<#[#}#",
"|#1#2#3#3 I 4#5#6#7#z@8#9#S+'@w@0#b@a#z@b#c#+.d#o b.e#&#1.f#g#}#",
"2 3 k@5 h#H i#j#k#z@s+O+d@l#S+T+S+,#A+m#n#o#p#q#% 5 k@b.5#r#o I ",
"s#q t#I u#v#w#x#z@8#O+y#T@z#z+z+x+d@O+z@A#B#C#D#E#t#F#3 H J I H ",
"G#5#1 H#I#x#z@s+O+c@c@O+O+c@c@J#K#T@c@!#z@m#4@U@w#L#M#H#N#O#P#Q#",
"R#S#T#U#V#s+O+c@d@d@d@O+W#O+O+X#s+c@d@c@O+j+j+s+Y#Z#`# $.$%#+$+$",
"R#@$#$`#~@c@d@d@d@d@d@j+$$j+j+$$j+d@d@d@d@d@d@c@O+i+%$&$*$} =$=$"};
