/* XPM */
static char * wall0_xpm[] = {
"32 32 472 2",
"  	c #60790C",
". 	c #5E770A",
"+ 	c #5C7409",
"@ 	c #5C7509",
"# 	c #5F7609",
"$ 	c #62780B",
"% 	c #63790C",
"& 	c #64790B",
"* 	c #607327",
"= 	c #6A7058",
"- 	c #6B705C",
"; 	c #4A5A1A",
"> 	c #45580D",
", 	c #4C631F",
"' 	c #3F5522",
") 	c #182913",
"! 	c #0A1C0A",
"~ 	c #0B1C0B",
"{ 	c #0C1E0B",
"] 	c #22341B",
"^ 	c #172712",
"/ 	c #3A4C16",
"( 	c #425919",
"_ 	c #506A17",
": 	c #627A0C",
"< 	c #617A0C",
"[ 	c #647C0D",
"} 	c #647C0E",
"| 	c #60780A",
"1 	c #5F7709",
"2 	c #60770A",
"3 	c #5F7608",
"4 	c #61780A",
"5 	c #597018",
"6 	c #50651F",
"7 	c #50641D",
"8 	c #415521",
"9 	c #1B2C16",
"0 	c #12210E",
"a 	c #0B1D0A",
"b 	c #1F3019",
"c 	c #182A14",
"d 	c #122A12",
"e 	c #214621",
"f 	c #214F21",
"g 	c #112811",
"h 	c #112911",
"i 	c #224E22",
"j 	c #122911",
"k 	c #142511",
"l 	c #374A19",
"m 	c #4A6019",
"n 	c #62790C",
"o 	c #62780A",
"p 	c #617709",
"q 	c #617809",
"r 	c #5A7118",
"s 	c #425823",
"t 	c #20341A",
"u 	c #192B15",
"v 	c #132511",
"w 	c #0C200C",
"x 	c #214521",
"y 	c #112711",
"z 	c #224622",
"A 	c #245424",
"B 	c #186818",
"C 	c #244924",
"D 	c #244B24",
"E 	c #235723",
"F 	c #1B661B",
"G 	c #235823",
"H 	c #214421",
"I 	c #142611",
"J 	c #3E521E",
"K 	c #63790B",
"L 	c #62790B",
"M 	c #63780B",
"N 	c #4E651F",
"O 	c #253A1E",
"P 	c #1F3F1E",
"Q 	c #1B391B",
"R 	c #132B13",
"S 	c #224F22",
"T 	c #234B23",
"U 	c #274E27",
"V 	c #255425",
"W 	c #186918",
"X 	c #156C15",
"Y 	c #245624",
"Z 	c #235923",
"` 	c #176A17",
" .	c #116F11",
"..	c #244A24",
"+.	c #172D15",
"@.	c #3E501A",
"#.	c #596F16",
"$.	c #657C0D",
"%.	c #516721",
"&.	c #2F4526",
"*.	c #162B14",
"=.	c #132C13",
"-.	c #224722",
";.	c #245524",
">.	c #1B651B",
",.	c #107010",
"'.	c #146D14",
").	c #225A22",
"!.	c #264F26",
"~.	c #132912",
"{.	c #394A16",
"].	c #587209",
"^.	c #657B0D",
"/.	c #5B7019",
"(.	c #415622",
"_.	c #1A2D16",
":.	c #122B12",
"<.	c #214721",
"[.	c #117011",
"}.	c #265126",
"|.	c #536D08",
"1.	c #516720",
"2.	c #20321A",
"3.	c #0D200D",
"4.	c #265026",
"5.	c #245324",
"6.	c #637B0D",
"7.	c #657D0F",
"8.	c #5D751A",
"9.	c #445B25",
"0.	c #22361C",
"a.	c #215021",
"b.	c #102610",
"c.	c #152311",
"d.	c #607A0C",
"e.	c #5C741A",
"f.	c #435823",
"g.	c #1B2E16",
"h.	c #20311A",
"i.	c #60780B",
"j.	c #4F651F",
"k.	c #1C2D17",
"l.	c #0D210D",
"m.	c #196819",
"n.	c #166B16",
"o.	c #146C14",
"p.	c #235423",
"q.	c #1E3F1E",
"r.	c #0B1C0A",
"s.	c #587019",
"t.	c #3F5421",
"u.	c #132410",
"v.	c #255525",
"w.	c #205E20",
"x.	c #225922",
"y.	c #215921",
"z.	c #176217",
"A.	c #122912",
"B.	c #081607",
"C.	c #4C611C",
"D.	c #182914",
"E.	c #224522",
"F.	c #264D26",
"G.	c #215B21",
"H.	c #1A671A",
"I.	c #205520",
"J.	c #163E16",
"K.	c #1D401D",
"L.	c #0A1D0A",
"M.	c #182713",
"N.	c #384A17",
"O.	c #10290F",
"P.	c #1F4B1F",
"Q.	c #225022",
"R.	c #163316",
"S.	c #152F15",
"T.	c #196619",
"U.	c #1E501E",
"V.	c #143014",
"W.	c #0A1909",
"X.	c #445229",
"Y.	c #122310",
"Z.	c #1E4A1E",
"`.	c #176817",
" +	c #1F541F",
".+	c #153115",
"++	c #153015",
"@+	c #215C21",
"#+	c #1D611D",
"$+	c #1F491F",
"%+	c #0D1D0C",
"&+	c #505843",
"*+	c #0C1D0B",
"=+	c #205420",
"-+	c #204520",
";+	c #234A23",
">+	c #224B22",
",+	c #234923",
"'+	c #0B1E0B",
")+	c #192814",
"!+	c #274F27",
"~+	c #275027",
"{+	c #254B25",
"]+	c #163116",
"^+	c #163016",
"/+	c #0B1D0B",
"(+	c #192914",
"_+	c #215D21",
":+	c #1A651A",
"<+	c #1E4B1E",
"[+	c #264E27",
"}+	c #234924",
"|+	c #264E26",
"1+	c #142E14",
"2+	c #3D4F1C",
"3+	c #091908",
"4+	c #224A20",
"5+	c #203215",
"6+	c #203F1E",
"7+	c #204421",
"8+	c #204521",
"9+	c #254924",
"0+	c #2B4722",
"a+	c #232C13",
"b+	c #20220E",
"c+	c #202B13",
"d+	c #244622",
"e+	c #255325",
"f+	c #102710",
"g+	c #3B4B17",
"h+	c #182814",
"i+	c #202A13",
"j+	c #3D2A14",
"k+	c #292510",
"l+	c #1E210D",
"m+	c #161808",
"n+	c #272610",
"o+	c #3F3117",
"p+	c #462F17",
"q+	c #472E16",
"r+	c #472F16",
"s+	c #422C15",
"t+	c #202912",
"u+	c #12240F",
"v+	c #2B3F23",
"w+	c #0D1F0C",
"x+	c #234521",
"y+	c #292410",
"z+	c #492F17",
"A+	c #432B15",
"B+	c #2F1D0C",
"C+	c #422B14",
"D+	c #3E2813",
"E+	c #36210E",
"F+	c #4F3216",
"G+	c #543518",
"H+	c #533518",
"I+	c #482F16",
"J+	c #1C1206",
"K+	c #0F260F",
"L+	c #23381D",
"M+	c #193518",
"N+	c #0D220D",
"O+	c #204420",
"P+	c #1F2E14",
"Q+	c #3D2913",
"R+	c #462E16",
"S+	c #482F17",
"T+	c #4C3218",
"U+	c #432C15",
"V+	c #35220E",
"W+	c #4E3014",
"X+	c #643B14",
"Y+	c #673D13",
"Z+	c #643C14",
"`+	c #513315",
" @	c #281808",
".@	c #121206",
"+@	c #222C13",
"@@	c #254B24",
"#@	c #214F22",
"$@	c #176017",
"%@	c #1E491E",
"&@	c #415723",
"*@	c #1E331A",
"=@	c #0F250F",
"-@	c #1A250F",
";@	c #271809",
">@	c #241608",
",@	c #2C1B0B",
"'@	c #452D15",
")@	c #3D240D",
"!@	c #503113",
"~@	c #613A14",
"{@	c #583717",
"]@	c #4E3013",
"^@	c #301E0C",
"/@	c #473017",
"(@	c #443419",
"_@	c #292711",
":@	c #234421",
"<@	c #0C340C",
"[@	c #0B230B",
"}@	c #091708",
"|@	c #597019",
"1@	c #1D3118",
"2@	c #0C210C",
"3@	c #1C2611",
"4@	c #231608",
"5@	c #201306",
"6@	c #1F1206",
"7@	c #1B1105",
"8@	c #2F1A06",
"9@	c #5A330C",
"0@	c #643A13",
"a@	c #573718",
"b@	c #573618",
"c@	c #623A15",
"d@	c #4C3219",
"e@	c #4D3319",
"f@	c #3C2812",
"g@	c #1C210D",
"h@	c #0B1F0C",
"i@	c #082A08",
"j@	c #0C240C",
"k@	c #1A2B15",
"l@	c #61770A",
"m@	c #566E19",
"n@	c #1D3018",
"o@	c #172812",
"p@	c #304426",
"q@	c #242C17",
"r@	c #1F2310",
"s@	c #222A15",
"t@	c #3A4C18",
"u@	c #3A4209",
"v@	c #341D06",
"w@	c #523315",
"x@	c #543618",
"y@	c #5C3816",
"z@	c #422C14",
"A@	c #281809",
"B@	c #141506",
"C@	c #091C0A",
"D@	c #0E230D",
"E@	c #142E11",
"F@	c #1D3117",
"G@	c #405623",
"H@	c #5B7409",
"I@	c #496405",
"J@	c #425B1D",
"K@	c #4E641D",
"L@	c #4D641E",
"M@	c #506922",
"N@	c #52681F",
"O@	c #4F661E",
"P@	c #4B631E",
"Q@	c #4C631E",
"R@	c #36420B",
"S@	c #311B07",
"T@	c #5F3812",
"U@	c #513418",
"V@	c #493017",
"W@	c #261709",
"X@	c #1A1105",
"Y@	c #130E05",
"Z@	c #141206",
"`@	c #151F0E",
" #	c #162712",
".#	c #1D2F18",
"+#	c #435822",
"@#	c #50681F",
"##	c #577019",
"$#	c #536D07",
"%#	c #4E6A08",
"&#	c #4A6505",
"*#	c #5E760B",
"=#	c #647B0D",
"-#	c #61790C",
";#	c #546C13",
">#	c #33420D",
",#	c #251809",
"'#	c #4C2F14",
")#	c #673C13",
"!#	c #563618",
"~#	c #5A3816",
"{#	c #4E3318",
"]#	c #442C15",
"^#	c #261809",
"/#	c #1B1307",
"(#	c #38460F",
"_#	c #495C10",
":#	c #4B5E14",
"<#	c #4B5F17",
"[#	c #4C621C",
"}#	c #4D651E",
"|#	c #51681F",
"1#	c #5E751A",
"2#	c #647D0E",
"3#	c #5F780C",
"4#	c #5C7508",
"5#	c #5B7308",
"6#	c #516B07",
"7#	c #536C07",
"8#	c #63780C",
"9#	c #61780B",
"0#	c #576D14",
"a#	c #36430E",
"b#	c #442D15",
"c#	c #523418",
"d#	c #5B3816",
"e#	c #4D3116",
"f#	c #344109",
"g#	c #495B11",
"h#	c #62780C",
"i#	c #5F770B",
"j#	c #657D0E",
"k#	c #627B0D",
"l#	c #637A0B",
"m#	c #596E13",
"n#	c #49590C",
"o#	c #37440C",
"p#	c #563617",
"q#	c #1B1005",
"r#	c #49590A",
"s#	c #64790C",
"t#	c #647A0C",
"u#	c #667A0E",
"v#	c #647A0D",
"w#	c #61790A",
"x#	c #62790A",
"y#	c #596F14",
"z#	c #485A0C",
"A#	c #37430B",
"B#	c #372310",
"C#	c #4E3319",
"D#	c #354008",
"E#	c #49590B",
"F#	c #495A0B",
"G#	c #4A5A0D",
"H#	c #586D13",
"I#	c #62770A",
"J#	c #61790B",
"K#	c #596E14",
"L#	c #37450E",
"M#	c #442D16",
"N#	c #35220F",
"O#	c #1C1005",
"P#	c #465909",
"Q#	c #46590C",
"R#	c #63780A",
"S#	c #647A0A",
"T#	c #657B0C",
"U#	c #647B0C",
"V#	c #617B0D",
"W#	c #5E760A",
"X#	c #536B12",
"Y#	c #35430D",
"Z#	c #261909",
"`#	c #301F0D",
" $	c #1C1105",
".$	c #1B1106",
"+$	c #37440E",
"@$	c #566E13",
"#$	c #667D0E",
"$$	c #5C760B",
"%$	c #43570D",
"&$	c #291909",
"*$	c #412B14",
"=$	c #1B1206",
"-$	c #4C5F10",
";$	c #667E0F",
"  . + @ # $ % & * = - ; > , ' ) ! ~ ~ { ] ^ ! ~ { / ( _ : < [ } ",
"| 1 2 3 4 5 6 7 8 9 0 ! a b c d e f f e g h e i e j k l m 5 n n ",
"4 o p q r s t u v w h x x y h z A B B A C D E F G D H g I J r % ",
"K L M M N O P Q R e S A A f T U V W X Y V Z `  .W V U ..H +.@.#.",
"$.% o & %.&.*.=.-.G W X X W Z ;.;.Z >.G >.X  .,.'.).;.V !.x ~.{.",
"].^.& /.(._.:.<.G ` [.,.,. .'.X W Z V }.G ` [.,. .'.X W G !.H { ",
"|.^.$.1.2.3.x A W [.,.,.,.,.,.,.[.` Z V 4.G ` [.,.,.,.[.W 5.H ! ",
"6.7.8.9.0.g ..;.X ,.,.,.,.,.,.,.,. .'.W G 4.G `  .,.,.,.X a.b.c.",
"d.e.f.g.R <.V ).'.,.,.,.,.,.,.,.,.,.,.[.` G 4.Z '.,.,.,.X a.y h.",
"i.j.k.l.x A m.'. .,.,.,.,.,.,.,.,.,.,.,.[.W V ;.n.o.X '.X p.q.r.",
"s.t.u.h ..v.m.X '. .,.,.,.,.,.,.,.,.,.,.,.'.Z ;.F w.x.y.z.f A.B.",
"C.D.A.E.F.T f A Z ` [.,.,.,.,.,.,.,.,.,.,. .` ).G.H.B I.J.K.L.M.",
"N.O.P.A Q.R.S.x ..E ` [.,.,.,.,.,.,.,.,.,.,. .'.W w.X T.U.V.W.X.",
"Y.Z.B X `. +P..+++-.G W '. .,.,.,. .'.X X X X X m.Z >.@+#+$+%+&+",
"*+f X ,. .'.`.=+-+++;+V Z W X X X W Z ;.;.;.;.;.V 4.i >+S ,+'+)+",
"~ f W [.,. .'.B f A.,+!+~+V ;.;.;.V ~+!+!+!+!+!+!+{+]+d ^+q./+(+",
"! e G W X W _+:+<+^+C {+U !+[+..}+}+..[+!+!+!+!+!+|+..,+x 1+B.2+",
"3+=.D V ;.V 4.4+5+6+7+++8+9+0+a+b+b+c+d+U !+!+!+~+e+~+!+U e f+g+",
"h+w x U !+!+..i+j+k+l+m+l+n+o+p+q+r+s+t+x U !+!+V >.x.V ~+U H u+",
"v+w+=...!+U x+y+r+z+A+B+C+D+E+F+G+H+I+J+K+x ..[+V m.B >.Z v.;+/+",
"L+M+N+O+C x P+Q+R+S+T+S+U+V+W+X+Y+Z+`+ @.@l++@0+@@#@A G :+$@%@! ",
"&@*@=@h K+h -@;@>@,@U+'@)@!@~@{@{@{@~@]@^@A+/@(@_@i+:@;+P.<@[@}@",
"|@&@1@=@2@=@3@4@5@6@7@8@9@0@a@b@c@b@{@X+F+d@e@T+C+f@g@h@l.i@j@k@",
"l@m@&@n@o@n@p@q@r@s@t@u@v@w@x@X+y@X+{@X+H+d@S+z@A@5@B@C@D@E@F@G@",
"H@I@s.J@K@L@M@N@O@P@Q@R@S@T@{@X+y@X+H+U@V@C+W@X@Y@Z@`@ #.#+#@###",
"H@$#%#&#*#.   =#-#;#>#,#'#)#x@!#c@~#{#]#^#/#(#_#:#<#[#}#|#1#2#3#",
"4#5#6#7#2 L 8#9#0#a#^#b#c#X+{@x@d#c@e#^#f#g##.h#n i.i#-#6.j#k#3#",
"1 2 l@4 l#K m#n#o#^#U+S+e@p#X+Y+X+!#I+q#r#s#t#u#% 4 l@i.9#v#n L ",
"w#p x#L y#z#A#X@^#b#S+B#V@C#H+H+F+e@S+^#D#E#F#G#H#x#I#2 K M L K ",
"J#9#| K#L#X@^#U+S+d@d@S+S+d@d@M#N#V@d@]#^#q#O#7@A#P#Q#K#R#S#T#U#",
"V#W#X#Y#Z#U+S+d@e@e@e@S+`#S+S+B+U+d@e@d@S+r+r+U+;@ $.$+$@$=##$#$",
"V#$$%$.$A+d@e@e@e@e@e@r+&$r+r+&$r+e@e@e@e@e@e@d@S+q+*$=$-$[ ;$;$"};
