/* XPM */
static char * wall5_xpm[] = {
"32 32 478 2",
"  	c #60790C",
". 	c #5E770A",
"+ 	c #5C7409",
"@ 	c #5C7509",
"# 	c #5F7609",
"$ 	c #62780B",
"% 	c #63790C",
"& 	c #64790B",
"* 	c #607327",
"= 	c #6A7058",
"- 	c #6B705C",
"; 	c #4A5A1A",
"> 	c #45580D",
", 	c #4C631F",
"' 	c #3F5522",
") 	c #172712",
"! 	c #0A1C0A",
"~ 	c #0B1C0B",
"{ 	c #0C1E0B",
"] 	c #22341B",
"^ 	c #162512",
"/ 	c #3A4B16",
"( 	c #425919",
"_ 	c #506A17",
": 	c #627A0C",
"< 	c #617A0C",
"[ 	c #647C0D",
"} 	c #647C0E",
"| 	c #60780A",
"1 	c #5F7709",
"2 	c #60770A",
"3 	c #5F7608",
"4 	c #61780A",
"5 	c #597018",
"6 	c #50651F",
"7 	c #50641D",
"8 	c #415521",
"9 	c #1A2914",
"0 	c #101D0C",
"a 	c #0B1D0A",
"b 	c #1E2F18",
"c 	c #162612",
"d 	c #112811",
"e 	c #214621",
"f 	c #214F21",
"g 	c #112711",
"h 	c #224E22",
"i 	c #12220F",
"j 	c #364A18",
"k 	c #4A6019",
"l 	c #62790C",
"m 	c #62780A",
"n 	c #617709",
"o 	c #617809",
"p 	c #5A7118",
"q 	c #425823",
"r 	c #20341A",
"s 	c #182A14",
"t 	c #111F0D",
"u 	c #0A1B0A",
"v 	c #214521",
"w 	c #102710",
"x 	c #224622",
"y 	c #245424",
"z 	c #186818",
"A 	c #244924",
"B 	c #244B24",
"C 	c #235723",
"D 	c #1B661B",
"E 	c #235823",
"F 	c #214721",
"G 	c #132C13",
"H 	c #0C1E0C",
"I 	c #132310",
"J 	c #3E521E",
"K 	c #63790B",
"L 	c #62790B",
"M 	c #63780B",
"N 	c #4E651F",
"O 	c #253A1E",
"P 	c #1E3E1E",
"Q 	c #142E14",
"R 	c #224F22",
"S 	c #234B23",
"T 	c #274E27",
"U 	c #255425",
"V 	c #186918",
"W 	c #156C15",
"X 	c #245624",
"Y 	c #235923",
"Z 	c #176A17",
"` 	c #116F11",
" .	c #255325",
"..	c #244A24",
"+.	c #152F15",
"@.	c #142711",
"#.	c #3E501A",
"$.	c #596F16",
"%.	c #657C0D",
"&.	c #516721",
"*.	c #2F4526",
"=.	c #224722",
"-.	c #265026",
";.	c #1B651B",
">.	c #107010",
",.	c #146D14",
"'.	c #225A22",
").	c #264F26",
"!.	c #0F220E",
"~.	c #394A16",
"{.	c #587209",
"].	c #657B0D",
"^.	c #5B7019",
"/.	c #415522",
"(.	c #192A15",
"_.	c #117011",
":.	c #265126",
"<.	c #091908",
"[.	c #536D08",
"}.	c #516720",
"|.	c #203119",
"1.	c #275027",
"2.	c #0F250F",
"3.	c #071607",
"4.	c #637B0D",
"5.	c #657D0F",
"6.	c #5D751A",
"7.	c #445B25",
"8.	c #21341B",
"9.	c #245524",
"0.	c #0B1F0B",
"a.	c #152411",
"b.	c #607A0C",
"c.	c #5C741A",
"d.	c #435823",
"e.	c #1A2B15",
"f.	c #122911",
"g.	c #20311A",
"h.	c #60780B",
"i.	c #4F651F",
"j.	c #1B2B15",
"k.	c #196819",
"l.	c #274F27",
"m.	c #166B16",
"n.	c #146C14",
"o.	c #224522",
"p.	c #102810",
"q.	c #0A1909",
"r.	c #587019",
"s.	c #3F5321",
"t.	c #101E0D",
"u.	c #215D21",
"v.	c #225922",
"w.	c #176217",
"x.	c #142D14",
"y.	c #0F240F",
"z.	c #091808",
"A.	c #4C611C",
"B.	c #172512",
"C.	c #0B1D0B",
"D.	c #1A671A",
"E.	c #205520",
"F.	c #163E16",
"G.	c #1E411E",
"H.	c #182813",
"I.	c #384A17",
"J.	c #0C1F0B",
"K.	c #132D13",
"L.	c #126F12",
"M.	c #196619",
"N.	c #1E501E",
"O.	c #153415",
"P.	c #102910",
"Q.	c #445229",
"R.	c #10200E",
"S.	c #143114",
"T.	c #1F4C1F",
"U.	c #225022",
"V.	c #163316",
"W.	c #153015",
"X.	c #146B14",
"Y.	c #136513",
"Z.	c #1C571C",
"`.	c #195D19",
" +	c #1E4A1E",
".+	c #112911",
"++	c #0B1A0A",
"@+	c #505943",
"#+	c #0B1C0A",
"$+	c #1F4B1F",
"%+	c #176817",
"&+	c #1F541F",
"*+	c #153115",
"=+	c #225122",
"-+	c #123A12",
";+	c #102D10",
">+	c #123812",
",+	c #132B13",
"'+	c #091B09",
")+	c #1A2A14",
"!+	c #205420",
"~+	c #204520",
"{+	c #234923",
"]+	c #163116",
"^+	c #183518",
"/+	c #0B1E0B",
"(+	c #122A12",
"_+	c #234823",
":+	c #254B25",
"<+	c #264E27",
"[+	c #234924",
"}+	c #091909",
"|+	c #3D4F1C",
"1+	c #0C1D0B",
"2+	c #1A651A",
"3+	c #1E4B1E",
"4+	c #1E401E",
"5+	c #163015",
"6+	c #204521",
"7+	c #254924",
"8+	c #2B4722",
"9+	c #232C13",
"0+	c #20220E",
"a+	c #202B13",
"b+	c #244622",
"c+	c #3A4B17",
"d+	c #182713",
"e+	c #112710",
"f+	c #224A20",
"g+	c #203215",
"h+	c #1F3A1B",
"i+	c #1F2811",
"j+	c #1A1909",
"k+	c #1E210D",
"l+	c #272610",
"m+	c #3F3117",
"n+	c #462F17",
"o+	c #472E16",
"p+	c #472F16",
"q+	c #422C15",
"r+	c #202912",
"s+	c #0F210C",
"t+	c #2A3F22",
"u+	c #0D1F0C",
"v+	c #214421",
"w+	c #202A13",
"x+	c #3D2A14",
"y+	c #302711",
"z+	c #3E2A14",
"A+	c #301E0C",
"B+	c #422B14",
"C+	c #3E2813",
"D+	c #36210E",
"E+	c #4F3216",
"F+	c #543518",
"G+	c #533518",
"H+	c #482F16",
"I+	c #1C1206",
"J+	c #0F260F",
"K+	c #234B24",
"L+	c #204620",
"M+	c #0E340E",
"N+	c #042104",
"O+	c #23371D",
"P+	c #162F15",
"Q+	c #234521",
"R+	c #292410",
"S+	c #493017",
"T+	c #4C3218",
"U+	c #482F17",
"V+	c #432C15",
"W+	c #35220E",
"X+	c #4E3014",
"Y+	c #643B14",
"Z+	c #673D13",
"`+	c #643C14",
" @	c #513315",
".@	c #281808",
"+@	c #121206",
"@@	c #20230E",
"#@	c #212B13",
"$@	c #133413",
"%@	c #0E360E",
"&@	c #184218",
"*@	c #081F08",
"=@	c #415723",
"-@	c #1D3118",
";@	c #0D200D",
">@	c #204320",
",@	c #1E2A12",
"'@	c #3D2913",
")@	c #462E16",
"!@	c #452D15",
"~@	c #3D240D",
"{@	c #503113",
"]@	c #613A14",
"^@	c #583717",
"/@	c #4E3013",
"(@	c #432B15",
"_@	c #1F220E",
":@	c #10250F",
"<@	c #122C13",
"[@	c #1A401A",
"}@	c #0B340B",
"|@	c #0E2B0E",
"1@	c #0A1B09",
"2@	c #597019",
"3@	c #1B2E17",
"4@	c #0D210D",
"5@	c #0C1F0C",
"6@	c #1A220F",
"7@	c #201407",
"8@	c #1E1206",
"9@	c #1E1106",
"0@	c #1C1105",
"a@	c #2F1A06",
"b@	c #5A330C",
"c@	c #643A13",
"d@	c #573718",
"e@	c #573618",
"f@	c #623A15",
"g@	c #4C3219",
"h@	c #4D3219",
"i@	c #442D15",
"j@	c #34230F",
"k@	c #1A210D",
"l@	c #0D220D",
"m@	c #102A10",
"n@	c #0A300A",
"o@	c #0E270E",
"p@	c #1A2C16",
"q@	c #61770A",
"r@	c #566E19",
"s@	c #1C2E17",
"t@	c #162511",
"u@	c #304426",
"v@	c #222B16",
"w@	c #1C220F",
"x@	c #1F2915",
"y@	c #3A4C18",
"z@	c #3A4209",
"A@	c #341D06",
"B@	c #523315",
"C@	c #543618",
"D@	c #5C3816",
"E@	c #523418",
"F@	c #2E1D0C",
"G@	c #251608",
"H@	c #261709",
"I@	c #171908",
"J@	c #142E11",
"K@	c #1D3117",
"L@	c #405623",
"M@	c #5B7409",
"N@	c #496405",
"O@	c #425B1D",
"P@	c #4E641D",
"Q@	c #4D641E",
"R@	c #506922",
"S@	c #52681F",
"T@	c #4F661E",
"U@	c #4B631E",
"V@	c #4C631E",
"W@	c #36420B",
"X@	c #311B07",
"Y@	c #5F3812",
"Z@	c #513418",
"`@	c #2B1A0A",
" #	c #160E04",
".#	c #171006",
"+#	c #181307",
"@#	c #161F0E",
"##	c #162712",
"$#	c #1D2F18",
"%#	c #435822",
"&#	c #50681F",
"*#	c #577019",
"=#	c #536D07",
"-#	c #4E6A08",
";#	c #4A6505",
">#	c #5E760B",
",#	c #647B0D",
"'#	c #61790C",
")#	c #546C13",
"!#	c #33420D",
"~#	c #251809",
"{#	c #4C2F14",
"]#	c #673C13",
"^#	c #563618",
"/#	c #5A3816",
"(#	c #4E3318",
"_#	c #442C15",
":#	c #161005",
"<#	c #38460F",
"[#	c #495C10",
"}#	c #4B5E14",
"|#	c #4B5F17",
"1#	c #4C621C",
"2#	c #4D651E",
"3#	c #51681F",
"4#	c #5E751A",
"5#	c #647D0E",
"6#	c #5F780C",
"7#	c #5C7508",
"8#	c #5B7308",
"9#	c #516B07",
"0#	c #536C07",
"a#	c #63780C",
"b#	c #61780B",
"c#	c #576D14",
"d#	c #36430E",
"e#	c #261809",
"f#	c #5B3816",
"g#	c #4D3116",
"h#	c #344109",
"i#	c #495B11",
"j#	c #62780C",
"k#	c #5F770B",
"l#	c #657D0E",
"m#	c #627B0D",
"n#	c #637A0B",
"o#	c #596E13",
"p#	c #49590C",
"q#	c #37440C",
"r#	c #4D3319",
"s#	c #563617",
"t#	c #1B1005",
"u#	c #49590A",
"v#	c #64790C",
"w#	c #647A0C",
"x#	c #667A0E",
"y#	c #647A0D",
"z#	c #61790A",
"A#	c #62790A",
"B#	c #596F14",
"C#	c #485A0C",
"D#	c #37430B",
"E#	c #1A1105",
"F#	c #372310",
"G#	c #4E3319",
"H#	c #354008",
"I#	c #49590B",
"J#	c #495A0B",
"K#	c #4A5A0D",
"L#	c #586D13",
"M#	c #62770A",
"N#	c #61790B",
"O#	c #596E14",
"P#	c #37450E",
"Q#	c #442D16",
"R#	c #35220F",
"S#	c #1C1005",
"T#	c #1B1105",
"U#	c #465909",
"V#	c #46590C",
"W#	c #63780A",
"X#	c #647A0A",
"Y#	c #657B0C",
"Z#	c #647B0C",
"`#	c #617B0D",
" $	c #5E760A",
".$	c #536B12",
"+$	c #35430D",
"@$	c #261909",
"#$	c #301F0D",
"$$	c #2F1D0C",
"%$	c #271809",
"&$	c #1B1106",
"*$	c #37440E",
"=$	c #566E13",
"-$	c #667D0E",
";$	c #5C760B",
">$	c #43570D",
",$	c #291909",
"'$	c #412B14",
")$	c #1B1206",
"!$	c #4C5F10",
"~$	c #667E0F",
"  . + @ # $ % & * = - ; > , ' ) ! ~ ~ { ] ^ ! ~ { / ( _ : < [ } ",
"| 1 2 3 4 5 6 7 8 9 0 ! a b c d e f f e d g e h e d i j k 5 l l ",
"4 m n o p q r s t u g v v g w x y z z y A B C D E F G H I J p % ",
"K L M M N O P Q w e R y y f S T U V W X U Y Z ` V  ...v +.@.#.$.",
"%.% m & &.*.@.d =.E V W W V Y U -.E ;.E ;.W ` >.,.'.U ).x +.!.~.",
"{.].& ^./.(.d F E Z _.>.>.` ,.V E -. .:.E Z _.>.` ,.V E ).v d <.",
"[.].%.}.|.a v y V _.>.>.>.>.>._.Z Y U 1.1.E Z _.>.>._.V U A 2.3.",
"4.5.6.7.8.d ..9.W >.>.>.>.>.>.>.` ,.V E 1.1.E Z ` >.>.W 9.A 0.a.",
"b.c.d.e.f.F U '.,.>.>.>.>.>.>.>.>.>._.Z E 1.1.Y ,.>.>.W 9.A 0.g.",
"h.i.j.! v y k.,.` >.>.>.>.>.>.>.>.>.>._.Z E l.9.m.n.n.W y o.p.q.",
"r.s.t.p...U k.,.` >.>.>.>.>.>.>.>.>.>.>._.Z E 9.D u.v.w.f x.y.z.",
"A.B.C.v T 1.U Y Z _.>.>.>.>.>.>.>.>.>.>.>._.Z '.u.D.E.F.G.d u H.",
"I.J.K...T ..A ).E V ,.` >.>.>.>.>.>.>.>.>.>.` n.n.L.M.N.O.P.u Q.",
"R.S.T.y U.V.W.v B  .Y V ,.` >.>.>.` ,.W W W W W X.Y.Z.`. +.+++@+",
"#+$+z W %+&+$+*+W.x ).U Y V W W W V Y 9.9.9.9.9.=+-+;+>+G.,+'+)+",
"~ f W >.` ,.%+!+~+W...l.1.U 9.9.9.U 1.l.l.l.l.l.T A {+o.]+^+/+)+",
"~ f V _.>.` ,.z f (+_+:+T l.<+..[+[+..<+l.l.l.l.l.1.U y F ,+}+|+",
"1+v E V W V u.2+3++.4+5+6+7+8+9+0+0+a+b+T l.l.l.1.E V V E e { c+",
"d+e+B U 9.U -.f+g+h+i+j+k+l+m+n+o+p+q+r+v T l.l. .;.W W ;.h 2.s+",
"t+u+v+T l.l...w+x+y+z+A+B+C+D+E+F+G+H+I+J+v [+[+K+y 9.y R L+M+N+",
"O+P+d ..l.T Q+R+p+S+T+U+V+W+X+Y+Z+`+ @.@+@k+@@0+#@Q+[+o.$@%@&@*@",
"=@-@;@>@A v+,@'@)@p+p+!@~@{@]@^@^@^@]@/@A+(@p+)@'@_@:@<@[@}@|@1@",
"2@=@3@4@5@4@6@7@8@9@0@a@b@c@d@e@f@e@^@Y+E+g@h@i@A+j@k@l@m@n@o@p@",
"q@r@=@s@t@s@u@v@w@x@y@z@A@B@C@Y+D@Y+^@Y+E@U+V+F@G@H@I@0.J+J@K@L@",
"M@N@r.O@P@Q@R@S@T@U@V@W@X@Y@^@Y+D@Y+G+Z@!@`@0@ #.#+#@###$#%#&#*#",
"M@=#-#;#>#.   ,#'#)#!#~#{#]#C@^#f@/#(#_#H@:#<#[#}#|#1#2#3#4#5#6#",
"7#8#9#0#2 L a#b#c#d#e#i@E@Y+^@C@f#f@g#e#h#i#$.j#l h.k#'#4.l#m#6#",
"1 2 q@4 n#K o#p#q#e#V+U+r#s#Y+Z+Y+^#H+t#u#v#w#x#% 4 q@h.b#y#l L ",
"z#n A#L B#C#D#E#e#i@U+F#S+G#G+G+E+r#U+e#H#I#J#K#L#A#M#2 K M L K ",
"N#b#| O#P#E#e#V+U+g@g@U+U+g@g@Q#R#S+g@_#e#t#S#T#D#U#V#O#W#X#Y#Z#",
"`# $.$+$@$V+U+g@r#r#r#U+#$U+U+$$V+g@r#g@U+p+p+V+%$0@&$*$=$,#-$-$",
"`#;$>$&$(@g@r#r#r#r#r#p+,$p+p+,$p+r#r#r#r#r#r#g@U+o+'$)$!$[ ~$~$"};
