/* XPM */
static char * wall1_xpm[] = {
"32 32 476 2",
"  	c #60790C",
". 	c #5E770A",
"+ 	c #5C7409",
"@ 	c #5C7509",
"# 	c #5F7609",
"$ 	c #62780B",
"% 	c #63790C",
"& 	c #64790B",
"* 	c #607327",
"= 	c #6A7058",
"- 	c #6B705C",
"; 	c #4A5A1A",
"> 	c #45580D",
", 	c #4C631F",
"' 	c #3F5522",
") 	c #182813",
"! 	c #071707",
"~ 	c #071507",
"{ 	c #0A1908",
"] 	c #22341B",
"^ 	c #172612",
"/ 	c #3A4B16",
"( 	c #425919",
"_ 	c #506A17",
": 	c #627A0C",
"< 	c #617A0C",
"[ 	c #647C0D",
"} 	c #647C0E",
"| 	c #60780A",
"1 	c #5F7709",
"2 	c #60770A",
"3 	c #5F7608",
"4 	c #61780A",
"5 	c #597018",
"6 	c #50651F",
"7 	c #50641D",
"8 	c #415521",
"9 	c #1B2B15",
"0 	c #111F0D",
"a 	c #0A1C0A",
"b 	c #0B1D0A",
"c 	c #1F3019",
"d 	c #182913",
"e 	c #0E230D",
"f 	c #112811",
"g 	c #102510",
"h 	c #0C200C",
"i 	c #0D200D",
"j 	c #0F260F",
"k 	c #0D200C",
"l 	c #12220F",
"m 	c #364A19",
"n 	c #4A6019",
"o 	c #62790C",
"p 	c #62780A",
"q 	c #617709",
"r 	c #617809",
"s 	c #5A7118",
"t 	c #425823",
"u 	c #20341A",
"v 	c #182B14",
"w 	c #132310",
"x 	c #0B1D0B",
"y 	c #214521",
"z 	c #112711",
"A 	c #0C1E0C",
"B 	c #132D13",
"C 	c #214621",
"D 	c #214F21",
"E 	c #142D14",
"F 	c #244924",
"G 	c #224522",
"H 	c #3E521E",
"I 	c #63790B",
"J 	c #62790B",
"K 	c #63780B",
"L 	c #4E651F",
"M 	c #253A1E",
"N 	c #1F3F1E",
"O 	c #193619",
"P 	c #204420",
"Q 	c #244B24",
"R 	c #245424",
"S 	c #224F22",
"T 	c #234A23",
"U 	c #255225",
"V 	c #1B651B",
"W 	c #186818",
"X 	c #235823",
"Y 	c #244A24",
"Z 	c #264F26",
"` 	c #255425",
" .	c #142711",
"..	c #3E501A",
"+.	c #596F16",
"@.	c #657C0D",
"#.	c #516721",
"$.	c #2F4526",
"%.	c #162B13",
"&.	c #0F250F",
"*.	c #132C13",
"=.	c #186918",
"-.	c #156C15",
";.	c #235923",
">.	c #265126",
",.	c #215C21",
"'.	c #255325",
").	c #275027",
"!.	c #196819",
"~.	c #274E27",
"{.	c #0E200D",
"].	c #394A17",
"^.	c #587209",
"/.	c #657B0D",
"(.	c #5B7019",
"_.	c #415622",
":.	c #1A2C16",
"<.	c #0E230E",
"[.	c #153015",
"}.	c #224722",
"|.	c #235723",
"1.	c #176A17",
"2.	c #117011",
"3.	c #107010",
"4.	c #116F11",
"5.	c #146D14",
"6.	c #215D21",
"7.	c #1A661A",
"8.	c #205D20",
"9.	c #245524",
"0.	c #1B661B",
"a.	c #225A22",
"b.	c #0C1E0B",
"c.	c #536D08",
"d.	c #516720",
"e.	c #20321A",
"f.	c #0B1C0A",
"g.	c #136D13",
"h.	c #176917",
"i.	c #637B0D",
"j.	c #657D0F",
"k.	c #5D751A",
"l.	c #445B25",
"m.	c #22351C",
"n.	c #265026",
"o.	c #112710",
"p.	c #152411",
"q.	c #607A0C",
"r.	c #5C741A",
"s.	c #435823",
"t.	c #1B2D16",
"u.	c #0F240F",
"v.	c #224622",
"w.	c #215021",
"x.	c #60780B",
"y.	c #4F651F",
"z.	c #1C2D16",
"A.	c #152F15",
"B.	c #274F27",
"C.	c #0D1E0C",
"D.	c #587019",
"E.	c #3F5421",
"F.	c #102710",
"G.	c #264D26",
"H.	c #214421",
"I.	c #0C1D0B",
"J.	c #4C611C",
"K.	c #102A10",
"L.	c #1F4B1F",
"M.	c #225022",
"N.	c #163316",
"O.	c #215921",
"P.	c #176217",
"Q.	c #172713",
"R.	c #384A17",
"S.	c #0C1D0C",
"T.	c #1F4A1F",
"U.	c #176817",
"V.	c #1F541F",
"W.	c #153115",
"X.	c #1F4C1F",
"Y.	c #205520",
"Z.	c #163E16",
"`.	c #1D401D",
" +	c #445229",
".+	c #101E0D",
"++	c #205420",
"@+	c #204520",
"#+	c #153215",
"$+	c #1F5E1F",
"%+	c #196619",
"&+	c #1E501E",
"*+	c #0B1A0A",
"=+	c #505843",
"-+	c #081607",
";+	c #122912",
">+	c #234823",
",+	c #225922",
"'+	c #1D611D",
")+	c #192813",
"!+	c #1E4B1F",
"~+	c #163016",
"{+	c #224E22",
"]+	c #224B22",
"^+	c #234923",
"/+	c #091B09",
"(+	c #1B3B1B",
"_+	c #143214",
":+	c #225822",
"<+	c #214B20",
"[+	c #203215",
"}+	c #203F1E",
"|+	c #234924",
"1+	c #264E27",
"2+	c #254B25",
"3+	c #163116",
"4+	c #122A12",
"5+	c #1E3F1E",
"6+	c #3D4F1C",
"7+	c #091908",
"8+	c #102810",
"9+	c #234B24",
"0+	c #202A13",
"a+	c #3D2A14",
"b+	c #272510",
"c+	c #142911",
"d+	c #204521",
"e+	c #254924",
"f+	c #2B4722",
"g+	c #232C13",
"h+	c #20220E",
"i+	c #202B13",
"j+	c #244622",
"k+	c #264E26",
"l+	c #0C1F0C",
"m+	c #3A4B17",
"n+	c #182814",
"o+	c #234521",
"p+	c #29240F",
"q+	c #472F16",
"r+	c #432C15",
"s+	c #201A0A",
"t+	c #1E210D",
"u+	c #272610",
"v+	c #3F3117",
"w+	c #462F17",
"x+	c #472E16",
"y+	c #422C15",
"z+	c #202912",
"A+	c #10200E",
"B+	c #2B3F23",
"C+	c #0D1F0C",
"D+	c #222B12",
"E+	c #3F2A14",
"F+	c #4C3218",
"G+	c #483017",
"H+	c #311F0D",
"I+	c #422B14",
"J+	c #3E2813",
"K+	c #36210E",
"L+	c #4F3216",
"M+	c #543518",
"N+	c #533518",
"O+	c #482F16",
"P+	c #1C1206",
"Q+	c #23381D",
"R+	c #193518",
"S+	c #0D210D",
"T+	c #132B13",
"U+	c #14210D",
"V+	c #32220F",
"W+	c #301E0D",
"X+	c #442C15",
"Y+	c #482F17",
"Z+	c #35220E",
"`+	c #4E3014",
" @	c #643B14",
".@	c #673D13",
"+@	c #643C14",
"@@	c #513315",
"#@	c #281808",
"$@	c #121206",
"%@	c #222C13",
"&@	c #2C4823",
"*@	c #265425",
"=@	c #255525",
"-@	c #415723",
";@	c #1E331A",
">@	c #0E240E",
",@	c #18210D",
"'@	c #261709",
")@	c #201306",
"!@	c #281809",
"~@	c #452D15",
"{@	c #3D240D",
"]@	c #503113",
"^@	c #613A14",
"/@	c #583717",
"(@	c #4E3013",
"_@	c #301E0C",
":@	c #432B15",
"<@	c #473017",
"[@	c #443A1C",
"}@	c #2B4822",
"|@	c #214F22",
"1@	c #1A651A",
"2@	c #176017",
"3@	c #1E481E",
"4@	c #597019",
"5@	c #1D3118",
"6@	c #0C210C",
"7@	c #1C2611",
"8@	c #231608",
"9@	c #1F1206",
"0@	c #1C1005",
"a@	c #1B1005",
"b@	c #2F1A06",
"c@	c #5A330C",
"d@	c #643A13",
"e@	c #573718",
"f@	c #573618",
"g@	c #623A15",
"h@	c #4C3219",
"i@	c #4E3319",
"j@	c #483118",
"k@	c #2A2510",
"l@	c #234421",
"m@	c #1E4B1E",
"n@	c #0B340B",
"o@	c #0C230B",
"p@	c #1A2B15",
"q@	c #61770A",
"r@	c #566E19",
"s@	c #1D3018",
"t@	c #172812",
"u@	c #304426",
"v@	c #242C17",
"w@	c #1F2310",
"x@	c #222A15",
"y@	c #3A4C18",
"z@	c #3A4209",
"A@	c #341D06",
"B@	c #523315",
"C@	c #543618",
"D@	c #5C3816",
"E@	c #462E16",
"F@	c #412A14",
"G@	c #3C2812",
"H@	c #1B1F0C",
"I@	c #0B1F0B",
"J@	c #132910",
"K@	c #1C2F17",
"L@	c #405623",
"M@	c #5B7409",
"N@	c #496405",
"O@	c #425B1D",
"P@	c #4E641D",
"Q@	c #4D641E",
"R@	c #506922",
"S@	c #52681F",
"T@	c #4F661E",
"U@	c #4B631E",
"V@	c #4C631E",
"W@	c #36420B",
"X@	c #311B07",
"Y@	c #5F3812",
"Z@	c #513418",
"`@	c #493017",
" #	c #261809",
".#	c #1D1407",
"+#	c #1D1608",
"@#	c #161F0E",
"##	c #162511",
"$#	c #1D2E17",
"%#	c #435822",
"&#	c #50681F",
"*#	c #577019",
"=#	c #536D07",
"-#	c #4E6A08",
";#	c #4A6505",
">#	c #5E760B",
",#	c #647B0D",
"'#	c #61790C",
")#	c #546C13",
"!#	c #33420D",
"~#	c #251809",
"{#	c #4C2F14",
"]#	c #673C13",
"^#	c #563618",
"/#	c #5A3816",
"(#	c #4E3318",
"_#	c #1B1407",
":#	c #38460F",
"<#	c #495C10",
"[#	c #4B5E14",
"}#	c #4B5F17",
"|#	c #4C621C",
"1#	c #4D651E",
"2#	c #51681F",
"3#	c #5E751A",
"4#	c #647D0E",
"5#	c #5F780C",
"6#	c #5C7508",
"7#	c #5B7308",
"8#	c #516B07",
"9#	c #536C07",
"0#	c #63780C",
"a#	c #61780B",
"b#	c #576D14",
"c#	c #36430E",
"d#	c #442D15",
"e#	c #523418",
"f#	c #5B3816",
"g#	c #4D3116",
"h#	c #344109",
"i#	c #495B11",
"j#	c #62780C",
"k#	c #5F770B",
"l#	c #657D0E",
"m#	c #627B0D",
"n#	c #637A0B",
"o#	c #596E13",
"p#	c #49590C",
"q#	c #37440C",
"r#	c #4D3319",
"s#	c #563617",
"t#	c #49590A",
"u#	c #64790C",
"v#	c #647A0C",
"w#	c #667A0E",
"x#	c #647A0D",
"y#	c #61790A",
"z#	c #62790A",
"A#	c #596F14",
"B#	c #485A0C",
"C#	c #37430B",
"D#	c #1A1105",
"E#	c #372310",
"F#	c #354008",
"G#	c #49590B",
"H#	c #495A0B",
"I#	c #4A5A0D",
"J#	c #586D13",
"K#	c #62770A",
"L#	c #61790B",
"M#	c #596E14",
"N#	c #37450E",
"O#	c #442D16",
"P#	c #35220F",
"Q#	c #1B1105",
"R#	c #465909",
"S#	c #46590C",
"T#	c #63780A",
"U#	c #647A0A",
"V#	c #657B0C",
"W#	c #647B0C",
"X#	c #617B0D",
"Y#	c #5E760A",
"Z#	c #536B12",
"`#	c #35430D",
" $	c #261909",
".$	c #301F0D",
"+$	c #2F1D0C",
"@$	c #271809",
"#$	c #1C1105",
"$$	c #1B1106",
"%$	c #37440E",
"&$	c #566E13",
"*$	c #667D0E",
"=$	c #5C760B",
"-$	c #43570D",
";$	c #291909",
">$	c #412B14",
",$	c #1B1206",
"'$	c #4C5F10",
")$	c #667E0F",
"  . + @ # $ % & * = - ; > , ' ) ! ~ ~ { ] ^ ! ~ { / ( _ : < [ } ",
"| 1 2 3 4 5 6 7 8 9 0 a b c d e f g g f h i f j f k l m n 5 o o ",
"4 p q r s t u v w x f y y z A B C D D C E E y F G E f k l H s % ",
"I J K K L M N O h P Q R R S T F U V W X Q Y Z ` R Q y E f  ...+.",
"@.% p & #.$.%.&.*.Q X =.-.=.;.` >.,.=.V '.).X =.!.` ~.Y y *.{.].",
"^./.& (._.:.<.[.}.|.1.2.3.4.5.=.6.7.8.9.).'.0.4.5.a.9.` Z Y P b.",
"c./.@.d.e.f.f y R =.2.3.3.3.3.4.g.4.h.;.` >.X 1.4.5.-.=.X Z y a ",
"i.j.k.l.m.h E Y 9.-.3.3.3.3.3.3.3.3.4.5.=.X n.X 1.4.3.2.=.D o.p.",
"q.r.s.t.u.[.v.~.` =.2.3.3.3.3.3.3.3.3.3.2.1.X n.;.5.3.3.-.w.z e.",
"x.y.z.a A.v.~.B.).X 1.4.3.3.3.3.3.3.3.3.3.2.=.` ` =.2.3.-.R y C.",
"D.E.l F.v.G.Y Y ~.).;.5.3.3.3.3.3.3.3.3.3.3.5.;.n.X =.5.-.R H.I.",
"J.) K.L.R M.N.[.y F R -.3.3.3.3.3.3.3.3.3.3.4.1.;.9.;.O.P.D z Q.",
"R.S.T.W -.U.V.L.W.[.X.W 5.4.3.3.3.3.3.3.3.3.3.4.-.=.W Y.Z.`.C. +",
".+u.D -.3.4.5.U.++@+#+S ;.=.5.4.3.4.5.-.-.-.-.5.-.$+-.%+&+#+*+=+",
"-+g D -.3.3.3.2.=.D ;+>+).` ;.=.-.=.;.9.9.9.9.,+V ,+V ,.'+T.a )+",
"! *.X.W 5.4.4.5.W !+~+Y B.B.).` 9.` ).B.B.B.B.).'.n.{+]+S ^+x )+",
"/+(+_+S ;.=.=.:+<+[+}+|+~.B.1+Y |+|+Y 1+B.B.B.B.B.2+3+4+~+5+b.6+",
"7+8+*.y Z ` ` 9+0+a+b+c+d+e+f+g+h+h+i+j+~.B.B.B.B.k+Y ^+y 3+l+m+",
"n+l+(+[.Y B.~.o+p+q+r+s+t+u+v+w+x+q+y+z+y ~.B.B.).'.).B.~.v.A.A+",
"B+C+8+*.H.F y D+E+F+G+H+I+J+K+L+M+N+O+P+j y Y 1+` V ,+` ).~.y a ",
"Q+R+S+(+T+&.U+V+W+X+F+Y+r+Z+`+ @.@+@@@#@$@t+%@&@*@!.W V ;.=@T b ",
"-@;@&.f S+>@,@'@)@!@r+~@{@]@^@/@/@/@^@(@_@:@<@[@}@|@R X 1@2@3@I.",
"4@-@5@&.6@&.7@8@9@0@a@b@c@d@e@f@g@f@/@ @L+h@i@j@k@0+l@T m@n@o@p@",
"q@r@-@s@t@s@u@v@w@x@y@z@A@B@C@ @D@ @/@ @N+h@Y+E@F@G@H@I@S+J@K@L@",
"M@N@D.O@P@Q@R@S@T@U@V@W@X@Y@/@ @D@ @N+Z@`@r+ #P+.#+#@###$#%#&#*#",
"M@=#-#;#>#.   ,#'#)#!#~#{#]#C@^#g@/#(#X+ #_#:#<#[#}#|#1#2#3#4#5#",
"6#7#8#9#2 J 0#a#b#c# #d#e# @/@C@f#g@g# #h#i#+.j#o x.k#'#i.l#m#5#",
"1 2 q@4 n#I o#p#q# #r+Y+r#s# @.@ @^#O+a@t#u#v#w#% 4 q@x.a#x#o J ",
"y#q z#J A#B#C#D# #d#Y+E#`@i@N+N+L+r#Y+ #F#G#H#I#J#z#K#2 I K J I ",
"L#a#| M#N#D# #r+Y+h@h@Y+Y+h@h@O#P#`@h@X+ #a@0@Q#C#R#S#M#T#U#V#W#",
"X#Y#Z#`# $r+Y+h@r#r#r#Y+.$Y+Y++$r+h@r#h@Y+q+q+r+@$#$$$%$&$,#*$*$",
"X#=$-$$$:@h@r#r#r#r#r#q+;$q+q+;$q+r#r#r#r#r#r#h@Y+x+>$,$'$[ )$)$"};
