/* XPM */
static char * wall6_xpm[] = {
"32 32 475 2",
"  	c #60790C",
". 	c #5E770A",
"+ 	c #5C7409",
"@ 	c #5C7509",
"# 	c #5F7609",
"$ 	c #62780B",
"% 	c #63790C",
"& 	c #64790B",
"* 	c #607327",
"= 	c #6A7058",
"- 	c #6B705C",
"; 	c #4A5A1A",
"> 	c #45580D",
", 	c #4C631F",
"' 	c #3F5522",
") 	c #1A2D16",
"! 	c #0C1D0B",
"~ 	c #0B1C0B",
"{ 	c #0A1C0A",
"] 	c #0A1909",
"^ 	c #22341B",
"/ 	c #192C15",
"( 	c #0A1A09",
"_ 	c #3A4B16",
": 	c #425919",
"< 	c #506A17",
"[ 	c #627A0C",
"} 	c #617A0C",
"| 	c #647C0D",
"1 	c #647C0E",
"2 	c #60780A",
"3 	c #5F7709",
"4 	c #60770A",
"5 	c #5F7608",
"6 	c #61780A",
"7 	c #597018",
"8 	c #50651F",
"9 	c #50641D",
"0 	c #415521",
"a 	c #1D3118",
"b 	c #152712",
"c 	c #081708",
"d 	c #1F3019",
"e 	c #1C3319",
"f 	c #214621",
"g 	c #214F21",
"h 	c #132C13",
"i 	c #112811",
"j 	c #214521",
"k 	c #224E22",
"l 	c #152F15",
"m 	c #0D200C",
"n 	c #111F0E",
"o 	c #364A18",
"p 	c #4A6019",
"q 	c #62790C",
"r 	c #62780A",
"s 	c #617709",
"t 	c #617809",
"u 	c #5A7118",
"v 	c #425823",
"w 	c #20341A",
"x 	c #182F16",
"y 	c #214421",
"z 	c #244924",
"A 	c #245424",
"B 	c #186818",
"C 	c #244B24",
"D 	c #235723",
"E 	c #1B661B",
"F 	c #235823",
"G 	c #224722",
"H 	c #122B12",
"I 	c #061306",
"J 	c #0B1C0A",
"K 	c #132310",
"L 	c #3E521E",
"M 	c #63790B",
"N 	c #62790B",
"O 	c #63780B",
"P 	c #4E651F",
"Q 	c #253A1E",
"R 	c #20401F",
"S 	c #234823",
"T 	c #245324",
"U 	c #245524",
"V 	c #234B23",
"W 	c #274E27",
"X 	c #255425",
"Y 	c #186918",
"Z 	c #156C15",
"` 	c #245624",
" .	c #235923",
"..	c #176A17",
"+.	c #116F11",
"@.	c #255325",
"#.	c #224522",
"$.	c #132D13",
"%.	c #1B3A1B",
"&.	c #142E14",
"*.	c #142711",
"=.	c #3E501A",
"-.	c #596F16",
";.	c #657C0D",
">.	c #516721",
",.	c #2F4626",
"'.	c #1B3519",
").	c #244C24",
"!.	c #1B651B",
"~.	c #107010",
"{.	c #146D14",
"].	c #225A22",
"^.	c #183518",
"/.	c #1C3D1C",
"(.	c #0F220E",
"_.	c #394A16",
":.	c #587209",
"<.	c #657B0D",
"[.	c #5B7019",
"}.	c #415622",
"|.	c #1E351A",
"1.	c #117011",
"2.	c #265126",
"3.	c #196819",
"4.	c #1E3F1E",
"5.	c #091908",
"6.	c #536D08",
"7.	c #516720",
"8.	c #21351B",
"9.	c #265026",
"0.	c #122A12",
"a.	c #204220",
"b.	c #0F250F",
"c.	c #071607",
"d.	c #637B0D",
"e.	c #657D0F",
"f.	c #5D751A",
"g.	c #445B25",
"h.	c #243A1E",
"i.	c #173117",
"j.	c #225122",
"k.	c #0B1F0B",
"l.	c #152411",
"m.	c #607A0C",
"n.	c #5C741A",
"o.	c #435923",
"p.	c #214721",
"q.	c #225022",
"r.	c #215921",
"s.	c #20311A",
"t.	c #60780B",
"u.	c #4F651F",
"v.	c #1E3119",
"w.	c #166B16",
"x.	c #234A23",
"y.	c #1E3E1E",
"z.	c #102810",
"A.	c #587019",
"B.	c #3F5421",
"C.	c #244A24",
"D.	c #215D21",
"E.	c #225822",
"F.	c #1A5E1A",
"G.	c #214D21",
"H.	c #102610",
"I.	c #0F240F",
"J.	c #091808",
"K.	c #4C611C",
"L.	c #275027",
"M.	c #1A671A",
"N.	c #205520",
"O.	c #163F16",
"P.	c #1E401E",
"Q.	c #0E240E",
"R.	c #0A1B0A",
"S.	c #182813",
"T.	c #384917",
"U.	c #0C1F0C",
"V.	c #274F27",
"W.	c #136D13",
"X.	c #146C14",
"Y.	c #176817",
"Z.	c #1F4D1F",
"`.	c #133913",
" +	c #102C10",
".+	c #445229",
"++	c #101F0D",
"@+	c #173417",
"#+	c #254B25",
"$+	c #146B14",
"%+	c #136413",
"&+	c #1E521E",
"*+	c #115611",
"=+	c #103710",
"-+	c #0B1A0A",
";+	c #505943",
">+	c #143214",
",+	c #1F4C1F",
"'+	c #163316",
")+	c #153015",
"!+	c #123A12",
"~+	c #102E10",
"{+	c #113611",
"]+	c #1B3C1B",
"^+	c #0E230E",
"/+	c #081807",
"(+	c #1A2A14",
"_+	c #1F4B1F",
":+	c #1F541F",
"<+	c #153115",
"[+	c #224622",
"}+	c #234923",
"|+	c #142D14",
"1+	c #205420",
"2+	c #204520",
"3+	c #163016",
"4+	c #264E27",
"5+	c #234924",
"6+	c #112911",
"7+	c #091708",
"8+	c #3D4F1C",
"9+	c #0D1F0C",
"0+	c #1D3E1D",
"a+	c #163116",
"b+	c #204521",
"c+	c #254924",
"d+	c #2B4722",
"e+	c #232C13",
"f+	c #20220E",
"g+	c #202B13",
"h+	c #244622",
"i+	c #214520",
"j+	c #1A651A",
"k+	c #1C200D",
"l+	c #181808",
"m+	c #1E210D",
"n+	c #272610",
"o+	c #3F3117",
"p+	c #462F17",
"q+	c #472E16",
"r+	c #472F16",
"s+	c #422C15",
"t+	c #202912",
"u+	c #255525",
"v+	c #0E1D0B",
"w+	c #2B4023",
"x+	c #173116",
"y+	c #224A20",
"z+	c #203215",
"A+	c #283C1C",
"B+	c #3E2F16",
"C+	c #301D0C",
"D+	c #422B14",
"E+	c #3E2813",
"F+	c #36210E",
"G+	c #4F3216",
"H+	c #543518",
"I+	c #533518",
"J+	c #482F16",
"K+	c #1C1206",
"L+	c #0F260F",
"M+	c #234B24",
"N+	c #204420",
"O+	c #0C270C",
"P+	c #031C03",
"Q+	c #23381D",
"R+	c #20411F",
"S+	c #264D26",
"T+	c #202A13",
"U+	c #3D2A14",
"V+	c #312812",
"W+	c #473017",
"X+	c #482F17",
"Y+	c #432C15",
"Z+	c #35220E",
"`+	c #4E3014",
" @	c #643B14",
".@	c #673D13",
"+@	c #643C14",
"@@	c #513315",
"#@	c #281808",
"$@	c #121206",
"%@	c #20230E",
"&@	c #212B13",
"*@	c #234521",
"=@	c #112C11",
"-@	c #153A15",
";@	c #081E08",
">@	c #415723",
",@	c #20371B",
"'@	c #292410",
")@	c #452D15",
"!@	c #3D240D",
"~@	c #503113",
"{@	c #613A14",
"]@	c #583717",
"^@	c #4E3013",
"/@	c #301E0C",
"(@	c #432B15",
"_@	c #462E16",
":@	c #3D2913",
"<@	c #1D200D",
"[@	c #0D230D",
"}@	c #163816",
"|@	c #0A300A",
"1@	c #0E2A0E",
"2@	c #0A1B09",
"3@	c #597019",
"4@	c #1F361B",
"5@	c #222F16",
"6@	c #261809",
"7@	c #2F1A06",
"8@	c #5A330C",
"9@	c #643A13",
"0@	c #573718",
"a@	c #573618",
"b@	c #623A15",
"c@	c #4C3219",
"d@	c #4D3219",
"e@	c #442D15",
"f@	c #2A1A0A",
"g@	c #2F1F0D",
"h@	c #181E0B",
"i@	c #102910",
"j@	c #0E270E",
"k@	c #1A2C16",
"l@	c #61770A",
"m@	c #566E19",
"n@	c #1E3219",
"o@	c #1E321A",
"p@	c #304426",
"q@	c #272D17",
"r@	c #242511",
"s@	c #262C16",
"t@	c #3B4C18",
"u@	c #3A4209",
"v@	c #341D06",
"w@	c #523315",
"x@	c #543618",
"y@	c #5C3816",
"z@	c #523418",
"A@	c #29190A",
"B@	c #211307",
"C@	c #251708",
"D@	c #171908",
"E@	c #142E11",
"F@	c #1D3117",
"G@	c #405623",
"H@	c #5B7409",
"I@	c #496405",
"J@	c #425B1D",
"K@	c #4E641D",
"L@	c #4D641E",
"M@	c #506922",
"N@	c #52681F",
"O@	c #4F661E",
"P@	c #4B631E",
"Q@	c #4C631E",
"R@	c #36420B",
"S@	c #311B07",
"T@	c #5F3812",
"U@	c #513418",
"V@	c #281809",
"W@	c #1B1005",
"X@	c #140C04",
"Y@	c #161005",
"Z@	c #181307",
"`@	c #161F0E",
" #	c #162712",
".#	c #1D2F18",
"+#	c #435822",
"@#	c #50681F",
"##	c #577019",
"$#	c #536D07",
"%#	c #4E6A08",
"&#	c #4A6505",
"*#	c #5E760B",
"=#	c #647B0D",
"-#	c #61790C",
";#	c #546C13",
">#	c #33420D",
",#	c #251809",
"'#	c #4C2F14",
")#	c #673C13",
"!#	c #563618",
"~#	c #5A3816",
"{#	c #4E3318",
"]#	c #442C15",
"^#	c #261709",
"/#	c #130E05",
"(#	c #38460F",
"_#	c #495C10",
":#	c #4B5E14",
"<#	c #4B5F17",
"[#	c #4C621C",
"}#	c #4D651E",
"|#	c #51681F",
"1#	c #5E751A",
"2#	c #647D0E",
"3#	c #5F780C",
"4#	c #5C7508",
"5#	c #5B7308",
"6#	c #516B07",
"7#	c #536C07",
"8#	c #63780C",
"9#	c #61780B",
"0#	c #576D14",
"a#	c #36430E",
"b#	c #5B3816",
"c#	c #4D3116",
"d#	c #344109",
"e#	c #495B11",
"f#	c #62780C",
"g#	c #5F770B",
"h#	c #657D0E",
"i#	c #627B0D",
"j#	c #637A0B",
"k#	c #596E13",
"l#	c #49590C",
"m#	c #37440C",
"n#	c #4D3319",
"o#	c #563617",
"p#	c #49590A",
"q#	c #64790C",
"r#	c #647A0C",
"s#	c #667A0E",
"t#	c #647A0D",
"u#	c #61790A",
"v#	c #62790A",
"w#	c #596F14",
"x#	c #485A0C",
"y#	c #37430B",
"z#	c #1A1105",
"A#	c #372310",
"B#	c #493017",
"C#	c #4E3319",
"D#	c #354008",
"E#	c #49590B",
"F#	c #495A0B",
"G#	c #4A5A0D",
"H#	c #586D13",
"I#	c #62770A",
"J#	c #61790B",
"K#	c #596E14",
"L#	c #37450E",
"M#	c #442D16",
"N#	c #35220F",
"O#	c #1C1005",
"P#	c #1B1105",
"Q#	c #465909",
"R#	c #46590C",
"S#	c #63780A",
"T#	c #647A0A",
"U#	c #657B0C",
"V#	c #647B0C",
"W#	c #617B0D",
"X#	c #5E760A",
"Y#	c #536B12",
"Z#	c #35430D",
"`#	c #261909",
" $	c #301F0D",
".$	c #2F1D0C",
"+$	c #271809",
"@$	c #1C1105",
"#$	c #1B1106",
"$$	c #37440E",
"%$	c #566E13",
"&$	c #667D0E",
"*$	c #5C760B",
"=$	c #43570D",
"-$	c #291909",
";$	c #412B14",
">$	c #1B1206",
",$	c #4C5F10",
"'$	c #667E0F",
"  . + @ # $ % & * = - ; > , ' ) ! ~ { ] ^ / ! { ( _ : < [ } | 1 ",
"2 3 4 5 6 7 8 9 0 a b { c d e f g g f h i j k f l m n o p 7 q q ",
"6 r s t u v w / x y z j h i j A B B A z C D E F G H I J K L u % ",
"M N O O P Q R S C T U A g V W X Y Z ` X  ...+.Y @.#.$.%.&.*.=.-.",
";.% r & >.,.'.).F Y Z Z Y  .U U  .!.F !.Z +.~.{.].X G ^./.&.(._.",
":.<.& [.}.|.f D ..1.~.~.+.{.Z Y  .X 2.F ..1.~.+.{.3.A #.l 4.i 5.",
"6.<.;.7.8.4.T Y 1.~.~.~.~.~.~.1... .X 9.F ..1.~.~.Z U z 0.a.b.c.",
"d.e.f.g.h.i.j.Z ~.~.~.~.~.~.~.~.+.{.Y F 9.F ..+.~.Z U z 0.a.k.l.",
"m.n.o.|.p.q.r.{.~.~.~.~.~.~.~.~.~.~.1...F 9. .{.~.Z U z 0.a.k.s.",
"t.u.v.y T 3.{.+.~.~.~.~.~.~.~.~.~.~.~.1.Y X U w.{.Y F x.0.y.z.] ",
"A.B.x C.X 3.{.+.~.~.~.~.~.~.~.~.~.~.~.~.{. .U E D.E.F.G.H.i I.J.",
"K.) y W L.X  .Y {.+.~.~.~.~.~.~.~.~.~.~.+...].D.M.N.O.P.i Q.R.S.",
"T.U.j W V.V.L.X ].Z W.+.~.~.~.~.~.~.~.~.~.+.X.X.+.Y.Z.`. +z.R..+",
"++z.@+#+W C.C.W X !.D.Y {.+.~.~.~.+.{.Z Z Z Z Z $+%+&+*+=+Q.-+;+",
"c >+,+A q.'+)+j C @.2.X  .Y Z Z Z Y  .U U U U U j.!+~+{+]+^+/+(+",
"R._+B Z Y.:+_+<+)+[+W V.L.X U U U X L.V.V.V.V.V.W z }+#.l |+{ (+",
"~ g Z ~.+.{.Y.1+2+3+z #+W V.4+C.5+5+C.4+V.V.V.V.V.L.X A p.6+7+8+",
"9+g Y 1.~.+.{.B g i 0+a+b+c+d+e+f+f+g+h+W V.V.V.L.F Y B A j J _ ",
") i+D Y Z Y D.j+_+*.k+l+m+n+o+p+q+r+s+t+j W V.V.@.!.Z B u+z k.v+",
"w+x+).X U X 9.y+z+A+B+C+D+E+F+G+H+I+J+K+L+j 5+5+M+A U A C N+O+P+",
"Q+R+S+V.V.V.C.T+U+V+W+X+Y+Z+`+ @.@+@@@#@$@m+%@f+&@*@5+j =@O+-@;@",
">@,@[+W V.W *@'@J+X+r+)@!@~@{@]@]@]@{@^@/@(@r+_@:@<@U.[@}@|@1@2@",
"3@>@4@j z j 5@:@_@Y+6@7@8@9@0@a@b@a@]@ @G+c@d@e@f@g@h@k.i@|@j@k@",
"l@m@>@n@/ o@p@q@r@s@t@u@v@w@x@ @y@ @]@ @z@X+Y+A@B@C@D@k.L+E@F@G@",
"H@I@A.J@K@L@M@N@O@P@Q@R@S@T@]@ @y@ @I+U@)@V@W@X@Y@Z@`@ #.#+#@###",
"H@$#%#&#*#.   =#-#;#>#,#'#)#x@!#b@~#{#]#^#/#(#_#:#<#[#}#|#1#2#3#",
"4#5#6#7#4 N 8#9#0#a#6@e@z@ @]@x@b#b@c#6@d#e#-.f#q t.g#-#d.h#i#3#",
"3 4 l@6 j#M k#l#m#6@Y+X+n#o# @.@ @!#J+W@p#q#r#s#% 6 l@t.9#t#q N ",
"u#s v#N w#x#y#z#6@e@X+A#B#C#I+I+G+n#X+6@D#E#F#G#H#v#I#4 M O N M ",
"J#9#2 K#L#z#6@Y+X+c@c@X+X+c@c@M#N#B#c@]#6@W@O#P#y#Q#R#K#S#T#U#V#",
"W#X#Y#Z#`#Y+X+c@n#n#n#X+ $X+X+.$Y+c@n#c@X+r+r+Y++$@$#$$$%$=#&$&$",
"W#*$=$#$(@c@n#n#n#n#n#r+-$r+r+-$r+n#n#n#n#n#n#c@X+q+;$>$,$| '$'$"};
